<svg xmlns="http://www.w3.org/2000/svg" width="224.225" height="312.808"><g transform="rotate(180 3464.056 -1061.345)"><rect y="-2435" x="6704.386" height="311.811" width="223.228" rx="10.63" ry="10.63" fill="#fff" stroke="#000" stroke-width=".997"/></g><path d="M216.098 266.965v31.507h-3.11v-31.507zM203.769 298.472c2.994 0 5.401-2.687 5.401-6.023v-19.461c0-3.336-2.407-6.023-5.401-6.023h-1.745c-2.994 0-5.406 2.687-5.406 6.023v19.461c0 3.336 2.412 6.023 5.406 6.023h1.745zm-.901-2.978c-1.769 0-3.192-1.337-3.192-3.002v-19.723c0-1.664 1.423-3.006 3.192-3.006 1.768 0 3.191 1.342 3.191 3.006v19.723c0 1.665-1.423 3.002-3.191 3.002zM8.127 45.843V14.336h3.11v31.507zM20.456 14.336c-2.994 0-5.401 2.687-5.401 6.023V39.82c0 3.336 2.407 6.023 5.401 6.023h1.745c2.994 0 5.406-2.687 5.406-6.023V20.36c0-3.336-2.412-6.023-5.406-6.023h-1.745zm.901 2.978c1.769 0 3.192 1.337 3.192 3.002v19.722c0 1.665-1.423 3.007-3.192 3.007-1.768 0-3.191-1.342-3.191-3.007V20.316c0-1.665 1.423-3.002 3.191-3.002zM155.757 151.47c2.879-5.776 4.975-11.702 5.348-18.038.341-2.332-1.075-2.37-1.288-.729-4.077 15.593-25.763 11.37-25.018-3.296.605-11.895 12.42-14.454 18.583-10.565 2.433 1.433 2.296.575.968-.911-9.155-10.212-3.61-23.362 8.76-23.603 13.38.794 16.852 14.87 8.645 23.148-1.02.995-3.283 4.192.123 1.957 8.287-5.888 19.787.443 19.553 9.52-.433 16.74-20.84 17.988-25.203 4.006-.42-1.55-1.63-2.328-1.295.305.604 4.766 1.856 11.953 5.437 18.205zM52.224 151.47c2.879-5.776 4.976-11.702 5.348-18.038.341-2.332-1.075-2.37-1.288-.729-4.077 15.593-25.763 11.37-25.017-3.296.605-11.895 12.42-14.454 18.582-10.565 2.434 1.433 2.296.575.968-.911-9.155-10.212-3.61-23.362 8.761-23.603 13.38.794 16.851 14.87 8.644 23.148-1.02.995-3.283 4.192.123 1.957 8.287-5.888 19.788.443 19.553 9.52-.433 16.74-20.84 17.988-25.203 4.006-.42-1.55-1.63-2.328-1.295.305.605 4.766 1.856 11.953 5.437 18.205zM103.94 118.804c2.878-5.776 4.975-11.701 5.347-18.037.342-2.332-1.074-2.371-1.288-.729-4.076 15.593-25.762 11.37-25.017-3.296.605-11.895 12.42-14.454 18.583-10.565 2.433 1.433 2.296.575.967-.912-9.154-10.211-3.61-23.362 8.762-23.602 13.38.793 16.85 14.87 8.644 23.148-1.02.995-3.284 4.191.123 1.956 8.287-5.888 19.787.443 19.553 9.521-.433 16.739-20.84 17.987-25.204 4.006-.42-1.55-1.629-2.329-1.295.304.605 4.767 1.857 11.954 5.438 18.206zM155.757 86.139c2.879-5.776 4.975-11.701 5.348-18.038.341-2.331-1.075-2.37-1.288-.728-4.077 15.593-25.763 11.37-25.018-3.297.605-11.895 12.42-14.454 18.583-10.564 2.433 1.433 2.296.574.968-.912-9.155-10.211-3.61-23.362 8.76-23.603 13.38.794 16.852 14.87 8.645 23.149-1.02.994-3.283 4.191.123 1.956 8.287-5.888 19.787.443 19.553 9.52-.433 16.74-20.84 17.988-25.203 4.007-.42-1.55-1.63-2.329-1.295.304.604 4.767 1.856 11.953 5.437 18.206zM52.224 86.139c2.879-5.776 4.976-11.701 5.348-18.038.341-2.331-1.075-2.37-1.288-.728-4.077 15.593-25.763 11.37-25.017-3.297.605-11.895 12.42-14.454 18.582-10.564 2.434 1.433 2.296.574.968-.912-9.155-10.211-3.61-23.362 8.761-23.603 13.38.794 16.851 14.87 8.644 23.149-1.02.994-3.283 4.191.123 1.956 8.287-5.888 19.788.443 19.553 9.52-.433 16.74-20.84 17.988-25.203 4.007-.42-1.55-1.63-2.329-1.295.304.605 4.767 1.856 11.953 5.437 18.206zM66.926 161.338c-2.88 5.776-4.976 11.701-5.348 18.037-.342 2.332 1.074 2.371 1.288.73 4.076-15.594 25.762-11.371 25.017 3.296-.605 11.894-12.42 14.453-18.582 10.564-2.434-1.433-2.297-.574-.968.912 9.154 10.211 3.61 23.362-8.762 23.602-13.38-.793-16.85-14.87-8.644-23.148 1.02-.995 3.284-4.191-.123-1.956-8.287 5.888-19.787-.443-19.552-9.521.432-16.739 20.839-17.987 25.203-4.006.42 1.55 1.629 2.329 1.295-.304-.605-4.767-1.857-11.954-5.438-18.206zM66.926 226.669c-2.88 5.775-4.976 11.7-5.348 18.037-.342 2.332 1.074 2.37 1.288.729 4.076-15.593 25.762-11.37 25.017 3.296-.605 11.895-12.42 14.454-18.582 10.565-2.434-1.433-2.297-.575-.968.912 9.154 10.21 3.61 23.361-8.762 23.602-13.38-.793-16.85-14.87-8.644-23.148 1.02-.995 3.284-4.192-.123-1.957-8.287 5.888-19.787-.442-19.552-9.52.432-16.74 20.839-17.988 25.203-4.006.42 1.55 1.629 2.328 1.295-.305-.605-4.766-1.857-11.953-5.438-18.205zM170.459 161.338c-2.88 5.776-4.976 11.701-5.349 18.037-.341 2.332 1.075 2.371 1.289.73 4.076-15.594 25.762-11.371 25.017 3.296-.605 11.894-12.42 14.453-18.583 10.564-2.433-1.433-2.296-.575-.968.912 9.155 10.211 3.61 23.362-8.76 23.602-13.38-.793-16.852-14.87-8.645-23.148 1.02-.995 3.284-4.191-.123-1.956-8.287 5.888-19.787-.443-19.553-9.521.433-16.739 20.84-17.987 25.204-4.006.42 1.55 1.629 2.329 1.295-.304-.605-4.767-1.857-11.954-5.438-18.206zM170.459 226.669c-2.88 5.775-4.976 11.7-5.349 18.037-.341 2.332 1.075 2.37 1.289.729 4.076-15.593 25.762-11.37 25.017 3.296-.605 11.895-12.42 14.454-18.583 10.565-2.433-1.433-2.296-.575-.968.911 9.155 10.212 3.61 23.362-8.76 23.603-13.38-.794-16.852-14.87-8.645-23.148 1.02-.995 3.284-4.192-.123-1.957-8.287 5.888-19.787-.443-19.553-9.52.433-16.74 20.84-17.988 25.204-4.006.42 1.55 1.629 2.328 1.295-.305-.605-4.766-1.857-11.953-5.438-18.205zM119.109 194.004c-2.879 5.775-4.976 11.7-5.348 18.037-.342 2.331 1.074 2.37 1.288.728 4.076-15.592 25.763-11.37 25.017 3.297-.605 11.895-12.42 14.454-18.582 10.564-2.434-1.432-2.296-.574-.968.912 9.155 10.212 3.61 23.362-8.761 23.603-13.38-.794-16.852-14.87-8.645-23.149 1.021-.994 3.284-4.191-.123-1.956-8.286 5.888-19.787-.443-19.552-9.52.432-16.74 20.839-17.988 25.203-4.007.42 1.55 1.63 2.33 1.295-.304-.605-4.766-1.857-11.953-5.437-18.205zM13.67 75.74c1.192-2.446 2.352-4.721 2.985-7.401.419-2.528-.439-1.589-.926.068-.72 2.297-2.722 3.343-4.58 3.369-3.37.045-5.052-2.605-4.948-5.454-.368-2.999 2.671-5.12 4.962-4.957 1.722.123 3.224 1.052 4.133 1.775.596.315 1.234.455.345-.358-1.678-1.833-3.077-2.965-3.046-5.711.029-2.579 2.233-5.268 5.155-5.184 3.652.105 5.312 2.89 5.304 5.48-.01 1.889-.954 3.627-2.412 4.703-.944.766-.68 1.34.398.615 1.035-.892 2.267-1.283 3.545-1.31 3.49-.055 4.855 2.962 4.655 5.764-.188 2.626-2.423 5.329-5.37 5.023-2.63-.302-4.012-2.51-4.804-4.777-.263-.695-.676-.883-.665.153.608 5.057 2.492 8.204 2.506 8.201zM210.575 237.743c-1.192 2.445-2.352 4.72-2.985 7.4-.419 2.528.439 1.59.926-.068.72-2.297 2.722-3.343 4.58-3.368 3.37-.046 5.052 2.604 4.948 5.453.368 2.999-2.671 5.12-4.962 4.957-1.722-.123-3.224-1.052-4.133-1.775-.596-.315-1.234-.455-.345.359 1.678 1.832 3.077 2.964 3.046 5.71-.029 2.58-2.233 5.268-5.155 5.184-3.652-.105-5.312-2.89-5.304-5.48.01-1.889.954-3.627 2.412-4.703.944-.766.68-1.34-.398-.615-1.035.892-2.267 1.283-3.545 1.31-3.49.055-4.855-2.961-4.655-5.764.188-2.626 2.423-5.329 5.37-5.022 2.63.301 4.012 2.51 4.804 4.776.263.696.676.883.665-.153-.608-5.057-2.492-8.204-2.506-8.201z"/></svg>