<svg xmlns="http://www.w3.org/2000/svg" width="224.225" height="312.808"><g transform="translate(-6703.887 2435.498)"><rect ry="10.63" rx="10.63" width="223.228" height="311.811" x="6704.386" y="-2435" fill="#fff" stroke="#000" stroke-width=".997"/><g fill="#d40000"><path d="M6712.014-2389.656v-31.506h3.11v31.506zM6724.344-2421.162c-2.995 0-5.402 2.686-5.402 6.022v19.462c0 3.336 2.407 6.022 5.402 6.022h1.745c2.994 0 5.406-2.686 5.406-6.022v-19.462c0-3.336-2.412-6.022-5.406-6.022h-1.745zm.9 2.978c1.77 0 3.192 1.337 3.192 3.001v19.723c0 1.665-1.423 3.006-3.191 3.006-1.769 0-3.192-1.341-3.192-3.006v-19.723c0-1.664 1.423-3.001 3.192-3.001zM6919.986-2168.533v31.506h-3.111v-31.506zM6907.656-2137.027c2.994 0 5.402-2.686 5.402-6.022v-19.462c0-3.336-2.408-6.022-5.402-6.022h-1.745c-2.994 0-5.406 2.686-5.406 6.022v19.462c0 3.336 2.412 6.022 5.406 6.022h1.745zm-.9-2.978c-1.77 0-3.192-1.337-3.192-3.001v-19.723c0-1.665 1.423-3.007 3.191-3.007 1.769 0 3.192 1.342 3.192 3.007v19.723c0 1.664-1.423 3.001-3.192 3.001z"/></g></g><path d="M9.023 60.638c-1.583-3.472-1.757-9.406 2.97-10.208 3.563-.459 5.012 1.198 5.3 3.742.143.743.562.788.695-.059.205-2.609 2.788-4.132 4.807-3.75 5.526.946 5.204 7.029 3.398 11.156-2.73 5.48-5.6 8.938-8.245 14.452-3.038-5.741-6.507-10.405-8.925-15.333zM43.525 28.822c7.144-.475 10.868 5.627 11.595 10.436.434.764.67.549.837-.042.35-6.174 5.875-11.22 10.993-10.53 8.328.108 13.39 9.375 11.966 17.218-1.738 9.582-6.9 15.351-10.808 21.293-4.421 6.153-10.372 15.04-12.29 19.317 0 0-6.048-9.204-13.917-20.03-5.262-7.238-9.473-15.082-9.865-21.835-.448-7.715 2.72-14.631 11.489-15.827zM99.708 61.487c7.144-.475 10.869 5.627 11.595 10.436.434.764.671.549.837-.042.35-6.174 5.875-11.22 10.993-10.53 8.328.108 13.39 9.375 11.966 17.219-1.738 9.581-6.9 15.35-10.807 21.293-4.422 6.152-10.373 15.04-12.29 19.317 0 0-6.049-9.205-13.918-20.03-5.262-7.239-9.473-15.082-9.865-21.835-.448-7.716 2.72-14.632 11.49-15.828zM155.058 28.822c7.144-.475 10.868 5.627 11.595 10.436.433.764.67.549.837-.042.35-6.174 5.875-11.22 10.993-10.53 8.328.108 13.389 9.375 11.966 17.218-1.739 9.582-6.9 15.351-10.808 21.293-4.421 6.153-10.373 15.04-12.29 19.317 0 0-6.048-9.204-13.917-20.03-5.262-7.238-9.473-15.082-9.865-21.835-.448-7.715 2.719-14.631 11.489-15.827zM155.058 94.152c7.144-.474 10.868 5.628 11.595 10.437.433.763.67.548.837-.043.35-6.174 5.875-11.22 10.993-10.53 8.328.108 13.389 9.376 11.966 17.219-1.739 9.581-6.9 15.351-10.808 21.293-4.421 6.152-10.373 15.04-12.29 19.317 0 0-6.048-9.205-13.917-20.03-5.262-7.238-9.473-15.082-9.865-21.835-.448-7.716 2.719-14.632 11.489-15.828zM43.525 94.152c7.144-.474 10.868 5.628 11.595 10.437.434.763.67.548.837-.043.35-6.174 5.875-11.22 10.993-10.53 8.328.108 13.39 9.376 11.966 17.219-1.738 9.581-6.9 15.351-10.808 21.293-4.421 6.152-10.372 15.04-12.29 19.317 0 0-6.048-9.205-13.917-20.03-5.262-7.238-9.473-15.082-9.865-21.835-.448-7.716 2.72-14.632 11.489-15.828zM155.058 218.542c7.144.475 10.868-5.627 11.595-10.436.433-.764.67-.549.837.042.35 6.174 5.875 11.22 10.993 10.53 8.328-.108 13.389-9.375 11.966-17.218-1.739-9.582-6.9-15.351-10.808-21.293-4.421-6.153-10.373-15.04-12.29-19.317 0 0-6.048 9.204-13.917 20.03-5.262 7.238-9.473 15.082-9.865 21.835-.448 7.715 2.719 14.631 11.489 15.827zM155.058 283.648c7.144.474 10.868-5.628 11.595-10.437.433-.764.67-.548.837.043.35 6.174 5.875 11.22 10.993 10.53 8.328-.108 13.389-9.376 11.966-17.219-1.739-9.581-6.9-15.351-10.808-21.293-4.421-6.152-10.373-15.04-12.29-19.317 0 0-6.048 9.205-13.917 20.03-5.262 7.238-9.473 15.082-9.865 21.835-.448 7.716 2.719 14.632 11.489 15.828zM99.24 251.095c7.145.475 10.869-5.627 11.596-10.436.433-.764.67-.549.837.042.349 6.174 5.875 11.22 10.992 10.53 8.328-.108 13.39-9.375 11.967-17.219-1.739-9.581-6.9-15.35-10.808-21.293-4.421-6.152-10.373-15.04-12.29-19.317 0 0-6.048 9.205-13.917 20.03-5.262 7.239-9.473 15.082-9.865 21.835-.448 7.716 2.719 14.632 11.489 15.828zM43.525 218.542c7.144.475 10.868-5.627 11.595-10.436.434-.764.67-.549.837.042.35 6.174 5.875 11.22 10.993 10.53 8.328-.108 13.39-9.375 11.966-17.218-1.738-9.582-6.9-15.351-10.808-21.293-4.421-6.153-10.372-15.04-12.29-19.317 0 0-6.048 9.204-13.917 20.03-5.262 7.238-9.473 15.082-9.865 21.835-.448 7.715 2.72 14.631 11.489 15.827zM43.525 283.648c7.144.474 10.868-5.628 11.595-10.437.434-.764.67-.548.837.043.35 6.174 5.875 11.22 10.993 10.53 8.328-.108 13.39-9.376 11.966-17.219-1.738-9.581-6.9-15.351-10.808-21.293-4.421-6.152-10.372-15.04-12.29-19.317 0 0-6.048 9.205-13.917 20.03-5.262 7.238-9.473 15.082-9.865 21.835-.448 7.716 2.72 14.632 11.489 15.828zM197.838 251.496c-1.583 3.472-1.757 9.405 2.97 10.208 3.563.458 5.013-1.199 5.3-3.742.143-.743.562-.789.696.058.204 2.61 2.787 4.133 4.806 3.75 5.527-.945 5.204-7.029 3.398-11.156-2.73-5.48-5.6-8.937-8.245-14.451-3.038 5.74-6.507 10.405-8.925 15.332z" fill="#d40000"/></svg>