<svg xmlns="http://www.w3.org/2000/svg" width="224.225" height="312.808"><g transform="rotate(180 3464.056 -1061.345)"><rect ry="10.63" rx="10.63" width="223.228" height="311.811" x="6704.386" y="-2435" fill="#fff" stroke="#000" stroke-width=".997"/><path d="M6712.014-2389.656v-31.506h3.11v31.506zM6724.344-2421.162c-2.995 0-5.402 2.686-5.402 6.022v19.462c0 3.336 2.407 6.022 5.402 6.022h1.745c2.994 0 5.406-2.686 5.406-6.022v-19.462c0-3.336-2.412-6.022-5.406-6.022h-1.745zm.9 2.978c1.77 0 3.192 1.337 3.192 3.001v19.723c0 1.665-1.423 3.006-3.191 3.006-1.769 0-3.192-1.341-3.192-3.006v-19.723c0-1.664 1.423-3.001 3.192-3.001z"/><g fill="#000"><path d="M6919.986-2168.533v31.506h-3.111v-31.506zM6907.656-2137.027c2.994 0 5.402-2.686 5.402-6.022v-19.462c0-3.336-2.408-6.022-5.402-6.022h-1.745c-2.994 0-5.406 2.686-5.406 6.022v19.462c0 3.336 2.412 6.022 5.406 6.022h1.745zm-.9-2.978c-1.77 0-3.192-1.337-3.192-3.001v-19.723c0-1.665 1.423-3.007 3.191-3.007 1.769 0 3.192 1.342 3.192 3.007v19.723c0 1.664-1.423 3.001-3.192 3.001z"/></g></g><path d="M53.434 69.019c.015-2.026-1.587-2.065-1.568-.586-.135 7.429-6.417 11.086-10.98 10.219-7.037-1.338-9.283-8.322-9.216-12.436.208-12.696 12.988-22.058 24.52-38.334 8.45 14.69 22.398 26.23 23.223 37.585 1.098 15.098-18.008 20.73-20.736 3.133-.176-1.243-1.64-1.801-1.527-.065.415 4.823-.174 6.831 5.266 18.72H48.194c3.15-5.555 5.026-12.375 5.24-18.236zM109.15 101.684c.015-2.026-1.587-2.064-1.569-.586-.134 7.429-6.416 11.087-10.98 10.219-7.036-1.338-9.282-8.322-9.215-12.435.207-12.697 12.988-22.059 24.52-38.335 8.45 14.69 22.397 26.23 23.223 37.586 1.098 15.098-18.009 20.73-20.737 3.132-.176-1.243-1.64-1.8-1.526-.065.415 4.823-.175 6.832 5.266 18.72H103.91c3.15-5.555 5.025-12.375 5.24-18.236zM164.967 69.019c.015-2.026-1.587-2.065-1.569-.586-.134 7.429-6.416 11.086-10.98 10.219-7.036-1.338-9.282-8.322-9.215-12.436.207-12.696 12.988-22.058 24.52-38.334 8.45 14.69 22.398 26.23 23.223 37.585 1.098 15.098-18.009 20.73-20.737 3.133-.176-1.243-1.64-1.801-1.526-.065.415 4.823-.175 6.831 5.266 18.72h-14.222c3.15-5.555 5.026-12.375 5.24-18.236zM164.967 134.35c.015-2.026-1.587-2.065-1.569-.587-.134 7.43-6.416 11.087-10.98 10.22-7.036-1.338-9.282-8.323-9.215-12.436.207-12.697 12.988-22.059 24.52-38.335 8.45 14.691 22.398 26.23 23.223 37.586 1.098 15.098-18.009 20.73-20.737 3.133-.176-1.243-1.64-1.801-1.526-.065.415 4.822-.175 6.831 5.266 18.72h-14.222c3.15-5.556 5.026-12.375 5.24-18.237zM53.434 134.35c.015-2.026-1.587-2.065-1.568-.587-.135 7.43-6.417 11.087-10.98 10.22-7.037-1.338-9.283-8.323-9.216-12.436.208-12.697 12.988-22.059 24.52-38.335 8.45 14.691 22.398 26.23 23.223 37.586 1.098 15.098-18.008 20.73-20.736 3.133-.176-1.243-1.64-1.801-1.527-.065.415 4.822-.174 6.831 5.266 18.72H48.194c3.15-5.556 5.026-12.375 5.24-18.237zM164.978 178.484c.015 2.025-1.587 2.064-1.569.585-.134-7.428-6.416-11.086-10.98-10.218-7.036 1.337-9.282 8.322-9.215 12.435.207 12.696 12.988 22.059 24.52 38.335 8.45-14.691 22.397-26.23 23.223-37.586 1.098-15.098-18.009-20.73-20.737-3.133-.176 1.243-1.64 1.801-1.526.065.415-4.822-.175-6.831 5.266-18.72h-14.222c3.15 5.556 5.025 12.375 5.24 18.237zM164.978 243.814c.015 2.026-1.587 2.065-1.569.586-.134-7.429-6.416-11.086-10.98-10.219-7.036 1.338-9.282 8.322-9.215 12.436.207 12.696 12.988 22.058 24.52 38.334 8.45-14.69 22.397-26.23 23.223-37.585 1.098-15.098-18.009-20.73-20.737-3.133-.176 1.243-1.64 1.801-1.526.065.415-4.823-.175-6.832 5.266-18.72h-14.222c3.15 5.555 5.025 12.375 5.24 18.236zM109.628 211.149c.015 2.026-1.587 2.064-1.568.586-.135-7.429-6.417-11.087-10.98-10.219-7.037 1.338-9.283 8.322-9.216 12.435.208 12.697 12.988 22.059 24.52 38.335 8.45-14.69 22.398-26.23 23.223-37.586 1.098-15.098-18.008-20.73-20.736-3.132-.176 1.243-1.64 1.8-1.527.065.415-4.823-.174-6.832 5.266-18.72h-14.222c3.15 5.555 5.026 12.375 5.24 18.236zM53.445 178.484c.015 2.025-1.587 2.064-1.569.585-.134-7.428-6.416-11.086-10.98-10.218-7.036 1.337-9.282 8.322-9.215 12.435.207 12.696 12.988 22.059 24.52 38.335 8.45-14.691 22.398-26.23 23.223-37.586 1.098-15.098-18.009-20.73-20.737-3.133-.176 1.243-1.64 1.801-1.526.065.415-4.822-.175-6.831 5.266-18.72H48.205c3.15 5.556 5.026 12.375 5.24 18.237zM53.445 243.814c.015 2.026-1.587 2.065-1.569.586-.134-7.429-6.416-11.086-10.98-10.219-7.036 1.338-9.282 8.322-9.215 12.436.207 12.696 12.988 22.058 24.52 38.334 8.45-14.69 22.398-26.23 23.223-37.585 1.098-15.098-18.009-20.73-20.737-3.133-.176 1.243-1.64 1.801-1.526.065.415-4.823-.175-6.832 5.266-18.72H48.205c3.15 5.555 5.026 12.375 5.24 18.236zM17.288 70.368c.01-.871-.896-.464-1.018-.19-1.163 1.986-2.865 2.448-4.548 1.732-1.667-.71-2.604-2.28-2.454-4.522.31-3.438 3.035-7.2 4.355-9.327a69.037 69.037 0 0 0 4.077-7.154c1.697 3.363 2.558 4.32 4.405 7.392 1.626 2.704 3.892 5.353 4.067 8.622 0 2.485-1.046 4.832-3.399 5.26-1.331.241-2.579-.442-3.504-2.037-.282-.407-.849-.195-.839.362.165 2.093.955 3.983 2.83 6.211h-6.888c1.41-1.576 2.85-3.703 2.916-6.349zM206.103 243.114c.01.871-.895.465-1.018.19-1.163-1.985-2.865-2.447-4.548-1.732-1.667.71-2.604 2.28-2.454 4.523.31 3.437 3.036 7.2 4.355 9.326a69.037 69.037 0 0 1 4.077 7.154c1.697-3.363 2.559-4.32 4.405-7.392 1.626-2.704 3.893-5.353 4.068-8.622 0-2.485-1.046-4.832-3.4-5.26-1.331-.241-2.578.442-3.504 2.037-.281.407-.848.195-.839-.361.165-2.094.956-3.984 2.83-6.212h-6.887c1.41 1.576 2.848 3.704 2.915 6.349z"/></svg>