<svg xmlns="http://www.w3.org/2000/svg" width="224.225" height="312.808"><g transform="translate(-6257.43 2747.31)"><rect ry="10.63" rx="10.63" width="223.228" height="311.811" x="6257.929" y="-2746.811" fill="#fff" stroke="#000" stroke-width=".997"/></g><path d="M8.672 47.135l.165-2.018c.51-6.24 1.874-8.347 9.622-14.856 3.76-3.158 4.994-4.717 5.168-6.526.49-4.26-3.351-5.59-5.855-5.614-3.242-.03-6.91 1.912-5.161 6.414l-3.637 1.068c-.734-4.2.017-8.142 3.426-9.892 4.546-2.28 10.38-1.386 13.323 2.206 1.978 2.414 2.428 5.747 1.368 8.356-3.1 6.672-13.621 9.606-14.491 17.32h11.631v-4.296h3.426v7.907zM215.28 265.673l-.164 2.018c-.51 6.24-1.875 8.347-9.622 14.855-3.76 3.16-4.994 4.718-5.168 6.527-.49 4.26 3.351 5.59 5.855 5.614 3.242.03 6.91-1.912 5.161-6.414l3.636-1.068c.735 4.2-.016 8.142-3.425 9.892-4.546 2.28-10.38 1.385-13.323-2.207-1.979-2.414-2.428-5.746-1.368-8.355 3.1-6.672 13.621-9.607 14.49-17.32h-11.63v4.295h-3.426v-7.907zM104.726 85.781c2.88-5.775 4.976-11.7 5.348-18.037.342-2.332-1.074-2.37-1.288-.729-4.076 15.593-25.762 11.37-25.017-3.296.605-11.895 12.42-14.454 18.582-10.565 2.434 1.433 2.297.575.968-.911-9.154-10.212-3.61-23.362 8.762-23.603 13.38.794 16.85 14.87 8.644 23.148-1.02.995-3.284 4.192.123 1.957 8.287-5.888 19.787.443 19.552 9.52-.432 16.74-20.839 17.988-25.203 4.006-.42-1.55-1.629-2.328-1.295.305.605 4.766 1.857 11.953 5.438 18.205zM119.428 227.448c-2.879 5.776-4.976 11.701-5.348 18.037-.341 2.332 1.075 2.371 1.288.729 4.077-15.593 25.763-11.37 25.017 3.297-.605 11.894-12.42 14.453-18.582 10.564-2.434-1.433-2.296-.575-.968.912 9.155 10.211 3.61 23.362-8.761 23.602-13.38-.793-16.851-14.87-8.644-23.148 1.02-.995 3.283-4.191-.123-1.956-8.287 5.888-19.788-.443-19.553-9.521.433-16.739 20.84-17.987 25.203-4.006.42 1.55 1.63 2.329 1.295-.304-.605-4.767-1.856-11.954-5.437-18.206zM14.206 75.157c1.192-2.445 2.352-4.72 2.984-7.4.42-2.528-.438-1.59-.925.067-.721 2.298-2.723 3.344-4.58 3.37-3.371.045-5.053-2.605-4.948-5.455-.368-2.998 2.671-5.12 4.962-4.956 1.722.123 3.224 1.052 4.133 1.775.596.315 1.234.454.345-.359-1.678-1.833-3.077-2.964-3.046-5.71.029-2.58 2.233-5.269 5.155-5.184 3.652.105 5.312 2.89 5.303 5.48-.01 1.889-.953 3.627-2.411 4.703-.944.766-.68 1.34.398.615 1.035-.892 2.267-1.283 3.544-1.31 3.49-.055 4.855 2.961 4.656 5.764-.188 2.626-2.423 5.328-5.37 5.022-2.63-.301-4.012-2.51-4.805-4.777-.262-.695-.676-.882-.664.154.608 5.057 2.492 8.204 2.505 8.201zM210.02 237.574c-1.193 2.445-2.353 4.721-2.985 7.401-.42 2.528.438 1.589.925-.068.721-2.297 2.723-3.344 4.58-3.369 3.371-.045 5.053 2.604 4.948 5.454.368 2.999-2.671 5.12-4.962 4.957-1.722-.123-3.224-1.052-4.133-1.775-.596-.316-1.234-.455-.345.358 1.678 1.833 3.077 2.964 3.046 5.711-.029 2.579-2.233 5.268-5.155 5.184-3.651-.106-5.312-2.89-5.303-5.48.01-1.89.953-3.627 2.411-4.703.944-.767.68-1.34-.398-.615-1.034.892-2.267 1.282-3.544 1.31-3.49.054-4.855-2.962-4.655-5.765.187-2.625 2.422-5.328 5.369-5.022 2.63.302 4.013 2.51 4.805 4.777.262.695.676.883.664-.153-.608-5.057-2.491-8.204-2.505-8.202z"/></svg>