<svg xmlns="http://www.w3.org/2000/svg" height="312.808" width="224.225"><rect y="-2746.811" x="6257.929" height="311.811" width="223.228" rx="10.63" ry="10.63" fill="#fff" stroke="#000" stroke-width=".997" transform="translate(-6257.43 2747.31)"/><g fill="#d40000"><path d="M9.578 60.73c-1.583-3.472-1.757-9.405 2.971-10.208 3.562-.459 5.012 1.198 5.3 3.742.142.743.562.788.695-.059.204-2.609 2.787-4.132 4.806-3.75 5.527.946 5.204 7.029 3.399 11.156-2.731 5.48-5.6 8.938-8.245 14.452-3.038-5.741-6.507-10.405-8.926-15.333zM197.302 252.002c-1.583 3.472-1.757 9.405 2.971 10.208 3.562.458 5.012-1.199 5.3-3.742.142-.743.562-.789.695.058.204 2.61 2.787 4.133 4.806 3.75 5.527-.945 5.204-7.028 3.399-11.156-2.731-5.479-5.601-8.937-8.245-14.451-3.039 5.74-6.508 10.405-8.926 15.333zM8.672 47.135l.165-2.018c.51-6.24 1.874-8.347 9.622-14.856 3.76-3.158 4.994-4.717 5.168-6.526.49-4.26-3.351-5.59-5.855-5.614-3.242-.03-6.91 1.912-5.161 6.414l-3.637 1.068c-.734-4.2.017-8.142 3.426-9.892 4.546-2.28 10.38-1.386 13.323 2.206 1.978 2.414 2.428 5.747 1.368 8.356-3.1 6.672-13.621 9.606-14.491 17.32h11.631v-4.296h3.426v7.907zM215.28 265.673l-.164 2.018c-.51 6.24-1.875 8.347-9.622 14.855-3.76 3.16-4.994 4.718-5.168 6.527-.49 4.26 3.351 5.59 5.855 5.614 3.242.03 6.91-1.912 5.161-6.414l3.636-1.068c.735 4.2-.016 8.142-3.425 9.892-4.546 2.28-10.38 1.385-13.323-2.207-1.978-2.414-2.428-5.746-1.368-8.355 3.1-6.672 13.621-9.607 14.49-17.32h-11.63v4.295h-3.426v-7.907zM100.028 28.464c7.144-.474 10.868 5.627 11.595 10.436.433.764.67.55.837-.042.349-6.174 5.875-11.22 10.992-10.53 8.328.108 13.39 9.375 11.967 17.219-1.739 9.581-6.9 15.35-10.808 21.293-4.421 6.152-10.373 15.04-12.29 19.317 0 0-6.049-9.205-13.917-20.03-5.262-7.238-9.474-15.082-9.866-21.835-.447-7.716 2.72-14.632 11.49-15.828zM100.028 284.765c7.144.475 10.868-5.627 11.595-10.436.433-.764.67-.549.837.042.349 6.174 5.875 11.22 10.992 10.53 8.328-.108 13.39-9.375 11.967-17.218-1.739-9.582-6.9-15.351-10.808-21.293-4.421-6.153-10.373-15.04-12.29-19.317 0 0-6.049 9.204-13.917 20.03-5.262 7.238-9.474 15.082-9.866 21.835-.447 7.715 2.72 14.631 11.49 15.827z"/></g></svg>