<svg xmlns="http://www.w3.org/2000/svg" height="312.808" width="224.225"><g transform="translate(-6257.43 2747.31)"><rect ry="10.63" rx="10.63" width="223.228" height="311.811" x="6257.929" y="-2746.811" fill="#fff" stroke="#000" stroke-width=".997"/><path d="M6266.24-2700.174l.164-2.019c.51-6.239 1.874-8.346 9.622-14.855 3.76-3.159 4.994-4.718 5.168-6.526.49-4.26-3.351-5.591-5.855-5.614-3.242-.03-6.91 1.911-5.161 6.414l-3.637 1.068c-.734-4.2.017-8.142 3.426-9.893 4.546-2.28 10.38-1.385 13.323 2.207 1.978 2.414 2.428 5.746 1.368 8.356-3.1 6.671-13.621 9.606-14.49 17.319h11.63v-4.295h3.426v7.907zM6472.848-2481.637l-.165 2.019c-.51 6.239-1.875 8.346-9.622 14.855-3.76 3.159-4.994 4.717-5.168 6.526-.49 4.26 3.351 5.591 5.855 5.614 3.242.03 6.91-1.911 5.161-6.414l3.637-1.068c.734 4.2-.017 8.142-3.426 9.893-4.546 2.28-10.38 1.385-13.323-2.207-1.978-2.414-2.428-5.746-1.368-8.356 3.1-6.671 13.621-9.606 14.49-17.32h-11.63v4.296h-3.426v-7.907z"/></g><path d="M111.07 68.661c.015-2.025-1.587-2.064-1.569-.586-.134 7.43-6.417 11.087-10.98 10.22-7.037-1.338-9.282-8.323-9.215-12.436.207-12.697 12.987-22.059 24.52-38.335 8.45 14.691 22.397 26.23 23.223 37.586 1.097 15.098-18.01 20.73-20.737 3.133-.176-1.243-1.64-1.801-1.526-.065.414 4.822-.175 6.831 5.265 18.72H105.83c3.15-5.556 5.025-12.375 5.24-18.237zM111.08 244.594c.015 2.025-1.586 2.064-1.568.585-.135-7.428-6.417-11.086-10.98-10.218-7.037 1.337-9.283 8.322-9.216 12.435.208 12.696 12.988 22.058 24.52 38.335 8.45-14.691 22.398-26.23 23.224-37.586 1.097-15.098-18.01-20.73-20.737-3.133-.176 1.243-1.64 1.801-1.526.065.414-4.822-.175-6.831 5.265-18.72h-14.221c3.15 5.556 5.025 12.375 5.24 18.236zM18.956 69.786c.01-.872-.895-.465-1.018-.19-1.163 1.985-2.864 2.447-4.547 1.731-1.668-.709-2.605-2.28-2.454-4.522.31-3.438 3.035-7.2 4.355-9.326a69.037 69.037 0 0 0 4.076-7.154c1.698 3.363 2.559 4.32 4.405 7.391 1.626 2.705 3.893 5.353 4.068 8.623 0 2.485-1.046 4.832-3.4 5.26-1.33.241-2.578-.442-3.503-2.038-.282-.406-.849-.194-.84.362.166 2.094.956 3.984 2.83 6.212h-6.887c1.41-1.576 2.849-3.704 2.915-6.349zM206.68 242.945c.01.872-.895.465-1.018.19-1.163-1.985-2.864-2.447-4.548-1.731-1.667.71-2.604 2.28-2.453 4.522.31 3.438 3.035 7.2 4.355 9.326a69.038 69.038 0 0 1 4.076 7.154c1.697-3.363 2.559-4.32 4.405-7.391 1.626-2.704 3.893-5.353 4.068-8.622 0-2.485-1.046-4.832-3.4-5.26-1.33-.242-2.578.442-3.503 2.037-.282.407-.849.195-.84-.362.166-2.093.956-3.983 2.83-6.211h-6.887c1.41 1.575 2.849 3.703 2.915 6.348z"/></svg>