<svg xmlns="http://www.w3.org/2000/svg" width="224.225" height="312.808"><g transform="translate(-6480.66 2747.31)" stroke="#000"><rect ry="10.63" rx="10.63" width="223.228" height="311.811" x="6481.158" y="-2746.811" fill="#fff" stroke-width=".997"/></g><path d="M7.41 38.31l2.578-1.862c2.24 3.576 4.742 5.933 8.567 5.528 5.742-.386 8.12-6.295 6.917-10.75-1.16-3.993-5.916-5.94-9.693-3.809-.89.503-1.921 1.124-1.921 1.124l-1.345-2.192 8.87-10.317h-9.626v4.27H8.064v-7.656h18.813v2.599s-5.04 5.13-6.707 7.941c4.104.15 7.41 2.701 8.594 6.739.695 2.123.383 6.984-.523 9.075-1.511 3.493-5.65 6.325-9.433 6.489-6.346.419-9.717-3.949-11.398-7.179zM216.219 274.498l-2.578 1.862c-2.24-3.576-4.741-5.934-8.567-5.528-5.742.386-8.119 6.295-6.917 10.75 1.16 3.993 5.916 5.94 9.693 3.808.891-.502 1.921-1.028 1.921-1.028l1.593 2.059-9.117 10.355h9.625v-4.27h3.693v7.656h-18.813v-2.599s5.04-5.13 6.707-7.942c-4.103-.149-7.41-2.7-8.594-6.738-.695-2.123-.382-6.984.523-9.075 1.512-3.493 5.651-6.325 9.434-6.49 6.345-.418 9.717 3.95 11.397 7.18zM104.375 185.318c2.914-5.845 5.036-11.842 5.413-18.254.345-2.36-1.088-2.4-1.304-.738-4.125 15.78-26.072 11.507-25.318-3.336.613-12.037 12.57-14.627 18.806-10.691 2.463 1.45 2.324.581.98-.923-9.265-10.334-3.654-23.642 8.866-23.886 13.54.803 17.054 15.049 8.748 23.427-1.033 1.006-3.323 4.241.125 1.98 8.386-5.96 20.025.448 19.787 9.634-.438 16.94-21.09 18.204-25.506 4.054-.425-1.568-1.649-2.356-1.31.308.612 4.824 1.878 12.097 5.502 18.425zM104.311 85.714c2.914-5.845 5.036-11.842 5.412-18.254.346-2.36-1.087-2.4-1.303-.738-4.126 15.78-26.072 11.507-25.318-3.336.612-12.038 12.569-14.627 18.806-10.691 2.463 1.45 2.323.581.98-.923-9.266-10.334-3.654-23.642 8.866-23.886 13.54.803 17.053 15.048 8.748 23.426-1.033 1.007-3.323 4.242.124 1.98 8.387-5.959 20.025.448 19.788 9.635-.438 16.94-21.09 18.204-25.506 4.054-.425-1.569-1.649-2.356-1.31.308.611 4.824 1.878 12.097 5.502 18.425zM119.19 227.357c-2.914 5.845-5.036 11.841-5.413 18.254-.345 2.36 1.088 2.4 1.304.737 4.125-15.78 26.072-11.507 25.318 3.336-.613 12.038-12.57 14.628-18.806 10.692-2.463-1.45-2.324-.582-.98.922 9.265 10.334 3.654 23.643-8.866 23.886-13.54-.803-17.054-15.048-8.748-23.426 1.033-1.007 3.323-4.242-.124-1.98-8.387 5.959-20.025-.448-19.788-9.635.438-16.94 21.09-18.203 25.506-4.054.425 1.569 1.649 2.357 1.31-.308-.612-4.824-1.878-12.097-5.502-18.424zM13.403 74.62c1.206-2.475 2.38-4.778 3.02-7.49.424-2.559-.444-1.608-.936.068-.73 2.325-2.756 3.384-4.635 3.41-3.412.046-5.114-2.636-5.008-5.52-.372-3.034 2.703-5.181 5.022-5.016 1.743.124 3.262 1.065 4.182 1.797.604.319 1.249.46.35-.363-1.699-1.855-3.114-3-3.083-5.78.029-2.61 2.26-5.331 5.217-5.246 3.695.107 5.376 2.925 5.367 5.547-.01 1.91-.965 3.67-2.44 4.759-.956.775-.688 1.356.402.622 1.047-.903 2.294-1.298 3.587-1.326 3.533-.055 4.914 2.997 4.711 5.834-.19 2.657-2.452 5.392-5.433 5.082-2.662-.305-4.061-2.54-4.863-4.834-.265-.703-.684-.893-.672.155.615 5.118 2.521 8.303 2.535 8.3zM210.822 238.927c-1.206 2.475-2.38 4.778-3.02 7.49-.424 2.558.444 1.608.937-.069.73-2.325 2.755-3.384 4.635-3.41 3.411-.045 5.113 2.636 5.007 5.52.372 3.035-2.703 5.182-5.021 5.016-1.743-.124-3.263-1.064-4.183-1.796-.603-.32-1.249-.46-.349.363 1.698 1.855 3.114 3 3.083 5.78-.03 2.609-2.26 5.33-5.218 5.245-3.695-.107-5.376-2.925-5.367-5.546.01-1.911.965-3.67 2.44-4.76.956-.775.688-1.355-.402-.622-1.047.903-2.294 1.298-3.587 1.326-3.533.055-4.914-2.997-4.711-5.833.19-2.658 2.452-5.393 5.433-5.083 2.663.305 4.061 2.54 4.863 4.834.265.704.684.894.673-.155-.615-5.118-2.522-8.303-2.536-8.3z"/></svg>