<svg xmlns="http://www.w3.org/2000/svg" width="224.225" height="312.808"><g transform="translate(-6480.66 2747.31)"><rect ry="10.63" rx="10.63" width="223.228" height="311.811" x="6481.158" y="-2746.811" fill="#fff" stroke="#000" stroke-width=".997"/><g fill="#d40000"><path d="M6570.482-2689.092c9.92-9.681 16.436-20.237 22.667-30.389 5.464 11.17 13.306 20.943 21.786 30.39-9.073 9.368-16.105 19.386-21.759 29.917-6.268-10.796-12.866-20.572-22.694-29.918zM6570.482-2491.989c9.92-9.681 16.436-20.237 22.667-30.389 5.464 11.17 13.306 20.943 21.786 30.39-9.073 9.368-16.105 19.386-21.759 29.917-6.268-10.796-12.866-20.572-22.694-29.918zM6570.482-2590.625c9.92-9.681 16.436-20.237 22.667-30.388 5.464 11.17 13.306 20.942 21.786 30.388-9.073 9.37-16.105 19.387-21.759 29.918-6.268-10.795-12.866-20.571-22.694-29.918zM6677.455-2497.338c4.064-3.966 6.733-8.29 9.285-12.449 2.239 4.576 5.45 8.58 8.925 12.449-3.717 3.838-6.598 7.941-8.914 12.255-2.567-4.422-5.27-8.427-9.296-12.255zM6490.468-2683.55c4.064-3.966 6.733-8.29 9.285-12.449 2.239 4.576 5.451 8.58 8.925 12.449-3.717 3.838-6.597 7.941-8.914 12.256-2.567-4.423-5.27-8.427-9.296-12.256zM6489.607-2707.598l2.547-1.84c2.214 3.534 4.685 5.863 8.465 5.463 5.674-.382 8.023-6.22 6.836-10.623-1.147-3.945-5.846-5.87-9.579-3.763-.88.497-1.898 1.11-1.898 1.11l-1.329-2.166 8.764-10.194h-9.51v4.22h-3.65v-7.566h18.59v2.568s-4.98 5.069-6.628 7.847c4.055.148 7.323 2.669 8.492 6.658.687 2.099.378 6.902-.516 8.968-1.494 3.452-5.584 6.25-9.322 6.412-6.27.414-9.602-3.902-11.262-7.094zM6695.937-2474.214l-2.547 1.84c-2.214-3.533-4.685-5.863-8.465-5.462-5.674.382-8.023 6.22-6.836 10.623 1.147 3.945 5.846 5.87 9.579 3.763.88-.497 1.898-1.016 1.898-1.016l1.573 2.034-9.008 10.232h9.51v-4.22h3.65v7.566h-18.59v-2.568s4.98-5.069 6.628-7.847c-4.055-.148-7.323-2.67-8.493-6.659-.686-2.098-.377-6.9.517-8.968 1.494-3.45 5.584-6.25 9.322-6.411 6.27-.414 9.602 3.902 11.262 7.093z"/></g></g></svg>