<svg xmlns="http://www.w3.org/2000/svg" width="224.225" height="312.808"><g transform="translate(-6480.66 2747.31)"><rect ry="10.63" rx="10.63" width="223.228" height="311.811" x="6481.158" y="-2746.811" fill="#fff" stroke="#000" stroke-width=".997"/><g fill="#d40000"><path d="M6489.607-2707.598l2.547-1.84c2.214 3.534 4.685 5.863 8.465 5.463 5.674-.382 8.023-6.22 6.836-10.623-1.147-3.945-5.846-5.87-9.579-3.763-.88.497-1.898 1.11-1.898 1.11l-1.329-2.166 8.764-10.194h-9.51v4.22h-3.65v-7.566h18.59v2.568s-4.98 5.069-6.628 7.847c4.055.148 7.323 2.669 8.492 6.658.687 2.099.378 6.902-.516 8.968-1.494 3.452-5.584 6.25-9.322 6.412-6.27.414-9.602-3.902-11.262-7.094zM6695.937-2474.214l-2.547 1.84c-2.214-3.533-4.685-5.863-8.465-5.462-5.674.382-8.023 6.22-6.836 10.623 1.147 3.945 5.846 5.87 9.579 3.763.88-.497 1.898-1.016 1.898-1.016l1.573 2.034-9.008 10.232h9.51v-4.22h3.65v7.566h-18.59v-2.568s4.98-5.069 6.628-7.847c-4.055-.148-7.323-2.67-8.493-6.659-.686-2.098-.377-6.9.517-8.968 1.494-3.45 5.584-6.25 9.322-6.411 6.27-.414 9.602 3.902 11.262 7.093z"/></g></g><path d="M10.241 61.163c-1.583-3.472-1.757-9.406 2.971-10.208 3.562-.459 5.012 1.198 5.3 3.742.142.743.562.788.695-.059.204-2.609 2.787-4.132 4.806-3.75 5.527.946 5.204 7.029 3.399 11.156-2.731 5.48-5.6 8.938-8.245 14.452-3.038-5.741-6.507-10.405-8.926-15.333zM100 29.235c7.143-.474 10.868 5.628 11.595 10.437.433.764.67.548.836-.042.35-6.175 5.875-11.22 10.993-10.53 8.328.108 13.39 9.375 11.966 17.218-1.738 9.582-6.9 15.351-10.807 21.293-4.422 6.153-10.373 15.04-12.29 19.317 0 0-6.049-9.204-13.918-20.03-5.261-7.238-9.473-15.082-9.865-21.835-.448-7.715 2.72-14.632 11.49-15.828zM100.063 127.657c7.144-.474 10.868 5.628 11.595 10.437.433.764.67.548.837-.043.35-6.174 5.875-11.22 10.992-10.53 8.328.108 13.39 9.376 11.967 17.219-1.739 9.582-6.9 15.351-10.808 21.293-4.421 6.152-10.373 15.04-12.29 19.317 0 0-6.048-9.205-13.917-20.03-5.262-7.238-9.473-15.082-9.865-21.835-.448-7.716 2.719-14.632 11.489-15.828zM197.228 252.375c-1.583 3.472-1.757 9.405 2.971 10.208 3.562.458 5.012-1.199 5.3-3.742.142-.743.562-.789.695.058.204 2.61 2.787 4.133 4.806 3.75 5.527-.945 5.204-7.028 3.399-11.155-2.731-5.48-5.601-8.938-8.245-14.452-3.039 5.74-6.508 10.405-8.926 15.333zM100 283.832c7.143.474 10.868-5.628 11.595-10.437.433-.764.67-.548.836.043.35 6.174 5.875 11.22 10.993 10.53 8.328-.109 13.39-9.376 11.966-17.219-1.738-9.582-6.9-15.351-10.807-21.293-4.422-6.153-10.373-15.04-12.29-19.317 0 0-6.049 9.205-13.918 20.03-5.261 7.238-9.473 15.082-9.865 21.835-.448 7.715 2.72 14.632 11.49 15.828z" fill="#d40000"/></svg>