<svg xmlns="http://www.w3.org/2000/svg" width="224.225" height="312.808"><g transform="translate(-6480.66 2747.31)"><rect ry="10.63" rx="10.63" width="223.228" height="311.811" x="6481.158" y="-2746.811" fill="#fff" stroke="#000" stroke-width=".997"/><path d="M6489.607-2707.598l2.547-1.84c2.214 3.534 4.685 5.863 8.465 5.463 5.674-.382 8.023-6.22 6.836-10.623-1.147-3.945-5.846-5.87-9.579-3.763-.88.497-1.898 1.11-1.898 1.11l-1.329-2.166 8.764-10.194h-9.51v4.22h-3.65v-7.566h18.59v2.568s-4.98 5.069-6.628 7.847c4.055.148 7.323 2.669 8.492 6.658.687 2.099.378 6.902-.516 8.968-1.494 3.452-5.584 6.25-9.322 6.412-6.27.414-9.602-3.902-11.262-7.094zM6695.937-2474.214l-2.547 1.84c-2.214-3.533-4.685-5.863-8.465-5.462-5.674.382-8.023 6.22-6.836 10.623 1.147 3.945 5.846 5.87 9.579 3.763.88-.497 1.898-1.016 1.898-1.016l1.573 2.034-9.008 10.232h9.51v-4.22h3.65v7.566h-18.59v-2.568s4.98-5.069 6.628-7.847c-4.055-.148-7.323-2.67-8.493-6.659-.686-2.098-.377-6.9.517-8.968 1.494-3.45 5.584-6.25 9.322-6.411 6.27-.414 9.602 3.902 11.262 7.093z"/></g><path d="M109.909 69.433c.015-2.026-1.587-2.065-1.569-.586-.134 7.429-6.416 11.086-10.98 10.219-7.037-1.338-9.282-8.322-9.215-12.436.207-12.696 12.988-22.058 24.52-38.334 8.45 14.69 22.397 26.23 23.223 37.585 1.098 15.098-18.009 20.73-20.737 3.133-.176-1.243-1.64-1.801-1.526-.065.414 4.823-.175 6.831 5.266 18.72h-14.222c3.15-5.555 5.025-12.375 5.24-18.236zM109.983 144.979c.015 2.025-1.587 2.064-1.569.586-.134-7.43-6.416-11.087-10.98-10.22-7.036 1.338-9.282 8.323-9.215 12.436.207 12.697 12.988 22.059 24.52 38.335 8.45-14.691 22.397-26.23 23.223-37.586 1.098-15.098-18.009-20.73-20.737-3.133-.176 1.243-1.64 1.801-1.526.065.415-4.822-.175-6.831 5.266-18.72h-14.222c3.15 5.556 5.025 12.376 5.24 18.237zM109.92 243.66c.014 2.026-1.587 2.064-1.57.586-.133-7.429-6.416-11.087-10.98-10.219-7.036 1.338-9.282 8.322-9.214 12.435.207 12.697 12.987 22.059 24.52 38.335 8.45-14.69 22.397-26.23 23.223-37.586 1.097-15.098-18.01-20.73-20.737-3.132-.176 1.243-1.64 1.8-1.526.065.414-4.823-.175-6.832 5.265-18.72H104.68c3.15 5.555 5.025 12.375 5.24 18.236zM18.491 70.219c.01-.872-.895-.465-1.017-.19-1.164 1.985-2.865 2.447-4.548 1.731-1.668-.709-2.605-2.28-2.454-4.522.31-3.438 3.035-7.2 4.355-9.326a69.037 69.037 0 0 0 4.076-7.154c1.698 3.363 2.56 4.32 4.406 7.391 1.626 2.705 3.892 5.353 4.067 8.623 0 2.485-1.046 4.832-3.4 5.26-1.33.241-2.578-.442-3.503-2.038-.282-.406-.849-.194-.84.362.166 2.094.956 3.983 2.83 6.212h-6.887c1.41-1.576 2.849-3.704 2.915-6.35zM205.473 243.319c.01.871-.895.464-1.018.19-1.163-1.986-2.864-2.448-4.547-1.732-1.668.71-2.605 2.28-2.454 4.522.31 3.438 3.035 7.2 4.355 9.327a69.038 69.038 0 0 1 4.076 7.154c1.698-3.364 2.559-4.32 4.405-7.392 1.626-2.704 3.893-5.353 4.068-8.622 0-2.485-1.046-4.832-3.4-5.26-1.33-.241-2.578.442-3.503 2.037-.282.407-.849.195-.84-.362.166-2.093.956-3.983 2.83-6.211h-6.887c1.41 1.576 2.849 3.703 2.915 6.349z"/></svg>