<svg xmlns="http://www.w3.org/2000/svg" height="312.808" width="224.225"><g transform="translate(-6703.887 2747.31)"><rect ry="10.63" rx="10.63" width="223.228" height="311.811" x="6704.386" y="-2746.811" fill="#fff" stroke="#000" stroke-width=".997"/></g><path d="M18.91 46.872V44.06h2.585v-4.636H8.57v-3.271l13.985-21.098 2.286.008v21.09h3.953v3.27h-3.953l-.076 4.637h2.166v2.813zm2.585-24.097l-8.879 13.377h8.88zM206.467 265.936v2.813h-2.585v4.636h12.925v3.27l-13.985 21.1-2.285-.009v-21.09h-3.953v-3.271h3.953l.076-4.636h-2.167v-2.813zm-2.585 24.097l8.88-13.377h-8.88zM154.303 83.88c2.88-5.776 4.976-11.701 5.349-18.037.341-2.332-1.075-2.371-1.289-.729-4.076 15.593-25.762 11.37-25.017-3.297.605-11.894 12.42-14.453 18.583-10.564 2.433 1.433 2.296.575.968-.912-9.155-10.211-3.61-23.362 8.76-23.602 13.38.793 16.852 14.87 8.645 23.148-1.02.995-3.284 4.191.123 1.956 8.287-5.888 19.787.443 19.553 9.521-.433 16.739-20.84 17.987-25.204 4.006-.42-1.55-1.629-2.329-1.295.304.605 4.767 1.857 11.954 5.438 18.206zM54.77 83.88c2.88-5.776 4.977-11.701 5.349-18.037.341-2.332-1.075-2.371-1.288-.729-4.077 15.593-25.763 11.37-25.017-3.297.605-11.894 12.42-14.453 18.582-10.564 2.433 1.433 2.296.575.968-.912-9.155-10.211-3.61-23.362 8.761-23.602 13.38.793 16.851 14.87 8.644 23.148-1.02.995-3.283 4.191.123 1.956 8.287-5.888 19.787.443 19.553 9.521-.433 16.739-20.84 17.987-25.203 4.006-.42-1.55-1.63-2.329-1.295.304.605 4.767 1.856 11.954 5.437 18.206zM169.005 225.586c-2.879 5.775-4.975 11.7-5.348 18.037-.341 2.332 1.075 2.37 1.288.729 4.077-15.593 25.763-11.37 25.018 3.296-.605 11.895-12.42 14.454-18.583 10.565-2.433-1.433-2.296-.575-.968.911 9.155 10.212 3.61 23.362-8.76 23.603-13.38-.794-16.852-14.87-8.645-23.148 1.02-.995 3.283-4.192-.123-1.957-8.287 5.888-19.787-.443-19.553-9.52.433-16.74 20.84-17.988 25.203-4.006.42 1.55 1.63 2.328 1.295-.305-.604-4.766-1.856-11.953-5.437-18.205zM69.473 225.586c-2.88 5.775-4.976 11.7-5.348 18.037-.342 2.332 1.074 2.37 1.288.729 4.076-15.593 25.762-11.37 25.017 3.296-.605 11.895-12.42 14.454-18.583 10.565-2.433-1.433-2.296-.575-.967.911 9.154 10.212 3.61 23.362-8.762 23.603-13.38-.794-16.85-14.87-8.644-23.148 1.02-.995 3.284-4.192-.123-1.957-8.287 5.888-19.787-.443-19.553-9.52.433-16.74 20.84-17.988 25.204-4.006.42 1.55 1.629 2.328 1.295-.305-.605-4.766-1.857-11.953-5.438-18.205zM14.459 75.92c1.192-2.445 2.352-4.72 2.984-7.4.42-2.528-.438-1.589-.925.068-.722 2.297-2.723 3.343-4.58 3.369-3.371.045-5.053-2.605-4.948-5.454-.368-2.999 2.67-5.12 4.961-4.957 1.723.123 3.224 1.052 4.133 1.775.597.315 1.234.455.345-.358-1.677-1.833-3.076-2.965-3.046-5.711.03-2.579 2.234-5.268 5.156-5.184 3.651.105 5.312 2.89 5.303 5.48-.01 1.889-.954 3.627-2.411 4.703-.945.766-.68 1.34.397.615 1.035-.892 2.267-1.283 3.545-1.31 3.49-.055 4.855 2.962 4.655 5.764-.187 2.626-2.423 5.329-5.369 5.023-2.63-.302-4.013-2.51-4.805-4.777-.262-.695-.676-.883-.664.153.607 5.057 2.491 8.204 2.505 8.201zM209.766 237.179c-1.192 2.445-2.352 4.72-2.984 7.4-.419 2.528.438 1.589.925-.068.722-2.297 2.723-3.344 4.58-3.369 3.371-.045 5.053 2.605 4.948 5.454.368 2.999-2.67 5.12-4.961 4.957-1.723-.123-3.224-1.052-4.133-1.775-.597-.315-1.234-.455-.345.358 1.677 1.833 3.076 2.964 3.046 5.711-.03 2.579-2.234 5.268-5.156 5.184-3.651-.106-5.312-2.89-5.303-5.48.01-1.889.954-3.627 2.411-4.703.945-.766.68-1.34-.397-.615-1.035.892-2.267 1.282-3.545 1.31-3.49.055-4.855-2.962-4.655-5.764.187-2.626 2.423-5.329 5.369-5.023 2.63.302 4.013 2.51 4.805 4.777.262.695.676.883.664-.153-.607-5.057-2.491-8.204-2.505-8.201z"/></svg>