<svg xmlns="http://www.w3.org/2000/svg" width="224.225" height="312.808"><g transform="translate(-6703.887 2747.31)"><rect ry="10.63" rx="10.63" width="223.228" height="311.811" x="6704.386" y="-2746.811" fill="#fff" stroke="#000" stroke-width=".997"/><g fill="#d40000"><path d="M6722.221-2700.437v-2.813h2.585v-4.636h-12.925v-3.271l13.985-21.099 2.286.008v21.09h3.953v3.272h-3.953l-.076 4.636h2.166v2.813zm2.585-24.097l-8.879 13.377h8.88zM6909.778-2481.374v2.813h-2.585v4.636h12.925v3.271l-13.985 21.099-2.285-.008v-21.09h-3.953v-3.272h3.953l.076-4.636h-2.167v-2.813zm-2.585 24.097l8.88-13.377h-8.88z"/></g></g><path d="M9.254 61.493c-1.583-3.472-1.756-9.405 2.972-10.208 3.562-.458 5.011 1.198 5.3 3.742.142.743.561.789.694-.058.205-2.61 2.787-4.133 4.807-3.75 5.526.945 5.204 7.028 3.398 11.155-2.73 5.48-5.6 8.938-8.245 14.452-3.038-5.74-6.507-10.405-8.926-15.333zM45.496 26.563c7.144-.475 10.868 5.627 11.595 10.436.433.764.67.549.837-.042.349-6.174 5.875-11.22 10.992-10.53 8.328.108 13.39 9.375 11.967 17.218-1.739 9.582-6.9 15.351-10.808 21.293-4.421 6.153-10.373 15.04-12.29 19.317 0 0-6.048-9.204-13.917-20.03-5.262-7.238-9.473-15.082-9.865-21.835-.448-7.715 2.719-14.631 11.489-15.827zM155.028 26.563c7.144-.475 10.869 5.627 11.596 10.436.433.764.67.549.837-.042.349-6.174 5.874-11.22 10.992-10.53 8.328.108 13.39 9.375 11.967 17.218-1.739 9.582-6.9 15.351-10.808 21.293-4.422 6.153-10.373 15.04-12.29 19.317 0 0-6.049-9.204-13.918-20.03-5.261-7.238-9.473-15.082-9.865-21.835-.448-7.715 2.72-14.631 11.49-15.827zM45.496 282.903c7.144.474 10.868-5.627 11.595-10.436.433-.764.67-.55.837.042.349 6.174 5.875 11.22 10.992 10.53 8.328-.108 13.39-9.375 11.967-17.219-1.739-9.581-6.9-15.35-10.808-21.293-4.421-6.152-10.373-15.04-12.29-19.317 0 0-6.048 9.205-13.917 20.03-5.262 7.238-9.473 15.082-9.865 21.835-.448 7.716 2.719 14.632 11.489 15.828zM155.028 282.903c7.144.474 10.869-5.627 11.596-10.436.433-.764.67-.55.837.042.349 6.174 5.874 11.22 10.992 10.53 8.328-.108 13.39-9.375 11.967-17.219-1.739-9.581-6.9-15.35-10.808-21.293-4.422-6.152-10.373-15.04-12.29-19.317 0 0-6.049 9.205-13.918 20.03-5.261 7.238-9.473 15.082-9.865 21.835-.448 7.716 2.72 14.632 11.49 15.828zM196.473 251.606c-1.583 3.472-1.757 9.405 2.971 10.208 3.562.458 5.012-1.199 5.3-3.742.142-.743.562-.789.695.058.204 2.61 2.787 4.133 4.806 3.75 5.527-.945 5.204-7.028 3.399-11.155-2.731-5.48-5.6-8.938-8.245-14.452-3.038 5.74-6.508 10.405-8.926 15.333z" fill="#d40000"/></svg>