<svg xmlns="http://www.w3.org/2000/svg" width="224.225" height="312.808"><g transform="translate(-6703.887 2747.31)"><rect y="-2746.811" x="6704.386" height="311.811" width="223.228" rx="10.63" ry="10.63" fill="#fff" stroke="#000" stroke-width=".997"/><path d="M6722.221-2700.437v-2.813h2.585v-4.636h-12.925v-3.271l13.985-21.099 2.286.008v21.09h3.953v3.272h-3.953l-.076 4.636h2.166v2.813zm2.585-24.097l-8.879 13.377h8.88zM6909.778-2481.374v2.813h-2.585v4.636h12.925v3.271l-13.985 21.099-2.285-.008v-21.09h-3.953v-3.272h3.953l.076-4.636h-2.167v-2.813zm-2.585 24.097l8.88-13.377h-8.88z"/></g><path d="M55.405 66.76c.015-2.026-1.587-2.064-1.569-.586-.134 7.429-6.416 11.087-10.98 10.219-7.036-1.338-9.282-8.322-9.215-12.436.207-12.696 12.988-22.058 24.52-38.334 8.45 14.69 22.397 26.23 23.223 37.586 1.098 15.098-18.009 20.73-20.737 3.132-.176-1.243-1.64-1.8-1.526-.065.415 4.823-.175 6.832 5.266 18.72H50.165c3.15-5.555 5.025-12.375 5.24-18.236zM166.938 66.76c.015-2.026-1.587-2.064-1.569-.586-.134 7.429-6.416 11.087-10.98 10.219-7.037-1.338-9.282-8.322-9.215-12.436.207-12.696 12.988-22.058 24.52-38.334 8.45 14.69 22.397 26.23 23.223 37.586 1.098 15.098-18.009 20.73-20.737 3.132-.176-1.243-1.64-1.8-1.526-.065.414 4.823-.175 6.832 5.266 18.72h-14.222c3.15-5.555 5.025-12.375 5.24-18.236zM55.416 242.731c.015 2.026-1.587 2.065-1.569.586-.134-7.429-6.416-11.086-10.98-10.219-7.037 1.338-9.282 8.322-9.215 12.436.207 12.696 12.988 22.058 24.52 38.334 8.45-14.69 22.397-26.23 23.223-37.585 1.098-15.099-18.009-20.73-20.737-3.133-.176 1.243-1.64 1.8-1.526.065.414-4.823-.175-6.832 5.266-18.72H50.176c3.15 5.555 5.025 12.375 5.24 18.236zM166.948 242.731c.015 2.026-1.586 2.065-1.568.586-.134-7.429-6.417-11.086-10.98-10.219-7.037 1.338-9.283 8.322-9.215 12.436.207 12.696 12.987 22.058 24.52 38.334 8.45-14.69 22.397-26.23 23.223-37.585 1.097-15.099-18.01-20.73-20.737-3.133-.176 1.243-1.64 1.8-1.526.065.414-4.823-.175-6.832 5.265-18.72H161.71c3.15 5.555 5.025 12.375 5.24 18.236zM17.5 70.55c.01-.872-.896-.465-1.018-.191-1.163 1.986-2.865 2.448-4.548 1.732-1.667-.71-2.604-2.28-2.454-4.522.31-3.438 3.035-7.2 4.355-9.327a69.037 69.037 0 0 0 4.077-7.154c1.697 3.363 2.558 4.32 4.405 7.392 1.626 2.704 3.892 5.353 4.067 8.622 0 2.485-1.046 4.832-3.399 5.26-1.331.241-2.579-.442-3.504-2.037-.282-.407-.849-.195-.839.362.165 2.093.955 3.983 2.83 6.211h-6.888c1.41-1.576 2.85-3.703 2.916-6.349zM204.718 242.55c.01.871-.895.464-1.017.19-1.164-1.986-2.865-2.448-4.548-1.732-1.668.71-2.605 2.28-2.454 4.522.31 3.438 3.035 7.2 4.355 9.327a69.038 69.038 0 0 1 4.076 7.154c1.698-3.364 2.56-4.32 4.406-7.392 1.626-2.704 3.892-5.353 4.067-8.622 0-2.485-1.046-4.832-3.4-5.26-1.33-.242-2.578.442-3.503 2.037-.282.407-.849.195-.84-.362.166-2.093.956-3.983 2.83-6.211h-6.887c1.41 1.576 2.849 3.703 2.915 6.349z"/></svg>