<svg xmlns="http://www.w3.org/2000/svg" width="224.225" height="312.808"><g transform="translate(-6927.116 2747.31)"><rect y="-2746.811" x="6927.614" height="311.811" width="223.228" rx="10.63" ry="10.63" fill="#fff" stroke="#000" stroke-width=".997"/></g><path d="M8.754 38.036l3.22-.028c.612 1.944 1.972 3.926 3.817 4.473 5.212 1.224 8.567-1.687 9.672-5.046 1.34-4.074-.03-9.796-3.617-11.828-2.976-1.686-7.395-.264-9.422 3.339l-2.257-1.38 1.21-13.422h14.731v3.172H14.171l-.188 5.59c2.566-1.801 6.518-1.784 9.086-.519 4.865 2.319 7.124 7.593 6.177 13.81-1.31 6.184-4.197 9.687-10.717 10.19-7.245.063-9.804-4.917-9.775-8.35zM215.624 274.772l-3.22.028c-.613-1.944-1.972-3.926-3.817-4.474-5.212-1.223-8.568 1.688-9.673 5.047-1.34 4.074.03 9.796 3.618 11.828 2.975 1.686 7.395.264 9.422-3.339l2.257 1.38L213 298.664h-14.731v-3.172h11.938l.187-5.591c-2.565 1.802-6.518 1.784-9.085.52-4.865-2.32-7.124-7.593-6.178-13.81 1.31-6.184 4.198-9.687 10.718-10.19 7.244-.063 9.804 4.917 9.775 8.35zM104.767 185c2.88-5.776 4.976-11.701 5.348-18.037.342-2.332-1.074-2.371-1.288-.729-4.076 15.593-25.763 11.37-25.017-3.296.605-11.895 12.42-14.454 18.582-10.565 2.434 1.433 2.296.575.968-.912-9.155-10.211-3.61-23.361 8.761-23.602 13.38.793 16.852 14.87 8.645 23.148-1.021.995-3.284 4.191.123 1.956 8.286-5.888 19.787.443 19.552 9.521-.432 16.74-20.839 17.987-25.203 4.006-.42-1.55-1.629-2.329-1.295.304.605 4.767 1.857 11.954 5.437 18.206zM154.01 85.738c2.879-5.776 4.976-11.701 5.348-18.038.342-2.331-1.075-2.37-1.288-.728-4.077 15.593-25.763 11.37-25.017-3.297.605-11.895 12.42-14.454 18.582-10.564 2.434 1.433 2.296.574.968-.912-9.155-10.211-3.61-23.362 8.761-23.602 13.38.793 16.851 14.87 8.644 23.148-1.02.994-3.283 4.191.123 1.956 8.287-5.888 19.788.443 19.553 9.52-.433 16.74-20.839 17.988-25.203 4.007-.42-1.55-1.63-2.329-1.295.304.605 4.767 1.856 11.953 5.437 18.206zM55.329 85.738c2.879-5.776 4.975-11.701 5.348-18.038.341-2.331-1.075-2.37-1.288-.728-4.077 15.593-25.763 11.37-25.018-3.297.605-11.895 12.42-14.454 18.583-10.564 2.433 1.433 2.296.574.968-.912-9.155-10.211-3.61-23.362 8.76-23.602 13.38.793 16.852 14.87 8.645 23.148-1.02.994-3.283 4.191.123 1.956 8.287-5.888 19.787.443 19.553 9.52-.433 16.74-20.84 17.988-25.203 4.007-.42-1.55-1.63-2.329-1.295.304.604 4.767 1.856 11.953 5.437 18.206zM168.712 225.248c-2.88 5.775-4.976 11.7-5.348 18.037-.342 2.332 1.074 2.371 1.288.729 4.076-15.593 25.763-11.37 25.017 3.296-.605 11.895-12.42 14.454-18.582 10.565-2.434-1.433-2.296-.575-.968.912 9.155 10.211 3.61 23.361-8.761 23.602-13.38-.793-16.852-14.87-8.645-23.148 1.021-.995 3.284-4.192-.123-1.957-8.286 5.888-19.787-.442-19.552-9.52.432-16.74 20.839-17.988 25.203-4.006.42 1.55 1.629 2.329 1.295-.304-.605-4.767-1.857-11.954-5.438-18.206zM70.03 225.248c-2.878 5.775-4.975 11.7-5.348 18.037-.341 2.332 1.075 2.371 1.289.729 4.076-15.593 25.762-11.37 25.017 3.296-.605 11.895-12.42 14.454-18.583 10.565-2.433-1.433-2.296-.575-.968.912 9.155 10.211 3.61 23.361-8.76 23.602-13.38-.793-16.852-14.87-8.645-23.148 1.02-.995 3.284-4.192-.123-1.957-8.287 5.888-19.787-.442-19.553-9.52.433-16.74 20.84-17.988 25.204-4.006.42 1.55 1.629 2.329 1.295-.304-.605-4.767-1.857-11.954-5.438-18.206zM14.714 75.523c1.192-2.445 2.352-4.721 2.984-7.401.42-2.528-.438-1.589-.925.068-.721 2.297-2.723 3.344-4.58 3.369-3.371.045-5.053-2.604-4.948-5.454-.368-2.999 2.671-5.12 4.962-4.957 1.722.123 3.224 1.052 4.133 1.775.596.316 1.234.455.345-.358-1.678-1.833-3.077-2.964-3.046-5.711.029-2.579 2.233-5.268 5.155-5.184 3.652.106 5.312 2.89 5.303 5.48-.01 1.89-.953 3.627-2.411 4.703-.944.767-.68 1.34.398.615 1.035-.892 2.267-1.282 3.544-1.31 3.491-.054 4.855 2.962 4.656 5.765-.188 2.625-2.423 5.328-5.37 5.022-2.63-.302-4.012-2.51-4.805-4.777-.262-.695-.676-.883-.664.153.608 5.057 2.492 8.204 2.505 8.202zM209.511 237.526c-1.192 2.445-2.352 4.72-2.984 7.4-.42 2.528.438 1.59.925-.067.721-2.298 2.723-3.344 4.58-3.37 3.371-.045 5.053 2.605 4.948 5.455.368 2.998-2.671 5.12-4.962 4.956-1.722-.122-3.224-1.052-4.133-1.775-.596-.315-1.234-.454-.345.359 1.678 1.833 3.077 2.964 3.046 5.71-.029 2.58-2.233 5.269-5.155 5.184-3.652-.105-5.312-2.89-5.303-5.48.01-1.888.953-3.626 2.411-4.703.944-.766.68-1.34-.398-.615-1.035.892-2.267 1.283-3.544 1.31-3.49.055-4.855-2.961-4.656-5.764.188-2.626 2.423-5.328 5.37-5.022 2.63.301 4.012 2.51 4.805 4.777.262.695.676.882.664-.153-.608-5.058-2.492-8.205-2.505-8.202z"/></svg>