<svg xmlns="http://www.w3.org/2000/svg" width="224.225" height="312.808"><g transform="translate(-6927.116 2747.31)"><rect ry="10.63" rx="10.63" width="223.228" height="311.811" x="6927.614" y="-2746.811" fill="#fff" stroke="#000" stroke-width=".997"/><g fill="#d40000"><path d="M6961.493-2689.907c9.92-9.681 16.436-20.237 22.667-30.389 5.464 11.17 13.306 20.943 21.786 30.39-9.073 9.368-16.105 19.386-21.76 29.917-6.267-10.796-12.865-20.572-22.693-29.918zM6961.493-2493.255c9.92-9.682 16.436-20.238 22.667-30.39 5.464 11.17 13.306 20.943 21.786 30.39-9.073 9.368-16.105 19.386-21.759 29.918-6.268-10.796-12.866-20.572-22.694-29.918zM7072.174-2689.907c9.92-9.681 16.436-20.237 22.667-30.389 5.464 11.17 13.306 20.943 21.786 30.39-9.073 9.368-16.105 19.386-21.759 29.917-6.267-10.796-12.866-20.572-22.694-29.918zM7016.931-2590.644c9.92-9.682 16.436-20.238 22.667-30.39 5.465 11.17 13.306 20.943 21.786 30.39-9.073 9.368-16.105 19.386-21.759 29.917-6.267-10.795-12.866-20.571-22.694-29.917zM7072.174-2493.255c9.92-9.682 16.436-20.238 22.667-30.39 5.464 11.17 13.306 20.943 21.786 30.39-9.073 9.368-16.105 19.386-21.759 29.918-6.267-10.796-12.866-20.572-22.694-29.918zM7123.401-2497.76c4.064-3.966 6.733-8.29 9.286-12.448 2.238 4.575 5.45 8.579 8.924 12.448-3.717 3.838-6.597 7.942-8.913 12.256-2.568-4.423-5.27-8.427-9.297-12.256zM6936.693-2683.617c4.064-3.966 6.733-8.29 9.286-12.449 2.238 4.576 5.45 8.579 8.924 12.449-3.716 3.837-6.597 7.941-8.913 12.255-2.568-4.422-5.27-8.427-9.297-12.255zM6935.793-2709.273l3.22-.029c.613 1.945 1.973 3.927 3.817 4.474 5.212 1.224 8.568-1.687 9.673-5.047 1.34-4.073-.03-9.795-3.618-11.827-2.975-1.686-7.394-.264-9.422 3.338l-2.257-1.38 1.212-13.421h14.73v3.171h-11.938l-.187 5.592c2.565-1.803 6.518-1.785 9.085-.52 4.865 2.319 7.125 7.592 6.178 13.81-1.31 6.183-4.198 9.687-10.718 10.19-7.244.063-9.803-4.918-9.775-8.351zM7142.663-2472.538l-3.22.029c-.612-1.945-1.972-3.927-3.817-4.474-5.212-1.224-8.567 1.687-9.672 5.047-1.34 4.073.03 9.795 3.617 11.827 2.976 1.686 7.395.264 9.422-3.338l2.258 1.38-1.212 13.421h-14.73v-3.171h11.937l.188-5.592c-2.566 1.803-6.518 1.785-9.086.52-4.864-2.319-7.124-7.592-6.177-13.81 1.31-6.183 4.197-9.687 10.718-10.19 7.244-.063 9.803 4.918 9.774 8.351z"/></g></g></svg>