<svg xmlns="http://www.w3.org/2000/svg" width="224.225" height="312.808"><g transform="translate(-6927.116 2747.31)"><rect ry="10.63" rx="10.63" width="223.228" height="311.811" x="6927.614" y="-2746.811" fill="#fff" stroke="#000" stroke-width=".997"/><g fill="#d40000"><path d="M6935.793-2709.273l3.22-.029c.613 1.945 1.973 3.927 3.817 4.474 5.212 1.224 8.568-1.687 9.673-5.047 1.34-4.073-.03-9.795-3.618-11.827-2.975-1.686-7.394-.264-9.422 3.338l-2.257-1.38 1.212-13.421h14.73v3.171h-11.938l-.187 5.592c2.565-1.803 6.518-1.785 9.085-.52 4.865 2.319 7.125 7.592 6.178 13.81-1.31 6.183-4.198 9.687-10.718 10.19-7.244.063-9.803-4.918-9.775-8.351zM7142.663-2472.538l-3.22.029c-.612-1.945-1.972-3.927-3.817-4.474-5.212-1.224-8.567 1.687-9.672 5.047-1.34 4.073.03 9.795 3.617 11.827 2.976 1.686 7.395.264 9.422-3.338l2.258 1.38-1.212 13.421h-14.73v-3.171h11.937l.188-5.592c-2.566 1.803-6.518 1.785-9.086.52-4.864-2.319-7.124-7.592-6.177-13.81 1.31-6.183 4.197-9.687 10.718-10.19 7.244-.063 9.803 4.918 9.774 8.351z"/></g></g><path d="M10.01 61.096c-1.583-3.473-1.757-9.406 2.971-10.208 3.562-.459 5.012 1.198 5.3 3.741.142.743.562.789.695-.058.204-2.61 2.787-4.133 4.806-3.75 5.527.945 5.204 7.029 3.399 11.156-2.731 5.48-5.6 8.937-8.245 14.451-3.038-5.74-6.508-10.405-8.926-15.332zM44.554 28.42c7.144-.474 10.868 5.628 11.595 10.437.433.764.67.549.837-.042.35-6.175 5.875-11.22 10.992-10.53 8.328.108 13.39 9.375 11.967 17.218-1.739 9.582-6.9 15.351-10.808 21.293-4.421 6.153-10.373 15.04-12.29 19.317 0 0-6.048-9.204-13.917-20.03-5.262-7.238-9.473-15.082-9.865-21.835-.448-7.715 2.719-14.632 11.489-15.827zM155.235 28.42c7.144-.474 10.868 5.628 11.595 10.437.434.764.67.549.837-.042.35-6.175 5.875-11.22 10.993-10.53 8.328.108 13.39 9.375 11.966 17.218-1.738 9.582-6.9 15.351-10.808 21.293-4.421 6.153-10.372 15.04-12.29 19.317 0 0-6.048-9.204-13.917-20.03-5.262-7.238-9.473-15.082-9.865-21.835-.448-7.715 2.72-14.632 11.489-15.827zM100.063 127.657c7.144-.474 10.868 5.628 11.595 10.437.433.764.67.548.837-.043.35-6.174 5.875-11.22 10.993-10.53 8.328.108 13.389 9.376 11.966 17.219-1.739 9.582-6.9 15.351-10.808 21.293-4.421 6.152-10.373 15.04-12.29 19.317 0 0-6.048-9.205-13.917-20.03-5.262-7.238-9.473-15.082-9.865-21.835-.448-7.716 2.719-14.632 11.489-15.828zM44.554 282.565c7.144.475 10.868-5.627 11.595-10.436.433-.764.67-.549.837.042.35 6.174 5.875 11.22 10.992 10.53 8.328-.108 13.39-9.375 11.967-17.218-1.739-9.582-6.9-15.352-10.808-21.294-4.421-6.152-10.373-15.04-12.29-19.316 0 0-6.048 9.204-13.917 20.03-5.262 7.238-9.473 15.081-9.865 21.835-.448 7.715 2.719 14.631 11.489 15.827zM155.235 282.565c7.144.475 10.868-5.627 11.595-10.436.434-.764.67-.549.837.042.35 6.174 5.875 11.22 10.993 10.53 8.328-.108 13.39-9.375 11.966-17.218-1.738-9.582-6.9-15.352-10.808-21.294-4.421-6.152-10.372-15.04-12.29-19.316 0 0-6.048 9.204-13.917 20.03-5.262 7.238-9.473 15.081-9.865 21.835-.448 7.715 2.72 14.631 11.489 15.827zM196.718 251.953c-1.583 3.472-1.757 9.406 2.97 10.208 3.563.459 5.013-1.198 5.3-3.742.143-.743.562-.788.696.059.204 2.609 2.787 4.132 4.806 3.75 5.527-.946 5.204-7.029 3.398-11.156-2.73-5.48-5.6-8.938-8.245-14.452-3.038 5.741-6.507 10.405-8.925 15.333z" fill="#d40000"/></svg>