<svg xmlns="http://www.w3.org/2000/svg" width="224.225" height="312.808"><g transform="translate(-6927.116 2747.31)"><rect ry="10.63" rx="10.63" width="223.228" height="311.811" x="6927.614" y="-2746.811" fill="#fff" stroke="#000" stroke-width=".997"/><path d="M6935.793-2709.273l3.22-.029c.613 1.945 1.973 3.927 3.817 4.474 5.212 1.224 8.568-1.687 9.673-5.047 1.34-4.073-.03-9.795-3.618-11.827-2.975-1.686-7.394-.264-9.422 3.338l-2.257-1.38 1.212-13.421h14.73v3.171h-11.938l-.187 5.592c2.565-1.803 6.518-1.785 9.085-.52 4.865 2.319 7.125 7.592 6.178 13.81-1.31 6.183-4.198 9.687-10.718 10.19-7.244.063-9.803-4.918-9.775-8.351zM7142.663-2472.538l-3.22.029c-.612-1.945-1.972-3.927-3.817-4.474-5.212-1.224-8.567 1.687-9.672 5.047-1.34 4.073.03 9.795 3.617 11.827 2.976 1.686 7.395.264 9.422-3.338l2.258 1.38-1.212 13.421h-14.73v-3.171h11.937l.188-5.592c-2.566 1.803-6.518 1.785-9.086.52-4.864-2.319-7.124-7.592-6.177-13.81 1.31-6.183 4.197-9.687 10.718-10.19 7.244-.063 9.803 4.918 9.774 8.351z"/></g><path d="M54.463 68.618c.015-2.026-1.587-2.065-1.569-.586-.134 7.429-6.416 11.086-10.98 10.219-7.036-1.338-9.282-8.322-9.215-12.436.207-12.696 12.988-22.058 24.52-38.334 8.45 14.69 22.397 26.23 23.223 37.585 1.098 15.099-18.009 20.73-20.737 3.133-.176-1.243-1.64-1.8-1.526-.065.415 4.823-.175 6.832 5.266 18.72H49.223c3.15-5.555 5.026-12.375 5.24-18.236zM165.144 68.618c.015-2.026-1.587-2.065-1.568-.586-.135 7.429-6.417 11.086-10.981 10.219-7.036-1.338-9.282-8.322-9.215-12.436.208-12.696 12.988-22.058 24.52-38.334 8.45 14.69 22.398 26.23 23.223 37.585 1.098 15.099-18.008 20.73-20.736 3.133-.176-1.243-1.64-1.8-1.527-.065.415 4.823-.174 6.832 5.266 18.72h-14.222c3.15-5.555 5.026-12.375 5.24-18.236zM109.901 167.88c.015-2.026-1.586-2.064-1.568-.586-.134 7.429-6.417 11.087-10.98 10.219-7.037-1.338-9.283-8.322-9.215-12.435.207-12.697 12.987-22.059 24.52-38.335 8.45 14.69 22.397 26.23 23.223 37.586 1.097 15.098-18.01 20.73-20.737 3.132-.176-1.243-1.64-1.8-1.526-.065.414 4.823-.175 6.832 5.265 18.72h-14.221c3.15-5.555 5.025-12.375 5.24-18.236zM54.474 242.393c.015 2.026-1.587 2.065-1.569.586-.134-7.428-6.416-11.086-10.98-10.219-7.037 1.338-9.282 8.323-9.215 12.436.207 12.696 12.988 22.058 24.52 38.334 8.45-14.69 22.397-26.23 23.223-37.585 1.098-15.098-18.009-20.73-20.737-3.133-.176 1.243-1.64 1.801-1.526.065.414-4.823-.175-6.831 5.266-18.72H49.234c3.15 5.556 5.025 12.375 5.24 18.236zM165.155 242.393c.015 2.026-1.587 2.065-1.569.586-.134-7.428-6.416-11.086-10.98-10.219-7.036 1.338-9.282 8.323-9.215 12.436.207 12.696 12.988 22.058 24.52 38.334 8.45-14.69 22.398-26.23 23.223-37.585 1.098-15.098-18.009-20.73-20.737-3.133-.176 1.243-1.64 1.801-1.526.065.415-4.823-.175-6.831 5.266-18.72h-14.222c3.15 5.556 5.026 12.375 5.24 18.236zM18.255 70.152c.01-.872-.895-.465-1.018-.19-1.163 1.985-2.864 2.447-4.547 1.731-1.668-.71-2.605-2.28-2.454-4.522.31-3.438 3.035-7.2 4.355-9.326a69.036 69.036 0 0 0 4.076-7.154c1.698 3.363 2.559 4.32 4.406 7.391 1.626 2.704 3.892 5.353 4.067 8.622 0 2.485-1.046 4.832-3.4 5.26-1.33.242-2.578-.442-3.503-2.037-.282-.407-.849-.195-.84.362.166 2.093.956 3.983 2.83 6.212H15.34c1.41-1.576 2.849-3.704 2.915-6.35zM204.963 242.897c.01.872-.895.465-1.018.19-1.163-1.985-2.864-2.447-4.548-1.731-1.667.709-2.604 2.28-2.453 4.522.31 3.438 3.035 7.2 4.355 9.326a69.037 69.037 0 0 1 4.076 7.154c1.697-3.363 2.559-4.32 4.405-7.391 1.626-2.705 3.893-5.353 4.068-8.623 0-2.485-1.046-4.832-3.4-5.26-1.331-.241-2.578.442-3.503 2.038-.282.406-.85.194-.84-.362.166-2.093.956-3.983 2.83-6.212h-6.887c1.41 1.576 2.849 3.704 2.915 6.35z"/></svg>