<svg xmlns="http://www.w3.org/2000/svg" width="224.225" height="312.808"><g transform="translate(-7150.344 2747.31)"><rect ry="10.63" rx="10.63" width="223.228" height="311.811" x="7150.843" y="-2746.811" fill="#fff" stroke="#000" stroke-width=".997"/></g><path d="M8.622 36.499c-.408-2.747-.402-9.845-.066-11.943 1.029-6.428 3.532-9.368 7.723-10.332 4.068-.936 9.788.106 11.044 5.482l-3.407.063c-1.84-3.634-6.495-2.662-9.116-1.082-2.093 1.262-3.038 6.52-2.634 6.843-.003 0 3.957-2.877 7.076-2.665 6.668.682 9.418 6.356 9.185 11.719-.21 6.45-2.295 11.602-9.36 11.946-6.719-.253-9.8-3.85-10.445-10.031zm16.57-1.705c.038-4.476-2.033-7.823-5.95-8.193-3.915-.37-7.863 3.382-7.59 7.943.275 4.577 2.08 8.432 6.827 8.41 5.106-.023 6.687-4.976 6.713-8.16zM215.37 276.309c.409 2.747.402 9.845.067 11.942-1.03 6.429-3.532 9.37-7.723 10.333-4.069.936-9.789-.106-11.044-5.482l3.406-.063c1.84 3.633 6.496 2.662 9.116 1.082 2.093-1.262 3.039-6.52 2.634-6.843.003 0-3.957 2.877-7.076 2.665-6.668-.682-9.417-6.356-9.185-11.719.211-6.45 2.295-11.602 9.361-11.946 6.719.253 9.8 3.85 10.445 10.03zm-16.57 1.705c-.037 4.475 2.034 7.823 5.95 8.192 3.916.37 7.863-3.381 7.59-7.942-.274-4.577-2.079-8.432-6.826-8.41-5.106.022-6.687 4.976-6.714 8.16zM154.552 185.072c2.879-5.775 4.976-11.7 5.348-18.037.342-2.332-1.075-2.371-1.288-.729-4.076 15.593-25.763 11.37-25.017-3.296.605-11.895 12.42-14.454 18.582-10.565 2.434 1.433 2.296.575.968-.912-9.155-10.211-3.61-23.361 8.761-23.602 13.38.793 16.851 14.87 8.644 23.148-1.02.995-3.283 4.192.123 1.957 8.287-5.888 19.788.442 19.553 9.52-.433 16.74-20.839 17.988-25.203 4.006-.42-1.55-1.63-2.329-1.295.304.605 4.767 1.856 11.954 5.437 18.206zM55.02 185.072c2.878-5.775 4.975-11.7 5.347-18.037.342-2.332-1.074-2.371-1.288-.729-4.076 15.593-25.763 11.37-25.017-3.296.605-11.895 12.42-14.454 18.582-10.565 2.434 1.433 2.296.575.968-.912-9.155-10.211-3.61-23.361 8.761-23.602 13.38.793 16.852 14.87 8.645 23.148-1.02.995-3.284 4.192.123 1.957 8.286-5.888 19.787.442 19.552 9.52-.432 16.74-20.839 17.988-25.203 4.006-.42-1.55-1.629-2.329-1.295.304.605 4.767 1.857 11.954 5.438 18.206zM154.552 86.178c2.879-5.775 4.976-11.7 5.348-18.037.342-2.332-1.075-2.37-1.288-.728-4.076 15.592-25.763 11.37-25.017-3.297.605-11.895 12.42-14.454 18.582-10.564 2.434 1.432 2.296.574.968-.912-9.155-10.212-3.61-23.362 8.761-23.603 13.38.794 16.851 14.87 8.644 23.149-1.02.994-3.283 4.191.123 1.956 8.287-5.888 19.788.443 19.553 9.52-.433 16.74-20.839 17.988-25.203 4.006-.42-1.55-1.63-2.328-1.295.305.605 4.766 1.856 11.953 5.437 18.205zM55.02 86.178c2.878-5.775 4.975-11.7 5.347-18.037.342-2.332-1.074-2.37-1.288-.728-4.076 15.592-25.763 11.37-25.017-3.297.605-11.895 12.42-14.454 18.582-10.564 2.434 1.432 2.296.574.968-.912-9.155-10.212-3.61-23.362 8.761-23.603 13.38.794 16.852 14.87 8.645 23.149-1.02.994-3.284 4.191.123 1.956 8.286-5.888 19.787.443 19.552 9.52-.432 16.74-20.839 17.988-25.203 4.006-.42-1.55-1.629-2.328-1.295.305.605 4.766 1.857 11.953 5.438 18.205zM169.254 226.53c-2.879 5.775-4.976 11.7-5.348 18.037-.342 2.332 1.074 2.37 1.288.728 4.076-15.592 25.763-11.37 25.017 3.297-.605 11.895-12.42 14.454-18.582 10.564-2.434-1.432-2.296-.574-.968.912 9.155 10.212 3.61 23.362-8.761 23.603-13.38-.794-16.852-14.87-8.645-23.149 1.021-.994 3.284-4.191-.123-1.956-8.286 5.888-19.787-.443-19.552-9.52.432-16.74 20.839-17.988 25.203-4.006.42 1.55 1.63 2.328 1.295-.305-.605-4.766-1.857-11.953-5.437-18.205zM69.721 226.53c-2.879 5.775-4.976 11.7-5.348 18.037-.342 2.332 1.075 2.37 1.288.728 4.077-15.592 25.763-11.37 25.017 3.297-.605 11.895-12.42 14.454-18.582 10.564-2.434-1.432-2.296-.574-.968.912 9.155 10.212 3.61 23.362-8.761 23.603-13.38-.794-16.851-14.87-8.644-23.149 1.02-.994 3.283-4.191-.123-1.956-8.287 5.888-19.788-.443-19.553-9.52.433-16.74 20.84-17.988 25.203-4.006.42 1.55 1.63 2.328 1.295-.305-.605-4.766-1.856-11.953-5.437-18.205zM13.66 74.3c1.192-2.446 2.352-4.721 2.985-7.401.419-2.528-.439-1.589-.926.068-.72 2.297-2.722 3.344-4.58 3.369-3.37.045-5.052-2.605-4.948-5.454-.368-2.999 2.671-5.12 4.962-4.957 1.722.123 3.224 1.052 4.133 1.775.596.315 1.234.455.345-.358-1.678-1.833-3.077-2.964-3.046-5.711.029-2.579 2.233-5.268 5.155-5.184 3.652.106 5.312 2.89 5.304 5.48-.01 1.889-.954 3.627-2.412 4.703-.944.766-.68 1.34.398.615 1.035-.892 2.267-1.282 3.545-1.31 3.49-.055 4.855 2.962 4.655 5.764-.188 2.626-2.423 5.329-5.37 5.023-2.63-.302-4.012-2.51-4.804-4.777-.263-.695-.676-.883-.665.153.608 5.057 2.492 8.204 2.506 8.201zM210.565 236.303c-1.192 2.445-2.352 4.72-2.985 7.4-.419 2.528.439 1.59.926-.068.72-2.297 2.722-3.343 4.58-3.368 3.37-.046 5.052 2.604 4.948 5.453.368 2.999-2.671 5.12-4.962 4.957-1.722-.123-3.224-1.052-4.133-1.775-.596-.315-1.234-.455-.345.359 1.678 1.832 3.077 2.964 3.046 5.71-.029 2.579-2.233 5.268-5.155 5.184-3.652-.105-5.312-2.89-5.304-5.48.01-1.889.954-3.627 2.412-4.703.944-.766.68-1.34-.398-.615-1.035.892-2.267 1.283-3.545 1.31-3.49.055-4.855-2.961-4.655-5.764.188-2.626 2.423-5.329 5.37-5.022 2.63.301 4.012 2.51 4.804 4.776.263.695.676.883.665-.153-.608-5.057-2.492-8.204-2.506-8.201z"/></svg>