<svg xmlns="http://www.w3.org/2000/svg" width="224.225" height="312.808"><g transform="translate(-7150.344 2747.31)"><rect ry="10.63" rx="10.63" width="223.228" height="311.811" x="7150.843" y="-2746.811" fill="#fff" stroke="#000" stroke-width=".997"/><g fill="#d40000"><path d="M7184.604-2689.466c9.92-9.681 16.436-20.237 22.667-30.389 5.465 11.17 13.306 20.942 21.786 30.39-9.073 9.368-16.105 19.385-21.759 29.917-6.267-10.796-12.866-20.572-22.694-29.918zM7184.604-2590.572c9.92-9.682 16.436-20.238 22.667-30.39 5.465 11.17 13.306 20.943 21.787 30.39-9.074 9.368-16.106 19.386-21.76 29.918-6.267-10.796-12.866-20.572-22.694-29.918zM7184.604-2491.974c9.92-9.681 16.436-20.237 22.667-30.389 5.465 11.17 13.306 20.943 21.787 30.39-9.074 9.368-16.106 19.386-21.76 29.917-6.267-10.796-12.866-20.571-22.694-29.918zM7296.137-2689.466c9.92-9.681 16.436-20.237 22.667-30.389 5.464 11.17 13.306 20.942 21.786 30.39-9.073 9.368-16.105 19.385-21.759 29.917-6.267-10.796-12.866-20.572-22.694-29.918zM7296.137-2590.572c9.92-9.682 16.436-20.238 22.667-30.39 5.464 11.17 13.306 20.943 21.786 30.39-9.073 9.368-16.105 19.386-21.759 29.918-6.267-10.796-12.866-20.572-22.694-29.918zM7296.137-2491.974c9.92-9.681 16.436-20.237 22.667-30.389 5.464 11.17 13.306 20.943 21.786 30.39-9.073 9.368-16.105 19.386-21.759 29.917-6.267-10.796-12.866-20.571-22.694-29.918zM7347.876-2498.983c4.064-3.966 6.733-8.29 9.285-12.449 2.239 4.576 5.45 8.58 8.925 12.449-3.717 3.838-6.598 7.941-8.914 12.256-2.567-4.423-5.27-8.427-9.296-12.256zM7159.06-2684.84c4.065-3.967 6.733-8.29 9.286-12.45 2.238 4.577 5.45 8.58 8.925 12.45-3.717 3.837-6.598 7.94-8.914 12.255-2.567-4.422-5.27-8.427-9.296-12.256zM7159.083-2710.81c-.409-2.748-.402-9.846-.066-11.943 1.029-6.429 3.532-9.369 7.722-10.333 4.069-.935 9.79.106 11.044 5.482l-3.406.063c-1.84-3.633-6.496-2.662-9.116-1.082-2.093 1.262-3.038 6.52-2.634 6.844-.003 0 3.957-2.878 7.076-2.665 6.668.681 9.417 6.355 9.185 11.718-.21 6.45-2.295 11.603-9.361 11.947-6.718-.254-9.8-3.85-10.444-10.032zm16.57-1.706c.037-4.475-2.034-7.822-5.95-8.192-3.915-.37-7.863 3.382-7.59 7.943.275 4.576 2.079 8.431 6.827 8.41 5.106-.023 6.687-4.976 6.713-8.16zM7365.831-2471c.409 2.747.402 9.845.066 11.942-1.029 6.429-3.532 9.369-7.722 10.333-4.069.935-9.79-.106-11.044-5.482l3.406-.063c1.84 3.633 6.495 2.662 9.116 1.082 2.093-1.262 3.038-6.52 2.634-6.843.003 0-3.957 2.877-7.076 2.664-6.668-.681-9.417-6.355-9.185-11.718.21-6.45 2.295-11.603 9.361-11.947 6.718.254 9.8 3.85 10.444 10.032zm-16.57 1.705c-.037 4.475 2.034 7.822 5.95 8.192 3.915.37 7.863-3.382 7.59-7.943-.275-4.576-2.08-8.431-6.827-8.41-5.106.023-6.687 4.976-6.713 8.16z"/></g></g></svg>