<svg xmlns="http://www.w3.org/2000/svg" width="224.225" height="312.808"><g transform="translate(-7150.344 2747.31)"><rect ry="10.63" rx="10.63" width="223.228" height="311.811" x="7150.843" y="-2746.811" fill="#fff" stroke="#000" stroke-width=".997"/><g fill="#d40000"><path d="M7159.083-2710.81c-.409-2.748-.402-9.846-.066-11.943 1.029-6.429 3.532-9.369 7.722-10.333 4.069-.935 9.79.106 11.044 5.482l-3.406.063c-1.84-3.633-6.496-2.662-9.116-1.082-2.093 1.262-3.038 6.52-2.634 6.844-.003 0 3.957-2.878 7.076-2.665 6.668.681 9.417 6.355 9.185 11.718-.21 6.45-2.295 11.603-9.361 11.947-6.718-.254-9.8-3.85-10.444-10.032zm16.57-1.706c.037-4.475-2.034-7.822-5.95-8.192-3.915-.37-7.863 3.382-7.59 7.943.275 4.576 2.079 8.431 6.827 8.41 5.106-.023 6.687-4.976 6.713-8.16zM7365.831-2471c.409 2.747.402 9.845.066 11.942-1.029 6.429-3.532 9.369-7.722 10.333-4.069.935-9.79-.106-11.044-5.482l3.406-.063c1.84 3.633 6.495 2.662 9.116 1.082 2.093-1.262 3.038-6.52 2.634-6.843.003 0-3.957 2.877-7.076 2.664-6.668-.681-9.417-6.355-9.185-11.718.21-6.45 2.295-11.603 9.361-11.947 6.718.254 9.8 3.85 10.444 10.032zm-16.57 1.705c-.037 4.475 2.034 7.822 5.95 8.192 3.915.37 7.863-3.382 7.59-7.943-.275-4.576-2.08-8.431-6.827-8.41-5.106.023-6.687 4.976-6.713 8.16z"/></g></g><path d="M9.149 59.872c-1.583-3.472-1.757-9.405 2.97-10.208 3.563-.458 5.012 1.199 5.3 3.742.143.743.562.789.695-.058.205-2.61 2.788-4.133 4.807-3.75 5.526.945 5.204 7.028 3.398 11.155-2.73 5.48-5.6 8.938-8.245 14.452-3.038-5.74-6.507-10.405-8.925-15.333zM44.437 28.861c7.144-.474 10.868 5.628 11.595 10.437.433.764.67.548.837-.043.35-6.174 5.875-11.22 10.992-10.53 8.328.109 13.39 9.376 11.967 17.219-1.739 9.582-6.9 15.351-10.808 21.293-4.421 6.152-10.373 15.04-12.29 19.317 0 0-6.048-9.205-13.917-20.03-5.262-7.238-9.473-15.082-9.865-21.835-.448-7.716 2.719-14.632 11.489-15.828zM155.97 28.861c7.143-.474 10.868 5.628 11.595 10.437.433.764.67.548.837-.043.349-6.174 5.874-11.22 10.992-10.53 8.328.109 13.39 9.376 11.967 17.219-1.739 9.582-6.9 15.351-10.808 21.293-4.422 6.152-10.373 15.04-12.29 19.317 0 0-6.049-9.205-13.918-20.03-5.261-7.238-9.473-15.082-9.865-21.835-.448-7.716 2.72-14.632 11.49-15.828zM155.97 127.755c7.143-.474 10.868 5.627 11.595 10.436.433.764.67.549.837-.042.349-6.174 5.874-11.22 10.992-10.53 8.328.108 13.39 9.375 11.967 17.219-1.739 9.581-6.9 15.35-10.808 21.293-4.422 6.152-10.373 15.04-12.29 19.317 0 0-6.049-9.205-13.918-20.03-5.261-7.239-9.473-15.082-9.865-21.835-.448-7.716 2.72-14.632 11.49-15.828zM44.437 127.755c7.144-.474 10.868 5.627 11.595 10.436.433.764.67.549.837-.042.35-6.174 5.875-11.22 10.992-10.53 8.328.108 13.39 9.375 11.967 17.219-1.739 9.581-6.9 15.35-10.808 21.293-4.421 6.152-10.373 15.04-12.29 19.317 0 0-6.048-9.205-13.917-20.03-5.262-7.239-9.473-15.082-9.865-21.835-.448-7.716 2.719-14.632 11.489-15.828zM44.437 283.847c7.144.474 10.868-5.628 11.595-10.437.433-.763.67-.548.837.043.35 6.174 5.875 11.22 10.992 10.53 8.328-.108 13.39-9.376 11.967-17.219-1.739-9.581-6.9-15.351-10.808-21.293-4.421-6.152-10.373-15.04-12.29-19.317 0 0-6.048 9.205-13.917 20.03-5.262 7.238-9.473 15.082-9.865 21.835-.448 7.716 2.719 14.632 11.489 15.828zM155.97 283.847c7.143.474 10.868-5.628 11.595-10.437.433-.763.67-.548.837.043.349 6.174 5.874 11.22 10.992 10.53 8.328-.108 13.39-9.376 11.967-17.219-1.739-9.581-6.9-15.351-10.808-21.293-4.422-6.152-10.373-15.04-12.29-19.317 0 0-6.049 9.205-13.918 20.03-5.261 7.238-9.473 15.082-9.865 21.835-.448 7.716 2.72 14.632 11.49 15.828zM197.964 250.73c-1.583 3.472-1.757 9.405 2.971 10.208 3.562.458 5.012-1.198 5.3-3.742.142-.743.562-.788.695.058.204 2.61 2.787 4.133 4.806 3.75 5.527-.945 5.204-7.028 3.399-11.155-2.731-5.48-5.601-8.938-8.245-14.452-3.039 5.741-6.508 10.405-8.926 15.333z" fill="#d40000"/></svg>