<svg xmlns="http://www.w3.org/2000/svg" width="224.225" height="312.808"><g transform="translate(-7150.344 2747.31)"><rect ry="10.63" rx="10.63" width="223.228" height="311.811" x="7150.843" y="-2746.811" fill="#fff" stroke="#000" stroke-width=".997"/><path d="M7159.083-2710.81c-.409-2.748-.402-9.846-.066-11.943 1.029-6.429 3.532-9.369 7.722-10.333 4.069-.935 9.79.106 11.044 5.482l-3.406.063c-1.84-3.633-6.496-2.662-9.116-1.082-2.093 1.262-3.038 6.52-2.634 6.844-.003 0 3.957-2.878 7.076-2.665 6.668.681 9.417 6.355 9.185 11.718-.21 6.45-2.295 11.603-9.361 11.947-6.718-.254-9.8-3.85-10.444-10.032zm16.57-1.706c.037-4.475-2.034-7.822-5.95-8.192-3.915-.37-7.863 3.382-7.59 7.943.275 4.576 2.079 8.431 6.827 8.41 5.106-.023 6.687-4.976 6.713-8.16zM7365.831-2471c.409 2.747.402 9.845.066 11.942-1.029 6.429-3.532 9.369-7.722 10.333-4.069.935-9.79-.106-11.044-5.482l3.406-.063c1.84 3.633 6.495 2.662 9.116 1.082 2.093-1.262 3.038-6.52 2.634-6.843.003 0-3.957 2.877-7.076 2.664-6.668-.681-9.417-6.355-9.185-11.718.21-6.45 2.295-11.603 9.361-11.947 6.718.254 9.8 3.85 10.444 10.032zm-16.57 1.705c-.037 4.475 2.034 7.822 5.95 8.192 3.915.37 7.863-3.382 7.59-7.943-.275-4.576-2.08-8.431-6.827-8.41-5.106.023-6.687 4.976-6.713 8.16z"/></g><path d="M54.346 69.059c.015-2.026-1.587-2.065-1.569-.586-.134 7.428-6.416 11.086-10.98 10.219-7.036-1.338-9.282-8.323-9.215-12.436.207-12.696 12.988-22.058 24.52-38.334 8.45 14.69 22.397 26.23 23.223 37.585 1.098 15.098-18.009 20.73-20.737 3.133-.176-1.243-1.64-1.801-1.526-.065.415 4.823-.175 6.831 5.266 18.72H49.106c3.15-5.555 5.025-12.375 5.24-18.236zM165.879 69.059c.015-2.026-1.587-2.065-1.569-.586-.134 7.428-6.416 11.086-10.98 10.219-7.037-1.338-9.282-8.323-9.215-12.436.207-12.696 12.988-22.058 24.52-38.334 8.45 14.69 22.397 26.23 23.223 37.585 1.098 15.098-18.009 20.73-20.737 3.133-.176-1.243-1.64-1.801-1.526-.065.414 4.823-.175 6.831 5.266 18.72h-14.222c3.15-5.555 5.025-12.375 5.24-18.236zM54.357 145.076c.015 2.026-1.587 2.065-1.569.586-.134-7.428-6.416-11.086-10.98-10.219-7.037 1.338-9.282 8.323-9.215 12.436.207 12.696 12.988 22.058 24.52 38.334 8.45-14.69 22.397-26.23 23.223-37.585 1.098-15.098-18.009-20.73-20.737-3.133-.176 1.243-1.64 1.801-1.526.065.414-4.823-.175-6.831 5.266-18.72H49.117c3.15 5.556 5.025 12.375 5.24 18.236zM165.89 145.076c.014 2.026-1.587 2.065-1.57.586-.133-7.428-6.416-11.086-10.98-10.219-7.036 1.338-9.282 8.323-9.214 12.436.207 12.696 12.987 22.058 24.52 38.334 8.45-14.69 22.397-26.23 23.223-37.585 1.097-15.098-18.01-20.73-20.737-3.133-.176 1.243-1.64 1.801-1.526.065.414-4.823-.175-6.831 5.265-18.72H160.65c3.15 5.556 5.025 12.375 5.24 18.236zM165.89 243.675c.014 2.026-1.587 2.064-1.57.586-.133-7.429-6.416-11.087-10.98-10.219-7.036 1.338-9.282 8.322-9.214 12.436.207 12.696 12.987 22.058 24.52 38.334 8.45-14.69 22.397-26.23 23.223-37.586 1.097-15.098-18.01-20.73-20.737-3.132-.176 1.243-1.64 1.8-1.526.065.414-4.823-.175-6.832 5.265-18.72H160.65c3.15 5.555 5.025 12.375 5.24 18.236zM54.357 243.675c.015 2.026-1.587 2.064-1.569.586-.134-7.429-6.416-11.087-10.98-10.219-7.037 1.338-9.282 8.322-9.215 12.436.207 12.696 12.988 22.058 24.52 38.334 8.45-14.69 22.397-26.23 23.223-37.586 1.098-15.098-18.009-20.73-20.737-3.132-.176 1.243-1.64 1.8-1.526.065.414-4.823-.175-6.832 5.266-18.72H49.117c3.15 5.555 5.025 12.375 5.24 18.236zM17.394 68.928c.01-.871-.895-.464-1.018-.19-1.163 1.986-2.865 2.448-4.548 1.732-1.667-.71-2.604-2.28-2.454-4.522.31-3.438 3.036-7.2 4.355-9.327a69.037 69.037 0 0 0 4.077-7.154c1.697 3.364 2.559 4.321 4.405 7.392 1.626 2.704 3.893 5.353 4.068 8.622 0 2.485-1.046 4.832-3.4 5.26-1.331.242-2.578-.442-3.504-2.037-.281-.407-.848-.195-.839.362.165 2.093.956 3.983 2.83 6.211h-6.887c1.41-1.576 2.848-3.703 2.915-6.349zM206.21 241.674c.01.871-.896.465-1.019.19-1.163-1.985-2.864-2.447-4.548-1.732-1.667.71-2.604 2.28-2.453 4.523.31 3.437 3.035 7.2 4.355 9.326a69.038 69.038 0 0 1 4.076 7.154c1.697-3.363 2.559-4.32 4.405-7.392 1.626-2.704 3.893-5.353 4.068-8.622 0-2.485-1.046-4.832-3.4-5.26-1.33-.241-2.578.442-3.503 2.037-.282.407-.849.195-.84-.361.166-2.094.956-3.984 2.83-6.212h-6.887c1.41 1.576 2.849 3.704 2.915 6.349z"/></svg>