<svg xmlns="http://www.w3.org/2000/svg" width="224.218" height="312.801"><g transform="translate(-6034.206 2435.495)"><rect y="-2435" x="6034.701" height="311.811" width="223.228" rx="10.63" ry="10.63" fill="#fff" stroke="#000" stroke-width=".99" stroke-miterlimit="3.8"/></g><path d="M12.543 47.005c2.133-11.09 4.41-19.41 10.38-28.447H10.79v3.89H7.563v-7.331h17.754l2.189 3.44c-6.342 6.798-12.148 28.769-11.12 28.448zM211.087 265.796c-2.132 11.09-4.409 19.41-10.38 28.447h12.135v-3.89h3.225v7.331h-17.754l-2.188-3.44c6.341-6.798 12.148-28.769 11.119-28.448zM155.62 87.62c2.879-5.776 4.976-11.702 5.348-18.038.341-2.332-1.075-2.37-1.288-.728-4.077 15.592-25.763 11.37-25.017-3.297.605-11.895 12.419-14.454 18.582-10.564 2.433 1.432 2.296.574.968-.912-9.155-10.212-3.61-23.362 8.76-23.603 13.38.794 16.852 14.87 8.645 23.149-1.02.994-3.283 4.191.123 1.956 8.287-5.888 19.787.443 19.553 9.52-.433 16.74-20.84 17.988-25.203 4.006-.42-1.55-1.63-2.328-1.295.305.605 4.766 1.856 11.953 5.437 18.205zM155.62 187.868c2.879-5.776 4.976-11.701 5.348-18.037.341-2.332-1.075-2.371-1.288-.729-4.077 15.593-25.763 11.37-25.017-3.297.605-11.894 12.419-14.453 18.582-10.564 2.433 1.433 2.296.575.968-.912-9.155-10.211-3.61-23.362 8.76-23.602 13.38.793 16.852 14.87 8.645 23.148-1.02.995-3.283 4.191.123 1.956 8.287-5.888 19.787.443 19.553 9.521-.433 16.739-20.84 17.987-25.203 4.006-.42-1.55-1.63-2.329-1.295.304.605 4.767 1.856 11.954 5.437 18.206zM54.087 187.868c2.879-5.776 4.976-11.701 5.348-18.037.342-2.332-1.075-2.371-1.288-.729-4.077 15.593-25.763 11.37-25.017-3.297.605-11.894 12.42-14.453 18.582-10.564 2.434 1.433 2.296.575.968-.912-9.155-10.211-3.61-23.362 8.761-23.602 13.38.793 16.851 14.87 8.644 23.148-1.02.995-3.283 4.191.123 1.956 8.287-5.888 19.788.443 19.553 9.521-.433 16.739-20.84 17.987-25.203 4.006-.42-1.55-1.63-2.329-1.295.304.605 4.767 1.856 11.954 5.437 18.206zM104.52 137.744c2.88-5.776 4.977-11.701 5.349-18.038.341-2.331-1.075-2.37-1.288-.728-4.077 15.593-25.763 11.37-25.017-3.297.605-11.895 12.42-14.454 18.582-10.564 2.434 1.433 2.296.574.968-.912-9.155-10.211-3.61-23.362 8.761-23.602 13.38.793 16.851 14.87 8.644 23.148-1.02.994-3.283 4.191.123 1.956 8.287-5.888 19.788.443 19.553 9.52-.433 16.74-20.84 17.988-25.203 4.007-.42-1.55-1.63-2.329-1.295.304.605 4.767 1.856 11.953 5.437 18.206zM54.087 87.62c2.879-5.776 4.976-11.702 5.348-18.038.342-2.332-1.075-2.37-1.288-.728-4.077 15.592-25.763 11.37-25.017-3.297.605-11.895 12.42-14.454 18.582-10.564 2.434 1.432 2.296.574.968-.912-9.155-10.212-3.61-23.362 8.761-23.603 13.38.794 16.851 14.87 8.644 23.149-1.02.994-3.283 4.191.123 1.956 8.287-5.888 19.788.443 19.553 9.52-.433 16.74-20.84 17.988-25.203 4.006-.42-1.55-1.63-2.328-1.295.305.605 4.766 1.856 11.953 5.437 18.205zM170.322 229.325c-2.88 5.776-4.976 11.701-5.348 18.038-.342 2.331 1.074 2.37 1.288.728 4.076-15.593 25.762-11.37 25.017 3.297-.605 11.895-12.42 14.454-18.583 10.564-2.433-1.432-2.296-.574-.967.912 9.154 10.212 3.61 23.362-8.762 23.603-13.38-.794-16.85-14.87-8.644-23.149 1.02-.994 3.284-4.191-.123-1.956-8.287 5.888-19.787-.443-19.553-9.52.433-16.74 20.84-17.988 25.204-4.007.42 1.55 1.629 2.329 1.295-.304-.605-4.767-1.857-11.953-5.438-18.206zM68.789 229.325c-2.88 5.776-4.976 11.701-5.348 18.038-.342 2.331 1.074 2.37 1.288.728 4.076-15.593 25.763-11.37 25.017 3.297-.605 11.895-12.42 14.454-18.582 10.564-2.434-1.432-2.296-.574-.968.912 9.155 10.212 3.61 23.362-8.761 23.603-13.38-.794-16.852-14.87-8.645-23.149 1.02-.994 3.284-4.191-.123-1.956-8.286 5.888-19.787-.443-19.552-9.52.432-16.74 20.839-17.988 25.203-4.007.42 1.55 1.629 2.329 1.295-.304-.605-4.767-1.857-11.953-5.438-18.206zM13.657 76.882c1.192-2.445 2.352-4.72 2.984-7.4.42-2.528-.438-1.589-.925.068-.721 2.297-2.723 3.343-4.58 3.369-3.371.045-5.053-2.605-4.948-5.454-.368-2.999 2.671-5.12 4.962-4.957 1.722.123 3.224 1.052 4.133 1.775.596.315 1.234.455.345-.358-1.678-1.833-3.077-2.965-3.046-5.711.029-2.579 2.233-5.268 5.155-5.184 3.652.105 5.312 2.89 5.303 5.48-.01 1.889-.953 3.627-2.411 4.703-.944.766-.68 1.34.398.615 1.035-.892 2.267-1.283 3.544-1.31 3.49-.055 4.855 2.962 4.656 5.764-.188 2.626-2.423 5.329-5.37 5.023-2.63-.302-4.012-2.51-4.805-4.777-.262-.695-.676-.883-.664.153.608 5.057 2.492 8.204 2.505 8.201zM210.561 238.886c-1.192 2.445-2.352 4.72-2.984 7.4-.42 2.528.438 1.589.925-.068.722-2.297 2.723-3.343 4.58-3.369 3.371-.045 5.053 2.605 4.948 5.454.368 2.999-2.67 5.12-4.961 4.957-1.723-.123-3.224-1.052-4.133-1.775-.597-.315-1.234-.455-.345.358 1.677 1.833 3.076 2.965 3.046 5.711-.03 2.579-2.234 5.268-5.156 5.184-3.651-.105-5.312-2.89-5.303-5.48.01-1.889.954-3.627 2.411-4.703.945-.766.68-1.34-.397-.615-1.035.892-2.267 1.283-3.545 1.31-3.49.055-4.855-2.962-4.655-5.764.187-2.626 2.423-5.329 5.369-5.023 2.63.302 4.013 2.51 4.805 4.777.262.695.676.883.664-.153-.607-5.057-2.491-8.204-2.505-8.201z"/></svg>