<svg xmlns="http://www.w3.org/2000/svg" width="224.218" height="312.801"><g transform="translate(-6034.206 2435.495)"><rect ry="10.63" rx="10.63" width="223.228" height="311.811" x="6034.701" y="-2435" fill="#fff" stroke="#000" stroke-width=".99" stroke-miterlimit="3.8"/><g fill="#d40000"><path d="M6067.71-2376.21c9.921-9.682 16.437-20.238 22.668-30.39 5.464 11.17 13.306 20.943 21.786 30.39-9.073 9.368-16.105 19.386-21.759 29.917-6.268-10.795-12.866-20.571-22.694-29.917zM6067.71-2275.962c9.921-9.682 16.437-20.237 22.668-30.389 5.464 11.17 13.306 20.942 21.786 30.389-9.073 9.369-16.105 19.386-21.759 29.918-6.268-10.796-12.866-20.572-22.694-29.918zM6067.71-2177.363c9.921-9.682 16.437-20.238 22.668-30.39 5.464 11.17 13.306 20.943 21.786 30.39-9.073 9.368-16.105 19.386-21.759 29.917-6.268-10.795-12.866-20.571-22.694-29.917zM6124.145-2326.086c9.92-9.682 16.436-20.238 22.667-30.39 5.464 11.17 13.306 20.943 21.786 30.39-9.073 9.368-16.105 19.386-21.76 29.918-6.267-10.796-12.865-20.572-22.693-29.918zM6179.244-2376.21c9.92-9.682 16.436-20.238 22.667-30.39 5.464 11.17 13.306 20.943 21.786 30.39-9.073 9.368-16.105 19.386-21.76 29.917-6.267-10.795-12.865-20.571-22.693-29.917zM6179.244-2275.962c9.92-9.682 16.436-20.237 22.667-30.389 5.464 11.17 13.306 20.942 21.786 30.389-9.073 9.369-16.105 19.386-21.76 29.918-6.267-10.796-12.865-20.572-22.693-29.918zM6179.244-2177.363c9.92-9.682 16.436-20.238 22.667-30.39 5.464 11.17 13.306 20.943 21.786 30.39-9.073 9.368-16.105 19.386-21.76 29.917-6.267-10.795-12.865-20.571-22.693-29.917zM6231.911-2184.586c4.064-3.966 6.733-8.29 9.286-12.448 2.238 4.575 5.45 8.579 8.924 12.448-3.716 3.838-6.597 7.942-8.913 12.256-2.568-4.422-5.27-8.427-9.297-12.256zM6043.096-2370.443c4.064-3.966 6.733-8.29 9.286-12.449 2.238 4.576 5.45 8.579 8.924 12.449-3.717 3.837-6.597 7.941-8.913 12.255-2.568-4.422-5.27-8.427-9.297-12.255zM6047.043-2388.49c2.132-11.09 4.409-19.41 10.38-28.447h-12.135v3.89h-3.225v-7.331h17.754l2.188 3.44c-6.341 6.798-12.148 28.769-11.119 28.448zM6245.587-2169.7c-2.132 11.09-4.41 19.411-10.38 28.448h12.134v-3.89h3.226v7.331h-17.754l-2.189-3.44c6.342-6.798 12.148-28.769 11.12-28.448z"/></g></g></svg>