<svg xmlns="http://www.w3.org/2000/svg" width="224.218" height="312.801"><g transform="translate(-6034.206 2435.495)"><rect ry="10.63" rx="10.63" width="223.228" height="311.811" x="6034.701" y="-2435" fill="#fff" stroke="#000" stroke-width=".99" stroke-miterlimit="3.8"/><g fill="#d40000"><path d="M6047.043-2388.49c2.132-11.09 4.409-19.41 10.38-28.447h-12.135v3.89h-3.225v-7.331h17.754l2.188 3.44c-6.341 6.798-12.148 28.769-11.119 28.448zM6245.587-2169.7c-2.132 11.09-4.41 19.411-10.38 28.448h12.134v-3.89h3.226v7.331h-17.754l-2.189-3.44c6.342-6.798 12.148-28.769 11.12-28.448z"/></g></g><path d="M9.323 62.455c-1.583-3.472-1.757-9.405 2.971-10.208 3.562-.458 5.012 1.198 5.3 3.742.142.743.562.789.695-.058.204-2.61 2.787-4.133 4.806-3.75 5.527.945 5.204 7.028 3.399 11.155-2.731 5.48-5.601 8.938-8.245 14.452-3.039-5.74-6.508-10.405-8.926-15.333zM43.682 30.302c7.144-.474 10.868 5.628 11.595 10.437.434.764.67.548.837-.043.35-6.174 5.875-11.22 10.993-10.53 8.328.109 13.39 9.376 11.966 17.219-1.738 9.582-6.9 15.351-10.808 21.293-4.421 6.152-10.372 15.04-12.29 19.317 0 0-6.048-9.205-13.917-20.03-5.262-7.238-9.473-15.082-9.865-21.835-.448-7.716 2.72-14.632 11.489-15.828zM155.215 30.302c7.144-.474 10.868 5.628 11.595 10.437.433.764.67.548.837-.043.35-6.174 5.875-11.22 10.993-10.53 8.328.109 13.389 9.376 11.966 17.219-1.739 9.582-6.9 15.351-10.808 21.293-4.421 6.152-10.373 15.04-12.29 19.317 0 0-6.048-9.205-13.917-20.03-5.262-7.238-9.473-15.082-9.865-21.835-.448-7.716 2.719-14.632 11.489-15.828zM100.116 80.426c7.144-.474 10.868 5.628 11.595 10.437.434.764.67.549.837-.042.35-6.174 5.875-11.22 10.993-10.53 8.328.108 13.39 9.375 11.966 17.218-1.738 9.582-6.9 15.351-10.808 21.293-4.421 6.153-10.372 15.04-12.29 19.317 0 0-6.048-9.204-13.917-20.03-5.262-7.238-9.473-15.082-9.865-21.835-.448-7.715 2.72-14.632 11.489-15.827zM43.682 130.55c7.144-.474 10.868 5.628 11.595 10.437.434.764.67.549.837-.042.35-6.174 5.875-11.22 10.993-10.53 8.328.108 13.39 9.375 11.966 17.218-1.738 9.582-6.9 15.352-10.808 21.294-4.421 6.152-10.372 15.04-12.29 19.316 0 0-6.048-9.204-13.917-20.03-5.262-7.238-9.473-15.082-9.865-21.835-.448-7.715 2.72-14.631 11.489-15.827zM155.215 130.55c7.144-.474 10.868 5.628 11.595 10.437.433.764.67.549.837-.042.35-6.174 5.875-11.22 10.993-10.53 8.328.108 13.389 9.375 11.966 17.218-1.739 9.582-6.9 15.352-10.808 21.294-4.421 6.152-10.373 15.04-12.29 19.316 0 0-6.048-9.204-13.917-20.03-5.262-7.238-9.473-15.082-9.865-21.835-.448-7.715 2.719-14.631 11.489-15.827zM198.138 253.313c-1.583 3.472-1.757 9.405 2.971 10.208 3.562.458 5.012-1.198 5.3-3.742.142-.743.562-.788.695.058.204 2.61 2.787 4.133 4.806 3.75 5.527-.945 5.204-7.028 3.399-11.155-2.731-5.48-5.6-8.938-8.245-14.452-3.038 5.74-6.507 10.405-8.926 15.333zM155.215 286.643c7.144.474 10.868-5.628 11.595-10.437.433-.764.67-.548.837.043.35 6.174 5.875 11.22 10.993 10.53 8.328-.109 13.389-9.376 11.966-17.22-1.739-9.58-6.9-15.35-10.808-21.292-4.421-6.153-10.373-15.04-12.29-19.317 0 0-6.048 9.205-13.917 20.03-5.262 7.238-9.473 15.082-9.865 21.835-.448 7.715 2.719 14.632 11.489 15.828zM43.682 286.643c7.144.474 10.868-5.628 11.595-10.437.434-.764.67-.548.837.043.35 6.174 5.875 11.22 10.993 10.53 8.328-.109 13.39-9.376 11.966-17.22-1.738-9.58-6.9-15.35-10.808-21.292-4.421-6.153-10.372-15.04-12.29-19.317 0 0-6.048 9.205-13.917 20.03-5.262 7.238-9.473 15.082-9.865 21.835-.448 7.715 2.72 14.632 11.489 15.828z" fill="#d40000"/></svg>