<svg xmlns="http://www.w3.org/2000/svg" width="224.218" height="312.801"><g transform="translate(-6034.206 2435.495)"><rect ry="10.63" rx="10.63" width="223.228" height="311.811" x="6034.701" y="-2435" fill="#fff" stroke="#000" stroke-width=".99" stroke-miterlimit="3.8"/><path d="M6047.043-2388.49c2.132-11.09 4.409-19.41 10.38-28.447h-12.135v3.89h-3.225v-7.331h17.754l2.188 3.44c-6.341 6.798-12.148 28.769-11.119 28.448zM6245.587-2169.7c-2.132 11.09-4.41 19.411-10.38 28.448h12.134v-3.89h3.226v7.331h-17.754l-2.189-3.44c6.342-6.798 12.148-28.769 11.12-28.448z"/></g><path d="M53.591 70.5c.015-2.026-1.587-2.065-1.568-.586-.135 7.428-6.417 11.086-10.981 10.219-7.036-1.338-9.282-8.323-9.215-12.436.208-12.696 12.988-22.058 24.52-38.334 8.45 14.69 22.398 26.23 23.223 37.585 1.098 15.098-18.008 20.73-20.736 3.133-.176-1.243-1.64-1.801-1.527-.065.415 4.823-.174 6.831 5.266 18.72H48.351c3.15-5.555 5.026-12.375 5.24-18.236zM165.124 70.5c.015-2.026-1.587-2.065-1.569-.586-.134 7.428-6.416 11.086-10.98 10.219-7.036-1.338-9.282-8.323-9.215-12.436.207-12.696 12.988-22.058 24.52-38.334 8.45 14.69 22.398 26.23 23.223 37.585 1.098 15.098-18.009 20.73-20.737 3.133-.176-1.243-1.64-1.801-1.526-.065.415 4.823-.175 6.831 5.266 18.72h-14.222c3.15-5.555 5.026-12.375 5.24-18.236zM110.025 120.624c.015-2.026-1.587-2.065-1.568-.586-.135 7.429-6.417 11.086-10.981 10.219-7.036-1.338-9.282-8.322-9.215-12.436.207-12.696 12.988-22.058 24.52-38.334 8.45 14.69 22.398 26.23 23.223 37.585 1.098 15.099-18.009 20.73-20.737 3.133-.176-1.243-1.64-1.8-1.526-.065.415 4.823-.175 6.832 5.266 18.72h-14.222c3.15-5.555 5.026-12.375 5.24-18.236zM165.124 170.748c.015-2.026-1.587-2.064-1.569-.586-.134 7.429-6.416 11.087-10.98 10.219-7.036-1.338-9.282-8.322-9.215-12.436.207-12.696 12.988-22.058 24.52-38.334 8.45 14.69 22.398 26.23 23.223 37.586 1.098 15.098-18.009 20.73-20.737 3.132-.176-1.243-1.64-1.8-1.526-.065.415 4.823-.175 6.832 5.266 18.72h-14.222c3.15-5.555 5.026-12.375 5.24-18.236zM53.591 170.748c.015-2.026-1.587-2.064-1.568-.586-.135 7.429-6.417 11.087-10.981 10.219-7.036-1.338-9.282-8.322-9.215-12.436.208-12.696 12.988-22.058 24.52-38.334 8.45 14.69 22.398 26.23 23.223 37.586 1.098 15.098-18.008 20.73-20.736 3.132-.176-1.243-1.64-1.8-1.527-.065.415 4.823-.174 6.832 5.266 18.72H48.351c3.15-5.555 5.026-12.375 5.24-18.236zM165.135 246.47c.015 2.027-1.587 2.065-1.569.587-.134-7.429-6.416-11.087-10.98-10.22-7.036 1.339-9.282 8.323-9.215 12.436.207 12.697 12.988 22.059 24.52 38.335 8.45-14.69 22.397-26.23 23.223-37.586 1.098-15.098-18.009-20.73-20.737-3.133-.176 1.243-1.64 1.802-1.526.065.415-4.822-.175-6.83 5.266-18.719h-14.222c3.15 5.555 5.025 12.375 5.24 18.236zM53.602 246.47c.015 2.027-1.587 2.065-1.569.587-.134-7.429-6.416-11.087-10.98-10.22-7.036 1.339-9.282 8.323-9.215 12.436.207 12.697 12.988 22.059 24.52 38.335 8.45-14.69 22.398-26.23 23.223-37.586 1.098-15.098-18.009-20.73-20.737-3.133-.176 1.243-1.64 1.802-1.526.065.415-4.822-.175-6.83 5.266-18.719H48.362c3.15 5.555 5.026 12.375 5.24 18.236zM17.568 71.511c.01-.871-.895-.464-1.018-.19-1.163 1.986-2.864 2.448-4.547 1.732-1.668-.71-2.605-2.28-2.454-4.522.31-3.438 3.035-7.2 4.355-9.327a69.036 69.036 0 0 0 4.076-7.154c1.698 3.364 2.56 4.32 4.406 7.392 1.626 2.704 3.892 5.353 4.067 8.622 0 2.485-1.046 4.832-3.4 5.26-1.33.241-2.578-.442-3.503-2.037-.282-.407-.849-.195-.84.362.166 2.093.956 3.983 2.83 6.211h-6.887c1.41-1.576 2.849-3.703 2.915-6.349zM206.384 244.257c.01.871-.896.464-1.018.19-1.163-1.986-2.865-2.448-4.548-1.732-1.667.71-2.604 2.28-2.454 4.522.31 3.438 3.035 7.2 4.355 9.327a69.037 69.037 0 0 1 4.077 7.154c1.697-3.363 2.558-4.32 4.405-7.392 1.626-2.704 3.892-5.353 4.067-8.622 0-2.485-1.046-4.832-3.4-5.26-1.33-.241-2.578.442-3.503 2.037-.282.407-.849.195-.84-.362.166-2.093.956-3.983 2.83-6.211h-6.887c1.41 1.576 2.849 3.703 2.916 6.349z"/></svg>