<svg xmlns="http://www.w3.org/2000/svg" width="224.225" height="312.808"><g transform="translate(-6257.43 2435.498)"><rect y="-2435" x="6257.929" height="311.811" width="223.228" rx="10.63" ry="10.63" fill="#fff" stroke="#000" stroke-width=".997"/></g><path d="M6.59 38.049c.16-4.376 1.77-6.019 4.944-8.31-2.53-1.795-3.598-4.436-3.382-6.687.521-5.447 4.81-8.172 9.485-8.053 4.675.118 8.704 3.763 9.018 7.722.274 3.443-.77 5.102-3.257 6.915 2.953 2.441 4.84 4.05 4.769 8.36-.072 4.31-3.806 9.44-10.315 9.597-6.509.158-11.422-5.169-11.262-9.544zm18.173.014c.279-3.962-3.288-6.635-7.313-6.677-3.923-.04-7.432 3.247-7.432 6.804 0 3.821 4.563 5.897 7.51 5.908 3.583.013 6.994-2.622 7.235-6.035zM23.475 23.89c.078-3.338-3.057-5.73-6.289-5.633-2.875.085-5.92 2.24-5.922 5.03-.003 3.49 3.462 5.233 6.417 5.299 2.68.06 5.735-2.175 5.794-4.696zM216.131 274.759c-.16 4.375-1.77 6.019-4.944 8.31 2.531 1.795 3.598 4.436 3.383 6.687-.522 5.447-4.81 8.172-9.485 8.053-4.676-.119-8.705-3.764-9.02-7.722-.273-3.443.771-5.102 3.258-6.915-2.953-2.441-4.84-4.05-4.769-8.36.072-4.31 3.806-9.44 10.315-9.597 6.509-.158 11.422 5.169 11.262 9.544zm-18.173-.014c-.279 3.962 3.289 6.635 7.314 6.676 3.922.041 7.43-3.246 7.432-6.803 0-3.821-4.564-5.897-7.511-5.908-3.583-.013-6.994 2.622-7.235 6.035zm1.288 14.173c-.077 3.338 3.057 5.73 6.289 5.633 2.875-.085 5.921-2.24 5.923-5.03.003-3.49-3.462-5.233-6.417-5.299-2.68-.06-5.736 2.175-5.795 4.696zM156.538 85.453c2.88-5.776 4.976-11.701 5.348-18.038.342-2.331-1.074-2.37-1.288-.728-4.076 15.592-25.762 11.37-25.017-3.297.605-11.895 12.42-14.454 18.582-10.564 2.434 1.432 2.297.574.968-.912-9.154-10.212-3.61-23.362 8.762-23.603 13.38.794 16.85 14.87 8.644 23.149-1.02.994-3.284 4.191.123 1.956 8.287-5.888 19.787.443 19.552 9.52-.432 16.74-20.839 17.988-25.203 4.007-.42-1.55-1.629-2.329-1.295.304.605 4.766 1.857 11.953 5.438 18.206zM156.538 185.701c2.88-5.776 4.976-11.701 5.348-18.037.342-2.332-1.074-2.371-1.288-.729-4.076 15.593-25.762 11.37-25.017-3.296.605-11.895 12.42-14.454 18.582-10.565 2.434 1.433 2.297.575.968-.912-9.154-10.211-3.61-23.361 8.762-23.602 13.38.793 16.85 14.87 8.644 23.148-1.02.995-3.284 4.191.123 1.956 8.287-5.888 19.787.443 19.552 9.521-.432 16.74-20.839 17.987-25.203 4.006-.42-1.55-1.629-2.329-1.295.304.605 4.767 1.857 11.954 5.438 18.206zM53.006 185.701c2.879-5.776 4.975-11.701 5.348-18.037.341-2.332-1.075-2.371-1.288-.729-4.077 15.593-25.763 11.37-25.018-3.296.605-11.895 12.42-14.454 18.583-10.565 2.433 1.433 2.296.575.968-.912-9.155-10.211-3.61-23.361 8.76-23.602 13.38.793 16.852 14.87 8.645 23.148-1.02.995-3.283 4.191.123 1.956 8.287-5.888 19.787.443 19.553 9.521-.433 16.74-20.84 17.987-25.203 4.006-.42-1.55-1.63-2.329-1.295.304.604 4.767 1.856 11.954 5.437 18.206zM103.189 135.577c2.879-5.776 4.976-11.701 5.348-18.038.341-2.331-1.075-2.37-1.288-.728-4.077 15.593-25.763 11.37-25.017-3.297.605-11.894 12.419-14.453 18.582-10.564 2.433 1.433 2.296.574.968-.912-9.155-10.211-3.61-23.362 8.76-23.602 13.38.793 16.852 14.87 8.645 23.148-1.02.995-3.283 4.191.123 1.956 8.287-5.888 19.787.443 19.553 9.521-.433 16.739-20.84 17.987-25.203 4.006-.42-1.55-1.63-2.329-1.295.304.605 4.767 1.856 11.953 5.437 18.206zM53.006 85.453c2.879-5.776 4.975-11.701 5.348-18.038.341-2.331-1.075-2.37-1.288-.728-4.077 15.592-25.763 11.37-25.018-3.297.605-11.895 12.42-14.454 18.583-10.564 2.433 1.432 2.296.574.968-.912-9.155-10.212-3.61-23.362 8.76-23.603 13.38.794 16.852 14.87 8.645 23.149-1.02.994-3.283 4.191.123 1.956 8.287-5.888 19.787.443 19.553 9.52-.433 16.74-20.84 17.988-25.203 4.007-.42-1.55-1.63-2.329-1.295.304.604 4.766 1.856 11.953 5.437 18.206zM171.24 227.158c-2.879 5.776-4.976 11.701-5.348 18.038-.341 2.331 1.075 2.37 1.288.728 4.077-15.592 25.763-11.37 25.017 3.297-.605 11.895-12.42 14.454-18.582 10.564-2.434-1.432-2.296-.574-.968.912 9.155 10.212 3.61 23.362-8.761 23.603-13.38-.794-16.851-14.87-8.644-23.149 1.02-.994 3.283-4.191-.123-1.956-8.287 5.888-19.788-.443-19.553-9.52.433-16.74 20.84-17.988 25.203-4.007.42 1.55 1.63 2.33 1.295-.304-.605-4.766-1.856-11.953-5.437-18.206zM117.89 177.86c-2.878 5.775-4.975 11.7-5.347 18.036-.342 2.332 1.074 2.371 1.288.73 4.076-15.594 25.762-11.371 25.017 3.296-.605 11.894-12.42 14.453-18.583 10.564-2.433-1.433-2.296-.575-.967.912 9.154 10.211 3.61 23.362-8.762 23.602-13.38-.793-16.85-14.87-8.644-23.148 1.02-.995 3.284-4.191-.123-1.956-8.287 5.888-19.787-.443-19.553-9.521.433-16.739 20.84-17.987 25.204-4.006.42 1.55 1.629 2.329 1.295-.304-.605-4.767-1.857-11.954-5.438-18.206zM67.708 227.158c-2.88 5.776-4.976 11.701-5.349 18.038-.341 2.331 1.075 2.37 1.289.728 4.076-15.592 25.762-11.37 25.017 3.297-.605 11.895-12.42 14.454-18.583 10.564-2.433-1.432-2.296-.574-.968.912 9.155 10.212 3.61 23.362-8.76 23.603-13.38-.794-16.852-14.87-8.645-23.149 1.02-.994 3.284-4.191-.123-1.956-8.287 5.888-19.787-.443-19.553-9.52.433-16.74 20.84-17.988 25.204-4.007.42 1.55 1.629 2.33 1.295-.304-.605-4.766-1.857-11.953-5.438-18.206zM13.956 77.836c1.192-2.445 2.352-4.721 2.984-7.401.42-2.528-.438-1.589-.925.068-.721 2.297-2.722 3.344-4.58 3.369-3.37.045-5.052-2.604-4.948-5.454-.368-2.999 2.671-5.12 4.962-4.957 1.722.123 3.224 1.052 4.133 1.775.596.316 1.234.455.345-.358-1.678-1.833-3.077-2.964-3.046-5.71.029-2.58 2.233-5.27 5.155-5.185 3.652.106 5.312 2.89 5.304 5.48-.01 1.89-.954 3.627-2.412 4.704-.944.766-.68 1.34.398.614 1.035-.892 2.267-1.282 3.545-1.31 3.49-.054 4.855 2.962 4.655 5.765-.188 2.625-2.423 5.328-5.37 5.022-2.63-.302-4.012-2.51-4.804-4.777-.263-.695-.676-.883-.665.153.608 5.057 2.492 8.205 2.505 8.202zM210.269 238.889c-1.192 2.445-2.352 4.72-2.984 7.4-.42 2.528.438 1.59.925-.067.721-2.298 2.722-3.344 4.58-3.37 3.37-.044 5.053 2.605 4.948 5.455.368 2.998-2.671 5.12-4.962 4.957-1.722-.123-3.224-1.052-4.133-1.776-.596-.315-1.234-.454-.345.359 1.678 1.833 3.077 2.964 3.046 5.71-.029 2.58-2.233 5.269-5.155 5.185-3.652-.106-5.312-2.89-5.303-5.481.01-1.888.953-3.626 2.41-4.703.945-.766.68-1.34-.397-.615-1.035.892-2.267 1.283-3.545 1.31-3.49.055-4.855-2.961-4.655-5.764.188-2.625 2.423-5.328 5.37-5.022 2.63.301 4.012 2.51 4.804 4.777.263.695.676.883.665-.153-.608-5.058-2.492-8.205-2.505-8.202z"/></svg>