<svg xmlns="http://www.w3.org/2000/svg" width="224.225" height="312.808"><g transform="translate(-6257.43 2435.498)"><rect ry="10.63" rx="10.63" width="223.228" height="311.811" x="6257.929" y="-2435" fill="#fff" stroke="#000" stroke-width=".997"/><g fill="#d40000"><path d="M6290.313-2378.38c9.92-9.682 16.436-20.238 22.667-30.39 5.464 11.17 13.306 20.943 21.786 30.39-9.073 9.368-16.105 19.386-21.76 29.917-6.267-10.796-12.865-20.572-22.693-29.918zM6290.313-2278.132c9.92-9.682 16.436-20.238 22.667-30.39 5.464 11.17 13.306 20.943 21.786 30.39-9.073 9.368-16.105 19.386-21.76 29.917-6.267-10.795-12.865-20.571-22.693-29.917zM6290.313-2179.534c9.92-9.681 16.436-20.237 22.667-30.389 5.464 11.17 13.306 20.943 21.786 30.39-9.073 9.368-16.105 19.386-21.76 29.917-6.267-10.796-12.865-20.572-22.693-29.918zM6346.496-2328.257c9.92-9.681 16.436-20.237 22.667-30.389 5.464 11.17 13.306 20.943 21.786 30.39-9.073 9.368-16.105 19.386-21.759 29.917-6.268-10.795-12.866-20.571-22.694-29.918zM6401.845-2378.38c9.921-9.682 16.436-20.238 22.667-30.39 5.465 11.17 13.306 20.943 21.787 30.39-9.074 9.368-16.105 19.386-21.76 29.917-6.267-10.796-12.865-20.572-22.694-29.918zM6401.845-2278.132c9.921-9.682 16.436-20.238 22.667-30.39 5.465 11.17 13.306 20.943 21.787 30.39-9.074 9.368-16.105 19.386-21.76 29.917-6.267-10.795-12.865-20.571-22.694-29.917zM6401.845-2179.534c9.921-9.681 16.436-20.237 22.667-30.389 5.465 11.17 13.306 20.943 21.787 30.39-9.074 9.368-16.105 19.386-21.76 29.917-6.267-10.796-12.865-20.572-22.694-29.918zM6346.496-2228.833c9.92-9.681 16.436-20.237 22.667-30.389 5.464 11.17 13.306 20.942 21.786 30.389-9.073 9.369-16.105 19.386-21.759 29.918-6.268-10.796-12.866-20.572-22.694-29.918zM6455.894-2183.636c4.064-3.966 6.733-8.29 9.285-12.448 2.239 4.575 5.45 8.578 8.925 12.448-3.717 3.838-6.598 7.942-8.914 12.256-2.567-4.423-5.27-8.427-9.296-12.256zM6267.079-2369.493c4.064-3.966 6.733-8.29 9.285-12.449 2.238 4.576 5.45 8.579 8.925 12.449-3.717 3.837-6.598 7.941-8.914 12.255-2.567-4.422-5.27-8.427-9.296-12.255zM6264.773-2397.45c.16-4.375 1.77-6.018 4.944-8.309-2.531-1.795-3.598-4.437-3.383-6.687.522-5.447 4.81-8.172 9.485-8.054 4.676.12 8.705 3.764 9.02 7.722.273 3.443-.771 5.103-3.258 6.915 2.953 2.442 4.84 4.05 4.769 8.36-.072 4.31-3.806 9.44-10.315 9.598-6.509.157-11.422-5.17-11.262-9.545zm18.173.015c.279-3.962-3.289-6.635-7.314-6.677-3.922-.04-7.43 3.247-7.432 6.804 0 3.82 4.564 5.896 7.511 5.907 3.583.014 6.994-2.622 7.235-6.034zm-1.288-14.173c.077-3.338-3.057-5.73-6.289-5.634-2.875.086-5.921 2.24-5.923 5.031-.003 3.49 3.462 5.232 6.417 5.298 2.68.06 5.736-2.175 5.795-4.695zM6474.314-2160.74c-.16 4.376-1.77 6.02-4.944 8.31 2.53 1.795 3.598 4.437 3.382 6.687-.521 5.447-4.81 8.172-9.485 8.054-4.675-.119-8.704-3.764-9.018-7.722-.274-3.443.77-5.103 3.257-6.915-2.953-2.442-4.84-4.05-4.769-8.36.072-4.31 3.806-9.44 10.315-9.598 6.509-.157 11.422 5.17 11.262 9.545zm-18.173-.014c-.279 3.962 3.288 6.636 7.313 6.677 3.923.04 7.432-3.246 7.432-6.804 0-3.82-4.563-5.896-7.51-5.907-3.583-.014-6.994 2.622-7.235 6.034zm1.288 14.174c-.078 3.337 3.057 5.73 6.289 5.633 2.875-.086 5.92-2.24 5.922-5.031.003-3.49-3.462-5.232-6.417-5.298-2.68-.06-5.735 2.175-5.794 4.696z"/></g></g></svg>