<svg xmlns="http://www.w3.org/2000/svg" width="224.225" height="312.808"><g transform="translate(-6257.43 2435.498)"><rect ry="10.63" rx="10.63" width="223.228" height="311.811" x="6257.929" y="-2435" fill="#fff" stroke="#000" stroke-width=".997"/><g fill="#d40000"><path d="M6264.773-2397.45c.16-4.375 1.77-6.018 4.944-8.309-2.531-1.795-3.598-4.437-3.383-6.687.522-5.447 4.81-8.172 9.485-8.054 4.676.12 8.705 3.764 9.02 7.722.273 3.443-.771 5.103-3.258 6.915 2.953 2.442 4.84 4.05 4.769 8.36-.072 4.31-3.806 9.44-10.315 9.598-6.509.157-11.422-5.17-11.262-9.545zm18.173.015c.279-3.962-3.289-6.635-7.314-6.677-3.922-.04-7.43 3.247-7.432 6.804 0 3.82 4.564 5.896 7.511 5.907 3.583.014 6.994-2.622 7.235-6.034zm-1.288-14.173c.077-3.338-3.057-5.73-6.289-5.634-2.875.086-5.921 2.24-5.923 5.031-.003 3.49 3.462 5.232 6.417 5.298 2.68.06 5.736-2.175 5.795-4.695zM6474.314-2160.74c-.16 4.376-1.77 6.02-4.944 8.31 2.53 1.795 3.598 4.437 3.382 6.687-.521 5.447-4.81 8.172-9.485 8.054-4.675-.119-8.704-3.764-9.018-7.722-.274-3.443.77-5.103 3.257-6.915-2.953-2.442-4.84-4.05-4.769-8.36.072-4.31 3.806-9.44 10.315-9.598 6.509-.157 11.422 5.17 11.262 9.545zm-18.173-.014c-.279 3.962 3.288 6.636 7.313 6.677 3.923.04 7.432-3.246 7.432-6.804 0-3.82-4.563-5.896-7.51-5.907-3.583-.014-6.994 2.622-7.235 6.034zm1.288 14.174c-.078 3.337 3.057 5.73 6.289 5.633 2.875-.086 5.92-2.24 5.922-5.031.003-3.49-3.462-5.232-6.417-5.298-2.68-.06-5.735 2.175-5.794 4.696z"/></g></g><path d="M10.08 63.408c-1.583-3.472-1.756-9.405 2.971-10.208 3.562-.458 5.012 1.199 5.3 3.742.142.743.562.789.695-.058.204-2.61 2.787-4.133 4.806-3.75 5.527.945 5.204 7.028 3.399 11.156-2.73 5.479-5.6 8.937-8.245 14.451-3.038-5.74-6.507-10.405-8.926-15.333zM45.059 28.135c7.144-.474 10.868 5.628 11.595 10.437.433.764.67.548.837-.042.35-6.175 5.875-11.22 10.992-10.53 8.328.108 13.39 9.375 11.967 17.218-1.739 9.582-6.9 15.351-10.808 21.293-4.421 6.153-10.373 15.04-12.29 19.317 0 0-6.048-9.204-13.917-20.03-5.262-7.238-9.473-15.082-9.865-21.835-.448-7.715 2.719-14.632 11.489-15.828zM154.591 28.135c7.144-.474 10.869 5.628 11.596 10.437.433.764.67.548.837-.042.349-6.175 5.874-11.22 10.992-10.53 8.328.108 13.39 9.375 11.967 17.218-1.739 9.582-6.9 15.351-10.808 21.293-4.422 6.153-10.373 15.04-12.29 19.317 0 0-6.049-9.204-13.918-20.03-5.261-7.238-9.473-15.082-9.865-21.835-.448-7.715 2.72-14.632 11.49-15.828zM99.242 78.26c7.144-.475 10.868 5.627 11.595 10.436.433.764.67.549.837-.042.35-6.174 5.875-11.22 10.993-10.53 8.328.108 13.39 9.375 11.966 17.218-1.739 9.582-6.9 15.351-10.808 21.293-4.421 6.153-10.373 15.04-12.29 19.317 0 0-6.048-9.204-13.917-20.03-5.262-7.238-9.473-15.082-9.865-21.835-.448-7.715 2.72-14.631 11.489-15.827zM45.059 128.384c7.144-.475 10.868 5.627 11.595 10.436.433.764.67.549.837-.042.35-6.174 5.875-11.22 10.992-10.53 8.328.108 13.39 9.375 11.967 17.219-1.739 9.581-6.9 15.35-10.808 21.293-4.421 6.152-10.373 15.04-12.29 19.316 0 0-6.048-9.204-13.917-20.03-5.262-7.238-9.473-15.081-9.865-21.835-.448-7.715 2.719-14.631 11.489-15.827zM154.591 128.384c7.144-.475 10.869 5.627 11.596 10.436.433.764.67.549.837-.042.349-6.174 5.874-11.22 10.992-10.53 8.328.108 13.39 9.375 11.967 17.219-1.739 9.581-6.9 15.35-10.808 21.293-4.422 6.152-10.373 15.04-12.29 19.316 0 0-6.049-9.204-13.918-20.03-5.261-7.238-9.473-15.081-9.865-21.835-.448-7.715 2.72-14.631 11.49-15.827zM154.591 284.476c7.144.474 10.869-5.628 11.596-10.437.433-.764.67-.548.837.043.349 6.174 5.874 11.22 10.992 10.53 8.328-.109 13.39-9.376 11.967-17.219-1.739-9.582-6.9-15.351-10.808-21.293-4.422-6.152-10.373-15.04-12.29-19.317 0 0-6.049 9.205-13.918 20.03-5.261 7.238-9.473 15.082-9.865 21.835-.448 7.716 2.72 14.632 11.49 15.828zM99.242 235.176c7.144.475 10.868-5.627 11.595-10.436.433-.764.67-.549.837.042.35 6.174 5.875 11.22 10.993 10.53 8.328-.108 13.39-9.375 11.966-17.218-1.739-9.582-6.9-15.351-10.808-21.293-4.421-6.153-10.373-15.04-12.29-19.317 0 0-6.048 9.204-13.917 20.03-5.262 7.238-9.473 15.082-9.865 21.835-.448 7.715 2.72 14.631 11.489 15.827zM45.059 284.476c7.144.474 10.868-5.628 11.595-10.437.433-.764.67-.548.837.043.35 6.174 5.875 11.22 10.992 10.53 8.328-.109 13.39-9.376 11.967-17.219-1.739-9.582-6.9-15.351-10.808-21.293-4.421-6.152-10.373-15.04-12.29-19.317 0 0-6.048 9.205-13.917 20.03-5.262 7.238-9.473 15.082-9.865 21.835-.448 7.716 2.719 14.632 11.489 15.828zM198.895 254.266c-1.583 3.472-1.756 9.406 2.972 10.208 3.562.459 5.011-1.198 5.3-3.742.142-.743.561-.788.694.059.205 2.609 2.787 4.132 4.807 3.75 5.526-.946 5.204-7.029 3.398-11.156-2.73-5.48-5.6-8.938-8.245-14.452-3.038 5.741-6.507 10.405-8.926 15.333z" fill="#d40000"/></svg>