<svg xmlns="http://www.w3.org/2000/svg" width="224.225" height="312.808"><g transform="translate(-6257.43 2435.498)"><rect ry="10.63" rx="10.63" width="223.228" height="311.811" x="6257.929" y="-2435" fill="#fff" stroke="#000" stroke-width=".997"/><path d="M6264.773-2397.45c.16-4.375 1.77-6.018 4.944-8.309-2.531-1.795-3.598-4.437-3.383-6.687.522-5.447 4.81-8.172 9.485-8.054 4.676.12 8.705 3.764 9.02 7.722.273 3.443-.771 5.103-3.258 6.915 2.953 2.442 4.84 4.05 4.769 8.36-.072 4.31-3.806 9.44-10.315 9.598-6.509.157-11.422-5.17-11.262-9.545zm18.173.015c.279-3.962-3.289-6.635-7.314-6.677-3.922-.04-7.43 3.247-7.432 6.804 0 3.82 4.564 5.896 7.511 5.907 3.583.014 6.994-2.622 7.235-6.034zm-1.288-14.173c.077-3.338-3.057-5.73-6.289-5.634-2.875.086-5.921 2.24-5.923 5.031-.003 3.49 3.462 5.232 6.417 5.298 2.68.06 5.736-2.175 5.795-4.695zM6474.314-2160.74c-.16 4.376-1.77 6.02-4.944 8.31 2.53 1.795 3.598 4.437 3.382 6.687-.521 5.447-4.81 8.172-9.485 8.054-4.675-.119-8.704-3.764-9.018-7.722-.274-3.443.77-5.103 3.257-6.915-2.953-2.442-4.84-4.05-4.769-8.36.072-4.31 3.806-9.44 10.315-9.598 6.509-.157 11.422 5.17 11.262 9.545zm-18.173-.014c-.279 3.962 3.288 6.636 7.313 6.677 3.923.04 7.432-3.246 7.432-6.804 0-3.82-4.563-5.896-7.51-5.907-3.583-.014-6.994 2.622-7.235 6.034zm1.288 14.174c-.078 3.337 3.057 5.73 6.289 5.633 2.875-.086 5.92-2.24 5.922-5.031.003-3.49-3.462-5.232-6.417-5.298-2.68-.06-5.735 2.175-5.794 4.696z"/></g><path d="M52.968 68.333c.015-2.026-1.587-2.065-1.569-.586-.134 7.429-6.416 11.086-10.98 10.219-7.036-1.338-9.282-8.322-9.215-12.436.207-12.696 12.988-22.058 24.52-38.334 8.45 14.69 22.397 26.23 23.223 37.585 1.098 15.098-18.009 20.73-20.737 3.133-.176-1.243-1.64-1.801-1.526-.065.415 4.823-.175 6.831 5.266 18.72H47.728c3.15-5.555 5.026-12.375 5.24-18.236zM164.5 68.333c.016-2.026-1.586-2.065-1.568-.586-.134 7.429-6.416 11.086-10.98 10.219-7.037-1.338-9.282-8.322-9.215-12.436.207-12.696 12.988-22.058 24.52-38.334 8.45 14.69 22.397 26.23 23.223 37.585 1.098 15.098-18.009 20.73-20.737 3.133-.176-1.243-1.64-1.801-1.526-.065.414 4.823-.175 6.831 5.266 18.72H159.26c3.15-5.555 5.025-12.375 5.24-18.236zM109.151 118.457c.015-2.026-1.587-2.065-1.569-.586-.134 7.429-6.416 11.086-10.98 10.219-7.036-1.338-9.282-8.322-9.215-12.436.207-12.696 12.988-22.058 24.52-38.334 8.45 14.69 22.398 26.23 23.223 37.586 1.098 15.098-18.009 20.73-20.737 3.132-.176-1.243-1.64-1.8-1.526-.065.415 4.823-.175 6.832 5.266 18.72h-14.222c3.15-5.555 5.026-12.375 5.24-18.236zM52.968 168.581c.015-2.026-1.587-2.064-1.569-.586-.134 7.429-6.416 11.087-10.98 10.219-7.036-1.338-9.282-8.322-9.215-12.435.207-12.697 12.988-22.059 24.52-38.335 8.45 14.69 22.397 26.23 23.223 37.586 1.098 15.098-18.009 20.73-20.737 3.132-.176-1.243-1.64-1.8-1.526-.065.415 4.823-.175 6.832 5.266 18.72H47.728c3.15-5.555 5.026-12.375 5.24-18.236zM164.5 168.581c.016-2.026-1.586-2.064-1.568-.586-.134 7.429-6.416 11.087-10.98 10.219-7.037-1.338-9.282-8.322-9.215-12.435.207-12.697 12.988-22.059 24.52-38.335 8.45 14.69 22.397 26.23 23.223 37.586 1.098 15.098-18.009 20.73-20.737 3.132-.176-1.243-1.64-1.8-1.526-.065.414 4.823-.175 6.832 5.266 18.72H159.26c3.15-5.555 5.025-12.375 5.24-18.236zM164.511 244.304c.015 2.026-1.586 2.064-1.568.586-.134-7.429-6.417-11.087-10.98-10.219-7.037 1.338-9.283 8.322-9.215 12.435.207 12.697 12.987 22.059 24.52 38.335 8.45-14.69 22.397-26.23 23.223-37.586 1.097-15.098-18.01-20.73-20.737-3.132-.176 1.243-1.64 1.8-1.526.065.414-4.823-.175-6.832 5.265-18.72h-14.221c3.15 5.555 5.025 12.375 5.24 18.236zM109.162 195.005c.015 2.025-1.587 2.064-1.569.585-.134-7.428-6.416-11.086-10.98-10.218-7.036 1.337-9.282 8.322-9.215 12.435.207 12.696 12.988 22.059 24.52 38.335 8.45-14.691 22.397-26.23 23.223-37.586 1.098-15.098-18.009-20.73-20.737-3.133-.176 1.243-1.64 1.801-1.526.065.415-4.822-.175-6.831 5.266-18.72h-14.222c3.15 5.556 5.025 12.375 5.24 18.237zM52.979 244.304c.015 2.026-1.587 2.064-1.569.586-.134-7.429-6.416-11.087-10.98-10.219-7.037 1.338-9.282 8.322-9.215 12.435.207 12.697 12.988 22.059 24.52 38.335 8.45-14.69 22.397-26.23 23.223-37.586 1.098-15.098-18.009-20.73-20.737-3.132-.176 1.243-1.64 1.8-1.526.065.414-4.823-.175-6.832 5.266-18.72H47.739c3.15 5.555 5.025 12.375 5.24 18.236zM18.325 72.465c.01-.872-.895-.465-1.017-.19-1.164 1.985-2.865 2.447-4.548 1.731-1.668-.71-2.604-2.28-2.454-4.522.31-3.438 3.035-7.2 4.355-9.326a69.037 69.037 0 0 0 4.077-7.154c1.697 3.363 2.558 4.32 4.405 7.391 1.626 2.704 3.892 5.353 4.067 8.622 0 2.485-1.046 4.832-3.4 5.26-1.33.242-2.578-.442-3.503-2.037-.282-.407-.849-.195-.84.362.166 2.093.956 3.983 2.83 6.211H15.41c1.41-1.575 2.849-3.703 2.915-6.348zM207.14 245.21c.01.872-.895.465-1.017.19-1.163-1.985-2.865-2.447-4.548-1.731-1.667.709-2.604 2.28-2.454 4.522.31 3.438 3.036 7.2 4.355 9.326a69.037 69.037 0 0 1 4.077 7.154c1.697-3.363 2.558-4.32 4.405-7.391 1.626-2.705 3.892-5.353 4.067-8.623 0-2.485-1.046-4.832-3.399-5.26-1.331-.241-2.579.442-3.504 2.038-.282.406-.848.194-.839-.362.165-2.094.955-3.983 2.83-6.212h-6.888c1.41 1.576 2.85 3.704 2.916 6.35z"/></svg>