<svg xmlns="http://www.w3.org/2000/svg" width="224.225" height="312.808"><g transform="translate(-6480.66 2435.498)"><rect y="-2435" x="6481.158" height="311.811" width="223.228" rx="10.63" ry="10.63" fill="#fff" stroke="#000" stroke-width=".997"/></g><path d="M8.725 39.849l3.026-.942c1.142 2.995 3.45 3.879 5.892 3.689 4.382-.34 5.837-5.149 6.165-9.4-1.707 1.775-4.274 2.676-6.46 2.588-6.982-.37-8.769-5.854-8.834-11.601-.194-4.846 1.848-8.356 5.348-9.963 1.853-.817 6.095-.817 7.96.148 4.282 2.216 5.867 6.049 5.58 15.191.004 7.524-1.625 16.287-9.838 16.475-4.748.644-8.353-2.98-8.84-6.185zm11.887-8.244c1.425-.885 2.229-1.716 2.868-2.962.524-1.022.701-1.553.552-3.67-.385-5.456-3.3-8.548-7.525-7.934-2.356.343-3.643 1.639-4.382 4.048-1.366 4.45.365 9.658 3.608 10.857 1.463.541 3.715.385 4.88-.339zM214.76 272.959l-3.026.942c-1.142-2.996-3.45-3.88-5.892-3.69-4.382.342-5.836 5.15-6.165 9.4 1.708-1.774 4.274-2.675 6.46-2.587 6.982.369 8.77 5.854 8.834 11.6.194 4.847-1.847 8.357-5.348 9.964-1.852.817-6.095.817-7.96-.148-4.281-2.217-5.866-6.05-5.579-15.191-.004-7.524 1.625-16.288 9.838-16.475 4.747-.645 8.352 2.98 8.839 6.185zm-11.887 8.244c-1.424.885-2.229 1.716-2.867 2.962-.524 1.022-.702 1.553-.552 3.67.385 5.455 3.299 8.548 7.524 7.933 2.357-.342 3.643-1.638 4.383-4.047 1.365-4.45-.366-9.658-3.609-10.857-1.463-.541-3.714-.385-4.879.339zM155.532 151.822c2.88-5.776 4.976-11.701 5.348-18.038.342-2.331-1.074-2.37-1.288-.728-4.076 15.593-25.762 11.37-25.017-3.297.605-11.895 12.42-14.454 18.583-10.564 2.433 1.433 2.296.574.967-.912-9.154-10.211-3.61-23.362 8.762-23.602 13.38.793 16.85 14.87 8.644 23.148-1.02.994-3.284 4.191.123 1.956 8.287-5.888 19.787.443 19.553 9.52-.433 16.74-20.84 17.988-25.204 4.007-.42-1.55-1.629-2.329-1.295.304.605 4.767 1.857 11.953 5.438 18.206zM104.712 178.974c2.88-5.775 4.976-11.7 5.348-18.037.342-2.332-1.074-2.37-1.288-.728-4.076 15.592-25.762 11.37-25.017-3.297.605-11.895 12.42-14.454 18.582-10.564 2.434 1.432 2.297.574.968-.912-9.154-10.212-3.61-23.362 8.762-23.603 13.38.794 16.85 14.87 8.644 23.149-1.02.994-3.284 4.191.123 1.956 8.287-5.888 19.787.443 19.552 9.52-.432 16.74-20.839 17.988-25.203 4.006-.42-1.55-1.629-2.328-1.295.305.605 4.766 1.857 11.953 5.438 18.205zM54 151.822c2.879-5.776 4.975-11.701 5.348-18.038.341-2.331-1.075-2.37-1.288-.728-4.077 15.593-25.763 11.37-25.018-3.297.605-11.895 12.42-14.454 18.583-10.564 2.433 1.433 2.296.574.968-.912-9.155-10.211-3.61-23.362 8.76-23.602 13.38.793 16.852 14.87 8.645 23.148-1.02.994-3.283 4.191.123 1.956 8.287-5.888 19.787.443 19.553 9.52-.433 16.74-20.84 17.988-25.203 4.007-.42-1.55-1.63-2.329-1.295.304.604 4.767 1.856 11.953 5.437 18.206zM155.532 86.491c2.88-5.775 4.976-11.7 5.348-18.037.342-2.332-1.074-2.371-1.288-.729-4.076 15.593-25.762 11.37-25.017-3.296.605-11.895 12.42-14.454 18.583-10.565 2.433 1.433 2.296.575.967-.912-9.154-10.211-3.61-23.361 8.762-23.602 13.38.793 16.85 14.87 8.644 23.148-1.02.995-3.284 4.192.123 1.957 8.287-5.888 19.787.442 19.553 9.52-.433 16.74-20.84 17.988-25.204 4.006-.42-1.55-1.629-2.329-1.295.304.605 4.767 1.857 11.954 5.438 18.206zM54 86.491c2.879-5.775 4.975-11.7 5.348-18.037.341-2.332-1.075-2.371-1.288-.729-4.077 15.593-25.763 11.37-25.018-3.296.605-11.895 12.42-14.454 18.583-10.565 2.433 1.433 2.296.575.968-.912-9.155-10.211-3.61-23.361 8.76-23.602 13.38.793 16.852 14.87 8.645 23.148-1.02.995-3.283 4.192.123 1.957 8.287-5.888 19.787.442 19.553 9.52-.433 16.74-20.84 17.988-25.203 4.006-.42-1.55-1.63-2.329-1.295.304.604 4.767 1.856 11.954 5.437 18.206zM68.702 226.683c-2.88 5.775-4.976 11.7-5.349 18.037-.341 2.332 1.075 2.371 1.289.729 4.076-15.593 25.762-11.37 25.017 3.296-.605 11.895-12.42 14.454-18.583 10.565-2.433-1.433-2.296-.575-.968.912 9.155 10.211 3.61 23.361-8.76 23.602-13.38-.793-16.852-14.87-8.645-23.148 1.02-.995 3.284-4.192-.123-1.957-8.287 5.888-19.787-.442-19.553-9.52.433-16.74 20.84-17.988 25.204-4.006.42 1.55 1.629 2.329 1.295-.304-.605-4.767-1.857-11.954-5.438-18.206zM170.234 226.683c-2.879 5.775-4.976 11.7-5.348 18.037-.341 2.332 1.075 2.371 1.288.729 4.077-15.593 25.763-11.37 25.017 3.296-.605 11.895-12.419 14.454-18.582 10.565-2.433-1.433-2.296-.575-.968.912 9.155 10.211 3.61 23.361-8.76 23.602-13.38-.793-16.852-14.87-8.645-23.148 1.02-.995 3.283-4.192-.123-1.957-8.287 5.888-19.787-.442-19.553-9.52.433-16.74 20.84-17.988 25.203-4.006.42 1.55 1.63 2.329 1.295-.304-.605-4.767-1.856-11.954-5.437-18.206zM170.234 161.577c-2.879 5.776-4.976 11.701-5.348 18.038-.341 2.331 1.075 2.37 1.288.728 4.077-15.592 25.763-11.37 25.017 3.297-.605 11.895-12.419 14.454-18.582 10.564-2.433-1.432-2.296-.574-.968.912 9.155 10.212 3.61 23.362-8.76 23.603-13.38-.794-16.852-14.87-8.645-23.149 1.02-.994 3.283-4.191-.123-1.956-8.287 5.888-19.787-.443-19.553-9.52.433-16.74 20.84-17.988 25.203-4.007.42 1.55 1.63 2.33 1.295-.304-.605-4.766-1.856-11.953-5.437-18.206zM68.702 161.577c-2.88 5.776-4.976 11.701-5.349 18.038-.341 2.331 1.075 2.37 1.289.728 4.076-15.592 25.762-11.37 25.017 3.297-.605 11.895-12.42 14.454-18.583 10.564-2.433-1.432-2.296-.574-.968.912 9.155 10.212 3.61 23.362-8.76 23.603-13.38-.794-16.852-14.87-8.645-23.149 1.02-.994 3.284-4.191-.123-1.956-8.287 5.888-19.787-.443-19.553-9.52.433-16.74 20.84-17.988 25.204-4.007.42 1.55 1.629 2.33 1.295-.304-.605-4.766-1.857-11.953-5.438-18.206zM13.66 73.25c1.192-2.444 2.352-4.72 2.985-7.4.419-2.528-.439-1.589-.926.068-.72 2.297-2.722 3.344-4.58 3.369-3.37.045-5.052-2.604-4.948-5.454-.368-2.999 2.671-5.12 4.962-4.957 1.722.123 3.224 1.052 4.133 1.775.596.316 1.234.455.345-.358-1.678-1.833-3.077-2.964-3.046-5.711.029-2.579 2.233-5.268 5.155-5.184 3.652.106 5.312 2.89 5.304 5.48-.01 1.89-.954 3.627-2.412 4.703-.944.767-.68 1.34.398.615 1.035-.892 2.267-1.282 3.545-1.31 3.49-.054 4.855 2.962 4.655 5.764-.188 2.626-2.423 5.329-5.37 5.023-2.63-.302-4.012-2.51-4.804-4.777-.263-.695-.676-.883-.665.153.608 5.057 2.492 8.204 2.506 8.202zM210.565 237.924c-1.192 2.445-2.352 4.72-2.985 7.4-.419 2.528.439 1.589.926-.068.72-2.297 2.722-3.344 4.58-3.369 3.37-.045 5.052 2.605 4.948 5.454.368 2.999-2.671 5.12-4.962 4.957-1.722-.123-3.224-1.052-4.133-1.775-.596-.315-1.234-.455-.345.358 1.678 1.833 3.077 2.964 3.046 5.711-.029 2.579-2.233 5.268-5.155 5.184-3.652-.106-5.312-2.89-5.304-5.48.01-1.889.954-3.627 2.412-4.703.944-.766.68-1.34-.398-.615-1.035.892-2.267 1.282-3.545 1.31-3.49.055-4.855-2.962-4.655-5.764.188-2.626 2.423-5.329 5.37-5.023 2.63.302 4.012 2.51 4.804 4.777.263.695.676.883.665-.153-.608-5.057-2.492-8.204-2.506-8.201z"/></svg>