<svg xmlns="http://www.w3.org/2000/svg" width="224.225" height="312.808"><g transform="translate(-6480.66 2435.498)"><rect ry="10.63" rx="10.63" width="223.228" height="311.811" x="6481.158" y="-2435" fill="#fff" stroke="#000" stroke-width=".997"/><g fill="#d40000"><path d="M6513.833-2377.342c9.92-9.682 16.436-20.238 22.667-30.39 5.464 11.17 13.306 20.943 21.786 30.39-9.073 9.368-16.105 19.386-21.76 29.917-6.267-10.795-12.865-20.571-22.693-29.917zM6513.833-2312.012c9.92-9.681 16.436-20.237 22.667-30.389 5.464 11.17 13.306 20.943 21.786 30.39-9.073 9.368-16.105 19.386-21.76 29.917-6.267-10.796-12.865-20.572-22.693-29.918zM6513.833-2245.115c9.92-9.681 16.436-20.237 22.667-30.389 5.464 11.17 13.306 20.943 21.786 30.39-9.073 9.368-16.105 19.386-21.76 29.917-6.267-10.796-12.865-20.572-22.693-29.918zM6513.833-2180.01c9.92-9.68 16.436-20.237 22.667-30.388 5.464 11.17 13.306 20.942 21.786 30.389-9.073 9.368-16.105 19.386-21.76 29.917-6.267-10.795-12.865-20.571-22.693-29.917zM6570.277-2278.874c9.92-9.682 16.436-20.238 22.667-30.39 5.464 11.17 13.306 20.943 21.786 30.39-9.073 9.368-16.105 19.386-21.759 29.917-6.267-10.795-12.866-20.571-22.694-29.917zM6625.365-2377.342c9.921-9.682 16.436-20.238 22.667-30.39 5.465 11.17 13.306 20.943 21.787 30.39-9.074 9.368-16.106 19.386-21.76 29.917-6.267-10.795-12.865-20.571-22.694-29.917zM6625.365-2312.012c9.921-9.681 16.436-20.237 22.667-30.389 5.465 11.17 13.306 20.943 21.787 30.39-9.074 9.368-16.106 19.386-21.76 29.917-6.267-10.796-12.865-20.572-22.694-29.918zM6625.365-2245.115c9.921-9.681 16.436-20.237 22.667-30.389 5.465 11.17 13.306 20.943 21.787 30.39-9.074 9.368-16.106 19.386-21.76 29.917-6.267-10.796-12.865-20.572-22.694-29.918zM6625.365-2180.01c9.921-9.68 16.436-20.237 22.667-30.388 5.465 11.17 13.306 20.942 21.787 30.389-9.074 9.368-16.106 19.386-21.76 29.917-6.267-10.795-12.865-20.571-22.694-29.917zM6678.124-2188.22c4.064-3.967 6.733-8.29 9.285-12.45 2.239 4.576 5.45 8.58 8.925 12.45-3.717 3.837-6.598 7.94-8.914 12.255-2.567-4.423-5.27-8.427-9.296-12.256zM6489.309-2374.078c4.064-3.966 6.732-8.29 9.285-12.45 2.238 4.577 5.45 8.58 8.925 12.45-3.717 3.837-6.598 7.941-8.914 12.255-2.567-4.422-5.27-8.427-9.296-12.255zM6489.433-2395.65l3.027-.941c1.142 2.995 3.45 3.878 5.892 3.689 4.382-.341 5.836-5.149 6.165-9.4-1.708 1.774-4.274 2.676-6.46 2.588-6.982-.37-8.77-5.855-8.834-11.601-.194-4.847 1.847-8.356 5.348-9.964 1.852-.816 6.095-.816 7.96.149 4.282 2.216 5.866 6.048 5.579 15.19.004 7.525-1.625 16.288-9.838 16.476-4.747.644-8.352-2.98-8.839-6.185zm11.888-8.243c1.425-.886 2.229-1.716 2.867-2.962.525-1.023.702-1.553.553-3.67-.385-5.456-3.3-8.548-7.525-7.934-2.357.343-3.643 1.638-4.383 4.048-1.365 4.45.366 9.657 3.609 10.857 1.463.54 3.715.384 4.879-.34zM6695.47-2162.54l-3.027.942c-1.142-2.995-3.45-3.878-5.892-3.689-4.382.341-5.836 5.149-6.165 9.4 1.707-1.774 4.274-2.676 6.46-2.588 6.982.37 8.769 5.855 8.834 11.601.194 4.847-1.848 8.356-5.348 9.964-1.852.816-6.095.816-7.96-.149-4.282-2.216-5.867-6.048-5.58-15.19-.004-7.525 1.625-16.288 9.838-16.476 4.748-.644 8.353 2.98 8.84 6.185zm-11.888 8.244c-1.425.886-2.229 1.716-2.868 2.962-.524 1.023-.701 1.553-.552 3.67.385 5.456 3.3 8.548 7.525 7.934 2.356-.343 3.643-1.638 4.382-4.048 1.366-4.449-.365-9.657-3.608-10.857-1.463-.54-3.715-.384-4.879.34z"/></g></g></svg>