<svg xmlns="http://www.w3.org/2000/svg" width="224.225" height="312.808"><g transform="translate(-6480.66 2435.498)"><rect ry="10.63" rx="10.63" width="223.228" height="311.811" x="6481.158" y="-2435" fill="#fff" stroke="#000" stroke-width=".997"/><g fill="#d40000"><path d="M6489.433-2395.65l3.027-.941c1.142 2.995 3.45 3.878 5.892 3.689 4.382-.341 5.836-5.149 6.165-9.4-1.708 1.774-4.274 2.676-6.46 2.588-6.982-.37-8.77-5.855-8.834-11.601-.194-4.847 1.847-8.356 5.348-9.964 1.852-.816 6.095-.816 7.96.149 4.282 2.216 5.866 6.048 5.579 15.19.004 7.525-1.625 16.288-9.838 16.476-4.747.644-8.352-2.98-8.839-6.185zm11.888-8.243c1.425-.886 2.229-1.716 2.867-2.962.525-1.023.702-1.553.553-3.67-.385-5.456-3.3-8.548-7.525-7.934-2.357.343-3.643 1.638-4.383 4.048-1.365 4.45.366 9.657 3.609 10.857 1.463.54 3.715.384 4.879-.34zM6695.47-2162.54l-3.027.942c-1.142-2.995-3.45-3.878-5.892-3.689-4.382.341-5.836 5.149-6.165 9.4 1.707-1.774 4.274-2.676 6.46-2.588 6.982.37 8.769 5.855 8.834 11.601.194 4.847-1.848 8.356-5.348 9.964-1.852.816-6.095.816-7.96-.149-4.282-2.216-5.867-6.048-5.58-15.19-.004-7.525 1.625-16.288 9.838-16.476 4.748-.644 8.353 2.98 8.84 6.185zm-11.888 8.244c-1.425.886-2.229 1.716-2.868 2.962-.524 1.023-.701 1.553-.552 3.67.385 5.456 3.3 8.548 7.525 7.934 2.356-.343 3.643-1.638 4.382-4.048 1.366-4.449-.365-9.657-3.608-10.857-1.463-.54-3.715-.384-4.879.34z"/></g></g><path d="M9.082 58.823c-1.583-3.472-1.757-9.405 2.97-10.208 3.563-.458 5.013 1.199 5.3 3.742.143.743.562.789.696-.058.204-2.61 2.787-4.133 4.806-3.75 5.527.945 5.204 7.028 3.398 11.155-2.73 5.48-5.6 8.938-8.245 14.452-3.038-5.74-6.507-10.405-8.925-15.333zM45.35 29.174c7.144-.475 10.869 5.627 11.595 10.436.434.764.671.549.837-.042.35-6.174 5.875-11.22 10.993-10.53 8.328.108 13.39 9.375 11.966 17.219-1.738 9.581-6.9 15.35-10.808 21.293-4.42 6.152-10.372 15.04-12.29 19.316 0 0-6.048-9.204-13.917-20.03-5.262-7.238-9.473-15.081-9.865-21.834-.448-7.716 2.72-14.632 11.49-15.828zM154.883 29.174c7.144-.475 10.868 5.627 11.595 10.436.433.764.67.549.837-.042.35-6.174 5.875-11.22 10.993-10.53 8.328.108 13.389 9.375 11.966 17.219-1.739 9.581-6.9 15.35-10.808 21.293-4.421 6.152-10.373 15.04-12.29 19.316 0 0-6.048-9.204-13.917-20.03-5.262-7.238-9.473-15.081-9.865-21.834-.448-7.716 2.719-14.632 11.489-15.828zM154.883 94.504c7.144-.474 10.868 5.628 11.595 10.437.433.764.67.549.837-.042.35-6.175 5.875-11.22 10.993-10.53 8.328.108 13.389 9.375 11.966 17.218-1.739 9.582-6.9 15.351-10.808 21.293-4.421 6.153-10.373 15.04-12.29 19.317 0 0-6.048-9.204-13.917-20.03-5.262-7.238-9.473-15.082-9.865-21.835-.448-7.715 2.719-14.632 11.489-15.828zM100.063 127.657c7.144-.474 10.868 5.628 11.595 10.437.433.764.67.548.837-.043.35-6.174 5.875-11.22 10.993-10.53 8.328.108 13.389 9.376 11.966 17.219-1.739 9.582-6.9 15.351-10.808 21.293-4.421 6.152-10.373 15.04-12.29 19.317 0 0-6.048-9.205-13.917-20.03-5.262-7.238-9.473-15.082-9.865-21.835-.448-7.716 2.719-14.632 11.489-15.828zM45.35 94.504c7.144-.474 10.869 5.628 11.595 10.437.434.764.671.549.837-.042.35-6.175 5.875-11.22 10.993-10.53 8.328.108 13.39 9.375 11.966 17.218-1.738 9.582-6.9 15.351-10.808 21.293-4.42 6.153-10.372 15.04-12.29 19.317 0 0-6.048-9.204-13.917-20.03-5.262-7.238-9.473-15.082-9.865-21.835-.448-7.715 2.72-14.632 11.49-15.828zM154.883 218.895c7.144.474 10.868-5.628 11.595-10.437.433-.764.67-.548.837.043.35 6.174 5.875 11.22 10.993 10.53 8.328-.109 13.389-9.376 11.966-17.22-1.739-9.58-6.9-15.35-10.808-21.292-4.421-6.153-10.373-15.04-12.29-19.317 0 0-6.048 9.205-13.917 20.03-5.262 7.238-9.473 15.082-9.865 21.835-.448 7.715 2.719 14.632 11.489 15.828zM154.883 284c7.144.475 10.868-5.627 11.595-10.436.433-.764.67-.549.837.042.35 6.174 5.875 11.22 10.993 10.53 8.328-.108 13.389-9.375 11.966-17.219-1.739-9.581-6.9-15.35-10.808-21.293-4.421-6.152-10.373-15.04-12.29-19.317 0 0-6.048 9.205-13.917 20.03-5.262 7.239-9.473 15.082-9.865 21.835-.448 7.716 2.719 14.632 11.489 15.828zM45.35 284c7.144.475 10.869-5.627 11.595-10.436.434-.764.671-.549.837.042.35 6.174 5.875 11.22 10.993 10.53 8.328-.108 13.39-9.375 11.966-17.219-1.738-9.581-6.9-15.35-10.808-21.293-4.42-6.152-10.372-15.04-12.29-19.317 0 0-6.048 9.205-13.917 20.03-5.262 7.239-9.473 15.082-9.865 21.835-.448 7.716 2.72 14.632 11.49 15.828zM45.35 218.895c7.144.474 10.869-5.628 11.595-10.437.434-.764.671-.548.837.043.35 6.174 5.875 11.22 10.993 10.53 8.328-.109 13.39-9.376 11.966-17.22-1.738-9.58-6.9-15.35-10.808-21.292-4.42-6.153-10.372-15.04-12.29-19.317 0 0-6.048 9.205-13.917 20.03-5.262 7.238-9.473 15.082-9.865 21.835-.448 7.715 2.72 14.632 11.49 15.828zM197.897 249.681c-1.583 3.472-1.757 9.405 2.971 10.208 3.562.458 5.012-1.198 5.3-3.742.142-.743.562-.788.695.058.204 2.61 2.787 4.133 4.806 3.75 5.527-.945 5.204-7.028 3.399-11.155-2.731-5.48-5.601-8.938-8.245-14.452-3.039 5.741-6.508 10.405-8.926 15.333z" fill="#d40000"/></svg>