<svg xmlns="http://www.w3.org/2000/svg" width="224.225" height="312.808"><g transform="translate(-6480.66 2435.498)"><rect ry="10.63" rx="10.63" width="223.228" height="311.811" x="6481.158" y="-2435" fill="#fff" stroke="#000" stroke-width=".997"/><path d="M6489.433-2395.65l3.027-.941c1.142 2.995 3.45 3.878 5.892 3.689 4.382-.341 5.836-5.149 6.165-9.4-1.708 1.774-4.274 2.676-6.46 2.588-6.982-.37-8.77-5.855-8.834-11.601-.194-4.847 1.847-8.356 5.348-9.964 1.852-.816 6.095-.816 7.96.149 4.282 2.216 5.866 6.048 5.579 15.19.004 7.525-1.625 16.288-9.838 16.476-4.747.644-8.352-2.98-8.839-6.185zm11.888-8.243c1.425-.886 2.229-1.716 2.867-2.962.525-1.023.702-1.553.553-3.67-.385-5.456-3.3-8.548-7.525-7.934-2.357.343-3.643 1.638-4.383 4.048-1.365 4.45.366 9.657 3.609 10.857 1.463.54 3.715.384 4.879-.34zM6695.47-2162.54l-3.027.942c-1.142-2.995-3.45-3.878-5.892-3.689-4.382.341-5.836 5.149-6.165 9.4 1.707-1.774 4.274-2.676 6.46-2.588 6.982.37 8.769 5.855 8.834 11.601.194 4.847-1.848 8.356-5.348 9.964-1.852.816-6.095.816-7.96-.149-4.282-2.216-5.867-6.048-5.58-15.19-.004-7.525 1.625-16.288 9.838-16.476 4.748-.644 8.353 2.98 8.84 6.185zm-11.888 8.244c-1.425.886-2.229 1.716-2.868 2.962-.524 1.023-.701 1.553-.552 3.67.385 5.456 3.3 8.548 7.525 7.934 2.356-.343 3.643-1.638 4.382-4.048 1.366-4.449-.365-9.657-3.608-10.857-1.463-.54-3.715-.384-4.879.34z"/></g><path d="M53.26 69.371c.014-2.026-1.587-2.064-1.57-.586-.134 7.429-6.416 11.087-10.98 10.22-7.036-1.339-9.282-8.323-9.215-12.436.208-12.697 12.988-22.059 24.52-38.335 8.45 14.69 22.398 26.23 23.224 37.586 1.097 15.098-18.01 20.73-20.737 3.133-.176-1.243-1.64-1.802-1.526-.065.414 4.822-.175 6.83 5.265 18.719H48.02c3.15-5.555 5.025-12.375 5.24-18.236zM164.792 69.371c.015-2.026-1.587-2.064-1.568-.586-.135 7.429-6.417 11.087-10.981 10.22-7.036-1.339-9.282-8.323-9.215-12.436.207-12.697 12.988-22.059 24.52-38.335 8.45 14.69 22.398 26.23 23.223 37.586 1.098 15.098-18.009 20.73-20.737 3.133-.176-1.243-1.64-1.802-1.526-.065.415 4.822-.175 6.83 5.266 18.719h-14.222c3.15-5.555 5.026-12.375 5.24-18.236zM164.792 134.702c.015-2.026-1.587-2.065-1.568-.586-.135 7.429-6.417 11.086-10.981 10.219-7.036-1.338-9.282-8.322-9.215-12.436.207-12.696 12.988-22.058 24.52-38.334 8.45 14.69 22.398 26.23 23.223 37.585 1.098 15.098-18.009 20.73-20.737 3.133-.176-1.243-1.64-1.801-1.526-.065.415 4.823-.175 6.832 5.266 18.72h-14.222c3.15-5.555 5.026-12.375 5.24-18.236zM53.26 134.702c.014-2.026-1.587-2.065-1.57-.586-.134 7.429-6.416 11.086-10.98 10.219-7.036-1.338-9.282-8.322-9.215-12.436.208-12.696 12.988-22.058 24.52-38.334 8.45 14.69 22.398 26.23 23.224 37.585 1.097 15.098-18.01 20.73-20.737 3.133-.176-1.243-1.64-1.801-1.526-.065.414 4.823-.175 6.832 5.265 18.72H48.02c3.15-5.555 5.025-12.375 5.24-18.236zM164.803 243.828c.015 2.026-1.587 2.065-1.569.586-.134-7.429-6.416-11.086-10.98-10.219-7.036 1.338-9.282 8.322-9.215 12.436.207 12.696 12.988 22.058 24.52 38.334 8.45-14.69 22.397-26.23 23.223-37.585 1.098-15.098-18.009-20.73-20.737-3.133-.176 1.243-1.64 1.801-1.526.065.415-4.823-.175-6.831 5.266-18.72h-14.222c3.15 5.555 5.026 12.375 5.24 18.236zM164.803 178.723c.015 2.026-1.587 2.064-1.569.586-.134-7.429-6.416-11.087-10.98-10.219-7.036 1.338-9.282 8.322-9.215 12.435.207 12.697 12.988 22.059 24.52 38.335 8.45-14.69 22.397-26.23 23.223-37.586 1.098-15.098-18.009-20.73-20.737-3.132-.176 1.243-1.64 1.8-1.526.065.415-4.823-.175-6.832 5.266-18.72h-14.222c3.15 5.555 5.026 12.375 5.24 18.236zM109.715 144.963c.015 2.026-1.587 2.065-1.57.586-.133-7.429-6.416-11.086-10.98-10.219-7.036 1.338-9.281 8.322-9.214 12.436.207 12.696 12.987 22.058 24.52 38.334 8.45-14.69 22.397-26.23 23.223-37.585 1.097-15.099-18.01-20.73-20.737-3.133-.176 1.243-1.64 1.8-1.526.065.414-4.823-.175-6.832 5.265-18.72h-14.221c3.15 5.555 5.025 12.375 5.24 18.236zM53.27 178.723c.015 2.026-1.587 2.064-1.568.586-.135-7.429-6.417-11.087-10.981-10.219-7.036 1.338-9.282 8.322-9.215 12.435.207 12.697 12.988 22.059 24.52 38.335 8.45-14.69 22.398-26.23 23.223-37.586 1.098-15.098-18.009-20.73-20.737-3.132-.176 1.243-1.64 1.8-1.526.065.415-4.823-.175-6.832 5.266-18.72H48.03c3.15 5.555 5.026 12.375 5.24 18.236zM53.27 243.828c.015 2.026-1.587 2.065-1.568.586-.135-7.429-6.417-11.086-10.981-10.219-7.036 1.338-9.282 8.322-9.215 12.436.207 12.696 12.988 22.058 24.52 38.334 8.45-14.69 22.398-26.23 23.223-37.585 1.098-15.098-18.009-20.73-20.737-3.133-.176 1.243-1.64 1.801-1.526.065.415-4.823-.175-6.831 5.266-18.72H48.03c3.15 5.555 5.026 12.375 5.24 18.236zM17.327 67.88c.01-.872-.895-.465-1.018-.19-1.163 1.985-2.865 2.447-4.548 1.73-1.667-.708-2.604-2.28-2.454-4.521.31-3.438 3.036-7.2 4.355-9.326a69.037 69.037 0 0 0 4.077-7.155c1.697 3.364 2.559 4.321 4.405 7.392 1.626 2.704 3.893 5.353 4.068 8.622 0 2.485-1.046 4.832-3.4 5.26-1.331.242-2.578-.442-3.503-2.037-.282-.407-.85-.195-.84.362.165 2.093.956 3.983 2.83 6.211h-6.887c1.41-1.576 2.848-3.703 2.915-6.349zM206.142 240.625c.01.871-.895.465-1.018.19-1.163-1.985-2.864-2.447-4.547-1.732-1.668.71-2.605 2.28-2.454 4.523.31 3.437 3.035 7.2 4.355 9.326a69.037 69.037 0 0 1 4.076 7.154c1.698-3.363 2.559-4.32 4.405-7.392 1.626-2.704 3.893-5.353 4.068-8.622 0-2.485-1.046-4.832-3.4-5.26-1.33-.241-2.578.442-3.503 2.038-.282.406-.849.194-.84-.362.166-2.094.956-3.984 2.83-6.212h-6.887c1.41 1.576 2.849 3.704 2.915 6.349z"/></svg>