<svg xmlns="http://www.w3.org/2000/svg" height="312.808" width="224.225"><g transform="translate(-6034.202 2747.31)"><rect ry="10.63" rx="10.63" width="223.228" height="311.811" x="6034.701" y="-2746.811" fill="#fff" stroke="#000" stroke-width=".997"/></g><path d="M7.734 46.564v-2.737h2.66l5.665-29.271h3.223l6.243 29.271h2.147v2.737h-7.318v-2.737h1.977l-.787-4.486h-7.386l-.57 4.486h1.977v2.737zm13.178-10.416l-3.209-15.67-3.007 15.67zM216.491 266.244v2.737h-2.66l-5.665 29.271h-3.223l-6.243-29.271h-2.147v-2.737h7.318v2.737h-1.977l.787 4.485h7.386l.57-4.485h-1.977v-2.737zm-13.178 10.416l3.209 15.67 3.007-15.67zM104.762 184.974c2.879-5.775 4.976-11.7 5.348-18.037.341-2.332-1.075-2.37-1.288-.728-4.077 15.592-25.763 11.37-25.017-3.297.605-11.895 12.419-14.454 18.582-10.564 2.433 1.432 2.296.574.968-.912-9.155-10.212-3.61-23.362 8.76-23.603 13.38.794 16.852 14.87 8.645 23.149-1.02.994-3.283 4.191.123 1.956 8.287-5.888 19.787.443 19.553 9.52-.433 16.74-20.84 17.988-25.203 4.006-.42-1.55-1.63-2.328-1.295.305.605 4.766 1.856 11.953 5.437 18.205zM13.407 75.68c1.193-2.445 2.353-4.721 2.985-7.401.419-2.528-.439-1.589-.925.068-.722 2.298-2.723 3.344-4.58 3.369-3.372.045-5.053-2.604-4.948-5.454-.368-2.998 2.67-5.12 4.961-4.957 1.723.123 3.224 1.052 4.133 1.775.597.316 1.234.455.345-.358-1.677-1.833-3.076-2.964-3.046-5.71.03-2.58 2.234-5.269 5.156-5.185 3.651.106 5.312 2.89 5.303 5.481-.01 1.888-.954 3.626-2.412 4.703-.944.766-.679 1.34.398.614 1.035-.892 2.267-1.282 3.545-1.31 3.49-.054 4.855 2.962 4.655 5.765-.187 2.625-2.423 5.328-5.369 5.022-2.63-.302-4.013-2.51-4.805-4.777-.262-.695-.676-.883-.665.153.608 5.058 2.492 8.205 2.506 8.202zM209.877 237.513c-1.192 2.445-2.353 4.72-2.985 7.4-.419 2.528.439 1.589.926-.068.72-2.297 2.722-3.343 4.58-3.369 3.37-.045 5.052 2.605 4.947 5.454.369 2.999-2.67 5.12-4.961 4.957-1.723-.123-3.224-1.052-4.133-1.775-.596-.315-1.234-.455-.345.358 1.678 1.833 3.077 2.965 3.046 5.711-.03 2.579-2.234 5.268-5.155 5.184-3.652-.105-5.312-2.89-5.304-5.48.01-1.889.954-3.627 2.412-4.703.944-.766.679-1.34-.398-.615-1.035.892-2.267 1.283-3.545 1.31-3.49.055-4.855-2.962-4.655-5.764.187-2.626 2.423-5.329 5.369-5.023 2.63.302 4.013 2.51 4.805 4.777.262.695.676.883.665-.153-.608-5.057-2.492-8.204-2.506-8.201z"/></svg>