<svg xmlns="http://www.w3.org/2000/svg" xmlns:xlink="http://www.w3.org/1999/xlink" width="223.228" height="311.811"><defs><pattern patternTransform="rotate(135.001 -142.425 -15.397) scale(.15641)" id="j" xlink:href="#a"/><pattern id="a" patternTransform="translate(-254.024 74.426)" height="110.741" width="108.618" patternUnits="userSpaceOnUse"><path d="M-1016.046 25.72l-10.764 16.121 7.177 18.006-18.658-5.255-14.907 12.39-.767-19.369-16.39-10.349 18.184-6.714 4.777-18.786 12.005 15.218z" transform="translate(1070.355 -11.764)" fill="#131f67"/><path transform="rotate(30 -588.091 2050.257)" d="M-1016.046 25.72l-10.764 16.121 7.177 18.006-18.658-5.255-14.907 12.39-.767-19.369-16.39-10.349 18.184-6.714 4.777-18.786 12.005 15.218z" fill="#131f67"/><path transform="translate(1124.664 -11.764)" d="M-1016.046 25.72l-10.764 16.121 7.177 18.006-18.658-5.255-14.907 12.39-.767-19.369-16.39-10.349 18.184-6.714 4.777-18.786 12.005 15.218z" fill="#131f67"/><path transform="rotate(30 -560.936 2151.6)" d="M-1016.046 25.72l-10.764 16.121 7.177 18.006-18.658-5.255-14.907 12.39-.767-19.369-16.39-10.349 18.184-6.714 4.777-18.786 12.005 15.218z" fill="#131f67"/></pattern><pattern patternTransform="scale(.15023) rotate(-45 922.96 6085.23)" id="b" xlink:href="#c"/><pattern patternTransform="scale(.15023) rotate(-45 -2473.244 6852.978)" id="c" xlink:href="#d"/><pattern patternTransform="scale(.15023) rotate(-45 227.657 -29.145)" id="d" xlink:href="#e"/><pattern patternTransform="scale(.15023) rotate(-45 730.249 525.163)" id="e" xlink:href="#f"/><pattern patternTransform="scale(.15023) rotate(-45 47.044 -1811.87)" id="f" xlink:href="#g"/><pattern patternTransform="matrix(.0652 -.0652 .0652 .0652 194.547 -74.73)" id="g" xlink:href="#h"/><pattern patternTransform="scale(.15565) rotate(-45 -238.81 2209.061)" id="h" xlink:href="#i"/><pattern id="i" patternTransform="translate(-254.024 74.426)" height="110.741" width="108.618" patternUnits="userSpaceOnUse"><path d="M-1016.046 25.72l-10.764 16.121 7.177 18.006-18.658-5.255-14.907 12.39-.767-19.369-16.39-10.349 18.184-6.714 4.777-18.786 12.005 15.218z" transform="translate(1070.355 -11.764)" fill="#d40000"/><path transform="rotate(30 -588.091 2050.257)" d="M-1016.046 25.72l-10.764 16.121 7.177 18.006-18.658-5.255-14.907 12.39-.767-19.369-16.39-10.349 18.184-6.714 4.777-18.786 12.005 15.218z" fill="#d40000"/><path transform="translate(1124.664 -11.764)" d="M-1016.046 25.72l-10.764 16.121 7.177 18.006-18.658-5.255-14.907 12.39-.767-19.369-16.39-10.349 18.184-6.714 4.777-18.786 12.005 15.218z" fill="#d40000"/><path transform="rotate(30 -560.936 2151.6)" d="M-1016.046 25.72l-10.764 16.121 7.177 18.006-18.658-5.255-14.907 12.39-.767-19.369-16.39-10.349 18.184-6.714 4.777-18.786 12.005 15.218z" fill="#d40000"/></pattern></defs><g transform="translate(259.614 -501.316)"><rect width="222.228" height="310.811" x="-259.114" y="501.816" ry="10.63" rx="10.63" fill="#fff" stroke="#000"/><rect width="197.052" height="286.644" x="-246.526" y="513.9" ry="0" fill="none" stroke="#131f67" stroke-width="4.952" stroke-linecap="round"/><path fill="url(#j)" stroke="#131f67" stroke-linecap="round" d="M-242.139 517.769h188.277v278.906h-188.277z"/></g></svg>