<svg xmlns="http://www.w3.org/2000/svg" width="224.225" height="312.808"><title>Vectorized Playing Cards 1.0</title><rect y="-2435" x="6927.614" height="311.811" width="223.228" rx="10.63" ry="10.63" fill="#fff" stroke="#000" stroke-width=".997" transform="translate(-6927.116 2435.498)"/><path d="M31.461 288.51l-.51-263.005 163.134.307.204 262.595zM89.943 69.358c-5.834-1.59-5.693 4.205-1.42 4.42 4.786.413 6.835-7.745 4.55-10.96 0 0-1.99 6.145-3.13 6.54zM52.086 102.12l-7.007 3.126-.028 5.23c2.922-2.323 5.206-5.158 7.035-8.356zM99.91 259.278c-1.38-.696-3.041-2.191-2.786-2.454.126-.13.873.106 1.551.411 5.475 2.307 9.726 2.158 16.255-.211.494-.18 1.232.762.957 1.28-2.891 4.276-12.248 2.756-15.977.974zm-2.887-6.418c-1.257-1.889.41-.457.97.079 4.051 3.767 9.54 5.043 14.252 1.493.219-.243.248-.469.183-.638-.133-.348-.136.023-2.15.722-4.523 1.693-8.334.302-12.05-2.542-1.531-1.181-2.243-1.761-2.243-2.07 0-.284.286-.46.801-.371.319.055 1.21.24 1.86.293 1.132.093 1.045.044 2.205-.49 2.478-1.145 4.76-1.562 7.35-1.098.6.107 1.354.305 1.455.271.58-.193-.275-.957-2.47-2.697-.431-.343-.969-.636-1.147-.933-.276-.461.025-.584.338-.58.902.01 4.957 3.4 6.347 5.412.422.612.715.677.716 1.313-.081.661-.187 1.294.528 2.22.513.663 1.01 1.73 1.014 1.782.005.058-.102.392-.572.082-.214-.04-.318-.268-.71-.212-.34.05-.896.318-1.505.606-5.68 3.653-10.912 1.87-15.172-2.642zm12.445-.255c.114.011-.392-2.089-.964-2.708-1.128-1.222-2.848-1.444-3.888-.194-.585.703-1.227 2.663-1.227 2.663s.91.268 1.165.268c.036-.44.039-1.667.943-2.387.445-.35 1.404-.34 1.777-.048.742.363 1.055 1.836 1.065 2.409.405.126 1.339.012 1.129-.003zm-6.868-3.026c-.801.357-1.842.598-2.081 1.134-.315.707.797.92 1.376 1.159.8.386.818.245 1.077-.372.162-.385.375-.888.579-1.35.598-1.156.001-.996-.951-.571zm8.667 2.01c.461-.46.548-.765.137-1.289-.187-.236-.718-.478-1.296-.672-.742-.25-1.066-.553-.6.452l.665 1.436c.342.688.642.505 1.094.073zM35.47 202.536c.282 0 3.078-.917 4.073-1.359.986-.377 1.104-.366.712-.912-.147-.205-.266-.781-.195-1.413l.075-.882c-1.723-.35-4.296.604-5.182 1.81-.629.77-.565 2.483.517 2.756zm-.35 4.3c.523.523.668.542 2.239-.041.55-.368 1.701-.828 2.508-.881 1.893-.504 1.894-.305 1.358-1.517-.247-.558-.328-1.02-.25-1.535.09-.61.164-.695-.181-.802-.905-.284-5.117 1.291-5.872 2.517-.531.862-.46 1.601.197 2.259zm98.916 37.21c-.275.41-.752 1.14-.953 1.633-.346.851-.136 1.014.002 2.684.08.968.101 2.47.104 3.278.005 1.547-.017 2.027.456 2.118.416.08.607-.233.807-1.039.1-.402.34-.823.412-1.079.297-1.74.847-4.644 2.101-5.865.174-.144.684-.234 1.61-.246 1.133-.014 1.495-.046 1.846-.309 1.983-1.735.42-3.977-1.35-4.134-2.048-.178-4.872 2.651-5.035 2.959zm7.871-.727c.126 1.995-1.863 3.355-3.885 2.893-.82-.206-1.066-.019-1.615 1.15-1.192 3.21-1.664 6.427-1.98 8.533-.137 1.894-.832 6.824-.329 8.395 5.763 7.122 11.83 14.475 18.474 21.805l39.511.055.239-46.516-11.476-10.853.022-17.206c-12.284 5.788-24.531 11.656-36.792 17.495 2.672 8.569-6.387 10.365-8.374 4.622-1.719 1.577-3.129 10.084-2.495 10.504 0 0 .228.308.609-.37.627-1.113 1.446-1.934 2.323-2.477 2.554-1.581 5.593-.801 5.768 1.97zm-31.448-.868c-1.939-1.541-.9-3.892.711-4.597.854-.373 2.223-.322 3.732.21 1.324.608 2.116.523 3.473.355.9-.1.734 1.786-.207 2.273-.663.343-2.184.18-4.033-.872-3.19-1.817-4.59.537-2.615 2.663 1.095 1.172-.78.233-1.06-.032zm-65.676-28.173c1.705-1.098.997-3.033-.592-3.357-2.14.045-2.683 2.5-1.153 3.35 0 .298-.76.054-1.172-.254-.638-.477-.056-2.344-.65-2.419-.452.008-4.87 1.57-5.346 1.883-1.985 1.126-.122 3.669 1.03 3.378 2.393-.604 5.645-1.141 7.883-2.581zm-9.875-3.633c.041 1.132.358 1.635 1.102 1.646 1.554-.27 3.001-1.011 4.452-1.481 1.134-.371 1.594-.79.73-1.498-.262-.3-.494-.73-.367-1.546.297-.934.07-.981-.327-1.027-.395-.045-1.297.333-3.611 1.222-1.218.467-1.453.67-1.768 1.34-.141.513-.23.827-.21 1.344zM47.79 225.26c.268-.315.862-2.288.862-2.776-.12-.813-.725-.997-1.26-.472-.65.582-.475 1.461-.861 2.135-.135.235-.277.56-.238.692.21.709 1.083.84 1.497.42zm5.068-10.745c19.8-21.088 32.067-50.268 10.609-90.514-2.407-1.025-3.15 2.887-3.38 3.047l-2.742 2.389c14.526 25.047 12.003 53.86-5.757 74.347l.02 1.3c.041 2.861.865 2.737 2.069 1.399 1.274-1.345.421-.25-.1.304-.448.475-1.163 1.423-1.353 1.67.233 1.716 1.314 4.915.634 6.058zm-1.314-6.337c-.204-.569-.42-1.87-.531-2.872-.068-.652-.096-1.268-.13-1.905-.21-1.268-.727-4.176-1.147-4.817-.453-.691-1.56-1.197-2.795-1.276-1.055-.068-1.143-.049-1.368.295-.386.59-.121 3.568.271 4.66.442 1.28.183 1.977-.176 3.246-.125.46-.17.491.056.523.988-.069 1.317-1.28 1.708-.92.131.133-.211 1.127-.672 2.132-.487 1.06-.632 2.52-.053 4.317.323 1.006.186 1.324-.01 1.93-.131.406-.36 1.649-.367 2.885.461 1.55.23 2.244-.042 2.757-.589 1.315-1.044 3.098-.727 4.099.139.44.502.063.769-.69.415-1.485.9-1.815 2.12-1.816.889 0 .973.312 1.267-.086.667-.902 2.296-4.1 2.327-4.99.63-2.273.662-4.225-.5-7.472zm9.469 14.928c.538-.205 1.366-1.343 1.367-1.735.001-.432-3.32-3.66-4.703-4.552-.626-.403-.924-.117-2.031 1.373-.984 1.325-1.113 1.336-.93 1.591.22.307 3.603 2.506 4.726 3.13.389.217 1.047.392 1.571.193zm6.222-5.747c-.495-.38-4.468-4.785-5.648-5.004-.448-.083-1.885 1.554-1.885 1.925 0 .255 2.48 2.78 4.238 4.315.503.439 1.058.797 1.233.797.56-.286 1.991-1.443 2.062-2.033zm4.222-4.155c0-.261-.438-.798-1.508-1.85-2.725-2.675-4.243-3.9-4.721-3.896-.522.173-1.465 1.76-1.522 2.313.178.332 4.736 4.466 5.326 4.867.729.703 2.323-.936 2.425-1.434zm4.275-4.269c.116-.393-.112-.728-.689-1.281-.409-.392-1.862-1.815-3.23-3.162-2.866-2.824-2.872-2.827-3.793-1.507-.948 1.359-.943 1.37 1.851 4.095 2.98 2.907 3.677 3.496 4.139 3.496.707-.326 1.477-.87 1.722-1.64zm-31.948-2.55c-.499-.149-.958-.06-1.35.253-2.112 1.795.884 4.106 2.116 2.665.82-.81.786-2.549-.766-2.917zm36.334-1.879c0-.3-.615-.975-2.745-3.008-5.27-5.031-5.033-4.84-5.617-4.527-.365.195-1.073 1.547-1.073 2.05 0 .376.507.898 4.413 4.546 2.29 2.138 2.968 2.678 3.362 2.678.625-.309 1.633-.978 1.66-1.739zm-36.2.19c1.035-.45 1.228-1.57.641-2.456-1.125-.992-2.69-.172-2.716 1.107.194 1.198 1.21 1.704 2.075 1.349zm40.531-4.414c0-.601-9.024-9.04-9.666-9.04-.436 0-.749.353-1.158 1.31-.356.828-.32 1.319.128 1.749.652.627 2.391 2.23 4.045 3.728.978.886 2.103 1.943 2.5 2.35.927.953 1.949 1.69 2.34 1.69.56-.326 1.336-.768 1.811-1.787zm-41.004-1.088c.009-.34-.078-.685-.32-.943-.62-.66-1.772-.312-2.06.561-.264 2.055 2.296 2.146 2.38.382zm6.684-65.681l1.765-5.397 5.392-.138.756-5.365 5.55-.799.09-5.542 5.309-.725-.329-5.935 4.924-1.166-.245-5.495 4.474-1.372-.179-4.783.77-.602-1.936-1.968-1.666.541-.03 4.916-4.469 1.438.471 5.44-4.516 1.03-.057 5.913-5.189.582-.37 5.219-5.062.996-.754 5.111-4.912.334-1.5 4.493-3.244.038v3.007zm58.673 96.546c-.17-.405.273-.344 1.044.143.807.51 1.981.934 2.816.936.349 0 1.593-.222 2.765-.494 1.401-.513 2.644-.544 4.1-.23 1.08.146 2.17.264 2.42.262.723.1 1.948-.792 2.276-1.353.89-1.522.678 1.243.682 1.559.016 1.416.193 3.044-.821 2.287-.6-.31-1.648-.586-2.485-.027-.843.562-1.54.682-2.526.088-.81-.32-1.238-.387-1.844.176-.675.628-2.313.404-3.19.116-1.51-.25-2.353-.47-3.364.33-.54.31-.678.08-1.084-1.116-.406-1.195-.727-2.528-.79-2.677zm3.839-.999c-.096-.154.714-.947 1.26-1.23 1.605-.83 4.793-.793 7.073.05 1.188.438 1.371 1.19.215 1.031-2.405-.504-5.423-.92-7.748.187-.182.098-.755.035-.8-.038zm2.035-3.757c-1.645-.61-2.452-1.26-2.452-1.468 0-.223.352-.181 1.646.171 1.762.654 3.845.998 5.583.39 1.25-.462 1.874-.755 1.874-.477 0 .295-.516 1.06-1.375 1.5-1.71.698-3.966.367-5.276-.116zm35.708-4.57l1.221-.167-.424-5.095 4.497-1.334-.316-5.067 4.793-1.65-.286-5.702 4.98-.981.65-4.991 4.702-.335.974-5.43 5.05-.173 1.041-4.514 3.361-.02-.015-2.535-5.235.016-1.108 4.885-4.94.142-1.05 5.366-5.18-.038-.662 5.783-4.872.799.004 6.228-4.7 1.218.364 5.325-4.693 1.713.53 5.082zm31.396-119.54c-.671.478-.926 1.426-.718 2.198.662 1.748 2.99 1.203 3.266-.069.138-.55-.228-1.382-.864-1.563-.111-.032-.506.005-.712-.207-.149-.153.777-.628 1.323-.448.682.225 1.24 1.126 1.24 1.907 0 .302-.085.751.025.902 1.127-.028 2.417-.648 3.624-.983 2.04-.565 2.779-1.735 2.326-3.106-.377-1.143-1.546-1.596-3.082-1.018-2.109.794-4.584 1.173-6.428 2.387zM94.65 226.267c6.911-4.855 10.98-7.63 19.85-8.11-3.164-1.3-3.681-3.01-4.57-4.647-10.989 1.039-16.823 4.547-22.043 7.823 2.157 1.016 4.41 2.197 6.763 4.934zm38.522-6.734c-3.352-2.369-7.34-3.8-11.476-4.906l-3.171 3.285c-.185-.117 9.18.094 14.647 1.62zm32.176-31.165c-21.614-33.212-7.095-62.438 7.934-81.06.483-.611.6-.642.491-1.128-.143-.641-.32-3.868-.21-5.733-27.78 27.532-28.493 63.4-11.068 91.867 1.246-1.114 3.758-2.596 2.853-3.946zm3.241-2.841c-3.548-5.908-22.445-37.901 6.418-73.592 0 0-.098-1.82-.314-2.504-.387-1.225-.99-1.72-.99-1.72-12.123 18.199-29.742 40.97-7.736 80.515zm-16.526-60.213c.432-.353 1.06-1.633 1.06-2.161 0-.472-.34-.865-3.597-4.17-4.34-4.403-5.09-5.076-5.645-5.076-.525 0-1.895 1.299-1.895 1.797 0 .238 1.277 1.614 4.292 4.624 5.594 5.584 5.33 5.356 5.785 4.986zm3.998-8.111c0-.266-.402-.792-1.353-1.77-2.51-2.583-6.088-5.857-6.403-5.857-.4 0-1.495.886-1.782 1.442-.203.392-.199.48.038.851.444.692 6.043 6.006 7.634 7.342.955.878 1.82-1.341 1.866-2.008zm2.164-3.296c.443-.237 1.284-1.81 1.183-2.211-.048-.188-1.468-1.716-3.156-3.396-3.34-3.324-3.535-3.444-4.367-2.7-.754.675-1.226 1.35-1.133 1.621.113.331 5.113 5.414 6.135 6.237.808.651.902.683 1.338.45zm25.487-.246c1.57-1.507-.21-3.16-1.502-2.397-.55.34-.877 1.082-.709 1.574.28.818 1.388 1.264 2.21.823zm3.108-.384c2.657-.698 3.93-1.164 4.486-1.992.385-.573.429-.926-.004-1.86-.4-.863-.867-1.127-2.531-.215-1.143.626-3.689.926-4.579 1.452-.356.307-.182.303.104.485.64.407.954.684.884 1.222-.152 1.172-.03 1.351 1.64.908zm-2.812-4.165c1.29-.66 1.03-2.253-.412-2.886-1.902-.5-3.126 1.789-1.57 2.904.418.292 1.476.24 1.982-.018zm4.287-.646c1.865-.639 2.582-1.14 3.12-2.17.427-.817.245-1.182.189-1.972-.086-1.198-.688-1.061-2.426-.434-.849.328-4.91 1.47-4.967 1.887 1.96 1.12 1.46 1.711 1.476 3.141.103.326 1.023.092 2.608-.452zm-25.429-1.907c0-.54-5.212-5.645-5.764-5.645-.86 0-2.094 1.338-1.91 2.073.084.333 4.972 5.252 5.582 5.617.854.499 2.038-1.23 2.092-2.045zm2.996-3.182c.225-.176.623-.633.886-1.015.562-.817.522-1.272-.15-1.703-.246-.157-1.338-1.146-2.429-2.197-1.09-1.051-2.122-1.963-2.294-2.026-.898-.12-2.522 1.32-2.354 2.056.097.386 4.092 4.32 4.983 4.907.576.38.853.376 1.358-.022zm7.058-7.604c0-.145-.907-.728-2.359-1.517-4.438-2.412-4.514-2.429-5.902-1.299-.475.388-.865.829-.865.981 0 .155.962 1.187 2.189 2.347 2.545 2.408 3.171 2.928 3.526 2.928.734-.539 3.298-2.772 3.411-3.44zm6.213-2.267c.548-.656 1.164-2.93.871-3.388-.269-.269-.96-.227-1.293.073-.342.31-1.186 3.167-1.056 3.505.132.346 1.003.184 1.478-.19zm-48.49 96.802c.42-.056 1.243-.57 2.44-1.597 1.278-1.098 5.329-3.542 5.769-4.524.196-.559.053-1.36-.37-1.421-.32-.047-.389.199-3.082 2.14-1.816 1.31-5.008 3.65-5.488 4.146-.208.532.262 1.2.732 1.256zm-.376 15.644c2.772-1.923 5.018-3.916 8.632-6.143.28-.368.322-.917.152-1.364-.21-.554-.502-.336-1.596.424-2.664 1.795-5.404 3.909-7.699 5.476-.736.499-1.356.775-1.2 1.055.206.372 1.344.485 1.71.552zm2.696 1.18c1.823-1.491 4.005-2.915 5.952-4.357.272-.272.343-1.19.063-1.566-.22-.296-.038-.242-.577.064-.788.448-5.504 3.663-6.382 4.39-.512.423-.939.635-.812.783.59.379 1.215.613 1.756.686zm2.291 1.156c.377-.253 3.618-2.325 3.88-2.6.298-.315.211-1.725-.08-1.837-.818.652-5.14 3.285-5.149 3.709.44.396 1.022.76 1.35.728zm3.466.288c.498-.456.597-.533.608-1.044.019-.927-.21-.887-1.53.056-.923.596-1.484 1.016-1.318 1.373.655 1.025 1.584.217 2.24-.385zm.357 1.892c.259-.096.261-.23.224-.553-.042-.36-.094-.344-.486-.344-1.05.039-.103.99.262.897zm-12.62-5.182c.477-1.573 1.144-2.817 2.235-3.996 4.36-3.864 3.028-8.62.275-12.491a330.979 330.979 0 0 0 10.18-15.112l-.011-7.87.411.043c-.142 17.175.642 45.338.642 45.338l3.542 2.701-.477.236c.583-.09-10.312-6.911-16.797-8.85zm3.202-1.962c3.015-2.275 5.949-4.065 8.94-6.489.317-.262.505-.276.514-.871.017-1.134-.209-1.146-1.326-.346-.496.355-2.31 1.623-4.03 2.785-1.797 1.212-3.46 2.29-3.795 2.678-1.683 1.95-2.304 2.87-2.132 3.149.18.291.522-.024 1.829-.906zm3.289-5.515c1.55-1.02 5.257-3.594 5.595-3.912.587-.552.69-1.432.16-1.533-.26-.05-3.13 1.864-5.555 3.702-1.18.895-1.443 1.102-1.443 1.946 0 .51.309.412 1.243-.203zm1.545-4.008c4.751-3.378 4.63-3.093 4.526-4.35-.035-.426-.129-.619-.318-.654-.148-.028-.987.575-1.933 1.24-.945.666-2.072 1.558-2.638 1.951-1.651 1.146-2.198 1.454-2.198 2.11 0 .648.175 1.056.461 1.056.108 0 1.053-.609 2.1-1.353zm-.682-2.616c2.189-1.546 4.6-3.29 4.928-3.704.4-.503.328-1.598-.181-1.598-2.196 1.468-4.84 3.397-6.697 4.92-.24.212-.546.415-.642.692-.019.357.43.83.61.844.362.002.919-.403 1.982-1.154zm-1.425-5.231c1.671-1.132 3.19-2.477 4.85-3.62 1.247-.853 1.6-1.117 1.526-2.19-.043-.618-.587-.262-2.699 1.144-1.547 1.032-2.259 1.44-2.808 2.145-.385.89-1.655 1.726-1.722 2.744-.002.377.25.198.853-.223zm5.13-6.804c1.284-.85 1.405-.87 1.266-1.999-.174-1.413-.32-1.33-1.546.543-.806 1.232-1.083 1.589-.96 1.818.21.39.44.168 1.24-.362zm-4.674-10.4c-.136-.629-.329-.492-.975.075-1.189 1.044-1.376 1.8-.636 2.196.393.21.698.186.932-.33.504-1.11.645-1.503.679-1.94zm-6.659 9.881c-.153-.574-.855-1.356-1.389-1.632-.53-.274-.85-.223-1.357.42-.466.593-.249.945.452 1.831.513.65.721.856 1.125.856.49-.192 1.272-.851 1.17-1.475zm-25.771 24.776c-.34-.656-1.06-1.347-1.39-1.232-.35.123-.691.625-.696.94.145.644.688 1.08 1.106 1.092.788-.111 1.267-.248.98-.8zm3.142-.999c-.679-.716-2.02-2.295-2.24-2.295-.343 0-1.163.86-1.163 1.214 0 .417 1.222 2.127 1.629 2.264 1.027-.095 2.914.02 1.774-1.183zm3.879.201c-.071-.345-3.891-4.407-4.173-4.407-.365 0-1.084.8-1.084 1.169 0 .296 1.233 1.905 2.374 3.096.567.593.618.678 1.313.57.758-.118 1.747.046 1.57-.428zm6.75-.907c0-.82-.428-1.269-2.153-3.136a159.963 159.963 0 0 1-2.35-2.615c-1.29-1.471-1.842-1.923-2.356-1.924-.405-.001-1.027.657-1.027 1.077 0 .269 3.175 3.91 6.05 7 .639.685.925.885 1.537.559.352-.24.3-.647.3-.96zm-4.97-9.752c-.646.53-.886.748-.89 1.102-.004.54 5.477 6.56 5.965 6.56.287 0 .243-.039.413-.686.339-1.965-.195-2.542-1.615-3.839-.953-.869-2.873-3.86-3.874-3.137zm9.664-4.028c-1.53-1.83-2.376-2.67-2.686-2.67-.213 0-.531.204-.874.584-.572.54-.517.521-.155 1.165.188.335.714.993 1.169 1.463.843.87 1.275 1.146 1.68.729.36-.37 1.248-.806.866-1.271zm-.798-4.565c-.373-.004-1 .669-1 1.035 0 .309 1.241 1.864 2.107 2.64.7.627 1.03.796 1.517.382.365-.529.282-1.012.055-1.416-.62-.706-1.974-2.61-2.679-2.64zm4.3.449c-.01-.534-1.575-2.57-2.071-2.772-.412 0-1.287.96-1.287 1.402 0 .238.335.766.903 1.426 1.118 1.297 1.404 1.582 1.648 1.38.398-.332.816-.914.807-1.436zm1.766-2.293c.104-.447-.173-.907-.798-1.692-.782-.982-1.166-1.048-1.902-.288-.272.28-.4.526-.4.662 0 .375 1.64 2.458 1.945 2.458.704-.087.919-.599 1.155-1.14zm-2.884 5.162c-.147.672-.43 1.112-1.08 1.424-5.006 3.607-4.844 9.486-5.913 14.913-8.107-.082-20.923 3.244-20.844 3.419l43.083-43.463s.535.132.208.513c-3.487 2.507-3.27 7.38-5.563 9.821-3.832 4.63-7.392 8.647-9.891 13.373zm-23.385 17.752c.07-.491-.382-.625-.777-.23-.387.388-.234.69.317.627.29-.034.425-.15.46-.397zm13.278-1.826c.158-.413-.22-.8-2.528-3.362-2.338-2.595-2.868-3.202-3.272-3.202-.344 0-1.181.85-1.181 1.197 0 .16.368.686.817 1.169.449.482 1.301 1.43 1.894 2.107 1.022 1.165 1.507 1.727 1.896 1.998.381.267.67.253 1.28.253.84 0 1.022.027 1.094-.16zm3.994-8.156c.159-.51.385-.962.386-1.153.003-.356-2.948-3.364-3.447-3.687-.598-.386-1.72.875-1.441 1.611.077.203.955 1.236 1.95 2.295 1.267 1.345 1.9 1.98 2.106 1.948.21-.033.239-.35.446-1.014zm1.234-3.161c.216-.318.392-.737.392-.932 0-.22-.494-.819-1.2-1.613-1.316-1.48-1.654-1.65-2.375-.96-.717.687-.474 1.005.788 2.435 1.58 1.79 1.758 2.007 2.395 1.07zm11.283-14.129c.49-.583.501-.873.052-1.406-.191-.226-.47-.557-.617-.734-.406-.486-.941-.405-1.494.224-.264.3-.438.604-.438.708 0 .103.285.518.631.922.779.909 1.26 1.007 1.866.286zm1.728-2.23c.334-.51.184-1.069-.441-1.64-.591-.54-.885-.562-1.3-.1-.556.616-.467.823.13 1.484.675.746 1.217.858 1.611.257zm1.386-1.85c.462-.461.453-.856.039-1.382-.388-.493-.789-.627-1.197-.408-.71.38-.635 1.031.064 1.767.424.447.623.494 1.094.023zm-32.965 92.71c8.823.988 18.302 1.679 35.013-.918l.084-5.671c-5.212 4.064-12.054 1.278-12.448-3.4-.047-4.17 1.067-8.98 2.005-12.41.699-2.55.898-3.532.244-4.029-1.441-.812-4-.914-4.653-2.609-.314-.894-.343-1.85.115-1.168.21.313 1.874 1.086 3.174 1.377 2.263.505 2.627.673 2.883 1.603.162.586-.21 2.612-.807 4.44-.427 1.308-.925 3.409-.925 3.815 0 .442.347.515.736.391.167-.053.963-.849 1.463-1.296 2.174-1.94 2.805-1.881.948.016-.738.755-1.757 1.796-1.757 1.875 0 .402.378.356 1.212.054 1.286-.464 4.3-.408 5.64.266 1.668.837 1.738.8 1.7-1.738-.3-4.745-1.073-10.358-2.619-14.739-2.357-6.681-7.254-12.881-14.488-12.602-8.817.46-14.138 3.97-20.137 8.177 3.623 8.038-1.613 14.195-3.51 15.008-.183.078 2.374 8.17 3.466 12.281.993 3.735 2.66 11.276 2.66 11.276zM135.35 71.91c-.205-.529-5.11-16.513-6.482-23.198-13.26-.772-23.067-1.873-34.743 1.442 0 0-.254 4.504-.131 4.722.118.556.52.543.849.361 5.393-2.963 11.238-1.628 11.644 5.68.155 2.79-.783 4.757-.954 7.405-.15 2.312-1.968 5.393-.866 7.15.142.215.918.64 1.98 1.095 1.98.848 2.756 1.626 2.901 2.921.216.893-.33 1.494-.495.576-.105-.582-.207-1.095-2.652-1.932-2.382-.816-3.025-1.762-3.262-2.26-.328-.687-.266-1.174.04-2.269.652-2.33 1.296-4.706 1.236-5.828-.021-.404-.468-.208-1.04.279-.727.618-3.833 2.663-3.92 2.576-.041-.04.512-.865 1.382-1.696 1.055-1.01 2.368-2.232 2.368-2.456 0-.397-.155-.12-1.178.183-1.783.491-3.837.421-5.219-.19-1.172-.515-1.993-.814-2.167-.532-.434 7.119.623 14.457 3.61 20.181 2.675 5.201 8.236 11.714 16.599 10.253 8.64-1.51 17.046-8.46 16.744-8.468-3.224-7.3.45-12.738 3.756-15.995zM66.858 266.258c-3.829-3.834-13.48-8.005-20.112-9.92-.531-.114-1.054-.367-1.057.262l-.079 13.16-11.853 11.108.209 5.42 25.148-.121 16.695-24.476s.805-.145.894-.295c-3.065-12.997-7.679-23.377-10.61-28.58.048.064-4.216 3.445-7.966-.758-2.104-2.359-.813-6.501 1.184-8.02-1.685-1.238-5.175-3.484-7.463-4.133-.475-.116-1.185.846-1.417 1.718-.418 1.415-1.113 2.682-1.58 4.109-.513 1.192-1.007 1.372-1.773 1.037-1.192-.353-1.508-.477-1.508-.477l.039 15.47c9.15 3.175 18.567 11.308 21.249 24.496zm38.03-165.319l2.712-2.944c-4.29-.526-8.786-1.293-14.046-2.945 3.653 2.716 7.478 4.397 11.335 5.89zm-14.897-8.282c4.78 1.594 10.83 5.31 18.383 3.911-6.886-2.731-12.114-9.113-14.341-22.105-.487 2.522-1.495 7.766-3.08 8.334-2.228-8.623-11.186-3.608-7.594 3.424-9.079 6.237-19.994 9.757-29.895 14.568 0 0-1.49 4.574-8.906 10.839-1.4-7.346.268-18.244-.6-25.625L32.33 75.023c.178 2.091.097 3.389.004 5.837.32.427.76.65 1.208.917.751 42.316-.26 84.147-.25 122.582-.115 23.554.508 48.096.163 70.335l-.435.804.019 5.316L44.91 269.51s-.552-8.022.07-14.15c7.493 1.508 14.48 5.029 20.745 8.89.789.219-3.845-15.4-20.693-22.337 0 0-.023-4.878-.022-15.483 0-10.23-.16-11.313-.387-11.48-.682.742-9.304 3.647-9.74 3.155.23.077-2.433-18.108-.13-20.87l8.247.173c2.36 1.904 1.412-.415 2.781-.796.822-.222 4.636 1.265 4.636 1.265 15.72-18.557 14.15-49.074 2.868-66.244-2.89 2.347-5.963 5.527-8.86 6.893-.035-.1-.053-9.467-.053-9.467 15.02-9.642 31.36-37.569 30.317-37.664 0 0 4.65 4.53 6.456 7.092L66.32 119.962c3.396 6.839 6.832 13.04 9.06 19.054.302.813 1.231.79 1.465 1.646.2.732-.693 1.748-.57 2.555 3.13 11.967 3.84 24.666.752 36.17-.65 2.59.542 4.688 2.135 6.636.132.17-1.485-1.4-1.63-1.486-.554-.333-1.478.835-1.673 2.308.127.904.618 1.063 1.267 1.795 1.145.95 5.69 5.427 7.693 7.472 1.778 1.816 2.238 1.898 3.436.61.339-.316.69-.746 1.017-1.013.062.1.505-.362.656-.51l26.777-26.136c3.11-3.036-26.738 27.424-26.738 27.424s-14.474 14.21-18.025 17.713c-3.667 3.618-4.162 4.41-4.309 4.678-.261.48 1.183.467 1.84.37.052-.008-.552.139-1.163.134-3.77-.842-5.054 3.325-7.43 4.164-6.287 4.464-2.06 11.634 3.947 9.266l1.463-.703c3.641 6.762 8.892 19.08 11.357 29.785l-.993.46-15.839 23.76h89.823c-6.452-6.424-11.94-14.31-17.53-20.212-8.957 2.679-36.044 2.132-35.616.968 0 0-4.102-16.604-6.42-24.76 7.363-6.307 6.608-16.256-4.082-20.722 7.783-6.144 15.616-8.227 23.254-8.725 2.48 6.3 8.305 6.697 11.054.928.019-.065 10.329 3.169 14.13 6.669-5.637-.584-11.203-1.706-16.843-1.975 4.964 1.96 10.019 7.08 11.638 12.935.793 2.091 2.005 8.994 2.326 9.02 0 0 1.881-7.974 3.34-7.535 3.72 7.763 10.134 1.923 7.432-4.26 9.475-4.523 20.135-9.574 28.852-13.766 2.543-3.836 8.798-11.12 9.208-11.152 0 0 11.505-65.908 11.503-87.941-.382-26.488.53-55.973-.611-80.748l-.01-7.12-24.3.01-17.346 25.507s-.13.405-.128.58c2.368 10.292 5.405 19.051 10.171 28.56 6.577-4.968 12.12 3.213 7.187 7.962-.926.892-.678 1.117.249 1.738.913.611 7.155 3.752 7.446 3.752 1.129-1.677 1.456-4.154 2.217-6.046.192-.721.736-.81 1.824-.682 1.398.165 1.39.746 1.344-8.15l-.04-7.64c-8.433-3.884-19.598-13.759-20.119-24.029 4.876 3.548 16.08 8.706 19.071 9.167 1.314.367 1.112-1.923 1.153-2.842.356.238.485 3.777.485 3.777-4.95-1.496-7.543-1.191-19.896-8.35 2.12 10.102 12.234 18.068 19.569 21.702 0 0 .307 4.797.291 10.171-.047 16.39.117 17.111.117 17.111 0-.008 4.037-1.028 5.157-1.584 2.001-1.603 5.209-.374 5.652.806.651 6.186.025 11.92-.112 17.827-3.419.244-5.292.963-6.978 1.032-1.096-.146-1.763-.153-2.323-.777-1.633-3.526-1.527-1.29-1.725 1.359-.15.783-4.237-.58-4.645-.817-17.65 20.319-16.147 43.71-4.159 65.373 1.98-1.337 5.39-3.887 8.8-5.562.082 2.756.128 8.43.128 8.43-13.817 10.137-30.365 36.995-29.806 37.07l-5.613-6.703s3.533-5.617 4.779-7.103c.145-.17.238-1.912.238-1.912l8.579-12.404c-3.879-6.871-6.528-12.746-9.288-19.503-.156-.566-.83-2.995-.682-3.224-5.723-25.858.478-38.72.021-39.699 0 0-.076-.517-.197-.618-.188-.156.048-.305.259-.675.408-.716 1.058-2.185.836-2.62-.164-.322-4.805-4.962-8.784-8.784-2.093-2.01-2.01-2.24-3.091-1.142-.401.407-1.387 1.566-1.387 1.566-14.377 13.3-25.786 25.413-40.214 39.572l-.692-.63c20.987-20.86 42.169-41.513 62.953-62.575l-3.656.062c.104-.265.256-.512.468-.584 1.96.002 3.976-.593 5.432-1.42 2.965-2.202 7.22-5.15 7.554-8.055-.214-5.59-4.93-6.4-8.334-3.667-4.733-8.501-8.48-18.729-10.486-28.276-.095-.474-.762-1.291-.862-1.833 1.014-3.17 17.087-25.073 17.087-25.073H76.202L93.38 48.329c0-.817 24.483-3.707 35.696-.293l6.828 24.256c-6.203 5.998-8.036 15.86 3.372 20.995.222.48-1.081 1.272-1.081 1.272.181-.296.497-.602.369-.874-3.075-1.344-6.368-4.747-6.368-4.747-6.863 5.361-13.279 8.346-19.563 8.611 0 0 3.318 2.25 3.959 4.72 0 0-.308-.037-.389-.135-.681-.833-2.246-3.526-3.566-4.319-2.237-.537-3.56-.146-5.326 1.071l-2.39 2.309c-5.484-1.668-11.575-4.396-14.93-8.538zm-.918 59.368l2.503-2.47c.286-1.832.783-4.163 2.898-6.701 2.346-2.815 4.94-5.462 6.848-7.969 2.294-3.011 3.539-5.736 2.936-7 3.418-.615 6.556-3.632 6.656-9.107.04-2.876 1.428-7.072 1.533-7.013 0 0 23.859-.812 40.27-16.458 0 0 1.15.25.881.458-6.219 6.228-12.832 10.82-20.65 13.744l-43.113 43.066zm4.773-4.942c.645-.644.79-.855.425-1.158-.556-.461-1.626.491-1.626 1.448 0 .608.482.43 1.201-.29zm2.232-2.194c.513-.49.494-.848.07-1.272-.582-.582-1.43-.224-1.715.715-.287.947.84 1.329 1.645.557zm1.965-1.987c.264-.3.48-.608.48-.684 0-.333-.823-1.09-1.186-1.09-.463 0-1.289.778-1.289 1.212 0 .363.83 1.109 1.233 1.109.155 0 .498-.246.762-.547zm1.852-3.7c-.587-.494-.973-.497-1.457-.014-.562.563-.504 1.18.168 1.77.51.532.728.48 1.418.055.578-.591.682-1.143-.13-1.81zm2.173-.33c.635-.533.544-.972-.147-1.664-.728-.727-1.29-.733-1.808.038-.194.29-.23.58-.23.662 0 .282 1.2 1.351 1.517 1.351.174 0 .407-.167.668-.387zm2.09-2.064c.54-.563.47-.965-.302-1.76-.65-.67-1.103-.722-1.676-.19-.592.548-.47 1.128.199 1.796.677.677 1.179.781 1.78.154zm2.369-2.397c.396-.419.29-.385.008-.84-.433-.701-1.699-1.864-2.059-1.864-.453 0-.85.725-.846 1.438.004.71.35.999 1.25 1.707.598.47.415.513.875.243.256-.15.603-.457.772-.684zm1.879-1.717c.848-.966.687-1.152-1.36-3.309-.695-.731-.84-.815-1.335-.773-.472.04-.504.155-.747.652-.447.916-.115 1.382 1.173 2.751 1.325 1.41 1.52 1.53 2.269.679zm2.098-2.254c.328-.287.547-.622.547-.834 0-.377-1.658-2.216-2.25-2.554-.42-.24-.857-.105-1.4.363-.327.28-.32.348-.241.658.126.504 2.258 2.752 2.61 2.751.146 0 .434-.12.734-.384zm2.082-2.019c.352-.359.63-.794.63-.984 0-.405-1.787-2.473-2.34-2.762-.469-.246-.742-.144-1.206.507-.534.75-.326 1.094.734 2.315 1.006 1.158 1.328 1.51 1.516 1.51.062 0 .32-.232.666-.586zm1.965-2.114c.451-.274 1.041-.853.802-1.324-.254-.484-3.382-3.799-3.719-3.98-.66-.353-.64.156-.64 1.799v.852l1.44 1.41c2.098 2.054 1.629 1.553 2.117 1.243zm2.544-2.335c.249-.249.484-.668.48-.823-1.298-1.582-5.074-6.582-5.756-6.397-.071.02-.1.023-.149.166-.169.502-.238 1.537-.12 2.375 1.192 1.146 4.002 4.876 4.638 5.107.38.147.548-.069.907-.428zm2.03-2.129c.238-.228.433-.538.433-.688 0-.15-.42-.675-.867-1.201-.446-.527-1.32-1.592-1.942-2.367-3.558-4.438-3.817-4.77-4.36-4.319-.356.296-.442 1.342-.263 1.733.309.674 4.194 5.36 5.447 6.57.797.768.954.845 1.551.272zm2.046-1.961c.304-.287.553-.667.553-.844 0-.178-.574-.9-1.175-1.606-.6-.705-1.6-1.91-2.223-2.675-1.597-1.963-1.61-2.035-2.801-2.157-1.805-.185-1.564.213.48 2.6.496.577 1.43 1.717 2.078 2.533 1.517 1.911 2.186 2.615 2.486 2.615.133 0 .298-.18.602-.466zm2.087-2.045c.926-.779.743-1.034-2.267-4.142-.986-1.019-1.057-1.18-1.823-1.18-.772 0-1.02.159-1.02.532 0 .23 3.92 4.889 4.206 5.003.386.155.431.185.904-.213zm2.193-2.245c.247-.265.449-.606.449-.76 0-.334-.851-1.416-1.649-2.115-.373-.328-.843-.666-1.146-.666-.511 0-1.39.289-1.54.534-.098.158 1.066 1.596 2.21 2.802.759.8 1.055.869 1.676.205zm1.925-1.91c.485-.485.48-.929-.015-1.578-.359-.471-.467-.518-1.206-.518-1.4 0-1.44.359-.357 1.517.806.861 1.028 1.129 1.578.579zm2.061-2.028c.545-.692.079-1.072-.815-.665-.212.096-.325.348-.37.464-.276.72.662.867 1.185.201zm-34.417 5.85c-1.99 1.258-5.335 3.642-7.61 5.234-.06.342-.103 1.213.002 1.89 1.29-.876 5.433-3.523 7.314-5.015.096-.56.233-1.546.294-2.109zm3.65-5.774c-.066-.339-.289-.124-.878.374-.772.652-7.316 5.5-9.054 6.72-.661.464-1.283.856-1.354 1.02-.067.153-.13 1.47.12 1.802 1.418-1.083 8.146-5.595 8.248-5.752.695-1.11 2.246-3.046 2.919-4.164zm-.75 14.614s-8.026 9.65-10.608 14.457c0 0-.018 5.498-.092 8.664l-.438.123s-.037-8.486-.146-17.697c-.27-23.016-.496-28.605-.496-28.605l-2.607-1.909-.109-.905s11.567 8.099 17.211 9.39c-4.123 6.462-7.936 8.955-2.714 16.482zm-9.525 11.54c.16-.387.051-.368-.28-.354-.244.01-.382.236-.393.482-.013.281.013.348.232.306.157-.03.363-.247.44-.433zm1.93-2.859c1.155-1.423 2.11-2.345 2.282-3.391-.74.122-4.999 3.107-5.066 3.423.041 1.58-.32 1.77.98 1.073.571-.31 1.033-.69 1.804-1.105zm.364-3.525c1.242-1.032 5.769-3.466 6.287-4.666.2-.551-.445-1.068-.546-1.018.082.073-6.482 4.006-8.876 6.069-.214.266-.16.719-.017 1.094.263.69.787.13 3.152-1.48zm-1.506-1.898c1.35-.9 4.543-3.106 5.338-3.659 1.35-.938 1.619-1.253 1.132-1.948-.195-.278-.459-.442-.905-.246-3.909 2.722-4.246 3.183-7.213 5.09-.2.535-.151 1.335.159 1.618.225.014.602-.263 1.49-.855zm-.015-2.937c3.561-2.576 5.482-3.878 5.609-4.163.14-.313.18-1.538-.052-1.67-1.325 1.009-4.867 3.177-7.288 5.14-.063.404-.137 1.31.058 1.505.492.203.638-.063 1.673-.812zm-.424-9.299a184.495 184.495 0 0 1 7.686-5.4c2.287-1.517 2.669-1.855 1.791-2.309-.302-.156-.91-.403-1.3-.271-3.04 2.453-6.415 4.8-9.636 7.183-.08.356 0 1.055-.02 1.37-.03.486.612.07 1.479-.573zm-.357-2.744c.213-.186 1.57-1.086 3.016-2.133 3.878-2.806 4.336-3.08 4.336-3.377 0-.815-1.12-.988-2.138-.159-1.87 1.523-6.333 4.297-6.344 4.69-.015.58-.113 1.152.057 1.406.214.322.528.052 1.073-.427zm1.12-3.801c3.945-2.753 3.789-2.624 3.789-3.118 0-.43-.384-.238-.988-.282-.569-.041-.58.119-1.662.937-2.303 1.74-3.146 2.215-3.387 2.729-.075.161-.129.8.011.94.278.278.598-.063 2.237-1.206zm.26-2.737c.773-.643 1.392-1.115 1.444-1.25.112-.293-.471-.816-.91-.816-.477 0-.848.247-2.028 1.262-1.041.897-1.252.708-1.17 1.215.048.293.053.94.15 1.058.252.304.792-.036 2.514-1.47zm-1.598-1.778c.834-.702 1.01-.846.402-1.454-.55-.551-1.193-.688-1.531-.35-.188.248-.005 1.7-.026 1.99-.033.466.586.293 1.155-.186zm17.87-15.145c0-.3 1.45-1.362 2.54-1.605 1.388-.308 3.131-.148 4.35.46 1.052.525 2.192 1.787.503 1.019-1.55-.69-4.875-.698-6.079-.141-.893.452-1.314.569-1.314.267zm-1.08-5.317c.114-.113 1.564.262 2.363.472 2.143.565 3.903.233 6.149-.415.527-.152.79.212.464.48-1.14.79-2.62 1.25-3.896 1.368-2.807.261-5.827-1.172-5.08-1.905zm-13.764-4.143c1.197-.586 2.66-8.803 2.189-10.217-1.466 2.24-3.11 3.245-5.452 2.857-3.835-.636-3.977-5.355-1.014-5.83 1.183-.19 2.631.59 2.869.407 1.263-.593 2.252-4.835 2.56-6.208.227-1.345.56-5.076.611-6.264.107-2.525.005-6.25.005-6.25l-18.66-22.323-40.87-.176s-.13 31.27-.033 47.267L44.972 86.07l.147 17.951c12.93-5.643 25.446-11.57 37.699-17.98-1.421-1.698-1.38-5.976 1.21-7.594 3.814-2.383 6.983.771 7.167 3.254zm10.244 3.805c.087-1.013.84-1.845.892-2.874 0-.23.186-.495.794-.172.793.421 1.037.125 1.933-.288 1.592-.733 2.048-.716 3.273-.226.793.424 1.036.421 1.779.036 1.017-.672 2.098-.89 2.992-.576 1.335.465 1.799.722 2.56.353.383-.186.863-.88.948-.829.547.814.437 2.095.787 2.816.619 1.223.377 2.1-.353 1.498-1.534-1.265-2.729-1.296-4.93-.751-1.288.319-1.936.567-3.363.398-4.423-.524-4.722-.392-5.621.209-.873.584-1.544.643-1.69.406zm11.872-8.016c-1.277-.319-2.736-1.48-3.794-1.169-1.303.089-2.046-1.449-1.377-2.29 1.144-1.114 2.92.009 3.61.532 1.499 1.138 1.712 1.228 2.318 1.228 2.487-.049 2.011-2.373.809-3.22-.713-.748-.784-1.232-.632-1.415.246-.297.956-.047 1.734.772 1.488 1.398 1.524 4.185-.303 5.027-.909.507-1.506.75-2.365.535zm5.19-8.054c-1.157-.839-3.217-2.72-3.755-3.39-.91-1.134-1.274-1.858-1.16-2.768.089-.708.196-1.13-.259-1.363-.483-.249-.947-1.319-.853-1.88.026-.156.57-.063.9.35.419.067.332-.181.786-.482 4.729-3.174 8.524-2.562 13.01-.38 1.303.625 4.701 3.202 2.88 2.366-.108-.05-1.3-.567-2.504-1.174-3.89-1.862-8.225-2.99-11.755-.596-.607.425-.974.752-.502.752 1.984-.386 3.946-1.211 5.984-1.083 3.038.04 4.877 1.54 7.156 2.575 2.473 1.105 2.95 1.483 2.049 2.395-.255.282-.459.274-1.653.182-1.285-.098-1.391-.061-2.114.401-1.894 1.214-4.354 1.876-6.539 1.692-2.574-.216-2.85-.422-2.903-.052-.034.237.52.648 1.282 1.345.578.53 1.356 1.31 1.424 1.43.215.38-.766.193-1.474-.32zm-.722-4.12c-.005-.304-.573-1.629-.911-1.971-.325-.329-.58-.2-1.272.287-.52.366-.576.655-.097 1.08 1.018.904 2.29 1.13 2.28.604zm3.877.183c1.039-.503 2.096-2.286 1.616-2.864-.286-.345-.534-.018-1.08.949-.26.462-.71 1.049-.902 1.183-.849.595-1.97.04-2.441-1.272-.285-.792-.584-1.295-.916-.995-.599.543.08 2.502 1.27 3.008.704.3 1.724.344 2.453-.01zm3.232-.293c1.054-.326 1.557-.8 1.468-1.259-.073-.38-.832-.83-1.347-.83-.231 0-.683-.01-.845.206-.359.478-.928 1.926-.954 2.083.123.319.48.17 1.678-.2zm3.641-7.854c-5.255-2.01-9.405-2.816-14.404-.685-1.6.696-2.514.768-2.594.201-.068-.478 1.084-1.894 2.33-2.549 3.489-1.595 7.678-1.745 11.188-.061 1.312.642 4.994 3.259 4.994 3.497 0 .261-.333.058-1.514-.403zm61.51 58.885c1.253-.66 1.828-1.958 1.062-2.724-.225-.225-.54-.224-.8-.224-.438 0-3.725.881-4.363 1.223-.416.222-.265.61.132.97.184.166.32.521.348.91.037.499-.062.95.268.873.67-.154 1.73-.302 3.354-1.028zm-4.672 1.204c.357-.65.205-1.54-.732-2.086-.488-.252-.874-.117-1.267.443-.93 1.698 1.381 2.427 1.999 1.643zm-4.69.796c.2-2.17.103-8.578.103-8.578s-1.168.985-1.904 1.02c.27-.938.563-1.282.982-2.2.24-.974.374-2.695.307-3.679-.074-1.077-.834-1.106-.05-3.043.4-.989.472-2.03-.047-3.255-.224-.605-.296-.952.286-1.719.542-.712.328-1.069.318-2.554-.015-2.059-.002-2.393-.625-.733-.931 1.376-1.36 1.112-2.777.947-1.372 3.074-2.976 6.297-3.04 8.947-.039 1.661-.06 1.92.976 5.413.386 1.3.518 1.734.54 3.306.022 1.502.134 2.03.363 2.859.406 1.474 2.058 3.913 4.568 3.27zm-47.716 138.26l.006-3.09s-4.944 1.524-7.454.586c-2.583-.699-2.575-.827-2.524-.547.091.5 2.008 1.511 3.783 1.927 1.249.292 3.749-.003 4.975-.366.697-.206.77-.012.492.201-3.031 2.37-6.876 1.279-9.291-.688-1.29-1.264-2.155-1.271-1.459.427 3.317 6.722 11.555 2.756 11.472 1.55zm-3.337-4.593l1.124.021s-.345-1.96-.927-2.53c-1.193-1.17-2.877-.991-3.946.157-.49.526-.864 2.386-.864 2.386l.904.019c.336-.868 1.762-4.942 3.709-.053zm-4.5-2.963c-.638-.175-2.04.462-2.723.905-.253.28-.255.32.046.716.655.863 1.657 1.275 1.728.952.29-.454 1.016-2.398.95-2.573zm7.43 2.178c.147-.602-.42-1.632-1.306-1.993-.383-.095-.761-.172-.65.25.125.472.39 1.247.637 1.764.18.39.294.585.672.437.296-.099.546-.19.646-.458zm48.248-40.974l.01-5.235c-2.644 2.68-6.1 7.176-7.146 8.859zM100.054 65.868c1.12-.48 1.942-1.943 1.658-2.683-.176-.459-.641-.091-1.111.589-.757 1.094-.949 1.212-1.614 1.212-.708 0-.989-.182-1.474-1.134-.335-.9-.572-1.041-.884-.649-.147.177-.135.43.056 1.087.498 1.716 1.782 2.258 3.369 1.578zm3.052-.541c1.242-.428 1.496-.564 1.437-.978-.062-.433-1.05-1.01-1.61-.904-.405.245-1.454 1.906-1.395 2.203.144.231.56.026 1.568-.321zm-7.165-.725c-.043-.382-.096-.759-.202-.886-.398-.48-1.24-.141-1.24.47 0 .463.66.988 1.195.988.376 0 .322.092.247-.572zm7.02-3.13c1.767.666 2.663.74 1.702-.163-1.322-1.466-7.379-3.14-10.63-.748-.23.33-.183 1.594.07 1.524 2.645-1.783 6.03-1.688 8.858-.612zm-6.05-5.054c-1.484.494-2.878 1.27-3.057 1.993-.287 1.165.234 1.177 2.176.566 2.5-.819 5.298-.448 7.43.784 1.619 1.177 2.098.787 1.825-.202-.905-3.273-5.965-3.863-8.373-3.141z" fill="#131f67"/><path d="M192.228 35.395l-10.92 10.822.152 12.806c1.098 2.012-16.855-5.738-19.689-8.084.33 8.554 12.005 18.301 19.597 21.868l.208 27.164s3.055-1.185 4.736-1.77c1.245-.432 4.094-.39 5.032-.84 1.49-18.621 2.762-42.848.884-61.966zM131.486 48.8c-1.064.018-1.701.306-1.687.99-.32-.053 4.036 15.99 6.018 22.689-3.859 3.899-7.886 10.672-2.122 16.941 1.23 1.338 3.483 2.471 5.626 3.756.955.927-11.72 9.098-23.002 9.101-3.617-7.93-8.67-3.545-11.456-.778-2.176-.191-10.3-5.03-14.457-7.801-.066-.044-.022-1.192-.014-1.402.289 1.89 16.282 5.969 17.004 4.075-.462 0-7.174-4.54-9.101-9.02-2.46-5.052-4.433-11.991-4.433-11.991-.895 2.566-.588 6.122-3.054 7.395-.739-8.353-12.665-4.093-6.729 4.075-3.335.978-6.187 2.704-9.425 4.142 6.775 9.217 16.098 15.348 25.946 18.962-1.298 2.767-8.968 8.995-2.668 16.337.284.226-6.02 7.102-9.12 12.48-2.335 4.048-1.63 7.154-1.364 7.255 8.541-9.788 13.34-18.068 13.34-18.068-.072 1.139 10.138.523 9.967-8.67.226-2.482.675-5.171 1.63-7.474 15.579.733 28.974-4.817 40.296-16.472 0 0 2.306.658 3.76.885.73.113 1.763-.362 1.934-.411.655-.034 1.601-.162 2.484-.658 1.209-.679 2.43-1.849 3.722-2.895 1.694-1.372 3.386-2.695 3.988-4.108.675-1.572.147-3.466-.43-5.143-3.635-4.28-6.046.322-7.657-.276-5.591-7.601-10.255-29.103-11.015-29.271-3.124-.63-13.808-4.716-17.98-4.645zM93.108 63.473c-.417.028-1.915 6.713-3.243 6.66-5.623-3.621-5.744 3.875-.909 3.534 4.085-.288 6.368-6.88 4.172-10.189a.038.038 0 0 0-.02-.005zM33.004 76.19c.186 40.644.918 81.274 1.87 121.905 3.674-.907 6.345-1.598 9.948-.024.338-11.55-.678-40.7-.435-68.925C58.117 118.468 67.76 106.69 74.533 91.3l-20.963 9.816s-6.85 9.82-9.038 10.45c-.312-1.397-.661-18.02-.377-25.148zm46.58 25.139l-4.118 5.96s.096 20.468.334 30.33c.17 1.964 1.955 3.765.526 5.524.871 0 4.678 26.555 1.059 37.32-.648 1.928-.041 3.29.972 3.731l7.85 7.966c2.475.822 4.886.5 6.964 0 7.431-6.797 17.986-18.706 17.986-18.706l-27.904-26.376c-2.393-6.398-3.669-45.749-3.669-45.749zm101.692 85.36c-20.203 15.101-28.887 36.593-29.02 36.449.07.25-.102 1.132 1.164.435 5.23-2.832 18.672-8.938 18.672-8.938 3.193-3.836 5.649-7.538 9.305-11.189 0 0 .395 16.654.072 25.008 3.298 2.452 11.127 10.112 11.127 10.112-.002-.002 2.162-118.322-2.504-121.325-4.53.878-6.805 2.533-8.495-2.722-1.195 24.09-.013 48.264-.321 72.17zm-43.873-66.592c-4.873 3.983-21.627 20.416-21.592 20.586 4.443 7.45 21.991 22.377 30.403 30.722l1.218 42.51c1.237-1.664 2.137-3.23 3.48-4.896 0 0-.22-21.525-.74-31.616-.153-2.984-.838-5.335-.623-5.607-2.367-12.248-3.35-25.778.001-38.91-7.945-6.843-10.47-11.394-12.147-12.79zm1.304 48.553a.096.096 0 0 0-.038.029c-4.114 5.858-11.979 18.576-12.543 18.546-.167-.38-8.128-.025-9.633 4.983-1.264 3.729-1.36 7.16-2.282 11.006-15.974-.522-27.668 4.529-39.982 15.878-3.503.137-6.57.425-8.725 1.223-1.805.668-2.776 1.873-3.886 2.678-3.125 2.265-3.972 4.198-3.818 6.563.278 4.287 7.853 4.897 8.24 1.876.385 0 7.413 16.056 8.097 18.792 1.658 4.423 3.433 12.699 3.644 12.712 2.83.182 18.716 4.637 18.774 3.021 1.496-.642-5.525-23.618-5.525-23.618 12.273-10.295-1.257-21.298-4.437-20.895 6.988-4.975 15.006-8.325 23.848-8.766 1.37 4.914 7.715 7.439 10.91.909 0 0 13.744 4.919 13.688 6.549-5.66-.854-10.313-1.3-15.98-1.842 10.859 5.894 11.191 13.661 13.408 21.393.302-1.369 3.166-7.351 3.166-7.351 3.683 8.167 10.686 2.5 7.797-4.094l8.714-4.041c1.004-.51-13.026-16.291-25.786-18.527.643-1.175.897-2.28 1.561-3.238 3.2-3.139 5.68-7.735.788-13.234 3.229-4.512 10.716-15.404 10.242-15.598 0 0 .146-5.09-.242-4.954zM33.79 218.848c-.124 0-.35 37.768-.084 56.515-.314.777-.517 4.926-.517 4.926l11.62-10.914.347-14.11c3.034-.725 21.945 8.874 20.431 8.822 1.444-.608-8.73-19.818-20.595-21.949-.22-10.883-.332-23.204-.643-26.516-4.12.786-10.56 3.25-10.56 3.226zm103.164 22.72c-3.254.97-4.611 7.809-3.558 11.126.195.614.072.746.59.145 1.268-1.86.868-5.568 3.108-7.525 5.916 1.784 5.329-5.908-.14-3.746z" fill="#e2cf00"/><path d="M198.391 302.414v-3.48h3.132v-18.773s.016-4.518.222-5.087c2.415-8.23 15.787-7.658 16.453-.316.282 1.25.204 5.403.204 5.403h-3.538s-.025-1.324-.073-2.303c.458-7.795-9.005-6.176-9.475-.94-.196.939-.216 3.243-.216 3.243v18.773h3.654v3.48zm-136.717-16.3l15.382-23.238c18.364 6.137 37.112 6.248 56.059 3.22l16.933 20.017h-6.923l-10.658-15.22c-3.862.893-7.876 1.282-11.876 1.831l4.988 13.39h-5.429l-3.918-13.244c-9.193.356-15.453-.462-21.836-1.21l-2.299 14.453h-5.524l3.729-14.923c-4.343-.814-8.724-1.512-12.362-2.678l-11.292 17.601zm17.615-13.676l6.386 1.73-3.119 11.945H70.874zm16.493 13.675l1.805-10.553c4.288.846 9.884 1.016 15.784.956l2.775 9.597zm30.226-9.784l5.038-1.334 7.552 11.118h-9.18zm39.874 7.934c-5.324-10.705-12.595-20.019-20.5-28.88 7.718-8.113 14.225-17.491 20.473-28.151 6.2 10.76 13.352 20.73 21.231 28.568-8.668 8.622-15.305 18.005-21.204 28.463zm42.902-19.275a85.234 85.234 0 0 0-9.402-12.574c3.44-3.87 6.44-8.014 9.14-12.347 3.112 4.777 6.32 8.923 9.618 12.494-3.486 3.898-6.411 8.17-9.356 12.427zM52.52 209.177C77.09 180.6 73.822 150.6 60.249 126.402l2.886-2.968c15.697 25.795 19.038 62.47-9.89 90.893-.305-1.714-.725-5.15-.725-5.15zm97.982-32.05c3.53 6.008 5.688 12.09 9.418 18.133l-8.85 11.96zM44.788 196.055c-.23-18.857.057-57.062.057-57.062l8.29-6.342c9.92 12.042 15.333 43.78-2.48 64.902-1.296-.943-4.824-.55-5.867-1.498zm117.706-3.805c-22.738-38.352-11.174-66.319 10.739-91.152.064 1.913.208 3.82.38 5.726-18.813 21.542-26.337 53.4-7.89 82.223zm-41.174-5.572l10.355-14.11s1.963-5.612 3.616-7.27l1.9-1.68c.632.61 1.836 1.382 1.8 2.083-.04.662-1.017 4.165-1.017 4.165l-12.11 17.708s-3.676-.644-4.544-.896zm55.08-68.487c.326-.37 4.437 1.345 4.437 1.345l.263 57.983-8.23 5.287c-2.387 1.213-21.044-36.84 3.53-64.615zm-86.693 24.425c3.747-5.103 7.694-9.522 11.325-14.21.939.323 3.405.378 3.405.378.26.14-.83 3.89-3.516 6.474-2.7 2.751-9.13 10.292-9.319 14.091-.058 1.172-2.687 2.514-2.687 2.514l-1.87-1.972c.573-2.889 1.469-5.104 2.662-7.275zm-23.369-22.241l8.246-10.697.822 28.422zM38.16 57.344c7.851-8.357 14.789-17.947 21.344-27.858 5.982 9.84 12.616 19.901 20.917 28.059-7.558 8.288-14.72 18.232-20.97 28.09-6.002-9.599-12.712-19.534-21.29-28.291zM6.834 59.849a55.104 55.104 0 0 0 9.372-11.985c2.902 4.404 5.642 8.94 9.521 12.544-3.58 3.838-4.728 5.059-9.609 12.22-2.755-4.463-5.615-8.864-9.284-12.78zm86.493-11.57L77 27.872h7.905l9.723 14.44 11.645-1.33-4.098-13.11H107l3.407 12.9c7.143.17 14.124.725 20.902 1.404l3.484-14.304h4.914l-4.46 14.969 13.15 3.452 11.718-18.421h5.821l-16.606 23.783c-21.71-6.521-39.147-5.774-56.004-3.378zM6.023 37.852c-.254-1.803-.31-3.582.017-5.312h3.528s-.023 1.3.026 2.406c.002 6.987 8.363 6.087 9.598 1.686.436-1.554.368-4.042.368-4.042l.015-18.588h-3.582v-3.61h10.609v3.61h-3.309V32.54s-.026.08-.008.4c.062 1.12.099 3.8-.495 5.059-3.352 8.352-15.612 6.458-16.767-.147zm134.372 1.884l3.72-11.877 11.126.012-8.516 13.567zm-26.928-2.889l-2.351-8.975h19.616l-2.533 10.034c-5.18-.874-9.911-1.041-14.732-1.059zm-23.515-8.975h7.83l3.05 9.288-4.517.511z" fill="#d40000"/><path d="M74.442 26.558l18.906 22.617c3.939-1.408 23.792-3.673 35.702-.956 2.075 8.13 4.27 16.34 6.593 23.742 0 0-.744.868-1.28 1.42-7.607 8.765-2.223 17.231 4.736 19.993-1.254 2.606-14.592 9.096-22.714 8.324.014-.08-2.494-5.956-7.578-3.97-1.737.679-2.454 1.986-3.799 3.263-4.852-1.463-11.259-4.654-14.589-8.16 6.232 3.102 12.369 4.772 18.53 3.95 0 0-.763-.637-1.63-1.035-.521-.239-1.776-.994-2.79-1.677-2.863-1.93-4.766-4.257-6.727-8.236-2.258-4.032-2.626-8.37-3.863-12.196-.655 1.96-.937 7.14-2.648 8.213-.444.29-.525.203-.856-.894-1.305-3.982-6.084-3.478-7.66-.643-.8 2.437-.685 3.507.325 5.772l-2.897 1.609-.005.478-1.784.851-.372-.251c-8.29 4.004-16.418 8.172-24.877 12.007 0 0-4.493 7.454-8.604 10.42l-.16-25.313L32.226 74.89l-.058 6.022.875.919c.166 42.373.027 84.059.053 122.528l.056 35.414-.743.044-.038 4.13.837.188-.117 5.833-.435.03-.063 3.692.664.104-.012 20.844-.657.846.015 5.95 12.712-12.079.283-13.738c10.028 1.894 20.509 9.099 20.509 9.099-1.765-11.507-13.961-20.988-20.966-22.882l.022-27.263s-5.207 2.172-7.78 2.505c-1.274.18-1.764-.012-2.373-.932-.444-.67-.454-1.282-.054-2.669.188-.647.181-.817-.053-1.469-.328-.915-.33-1.328-.01-2.944.337-.949.189-1.455-.164-2.334-.378-.94-.408-1.116-.246-1.658.426-1.427.45-1.659.227-2.296-.437-1.246-.452-2.145-.048-2.953 1.874-3.146 6.076-2.37 8.357-2.257 1.155 1.286 1.846 2.003 1.953.14.809-2.224 3.946.052 5.412.998 12.474-16.715 18.626-39.344 2.978-67.666L44.657 138l.02-8.719c11.543-7.418 24.53-24.284 30.153-37.582 1.87 2.191 4.018 4.345 6.041 6.554l-1.322 2.214-.39-.222C75.576 107.078 65.852 120 65.695 119.87c3.6 6.67 6.805 13.406 9.53 20.223l.714-.321.638 2.053-1.259.377c4.26 13.97 4.399 26.906 1.194 38.835l.752 3.17s4.506 4.365 5.722 5.648c3.175 3.074 6.714 6.506 6.714 6.506l4.113-4.026-.239-.343 36.055-35.797 2.249 2.15c-22.083 22.24-60.44 60.637-60.44 60.637l-1.329.193c-.755.112-1.873.161-2.585.111-1.173-.081-1.317-.055-2.258.392-1.06.504-1.935 1.25-3.108 2.653-.536.642-.904.918-1.498 1.131-7.518 4.484-.721 13.51 5.673 8.759 4.686 8.953 8.655 19.382 10.843 29.697 0 .075-.841.362-.841.362l-16.85 24.984h6.482l.677-1.15h-4.858l15.501-22.389c19.72 5.372 37.82 6.136 56.19 2.94l15.989 19.45h-6.342l.904 1.15 8.207.13-18.794-22.178c-6.73 1.798-24.479 3.244-35.612 1.36-1.703-8.27-4.51-17.26-6.588-24.414 10.626-8.317 2.647-19.296-3.91-20.826-.318-.602 13.298-8.88 22.998-8.305 2.777 6.67 8.859 5.683 11.043.72 4.022 1.476 9.243 2.95 13.387 6.246-5.527-1.211-11.93-1.873-17.2-1.954 10.024 3.887 12.836 12.077 14.071 19.803.217 1.281.904 2.935.904 2.935.854-2.79 1.552-5.67 3.233-8.059.773 2.732 3.618 4.854 6.487 3.23 1.664-1.206 2.243-3.275 1.716-6.134-.147-.795-.22-1.231-.22-1.231l2.227-1.206.29.247s2.44-1.042 3.653-1.631c.19-.093-.223-.472-.223-.472l22.52-10.62c-.085-.048 5.679-7.915 8.987-10.95.1 9.427.076 13.302.07 24.495l1.272 1.242c1.128 1.101 3.587 3.386 9.13 8.478 1.248 1.146 2.12 1.713 2.12 1.713l-.17-164.866h-.185l-.003-3.172.26-.013.004-8.25-.233-.135-.002-2.6.31-.226.02-22.269-.357-.061-.021-5.342-12.553 13.277.094 12.52c-5.602-.724-12.533-4.309-17.304-7.202-1.542-.94-2.402-1.19-2.354-.652.671 7.454 11.462 18.854 19.755 21.837l.014 28.043c0 .015 1.958-.979 3.154-1.481l.18.498 2.673-1.107.217-.576 2.317-.293c.026.473.106.408.106.408 2.065.578 2.978 1.986 2.146 3.567-.29.53-.347 1.282-.106 1.48.895 1.411 1.13 2.656.048 3.992-.416.682-.413 1.068.015 1.793 1.117 2.253.482 2.104-.358 3.446-.19 1.015.922 1.676.556 2.63-.17.63-.835 1.367-1.285 1.701-.528.383-.962-.329-.962-.329s-1.673.718-2.876.948c-1.183.383-3.22 1.07-3.925-.522-.404-.913-.08-1.746-.106-2.765l-1.736-.189-.062 4.63c-.993.529-4.94-1.488-4.94-1.488-16.936 21.95-16.462 46.296-3.9 66.693.122.327 8.85-5.97 8.85-5.97s-.018 5.162.057 7.961c-11.095 9.176-21.812 21.523-29.474 36.744l-4.747-5.626c.817-.722.848-1.866.832-2.731l3.446-5.138.029-1.334 8.96-12.517c.141.748-9.245-16.804-10.495-22.519l.621-.168c-4.212-15.937-3.348-27.097-.306-40.095l-.868-.838-11.823-11.807c-.96.887-1.917 1.777-2.872 2.67-.146.138-.867.057-1.013.194a550.788 550.788 0 0 0-18.124 17.773c-.153.157.105.806-.048.963-5.93 6.107-12.077 11.904-18.079 18.001l-2.19-2.09c21.25-21.244 61.283-60.704 61.283-60.704s.173-.313.45-.323c1.113-.043 2.109-.296 3.209-.614 1.32-.306 1.532-.403 2.088-.976.34-.351.897-.843 1.237-1.093.58-.425 1.906-1.54 3.978-3.344 1.267-1.104 2.048-2.709 2.02-4.143-.048-2.552-1.738-4.729-3.914-5.041-.905-.13-2.679.34-3.577.947-.685.463-1.008.674-1.302.467-4.337-8.795-8.557-19.857-10.347-28.984-.096-.576-.044-.746.425-1.47.292-.45.928-1.443 1.417-2.209 3.876-5.605 8.373-12.415 12.59-18.56.701-1.02 2.06-2.987 2.06-2.987l1.03-1.689h-6.688l-.825 1.315h5.504l-16.373 23.565c-30.173-9.863-54.898-3.611-55.491-3.476l-16.312-20.09h7.46l-.904-1.314zm14.685 0l.83 1.315h7.825l-.443-1.315zm13.05 1.315H107l-.277-1.315h-4.948zm8.632-1.315l.307 1.315h19.616l.348-1.315zm23.985 1.315h4.914l.37-1.315h-4.943zm9.726-1.315l-.421 1.315h11.142l.835-1.315zm47.65 9.094l.174 3.653-8.033 8.466.01 11.821-2.338-.542-.093-12.217zm-2.252 7.786c.068 3.621-.518 7.092.44 10.784.471 1.817 1.427 3.947 1.547 6.095l-2.65-.063c-.336-1.084-.467-2.28-.864-3.615-.979-3.291-1.772-6.759-1.05-10.247zm-57.833 5.906c.097.18.414 1.709.706 3.128 1.391 7.789 3.256 13.568 5.158 19.45 2.417 7.41 5.995 16.74 9.473 21.064.461.54.688 1.154.522 1.421-.28.454-1.7-.18-2.653-1.184-.39-.411-1.14-1.563-1.692-2.595-1.215-2.276-2.849-5.587-3.011-6.11-.067-.213-.707-1.848-1.426-3.635-1.258-3.124-2.004-5.264-3.055-8.739-.834-2.756-1.602-5.641-2.533-8.545-1.521-4.75-2.402-8.528-3.248-12.896-.124-.641-.338-1.39-.26-1.543.48-.347 1.788-.208 2.02.184zm.851.296c-.15-.126 1.38-.15 1.87.26.146.146.406 1.06.63 2.234 1.384 7.165 3.468 14.57 5.891 21.586 1.936 5.605 4.051 11.001 6.685 15.37.826 1.456 1.944 3.012 3.369 4.694.798.942.863 1.074.647 1.334-.263.318-.724.277-1.614-.145-.83-.393-1.727-1.256-2.571-2.475-.289-.416-.727-1.043-.977-1.392-3.885-6.717-6.244-13.098-8.381-19.58-2.191-6.646-4.161-13.367-5.5-21.113l-.049-.773zm4.88 1.01c.342.346.536 1.008.833 2.393 1.618 6.643 2.942 12.58 4.853 18.033 1.028 2.934 1.919 5.865 3.021 8.628 1.761 4.414 3.916 8.435 6.564 11.784.873 1.102 2.458 2.462 3.79 3.253.922.548 1.06.688 1 1.005-.08.285-.98.404-1.276.382-1.457-.248-3.61-1.377-4.225-2.214-4.454-4.812-7.638-12.689-9.958-19.151-3.987-11.126-7.202-25.024-6.59-24.592-.041-.324 1.595.048 1.989.478zm1.916.401c.144.003.307.028.488.077.832.228.94.344 1.14 1.262 1.425 6.353 2.934 11.956 4.617 17.285 1.713 5.422 3.475 10.537 6.22 15.902 2.014 3.915 4.563 6.62 7.304 7.99.787.393 1.49.77 1.561.84.072.071.053.275-.043.455-.145.27-.311.325-.981.314-1.244-.021-2.116-.408-3.452-1.305-3.5-2.414-6.561-7.88-7.912-10.982a124.318 124.318 0 0 1-4.529-12.001c-2.452-7.692-3.98-12.781-5.1-19.271 0-.373.254-.574.687-.566zm52.463 10.382l-.024 2.253c-8.815.585-17.853-3.142-25.118-6.496 5.473 7.259 11.314 13.7 25.117 15.03l.025 2.325c-17.978-.255-30.64-18.46-29.974-22.998 7.394 4.777 20.752 10.3 29.974 9.886zm-49.616-9.536c.432.02 1.015.203 1.242.43 1.47 5.485 2.54 11.574 4.969 17.686 2.985 7.51 4.64 14.138 10.174 20.325 1.722 1.768 5.095 1.716 5.095 1.716s-.426.957-1 1.116c-1.186.18-2.046.233-2.91-.046-3.206-1.354-5.656-4.778-6.922-7.098-1.185-1.738-4.078-8.902-6.462-16.206-2.596-7.952-4.735-16.22-4.49-17.884a.657.657 0 0 1 .304-.039zm2.963.923c.212 0 .493.08.831.242.361.172.518.279.706.957.122.442.102 1.126.319 2.238 1.25 5.726 2.973 10.376 4.684 14.906 1.625 4.304 3.37 8.53 5.52 12.35 1.085 1.924 2.162 3.724 2.842 4.403 1.851 1.852 4.994 1.944 5.92.106.514-1.044.409-2.7-.608-3.556-.788-.752-2.573-.434-2.62.473 0 .24.444.134 1.087.058 1.797-.208 2.36 2.973.049 3.504-2.926.672-4.957-3.284-2.374-5.708 4.378-2.969 7.72 1.087 6.685 4.988-1 2.305-2.674 3.48-4.887 3.562-2.855.092-4.037-.791-6.965-5.046-3.356-5.387-4.812-10.645-7.177-16.535-2.237-5.572-3.727-11.512-4.428-16.7.062-.16.204-.242.416-.242zm2.776.92c.258.009.803.145 1.042.293.144.09.35.287.35.287 3.937 14.363 7.22 22.967 10.56 29.04 0 0-.054 1.117-.276 1.434-.398.568-.593.428-1.112-.47-2.102-4.069-4.104-8.562-5.969-13.195-2.195-5.45-4.143-11.094-4.969-16.462.044-.692-.112-.886.374-.927zm26.553 8.21a1.008 1.008 0 1 1 0 2.016 1.008 1.008 0 1 1 0-2.016zm-81.792-.183c-1.167 1.59-2.123 7.283-3.338 7.352-1.336-.021-2.96-.788-4.009.42-1.273 1.468-.492 3.09 1.078 3.983.722.357 2.258.442 3.19.174 3.82-1.281 5.271-7.478 3.08-11.929zm85.61 1.494a1.458 1.458 0 0 1 0 2.914 1.458 1.458 0 0 1 0-2.915zm-85.542.69c1.306 3.283-.14 7.21-1.73 8.532-1.465 1.217-3.764 1.373-5.076.188-1.093-1.027-.607-3.495 1.431-3.31.686.021 1.502.645 1.963 1.304 1.327.137 2.856-6.594 3.412-6.713zm90.618.803a1.643 1.643 0 1 1 0 3.287 1.643 1.643 0 0 1 0-3.287zm5.82 1.16a1.677 1.677 0 1 1 0 3.354 1.677 1.677 0 0 1 0-3.354zm-54.16 7.627c.25-.001.426.24.59.72.341 1.001.333 1.118-.198 1.789-5.159 7.14-.456 14.442 7.018 15.235.63.045.947.754 1.281 1.58-.046.39-.049.39-1.745.421-1.109.02-1.997-.049-2.552-.198-2.619-.705-5.827-3.071-7.139-5.264-1.511-2.526-1.764-5.139-.831-8.623.598-2.236 1.358-3.712 2.532-4.93.47-.486.794-.728 1.044-.73zm48.906.793l.087 24.5-2.61.953.106-26.057zm4.938.946c3.251 8.072 3.395 15.47.46 22.202l-2.966.43c4.067-9.484 2.338-16.273.04-22.827zM33.323 76.625l10.556 9.962.368 110.981-1.682-.594-.672-109.16-8.57-7.859zm103.088.32c.018 0 .036.002.054.004.282.034.54.39.778 1.063.28.794.275.817-.039 1.605-1.448 3.55-.266 6.929 3.311 7.995.85.268.99.406 1.489 1.46.324.683.469.93.343 1.082-.186.135-.64.199-1.987-.092-5.322-1.816-7.254-7.638-4.833-12.258.302-.528.578-.815.831-.855a.284.284 0 0 1 .053-.005zm-42.38-.44s1.113 3.927 1.006 4.818c-.282 1.722-2.728 4.472-4.867 5.477-1.985.76-4.982.377-6.236-.943-4.555-5.331 3.943-10.683 6.08-5.133 1.285 3.642-3.939 4.503-4.17 1.706-.002-.721.232-.947.903-1.416.598-.417.53-.788.015-.788-1.973.719-2.018 2.538-1.13 3.684 1.777 1.858 3.976.776 5.491-.588 2.041-1.837 2.442-4.474 2.908-6.818zm44.075 4.051c.102 0 2.19 4.99 2.466 5.7-.069.5-.614.464-1.546-.186-.945-.66-1.228-1.127-1.629-2.659-.12-.544-.323-2.526.709-2.855zm-42.378 2.106c.46 0 .937 1.688.72 2.552-.375 1.497-4.297 4.026-7.052 4.548-.553.105-1.144.216-1.315.247-.57.102-1.235-.217-1.928-.923-.489-.498-.722-.994-.604-1.111.096-.096 1.36.123 2.43.107 3.003.035 5.32-2.118 7.101-4.685.272-.404.563-.735.648-.735zm-59.669 1.25s2.032 1.839 3.103 2.892c-.115 4.894-1.921 10.2-1.92 14.573.044 3.806 2.506 6.974 2.756 10.286.148 2.142-.481 5.324-1.537 7.734-.983 2.243-1.5 4.636-1.498 6.96.125 5.406 4.008 11.317 2.643 16.666-1.281 5.024-2.74 7.926-2.353 10.595.746 5.148 3.483 9.71 2.755 13.993-.678 3.987-2.48 7.97-2.287 11.566.223 4.152 1.776 7.624 2.214 11.412.286 2.467-.411 6.305-.411 6.305l-2.848.234c1.566-5.832-.767-11.107-1.661-16.714-.761-4.773 1.378-8.572 2.015-12.644.396-2.529-.052-4.938-1.305-8.159-2.476-5.948-1.586-9.824.198-15.003 2.206-5.516-.828-9.883-1.585-15.167-.39-4.554-.086-7.774 1.624-11.823 1.275-3.898 1.635-6.158-.266-9.9-1.201-2.363-1.515-3.76-1.517-6.872.62-6.176 2.287-9.64 1.88-16.934zm61.027 2.462c.443 0 .662.313.662.943 0 1.152-1.718 2.612-4.756 4.04-1.575.742-2.49.852-3.412.416-.86-.407-.818-.764.126-1.039 2.374-.693 4.06-1.641 5.979-3.364.61-.548 1.241-.996 1.401-.996zm-13.747.795c7.837 8.388 15.523 12.706 21.398 14.724l-.924 2.192c-7.72-2.99-15.595-7.15-22.266-16.09zm15.1 1.37c.212 0 1.01 1.012 1.01 1.281 0 .158-.29.665-.647 1.122-.519.664-.976 1.006-2.272 1.716-1.754.96-2.815 1.195-3.576.792-.757-.4-.503-.735 1.387-1.846.975-.573 2.277-1.499 2.89-2.054.614-.556 1.155-1.01 1.209-1.01zm-20.76 1.238c6.421 8.785 14.689 14.622 24.409 17.736l-1.528 2.066c-8.88-3.06-17.564-8.594-25.497-18.339zm22.423 1.083c.323 0 1.05.818 1.05 1.184 0 .175-.143.496-.315.715-.343.437-2.136 1.785-2.9 2.18-.598.31-1.046.304-1.697-.02-.773-.384-.64-.706.62-1.517a16.785 16.785 0 0 0 2.073-1.634c.524-.5 1.05-.908 1.17-.908zm-25.829.64c-.182.23-9.452 21.463-29.093 36.518l-.092-3.527c10.878-8.627 18.788-20.44 24.754-30.755zm27.695 1.525c.297-.008.507.193.715.59.25.474-.022.896-1.12 1.725-.687.519-.942.62-1.509.61-1.462-.027-1.425-.38.179-1.813.832-.744 1.353-1.101 1.735-1.112zm37.928 1.049l4.094.314c1.103.767-16.001 11.962-27.86 10.958l.314-2.683c10.411.297 23.737-8.105 23.452-8.589zm-35.118 1.048c.94.527 2.112 1.151 1.82 1.354-.435.272-3.212.096-3.852-.246-.479-.257-.452-.39.208-1.131.808-.908.948-.464 1.824.023zm-36.494-.666c-6.488 11.445-14.215 21.892-23.16 28.698l-.118-6.053c8.512-6.553 14.956-18.523 14.972-18.566zm81.257.73l1.984 1.158c-12.371 11.45-25.733 16.386-38.572 15.15l1.033-2.32c20.835 1.646 34.67-13.768 35.555-13.989zm3.007.405s.665-.083.594.052c-4.108 4.026-9.747 8.323-13.44 10.72-17.492 17.964-32.466 32.14-47.702 48.14l-2.436-2.549 2.205-2.334c.007-4.61 5.653-9.78 9-13.76 1.397-1.575 4.02-5.623 3.722-7.323-.102-.39-.116-.537-.116-.537 5.294-1.057 6.561-5.35 6.675-9.145.247-2.537.586-4.841 1.44-6.926 23.96 1.92 39.399-15.72 40.058-16.338zm-41.754 2.65c2.718-.01 4.772 2.14 4.766 5.19-.023 1.276-.472 2.244-2.2 5.617-1.675 2.883-1.894 4.638-2.552 7.968l-1.703-1.53-3.098 2.792.044-4.068s1.068-1.358 2.796-3.298c2.19-2.43 4.172-5.561 4.081-7.32-.058-1.758-1.916-3.19-3.816-2.04-1.651 1.154-2.413 3.241-3.385 9.483-.172 1.106-.334 2.408-.424 2.692-.244.768-2.632 3.027-2.632 3.027-.203 0-1.146-4.581-1.146-4.581l-2.413.398c2.796-3.034 4.965-6.694 6.375-10.527 1.295-2.364 2.944-3.779 5.307-3.804zm-52.496.971s-4.804 9.979-13.238 16.469l-.054-3.907c4.9-3.8 8.633-10.348 8.627-10.334zm115.62.253c-16.675 17.266-38.439 49.059-11.43 93.724l3.568-4.117c-21.748-40.395-6.336-61.333 7.98-82.341zm-90.167 1.424c4.882 3.471 9.978 6.918 16.568 9.108-.351 1.174-9.41 8.797-2.91 15.846.272.369-.42 1.267-1.478 2.539-3.106 4.245-6.206 7.267-8.802 12.045l-.106 8.976-2.596-2.291zm89.525.827l.112 5.118c-24.776 30.112-21.986 57.224-7.982 82.196l-2.682 2.722c-22.955-39.509-8.634-69.292 10.552-90.036zm-61.122 3.028c-1.093 2.885-5.872 7.828-5.872 7.828s.633-4.813 1.032-6.332c.304-1.16.99-2.726 1.667-3.475 1.93-2.121 3.854.286 3.173 1.979zm-32.872-2.707l.464 40.343-3.482-3.511-.513-30.85zm-4.704 7.895l.693 27.392c-3.476-8.207-8.362-17.19-8.46-17.103 0 0 3.998-5.305 7.767-10.289zm27.505 8.57s.531-.445 1.364-1.401c1.806-1.826 1.97-1.838 1.803.623-.064.947-.01 2.16-.01 2.16 1.057-.613 3.55-3.557 4.254-3.026.545.511.984 1.578.996 3.235-.062 3.243-1.897 6.22-4.805 7.192-8.028 2.486-13.412-6.773-7.837-12.643.554-.583 2.132-1.664 2.891-1.45.939 1.716.906 3.62 1.344 5.31zm79.654-2.91c.467 1.278 1.064 2.542 2.69 3.113-.25 39.225-.063 108.67-.063 108.67l7.889 7.402-.052 3.234-10.454-9.57s-.561-81.896-.01-112.848zm7.833 1.818c.281 3.794-.361 7.79.29 11.687.643 2.696 1.617 5.125 1.697 7.777.073 2.426-.085 3.806-1.122 7.193-.723 2.363-.795 2.74-.962 5.104-.39 3.29.673 6.272 1.49 8.893 1.083 3.477.781 7.68-.953 13.225-.624 1.995-.744 2.837-.653 4.645.24 3.796 1.597 7.405 2.287 11.131.373 2.136-.009 4.929-1.325 9.667-.49 1.763-1.005 4.833-1.005 5.994 0 1.245.398 3.589.783 4.601 1.824 4.795 1.913 5.653 2.007 8.534.014 2.164-.611 4.353-1.379 6.257-1.278 3.042-.438 6.166 0 9.584l-3.144-2.686a11.634 11.634 0 0 1 .259-7.846c1.223-3.417 1.53-3.734 1.512-5.7-.022-2.607-1.517-5.69-2.136-7.524-1.097-3.255-1.101-6.447-.01-9.89.536-1.69 1.31-5.005 1.484-6.35.335-2.588.082-4.63-1.218-9.822-.633-2.533-.767-3.51-.812-6.032-.04-2.336.299-4.764 1.05-7.58 1.08-4.473 1.067-7.16-.34-11.31-1.136-3.43-1.454-5.756-1.164-8.487.168-1.585.601-3.07 1.33-4.553 1.346-3.364 1.552-6.582.55-9.793-1.723-6.573-1.695-9.912-1.525-15.845zm-8.836 2.15c-.274 26.882.005 57.657.005 57.657s-7.964 5.575-7.931 5.285c-10.261-16.919-14.172-41.843 3.75-64.323 0 0 2.885 1.23 4.176 1.382zm-121.111 6.408c14.522 27.116 16.411 54.509-7.6 82.611.774 2.484.647 4.8.262 7.066 4.681-3.644 42.221-41.14 10.605-93.347zm74.004-2.207l7.133.419.48 6.135-2.305 2.287s-.043-1.268-.073-2.403c-.037-1.386-.233-2.6-.362-2.557-.12.04-.25 1.658-.353 3.423l-.107 2.634-.797.797c-1.064 1.063-1.279.98-1.32-.517-.089-3.253-.081-3.476-.319-3.238-.134.134-.209 1.247-.241 2.929-.026 1.335-.12 2.615-.208 2.842-.181.466-1.537 1.677-1.88 1.677-.331 0-.312-.47-.315-2.494-.002-1.708-.18-2.645-.454-2.016-.065.15-.179 1.846-.203 3.224-.024 1.379-.114 2.638-.198 2.794-.296.553-1.697 1.738-1.943 1.644-.354-.136-.442-1.149-.43-2.843.005-.829.135-1.529-.184-1.754-.32-.225-.376.734-.29 3.17l-.024 2.65-.894.976c-1.418 1.46-1.515 1.39-1.518-1.131.063-1.995-.008-2.87-.401-2.712-.394.158-.237 1.123-.16 3.089.07 1.757.047 2.638-.072 2.861-.096.178-.555.696-1.02 1.15-.465.454-1.039 1.083-1.107 1.083-.108-2.117-.29-6.675-.29-6.675l-7.439-.328s1.523-1.809 2.17-2.156c.336-.18.862-.202 2.726-.121 1.272.055 2.981-.053 3.133-.111.559-.215-.606-.406-2.248-.513-1.096-.078-1.38-.05-2.596-.227l1.083-1.116.812-.807 2.373.077c1.436.048 2.503.04 2.668-.053 1.405-.277.09-.597-1.512-.6-1.563-.002-2.446-.005-2.446-.348 0-.349 1.749-1.936 2.247-2.04.258-.053 1.53-.105 2.828-.115 2.23-.018 3.04-.05 2.915-.42-.126-.371-1.603-.262-2.586-.305-2.73-.004-2.857-.108-.991-1.74l.904-.793 1.71.048c2.583.073 3.834-.03 3.834-.275 0-.221-1.681-.435-3.108-.435-.854 0-1.547.014-1.547.014.638-.83 1.322-1.503 2.069-2.243l2.305-.043c1.684.025 2.717.09 2.746-.218.028-.307-.603-.304-1.378-.309-1.047-.007-2.29-.096-2.455-.26-.177-.178.153-.67.884-1.325l.754-.682zm-70.617.08c19.953 32.594 12.75 67.814-9.497 89.735l-.653-4.277c21.003-25.54 24.67-51.913 7.68-82.942zm37.107 4.377c-3.582 5.386-9.06 10.7-11.127 15.098-.423.494-.56 1.61-1.218 1.833-.328 0-.435-.621-.353-2.059.062-1.083.163-1.446.687-2.503 2.827-5.161 6.103-8.87 9.72-13.771zm.84.521l3.31.21c-.735 2.343-1.728 4.014-2.9 5.535-1.502 1.949-3.31 3.914-5.415 6.312-3.05 3.472-4.578 7.009-4.436 8.563-.763.805-1.292 1.359-2.26 2.182l-1.932-1.776c1.432-7.344 8.366-14.093 13.632-21.026zm40.51 2.983l1.073.063c3.673.215 5.963.44 6.095.6.082.098.19.662.242 1.251.08.896.003 1.491-.469 3.625-.31 1.404-.659 2.648-.773 2.765-.423.43-.591.001-.788-1.992-.119-1.202-.166-2.079-.324-1.981-.075.047-.24 1.338-.193 2.3.123 2.507.107 3.121-.672 3.877-1.364 1.324-1.44 1.19-1.542-1.16-.043-.975-.275-2.397-.343-2.465-.296-.295-.394 1.056-.396 3.34v2.436l-.648.706c-.845.916-1.12 1.055-1.43.744-.193-.192-.122-.61-.122-2.001 0-1.632-.285-2.57-.594-2.257-.058.058-.073 1.636-.078 3.01-.004 1.376-.021 2.591-.038 2.703-.05.33-1.597 1.885-1.876 1.885-.325 0-.584-1.795-.584-3.263 0-.98-.21-1.152-.416-.614-.052.135-.092 1.51-.092 2.746v2.242l-.909.938c-1.215 1.258-1.413 1.184-1.416-.536-.002-1.483-.102-2.267-.401-2.267-.172 0-.213.702-.213 2.368 0 1.143-.074 2.274-.164 2.514-.09.24-.489.765-.885 1.17-.396.403-.802.734-.903.734-.168 0-.407-1.405-.344-2.01.014-.128.014-1.013 0-1.968-.032-2.279.123-2.182-3.514-2.296-4.267-.134-4.33-.16-3.045-1.402 1.22-1.18 1.048-1.135 3.877-.947 2.271.151 2.546.142 2.774-.087.14-.14.217-.29.174-.333-.043-.044-.909-.123-1.924-.18-2.81-.155-3.054-.357-1.865-1.546l.672-.677h2.876c1.94 0 3.26-.085 3.332-.201.187-.302-.583-.377-2.429-.485-.99-.058-1.924-.14-2.073-.184-.47-.138-.295-.612.498-1.353l.763-.715h2.538c2.356 0 3.509-.154 3.509-.464 0-.22-.468-.309-1.677-.324-1.711-.022-2.852-.188-2.93-.42.418-.808.994-1.26 1.668-1.934l2.581.092c2.598.092 3.413-.002 3.413-.455 0-.236-1.112-.406-2.552-.319-.927.056-2.05-.165-2.05-.493 0-.14.373-.63.832-1.082l.836-.822 2.528.101c1.41.057 2.914.043 3.026-.033.42-.288-.554-.512-2.142-.605-2.448-.142-2.608-.332-1.314-1.556zm-88.143 1.353c13.096 23.452 11.134 45.546-2.813 64.348-1.602-.932-3.308-1.44-5.133-1.633l-.353-56.625zm93.668 9.165c.262-.041.257.39.184 1.3-.06.73-.169 1.496-.247 1.701-.15.396-.27.414-1.542.232-1.448-.206-1.427-.468.165-2.035.77-.758 1.209-1.162 1.44-1.198zm-70.313 1.053s1.726-.01 2.588.02c0 0 .134 4.388.486 6.92l5.613.27-2.179 2.266-4.257-.136s-1.294-6.229-2.25-9.34zm66.89 2.654c.791-.014 2.866.342 3.109.585.19.19.196.658.029 3.49-.06 1.02-.122 3.213-.136 4.872-.024 3.003-.024 3.015-.372 3.064-.457.065-.51-.095-.633-2.073-.07-1.114-.223-2.09-.353-2.132-.15-.05-.135.932-.135 2.963v2.624c-.447.371-.86.862-1.373 1.122-.314 0-.482-.493-.638-1.866-.154-1.364-.305-2.324-.488-2.02-.043.07-.025 1.555.063 2.774l.16 2.219-.987.99c-1.011 1.02-1.138 1.104-1.3.842-.377-1.01.157-5.64-.754-6.226-.146-.077-1.356-.11-2.76-.17-2.37-.1-3.715-.138-4.045-.424-.2-.174.918-1.471 1.493-1.73.414-.188.883-.2 2.837-.069 2.263.152 3.404.135 3.103-.154-.078-.076-1.23-.244-2.131-.334-1.819-.18-2.46-.363-2.46-.7.423-.752.942-1.194 1.566-1.837l.88.092c.483.048 1.627.17 2.542.275.914.105 2.76.122 2.015.058.242-.242-.701-.49-2.01-.652-2.468-.306-2.692-.585-1.45-1.808l.763-.75c1.296.099 2.606.132 3.891.33.941.148 1.45.095 1.45-.223 0-.223-.469-.214-1.604-.44-.413-.082-2.537-.05-2.572-.677.501-.694 1.399-1.959 2.3-2.015zm-57.518 5.322c.377-.021.396.896.435 3.32.044 2.655.087 3.112.315 3.34.217.218.762.293 3.093.41 3.57.182 3.661.234 2.402 1.446-.875.843-.912.737-1.633.653-1.886-.22-4.644-.17-4.752.004-.186.302.016.362 1.74.493 2.099.16 2.673.234 2.673.59 0 .157-.357.618-.792 1.025l-.793.74-2.21-.088c-2.324-.094-3.518-.127-3.518.189 0 .19 1.327.402 3.432.609.546.054 1.106.063 1.136.155.075.228-.988 1.545-1.644 2.034-.533.398-.713.176-3.045.126-2.38-.051-2.585.039-2.14.479.105.105.498.116 1.386.178 1.457.103 2.156.32 2.156.682 0 .345-1.313 1.704-1.929 1.996-.542.258-.775.27-1.976.102-.947-.132-1.127-.33-1.102-1.218l.154-5.767c.142-5.353.186-5.625.894-5.524.303.043.374.407.455 2.223.086 1.932.167 2.315.488 2.315.12 0 .138-.766.063-2.63-.118-2.89-.122-3.319.759-4.156.392-.373.704-.671.889-.401.373 1.14.267 2.385.377 3.528-.01 1.152.437 1.393.541.295-.052-1.739-.066-3.3-.077-5.157l1.073-1.063c.566-.562.924-.916 1.15-.929zm-6.955 2.165c.426-.07 2.815-.03 3.161.048-.6.95-1.88 2.186-2.755 2.731-.22.012-.448-2.304-.406-2.78zm67.654 5.254l.508 3.572-3.9-.266zm-52.559.58a.157.157 0 0 1 .068.01c.281.108.361.797.473 4.113.053 1.561.16 2.784.257 2.9.112.136.598.203 1.503.203.734 0 2.117.046 3.074.101 2.087.12 2.142.208.899 1.436l-.841.831-2.615-.106c-2.681-.109-3.127-.064-3.127.305 0 .25.457.37 1.314.348.34-.01 1.193.036 1.895.101 1.566.146 1.598.265.43 1.523l-.84.903-.818-.11c-1.313-.181-4.764-.138-4.964.062-.321.322.097.46 1.668.556 2.437.149 2.861.22 2.861.498 0 .134-.344.591-.763 1.01l-.76.759-3.093-.16c-2.168-.036-2.91 0-2.958.14-.084.244.272.32 2.509.552 2.147.222 2.46.443 1.643 1.46-.896 1.115-1.233 1.24-2.924 1.077-1.86-.18-3.761-.184-4.036-.01-.428.272.012.453 1.334.552 2.002.149 3.17.363 3.17.657 0 .331-.662 1.182-1.304 1.672l-.527.401-2.286-.241c-2.277-.243-3.442-.122-3.118.203.094.094.942.227 1.88.295 1.718.124 2.572.346 2.572.7 0 .106-.438.626-.972 1.156-.541.536-1.15.892-1.15.892l-7.037-.631s-.36-1.256.347-4.67c.638-3.076.898-3.767 1.204-3.194.085.158.163.905.222 1.416.142 1.234.446 2.01.629 2.01.204 0 .203-.733-.063-2.46-.371-2.406-.414-2.501.502-3.47.786-.83 1.23-1.026 1.475-.648.068.106.163 1.197.256 2.112.164 1.61.26 1.979.469 1.77.135-.136.235-.596.087-2.983l-.189-2.32 1.03-1.049c.941-.958 1.048-1.025 1.237-.778.13.17.275 1.166.343 2.354.102 1.756.242 2.334.498 2.078.121-.12.062-4.108-.068-5.031-.084-.603-.042-.692.72-1.547.909-1.02 1.386-1.44 1.634-1.445.327-.007.506.994.508 2.325.002 1.42.113 1.982.246 2.16.341.458.38-1.146.3-2.73l-.092-2.891.938-.938c.887-.887.959-.926 1.208-.676.206.206.193.696.276 2.155.124 2.017.52 3 .633 1.6.06-.317.05-.934-.02-1.373-.07-.438-.127-1.434-.125-2.208.003-1.181.06-1.497.348-1.963.417-.674 1.644-1.725 2.03-1.764zm40.654 2.2s1.571 1.342 1.571 1.725c0 .17-.622.908-1.464 1.735-1.554 1.524-1.7 1.786-1.88 3.422-.068.61-.375 1.419-1.093 2.861-.55 1.106-1.344 2.398-1.344 2.398-2.48 2.962-4.818 5.676-9.165 11.93-.248.575-.261 1.15-.515 1.627-.196.354-.634.645-.828.726-.286.12-.86.475-1.276.793-1.623 1.239-2.67 2.871-3.141 4.9-.256 1.098-.407 2.084-.851 5.467-.182 1.391-.793 3.814-.793 3.814-9.34-.133-18.082 1.485-25.877 5.884zm12.48 1.435l2.079 9.44-2.141-.044-.213-6.854-6.68-.638 2.388-2.31zm-10.135.865c.572.583 1.284 1.223 1.803 1.856-1.786 5.97-7.443 13.718-13.06 21.403l-4.119-.45c-.072-.169 5.705-8.223 8.469-11.276 1.053-1.275 1.769-2.485 2.708-4.363.34-.68.934-2.44 1.39-4.275.972-1.17 2.815-2.877 2.809-2.895zm2.218 2.093l3.113 3.156.76 44.693c-4.801-3.768-10.459-6.559-16.493-8.683l1.053-2.403 1.16-1.247c4.104-4.44 3.19-9.221.068-12.6 3.803-5.546 7.248-9.677 10.146-15.09l-.039-3.713c-.034-3.421.232-4.113.232-4.113zm-37.242 1.866c.326-.033.367.793.45 3.136.077 2.191.169 3.229.314 3.456.195.306.382.332 2.968.411 2.729.083 3.296.162 3.296.455 0 .083-.35.503-.778.932l-.778.779-2.431-.039c-1.296.041-2.827.016-2.867.053-.215.2.594.472 1.779.474.737.001 1.91.132 2.045.184.46.176.244.63-.76 1.595l-1 .966-2.209-.043c-1.213-.022-2.69.013-2.88.077-.672.223-.338.405.773.42 1.858.026 3.14.18 3.195.47.027.14-.318.655-.774 1.145l-.826.885-3.248-.136c-3.071.023-3.486.252-.923.508.978.097 2.521.339 2.576.348.055.008.142.124.193.256.108.28-1.129 1.674-1.788 2.015-.34.176-.576.187-1.165.054-.692-.157-3.668-.129-3.988.062-.269.161.315.346 1.141.363 1.243.025 2.726.385 2.726.681 0 .244-.63 1.024-1.3 1.61-.31.271-1.048.029-3.103.097-1.407.046-2.344.177-2.344.27 0 .086.698.362 1.595.426.888.063 2.107.275 2.19.357.208.21-1.373 2.077-1.373 2.077l-6.754-.095-.622-7.153.575-.663c1.292-1.493 1.574-1.276 1.832 1.402.189 1.962.329 2.561.613 2.277.104-.104.062-1.224-.043-2.871-.086-1.356-.16-2.592-.16-2.746 0-.373 1.536-1.986 1.837-1.928.295.056.46.724.619 2.557.13 1.505.2 1.916.498 1.619.138-.14.158-.927.02-2.833l-.185-2.489.653-.773c1.309-1.553 1.566-1.38 1.725 1.14.108 1.7.272 2.596.585 2.596.105 0 .108-1.27.044-3.19l-.097-2.88.817-.832c.45-.456.909-.827 1.015-.827.318 0 .5.723.7 2.431.226 1.914.3 2.244.484 2.06.079-.079.062-1.237-.043-2.727l-.227-2.851.995-1.01c.549-.554 1.099-.986 1.223-.962.3.057.494.92.517 2.14.022 1.14.216 2.121.47 2.374.124.126.161-.576.13-2.61-.05-3.131-.129-3.37 1.28-4.838.377-.392.623-.645.793-.662zm36.463 1.279l.03 4.37c-1.752 3.75-5.8 9.243-9.904 15.14l-2.141-1.16c5.134-6.73 9.426-13.002 12.015-18.35zm-58.62 1.374a4.57 4.57 0 0 1 .324.01c1.108.064 1.138.447.107 1.411-.432.404-.924.725-1.112.725-.32 0-.335-.048-.237-.88.12-1.023.245-1.26.919-1.266zm66.9 3.152l3.027 2.977.758 32.007-3.185 5.194zm3.79 4.218c2.728 6.419 5.562 12.438 8.7 17.318l-8.089 11.42zm-27.212 9.977c3.719-.051 7.143 2.892 7.574 5.883.813 3.434-.956 7.134-3.859 8.27-1.012.363-1.604.387-1.604.387-.353-2.07-.2-4.066-.67-6.168 0 0-1.741 2.296-2.721 3.1-.508.28-.736.356-.67-.31.034-1.162.123-3.742.123-3.742l-4.297 4.447s-.35-.484-.764-1.59c-1.35-3.614.403-7.387 3.17-9.121a6.865 6.865 0 0 1 3.718-1.156zm57.17-.27l.082 3.913c-6.744 5.228-16.364 16.245-24.607 30.604l-3.63 1.53c5.593-13.364 17.4-26.974 28.155-36.047zm.074 5.145l.071 5.832c-5.95 5.72-11.121 11.63-15.62 19.237a1141.783 1141.783 0 0 0-7.494 3.659c-.609-.148 13.256-21.733 23.043-28.728zm-60.027 4.994c.272-.003.258.522.173 1.282-.193 1.722-.395 2.347-1.025 3.186-2.18 2.573-5.643 6.073-6.114 9.328-.239 1.74 1.119 3.367 2.452 3.2 4.144-.518 4.589-7.88 4.938-11.512.146-.9.213-1.656.363-1.94.873-1.114 1.811-2.2 2.99-3.08l.507 5.628 2.334-.78c-6.583 8.947-4.691 9.508-8.164 13.173-3.227 3.406-9.487-.474-7.885-5.652 1.392-3.484 3.547-6.98 4.129-10.713.158-1.108.25-1.878.25-1.878l1.497 3.123c.761-.751 2.983-3.233 3.555-3.365zm60.272 1.93l-.015 4.017c-3.069 3.457-5.718 6.111-8.854 10.889l-4.98 2.27c3.25-6.193 8.585-11.988 13.85-17.176zm-60.857 3.545s.33 1.875-.398 5.281c-.345 1.615-1.9 6.33-4.356 5.218-2.086-1.842.456-5.26 1.737-6.876.99-1.16 2.065-2.414 3.017-3.623zm-6.555.481l-1.359 2.905c-12.203.045-24.054 4.41-34.603 13.321l-2.668-.875c11.176-10.57 25.03-15.708 38.63-15.35zm12.828 2.233c13.752 4.605 20.102 11.324 25.304 18.371l-2.175 1.115c-5.45-7.055-12.178-13.51-24.705-17.243zm-15.757 4.346l-.585 2.489c-7.701.231-15.829 2.964-23.737 8.454l-2.852-.455c7.96-6.245 17.05-9.811 27.174-10.488zm35.197 16.815l-2.442 1.153c-7.289-9.456-13.88-12.148-21.368-14.556l.807-2.098c10.063 2.67 17.446 7.779 23.003 15.501zm-101.635-11.15l.21 25.234-1.756-.351-.25-24.403zm-4.07 1.369c-3.35 12.552-.752 15.801.46 23.126l-2.774-.444c-2.701-7.42-2.978-14.171-.7-22.05zm84.293 1.927c.21.2-.17.816-.687 1.121-.5.296-.39.25-1.189-.038-.778-.281-1.769-1.016-1.769-1.296.567.01 3.147-.017 3.645.213zm2.363.179c.459.055 1.786.03 1.87.445.03.248-.49.65-1.556 1.377-1.618 1.105-2.168 1.323-2.644.798-.45-.498-.318-1.013.44-1.712.739-.68 1.166-.911 1.89-.908zm-55.242.275c.927 0 2.586 1.146 3.587 2.475 1.013 1.588 2.18 3.218 3.122 4.824 2.141 3.65 3.794 7.354 5.177 11.146 3.623 9.016 5.75 17.758 7.516 26.444-.033.732-.668.718-1.19.546-.27-.087-.539-.268-.594-.406-.749-2.128-1.008-4.303-1.58-6.438-1.43-5.341-1.943-8.4-4.698-15.931-1.43-3.908-3.5-9.349-5.762-13.53-1.45-2.68-3.127-5.157-5.302-7.346-.576-.573-1.29-1.096-1.29-1.209 0-.37.36-.575 1.014-.575zm58.77.29c.86.211 2.933.454 2.147 1.141-2.915 1.121-3.86 2.335-5.404 3.572-.234 0-1.155-1.142-1.155-1.421 1.253-1.54 2.833-2.198 4.413-3.292zm-54.555.01c1.218-.044 2.41 1.53 2.973 2.523 3.747 5.514 6.955 13.377 9.594 21.084 2.841 8.294 4.645 16.27 5.428 21.93-.067.175-.419.24-.822.237-.767-.006-.876-.184-1.073-.794-1.954-9.361-4.577-19.024-7.752-27.227-1.706-4.37-3.64-8.76-6.361-13.166-1.856-2.72-2.91-4.147-2.828-4.36.056-.145.362-.217.72-.217.04-.005.082-.009.121-.01zm-8.376.164c1.644-.005 4.364 1.946 6.21 4.452 3.916 5.368 6.158 11.64 8.483 17.724 2.67 6.973 4.597 14.723 5.747 20.823.196.874.516 1.257-.309 1.532-1.25-.357-1.222-.322-1.576-1.841-.486-1.634-.635-3.284-1.097-4.945-2.64-9.5-5.597-20.041-10.508-28.62-5.9-9.443-7.616-6.816-8.565-8.482.073-.376.73-.64 1.615-.643zm14.196 2.306c5.07 8.821 7.305 14.238 8.847 19.566 2.337 8.074 5.104 14.522 6.32 23.95 0 0-1.332.024-1.866-.194-.22-.22-.455-1.161-.594-1.933-1.217-6.657-3.2-14.534-5.307-20.74-2.271-6.91-4.973-13.48-8.966-19.827-1.047-1.71-1.246-2.383-.605-2.412 1.144.078 1.647.958 2.17 1.59zm52.82-.943c.235.002.33-.032.759.116.671.231.885.377.923.643.055.387-.36.513-1.658.817-1.02.238-3.01 1.3-4.394 2.45-.642.534-1.194 1.107-1.348 1.107-.318 0-1.078-.836-1.078-1.184 1.06-1.619 4.432-3.84 6.796-3.949zm-69.858.218c4.291.13 7.65 5.115 9.41 8.478.686 1.315 1.576 2.746 2.248 4.248 3.484 7.788 6.44 17.556 7.883 23.796.695 3.002 1.497 5.203 1.214 5.79-.354.224-1.101.053-1.446-.237-.22-.185-.34-.873-.73-2.126-1-3.216-2.658-12.407-6.979-22.065-.097-.216-2.188-6.326-5.8-12.123-1.471-2.36-3.85-3.842-6.018-4.326-1.091-.178-1.416-.048-1.348-.638.042-.375.16-.477.744-.662.26-.082.533-.128.822-.135zm26.825 19.919c-.294 0-.553-.56-.749-1.48-.096-.452-.228-.773.619-1.305 5.324-5.662.746-13.975-5.945-14.698-.62-.095-1.42-.097-1.653-.184-.34-.192-.963-1.396-1.234-1.88 9.248-2.24 19.063 10.997 8.962 19.547zm46.068-18.498c.551.138 1.75 1.251 1.6 1.493-.18.291-1.217.301-2.711.566-3.18.563-4.544 2.636-6.023 4.176-.328.1-.62-.128-.913-.628-.217-.37-.392-.812-.392-.986 1.653-2.407 6.08-4.841 8.44-4.621zm-75.068.71c2.703 0 5.405 1.311 6.926 3.447 5.55 8.307 11.785 26.771 13.273 35.879-.151.293-.546.324-1.315.101-.43-.124-.377-.261-.648-1.107-1.743-6.635-3.654-13.077-5.901-18.986-1.159-3.045-2.521-6.021-3.804-8.695-.813-1.691-2.445-4.702-3.065-5.621-1.459-2.742-4.408-3.546-6.267-2.66-1.923 1.04-2.165 3.525-.701 4.628 1.215.849 3.133.709 3.836-.605.241-.466.165-1.043.01-1.19-.15-.14-.423-.1-.479.054.1 1.614-1.959 1.718-2.858 1.082-1.436-1.073-.48-4.47 3.433-3.103 1.51.794 2.016 2.297 1.3 3.891-.732 1.632-1.867 2.374-3.62 2.364-2.127-.039-4.54-1.531-4.558-4.215.006-2.003.934-3.669 2.673-4.785.645-.413.897-.479 1.764-.479zm22.896 1.247c6.56.302 9.575 8.024 6.124 12.683-.88 1.114-1.437.911-1.813-.526-.184-.59-.39-.68.14-1.136 3.073-2.944.55-8.668-4.514-8.899 0 0-.945-1.376-1.04-2.107.34-.123.794-.015 1.103-.015zm54.71.532c.498.122 1.551 1.133 1.551 1.489 0 .42-.206.34-1.372.14-2.76-.494-5.523 1.103-7.83 4.587-1.12 2.092-1.258 1.894-1.847.092-.302-.925-.307-.904.865-2.61 2.19-2.809 5.423-4.092 8.633-3.698zm2.566 3.543c2.308 2.097 1.232 6.716-1.888 7.193-2.751.318-5.195-2.656-3.462-4.68 1.126-1.222 2.536-1.346 3.403-.294.896 1.084.517 2.563-.76 2.716-.148.053-.27.168-.27.256 0 .27 1.132.197 1.518-.116.776-.856.79-2.164.096-3.098-.613-.827-1.923-1.485-2.972-1.059-1.85.663-3.736 3.172-4.814 6.332-.303.889-.481 1.723-.61 1.92-.263.401-.244.391-.487.236-.214-.136-.61-2.07-.61-2.808 0-.56.483-2.038 1.122-3.306 2.003-3.724 6.51-6.222 9.734-3.292zm-56.258-.938c2.687.162 4.813 3.967 3.644 6.618-.361.487-.882.818-1.124.512-.087-.11-.501-1.355-1.073-2.673-.572-1.319-1.1-2.608-1.262-2.93-.427-.914-.736-1.535-.185-1.527zm-18.254 2.21c3.06 5.42 5.62 11.637 7.743 17.704 1.654 4.728 3.01 9.366 3.79 13.466.073.414.176.631-.006.812-.3.3-1.761-.447-1.761-.447-2.56-8.818-4.627-17.66-10.72-28.891 0 0-.265-.446-.336-.737-.081-.703.124-1.593.552-2.09.173-.185.406-.198.738.182zM33.68 240.553c14.473.973 25.67 7.07 31.65 23.18-2.126-1.197-12.904-9.467-31.486-10.564l-.03-2.233c13.321-.109 26.316 6.824 26.044 6.723-4.955-10.217-17.407-14.356-26.218-14.626zm100.415 3.256c-.912 1.43-.872 1.372-1.31 2.606.051.4.124 2.898.184 4.355.077 1.856.13 2.665.276 2.842.248.299.752.346.971.077.087-.106.237-.507.338-.89 1.195-4.513 1.757-6.202 2.238-6.761.317-.409.425-.371 1.736-.223 2.95.262 3.952-3.254 2.025-4.669-2.58-1.435-5.317.97-6.458 2.663zm3.114.96c-2.108 1.734-2.17 4.232-2.81 6.532-.342 1.548-.826 2.363-1.02.03-.358-3.239.093-5.657 1.497-7.558.869-1.399 2.296-2.34 3.579-2.43 2.76-.194 3.043 1.994 2.275 3.169-.557.853-2.104 1.225-3.521.256zm-99.701 1.041a1.885 1.885 0 1 1 0 3.771 1.885 1.885 0 0 1 0-3.77zm6.008 1.29a1.685 1.685 0 1 1 .005 3.37 1.685 1.685 0 0 1-.005-3.37zm5.476 1.847a1.37 1.37 0 0 1 1.368 1.373 1.37 1.37 0 1 1-2.74 0c0-.758.614-1.373 1.372-1.373zm3.886 2.46a1.062 1.062 0 0 1 0 2.122 1.062 1.062 0 0 1-1.063-1.058c0-.585.478-1.063 1.063-1.063zm-13.616 3.383c-.403 2.044-.087 4.145.382 5.593 1.073 3.121.585 8.707.585 8.707l-3.142 3.145c.225-2.931.574-6.01.412-8.472-.112-1.633-.851-3.16-1.043-4.8-.178-1.518.09-4.556.09-4.556zm5.092.942l.11 13.323-10.755 10.42-.015-2.75 9.17-9.091-.195-12.345zm26.52 30.38l-.706 1.15H82.3l.256-1.15zm15.703 0l-.285 1.15h5.617l.187-1.15s-2.953.002-5.519 0zm9.203 0l-.179 1.15h20.852l-.31-1.15zm24.37 0l.334 1.15h5.554l-.46-1.15zm9.286 0l.406 1.15h9.546l-.793-1.15z"/></svg>