<svg xmlns="http://www.w3.org/2000/svg" width="224.225" height="312.808"><title>Vectorized Playing Cards 1.0</title><rect ry="10.63" rx="10.63" width="223.228" height="311.811" x="2243.739" y="483.937" fill="#fff" stroke="#000" stroke-width=".997" transform="translate(-2243.24 -483.438)"/><path d="M192.583 36.668l-11.525 7.512-.16 8.762c-6.835-3.28-9.806-8.651-10.882-14.944-1.933 2.439-1.55 14.75-1.55 14.75-1.756.911-2.398 2.1-3.52 3.17 1.102 1.821 4.223 4.92 4.223 4.92-.022-.055-1.431 12.818.273 13.331 1.558-5.486 3.631-10.274 11.267-15.292 0 0 .115 20.437-.374 40.181-3.23-2.223-10.06-6.217-14.473-10.304 5.722-7.379-.112-16.997-8.65-10.609-5.535-2.995-6.384-17.143-7.753-24.553-.264-1.487-1.552-5.846-1.552-5.846s-18.236-5.043-26.067-4.633c6.577 17.139 5.3 38.025-23.807 41.937-13.947 6.378-30.06 13.487-45.719 26.768-2.885 19.776-13.084 29.512-20.287 34.898.052 8.014-.053 15.947.277 24.035-.007.05 6.573-4.32 7.607-3.515 5.499 35.741 25.637 42.827 23.623 43.818-.324.16-6.599 6.609-6.599 6.609l-24.578-16.19c-.842 24.712-.354 49.911 0 74.665 4.34-2.453 12.316-8.32 12.316-8.32l.12-8.408c-.036-.799 11.178 7.004 11.205 16.299.873.594 2.786-13.376 1.044-14.888l4.596-4.742-4.95-4.766s1.256-7.91-1.31-12.468c-1.662 10.432-10.322 13.685-10.322 13.685s-.169-38.131-.393-38.165l15.448 9.78c-1.15.237-4.092 5.705-1.023 10.134 1.87 2.698 8.589 2.52 9.106-.587 9.5 8.854 5.843 19.438 9.998 31.997l26.959 4.946c-11.11-20.613.946-44.1 22.765-42.422 4.087-1.702 7.787-4.16 7.787-4.16s-2.713-4.434-6.139-8.548l-46.698-.771 21.769-40.814-14.318-.461s11.636-24.677 9.122-26.665c-.883-.698-.514-8.655-.514-8.655l12.789.475c.506-5.696-6.185-27.399-15.625-41.592l52.487.47-29.548 41.21 15.87.455-9.47 19.453 1.518 15.172-14.08.455c2.427 21.034 18.052 43.195 23.545 50.04 9.08-2.153 26.034-15.128 36.555-23.195 1.364-14.115 6.224-26.131 18.93-35.095l.039-23.236s-7.252 4.681-7.25 4.358c.029-5.03-2.593-15.499-7.429-24.83-5.189-10.014-13.707-19.084-15.667-19.652 4.506-6.817 6.429-7.428 6.364-7.536l24.543 15.74zM68.878 86.214s-4.774 1.816-8.922 1.76c-7.433.383-13.102.982-16.117 7.079-.613 1.856.73 2.54 1.716 3.026 5.604-6.957 20.494 2.232 23.323-11.865zm-32.996 31.924c0 .982 1.098 2.588 1.649.921.477-1.19.574-3.118.038-4.306-1.492-.84-1.669 2.422-1.687 3.385zm80.494 33.66l-7.259.033-.044 8.52 7.395.349zm71.3 42.411c-.16.847-.942 4.653.83 3.99 2.09-1.608.31-9.008-.83-3.99zm-6.833 21.387c-.857-1.249-3.508 1.856-5.684 1.973-9.671.517-16.796-.777-18 9.34 5.576-3.56 13.39-1.937 18.424-3.089 3.64-1.207 7.814-4.502 5.26-8.224z" fill="#e2cf00"/><path d="M31.069 287.707c-1.086-88.702-.567-176.257-.263-263.967l163.717.918c-.586 87.537-.697 175.34.466 263.75zm7-170.65c.14-2.538-.904-3.59-1.809-1.844-.214.413-.917 4.824.752 4.97 1.096.097.996-2.037 1.056-3.126zm-2.65 2.977c-.01-.598-.38-.859.437-6.074-1.56-.601-2.91-3.133-1.774-4.734.443-.624.314-.761.133-1.286-.448-1.296-.211-2.352.992-3.178.769-.529.803-.669.556-1.364-.634-1.791-.04-3.54 1.674-4.135 1.187-.413.958-.472 1.083-1.225.28-1.684 1.21-2.703 2.9-2.533 1.572.159 1.676.16 1.81-.608.374-2.125 2.95-4.445 6.312-6.022 1.67-.783 4.437-1.338 9.74-1.323 3.038-.053 6.825-.459 8.95-2.326.35-.327.838-1.187 1.007-1.07.396.273.3 2.388-.476 4.317-2.261 5.62-5.322 7.168-13.973 7.117-2.58-.122-6.38.227-7.99 1.867-.48.508-.8.988-.62 1.25 3.584.508 7.264 2.125 9.406 9.197 6.5-4.607 16.86-11.664 29.706-18.043-1.543-8.452 5.787-9.756 9.897-8.074 0 0 .105-.551-.054-1.19a6.602 6.602 0 0 0-1.141-2.488c-.191-.382-1.345-1.109-1.118-1.684.373-.94.207-1.2-.58-2.066-.512-.563-.173-1.766-.049-2.251.162-.906.759-2.198.232-2.685-.814-.753-3.587-2.028-5.015-3.041-1.579-1.149-1.61-2.182.704-5.957 1.054-2.195 2.05-4.552 2.89-6.13 1.27-2.384 1.402-3.956.632-5.324-1.006-1.785-.84-3.904-.816-3.85 0 0-9.495-13.508-13.406-18.818l-44.42-.145-.436 101.554 7.918-7.303-2.076-2.456c-.293 1.426-.027 2.821-1.786 2.902-.6.02-1.154-.23-1.249-.82zm26.396 135.407c.253-4.016-1.67-10.59-4.565-15.144.125 3.458.374 7.687-.32 11.068zm70.094 10.48c-.35-.114-3.265-.292-5.096-.389-6.071-.322-10.013-3.234-12.645-7.262-.646-.99-.379-.945 1.056.175 4.03 3.15 7.804 5.033 11.116 4.56 4.696-.669 7.23 1.052 6.579 3.058-.114.351-.152.133-1.01-.143zm-15.903-8.96c-.94-.814-1.01-1.18.105-.438 3.409 2.269 7.524 5.973 12.61 3.803 1.055-.676.085-.587-1.68-.4-2.7.288-5.987-1.083-10.032-3.875-1.976-1.364-1.106-2.515 1.118-1.446.687.33 1.383.572 1.827.6 2.189-1.453 6.79-1.436 6.682-1.428.525-.45-1.194-1.167-3.753-2.134-1.661-.627-2.063-.885-.826-.933 1.08-.042 2.78.497 4.007 1.29 2.046 1.315 3.076 2.044 3.687 2.13 1.003.079 2.027.223.305 1.022-.783.363-.714.456-.624 1.334.14 1.374.223 1.359.857 2.135 1.068 1.178 1.534 3.37.01 1.998-.329-.152-.363.14-1.26.502-5.272 1.487-9.198-.834-13.033-4.16zm9.728.393c.294-.387.736-1.376.796-1.652-.102-.64-.671-.44-.96-.08-.491.604-1.18 1.492-.614 1.795.268.144.53.264.778-.063zm-1.8-.416l1.172-2.088c-.29-.135-4.258.684-3.635 1.253.55.505 2.464.835 2.464.835zm4.469-7.007c-1.808-.966-2.335-3.05-.984-4.434 1.135-1.163 3.06-1.065 5.362.353.81.499 1.308.752 1.862.547.929-.342 1.284.18 1.208.907-.169 1.602-2.664 1.994-4.238.166-2.081-2.417-4.343-.73-3.68 1.017.338.89.993 1.029 1.746 1.363 0 .174-.75.362-1.276.081zm-8.24-10.77c2.994-.806 7.446 2.36 9.86 1.93 1.047-.224.9 1.283-.187 1.83-1.27.638-3.076.208-6.906-1.79-3.156-1.704-5.708 1.122-3.6 3.23.453.425 1.112.682 1.92.644 1.067-.05 1.38.241.006.595-.791.203-2.261-.118-2.973-.838-1.699-1.72-1.28-5.026 1.88-5.6zm-63.375-9.25c-.089-3.559 1.813-5.536 1.861-5.55l-13.459-9.13.2 36.467c6.67-4.234 8.858-9.57 9.24-16.457 13.166 14.746 9.057 32.697.834 42.92-.338-6.257-2.205-13.65-9.808-17.439l-.014 7.464-12.615 8.945.076 8.245 29.681.093 14.355-20.96c-2.597-9.507-2.207-17.417-3.963-21.767-1.318-3.576-3.821-8.195-5.439-7.478-5.47 4.33-10.842-.723-10.949-5.352zm11.326 4.21c4.662 3.356 5.906 8.842 6.862 13.718.032.041 2.447 16.529 2.524 16.75.312.905.208 1.807-.591 2.494-4.305 5.904-12.721 18.568-12.721 18.568l82.489.485c-4.402-6.402-7.839-12.731-12.02-17.995.176-.28-.326-3.876-1.023-5.038-.718-1.198-.883-1.825-.397-2.92 1.206-2.698 2.444-5.622 3.56-8.098 2.133-4.743 2.378-4.782-.537-6.322-3.454-2.012-4.07-2.666-3.345-4.962.264-.835.297-1.17-.772-1.388-.495-.1-1.7-.389-2.51-.613-2.33-.735-1.656-.279-2.509.325-.65.32-1.208-.911-1.97-2.366-.875-1.672-1.096-1.712.352-.85 2.682 1.594 7.443.974 5.765-.872-.818-.9-1.576-1.363-1.49-3.401.086-2.024.117-2.617-1.257-2.898-2.748-.563-5.736-.328-8.295.31-7.786 1.944-14.032 8.698-16.401 13.717-.533.875.692.83 1.22.833 2.552-.227 4.362 3.839 2.693 5.662-.773.813-1.543.314-.719-.743.94-1.748-.461-4.06-2.516-3.471-2.585.74-2.658 4.083-2.979 6.413-.88 6.711 2.529 15.684 3.363 17.514 0 0 .182.273.12.273-.063 0-.472.378-.646.18-.598-.68-2.11-6.17-2.93-10.093-1.587-10.848 1.22-20.823 10.246-26.49 7.996-5.767 12.022-4.526 16.562-4.792 1.55-.558 3.701-1.404 5.33-2.202 7.996-4.368 14.475-8.092 21.27-11.791 6.594-3.591 11.017-8.717 17.046-11.92.274-.146.557-.485.839-.623 7.5-6.517 14.91-12.915 19.383-17.374.542-.545.99-1.282.99-1.282l-.758-37.6s-.754-.627-.75-1.226c.007-1.304-.477-1.055-3.16.832-3.37 2.372-3.6 2.253-3.6 2.253-1.784-17.251-11.113-34.215-22.42-44.135l.464-.635s3.782 2.498 5.67 3.686v-2.406l-4.553-2.852s-.406-.33.037-.931c.244-.332.867-.086.867-.086l3.65 2.69v-2.196l-2.95-1.88.944-1.19 1.58 1.024c-.67-1.738.278-1.677 1.25-.524.406.527.928 1.204 1.149 1.844.084.245.336.844.336.844l2.587 1.925s-.099-.938-.007-1.226c.436-1.364 3.559 3.037 3.167 3.14l2.649 1.91c.627-.956 2.988.949 3.085 1.888.208.409 9.13 6.148 9.13 6.148l.098-3.17.962-1.252.433-73.24-11.848 7.573-.13 8.866c-5.596-1.81-10.444-9.917-11.153-14.973-.365-.2-1.985 9.973-1.128 14.425-1.48 1.102-3.971 3.676-3.952 3.69l4.488 4.91s-.896 7.52-.687 11.256c.182 1.772.217 1.952.747 1.955.43.003.817-.462.82-.867 1.054-4.473 4.516-11.453 10.508-13.83.396-.012-.032 39.901-.032 39.901l-14.869-10.143c-.74-.636.971-.595 2.016-3.973 2.694-8.713-6.652-11.791-10.262-6.746-.594-.004-3.075-3.07-3.446-4.35-2.75-5.541-3.276-11.821-3.81-16.858-.323-2.29-1.163-6.046-1.86-8.306-.372-1.208-.41-2.08.393-3.204 3.683-4.974 7.249-10.2 10.352-15.3 2.832-3.72 2.279-3.908 2.279-3.908l-82.706-.267 13.222 17.417 1.339.521c-2.288.295-1.51 2.295-.622 4.446 1.091 2.644.97 3.19-1.8 8.637-4.061 7.985-4.28 7.284-.228 9.756 2.502 1.602 2.957 1.951 2.59 4.127-.369 2.175-.471 1.502 1.595 1.68 1.105.095 1.985.295 2.482.52.565.256.986.612 1.713.374 1.223-.401 1.253-.105 1.302.792.02.382.598 1.17.777 1.463.471.773.251.901-.613.358-2.659-1.676-7.105-.96-5.47.861.674.75 1.352 3.245 1.41 4.485.104 2.218 1.544 3.004 4.57 2.548 5.812-.433 18.917-7.648 21.97-15.75-6.712 2.285-5.333-5.952-2.94-5.692 0 0-.644 1.46-.664 2.294-.073 2.946 2.395 3.174 4.094 1.087.74-1.095 1.637-5.167 1.196-9.763-.535-5.566-2.79-11.792-3.199-13.337 9.599 22.912.784 32.987-12.704 39.562-5.166 2.158-5.875 2.144-8.919 2.286-2.083.169-3.962 1.204-5.961 1.861-11.541 5.509-25.724 12.377-38.41 22.624-9.104 6.744-16.335 12.806-23.524 20.595l-.03 40.427c2.163-.336 5.671-2.441 7.75-3.653 2.38 15.1 10.145 32.585 23.007 43.042-.007-.004-.303.57-.31.566-1.832-1.217-3.663-2.427-5.438-3.36l-.092 1.924 4.328 2.976c.115.462-.742 1.108-.742 1.108l-3.573-2.468-.027 1.959 2.766 1.763c.747.749-.906 1.14-.906 1.14l-1.638-1.188s.117.951.067 1.12c-.427 1.446-2.794-1.748-3.221-3.341l-2.329-1.38c.33.943-.503 1.075-1.162.84-1.75-.888-1.653-2.378-2.018-3.261l-3.098-1.965c-.533 2.951-3.682-1.206-3.184-2.201l-3.974-2.704c.22.082-1.515.44-2.102.057-.676-.441-.913-2.243-.913-2.243l-2.383-1.475v2.582l24.505 17.11-.353.664-25.561-17.488 1.035 75.9 12.462-8.621c-.239-2.84.285-5.377.05-8.614 6.403 3.985 8.558 6.696 11.382 15.066 1.828-4.764 1.506-9.336.686-13.565 1.637-1.34 3.23-2.641 4.053-4.66-1.54-2.12-3.046-2.716-4.668-4.682-.127-2.398 1.277-9.54-.607-11.894 0 0-3.443 10.374-10.858 13.492-.226-10.954.03-38.492.03-38.492s7.622 5.26 11.508 7.398c1.827.975 3.1 1.586 3.124 2.28.012.353-.721.803-1.044 1.3-.2.309-1.044 3.272-.715 5.589.149 1.708.954 2.788 1.725 3.606 2.445 2.596 6.923 1.372 8.696-.63zm14.752-19.386l29.315-41.007c3.488 15.09 9.376 28.91 17.056 41.437zm14.496-43.102s2.046-4.055 2.984-6.206h-3.591l2.148-2.41h5.346l-2.86 6.095h2.269l3.137-6.094h8.33l-2.913 6.094h1.918l3.117-6.094h7.745l-2.724 6.094h1.814l1.592-3.076.388 5.597h-7.694l3.041-6.206h-2.48l-3.435 6.206h-7.208l3.126-6.206h-2.74l-3.433 6.206zm23.738-21.837l3.108-6.566h-2.459l-3.438 6.428h-7.682l3.023-6.354-1.914.006c-1.298 2.004-3.368 6.074-3.368 6.074h-8.147s2.304-4.317 3.213-6.428h-2.01l-1.636 2.608c-.576-.973-.197-3.56-.293-4.658h7.68l-3.086 6.301h2.45l3.364-6.301h8.109l-3.303 6.301h1.92l3.274-5.956h8.25l-2.891 5.956h2.547l-1.123 2.589zm-7.59-11.441l-1.555.292c-1.99-17.014-11.406-34.36-15.391-41.523l46.848.659zm55.008-98.24s-4.467 5.745-4.766 15.383l4.255-3.398c-.27-9.78.511-11.984.511-11.984zM163.8 56.223c-.071 7.171 1.809 11.743 4.187 15.322.04-4.619.505-9.295.78-10.52zM47.814 193.429l-15.15-10.435v2.287l18.006 12.23zm-2.73-5.6c-4.058-2.038-12.42-8.345-12.42-8.345v2.087l13.312 9.352c.261.257.613.192.736-.096-.524-.884-1.155-2.088-1.628-2.999zm-3.717-9.06l-8.703-6.072v1.89c2.232 1.998 9.575 6.754 9.575 6.754zm-8.703-7.453l8.187 5.292-.509-2.343-5.815-3.949zM179.786 97.96l.438-37.707c-8.53 4.033-10.221 15.798-9.937 16.163-8.491-8.75-11.692-27.619.218-40.307.896 4.07 1.197 9.972 9.622 15.367l.216-7.987 11.805-7.54-.098-9.075-28.314-.221c-4.392 5.563-8.782 11.896-13.126 17.8-1.631 2.213-2.038 3.254-1.726 4.41 2.857 10.266 2.285 22.906 8.28 28.882 8.044-7.563 15.58 3.824 9.327 10.845zM57.45 261.017c1.088 3.434.34 10.361.27 10.361 1.298-.706 4.83-10.737 3.946-14.506m40.979-184.155c-2.003-.568-3.51-1.428-5.625-1.227-1.665.173-2.23-.378-1.216-1.284 1.328-1.125 2.615-1.589 5.075-.302 7.404 3.873 7.632-1.783 4.298-2.183-.946-.113-.902-.717.041-.564 5.173.206 3.596 7.058-2.573 5.56zm-8.656-5.648c-.98-.357-2.162-.954-2.597-.837-1.1.295-1.137-.31-1.006-1.025.316-1.727 2.082-1.414 4.416.072 3.344 2.129 4.626-.932 1.583-2.583-1.024-.556-.707-.71-.11-.735 1.586-.065 3.078 2.093 2.658 3.858-1.066 2.83-3.654 1.721-4.944 1.25zm9.798-5.227c-2.163-.375-5.297-3.284-6.752-3.483-.817-.093-1.778.006-2.04-.322-.799-1.005 1.465-1.005 1.62-1.37.005-.847.058-1.377.024-1.667-.4-.541-1.974-2.706-1.919-3.754.038-.065.826.58 1.231.582 3.863-2.036 6.504-1.133 9.765.306 1.347.595 4.825 3.291 4.868 3.719.074.723-1.474-.634-2.685-1.446-2.982-2.073-5.665-3.547-9.409-2.318-.583.2-.482.308 1.435.191 1.875-.114 3.41.46 5.804 2.023.595.388 1.313 1.05 1.741 1.254 3.012 1.435 3.668 2.846 1.751 2.464-.41-.082-1.205-.509-1.987-.785-1.376-.487-.89-.34-2.214.277-.465.217-1.584.673-2.503.782-.705.117-2.99.099-1.979 1.064 1.073 1.074 2.852 1.865 4.074 2.355.88.392.203.307-.825.128zm.257-4.676c1.411-.522.308-1.705-1.49-1.966-.411-.06-1.29 1.883-1.31 2.292-.014.304 2.028-.04 2.8-.326zm-3.892.21c.323-.206 1.407-1.772 1.408-2.021.006-1.005-1.281-.725-1.579.321-.361 1.273-.392 2.057.17 1.7zm-4.507-8.102c-1.159-.513-2.735-2.756-.933-2.377.389.09 2.412.194 3.718.2 4.445.02 8.876 2.033 11.694 4.963 1.568 1.63 1.669 2.836.079 1.713-5.637-5.06-9.096-4.118-14.558-4.5zm43.907 174.417l-1.573.837c.004.872.318.736 1.015 1.354 0 0-.965.157-1.671.11-1.15-.076-1.413-.057-.905.751.235.374.557.926.557.926s-.624.135-1.562-.122c-1.421-.39-2.15-.194-1.612.596.148.218.433.628.433.628-1.037-.236-2.943-1.162-2.943-1.162l-1.344.408c2.681 5.238 12.219 1.934 9.605-4.326zm46.519-7.474c1.474-1.237.758-2.754-1.396-3.866-.896-.463-.808-.47-2.26.384-1.792 1.052-1.918 1.106-.643 2.459 1.54 1.633 3.215 1.932 4.299 1.023zm-5.473-3.497c1.357-.601.853-.5.761-1.917-.395-1.633.529-1.746.986-3.27.19-.834-.516-.527-1.886.748-1.129.949-1.464 1.18-1.462.718.128-.385-.775-1.375-1.585-1.51-.685-.113-.62-.27.049-1.135 1.16-1.502 1.638-3.396.86-5.064-.985-2.11-1.31-2.42-3.485-.578-1.114 1.026-2.688 1.813-3.448 3.082-.544.933-.229 1.836.632 3.67 2.148 4.578 5.469 6.635 8.578 5.256zm7.62.04c2.39-.937 1.426-3.518-2.31-6.119-2.252-1.567-2.89-1.551-.979.148 1.224 1.087 1.415 1.47.89 2.252-.436.652-.896 1.419-.461 2.015.683.94 1.851 2.098 2.86 1.703zm-134.6-4.292l-2.605-1.645v2.25l2.606 1.556zm130.232 2.034c.517-.364.962-1.385.964-1.836.118-1.047-1.587-.796-2.4.361-.916 1.302.166 2.368 1.436 1.475zm5.835-3.543c1.188-1.244.61-2.569-1.828-4.148-.942-.616-1.42-1.02-1.305.203.035.373-.374.866-.637 1.161-.845.945-.47 1.115 1.939 2.641 1.226.778 1.162.845 1.831.143zM53.62 204.567l-2.606-1.574v2.043l2.606 1.758zm-5.697 2.039l.033-2.049-3.376-2.244-.048 2.283zm132.764-.828c-.435 1.172 1.315.64 1.416.521.303-.593.035-.648-.114-.711-.308-.13-1.498.076-1.302.19zm.764-1.481c.6-.193.67-.118.586-1.2-.126-1.633.12-1.763 1.205-2.482.867-.574.873-.487.859-1.489-.017-1.208.066-1.729 1.656-1.975.65-.1 1.023-.26 1.077-.774.09-.863-1.297-2.32-3.022-3.161-.255-.002-4.111 3.353-5.188 4.513l-.658.708.787 1.474c1.227 2.3 1.026 3.146.305 6.194-.148.816.482.698.646-.284.217-.918.342-1.251 1.747-1.524zm5.877-8.134c-.297 1.852.662 2.991 1.568 2.071.493-.5.907-4.589.564-5.238-1.86-1.991-2.06 2.722-2.132 3.167zm-29.963 30.666c6.916-4.05 15.804-.74 20.81-4.06 2.336-2.574 4.684-4.215 3.36-5.99-1.03-1.382-1.7-1.594-1.7-1.594.072.098-3.65 3.234-9.05 2.508-9.001-.31-13.256 2.517-13.42 9.136zm11.818-9.641c4.404.153 7.984-.612 9.622-1.89 1.016-.792 1.17-.932-.423-1.06-3.421-.276-6.885-4.241-7.97-8.088-.22-.791-.481-1.65-.481-1.65-9.113 7.273-29.172 18.73-29.172 18.73 1.331 6.19-3.154 9.884-9.23 7.685-1.057-.096-.92 1.264-.72 1.823.331.916 1.065 1.683 1.209 1.806.904.775 1.073 1.287.937 2.03-.135.732-.122.707.392.982.913.49.866 1.186.368 2.622-.537 2.021-.574 2.53.878 3.491 1.87 1.201 5.539 2.515 4.997 4.322-1.227 4.094-3.243 7.618-5.015 11.448-.658 1.06-.517 2.812.002 3.629.643 1.251.568 2.75 1.401 3.898 4.607 6.838 8.573 12.855 12.77 19.032l43.91.415-1.092-101.268s-6.77 6.665-6.748 7.136c.025.561 1.59 1.438 2.262 1.55.028-.304-.004-1.504.083-1.925.062-.61 2.016-.451 2.662.079.453.371.314 2.795-.144 4.767-.375 1.614-.323 1.636.37 2.569.843 1.136 1.135 2.1 1.024 3.384-.06.704-.055 1.26.144 1.726.47 1.094.331 2.636-.185 3.353-.748 1.04-.76 1.2-.598 1.755.614 1.928.385 3.57-1.765 4.405-.275.107-.576.582-.752.993-.937 3.084-2.696 3.08-5.101 2.192-1.702 6.636-8.628 8.304-13.615 8.107-5.198-.204-10.483.185-12.835 3.584.55-8.051 4.154-11.933 12.815-11.632zm15.683-13.37c.884-.33.993-1.25.251-1.842-1.139-.907-2.447.016-1.913 1.329.3.735.804.833 1.662.513zm-136.798-2.923l-3.462-2.398.02 2.148 3.45 2.214zm6.528 1.764l-2.449-2.938c-7.22-4.415-13.478-9.353-19.482-13.33l-.045 2.723 1.716.865s.146-.598.263-.944c.22-.649 2.206 1.178 2.838 2.64.158.364.5 1.179.5 1.179l2.314 1.277s.035-.656.036-.84c.008-1.392 2.483.525 3.611 2.802.274.552.632 1.138.632 1.138l2.177 1.322c.86-1.173 3.049.433 3.609 1.859.71 1.808 1.96 1.965 2.01 1.97zm-13.031-.395l.004-2.086-3.608-2.373-.046 2.115zm148.553.17c.094-.547-.446-2.678-1.256-2.797-.506-.074-1.299.693-1.302 1.228-.004.695 2.456 2.162 2.558 1.57zm-2.935-2.53c.788-.861-.207-1.983-1.411-1.594-1.431.463-.937 1.76.665 1.787.358.006.573-.005.746-.194zm-145.805-1.535l.013-1.989-3.333-2.203-.07 1.944zm-6.556-.702l.034-1.914-2.19-1.526v2.292zm.08-5.735l-2.237-1.458v2.075l2.338 1.337zm9.085-6.31c-.232-.614-1.176-2.554-1.176-2.554l-10.146-7.081v2.18l11.35 7.633zm-4.748-16.828l-.119-.887-.903.482zm-2.15.22l-1.418.769 4.286 2.787-.345-1.982zm148.846-23.487l1.106-.8-1.953-1.323-.146 1.342zm1.978-1.273l1.453-1.199-4.858-3.425.344 2.13zm3.443-1.792v-1.464l-7.877-5.319.544 2.675c1.389.802 3.085 1.974 4.86 3.22 1.124.794 1.128 1.1 2.473.888zm0-2.71v-2.322l-9.113-6.05.74 2.724zm0-3.486l.004-2.434-11.03-7.288 1.207 3.22zm0-6.113l-13.906-9.306 1.78 3.567 12.126 8.104zm0-3.555l-17.452-11.609 1.96 3.25 15.492 10.474zm0-3.774l-.653-.003c-.052 1.664-1.854.457-2.532-1.372-.512-1.225-.627-1.534-.627-1.534l-3.514-2.375c.073.483.277 1.861.277 1.861l-2.368-1.445s-.684-2.288-.706-2.304l-4.045-2.748c.086.468.154 1.24-.109 1.293 0 0-1.23-.525-1.792-1.343-.586-.852-.674-1.708-.674-1.708l-3.3-2.136-.822.088s-.445-.302-.864-.64c-.783-1.4-1.7-1.611-2.794-2.18 0 0 2.323 2.71 3.564 4.313a15.432 15.432 0 0 0 2.522 2.534l18.437 12.3zm0-3.795l-1.425-.855.105 2.245 1.32.898zm-143.73-4.942c.087-.141-.277-.304-.678-1.184-.992-2.182-1.09-2.942-.56-5.234.254-1.094-.74-1.563-1.196-.397-.355.907-.908 1.418-1.436 1.352-.499-.063-.604.146-.388.835.265.953-.31 2.194-1.11 2.532-.807.208-.954.72-.727 1.46.377 1.23-.95 2.27-1.992 2.21-1.611-.092-.98 1.374.962 2.77.719.518 1.04.797 1.605.536 1.47-1.388 4.202-3.374 5.52-4.88zm139.775 4.5l-.081-2.14-4.052-2.737.5 2.865zm3.955-.898v-2.157l-1.668-1.071.086 2.293zm-152.514-3.34c.388.392.774.428 1.39.057.711-.371.44-.933-.304-1.299-.695-.365-1.668.747-1.086 1.241zm-1.21-.946c-.054-.452.496-1.06.877-1.083.832-.05.685-.494-.267-1.07-.447-.27-1.238-.902-1.527-1.112-1.423-1.033-2.799.562-1.741 1.91.885 1.128 2.19 1.798 2.658 1.355zM187 114.74l-.314-2.384-3.66-2.432.29 2.625zM53.97 108.93c.199-.33.26-.646.24-1.045-.076-1.499-.849-3.261-1.932-4.736-.807-1.097-1.785-2.035-2.776-2.586-2.8-1.44-6.535-.82-5.991 1.034.387 1.253.296 2.302-.779 2.932-.731.428-.824 1.005-.05 1.006.56.001 2.049-.513 2.67-1.49.876-1.379 1.376-2.18 1.18.07-.082.94.035.87 1.494.795 1.978-.102 1.611.268.455 1.16-1.683 1.297-2.017 3.492-1.168 5.358.526 1.155.89 1.77 1.575 1.615 1.481-.972 3.898-2.927 5.082-4.113zm126.567 2.781l-3.602-2.37.142 2.536 3.889 2.296zm-138.233-2.32c-1.32-1.666-2.87.462-1.868 1.392.726.64 2.561-.015 1.868-1.392zm-3.122.232c-.164-.52.79-1.353.94-1.685.437-.965-3.472-3.65-4.687-2.059-.838 1.097-.257 2.194 2.002 3.694 1.363.906 2.016.905 1.745.05zm141.004-1.608l-3.33-2.073.059 2.19 3.535 2.132zm-5.87 1.96v-2.237l-3.353-2.338-.055 2.316zm-130.4-2.644c.609-.602.403-.797-.774-.737-.743.038-.971-.085-1.021.255-.111.754 1.17 1.1 1.795.482zm-2.79-.846c.06-.156-.361-.461-1.048-1.037-1.31-1.099-1.459-1.782-.198-2.638 1.796-1.221-.088-2.957-2.173-2.252-1.685.57-1.69 2.267-.689 3.358 1.372.914 3.86 3.55 4.107 2.569zm133.19-2.236l-3.298-2.262v2.203l3.299 1.924zm-132.57.144c1.47-.749 1.548-2.627.076-1.94-.606.285-1.401 1.053-1.403 1.401-.004.677.577.921 1.327.539zm1.079-4.311c1.904-1.023 1.613-1.974-.285-3.162-2.315-1.328-3.937 1.218-2.03 2.95.999.907 1.23.795 2.315.212zm2.47-1.846c3.095-3.325 5.148-3.155 9.235-3.066 10.543.095 13.774-4.944 13.44-8.477-5.123 2.544-9.696 1.178-14.573 1.915-8.414 1.878-9.4 5.835-9.988 8.1zm42.265-11.329c2.717.024 2.595.107 1.478-2.126 2.644.362 3.711 1.629 2.838-1.003 1.403.5 2.243.885 3.692 1.362l.92-.533c-5.596-5.446-11.802-.832-10.167 4.662l2.078-.994z" fill="#131f67"/><path d="M197.837 303.043v-3.584h3.233s-.026 1.252 0-11.646c.024-11.25.111-11.334.438-12.426 2.254-7.53 15.646-7.52 16.506.838.046 4.067.066 4.92.092 4.924h-3.584s-.003-1.019 0-1.604c.02-4.188-1.28-6.043-4.593-6.068-2.522-.02-3.928.887-4.721 2.95-.444 1.004-.49 1.942-.49 2.856.005 4.64.003 20.178 0 20.176h3.606l.045 3.561zm-96.622-17.084l1.301-6.304 11.614.564s1.349 3.958 1.895 5.74zm-26.82-.153l6.162-10.176 8.75 2.374-2.013 7.955zm17.02.153l2.65-10.862c-5.005-1.102-9.726-1.827-15.25-3.318l-8.969 14.168-5.395-.143c4.648-6.193 13.138-18.7 13.138-18.7 19.473 6.7 39.106 7.83 58.871 4.291 0 0 7.283 9.607 9.893 14.816l-5.136-.252-6.38-10.685c-4.444.482-8.814 1.074-13.45 1.267l3.174 9.418h-5.1l-2.893-9.391c-5.56-.215-10.234.218-16.898-.824l-2.35 10.21zm36.75.004l-1.757-6.68 6.268-.732s2.907 5.094 4.498 7.408zm18.358-20.02c.306-4.65 1.232-8.3 5.552-14.468 5.522-7.883 15.556-23.244 15.801-23.966 0 0 10.29 15.437 14.894 22.412 3.927 5.977 6.32 12.64 6.449 16.64.248 7.674-4.585 12.474-11.07 13.272-4.452.548-9.074-3.485-9.424-8.23-.143-1.943-1.202-2.532-1.486-.826-.373 5.913-5.056 9.418-10.427 8.892-7.978-.78-10.624-8.629-10.289-13.725zm55.88-.7c-2.047-.652-3.514-2.748-3.772-5.39-.295-3.02.796-6.106 4.484-11.75 1.747-2.743 3.58-5.635 5.021-8.55 2.17 3.185 3.295 5.63 5.483 8.921 5.022 8.05 5.98 12.382 3.422 15.466-1.804 2.176-5.607 2.234-7.178.109-.471-.638-.586-.93-.918-2.335-.147-.626-.598-.708-.725-.132-.655 2.966-3.123 4.519-5.817 3.661zM71.92 223.898c7.795-11.848 35.325-50.05 35.325-50.05l4.009.383s-24.451 34.102-36.327 51.398zm-39.753-18.432l9.6 6.913.069 53.817-9.756 6.866zm39.853-88.045l5.811 11.372c-24.69 23.394-19.846 50.844-6.619 70.425 0 0-1.71 4.38-5.437 9.031-17.897-11.801-23.34-42.474-23.204-42.802 19.722-17.59 22.381-23.192 29.449-48.026zm100.895 83.837c1.275-17.32 9.746-28.64 19.238-35.556l.486 17.616c-6.214 5.964-12.785 12.122-19.724 17.94zm-25.78-17.445c21.623-20.194 22.36-48.872 6.607-69.923l6.447-9.002c9.138 9.78 18.099 20.028 21.913 43.845-13.694 10.793-25.795 28.629-29.014 46.633zm-29.797-23.496l-.04-8.253 8.088-.04-.23 8.24zm-17.098-.064l-.115-8.225 7.995.058-.124 8.337zm13.847-22.021s26.802-37.516 37.322-51.057l2.235 1.644L118 138.44zm-62.603-26.235c-.026 14.801-9.514 26.53-19.206 34.182l.133-16.851zM57.13 85.06s-19.29-25.81-21.35-37.04c-.691-6.833 3.194-14.003 9.9-14.92 5.213-.638 10.241 3.104 10.871 8.429.116 1.047.354 1.331.905 1.084.4-.18.461-.39.637-2.199.5-5.15 5.302-8.001 10.287-7.563 8.93 1.143 12.052 12.303 9.556 17.935C72.665 62.68 56.041 85.496 57.13 85.06zM6.04 55.255c-.745-3.022.395-6.917 2.562-7.897 3.223-1.458 6.32.381 6.837 3.244.195 1.077.65 1.005.83-.113.44-2.752 3.636-4.304 6.41-2.876 3.44 1.77 4.123 6.348 1.559 11.449-2.868 4.85-8.717 14.136-8.717 14.136-.179-.536-8.184-12.59-9.48-17.943zm186.26-14.685l.056 65.698-9.057-5.454.768-55.095zm-43.172 3.89c-20.446-5.316-39.074-6.906-58.656-2.71-2.553-3.043-11.129-15.72-11.129-15.72l4.95.072L91.3 37.316l13.348-1.744-3.437-9.122 5.503.024 2.742 8.946c-.029-.07 10.858.107 16.909.824.962-3.322 2.75-9.923 2.75-9.923l6.063-.003c-.78 3.172-2.87 10.718-2.87 10.718 4.964.69 14.173 3.031 14.257 3.133 3.231-4.567 6.234-9.133 9.156-13.7l5.908-.028c-1.74 2.948-12.173 18.166-12.5 18.02zM6.192 31.76H9.87c-.122 2.681-.081 5.873 2.39 7.02 4.388 1.496 7.298-1.162 7.593-5.014.198-4.416.089-20.39.089-20.39H16.45v-3.61h10.72v3.61h-3.522s.25 13.683-.02 20.507c-.17 6.732-5.313 9.008-9.56 8.763-8.8-.33-8.068-6.621-7.876-10.886zm139.164 4.827l-9.033-2.107 2.36-7.96 12.625-.007zm-51.87-2.88l-4.2-7.388h8.08l2.677 6.507zM111.83 32.2l-1.224-5.883h14.677l-1.5 6.266z" fill="#d40000"/><path d="M78.274 25.823L91.327 44.66c.06-.06 7.314-1.444 14.445-1.794 7.088-.347 15.54.096 15.612.31 0 0 2.231 6.735 2.987 10.042.999 4.419.894 9.504-.16 12.878-1.544 4.945-2.36 6.428-5.809 9.824-2.557 2.48-6.172 5.177-9.9 6.618-5.167 2.158-5.693 2.146-8.737 2.288-2.013.094-2.218.173-3.32.744-.34.118-.56.472-.862.574-.256.086-.739-.011-.739-.011-16.79 7.358-29.932 15.563-39.86 22.89-.116.086-.19.465-.301.556-.813.665-1.561 1.17-2.353 1.776-.11.084-.353-.065-.461.018-11.681 9-18.299 16.296-20.732 18.402l.239 41.902s5.318-2.732 8.046-4.397c1.915 16.224 10.007 31.984 22.784 42.93l-5.542 7.642-25.543-17.587.354 77.313 13.58-9.43v-8.156c4.048 2.725 7.998 3.788 10.872 16.2 2.297-4.36 2.096-10.853 1.066-15.192.017 0 3.448-2.835 4.5-5.008l-5.048-4.476s1.308-10.84-1.071-13.023c-1.883 4.92-3.384 10.134-10.42 13.93l-.087-37.66c3.506 2.22 6.822 4.723 10.289 7.002l.477-.097 3.586 2.458s-.38.768-.727 1.295c-4.358 6.608 2.903 14.715 8.81 9.838 2.313-1.91 6.653 6.03 7.472 13.668.833 4.935 1.282 11.06 2.623 15.346.414 1.251.252 1.952-.63 2.71-4.527 6.37-13.625 19.202-13.625 19.202h6.555l.474-.752h-4.833c4.163-5.538 8.134-11.99 12.452-17.397 16.089 6.056 42.443 7.454 58.359 3.782 3.287 4.61 6.483 9.442 9.644 14.139h-4.577l.63.984h6.192l-13.043-19.2c-8.99 2.674-30.908 1.632-30.508 1.41 0 0-.06-.15-.82-2.327-3.763-12.148-4.111-22.93 5.329-31.643 5.014-4.459 10.615-7.4 16.869-6.842 2.796-.054 2.849-.205 4.014-.732.643-.29 1.974-.591 1.974-.591l6.335-3.514.836-.166 1.823-.96.377-.447 2.944-1.495.33.026 3.981-2.29.053-.323 1.567-.965.373.393c.434.036 15.604-9.919 21.93-15.468l.393.146c7.388-5.978 17.434-15.404 20.414-18.983l-.16-17.935-.253-.219-.101-19.86h-.577l-.025-2.45c-3.266 1.21-6.862 4.244-7.103 4.118-2.08-16.815-9.823-32.304-22.474-43.677l5.387-7.438 25.015 16.83.068-4.917h.31c.307-18.854.475-67.722.475-67.722l-.247-.024-.005-3.902-12.786 8.164-.18 8.247c-5.668-1.851-9.259-8.661-10.449-14.73-1.651.662-2.418 7.053-1.808 15.147-1.752 1.046-2.874 2.19-3.947 3.574 1.388 1.748 2.929 3.181 4.627 4.648-.355.763-1.105 11.564-.36 12.904.34.989 1.521.847 1.527-.192 1.725-8.424 9.715-13.952 10.163-13.442l-.195 38.839-14.194-9.949c2.98-3.365 3.607-9.04-.147-11.818-3.764-2.785-7.45-.423-8.32 1.348-4.61-3.003-6.16-14.132-6.833-18.488-.167-2.12-.71-4.997-1.338-7.593-.393-1.627-.86-3.183-.921-4.64-.027-.687.055-.984.679-1.843l13.8-19.58-7.046-.023-.068.12 5.542.015-12.446 17.674c-18.724-5.882-38.138-7.305-58.908-3.574l-10.26-14.43 4.665-.019-.184-.31zm10.828.165l.198.354 8.064-.025-.121-.3-8.141-.03zm11.957.043l.155.427 5.502.02-.169-.418zm28.093.15l-.056.195 6.064.01.053-.195zm-18.58.006l.058.247h14.628l.053-.233zm28.166.13l-.058.204 12.626-.01.107-.194zm53.273 10.77l.039 2.657-8.48 5.391c-.213 11.366-.539 55.087-.539 55.087L181 98.888l.398-54.747s7.504-4.822 10.614-7.055zm-22.256 2.138h.286l.088.616h-.495zm.602 1.605l.223.834-1.242-.005.209-.805zm21.407.431v1.736l-7.317 4.572v-1.72zm-22.586 1.445l1.916.024.32.96h-2.41zm-46.994.514l1.28.192c2.932 6.996 3.69 13.005 4.2 19.256 1.169 8.115 3.527 16.249 5.168 19.706l-1.876-.02c-.217-.028-4.179-11.775-5.004-18.711-.221-1.374-.133-2.65-.204-3.923-.418-5.363-1.152-9.394-3.564-16.5zm2.405.283l1.634.167c1.142 4.968 2.806 9.658 3.482 14.649 1.08 7.984 1.658 16.137 5.508 24.006l-1.527-.015c-2.337-5.32-3.783-10.869-4.713-16.868-.728-3.441-.735-6.025-1.12-9.135-.47-3.735-1.908-8.484-3.264-12.804zm2.483.231l1.634.242c1.075 4.934 2.92 10.364 3.409 14.823.995 9.082 2.42 17.545 5.285 23.55l-1.145-.034c-4.425-8.572-4.496-16.21-5.736-24.243-.73-4.731-2.278-9.463-3.447-14.338zm2.604.383l1.445.223c1.003 4.909 2.805 10.464 3.224 15.443.742 8.813 2.305 15.485 5.586 22.6l-1.353.024c-3.96-6.93-4.493-15.435-5.726-24.05-.682-4.757-2.217-9.546-3.176-14.24zm62.088.01v2.148l-7.317 4.698v-2.119zm-59.727.417l1.508.233c.971 4.733 2.779 9.786 3.205 14.395.73 7.878 2.178 15.833 5.426 23.163l-1.392.087c-3.435-7.401-4.93-14.137-5.58-22.644-.365-4.769-2.2-10.583-3.167-15.234zm39.852.024l.523 1.275-3.505.17.043-1.43zm-37.37.446l1.795.35c1.9 7.55 2.398 14.7 3.693 21.878 1.617 8.918 3.321 13.4 4.714 15.064l-1.483.048c-3.622-7.721-4.905-15.398-5.746-23.351-.496-4.692-2.036-9.316-2.972-13.989zm2.735.51l1.368.276c1.63 6.171 2.365 11.944 3.082 17.53 1.304 10.61 4.84 18.68 5.592 19.053l-1.508-.068c-3.27-4.52-4.482-12.215-6.09-23.075-.707-4.774-1.41-9.265-2.444-13.717zm2.202.44l1.532.379s1.38 5.43 2.424 12.635c.87 6.006 1.327 17.822 7.855 24.617 3.259 3.393 9 6.339 12.917 3.138 1.674-1.427 2.752-3.714 1.746-6.158-1.692-4.094-7.42-3.393-5.513.902.213 1.03-1.133 1.073-2.07.067-.986-1.074-.74-2.299-.042-3.425 1.473-2.374 5.417-2.618 7.731-.497 3.698 3.622 2.099 9.836-2.584 11.806-5.394 2.292-12.346-2.438-15.099-6.953-4.554-7.863-5.26-15.329-6.328-23.269-.542-4.288-1.588-8.79-2.57-13.242zm2.308.636l1.556.378c.005.02 1.705 7.653 2.27 12.175.696 5.588 1.466 12.173 3.859 17.257 1.488 3.161 3.653 5.82 5.843 7.37 1.882 1.332 3.57 2.174 6.075 1.629 2.892-.63 3.016-5.104.257-5.116-1.41-.005-.492-1.362.679-1.4 4.158-.138 4.278 6.416.363 7.878-4.482 1.675-9.33-1.481-12.33-5.445-5.25-8.154-5.044-15.592-6.197-22.168-.307-3.464-2.259-12.395-2.375-12.558zm31.463.228l.95 1.27-5.28-.024.024-1.208zm-29.146.421l1.489.52c.042 0 1.493 5.924 2.395 12.926 1.07 6.751 1.42 12.37 4.917 17.247 1.454 2.028 4.2 4.735 5.93 5.057 1.071.231 2.18-.005 2.453-.82.446-1.334 1.59-.72 1.615.49-.005.847-.627 1.727-1.678 2.032-5.139.89-9.841-5.563-11.268-8.834-1.933-4.76-2.76-10.078-3.598-16.7-.355-2.802-2.05-11.74-2.255-11.918zm47.683.238l-.025 2.138-7.292 4.597v-2.08zm-45.443.417l1.668.456s1.391 5.21 2.221 11.646c.842 6.528 2.65 14.11 6.027 18.033.307.376.517.642.65.863.242.533-.046 1.434-.296 1.435-6.018-3.131-7.44-15.713-7.957-19.967-.762-6.579-2.313-12.466-2.313-12.466zm23.4 1.008l5.31.15 1.265 1.247-7.03-.063c-.742-.766-.28-.678.455-1.334zm22.043 1.736v1.775l-7.317 4.635v-1.813zm-21.858.563l7.767.136 2.725 1.619-11.87-.097zm21.858 2.25v2.128l-7.317 4.587v-1.998zm-24.734.402l13.199.14.033 1.431-14.313-.368zm-1.721 2.449l14.93.038.038 1.581-13.576-.13zm26.455.242v2.22l-7.317 4.534v-2.104zm-23.648 2.327l11.443.054-1.24 1.324-8.632-.088zm23.648.781v2.095l-7.317 4.601v-2.065zm-15.036 1.6l-1.387 1.348-5.93-.082.204-1.227zm15.036 1.47v2.244l-7.317 4.47v-1.944zm-22.435.819l4.892.106-.747 1.028-4.281.02zM125.33 65.34c.738 5.647 4.837 17.032 4.834 17.029l-1.614.014c.08.11-2.93-7.172-4.015-14.032-.132-.655.316-2.862.795-3.011zm43.678.325l3.767.068-.82 1.454-3.069-.005zm22.755.344v1.964l-7.317 4.5v-1.79zm-22.877 1.988l2.497.078-.591 1.348-1.935-.059zm22.877 1.057v2.095l-7.317 4.538v-2.022zm-67.975.446c.735 4.113 3.855 12.375 4.093 12.917l-1.382.02c-.063.188-3.244-7.408-3.583-10.658-.164-.68.197-2.027.872-2.279zm45.074.873l1.479.068-.252.77-1.198.03zm.131 1.852l.771.02-.184.732h-.48zm22.77.039v1.692l-7.317 4.63v-1.604zm-69.807.184c1.11 3.297 2.22 6.657 3.534 9.872l-1.639-.039c-1.085-2.318-1.848-4.924-2.695-7.481-.234-1.067.263-1.981.8-2.352zm-1.634 2.202l2.725 7.612H121.5c-.637-1.531-1.353-3.243-1.854-4.82-.514-1.634-.466-1.687.676-2.792zm71.44.475v2.007l-7.316 4.529V79.93zm-72.58 2.944l1.493 4.217-1.91-.048c-.56-1.327-.902-2.487-1.043-3.778-.052-.627-.166-1.252.272-1.516.863-.488.765-.086 1.187 1.125zm-2.03 1.727l.794 2.47-1.785-.043c-.524-1.168-.725-2.008-.567-3.23 1.074-1.24 1.153-.592 1.558.803zm74.61-1.452v2.1l-7.316 4.398v-1.95zm-77.143 1.508l.747 2.434-1.61-.039c-.267-.57-.097-1.265-.106-1.91zm-2.109 1.246c.024.001.044.007.054.02.23 1.077.005 1.144.019 1.134l-2.25-.014s1.824-1.157 2.177-1.14zm79.253.63v1.678l-7.317 4.563v-1.702zm-87.001 2.658l43.968.126 1.465 2.07s-4.278.117-18.29.03c-11.795.151-35.497-.253-35.497-.253l2.308-1.086c3.192-.075 6.091-.904 6.046-.887zm87 .247v1.847l-7.316 4.432v-1.79zM68.04 86.406c-3.535 1.566-6.835 1.952-9.3 1.752-5.31-.43-13.432 1.79-15.065 6.89-.513 1.801-.518 1.851.456 2.769.484.455.952.8 1.042.766.854-.758 1.987-2.164 3.2-2.575 1.596-.482 2.46-.548 5.077-.664 5.637-.25 6.908-.487 8.31-.858 3.086-.817 6.197-3.852 6.384-7.233.021-.388-.104-.847-.104-.847zm-.15.462c-.596 7.054-8.238 7.974-11.594 7.773-6.805-.407-9.486 1.625-10.564 2.886-.355.338-.561.258-.505-.05.79-3.905 7.101-4.053 10.279-4.01 7.786.355 9.759-3.399 9.538-3.436-.59.265-1.028.498-1.627.783-.258.107-.203-.05-.876-.44-.01.05-.78 1.797-1.774.14.025.083-.708 1.471-2.066.174.01.14-.82 1.33-2.148.113-1.248 1.069-1.842.48-2.379-.27-.393.235-1.55 1.797-2.514.116-1.028.654-1.457 1.362-2.341.934-2.064.37-3.85 2.487-4.577 4.427-.227.666-.687.771-.742.039-.245-2.023 3.086-5.529 6.429-6.497 2.6-.753 4.372-1.297 10.087-1.078 3.249.124 7.373-1.604 7.373-1.604zm83.412.534l2.06 1.396-35.865 49.452-3.166-.082zm-57.535.034h4.078v6.74h-3.515l-1.256-1.867c.325.19.701.305 1.105.305a2.184 2.184 0 1 0 0-4.369 2.184 2.184 0 0 0-2.162 2.497l-1.314-1.949s.558-.332 1.89-.926c.345-.153 1.174-.431 1.174-.431zm12.568 0h6.91v6.74h-6.91zm15.138 0h7.152v6.783l-7.152-.044zm15.443 0h7.147v6.74h-7.147zm54.742.16l.107 2.104-7.317 4.446v-2.08zm-51.43.698a2.314 2.314 0 0 0-2.318 2.308 2.318 2.318 0 0 0 2.318 2.313 2.31 2.31 0 1 0 0-4.62zm-30.421.121a2.31 2.31 0 1 0 0 4.62 2.31 2.31 0 1 0 0-4.62zm15.07.044a2.31 2.31 0 1 0 0 4.62 2.31 2.31 0 1 0 0-4.62zm7.787.276a1.94 1.94 0 1 1 0 3.879 1.94 1.94 0 0 1 0-3.879zm-30.659.03a1.94 1.94 0 1 1 0 3.877 1.94 1.94 0 0 1 0-3.878zm45.956.067c.46 0 .88.175 1.198.46l-2.114 2.871a1.79 1.79 0 0 1 .916-3.331zm-30.362.01a1.94 1.94 0 1 1 0 3.878 1.94 1.94 0 0 1 0-3.878zm-23.42.14a1.448 1.448 0 0 1 0 2.895c-.798 0-1.45-.651-1.45-1.45 0-.798.652-1.445 1.45-1.445zm-4.436.078c12.322 15.692 18.87 31.6 21.751 48.938l-2.066-.097c-3.424-18.856-11.132-35.028-21.586-48.08zm50.485.014a1.53 1.53 0 1 1 0 3.06 1.53 1.53 0 1 1 0-3.06zm-30.421.122a1.53 1.53 0 1 1 0 3.06 1.53 1.53 0 1 1 0-3.06zm15.07.043a1.53 1.53 0 1 1 0 3.06 1.53 1.53 0 1 1 0-3.06zm38.343 1.096c.812 6.21-.791 10.22-5.527 10.871-6.04.829-6.823 1.283-6.856 7.002-.04 6.777-1.042 8.734-5.843 9.27-5.4.603-6.657 1.243-6.173 7.957.354 4.9-1.577 6.984-5.736 7.894-3.251.711-6.067 1.8-7.273 5.076l-2.972.04c.772-5.162 5.96-7.627 9.285-7.798 3.585-.85 4.334-2.052 3.753-8.335-.437-4.73 1.299-6.167 6.856-7.248 4.443-.876 5.532-2.151 5.29-5.785-.518-7.791-.006-8.963 4.422-9.91 2.256-.535 5.93-.774 7.332-2.498 1.593-1.96 1.187-3.628 1.042-6.036zm28.545.209v2.036l-7.317 4.514v-1.983zM84.224 91.75c-1.565 6.755 3.815 8.223 7.089 9.363 3.808 1.326 4.733 3.248 4.3 9.96-.327 5.076.233 6.198 3.52 7.941 5.03 2.595 6.38 6.283 4.146 11.68-1.377 3.329-.654 4.262.218 7.167l-2.438-.024c-.179.056-2.238-3.623-.48-7.583 2.082-4.693 2.023-7.048-2.619-9.16-3.59-1.633-4.693-3.174-4.916-6.536-.094-1.415-.084-2.12.247-5.197.418-3.88-.965-5.549-6.701-7.68-2.556-.95-4.292-3.161-4.815-6.668-.146-.981-.014-2.114-.014-2.114zm85.783.732l21.815 14.512-.15 3.23-23.143-15.463zm-14.056.32a1.91 1.91 0 1 1 0 3.821 1.91 1.91 0 0 1 0-3.82zm-68.629.834a1.733 1.733 0 1 1-1.736 1.731c0-.957.778-1.73 1.736-1.73zm104.379.204l-.073 1.944-7.181 4.442v-1.945zM77.862 95.198c6.597 8.598 13.081 17.457 18.081 34.15l-2.133.82c-4.128-13.436-10.478-24.598-17.965-33.83zm17.23-.082h49.697l-1.275 1.716-47.479-.484zm96.672 1.615v2.128l-5.504 3.35-1.62-1.056zm-116.82.227l.974 1.28s-1.055.829-2.25 1.683c-3.254 2.327-3.677 2.592-3.893 4.107-.515 3.598 3.184 5.373 6.9 3.292 1.331-.609 4.252-2.458 4.252-2.458l.838 1.236s-4.185 3.132-6.642 3.845c-5.39 1.566-9.413-5.263-5.43-9.319.608-.62 1.894-1.452 2.918-2.114 1.05-.678 2.332-1.552 2.332-1.552zm22.182.849l45.792.272-29.243 39.968-1.3-.073c-2.266-14.95-7.889-28.01-15.249-40.167zM77.16 99.499l2.677 3.739s-1.746 1.668-4.626 3.243c-2.31 1.264-4.809-1.033-3.355-3.103 1.492-2.055 5.304-3.879 5.304-3.879zm114.605.383v1.95l-3.171 1.944-1.45-.926zm-114.94 1.499c-1.27.067-3.375 1.507-4.092 2.749-.308.534-.197.982.088 1.348.433.557.945.525 2.468-.286 3.109-1.657 3.692-2.641 2.322-3.613a1.167 1.167 0 0 0-.669-.198c-.04-.001-.075-.003-.116 0zm-.101.8c.2-.02.433.04.625.024.538.22.373.89-.189 1.047-.123-.195-1.056-.22-.994.727-.227.538-.217.497-.902.573a.738.738 0 0 0-.843.402c-.472.252-1.051.174-1.16-.111-.103-.277.284-1.074.612-1.072.158.013.438-.223.727-.417-.01-.519.6-.594.776-.592.173.037.756.044 1.037-.431.081-.1.19-.139.31-.15zm115.04.465v3.006l-2.298-1.469zm-127.055.378c8.339 9.848 14.345 20.328 18.168 34.833l-1.673 1.154c-2.526-10.17-6.416-20.916-17.926-34.886zm97.57.165c3.776 3.207 19.25 17.77 22.198 43.62l-2.07 1.27c-1.663-13.644-7.03-29.286-21.466-43.15zm-7.462.897a1.91 1.91 0 1 1 0 3.821 1.91 1.91 0 0 1 0-3.82zm-92.43.747s1.752 1.801 1.75 2.23c-.006.85-.68 1.33-4.709 2.798-.68.248-3.655.933-3.655.933l-.108-1.443c1.518-.547 5.593-1.524 5.892-2.39.146-.34-.58-1.202-.427-1.202zm27.784.367c.958 0 1.731.778 1.731 1.736a1.733 1.733 0 1 1-3.467 0c0-.958.778-1.736 1.736-1.736zm70.193.496c12.606 12.314 19.544 27.529 21.165 43.24-14.68 11.94-24.654 26.952-28.617 45.73-1.958-3.265-3.624-7.019-5.436-10.687 19.59-17.215 23.712-48.217 6.77-69.948zm-77.094 2.347l.882 1.367s-.184.168-2.929 1.872c-4.014 2.492-4.676 4.117-3.335 6.667 1.37 2.607 2.898 2.746 7.21.659 1.522-.737 2.817-1.513 2.817-1.513l.688 1.43s-1.93 1.57-5.649 2.934c-3.496 1.282-6.802-.902-7.423-4.94-.452-2.937.829-4.51 5.93-7.405.574-.304 1.809-1.071 1.809-1.071zm60.066.65a1.91 1.91 0 1 1 0 3.82 1.91 1.91 0 0 1 0-3.82zm-77.9.072l1.154 1.088s-.498.732-3.34 2.442c-2.556 1.538-2.82 1.289-1.547 2.364 2.372 2.003 5.663 6.44 5.645 7.587-.017 1.105-1.006 2.123-2.903 2.976-1.038.467-5.148 1.933-5.752 2.038-1.2.131-1.538.612-.338 1.703 2.04 2.34 3.78 7.345 3.08 8.87-.788 1.72-1.733 2.01-9.285 2.357-.86.04-1.27-.204-.804.897.339.8.694 1.899 1.367 5.295.6 3.028.497 4.389-.679 5.013-.676.359-5.928.232-8.097-.194-2.484-.488-2.754-.52-2.352 1.096.52 2.233.845 8.218-.844 9.373-.702.457-1.459.345-4.543-.694-1.967-.662-3.67-1.42-3.67-1.42l.034-1.858c1.603.66 5.998 2.559 7.248 1.96 1.483-2.124-.575-9.572-1.362-11.167-.95-1.905.043-2.32 2.23-1.14 1.148.81 11.037 4.709 10.475 1.22-.603-3.31-1.678-7.077-3.764-9.443-1.929-2.188-.969-3.083 1.178-2.124 3.8 1.698 11.65 1.282 11.26-.478-.517-2.862-3.117-6.741-6.676-9.75-.99-.835-1.026-1.194.14-1.4 3.324-.264 12.836-1.241 11.506-3.474-1.14-1.828-2.665-3.849-3.962-4.937-2.131-1.786-4.28-2.561-5.233-2.933l.06-1.37c4.332-.36 6.584-1.663 9.774-3.897zm-10.488 1.348c-1.553 16.283-8.365 29.699-22.425 39.057l-.078-1.824c12.361-9.284 18.296-22.48 19.904-35.25zm29.956 1.023c.005 0 .008.003.01.005 0 0 2.262 4.067 2.259 4.437-1.343 1.244-4.867 3.065-6.308 2.637-2.224-.708-2.572-3.08-.437-4.48 1.844-1.343 4.142-2.512 4.451-2.594.01-.003.019-.005.025-.005zm-18.018-.253l1.156 1.036s-.297.452-1.961 1.782c-1.295.996-.843.603.039 1.789.785.941 2.182 2.832 2.182 2.832l-.417 2.516c-1.464-2.084-2.677-3.6-4.85-5.828-1.102-1.137-1.04-1.168.534-1.988 1.18-.652 2.141-1.445 3.317-2.14zm31.565 1.621a1.733 1.733 0 1 1-1.736 1.731c0-.957.778-1.73 1.736-1.73zm-14.023.145c-1.651.436-3.27 1.91-4.18 2.56-.33.237-.07 1.424.248 1.833.408.524 1.16.437 2.06-.063.378-.21 1.06-.552 1.514-.761 1.27-.587 1.801-1.024 1.755-1.513-.204-.658-.723-2.104-1.397-2.056zm.093.752c.464.019.798.616.65.97-.796.43-1.238.066-1.135.668 0 0 .079.938-1.086.96-.285-.124-.78-.101-1.019.141-.814.337-1.525-.375-.64-.78.24-.11.832-.295.994-.66.085-.452.459-.813.868-.562.218.015.706.05.863-.296-.06-.389.216-.422.412-.437a.536.536 0 0 1 .093-.004zm-33.327-.121c.356 1.827-.746 5.037-1.37 6.846-3.699 4.837-9.06 7.31-14.16 8.999-1.132.376-2.654.186-2.654.186 7.055-7.257 13.104-12.577 18.184-16.031zm-12.887 1.643c.05-.407-1.809-.9-1.988-.645-.343.322-.89 5.364-.533 5.726.495.505 1.863.643 1.993.042.428-1.978.324-3.455.528-5.123zm31.619-.15l1.207 1.498c-2.558 24.295-19.912 45.313-38.44 53.646l-.054-1.61c21.197-11.132 33.953-29.668 37.287-53.534zm83.859.102l2.298 3.16-3.292.103zm-116.09.586c-.02.831-.115 2.557-.435 3.52-.2.75-.78.58-.999-.111-.227-.718-.038-2.757.392-3.593.459-.787.822-.655 1.042.184zm17.536.442c1.137 0 7.174 3.715 6.368 5.565-.643 1.473-5.696 1.593-8.012 1.386l.35-1.42s.705.247 3.397-.038c2.827-.189 2.619-1.16-.62-3.21a98.967 98.967 0 0 1-1.718-1.087zm16.731 1.992c1.87 3.153 3.641 6.706 5.305 10.687-22.825 21.538-21.053 50.87-6.662 70.122l-6.202 8.369c-12.4-11.83-19.15-26.386-21.431-41.844 18.099-13.022 26.604-32.454 28.99-47.334zm84.76.955l1.363 2.604-3.272-.053zm-14.133 1.305a1.91 1.91 0 0 1 1.91 1.91 1.906 1.906 0 0 1-1.91 1.906c-1.055 0-1.91-.85-1.91-1.906a1.91 1.91 0 0 1 1.91-1.91zm-53.108.514l.65 1.479c.03.185-4.619 1.653-6.115 3.54-1.382 1.742-1.252 3.56-.475 4.814 1.325 1.788 2.265 2.038 4.5 1.353 1.823-.56 3.161-1.314 4.97-2.236l.286.747c.002-.04-2.596 1.526-4.577 2.643-.744.419-1.64.595-2.415.577-4.51-.109-6.899-5.927-3.18-9.363.544-.504 2.386-1.513 3.936-2.313 1.032-.533 2.42-1.241 2.42-1.241zm59.692.916c14.887 21.473 4.696 45.002-4.916 53.326l-.257-2.526c16.184-18.435 10.555-39.964 3.81-49.534zm9.582.965l1.168 2.652-3.457-.363zm-60.006.869a1.733 1.733 0 1 1 0 0zm48.65.338c13.048 18.956 5.77 49.181-19.119 58.389l-.126-2.12c25.377-10.609 27.87-38.853 17.674-54.79zm-56.56.117l1.648 4.45c-2.074 1.39-2.888 1.627-5.212 2.193-1.832.418-3.26-2.749-1.853-3.962 1.606-1.385 3.335-1.983 5.416-2.681zm-42.32.014c.307-.014-.017.745-.805 2.653-1.735 4.202-1.851 4.291-6.221 4.984-2.274.36-3.97.451-5.586.296-2.438-.235-3.48-.924-1.9-1.256 4.581-1.007 9.647-3.38 12.94-5.678.86-.616 1.362-.989 1.572-.999zm82.935.518a2.146 2.146 0 1 1 0 0zM66.589 125l-.183 1.653s-2.647 1.398-3.9 1.925c-.959.388-1.024.474-.717 1.362.62 1.772 1.813 3.97 1.813 3.97l-1.106 2.506c-.675-2.253-1.386-4.634-2.627-6.733-1.177-1.643-1.397-1.847.435-2.19 2.366-.797 4.207-1.374 6.285-2.493zm23.638.537c-1.295.057-4 1.146-4.267 2.187-.152.588.016 1.41.514 1.595 1.346.5 4.048-.608 4.761-1.62.222-.312-.116-.958-.354-1.362-.182-.309-.147-.822-.654-.8zm.067.887a.347.347 0 0 1 .068 0c.22-.019 1.018.992.122.907-.31-.03-.59.086-.844.349-.031.485-.727.67-1.062.504-.25-.123-.6.131-.635.281-.504.363-1.14.346-1.222.088-.17-.181.338-.925.78-.897.096.006.41-.207.704-.46.14-.508.675-.42 1.013-.394.382.154.732-.343 1.076-.378zm70.098.078l.956 2.657-3.419-.306zm-14.692 3.061c-.708.902-1.36.911-2.392.863.846 1.001 1.218 2.384.395 3.29-1.251 1.276-3.665-.679-3.486-.858l4.331-5.771c1.15.326 1.786 1.4 1.152 2.476zm-94.056-1.505s5.265 4.535 5.302 6.567c.015.775-.233 1.026-.853 1.231-2.068.686-7.824-1.077-7.824-1.077l.74-1.404c.906.25 5.366 1.404 5.75.836.397-.59-3.726-4.612-3.735-4.617zm26.131 1.896l.63 2.192-2.153-.534zm84.072.393l.562 3.03-3.447-.805zm-65.72.048l.514 1.78c-22.868 10.604-29.545 34.956-17.62 55.052l-1.348 1.852c-15.963-25.866.205-52.118 18.454-58.684zm-20.602 1.862l.31 2.7-2.657-.154zm-31.471-.07c.452.006.538.25.536.516-.002.364-2.309 3.311-3.057 3.974-1.622.655-7.88-1.96-8.813-3.982-.185-.592.433-.332 1.819-.05 3.51 1.001 7.068-.374 9.515-.459zm60.925.034a1.733 1.733 0 1 1 .006 3.466 1.733 1.733 0 0 1-.006-3.466zm-72.035 2.134c1.74 1.564 4.298 2.858 6.567 3.31 1.412.31 1.002.456-.307 1.808-1.225 1.28-1.125 1.442-2.372.81-2.08-1.056-4.344-3.454-4.252-4.758.038-.543.132-1.173.364-1.17zm129.892.293l.432 2.88-3.259-1.13zm-90.55 1.037l1.062 2.58-2.89-.083zm73.439 2.463c-.002.36-.087.97-.087.97 1.7-1.081 3.956-.193 3.888 1.554-.094 2.464-1.299 2.487-3.268 2.16 1.078 1.788-.2 3.51-2.227 2.85-1.848-.6-1.492-2.549-.629-3.703-4.357.71-5.522 6.91-.49 8.752-1.011-1.566-1.262-3.436.933-3.75 2.038-.292 2.902 1.254 2.02 3.114 1.916-.666 3.721.431 3.144 2.297-.696 2.252-2.698 2.097-3.88.724.848 2.042-1.116 3.514-2.597 2.722-2.335-1.247-1.18-3.473.384-4.065-6.013-.619-7.409 7.698-2.976 8.884-1.138-.714-1.267-3.989 1.331-3.54 2.552.513 1.945 2.883.308 3.961 1.976-.422 3.826 1.305 2.623 3.05-1.417 2.057-3.371.59-4.097-.81.229 1.878-.966 3.073-2.503 2.369-2.638-1.209-.689-4.235 1.374-4.042-4.185-2.472-9.873 2.713-6.522 7.007-.13-1.95.841-3.551 2.181-3.33 1.18.133 2.211 1.477 1.88 2.533-.31.9-1.336 1.593-2.412 1.81 3.2.355 3.472 2.618 2.146 3.734-2.251 1.894-3.297-.293-3.82-1.571-.457 3.177-4.204 2.097-4.334-.2-.128-2.515 2.775-2.463 3.312-2.322.067-.087-2.246-2.377-4.716-2.703l.015-1.46c9.738-6.105 13.085-16.766 9.996-26.873l.586-.674c1.588 1.213 3.18 3.814 6.117 2.86 0 0-.683-.481-1.02-.814-1.512-1.49-.663-3.244 1.44-3.341 1.362-.063 1.891.99 1.9 1.847zm-66.054-.004l1.008 1.478c-14.764 17.297-12.073 37.088-3.583 50.19l-1.236 1.493c-7.515-9.634-13.65-32.99 3.81-53.161zm12.582 2.39c-.02.385.008.695.008.695s.317-.394.575-.868c1.26-2.108 3.975-.895 3.529 1.526-.209 1.135-2.122 1.579-2.643 1.254.496 1.353 1.838 1.67 3.472 2.256.572.11 1.552.388 1.552.388l.039.917c-8.857 5.579-13.87 15.04-10.624 27.977l-.98 1.323c-1.786-4.297-3.415-4.203-6.353-4.371 0 0 .73.515 1.15 1.011.891 1.053.497 2.888-.736 3.08-2.856.442-2.885-1.582-2.507-2.954 0 0-.511.43-.761.592-1.133.736-2.544-.028-2.677-1.489-.124-1.374.346-2.263 1.76-2.434.475-.057 1.208.063 1.208.063s-.282-.54-.437-.843c-.677-1.329.809-2.465 2.173-2.178 2.152.518 1.983 2.375.736 3.835 3.34.25 5.09-1.932 4.843-4.099-.3-2.643-1.516-4.073-4.143-4.533 0 0 .424.665.605.986.672 1.193-.294 2.656-1.707 2.648-1.449-.009-2.376-1.337-1.818-2.648.136-.319.68-.72.596-.756-.057-.025-.803.206-1.008.238-1.741.27-2.858-1.26-2.129-2.788.517-1.084 2.071-1.375 3.2-.844.18.066.398.317.432.262.033-.054-.114-.41-.16-.66-.358-1.4.315-2.148 1.833-2.05 2.124.136 2.915 1.866 1.488 3.427-.368.403-.935.999-.935.999.071.307 3.03.53 4.543-1.052 1.75-1.831 2.025-5.653.266-6.9-.29-.206-.873-.615-.873-.615.838 1.68-.704 3.613-2.063 3.251-2.72-.655-2.485-2.882-.696-3.585 0 0-1.815-.678-2.337-1.407-.739-1.032-.49-1.983.396-2.709 1.117-.896 2.703-.309 3.469.798.462-1.408 1.113-2.36 3.04-1.593 1.347.643 1.336 2.441-.148 3.42-.475.313-1.321.605-1.321.605s1.275.727 2.827.744c2.993.034 5.362-3.495 4.155-6.192-.245-.547-.857-1.253-.857-1.253s-.066.942-.252 1.304c-.692 1.345-2.282 1.37-3.222.521-.855-.77-.605-1.802.058-2.505.503-.533.956-.638 1.658-.965-.797-.27-1.685-.463-2.072-1.288-.36-.787-.107-1.754.848-2.353 1.725-.902 3.078.624 3 1.812zm-59.377-2.176c1.22.704 2.033 1.766 3.17 2.695.88.712.87.84.143 1.517-1.635 1.576-2.553-.706-3.082-1.64-.647-1.25-.714-2.525-.23-2.572zm130.726.435l.204 3.05-3.4-1.304zm-93.667.18l1.221 2.773-3.156-.014zm65.957.005c2.966 10.964-1.205 18.835-9.12 25l-.878-1.15c6.187-5.256 10.817-11.451 8.771-22.488zm-36.366.048l34.8.64-1.043 1.833-2.71.014-5.377 9.504-25.01-.005zm-50.916 7.931c-1.214 1.916-8.443-2.208-8.348-2.425l.906-.872c1.148.466 4.721 2.437 5.512 2.125.277-1.793-1.83-4.116-2.624-5.662l.885-1.109s4.583 5.935 3.669 7.943zm11.86-6.976l-1.203 2.176c-1.126.345-4.526.406-4.8.632.41 1.115.861 4.39.861 4.39l-1.34 1.713a79.541 79.541 0 0 0-1.48-6.724c-.45-1.657-.324-1.293 3.205-1.566 1.582-.09 3.213-.29 4.757-.62zm7.137 2.623l1.43 2.541-2.899.03zm-34.848.17c.158-.065 1.056.941 1.21 1.231-.066.66-1.09 1.022-1.248.786-.064-.095-.083-1.577.02-1.988.003-.016.008-.025.018-.029zm131.27.034l-.03 3.18-3.447-1.527zm27.371.718l-.049 2.06c-12.5 6.106-31.148 22.499-36.467 51.901l-1.09-1.202c5.315-28.073 23.663-44.672 37.606-52.76zm-125.752 2.836l1.557 2.342-2.808.306zm98.449.897l-.277 2.817-3.394-1.881zm-65.308.587c.014.668.07 1.15.112 1.818-7.703 4.987-10.306 12.835-9.024 22.712l-1.066 1.575c-2.507-8.955.024-19.99 9.978-26.105zm89.314.582c.785.46 3.33 1.21 3.33 1.21l-.028 1.873-5.242-1.88zm-150.598 7.969c-1.128.919-3.729-.611-4.91-1.234l-.034-1.581s.9.462 1.808.824c1.865.827 1.87-.158.848-2.918-.359-.97-.714-2.093-.714-2.093l1.226-1.163s2.935 6.608 1.776 8.165zm26.315-5.928l2.008 2.1-2.798.64zm122.358.252c1.776.002 5.203 1.445 5.203 1.445l-.023 2.078c-1.74-.504-3.76-1.47-5.6-1.742-1.452-.2-1.366.613-1.374 2.665-.01 2.781.687 5.293 2.017 8.074 1.101 2.302.528 2.919-1.27 1.89-3.237-2.22-10.134-3.897-11.196-2.604-1.092 1.329 1.058 7.947 3.544 11.104 1.01 1.283 1.073 1.488.602 1.988-.383.405-1 .43-2.09.083-3.586-1.141-8.776-1.398-10.27-.432-1.484.96 2.378 7.588 5.62 9.727 2.102 1.5 1.697 2.246-1.702 2.322-5.55.026-9.818 1.264-9.581 2.779.402 2.575 3.996 6.106 8.121 7.98 2.525 1.032 1.47 1.442-.209 2.038-2.806.948-5.504 2.465-8.145 3.883l-1.27-1.624s2.657-1.69 5.547-3.312c.677-.38.643-.52-.306-1.314-3.078-2.58-5.337-5.46-5.809-7.4-.459-1.883.482-3.072 3.278-4.135 1.728-.657 2.364-.85 3.889-1.193 2.197-.493 2.234-.56 1.294-2.25a517.27 517.27 0 0 1-1.532-2.778c-3.273-5.598-1.547-7.619 6.051-7.734 1.866-.098 2.222-.104 2.12-.747-.405-2.637-1.57-5.666-1.406-7.9.348-3.37 3.814-4.185 9.905-2.665 1.41.352 1.509.28 1.26-.858-1.178-5.131.05-9.76 3.332-9.368zm-22.353.359l-.533 3.268-3.244-2.158zm-121.31.77l8.946.588-1.42 1.668-5.407-.102-.204 4.616-1.73 1.483zm57.981.355h7.365l-.058 7.787h-7.34zm8.776 0h6.856v7.787l-6.798.073zm8.21 0h7.35l-.068 7.787h-7.278zm64.197.62c-.174 2.003.246 5.623.415 7.177-.12.463-.44.397-2.365-.04-1.335-.445-5.035-.577-5.035-.577l1.55-1.642c1.268.15 2.27.138 3.581.302-.018-1.31.037-3.814.037-3.814zm-119.027 1.542l2.056 2.07-2.633.675zm100.46.674l-.819 3.331-2.977-2.676zm28.198 1.77l.012 1.7-2.928-1.317c-.033 1.939 1.682 5.44 1.682 5.44l-1.391.655c-1.205-1.97-2.044-3.738-2.112-5.957.015-.803-.095-2.161.628-2.199 1.489-.035 2.734.47 4.109 1.678zm-129.662 1.683l2.444 1.454-2.71 1.096zm100.529.746l-1.198 3.428-2.613-2.967zM32.58 160.331l6.594 2.236-1.173 1.246-5.48-1.731zm92.519.907l.543 12.146-34.843-.286 1.212-1.716 2.264-.02 5.964-10.056zm-63.916.946l2.589 1.827-2.691 1.188zm130.285 1.071l.005 1.988c-8.413 6.215-17.508 16.926-19.056 35.866l-2.269 1.94c1.108-18.493 8.808-31.243 21.32-39.794zm-30.693.073l-1.221 3.084-2.42-2.87zm23.707 4.193l-.81.908c-.23.076-3.438-1.643-5.96-2.046.826 1.633 1.217 2.852 3.045 5.44l-1.178 1.163c-.355-.078-4.928-6.831-3.717-8.355 1.963-1.323 6.725 1.45 8.62 2.89zm-13.682-3.625c-.051 1.833 1.433 7.523 1.433 7.523-2.294.113-4.518-.15-6.994.545l1.166-2.08s1.078-.112 2.022-.3c1.95-.387 1.747-.152 1.294-1.848-.425-1.594-.45-1.926-.45-1.926s1.389-1.924 1.529-1.914zm-128.59 1.968c3.01 18.235 10.204 30.756 21.552 42.024l-1.154 1.508c-13.34-12.209-20.623-27.747-22.527-42.359zm18.774.766l2.453 1.338-2.521 1.47zm130.45.053l-.015 2.676-1.537-1.551c.415-.375.919-.75 1.553-1.125zm-32.341.548l-1.673 3.07-2.183-2.909zm32.162 6.944c-.344-.542-3.407-2.446-4.797-3.245-.088-.235 2.153-2.237 2.598-2.375 2.224.31 2.939 4.754 2.199 5.62zm-130.237-3.337l2.773 1.353-2.516 1.775zm92.27-.001l3.56.336-1.891 2.938zm32.948 1.306c.462.003.981.196 1.63.557 2.507 1.397 3.823 2.927 3.684 4.287-.063.624-.413.75-.82.295-.73-.817-3.197-1.882-5.323-2.298-1.61-.315-1.759-.453-1.275-1.198.732-1.13 1.335-1.648 2.104-1.643zm-42.887 1.29c3.856 14.598 10.634 25.833 19.143 35.08l-1.765 1.503c-6.461-7.412-13.568-16.088-19.37-34.843zm7.698.78l3.56.538-2.084 2.657zm-50.236.155c.413.014-1.226 6.229-6.885 6.658-3.583.594-3.985 1.197-4.039 6.773-.073 7.56-1.293 9.328-7.472 9.795-4.091.309-4.63 1.142-3.937 7.016.659 5.59-1.455 8.442-6.667 8.437-4.515.374-6.38 2.479-6.376 6.662.002 1.694.03 2.104.03 2.104l-2.92.228s.008-2.754.228-4.092c.89-5.412 3.209-7.579 8.093-7.555 3.775-.287 4.363-.9 4.232-6.623-.146-5.822-.224-5.782 1.295-7.307.978-.982 2.095-1.423 4.078-1.61 6.175-.582 6.663-.994 6.647-7.326-.572-5.261.882-8.482 4.224-8.747 6.762-.536 6.602-4.207 6.303-4.36l3.147-.048c.008-.003.013-.005.02-.005zm13.829 0c3.966 21.39 16.513 41.42 23.4 48.812l-1.343.713c-10.038-12.466-19.16-26.781-23.672-49.49zm-7.162.01l3.137.034-36.137 50.858-1.906-1.435zm4.384.034c3.395 12.328 6.066 24.384 16.742 40.511l-45.287-.296zm12.504.048c.264-.122 1.328 6.238-.258 9.175-1.426 3.974-.729 6.212 2.372 7.66 5.326 2.487 6.67 4.969 5.993 11.075-.472 4.275.822 6.34 4.835 7.714 4.787 1.638 6.88 4.213 6.856 8.432-.004.648-.248 1.387-.248 1.387l-2.671 1.57s.033-.573.136-1.26c.696-4.677-.19-5.945-5.712-8.15-5.215-2.084-6.508-4.492-5.62-10.498.29-1.959-.11-3.94-.921-5.43-1.365-2.431-4.382-2.407-6.55-4.626-1.793-1.901-1.992-4.556-.465-9.1.946-2.817 1.088-3.885.353-6.232-.485-1.546-.674-1.683-.674-1.683zm-62.897.68l3.074.848-2.313 2.4zm122.011.636c1.055-.029 3.094.34 4.763 1.172 3.83 1.908 4.526 3.471 1.169 2.628-1.893-.476-4.614-.368-7.24.281-2.774.686-2.715.717-1.76-.96 1.21-2.123 1.526-3.079 3.068-3.121zm-6.952 2.253l-.697 1.198c-1.522-.252-3.123-1-5.441-.816.95 1.82 2.077 2.76 3.589 4.365l-.563 1.202c-.136.162-4.417-3.408-5.275-5.808-.388-1.084-.036-1.556 1.522-1.595 2.323-.036 4.664.628 6.865 1.454zm-57.204-1.177a2.078 2.078 0 0 1 0 4.155 2.079 2.079 0 0 1 0-4.155zm29.246.562l3.507.63-2.337 2.618zm-65.567.026c.83-.066 2.11 1.542 2.107 1.544l-4.25 5.871c-2.023-.407-1.59-3.47.262-3.563.428.002 1.21.075 1.21.075s-.57-.31-.9-.746c-1.24-1.5-.066-3.05 1.57-3.18zm79.313-.525s3.383 6.692 3.168 6.947c-2.097.924-4.387 1.402-6.691 2.242l.443-1.946s.767-.054 3.343-1.036c1.234-.47-1.346-3.899-1.346-3.899zm-23.403 1.977c4.936.041 4.998 6.099 4.053 8.102-.687 1.375-1.733 2.137-4.892 3.564-2.739 1.237-3.045 1.154-3.045 1.154l-.655-1.46s1.595-.702 3.312-1.396c3.55-1.433 4.413-2.528 4.024-5.096-.55-3.635-3.358-4.2-8.79-1.765-.63.283-1.426.568-1.426.568l-.373-.732c.086-.073 4.35-2.307 6.74-2.861.373-.054.722-.08 1.052-.078zm-76.348.66l2.792.92-2.036 2.003zm124.413.78c2.468-.007 4.5.41 4.495 1.29-.003.418-.098.454-2.315.761-3.368.467-8.997 3.342-12.164 6.01-1.876 1.58-1.391 1.212-.6-1.079.785-2.278 1.959-4.999 2.594-5.414 1.586-1.037 5.193-1.56 7.99-1.568zm-40.356.315l2.376.52-1.547 1.498zm-7.962 1.29c.851-.012 1.271.389 1.605 1.203.723 1.759.009 2.791-2.744 3.97-1.248.56-2.362 1.346-3.729 1.596l-1.73-4.645s.545-.2 2.346-.946c2.052-.848 3.402-1.165 4.252-1.178zm-8.03.563c5.496 15.544 12.222 25.642 19.338 34.009l-1.722 1.076c-7.558-8.941-14.514-19.42-19.525-34.843zm7.623.552c-.666.02-1.664.422-2.996.936-1.938.748-2.105 1.651-1.237 2.769.379.487.77.379 2.633-.359 1.901-.753 2.722-1.088 2.837-1.765.166-.987-.38-1.605-1.237-1.58zm53.425.213c-.005.651-9.887 10.019-15.538 14.788-2.576 2.173-2.487 2.156-2.707 1.888-.139-1.615.956-7.38 1.62-8.384 3.775-3.997 9.598-7.249 15.265-8.471.89-.178 1.443-.16 1.36.179zm-53.25.311a.699.699 0 0 1 .66.713c-.003.302-.44.594-.893.591-.16 0-.553.09-.8.345-.245.354-.403.694-.844.61-.257-.048-.73-.064-.916.098-.868.755-1.73.128-1.329-.63.102-.192.452-.289.737-.287.247.002.81-.055.892-.359.098-.362.652-.463 1.038-.45.42.056.759-.155.868-.33.156-.14.34-.282.514-.296.024-.002.049-.006.073-.005zm-74.734.165l3.147.427-1.983 2.54zm30.04-.043c1.147 0 2.08.929 2.08 2.076 0 1.146-.933 2.08-2.08 2.08a2.079 2.079 0 0 1 0-4.156zm32.775 1.645a2.074 2.074 0 1 1 0 4.15 2.074 2.074 0 1 1 0-4.15zM65.1 187.688l3.414.218-1.954 2.613zm18.023.5a2.074 2.074 0 1 1 0 4.15 2.074 2.074 0 1 1 0-4.15zm85.28 1.294c1.423-.023 3.074.121 3.074.121l-.4 1.597c-1.734.165-3.964-.317-5.827.462.692 1.13 4.745 2.731 5.193 3.13.042.168-.334 1.691-.334 1.691.11.39-6.858-2.828-7.089-5.542.006-.92 3.01-1.421 5.382-1.46zm-23.958 1.658c3.958.037 5.912 5.563 4.373 8.01-.609 1.106-1.983 2.418-3.796 3.574-.872.555-3.18 1.687-3.18 1.687l-1.038-1.605s.92-.37 1.789-.844c2.18-1.231 6.604-3.855 4.465-7.428-1.2-1.933-2.998-2.312-6.73-.417-2.786 1.415-3.418 1.547-3.418 1.547l-.708-1.28c.185.106 5.563-3.131 8.243-3.244zm-77.279.577l3.108.005-1.329 2.802zm90.031-.368c1.89 3.656 5.124 6.419 6.007 7.083 0 0-3.22 2.068-5.144 3.385l-1.13-1.329 2.763-2.37-3.112-4.34zm30.326.88c-.35 1.807-.406 3.724-.554 5.834.682.622 1.294.933 1.83.897.601-1.897 1.034-4.052.747-6.27-.569-.444-1.317-.395-2.023-.46zm1.559 1.374c-.01 1.191.154 2.678-.355 3.827-.29.654-.951.408-.974-.48-.031-1.203.213-2.211.283-3.307.04-.624.31-.998.682-.853.387.187.355.464.364.813zm-44.875.82c2.041.152 2.828 1.858 2.076 3.083-1.844 2.356-3.73 2.783-6.149 4.146l-2.414-4.514s4.699-2.652 6.487-2.715zm-.055 1.008c-1.35.157-2.203.815-3.337 1.372-1.39.68-1.842 1.733-.899 2.687 1.04 1.158 4.668-1.603 5.268-2.27.368-.573.307-1.095-.21-1.508a1.312 1.312 0 0 0-.822-.281zm-74.436.19l3.04.033-1.643 2.323zm74.714.475c.517.367.472 1.025-.257 1.212-.369.094-1.005.096-1.02.588-.01.367-.57.505-.89.453-.326-.054-.88-.082-.986.328-.28.557-.49.567-.88.177-.42-.424-.225-.962.596-1.052.35-.038.654-.293.78-.562-.019-.348.225-.55.611-.47.545-.006.902-.208 1.29-.716.272-.128.57-.09.756.042zm-17.788.06a2.079 2.079 0 0 1 0 4.155 2.079 2.079 0 0 1 0-4.156zm-44.324 3.818c1.147 0 2.08.934 2.08 2.08a2.078 2.078 0 1 1-2.08-2.08zm-49.665 1.843l23.773 16.258-1.624 2.37L32.72 205.43zm119.36.528c1.548.002 2.74.892 3.894 2.687 2.292 3.564 1.142 6.374-3.602 9.246-2.205 1.335-2.221 1.348-2.221 1.348l-1.12-1.382s1.605-.944 2.27-1.362c3.9-2.464 4.996-4.644 3.282-7.099-1.653-2.365-3.388-2.176-8.204.888-.974.619-2.139 1.105-2.139 1.105l-1.057-1.435s2.727-1.402 3.656-1.993c2.134-1.363 3.877-2.004 5.242-2.003zm17.723-.612l.015 1.563c.052.07-3.232 1.517-5.156 2.389-.623.34-.38 1.003-.342 1.685l-.927.626s-1.28-.934-1.447-1.533c-.47-1.893 5.556-4.158 7.857-4.73zm-34.323 1.68c1.146 0 2.08.928 2.08 2.075 0 1.146-.934 2.08-2.08 2.08a2.079 2.079 0 0 1 0-4.156zm-64.405.582a2.074 2.074 0 1 1 0 4.15 2.074 2.074 0 1 1 0-4.15zm80.919 1.657c.787-.028 1.379.486 1.701 1.27.826 2.009-.297 3.495-4.359 5.77-.34.192-1.061.582-1.061.582l-2.992-4.13s1.053-.725 2.046-1.32c2.225-1.455 3.651-2.135 4.665-2.172zm-.398.99c-.192.005-.412.079-.67.227-1.042.601-2.784 1.254-3.607 2.342-.48.666-.262 1.328.65 2.182.773.511 4.759-2.425 4.859-3.278-.338-.902-.658-1.489-1.232-1.474zm-118.707.222l.665.447-.665.523zm119.34.724c.295.36.118.968-.507 1.075-.315.054-.78.14-.931.606-.126.307-.556.569-.98.558-.489-.113-.746.183-.773.399-.24.411-.837.477-1.2.09-.283-.3.224-1.167.558-1.155.06.028.427.111.872-.483.09-.432.592-.697.957-.681.37.126.588-.284.736-.51.34-.181 1.03-.18 1.268.1zm-117.759.314l.955.645-2.536 1.799v-1.45zm1.852 1.212l1.3.868-4.733 3.39v-1.838zm2.425 1.547l1.372.907-7.23 4.882v-1.88zm2.604 1.319v1.57l-8.462 5.907v-1.59zm.955 1.13l1.823 1.246.456 53.239-11.4 7.83.01-2.327 9.571-6.92zm137.515 1.439c-2.556 2.919-5.985 3.115-8.976 3.036-8.058.113-13.06.542-14.096 10.15 3.283-2.453 6.764-2.77 10.794-2.654 5.105-.007 7.4-.342 9.475-1.377 3.332-1.663 5.44-4.641 5.037-6.73-.395-.45-1.431-2.314-2.234-2.425zm-138.47.466v1.843l-8.462 5.668v-1.872zm96.612.17c1.147 0 2.08.93 2.08 2.076a2.078 2.078 0 0 1-4.155 0c0-1.147.928-2.075 2.075-2.075zm-55.233.213c14.949.465 46.698.286 46.698.286l1.692 2.44-49.918-.524zm97.008 1.6c-1.789 1.754-3.644 2.612-9.523 2.507-6.212-.111-8.633.87-10.24 3.637-.468.804-.458 1.117.218.509.567-.675 1.858-1.975 2.392-.744 1.055-.69 1.968-1.742 2.52-.413.305-.068 2.095-1.861 2.52-.273.855-.956 1.588-1.256 1.99.101 1.215-.576 1.861-1.668 2.552-.16.98-.7 1.723-1.577 2.294-.242.836-.245 1.686-1.778 2.169-.557.09.03 3.11-1.787 3.966-3.584.701-1.585 1.345-.533.548 1.086-2.047 3.966-5.549 5.413-13.586 5.426-4.879.005-6.897.483-8.429 1.377-2.46 1.435-1.136-2.177.589-4.369 2.173-2.762 4.65-3.578 11.438-3.33 3.71.02 6.08-.491 7.084-1.3.85-.687 1.466-1.152 1.924-1.182.457-.03.519.585-.426 1.511zm-109.84-.671c1.146 0 2.08.933 2.08 2.08a2.079 2.079 0 1 1-2.08-2.08zm-28.547 1.54v1.87l-8.462 5.776v-1.916zm40.908.896h6.565v6.93h-6.565zm14.711 0h7.065v6.93h-7.065zm15.725.223h6.817v6.706h-6.817zm14.769.136l4.538.155s2.52 3.206 3.583 4.684l-3.355 1.721-4.766.01zm-42.048.47a2.31 2.31 0 1 0 0 4.621 2.31 2.31 0 1 0 0-4.62zm15.095.228a2.31 2.31 0 1 0 0 4.621 2.313 2.313 0 0 0 2.313-2.313 2.31 2.31 0 0 0-2.313-2.308zm15.439.06a2.31 2.31 0 1 0 0 4.621 2.313 2.313 0 0 0 2.313-2.313 2.31 2.31 0 0 0-2.313-2.308zm-36.847.469c.456.325.756.852.756 1.454a1.795 1.795 0 0 1-2.744 1.523zm6.313.024a1.53 1.53 0 1 1 0 3.06 1.53 1.53 0 1 1 0-3.06zm45.903.063a2.31 2.31 0 1 0 0 4.62 2.313 2.313 0 0 0 2.312-2.312 2.31 2.31 0 0 0-2.312-2.308zm-38.412.068a1.857 1.857 0 0 1 0 3.714 1.853 1.853 0 0 1-1.852-1.857c0-1.025.826-1.857 1.852-1.857zm30.59-.073a1.858 1.858 0 0 1 0 3.714 1.853 1.853 0 0 1-1.852-1.857c0-1.025.827-1.857 1.853-1.857zm-82.146.199v1.862l-8.462 5.91v-1.832zm59.16-.029a1.53 1.53 0 1 1 0 3.06 1.53 1.53 0 1 1 0-3.06zm15.439.06a1.53 1.53 0 1 1 0 3.06 1.53 1.53 0 1 1 0-3.06zm-7.74.192a1.857 1.857 0 1 1-.001 3.715 1.857 1.857 0 0 1 0-3.715zm23.109.364a1.53 1.53 0 1 1 0 3.06 1.53 1.53 0 1 1 0-3.06zm-65.807 1.605c3.94-.047 8.204 1.955 10.609 5.275 3.64 4.866 6.071 11.071 7.176 19.216.547 4.034 2.428 16.145 3.496 19.007l-1.47-.282c-.198.094-2.084-7.618-3.272-17.804-.44-3.773-1.243-8.642-3.433-13.087-2.501-5.075-6.748-10.453-12.413-10.88-3.304-.25-6.406 1.82-6.74 4.737-.475 2.303.876 4.45 2.648 5.168 1.74.707 3.82.18 4.053-2.191.04-.39 0-.782-.145-1.144.805-.131 1.418.232 1.745.911.17.021.008 3.44-2.681 4.112-3.244 1.062-6.987-2.15-7.278-5.421-.222-2.756 1.876-6.161 4.52-7.084 1.003-.35 2.081-.52 3.185-.533zm-24.161 1.062v1.9l-8.462 5.838v-1.915zm24.345 1.207c4.733-.135 9.341 5.14 11.293 8.616 2.036 3.627 3.648 9.387 4.203 14.808.945 9.22 2.712 16.759 3.084 17.101l-1.29-.28c-.27.18-2.049-8.142-3.132-17.408-.607-5.196-2.535-10.348-4.83-14.318-2.116-3.664-4.97-6.4-8.349-6.798-2.117-.213-4.295.399-4.722 2.628-.227 1.31.458 2.594 2.012 2.706.366.026.716.056.78.068.823.146-.469 1.48-1.318 1.362-3.034-.423-4.433-4.477-2.042-6.633 1.4-1.261 2.862-1.811 4.31-1.852zm10.134 1.353l53.147.538s.044.951-3.264.795c-2.812-.133-4.627.26-6.492.858l-41.757-.092zm-34.48.615v1.765l-8.46 5.92v-1.949zm24.7.747c1.02-.014 2.062.25 2.846.703 6.583 3.813 9.098 13.278 9.964 19.235 1.183 8.824 2.549 17.02 2.929 17.223l-1.435-.325c-.192.007-1.762-7.643-2.74-16.214-.79-6.93-3.16-13.888-7.86-16.816-3.016-2.052-3.608-2.26-5.004-1.061-1.204 1.033-2.429-.523-1.42-1.79.696-.65 1.699-.941 2.72-.955zm-24.7 2.39v1.45l-8.46 5.892v-1.717zm38.684.04c.108-.101 4.572 7.478 5.983 19.423.743 6.29 2.869 17.015 3.21 17.102l-1.547-.165c-1.582-6.325-2.457-12.312-3.302-17.708-.956-6.104-1.724-11.527-5.527-18.604l1.178-.039c0-.005.003-.008.005-.01zm1.013.062l1.382.02c2.364 4.5 4.877 11.49 5.746 18.498.75 6.052 1.509 12.209 3.675 18.619l-1.484-.408c-1.86-5.203-2.52-11.491-3.52-18.008-1.106-7.204-2.841-13.476-5.799-18.72zm8.529.01c2.418 6.262 3.991 9.249 5.096 16.956.857 5.982 2.069 13.463 4.824 21.387l-1.4-.06c-2.042-5.47-3.605-12.797-4.321-19.834-.973-9.558-5.265-18.48-5.305-18.425zm-2.38.024c.13-.194 4.61 8.768 5.648 18.62.69 6.554 2.224 13.04 4.33 19.302l-1.43-.032c-1.652-1.91-2.89-10.961-4.253-19.411-1.391-8.624-3.351-13.93-5.527-18.464h1.226c0-.008.003-.012.005-.015zm-3.613.01l1.27.005c3.323 7.262 4.703 11.582 5.727 18.604 1.294 8.88 2.537 16.892 3.913 18.978l-1.552-.102c-2.14-6.4-3.105-12.795-3.865-19.196-.822-6.93-2.815-12.868-5.493-18.289zm7.011.058l1.508.024c2.6 5.266 4.761 11.671 5.523 18.993.418 3.97 1.149 10.065 4.13 19.467l-1.206-.077c-2.443-6.306-3.91-13.728-4.786-20.2-.883-6.528-2.442-11.915-5.169-18.207zm9.29.044c1.425 3.652 2.6 7.278 3.37 11.011l-.853 1.663c-1.337-4.927-2.843-8.763-4.34-12.65zm-6.88.005l1.838.043c3.156 7.327 4.778 15.074 5.222 17.674 0 0 .437 2.3.465 3.055-.106 6.402 1.002 10.968 3.385 17.853l-1.091-.078c-2.767-8-3.512-13.684-4.219-19.114-.585-6.825-2.806-13.86-5.6-19.433zm4.243.058c1.88 4.696 3.315 9.224 4.62 13.756-.059 1.029-.158 2.155-.829 2.987-1.534-5.543-2.828-11.302-5.198-16.733zm3.471.039l1.455.024 2.9 8.306-1.135 1.256c-.852-2.75-1.724-5.773-3.22-9.586zm8.49.058l1.062 2.497-1.144.97s-1.168-2.337-1.474-3.438zm2.158 0l.533 1.44-.96.732-.746-2.143zm-8.33.029l1.498.01c.605 1.744 2.216 6.017 2.216 6.017l-1.076 1.13s-2.03-5.401-2.638-7.157zm2.322 0l1.33.014c.399 1.134 1.643 4.272 1.643 4.272l-.917.873zm6.949.058l1.314.063-.155.325-.82.407zm-43.096 1.847c5.504 2.902 7.02 11.592 7.618 16.37 1.041 8.337 2.21 15.12 2.458 15.302l-1.222-.194s-.903-4.283-1.527-8.359c-.52-3.39-.922-6.23-1.062-7.53-.088-.812-.224-1.758-.3-2.1-.77-3.424-1.016-4.208-2.008-6.293-.952-2.001-1.288-2.502-2.87-4.286-.608-.685-1.2-1.186-1.407-1.625-.295-.627.32-1.285.32-1.285zm-27.86.447v1.638l-8.462 5.974v-1.872zm0 2.875v1.886l-8.462 5.58v-1.672zm0 3.215v1.75l-8.462 5.896v-1.809zm14.129 1.77h.746l.054 1.226-1.154-.073zm-14.13 1.512v1.872l-8.46 5.585v-1.745zm13.257.713l1.79.02-.02 1.284-2.299-.077zm-1.038 2.06l2.939.054v1.222l-3.642-.058zm-12.218.267v1.964l-8.462 5.625v-1.974zm10.72 2.042l4.3.048-.023 1.023-5.135-.034zm-10.72 1.14v1.92l-8.462 5.415v-1.726zm8.926.91l5.906.083-.146.99-6.735-.03zm-8.926 2.09v1.848l-8.462 5.508v-1.775zm6.71 0l7.773.18 1.639 1.488-12.098.073zm-2.351 2.725l13.363.165.93.863-14.337.054zm-4.36.422v1.96l-8.46 5.541v-1.789zm4.374 1.722l14.808.067-1.072 1.188-13.755.04zm-4.373 1.483v1.794l-8.462 5.741v-2.06zm4.005.936l12.8.044-1.503 1.178-8.844.204zm-4.005 2.216v1.711l-8.462 6.061v-1.92zm7.748.218l7.515.034.14 1.009-6.462-.015zm2.08 2.08l5.77.058.271 1.305-5.134-.068zm-9.828.912v1.59l-8.462 5.906v-1.76zm15.995 1.304l.068 1.241-3.442.131-.97-1.3zm-.029 2.201l-.029 1.305-2.4.038-.538-1.255zm-2.133 2.323l1.89.014-.16 1.004-1.463.02zm.567 2.41h.921l-.155.785h-.47zM74.4 285.807l-.44.567h13.226l.146-.567zm17.053 0l-.232.766h5.968l.165-.766zm9.751.15l-.184.722h15.259l-.252-.722zm18.255 0l.31.877h5.136l-.34-.877zm17.715 0l-9.011.005.325.98h9.319z"/></svg>