<svg xmlns="http://www.w3.org/2000/svg" width="224.224" height="312.806"><title>Vectorized Playing Cards 1.0</title><rect y="589.952" x="1867.658" height="311.811" width="223.228" rx="10.63" ry="10.63" fill="#fff" stroke="#000" stroke-width=".997" transform="matrix(1 0 0 1 -1867.151 -589.45)"/><path d="M29.482 23.066l-.04 265.884 164.638.357.098-266.05zm52.29 1.555l74.595.274s-8.546 11.056-10.313 16.089c-1.373 1.761-1.995 1.442-4.26.983-6.063-1.585-16.28-1.556-21.355-1.648-9.581-.428-18.187 2.542-27.781 3.027-3.315-5.543-8.122-12.501-10.886-18.725zm-50.227.484l47.973.142 11.247 20.524c.408.571.02 1.749-.225 2.411-1.388 3.908-2.615 6.174-5.423 10.832-2.66 4.412-3.614 8.453-2.67 11.17.142.333.264.84.215 1.266-.155 1.354-1.292 2.922-2.84 3.995-1.053.169-3.239.303-4.505 1.555-1.084 1.073-1.973 2.642-1.834 5.511.066 1.026.196 1.678.196 1.678-14.304 5.951-24.556 12.923-24.216 13.179-.135-.062-12.573-5.787-17.751-7.204zm127.482.362l32.887.03.195 93.842-12.621-8.181c1.035-.721 1.674-1.149 2.763-1.888.193-.058.559-.064.797-.117 2.198-.49 3.73-2.135 2.968-3.839-.518-1.157.19-1.086.827-2.03.717-1.06.568-2.006.112-2.9-.226-.442-.102-.618.279-1.437 1.007-1.249.279-3.361-1.022-4.044-.136-.201.142-.512.205-.802.367-1.692-.307-3.178-1.77-3.555-.753-.195-1.004-.325-.739-.998.472-1.193-.15-1.637-1.13-2.024-1.648-.652-1.181-.757.857-1.673 4.17-1.875 5.152-7.45 2.283-12.509-.364-.643-1.34-2.152-2-3.164-.772-1.182-1.52-2.2-1.52-2.2l5.52-7.698s-3.844-4.553-5.213-7.07c.323-1.244 4.171-5.146 4.67-8.935.783-5.94-3.728-9.743-7.995-9.296-2.96.31-6.601 2.202-6.328 7.702.085 1.708.752 3.472 1.961 5.609.845 1.598 1.94 3.29 2.988 4.914l-5.555 7.595 5.614 7.11-.196.308c-.559.889-2.182 3.504-2.885 5.037-2.07 4.094-2.804 8.588 1.447 11.756.744.457 1.317.845 1.634 1.16.417.413.157.727-.514.884-.79.167-1.594.156-2.425.484-2.666.973-5.337 2.542-7.238 4.079-1.066.862-2.785 3.592-3.834 5.81-1.139 2.409-1.457 2.943-1.457 2.943l-19.526-12.5s-.496-.39-.631-.542c-.364-.407-.233-.644.02-1.095.213-.383.221-1.508.127-2.362-.027-1.639-.015-1.645.929-3.15.332-.53.47-1.06.278-1.877-.306-.92-.335-.627.25-1.257.228-.28.503-.42.548-.724.06-.407.022-1.118.029-2.445.014-2.66-.022-2.44 1.472-3.609 1.855-1.452 2.546-2.136 2.841-2.792.422-.941 0-1.651-1.042-3.531-.476-.859-1.213-2.018-1.57-2.665-.666-1.164-1.629-2.697-2.087-4.162-.695-1.125-.59-3.075.053-4.22.807-1.438 1.031-2.306 1.003-5.213-.027-2.694-.222-2.443.464-3.345 5.13-6.79 13.277-19.414 13.277-19.414zm20.9 9.932c.11 0 .223.005.333.01 1.616.077 3.22.596 4.71 2.04 2.026 2.03 1.888 4.958 1.222 8.004-.307.885-.535 1.785-1.159 2.71-.347.514-.63.991-.63 1.056 0 .064-.5.868-1.11 1.79-.597.9-1.282 2.156-1.282 2.156s.954 1.712 2.646 3.854c1.276 1.896 2.103 3.55 2.2 3.452 0 0-.323.82-.768 1.404-1.341 1.762-3.813 5.44-3.912 5.824-.023.092-.278.187-.274.279.018.341.509.746 1.247 1.76 4.46 6.123 5.09 11.292 1.741 14.328-1.666 1.51-3.311 1.985-5.076 1.795-3.233-.347-6.217-3.106-5.868-7.13.158-1.848.062-2.4 1.15-4.548.49-1.21 1.603-3.282 2.342-4.328.646-.75 1.335-1.819 1.335-1.819s-1.587-2.443-4.504-5.878c-.526-.628-.851-1.477-.851-1.477l4.998-7.403s-.58-1.437-1.555-2.89c-1.999-2.981-3.288-6.15-3.276-7.934.03-4.444 2.937-7.048 6.342-7.055zm12.446 105.77c-2.95 1.57-5.824 6.93-.209 3.192l.14 3.082c-2.92 4.145-8.63 1.106-7.178-3.186-3.943.511-4.558-3.491-4.358-5.396-5.186-1.13-3.394-6.622-3.394-6.622-2.997-2.505-3.522-5.128-1.095-7.894-2.454-1.526-3.146-2.504-5.843-3.612 2.068 18.391 11.994 27.943 22.441 36.456 0 0 .231 5.923-.963 4.832-14.917-11.146-24.507-23.892-26.157-44.508-.126.324-7.072-5.377-8.221-5.074-2.408 33.384 24.17 55.328 35.223 59.653 0 0 .156 4.651-.034 4.667-16.75-7.306-35.376-28.751-38.964-54.266l-9.883 15.306-3.702-1.584 15.98-25.18-10.806-6.772-17.595 27.878s-.467 2.325.807 2.29c24.698 2.642 61.428 32.315 49.121 80.609-1.067-.422-2.766-1.249-2.85-1.213 1.93-4.162 7.315-31.123-8.886-52.902-7.423-9.978-18.934-20.597-37.405-23.732 1.526 3.15.86 10.294.86 10.294l4.304.87c-1.452-1.535-2.666-2.8-3.242-4.464-.806-2.594.375-4.13 3.247-2.587 1.14.64 1.427.615 2.538-.21 2.312-1.72 4.951.05 4.342 2.91-.09.421.022.688 1.12.786 2.488.248 4.994 1.48 6.617 3.414.795 1.02.975.868 1.682.254 1.736-1.507 4.611.582 4.098 2.915-.294 1.333-.132 1.653.484 1.912 3.392 1.426 4.225 2.325 5.281 5.296.387 1.088.705 1.446.905 1.384.14-.044.698-.23 1.188-.416 2.533-.96 4.015 2.103 2.22 4.504-.367.492-.095.964.558 1.32 2.108 1.15 3.54 3.897 3.79 6.778.095 1.096.21 1.097 1.305 1.051 2.805-.117 4.14 3.669 1.859 5.062-.795.485-.647 1.111-.03 1.843 1.635 1.94 2.017 3.34 1.873 5.55-.191 2.943-.004 2.885.934 3.243 2.725 1.038 2.217 5.392-.455 5.377 1.924 4.483-.61 9.95-.527 10.051 5.134 2.889.498 5.958-.993 5.419 0 0-.76 2.014.102 3.051-4.503 5.959-10.4 6.948-16.93 9.908l-.205-20.98c2.716 2.187 5.408 4.227 8.098 6.26 0 0 .682-.205.061-.778-1.196-1.107-4.206-3.053-5.049-3.828-1.817-1.38-8.478-7.749-9.663-9.258-.53-1.005-1.331-.423-1.31-.363.797 1.376 1.39 2.98 2.422 4.41 2.228 3.088 4.39 6.52 4.165 9.915-.006 1.9-.76 3.863-1.183 4.817-.314 1.303-2.392-.223-1.869-1.32.924-3.01 1.69-5.475-1.613-10.31-1.61-2.356-3.697-6.635-3.697-6.635l-1.335.323.049 27.37c-1.12.046-3.96.782-3.375.802 8.85-1.768 11.557 10.894 3.013 11.306-1.623.058-3.301 2.852-3.472 4.367.073 3.676.612 7.554-2.079 11.086-.707.928-1.033 2.402-1.687 3.56-3.284 5.816-4.75 9.15-4.416 10.65.087.387.167.896.167.896-10.462 2.614-18.308 3.285-28.847 3.53-.103-.164 3.538-10.406 6.195-15.658 1.965-3.881 2.977-6.534 2.426-7.335-8.358.419-6.755-11.835 1.242-11.404 0 0 2.006-7.06 4.25-10.245 2.126-1.183 6.404.428 8.802-1.159 5.65-1.733 9.35 4.949 9.35 4.949l1.52-6.357-49.967-.24s-5.149 1.929-7.78.841c-1.682-.695-3.612-2.666-3.614-2.665 0 0 19.093-30.667 21.898-35.092.228-.36-.497-1.132-.499-1.14-.105-1.004-22.227 33.48-22.137 35 0 0-.589.836-1.653.098-12.512-8.634-42.413-27.195-42.413-27.195l-.039-13.75c10.4-6.555 9.458-9.233-.166-2.089-.135.114-.206-5.164-.206-5.164 7.337-6.555 1.236-4.502-.213-2.231.035-1.634-.344-3.853.702-4.83 3.206-2.956 6.984-.243 7.174 4.126 4.182.82 3.664 4.495 4.741 5.972 4.264 2.407 2.019 6.06 3.077 7.3 4.49 2.833 1.358 7.386.408 7.282.566.381 6.147 4.123 6.626 3.986-.485-19.617-22.085-38.344-22.686-37.361l.46-4.23s26.996 17.267 26.759 44.975l8.607 5.115c-.765-28.428-13.46-47.615-35.166-59.822l-.46-5.354c18.221 8.48 35.12 25.644 39.054 53.777l10.088-15.658 3.555 1.721-16.198 25.99 10.115 6.652c7.846-10.33 14.389-22.997 18.377-29.023-.105-.551-.323-1.34-.323-1.34-38.568-6.362-60.293-42.504-49.938-80.268l2.68 1.179c-8.042 27.968 5.073 68.226 47.019 76.458-.084-2.974-.607-10.29-.607-10.29s-5.511-1.656-4.7-.992c1.35 1.154 4.383 6.13 3.101 7.898-.921.129-2.464-.387-4.151-1.624-.637-.466-.655-.367-1.37.396-1.982 2.117-4.863.904-4.89-2.005-.011-1.228-.057-1.488-1.8-1.5-2.642-.02-3.829-.473-5.413-2.593-1.124-1.503-1.02-1.51-2.342-1.056-2.534 1.206-4.555-1.326-3.76-3.413.39-.978-.026-1.291-1.18-1.482-2.243-.371-4.78-3.187-5.247-5.487-.095-.47-.33-.588-1.652-.543-2.595.09-4.031-1.483-3.008-3.687.554-1.191.71-1.672-.328-2.479-1.27-.99-1.988-1.676-2.552-2.875-.448-.951-.514-1.56-.822-3.585-.107-.704-.34-.819-1.261-.939-2.683-.35-3.741-3.095-1.77-4.875.6-.544.599-.53-.314-1.712-1.755-2.272-2.412-5.238-1.648-7.213.207-.535.005-1.189-.62-1.345-2.447-.609-2.49-3.322-.147-4.846.68-.442.714-.736.2-1.628-.9-1.564-.855-5.66.015-7.62.562-1.266.559-1.296-.313-1.853-1.86-1.187-1.328-4.454.87-4.992 1.068-.262 1.139-.4.851-1.697-.512-2.31-.6-2.911.763-3.824 3.75-2.436 13.355-7.091 13.355-7.091l3.174-1.511s.317 19.385.112 21.678c-.123.987.763 1.584 1.795 2.611 2.133 2.097 3.301 4.632 6.147 6.392 0 0 1.774-.987 2.87-1.692l.108-27.625c.225-.627.382-.696 1.11-.782.606-.117 2.127-.287 2.636-.436 1.225-.358 1.418-.853-.19-.69-.486.05-1.213.257-2.025.421-5.03 1.51-8.75-6.322-4.92-10.269.735-.658 3.481-1.804 4.729-1.883.36.003 1.433-1.318 2.166-2.538.737-1.225 1.043-2.136.621-3.364-.887-2.585-.04-6.553 2.612-10.886 2.872-4.089 5.09-8.653 6.254-13.511 10.178-1.227 18.812-3.758 28.011-3.198.36 3.11-10.058 21.44-7.883 22.514 8.196 1.963 5.398 11.682-.831 11.36-.933-.005-1.025.078-1.619 2.142-1.13 3.014-1.861 5.313-3.076 8.118-.004.72-.508.65-3.917.625-3.115-.46-5.264 1.237-7.53 1.335-2.89.132-5.355-1.253-6.358-3.55-.447-1.023-.862-.35-.875 2.079-.01 1.932-.088 3.06-.088 3.06s11.942.036 25.551.06c27.509.047 24.769.469 26.95-.622 1.274-.637 2.114-1.327 4.318.113 3.53 2.306 3.415 1.992 2.386 3.477-6.914 10.253-22.196 34.925-22.196 34.925l1.07 1.047s15.435-24.39 22.466-35.816c.32-.37 1.79.098 1.79.098l42.104 27.385c-.355 4.138.059 13.413.059 13.413-11.835 6.285-8.219 9.487-.071 1.875zm-71.45-98.537s12.214.099 18.338 1.08c5.363.86 5.088.702 5.066 4.597-.015 2.766-.019 2.704-.728 4.03-1.308 2.445-1.086 4.855.983 8.23 2.007 3.276 3.477 5.695 3.477 6.162-.002.723-.124 1.606-1.864 2.821-2.052 1.434-2.444 2.437-2.415 3.893.023 1.179-.2 1.564-.905 1.56-.282-.002-1.28.462-2.352.968-1.886.89-1.889.89-3.648.875-.882-.007-1.31-.34-1.555-.244-.474.22-.904 1.807-.89 2.269.05.164.302.065.821-.113 2.918-.998 7.258-.55 7.38-.112.588.533.589 1.356-.299 2.21-.576.905-.837 1.372-.596 2.773.326 1.903.082 2.658-.89 3.316-2.967 2.006-6.928 2.259-13.263 1.041-6.675-1.283-11.24-3.829-15.037-8.386-1.696-2.036-2.115-2.75-1.276-2.89 1.035-.16 2.18-.375 3.242-.832 4.691-2.019 4.608-10.61-1.712-11.506-2.578-.092 5.324-12.248 8.123-21.742zm6.026 5.918c-2.269 1.27-3.454 2.82-3.459 3.662-.001.344.076.282 1.16-.43 3.145-2.069 11.43-5.056 14.386-3.33 2.132 1.279 2.96.862 1.725-.86-2.897-4.039-10.712-.73-13.812.958zm8.102 1.354a5.395 5.395 0 0 0-1.032.112c-2.187.488-4.593 2.29-6.587 3.878-.984.783-2.375 2.333-2.592 2.738-.492.918.594 1.93 2.074 1.12.86-.47.936-.364 1.765-.25 1.91.576 4.086 1.467 7.452 1.184.314.072.29.146.181.44-.2.539-1.392 1.568-2.948 2.72-.803.593-1.505 1.08-1.56 1.168-.248.396.824.427 2-.24 1.667-.945 3.588-3.037 4.763-4.719.112-.16.267-.291.318-.464.114-.39-.588-.228-.964-.333-.162-.045-.128-.452-.17-.64-.112-.493.08-1.309.17-2.01.073-.567.681-1.017 1.081-1.433 1.758-1.829 1.621-2.658-.743-1.252-.398.237-.713.38-1.1.411-3.49.11-5.507-.025-8.417 2.425-1.293 1.043-2.07 1.145-.919.035 1.756-1.422 3.957-3.446 6.392-3.98 1.469-.367 2.867.759 3.51.469.005-.805-1.222-1.392-2.674-1.38zm-.506 5.055c.4.263.792 1.629.755 2.09-.043.534-.963.312-1.09.058l-.5-1.516c-.216-.512.445-.802.835-.632zm-1.778.31c.427.42.525 1.334.768 2.087-.155.544-3.59-.19-4.02-.798.514-.67 2.284-1.471 3.252-1.29zm6.025 9.79c-.259-.018-.6.108-.91.425-1.546 1.583-1.048 4.28.812 5.154.907.426 2.279.112 4.298-.509.963-.296 1.66-.431 1.84-.43.788.004 1.218-1.22.664-1.78-.64-.648-2.157-.553-3.79.709-.826.638-1.416.947-2.083.939-1.633-.02-2.427-1.702-.758-3.467.556-.588.357-1.013-.073-1.042zm-11.445 11.606c1.926 1.554 5.583.74 8.041-.888 2.197-1.453 3.108-1.883 4.87-1.58 2.161.373 2.08-.476 1.145-1.544-1.06-1.211-3.68-.837-5.873.616-4.86 3.222-6.618 3.76-8.029 2.017-1.515-1.872.289-4.276 2.073-2.964 1.463.996 1.441.247.837-.436-3.526-2.971-6.07 2.354-3.064 4.779zm-17.085 1.528c2.453 3.11 4.802 5.68 8.328 7.575l.04.587-11.404-.025c.796-1.39 3.06-8.044 3.036-8.137zM71.65 86.296c-.242 4.688.6 7.442 3.345 10.72 2.918 3.483 2.7 8.913.824 12.268-.83 1.485-2.52-.34-1.724-1.29 1.132-1.425 1.2-4.903.665-7.076-1.202-3.593-3.928-5.352-5.032-9.15-.372-1.62-.254-4.533-.254-4.533zm3.57.396c.2-.031.517.175.987.582 1.613 1.396 1.338 5.393-.508 7.957-.566.777-1.034.555-1.575-.167-.73-.721-.477-.793.137-2.058.64-1.32.845-2.807.714-4.543-.089-1.17-.047-1.725.244-1.77zm104.605 1.37c1.424-.022 3.203.28 3.365.797.154.628-.184 1.131-.978 1.467-2.084.88-4.837-.351-4.142-1.854.173-.268.901-.398 1.755-.41zm-3.609.342c.41-.01.727.091.978.205.683.352-.39 2.756 3.008 2.71.812.119 1.412-.068 1.3.298-.168.554-1.626 1.384-3.207 1.618-4.734.7-4.528.464-4.314 3.81.14 2.184-.002 2.92-.298 4.244-.514 2.297-.717 4.515-.372 3.785.462-.975 1.641-4.057 1.634-5.81-.011-2.583.912-3.095 1.281-1.222.158 1.24-.397 1.94.435 3.203.472.71.688.699.372 1.8-.279.972-.085 1.257.254 1.75.342.497.686.612.396 1.306-.624 1.499.355 2.917 1.775 3.037.657.056.838.342.641.592-.347.432-1.04.637-1.614.763l-15.037-9.61s1.115-2.237 1.447-2.836c2.16-4.736 3.874-6.894 10.192-9.374a3.03 3.03 0 0 1 1.13-.27zm7.99 3.11c.415-.016.723.202 1.072.65.923 1.187.117 2.67-2.152 3.947-1.94 1.103-2.504 1.235-2.924-.499a2.329 2.329 0 0 0-.524-.85c-.449-.412-.346-.754.225-1.057.274-.145 1.146-.503 1.844-.964 1.213-.8 1.927-1.207 2.46-1.227zm-6.4 3.443c.474.007.964.122 1.325.357.601.39.607 1.374 0 1.765-1.208.493-3.115-.167-2.954-1.276.082-.564.837-.859 1.629-.846zm7.736 1.212c.428-.01.75.19 1.017.602.708 1.094-.124 2.192-2.509 3.36-1.57.768-3.575 1.102-3.442.65.106-.364-.455-2.159-.705-2.445-.096-.304.03-.03 2.01-.655.718-.227 1.585-.6 1.986-.851.68-.427 1.214-.65 1.643-.66zM72.73 99.006c-1.103 2.652-1.278 3.823-.753 6.611.437 2.321.944 3.485 3.326 6.915 1.812 2.61 2.393 3.626 1.956 4.45-.308.444-1 .859-1.43.432-.886-1.158-1.418-2.565-2.282-3.855-3.329-4.883-3.56-6.125-3.985-9.98-.195-1.763.818-5.514 1.684-6.075.97-.38 1.784.893 1.484 1.502zm76.913-1.223a.432.432 0 0 0-.244.137c-.453.453-1.747 2.562-1.702 2.88.098.7.67.243 2.171-1.96.36-.53.115-1.1-.225-1.057zm28.652 1.198c1.332.04 1.804 1.235 1.207 1.859-.87.909-2.435.222-2.435-1.052 0-.54.251-.818 1.228-.807zm7.389 1.702c.763.033.865.792.46 1.893-.508 1.022-1.118 1.194-2.95 1.765-2.192.683-2.55.584-2.88-1.433-.126-.775-.064-.603 1.956-1.14.867-.23 1.88-.64 2.42-.865.409-.165.739-.23.994-.22zm-129.508.904l.539 4.073.875-3.05zm122.383 1.37c1.079.004 1.657.97 1.11 1.55-.305.323-1.082.33-1.458.142-.856-.626-.701-1.696.348-1.692zm-32.96 2.127l2.103 1.296-17.082 26.97-2.059-.045-.195-.43zm38.76.26c1.26-.018 1.37 1.17-.157 2.264-.626.4-1.328.499-1.873.523-.76.033-1.271-.164-1.33-.69-.33-1.287-.518-1.607.655-1.53.234.015.872-.022 1.384-.24.524-.223.967-.323 1.32-.328zm-5.223 1.178c.872.005 1.426.95.84 1.413-.722.572-1.623.22-1.618-.645.003-.553.153-.771.778-.768zm-122.91 1.907l-4.647 4.117c1.704 2.015 3.133 4.028 4.608 6.141zm93.97.264c2.016-.08 2.677.895 1.72 1.55-1.299.869-2.412.827-3.887.626-1.95-.362-.398-1.925 1.741-2.146.147-.016.291-.024.426-.03zm-2.142 2.934c.407-.01 1.008.104 1.785.367 1.32.447 2.962 1.83 2.885 2.597-.126 1.241-2.462.6-4.343-1.179-1.178-1.114-1.223-1.76-.327-1.785zm-1.785.02c1.143.108 2.285 3.979 1.398 5.169-.869 1.166-2.4-1.344-2.122-3.316.11-.78.307-1.81.611-1.848a.526.526 0 0 1 .113-.005zm-74.693.85c.645.155 1.47 1.046 1.291 1.722-.13.272-.4.193-.694.122-.53-.224-.939-.961-.836-1.574.05-.166.12-.26.24-.27zm86.674.666l3.36 2.279-3.36.132zm-13.923 4.611c2.578.014 3.123.848 1.199 1.863-.8.422-2.748.502-3.756.152-1.6-.555.32-2.027 2.557-2.015zm20.852 1.736l.176 2.338-6.47.567-.332-2.435zm-22.368 1.164c.449-.028 1.163.18 2.098.66 1.76.906 2.762 2.425 1.854 2.905-.824.435-2.29-.08-3.326-1.169-1.37-1.44-1.481-2.342-.626-2.396zm-2.2.005c1.175.07 2.192 3.292 1.418 4.885-.424.872-.96.681-1.731-.753-.745-1.387-.786-3.835.073-4.103a.674.674 0 0 1 .24-.029zm-84.149.91l-2.828 5.687 5.124 4.473zm109.514 4.381l.455 2.25-6.21 1.53-.607-2.45zm-27.12.44c.757.014 1.468.193 1.877.553.567.498.443.722-.895 1.266-2.382.97-5.317.383-3.614-1.066.602-.511 1.657-.77 2.631-.753zm40.343-.132c-2.371 1.59-.087 2.465 1.608 1.263-.127-.41-1.11-1.256-1.608-1.263zm-42.085 3.189c1.697.055 5.026 2.382 4.314 3.496-.387.61-2.613.09-3.497-.758-1.162-1.113-1.777-2.603-1.134-2.719.096-.017.204-.023.317-.02zm-2.141.107c.875-.163 2.275 3.918 1.217 4.964-.395.39-.505.368-1.169-.22-1.325-1.175-1.097-3.339-.303-4.548.076-.116.164-.179.255-.196zm52.131 2.15c-.231-.431-.519-.632-.836-.87-8.246 3.17-6.132 6.188.836.87zm-19.539.28l.822 2.28-6.254 2.479-.92-2.494zm-106.982 4.314l-2.117 5.575c2.302.013 4.378 1.1 6.48 2.068zm109.06 1.638l1.326 2.24-5.883 3.183-1.173-2.362zm-136.67 4.362l2.411 1.702-3.54 4.4-.323-.62.039-3.653zm139.884 1.384l1.423 2.054-5.663 3.936-1.389-2.234zm-133.81 2.64l2.601 2.006-4.112 4.963-2.49-1.902zm28.627 1.228l-.122 5.971 6.122.235zm70.765 2.691l6.96 4.007-1.05-6.116c-1.817.354-4.15 1.539-5.91 2.11zm38.222-1.253l1.624 2.02-5.233 4.396-1.677-2.103zm-132.303 1.77l2.425 2.254-4.274 4.617-2.244-2.118zm136.773 3.276l1.883 1.912-4.768 4.96-1.883-1.913zm-131.262 2.43l1.878 2.192-4.88 3.878-1.81-2.201zm28.123.514l1.37 5.849c-.1-.425 6.075-1.744 6.88-1.3zm71.893.495l5.828 6.154.655-5.928zm36.043.967l2.108 1.648-3.912 5.575-2.387-1.873zM54.07 162.177l1.736 2.509-5.116 3.046-1.452-2.215zm137.38.592l.322.322-.005 3.981-1.624 2.386-2.215-1.305zm-32.973 4.47l5.156 9.374 1.454-6.99c-1.907-.028-4.924-1.25-6.61-2.383zm-100.33 1.251l1.228 2.704-5.403 2.465-1.233-2.69zm2.92 6.455l.988 2.714-5.746 1.907-.91-2.616zM35.38 179.86l1.79 1.255c9.321-4.9 6.416-6.347-1.79-1.255zm52.687-3.115c.352-.037.758.45 1.086 1.526.495 1.625.232 3.64-.87 3.613-.744-.09-1.02-1.995-1.023-2.547-.008-1.631.354-2.545.807-2.592zm5.11.973l2.22.24-.01.626-17.682 28.074-2.142-1.36zm-9.52.65c.704.007 1.735.492 2.65 1.463.534.58 1.107 1.402 1.247 2.244-.016.278-.49.173-.95.108-1.173-.166-2.9-.98-3.452-1.98-.676-1.231-.295-1.842.504-1.835zm81.292 1l2.358 11.498c.73-2.878 2.273-4.538 3.415-6.798-3.005-1.383-4.239-3.023-5.773-4.7zm-101.597 2.326l.553 2.973-5.957 1.379-.616-2.885zm22.216 1.032c.084-.002.169 0 .25.01 2.178.243 2.486.727 1.022 1.71-.888.597-3.291.68-3.688.045-.422-.678 1.15-1.753 2.416-1.766zm-43.22 1.745l1.85 1.081c3.166-2.289-.292-2.747-1.85-1.08zm40.086 1.003c.665.008 1.066 1.197 1.3 2.288.227 1.057.305 2.012-.102 2.543-.5.65-.988.766-1.384.123-1.162-1.886-1.125-4.97.186-4.954zm-4.91 1.726c.31-.011.702.067 1.159.24 1.545.583 3.594 2.95 2.728 3.276-1.278.483-4.071-.92-4.596-2.337-.265-.715.025-1.155.709-1.179zm-12.744 1.907l.142 2.94-6.265.253-.185-2.924zm15.345 2.475c.617-.018 1.234.063 1.731.278.897.388.244 1.09-1.295 1.624-1.017.352-2.466.443-2.974.039-1.188-.937.687-1.888 2.538-1.941zm-48.442.342c4.291 2.606 13.135 8.411 13.135 8.411-.42.083-.867.412-1.28.734-.32.263-.667.507-.97.63-.475.195-.912.222-1.31.308-2.765.602-4.12 2.167-3.257 4.113.34.765.428.642-.161 1.286-1.65 1.574-1.448 2.045-.86 4.059.007.285-1.964 2.705-.22 4.528.964.84 1.01.315.66 2.225-.123 1.15.19 2.092 1.863 2.421.93.426.916.278.586 1.066-.225 1.131.098 1.599.89 2.01.72.45 1.013.573.504.968-5.568 2.851-7.28 7.812-2.03 15.12.62.862 2.178 3.294 2.178 3.294-1.77 2.628-3.46 4.792-5.266 7.138l5.255 7.35c-.851 1.335-2.84 4.047-4.064 6.723-1.837 4.02-.624 9.655 4.66 11.34 2.266.723 5.259.137 7.144-2.053 1.53-1.777 2.364-5.307.968-8.984-1.766-4.119-3.884-6.139-4.569-7.31l5.627-7.064s-3.877-5.577-5.423-7.602c10.551-12.916 1.932-16.527.278-17.634-.256-.172-.195-.998-.195-.998 9.477-1.085 12.714-6.293 15.502-12.885 5.653 3.64 13.747 8.537 19.418 12.367.547.507.906.82.822 1.1-.068.229-.288 1.277-.298 2.353.263 1.713.138 2.488-.553 3.144-.65.617-.52.898-.416 1.565.182 1.159.357 1.274-.161 1.858-.638.72-.852 1.056-.734 2.802.071 1.037.203 1.814-.068 2.426-.353.796-1.319 1.2-2.587 2.195-2.219 1.743-1.92 2.276 1.144 8.602 2.611 5.391 2.91 6.624 1.908 8.538-.834 1.593-1.148 2.824-1.047 5.125.026.587.076 1.221.073 1.53-.006.745.004.66-.425 1.126-.334.362-.89 1.08-1.232 1.594-3.644 5.465-13.228 19.37-13.228 19.37l-32.231-.054zm45.2 2.543c.378-.027.834.649 1.35 2.015.298.788.266 2.158-.215 2.684-.96 1.049-2.28-1.408-1.863-3.354.188-.88.434-1.324.728-1.345zm90.646-1.477c.006 4.98-.101 11.442-1.816 16.207l1.944.88c-.627-4.89.151-8.907 4.638-11.023-2.041-1.386-3.601-3.728-4.766-6.064zm-95.477 3.14a1.67 1.67 0 0 1 .533.097c.727.2 1.613.625 2.151 1.174.922.94 1.874 2.069 1.634 2.176-1.525.669-5.392-1.375-4.886-2.973.112-.339.308-.468.568-.475zm-6.778.21l.039 2.44-3.746-2.396zm85.544 1.173c.606.054 1.544.847 1.398 1.399-.26.597-.58.541-.999-.085-.521-.783-.733-1.271-.4-1.314zm-75.9 3.018c.909-.025 1.694.176 1.78.65-.003.448-.694 1.029-1.546 1.291-2.13.656-3.727.233-3.144-.812.365-.691 1.74-1.098 2.91-1.13zm74.173 2.767c-.9 1.614-1.011 6.775.577 8.881 2.469 2.726 4.748 6.275 4.485 10.998l-2.372 1.061c.131-3.884-.024-6.41-3.056-9.76-3.611-3.925-2.762-10.725-1.516-12.725 1.07-1.974 2.61.821 1.882 1.545zm-103.906-2.146c.759-.045 1.686.403 3.365 1.51 4.292 3.04 6.619 4.212 10.875 7.219.623.583.592.499.484.958-1.627 6.228-6.352 11.169-13.355 12.074-.81.105-.392-.403-.88-1.38-.502-1.004-1.43-1.442-2.46-1.451-2.891-.027-.419-1.65 3.11-2.113 1.167-.18 2.573-.338 3.316-1.042.161.076-.613-4.87.181-6.611.405-1.566.022-2.323-.416-1.36-.274.605-.659 2.193-.865 3.82-.175 1.374-.464 1.562-.788.895-.147-.305-.144-1.026.088-1.595.264-1.295-1.37-2.271-1.041-3.457.437-.99-.017-2.083-.567-2.445-.3-.642-.265-1.106-.225-1.555.092-1.05-.607-2.06-1.712-2.5-.488-.246-.342-.513.166-.767.238-.118.471-.185.724-.2zm-3.511 1.775c.278-.005.554.025.817.093.568.346 1.025 2.314.39 2.391-.233.028-.963.117-1.53.284-1.92.564-2.83.488-2.792-.617.038-1.126 1.614-2.125 3.115-2.151zm2.553.2c.755.004 1.365.89.89 1.36-.492.486-1.437.13-1.433-.572.002-.38.174-.79.543-.788zm.513 3.066c.217-.008.457.038.714.157.703.325 1.107 1.533.66 1.976-.34.336-1.313.218-1.834-.225-.93-.792-.478-1.871.46-1.908zm-2.381.176c.434.01.748.15.83.45.072.259-.047.498.07.866.183.58.55 1.024.23 1.257-1.473-.088-4.53 1.76-5.414 1.672-.737-.099-.82-.777-.181-1.878.738-1.272 3.16-2.394 4.465-2.367zm.89 3.575c.32-.02.374.157.244.626-.092.333-.016 1.127.21 1.638.243.549.684.876.455 1.09-.377.11-1.641.362-2.704.759-1.372.759-5.224 3.045-4.255-.611.31-1.222 1.727-2.07 4.201-2.935.939-.328 1.528-.546 1.849-.567zm2.02.044a1.558 1.558 0 0 1 1.579.983c.893 1.779-1.67 2.033-2.49.553-.485-.877.145-1.48.91-1.536zm.488 4.142c1.332.007 2.365 1.659 1.399 2.284-.717.43-1.605.35-2.426.147-1.233-.542-.664-2.44 1.027-2.43zm127.516.034c5.067 2.653 11.959 5.099 18.642 6.915l-.225 65.734-45.464.03-12.51-21.718s-.414-.706-.547-1.017c-.253-.592-.162-1.074.01-1.687.414-1.482 1.67-4.385 2.826-6.446 3.022-5.546 7.313-11.63 4.988-16.959-.266-.609 2.4-3.914 2.4-3.914 4.108.336 7.504-2.342 6.288-8.662 8.573-3.506 15.636-6.355 23.592-12.276zm-129.878.323c.116-.004-.233 1.438.494 2.323.454.697.38.674-1.159 1.281-.575.312-1.152.786-1.477 1.076-2.203 1.966-4.383-.605-2.254-2.67a7.916 7.916 0 0 1 4.367-1.99c.012-.014.022-.02.03-.02zm104.75 1.359c.74.131 1.697 1.115 1.39 1.65-1.042 1.747-1.089 2.686-1.182 4.493-.104 2.016.241 2.314-.528 1.966-.501-.235-1.438-.637-1.648-1.15-.484-1.182.754-7.175 1.969-6.96zm-105.469 5.062c.819-.014 1.678.253 2.162.875.403.519.445.962.044 1.174-.954.504-4.11.242-4.27-.406-.244-1 .868-1.622 2.064-1.643zm47.817 1.281c3.856.016 8.355.836 11.839 2.357 4.944 1.865 9.3 6.618 10.284 8.651.299.618-.313.618-.841.675-5.89.973-7.85 8.219-2.88 11.682 1.557.974 2.816.87 2.816.87 1.261-.107-5.601 13.06-8.333 21.263-8.452-.346-14.838.956-23.101-1.887-.889-1.475-.677-4.733-.03-6.416.594-1.528 1.376-2.707.998-4.465-.657-3.062-3.448-7.05-4.381-9.58-.82-1.93-.767-2.65.66-3.755 1.681-1.303 2.096-1.577 2.557-2.235.43-.614.247-.755.255-2.137.009-1.677-.031-1.417 1.354-1.663.483-.086 1.623-.45 2.494-.91 1.807-.952 3.066-.918 4.127-.327.462.124.418-.354.612-.988.084-.276.28-.728.264-.865-.033-.284-.643-.202-1.316-.108-2.695.377-4.82.46-5.912.054-.947-.353-.95-.99-.396-2.05.494-.943.842-.928.64-2.894-.252-2.47.09-2.99 1.243-3.8 1.437-1.01 4.047-1.484 7.047-1.472zm13.937 2.176h12.533c-1.23 1.985-2.598 5.045-3.374 7.947-.114.226-.247.448-.538.156-1.69-2.42-3.615-5.01-8.621-8.103zm-10.392 8.827c-1.498.043-3.372.763-5.727 2.113-1.6.917-2.907 1.486-4.606 1.173-.971-.179-1.096-.04-1.223.274-.571 1.418 1.55 2.94 3.692 1.942.623-.261 5.4-2.738 5.663-2.95.287-.23 2.265-.813 2.788-.806 1.58.02 2.555 1.262 2.362 2.694-.258 1.914-2.972 2.01-3.15.308-.136-1.31-.683-.728-.733-.083-.003.55.412 1.805.865 2.088 2.293 1.432 5.317-1.355 3.869-4.225-.887-1.756-2.102-2.576-3.8-2.528zm-10.285 6.671c-1.555.296-2.567.902-4.244 1.04-1.383.306-1.28 1.408-.415 1.981.664.44 1.501.175 3.921-1.364 2.378-1.511 4.416 1.637 2.514 3.249-1.197 1.015-.375 1.282.444.67 2.106-1.571.898-6.17-2.22-5.576zm7.36 8.102c-.182-.013-.47.053-.855.23-1.782.816-3.152 1.676-4.005 2.822-.146.249-.067.669-.137.997-.056.259-.262.587-.225.763.032.153.535.317.611.46.31.583.11 2.066-.068 3.14-.086.513-.85.672-1.154.982-1.004 1.02-.752 1.332.317.934.748-.278.43-.793 2.28-.435 2.394.464 4.292-.186 6.176-1.232 2.092-1.162 2.849-1.807 2.934-1.668.14.229.03.35-1.463 1.59-3.738 3.107-6.519 3.829-8.616 2.665-.628-.427-1.13-.601-.655.313.06.1.569.495.924.655 2.154.972 4.856.15 8.294-2.567.754-.597 1.42-1.265 2.293-1.996 2.853-2.387 2.102-3.48-1.12-2.318-1.015.367-1.301-.028-2.675-.562-1.844-.716-2.45-.784-4.572-.821-1.847-.033-2.124.14-2.122-.172.002-.395 1.244-1.792 2.64-2.4 1.363-.594 1.745-1.341 1.199-1.38zm3.4 5.893c.343.348-.15.57-1.482 1.203-.755.358-1.449.652-1.546.65-.118.215-1.375-2.619-1.032-2.758.147-.059 3.225.202 4.06.905zm-4.837-.298a8.2 8.2 0 0 1 .665 1.936c.028.191.164.467-.137.465-.237.034-.627.054-.768-.167-.301-.473-.636-2.083-.523-2.396.231-.313.639-.094.763.162zm10.964 5.095c-.112.002-.321.084-.65.279-5.303 3.131-11.663 4.763-15.752 3.218-1.38-.521-1.631-.338-1.13.606.348.655 1.039 1.423 2.088 1.712 3.341.919 8.722-.42 12.862-3.135 1.685-1.105 3.065-2.683 2.582-2.68zm31.209 8.392s9.371 19.317 11.193 20.225l-76.247-.136 12.846-18.363c.114 1.021 30.988 5.261 52.208-1.726z" fill="#131f67"/><path d="M67.275 286.942l12.313-18.184c18.212 3.461 34.596 1.632 52.543-1.57l11.953 20.16zm96.557-67.769l-.079-10.796 3.761 1.399c-1.305-5.022 1.99-10.269 4.992-10.477-9.59-7.235-1.624-14.973-1.79-15.139-10.489-5.413-5.226-13.725-5.953-14.47-12.78-3.314-7.79-13.46-8.756-12.412-7.44 2.237-11.537-3.998-11.663-9.067-6.438 3.649-16.385-1.521-13.268-7.33 0 0 3.41 1.618 4.013 1.291 5.256-3.822 4.844 1.664 5.937 2.855 3.92-.568 6.234 2.433 7.211 3.89 5.783.006 5.545-1.38 5.595 4.228 4.357 1.106 4.184 3.462 6.708 6.68 5.492.061 4.568 1.849 3.325 4.889 3.96 3.152 4.28 5.62 4.933 8.486 4.319 1.565 5.094 2.203 2.275 5.844 3.812 5.715 1.977 9.024 2.557 9.336 4.752 3.43 2.377 4.67.301 5.987.721 4.557 1.299 5.227-.377 9.866 5.463 3.877-.867 5.626-1.19 5.545l-.015 3.842zM31.545 191.025l-.11-13.377 46.314 29.927-5.852 9.186zm61.527 19.688l10.946-22.92-3.933-25.001 31.375.686c3.527 8.018 5.655 14.836 14.693 28.109l-9.55 2.975.333 16.068zm26.833-6.028c-.32-.663-.498-1.116-.439-1.412.118-.382.409-.364.783-.16 1.334.648 2.667 1.207 3.65-.019.492-.641.363-1.555-.054-2.083-.753-1.531-3.12-.423-3.915-.368-.739.017-1.024-.605-.416-1.49.362-.385.588-.81.648-1.31.415-3.504-5.556-2.258-3.485 1.14.942 1.259.393 2.015-.99 1.22-1.523-.876-3.64-.06-3.57 1.782.053 1.395 1.805 2.257 3.28 1.415.34-.194.605-.405.847-.51.685-.298 1.177-.052.95.72-.613.964-1.333 2.35-.73 3.26.602 1.33 2.679 1.205 3.391.379.49-.57.628-1.496.05-2.564zm72.377-70.257l-46.404-30.076 1.604-2.542c2.078-1.16 2.934-2.603 2.863-4.614l1.26-2.778 40.725 26.133zm-72.553-10.167l4.753 24.282-32.396.46c-1.78-8.152-12.907-26.605-12.877-26.282l8.638-21.23 42.99-.05zm-12.157-9.04c.82-.752.766-1.9-.14-3.192-.876-1.25-.485-2.153.92-1.306.777.522 2.012.63 2.847.365 1.058-.36 1.498-1.206 1.342-2.273-.19-1.292-1.621-1.646-3.15-1.082-.442.093-.712.454-1.093.626-.824.363-1.152-.629-.398-1.914.836-1.424-.032-2.951-1.569-3.086-1.643-.144-2.621 1.725-1.952 2.75.962 1.472.265 2.497-1.114 1.513-1.985-1.417-4.577.379-3.503 2.485.52 1.022 2.226 1.29 3.754.643 1.277-.542 1.656.081.882 1.39-1.59 2.688 1.022 5.052 3.174 3.08zM60.57 91.378l-.343 12.94c-4.846-2.965-4.126-3.002-4.304-2.957 1.425 3.889-.24 8.695-4.35 11.057 7.409 6.95 3.406 11.835 2.19 15.135 9.464 5.496 4.662 14.99 4.7 14.5 9.332.052 9.144 8.211 9.413 11.616 11.538-.725 9.991 8.495 11.513 9.288 5.593-2.504 12.126-1.645 13.859 5.873 1.122 4.265-2.992.155-4.784.334-6.377 3.972-5.15-2.09-5.51-2.933-5.281.501-5.992-2.018-8.306-3.804-5.705 1.098-5.235-.779-4.9-4.244-4.475-.907-5.448-3.7-7.232-6.434-6.179.2-3.658-4.165-3.635-5.023-.75-.671-4.299-4.163-4.473-8.16-6.344-1.793-2.36-4.994-2.132-6.092-2.399-2.99-3.03-5.195-2.226-8.962-5.632-2.633-.929-5.094-.53-6.591-1.836-4.908-.498-6.376.227-9.032-3.625-4.248-1.459-4.012 1.193-6.59.336-.465-.59-2.599-.54-3.854zm32.538-47.953l-10.155-18.18h72.538s-7.894 10.94-10.955 16.444c-18.09-2.856-35.018-1.5-51.428 1.736z" fill="#d40000"/><path d="M42.474 275.134c-6.362-1.445-7.443-9.442-1.47-16.093.483-.537.812-1.37.812-1.37s-1.063-1.748-3.85-5.608c-.519-.718-1.274-1.868-1.274-1.868 1.526-2.202 3.128-4.025 4.837-6.413.229-.322.653-.683.594-.98-.085-.423-.705-.845-1.446-1.937-4.308-6.346-4.783-8.862-2.596-12.636 2.055-3.548 6.966-3.958 9.955-.83 3.23 3.38 3.08 6.45-1.116 12.701-.92 1.372-1.585 2.61-1.585 2.61s-.039.436 1.48 2.397a94.435 94.435 0 0 1 3.654 5.056s-.96 1.223-1.867 2.29c-2.432 2.857-3.526 4.827-3.526 4.827s.166.57.529.981c6.666 7.554 6.141 16.23-1.398 16.967-.387.038-1.33-.02-1.733-.094zm53.62-96.394c-.174-.286-23.99 38.254-23.99 38.254l2.72 1.744 22.78-35.627c.345.261.68.572.611 1.005 0 0-18.764 30.578-21.89 35.465-.084.132 4.653 2.938 4.812 2.946 6.977-3.44 36.083-.462 55.409-1.646.076.06-.297 6.79-.297 6.79s-4.407-5.098-5.297-5.13c-4.394-.152-9.015 1.72-12.325 1.509-2.114.647-4.528 8.352-5.002 10.283-3.847-.447-7.562 3.578-6.673 7.326 1.257 4.164 3.418 3.85 5.755 3.919-.217 4.714-8.54 17.14-8.576 23.262 8.802-.696 18.327-.856 27.406-3.594 0 0 3.41-9.808 7.714-16.272 1.42-2.473 2.1-6.186 1.524-8.525-.364-2.563.74-3.21 1.727-5.004.6-1.12 2.819-1.075 3.102-1.157 5.775-1.672 3.712-9.14 1.255-10.469-3.066-1.657-7.4.91-9.065-2.45-1.762-3.555-1.192-10.91-1.192-10.91L93 210.669s12.32-23.411 12.007-23.583c-3.368-1.85-8.87-8.278-8.912-8.345zM66.93 200.05c.204-2.368.583-40.842-35.772-59.968l.194-5.058c.223-.26 33.07 14.827 38.704 54.016l10.136-15.885 3.729 1.463c-5.509 8.28-16.468 28.373-16.99 25.432zm-22.076-13.86c1.498-4.442-.959-2.086-3.198-2.268-1.531-.833-3.035-1.909-4.456-2.844 10.623-5.63 4.297-5.358-1.893-1.405-1.605-.87-3.634-2.776-3.762-2.615 11.989-7.712 7.492-7.867-.18-2.284.264-5.237.077-3.271.18-5.032 6.54-7.007.449-3.2 0-3.116-1.61-6.992 6.09-5.528 6.797-.242 1.355 1.008 4.02 2.255 4.804 6.591 3.698 2.355 3.31 4.306 3.139 7.127 1.446 1.429 5.18 4.444.825 7.23zm-13.79-31.903l.246-3.868c.502-1.577 28.539 18.426 26.518 44.13.33-.18-3.103-1.795-4.088-2.678.015-18.914-22.242-38.524-22.675-37.584zm160.807 21.697c-18.707-8.574-36.47-29.12-37.404-55.844l-10.566 17.698-3.75-1.588c.35.29 8.356-14.571 16.599-24.843 2.325 33.718 15.548 49.398 35.579 60.787zm-97.97-12.33c-18.126-2.25-44.336-26.93-36.503-60.385 1.11-3.397 18.593 15.426 18.594 15.425.11-.854 15.726 24.305 15.288 29.22 13.18 3.755 38.908.195 38.908.195 21.392 4.778 43.76 27.857 35.684 60.657 0 0-5.686-3.734-10.439-8.079-14.437-13.956-19.018-25.424-24.133-38.074-18.485-1.674-35.814 1.642-37.399 1.042zm98.144-27.862c.316 1.667.112 5.119.174 5.112-4.818 5.246-5.318 5.341.721 3.655-.748 5.031-4.467 5.857-6.677 4.145-.814-.63-.821-4.098-.821-4.098-3.663-.917-4.92-2.02-4.401-5.959-4.219-.504-4.053-2.557-3.706-6.844-3.84-2.161-2.884-5.6-.612-7.07l1.9 1.31c-.61.544-.312 3.96 3.055 1.419 0 0 2.692 2.236 3.986 3.103-9.74 6.264-3.836 4.887 2.164.772 1.126.768 2.663 2.024 3.463 2.566-7.904 5.669-10.498 10.408.754 1.89zm.473 21.297l-.322 4.515c-19.231-11.767-24.437-27.285-25.867-43.813 0 0 2.581 1.9 3.762 2.69 1.716 21.322 21.24 35.719 22.427 36.608zM87.155 101.14l46.12.294-12.231 23.394 6.456 7.628s16.021-24.97 24.077-38.049l-2.787-1.666-22.993 36.139-.914-1.013 22.669-36.11c-1.36-.89-3.932-2.319-3.932-2.319s-39.277.631-56.348.562c.553-2.357.673-6.533.673-6.533 2.517 3.615 5.215 6.843 11.084 3.29 0 0 6.943.235 7.198-.096.849-1.374 2.355-5.694 4.11-10.574 6.697-.448 6.03-3.686 6.791-4.748-.513-9.518-5.85-4.393-5.391-7.853 1.509-6.166 9.22-20.125 8.246-21.35-1.99-1.32-21.716 2.565-27.457 3.272-.531-.204-3.333 8.958-6.29 12.875-3.215 4.26-4.361 8.83-2.72 13.14-1.701 4.738-4.961 4.252-7.581 5.594-2.97 3.218-2.152 8.146.68 10.052 1.972 1.327 4.998 1.258 8.083-1.247zm91.648-33.09l-5.396-7.25 5.231-7.623c-2.065-3.274-5.47-8.285-4.859-12.256 1.333-7.875 11.955-6.72 12.88.813.502 3.497-2.046 7.785-4.634 11.434 1.708 3.115 2.443 3.623 4.927 7.194-1.476 2.605-5.07 7.703-5.07 7.703 2.241 3.77 5.359 7.926 5.133 11.761-.237 3.294-3.826 6.631-7.175 5.93-10.415-2.181-4.598-13.32-1.037-17.707z" fill="#e2cf00"/><path d="M16.083 8.489v3.481h3.442s.082 3.357.113 10.485c.03 6.917.171 10.35-.274 12.318-1.211 4.543-7.91 4.565-9.242 1.301-.776-1.9-.566-3.376-.607-5.286H5.813s.02.962.025 2.137c.02 5.111 1.744 7.548 5.775 8.514 4.145 1.098 8.985-.576 10.71-4.054 1.028-1.982.91-2.113.934-14.094.016-7.996.141-11.32.141-11.32h3.17V8.488zM81.23 24.416c2.86 5.373 10.983 19.869 10.983 19.869 19.317-4.007 35.562-5.026 52.633-1.286l12.196-18.495zm2.518 1.09h3.492l6.85 14.099 11.82-2.362-2.015-11.707 3.345.02 1.692 11.257 17.365-.44 2.25-10.867 3.203.04-2.298 11.042 13.75 1.853 6.73-12.935h4.62l-10.23 15.972c-18.199-3.547-36.278-2.356-51.41 1.369zm6.587 0h10.196l2.445 9.517c-1.252.653-5.927 1.771-7.492 1.614-1.868-3.273-3.798-8.005-5.149-11.13zm19.663 0h15.517l-1.325 8.103-13.013.416zm24.598 0h11.956l-4.719 9.84-9.017-1.228zm-76.438 2.465c-2.4 5.163-5.78 10.2-8.612 13.922-8.396 10.977-10.2 14.1-11.859 20.564-2.597 10.116 6.357 18.29 14.123 12.792 1.83-1.295 3.855-4.865 3.863-6.406.006-1.108.765-1.707 1.38-1.085.123.125.155.621.117 1.33-.43 4.584-2.27 12.037-5.83 16.714h14.226c-4.305-5.71-5.745-11.464-5.667-16.876.01-2.326 1.387-2.097 1.696.284 1.518 11.676 16.575 9.483 17.277-2.196.414-6.107-3.441-12.613-8.464-19.824-4.099-5.884-9.084-12.236-12.25-19.219zm121.96 7.384a9.202 9.202 0 0 0-1.936.181c-3.101.65-4.727 3.033-4.753 6.925-.012 1.783 1.302 4.936 3.3 7.917a26.009 26.009 0 0 1 1.624 2.792l-5.203 7.648 5.536 7.233s-.862 1.011-1.374 1.736c-2.54 3.591-3.713 6.948-3.55 9.702.175 2.974 1.91 5.244 5.158 6.333 1.784.597 4.326-.133 6.035-1.682 1.38-1.25 2.073-2.875 2.103-4.783.042-2.725-1.274-6.027-3.898-9.629-.712-.977-1.06-1.745-1.06-1.745s3.67-5.228 5.056-7.62l-5.018-7.207c3.99-5.995 4.794-7.324 4.905-11.008-.18-3.651-2.83-6.77-6.924-6.793zm-.498.44c.172-.002.346.002.518.015 4.556.351 6.962 3.737 6.357 8.084-.618 4.144-4.354 8.006-4.953 9.34 1.796 2.92 5.183 7.07 5.183 7.07-1.437 2.614-5.15 7.679-5.15 7.679s.215.418.45.753c3.877 5.492 4.942 8.087 4.676 11.379-.21 2.597-2.26 4.914-4.817 5.384-4.05.745-7.372-2.129-7.78-6.01-.25-3.397 1.94-6.7 3.643-9.277a57.33 57.33 0 0 0 1.34-2.112l-5.516-7.242s.395-.623.65-.993c.97-1.408 2.224-3.15 2.866-3.986 1.16-1.51 1.848-2.552 1.848-2.552s-.822-1.324-1.584-2.529c-3.025-4.778-3.87-7.227-3.404-9.868.572-3.248 3.09-5.092 5.673-5.135zm.41 2.45c-1.683.045-3.29 1.287-3.931 3.081-.925 3.366 2.617 8.461 4.23 9.83 3.02-3.474 4.945-7.37 3.829-10.099-.735-1.65-2.444-2.856-4.127-2.812zm.416 1.09c3.051.064 4.193 3.686 1.839 7.806-.813 1.406-2.01 2.875-2.01 2.875s-1.118-1.393-1.79-2.445c-2.727-4.268-2.023-7.6 1.325-8.196.22-.028.433-.043.636-.04zm-60.711 1.884c-7.986.042-18.657 1.372-28.036 3.501-.814 5.03-3.339 10.076-6.093 14.084-2.652 4.332-3.61 8.105-2.724 10.69.83 2.42-1.436 6.032-3.926 6.259-3.095.282-5.066 2.437-5.028 5.506-.088 4.917 3.306 7.932 7.913 6.26a1 1 0 0 1 .772.244l-.269 28.143c-2.592.407-4.323.971-6.528 2.142l-.929-.998c-.511-.548-1.157-1.25-1.438-1.564a6.629 6.629 0 0 0-1.13-.969c-.339-.216-.8-.685-1.021-1.041-.544-.871-2.85-3.087-4.108-3.947-.215-.146-.758-.607-1.208-1.022l-.822-.753.005-9.345c.003-5.14-.05-9.4-.117-9.467-.068-.068-1.12.38-2.342.997-4.198 1.838-8.209 4.372-11.287 6.426-1.363.913-1.5 1.42-.988 3.731.288 1.297.217 1.436-.85 1.697-2.199.538-2.887 4.04-1.028 5.228.872.557.876.586.313 1.853-.87 1.96-.837 5.708.064 7.272.514.893.48 1.18-.2 1.623-2.342 1.524-2.183 4.785.263 5.394.626.156.79.424.582.959-.764 1.974-.068 4.975 1.688 7.247.912 1.181.91 1.168.308 1.711-1.971 1.78-.903 4.971 1.78 5.321.92.12.925.122 1.031.826.308 2.025.448 2.59.895 3.54.565 1.2 1.243 2.01 2.514 2.999 1.037.806 1.037.818.484 2.01-1.023 2.203.604 4.388 3.198 4.298 1.323-.046 1.323-.05 1.418.42.467 2.3 3.2 4.999 5.443 5.37 1.153.19 1.335.465.944 1.442-.63 1.574-.222 2.588 1.37 3.404 1.066.547 1.378.567 2.547.166 1.322-.454 1.336-.447 2.46 1.057 1.584 2.119 2.634 2.65 5.276 2.67 1.743.012 1.808.057 1.82 1.286.026 2.909 3.103 4.121 5.085 2.005.715-.763.713-.76 1.35-.294 2.788 2.044 5.262 2.572 5.032.66-.539-4.474-3.775-7.203-3.775-7.203l4.044 1.057c.177 4.723.346 10.419 1.33 14.357l-18.025 28.71s-1.093-.668-2.245-1.462a157.235 157.235 0 0 0-5.042-3.34c-.651-.408-1.482-.906-2.137-1.457-.627-.523.388-1.213.602-1.766 4.15-7.41 10.646-16.319 15.375-24.979l-4.578-1.77c-3.501 5.513-6.08 9.95-9.34 15.033-3.247-23.82-19.87-44.731-39.982-53.538l.069 6.235c21.113 10.8 36.182 33.09 35.78 59.381-.082.1-1.767-.91-4.043-2.425-1.2-.8-3.617-2.38-3.917-2.533.977-29.116-27.898-46.332-27.948-45.518l-.264 5.506c12.304 8.244 21.971 23.242 22.95 36.589.01.109-5.775-3.61-5.775-3.61 3.443-1.714 2.495-6.156.014-7.36-.776-.347-.822-.516-.435-1.564.793-2.151-.662-5.388-2.665-5.932-.878-.238-1.024-.468-1.066-1.701-.078-2.256-1.326-3.73-3.575-4.226-.62-.136-.626-.142-.66-.919-.19-4.369-4.462-6.148-7.668-3.193-.358.33-.733.958-.733.958l-.025 4.739c1.095-.602 2.756-2.661 3.438-2.577.753.088.388.595-1.306 2.058-1.099.95-2.166 1.952-2.166 1.952l.068 6.24c1.826-1.186 3.654-2.526 5.365-3.717 1.475-1.028 2.23-1.363 2.41-1.066.204.334-.125.77-.963 1.271-2.247 1.498-4.862 3.255-6.753 4.734l-.005 4.299.362.533.108 3.765-.338.083.005 4.744 44.408 28.367 22.597-35.649.372.377-22.602 35.497s.93.8 1.809 1.262a48.577 48.577 0 0 1 2.978 1.81c.452.74 1.244 1.393 2.093 1.3.778-.849 4.173-1.747 4.5-2.139 12.642-.186 48.935.06 48.935.06l.205 5.806c-1.63-5.63-6.892-6.79-11.027-4.27l-6.792.01c-.053 0-4.02 7.23-4.602 11.003-2.855-.388-6.654 2.394-6.846 5.218-.463 4.018 2.177 6.947 5.628 6.377.063.025-.541 3.98-2.494 7.07-2.59 5.456-3.925 8.507-5.506 13.16-1.07 2.924-.705 3.444-.523 3.516 10.133-.146 19.455-1.128 29.072-4.23 0 0-.178-.685-.264-1.07-.348-1.558.961-4.744 4.66-11.326 2.857-5.084 3.675-7.024 3.961-9.424.145-1.214.119-1.529-.303-3.794-.027-.211-.192-.516-.147-.744.3-1.526 2.622-4.207 2.675-4.142 0 0 .843-.156 1.179-.186 5.239-.367 6.862-7.488 2.44-10.7-2.155-1.32-3.424-1.42-5.707-.82l-.04-27.616 3.185.12 3.5-1.728c5.624 4.802 9.292 9.711 15.346 13.408l-.098.245-4.499-3.086.01 18.094c5.208-2.711 10.063-5.21 14.744-9.003l-.944-.817.04-2.586c4.399.346 4.822-5.254 1.207-5.922 0 0 .083-.452.43-1.164 1.11-2.276 1.248-4.421.44-6.788-.492-1.444-.47-1.807.113-1.804 2.672.014 2.427-4.728-.298-5.766-.938-.357-.872-.06-.68-3.002.144-2.21-.395-3.71-2.03-5.649-.617-.731-.564-1.084.23-1.57 2.281-1.392.629-5.413-2.176-5.295-1.095.045-1.093.044-1.188-1.052-.25-2.88-1.858-5.628-3.966-6.778-.653-.356-.749-.647-.381-1.139 1.795-2.4.116-5.683-2.416-4.724-.49.186-1.01.372-1.15.416-.2.062-.36-.218-.747-1.306-1.054-2.962-1.988-3.891-5.34-5.3-.66-.278-.699-.473-.401-1.825.513-2.333-2.7-4.505-4.436-2.998-.707.614-.73.609-1.526-.41-1.585-1.824-4.164-3.095-6.46-3.335-1.097-.1-1.263-.185-1.173-.607.609-2.858-2.172-4.72-4.484-3.002-1.11.825-1.398.85-2.538.21-2.397-1.345-3.448-1.396-3.697-.181-.077 1.012.146 2.209.39 2.954.584 2.008 1.34 2.753 2.994 4.166 0 0-2.745-.761-3.438-.9.068-.072-.2-9.53-2-14.885l17.55-27.933 10.055 6.631-16.08 25.434 4.68 1.902s6.25-10.382 9.522-15.472c2.142 25.28 21.686 47.45 39.39 54.026-.06.03.057-3.635.132-5.408-18.678-8.225-36.445-31.207-35.326-58.79l7.501 4.802c2.178 22.108 11.808 35.063 27.86 46.017v-6.773c-11.055-8.181-20.24-18.868-22.676-35.967 0 0 3.748 2.367 5.428 3.491 0 0-.474.27-.719.474-2.006 1.67-1.403 5.094 1.242 7.033.43.314.434.315.03 1.393-.803 2.14.434 4.726 2.523 5.267 1.198.31 1.19.296 1.213 1.668.042 2.663 1.115 3.89 3.96 4.528.39.087.403.127.397 1.32-.016 2.944 2.812 4.925 5.276 3.692.772-.386 3.198-2.416 3.198-2.416v-4.738s-1.098.899-1.892 1.638c-1.39 1.295-1.828 1.456-1.824.665.003-.573.642-1.326 1.975-2.318.692-.514 1.741-1.614 1.741-1.614v-5.52s-.62-.984-.582-2.162c.021-.64.2-1.614.2-1.614l.666.015-.01-6.392-.807-.63.035-4.235-43.91-28.412-22.87 36.373-.573-.67 22.896-36.143-6.083-3.888-3.673 1.81s-25.415-.401-50.202-.084c0 0-.06-.684-.05-2.616.014-2.429.126-2.77.573-1.746 1.003 2.297 3.492 3.682 6.381 3.55 1.632-.074 1.86-.14 3.673-1.12.674-.363.797-.374 3.976-.351 3.408.024 4.02-.1 4.024-.822 1.187-2.7 2.355-5.83 3.032-8.186.326-1.141.472-1.645.739-1.878.207-.18.37-.14.865-.171 2.181-.14 2.787-.281 4.357-1.814 3.149-3.164 1.343-9.6-3.217-9.624-1.208-.007-.382-3.221 2.17-8.436 2.642-5.395 3.012-6.222 4.378-9.839.892-2.364 1.318-4.058 1.427-5.09-.251-.002-.51-.002-.767 0zm-.24 1.56c.632.53-.946 4.426-3.79 10.323-2.347 4.868-3.397 7.302-3.897 9.066-.145.509-.35 1.242-.46 1.629-.154.544-.356.812-.895 1.198a32.9 32.9 0 0 0-1.188.895c-.77.616-.951.42-.763-.822.35-2.306 1.264-4.792 3.374-9.12 1.673-3.444 3.31-7.136 4.582-10.9.286-.88.42-1.773.895-2.098.684-.384 1.408-.308 2.142-.171zm-3.423.225c.435.3-1.629 5.637-5.203 13.046-4.46 9.246-4.696 15.722-.685 17.307 3.163 1.249 6.348-2.236 4.396-4.778-.938-1.222-2.96-1.325-3.662-.059-.383.691.148 1.488.826.519.987-1.41 2.962.218 2.484 1.887-.327 1.146-1.93 2.067-2.924 1.868-4.382-.874-3.556-7.054.988-7.393 4.348-.326 6.326 5.513 3.169 8.856-1.002 1.082-2.174 1.621-4.216 1.618-2.83-.004-5.475-2.341-5.208-4.508.375-1.984.432-3.587-.24-5.15-.215-.502-.478-1-.464-1.633.04-1.757 1.487-4.485 4.714-11.223 1.157-2.415 2.576-6.6 3.277-9.243.247-.772.125-.99.416-1.096.721-.16 1.752-.376 2.332-.018zm-3.731.092c.662.03-.862 4.89-2.783 9.033-1.458 3.171-3.448 7.245-4.929 11.012-.474.8-.79.861-1.76.343-1.07-.572-.753-1.48 1.77-6.5 1.902-3.81 3.73-8.123 5.012-12.465.116-.52.292-.972.724-1.222.658-.288 1.3-.23 1.966-.2zm-3.55.548c.353.467-1.96 7.021-5.536 14.411-.764 1.57-1.28 3.004-2.05 4.607-.368.371-1.79.56-2.503.704-.734-.098-.038-1.475 2.054-5.707 1.705-3.449 2.19-4.425 3.086-6.523.652-1.537 1.603-4.176 2.494-6.641.071-.199.14-.641.332-.743.664-.28 1.473-.394 2.123-.108zm-3.492.41c.058.159-.074.484-.122.734-.563 2.638-1.849 5.093-2.788 7.614-.112.344-1.142 2.49-2.288 4.768-1.147 2.278-2.199 4.454-2.338 4.837-.139.383-.52 1.4-.846 2.259-2.058 4.415.155 7.895 2.881 8.138 4.251.352 4.653-5.608 1.653-6.181-1.131-.19-2.375.43-2.382 1.731-.08.68.757 1.47.745.493-.044-1.776 2.437-1.694 2.743-.186.595 2.94-2.745 4.377-4.735 2.069-.82-.95-.813-2.035-.66-3.008.413-2.63 3.445-4.533 6.254-2.547 3.845 2.716 2.518 8.724-2.45 9.702-1.698.442-3.839-.124-5.178-1.502-.854-.877-1.414-2.17-1.629-3.775-.12-.893-.166-1.944-.03-2.929.403-3.085 2.653-7.59 4.627-11.404 1.523-3.165 2.72-7.346 4.108-10.71.391-.286 2.494-.551 2.435-.102zm-3.75.421c.225.07-.936 3.725-2.593 7.673-1.823 4.005-4.189 8.588-5.53 12.529-.423.967-.73.938-1.932-.181-.634-.59-.277-1.471 1.946-6.01 3.42-6.983 4.69-9.961 5.203-11.624.242-.782.435-1.74.95-2.044.656-.31 1.303-.54 1.955-.343zm-3.419.876c-.362 1.175-1.547 4.66-3.575 8.787-1.272 2.606-2.514 5.493-3.77 8.182-.701 1.66-.721 1.657-1.917 1.907-2.015.42-2.016.398-.235-3.213.53-1.073 1.547-3.044 2.264-4.377 1.323-2.456 3.367-7.239 4.108-9.624.199-.638.475-1.237.797-1.564.207-.11 1.794-.584 2.328-.098zm-4.406.44c.36-.013.684.051.836.25.09.82-2.125 6.063-3.487 8.494-.415.745-.828 1.71-1.295 2.572-1.735 2.76-3.82 8.063-4.358 10.264-.854 3.497 3.143 6.141 5.216 3.598 1.316-1.539-.053-4.307-1.949-3.534-.662.27-.392.565.512.641 1.493.126 1.606 2.427.024 2.933-1.758.538-3.053-.987-3.047-2.549.014-3.201 3.517-4.378 5.709-2.629 2.187 1.822 2.535 6.151-.777 7.829-3.23 1.636-7.207-.582-8.006-4.46-.61-2.96.051-5.672 2.9-10.235 1.637-2.626 4.18-7.16 5.482-11.14.255-.674.48-1.233.714-1.516.217-.251.926-.496 1.526-.518zm-77.827.802s-1.288 2.47-3.066 5.433c-2.17 3.664-5.364 7.282-5.834 11.38-.127 1.166.067 2.337.303 3.056.991 3.015 5.31 3.47 6.817.929.452-.763.605-.905 1.046-.665.19.102.27.399.26.816-.375 2.706-1.418 4.192-2.915 6.226h7.203c-1.516-1.67-2.803-3.973-2.958-6.304-.047-.955.536-1.035 1.408.01 2.81 3.884 7.227-.48 6.866-4.103-.402-4.032-4.619-9.247-5.78-11.296-1.757-2.6-3.35-5.482-3.35-5.482zm164.407 8.514l-4.337 5.516c1.251 1.808 4.225 5.364 4.225 5.364l4.113-5.31zm.04 3.085l1.794 2.328-2.054 2.426-1.926-2.265zm.16 11.991s-5.243 5.747-4.038 10.01c1.076 3.799 6.79 4.722 8.18-.836.099-.443.022-1.04-.038-1.785-.12-2.263-4.103-7.389-4.103-7.389zm0 1.135s1.507 2.183 2.568 4.117c1.188 1.84 1.5 6.982-2.719 6.822-2.286.236-4.47-2.779-2.65-6.465.495-1.123 2.802-4.474 2.802-4.474zm-86.555.924c.291-.045.584.584.768 1.041.25.623-.464 2.414-1.218 3.306-.143.15-1.107.233-2.538.964-.004-.671.406-2.142.675-2.793.976-.964 1.804-2.113 2.19-2.455a.24.24 0 0 1 .123-.063zm-10.45.323c.644.73 1.277 1.362 1.251 1.814-.038.66-.815 1.478-1.403 2.059-.738.729-2.21.295-2.205-.65.001-.35 2.104-3.225 2.357-3.223zm22.196.948c.623.334 1.254 1.47 1.335 1.986-.913 4.914-4.29 10.92-4.176 10.695 0 0-2.07.368-2.949-.079 2.275-3.157 3.798-7.175 4.832-10.465.443-1.418.645-2.133.958-2.137zm-1.917.69c.348-.02.483.26.19 1.022-1.336 5.434-4.341 11.146-6.704 12.186-3.102 1.366-6.186.232-7.51-2.103-1.435-2.527-1.18-6.515 3.598-7.389 2.811-.288 5.691 1.928 4.191 5.492-1.67 2.644-6.156 1.17-4.841-2.24.994-1.25 3.076-.165 2.396 1.247-.345.717-.011 1.157.499.66 1.636-1.593-1.055-4.326-2.87-2.958-2.961 2.231.695 7.136 4.141 5.032 1.05-.641 2.95-4.24 3.663-6.861.307-1.128.584-2.2 1.31-2.885.692-.652 1.49-1.177 1.937-1.203zm-7.849.215c.17.007.368.09.641.225.345.17.751.48.704.88-.054.463-.318 1.468-.85 1.956-.322-.11-1.207-.463-1.81-.626-.379-.102.125-.918.357-1.369.373-.727.58-1.032.885-1.061.023-.002.05-.006.073-.005zm-9.765.186c.446-.009 1.152.486 1.618.552.09.675-.768 2.12-2.166 3.825-1.146 1.398-1.14 1.4-1.902-.137-.496-1.002-.51-.974.904-2.734.76-.946 1.127-1.379 1.458-1.496a.524.524 0 0 1 .088-.01zm4.435.494c.021.36-.163 1.156-.318 1.618-1.585 4.735-5.288 9.425-8.342 10.578-3.988 1.303-7.639-.797-7.732-5.639.101-5.704 6.893-7.285 8.944-2.083.927 2.35-1.598 5.88-3.78 5.291-2.202-.594-3.121-4.03-1.305-4.88 1.19-.557 2.42.377 2.161 1.638-.09.438-.065.498.19.45 1.132-.211.535-2.484-.801-3.051-2.525-1.072-4.433 2.33-2.729 4.865 2.04 3.036 5.248 2.454 7.096-1.29.314-.638.913-1.553 1.325-2.03 1.119-1.295 1.475-1.804 2.465-3.516.545-.943.837-1.54 1.115-1.849.443-.03.746.093 1.711-.102zm8.944.25c.479.003.847.314.836.977-.009.555-.803 2.893-1.173 3.453-.143.214-.474.966-.523.802-.467-1.556-1.3-2.037-1.419-2.445-.139-.48.282-.939.47-1.37.398-.916 1.194-1.423 1.81-1.418zm8.43.738c.58-.005 1.397.26 1.566.689.528.926-3.044 9.549-3.174 9.575l-2.665-.117c1.6-3.439 3.016-6.846 4.044-10.128.07-.012.147-.019.23-.02zm35.758 13.648l3.389 2.015-22.339 35.498-3.247-2.485zm-55.733.734c20.864.077 49.6.039 49.6.039l-1.212 2.303s-31.386-.306-48.388-.274zM59.83 91.92l-.044 11.668s-.157-.069-2.147-1.394c-2.388-1.59-5.01-3.229-5.853-3.658-1.244-.632-1.081-.937 1.31-2.46 2.35-1.413 6.734-4.156 6.734-4.156zm89.339 1.159l2.098 1.325-23.473 37.361-1.306-2.562zm-61.167.518h3.267v3.692h-3.267zm7.482 0h3.966v3.692h-3.966zm8.666.04h4.078v3.691h-4.078zm8.504.014h4.122v3.692h-4.122zm8.567.024h4.069v3.693h-4.069zm8.573.079h4.161v2.601l-.63 1.09h-3.531zm22.431 1.203l39.81 25.756-.024 3.555-41.444-26.783zm-2.611 3.012l.342.245-1.687 2.582-.347-.196zm-61.5.381h44.687l-1.345 2.265-43.341-.064zM51.43 99.505c.3-.02.887.245 1.8.758 2.197 1.233 3.58 3.833 2.63 4.772-.844.836-2.822-.954-4.049-3.51-.65-1.356-.82-1.992-.381-2.02zm79.069 2.23l-14.416 23.042c-3.26-4.466-6.913-8.325-14.89-5.712-4.16-3.216-8.558-3.712-13.238-.983l.053-16.27zm-74.213.01l1.125.972c-.332.635-.485 1.553-.7 2.372-.017-1.123-.115-2.24-.425-3.345zm91.392.239l44.418 29.224v2.709l-45.968-29.615zm-97.285.665c.575-.011 1.137.234 1.56.743.672.808.395 2.287-.548 2.92-1.877 1.259-4.13-1.178-2.64-2.856.466-.526 1.054-.796 1.628-.807zm7.355.347l2.425 1.942c-4.21 24.01 7.818 48.25 33.723 55.513l.293 3.076c.05.146-11.005-3.283-15.834-6.895-6.601-4.466-12.179-10.755-16.025-18.07-2.624-4.716-4.063-9.91-4.993-14.108-1.1-7.201-1.068-14.33.41-21.458zm-2.753 3.257c.93.038 1.03.708.283 1.995-.96 1.655-2.4 2.807-4.733 3.79-1.286.541-1.621.295-1.472-1.076.224-2.062 1.658-3.57 4.142-4.367.596-.165 1.199-.346 1.78-.342zm7.14.26l.963.816a2.022 2.022 0 1 0 2.645 2.254c.363.31.703.601.969.832a3.182 3.182 0 0 1-6.142-1.174c0-1.165.63-2.175 1.564-2.729zm1.618 1.593c.11 0 .217.02.318.05.254.215.458.391.704.6.07.149.113.31.113.485a1.135 1.135 0 1 1-1.135-1.135zm-7.643.734c-.264 3.096-.181 6.334-.083 9.575-.598-2.568-1.932-4.49-4.152-5.805 1.533-1.06 3.137-2.348 4.235-3.77zm11.673 2.43l2.156 1.863c-1.854 25.417 20.42 35.062 21.018 34.638l.939 2.875c-15.38-5.235-26.013-21.133-24.113-39.376zm124.068 60.934l-.112 3.2c-17.454-6.772-37.345-31.758-37.092-55.698-4.481 6.87-7 11.455-10.847 17.644l-3.062-1.458c5.037-7.503 9.823-15.527 14.874-22.897.575-.832 1.046-1.214 1.072.606-.003 8.237 2.552 42.125 35.167 58.603zM49.937 113.256c.562-.036 1.365.236 2.377.914 1.597 1.07 3.387 4.377 2.768 5.115-.557.664-2.924-.126-4.098-1.369-2.328-2.464-2.48-4.569-1.047-4.66zm13.61.332a3.181 3.181 0 1 1 0 6.362 3.18 3.18 0 1 1 0-6.362zm7.125.303l2.078 2.436c.406 21.332 17.244 27.91 17.086 27.962l.509 2.293c-.939.132-20.832-8.924-19.673-32.69zm-7.125.851a2.025 2.025 0 1 0 0 4.05 2.025 2.025 0 0 0 0-4.05zm0 .89a1.135 1.135 0 1 1-.001 2.27 1.135 1.135 0 0 1 0-2.27zm10.758 1.932c.256.001 1.457 1.746 1.457 1.746s-1.319.462-1.887-.113c-.565-.57-.26-1.637.43-1.633zm92.194.787l3.12 2.132c1.457 14.392 9.701 27.52 22.133 36.628l-.078 3.565c-15.143-10.232-23.55-24.134-25.175-42.325zm-116.894.245c.05-.003.102-.001.151 0 1.909.032 2.718 2.964.675 3.804-1.284.529-2.68-.234-2.817-1.54-.095-.92.588-1.903 1.516-2.176.165-.048.322-.079.475-.088zm26.035 1.922c.5.001 1.044.288 1.56.87 1.368 1.543 1.356 1.992-.088 2.577-2.03.824-3.718-.32-3.042-2.063.355-.916.927-1.385 1.57-1.384zm-20.788.073c.165-.003.318.018.46.073 1.497.584-1.748 6.528-3.893 7.13-1.363.383-1.648-.149-1.203-2.235.495-2.318 3.042-4.935 4.636-4.968zm9.546.137a3.18 3.18 0 1 1 0 6.362 3.181 3.181 0 0 1 0-6.362zm0 1.154a2.025 2.025 0 1 0 0 4.05 2.025 2.025 0 0 0 0-4.05zm-7.957.171c.283 2.944.761 5.667 2.069 9.291-1.226-1.96-2.975-2.934-4.65-4.044 1.174-1.749 2.534-3.498 2.581-5.247zm7.957.719a1.135 1.135 0 1 1 0 2.27 1.135 1.135 0 0 1 0-2.27zm18.015.347c3.32-.071 5.667 2.662 5.52 5.282.098 3.041.208 4.99-.043 8.768l-2.695-4.935c-.038-1.398.2-2.457.093-3.848-.305-3.742-3.972-3.222-4.146-2.851l-1.16-1.883c.852-.35 1.665-.516 2.43-.533zm11.692.377c3.11-.004 4.913 1.748 5.008 4.865.182 5.969-.137 19.595-.137 19.595l-6.729.005-3.672-9.105s-.146-.876-.118-1.511c.234-2.92.088-6.17.186-8.807.388-2.796 2.685-5.04 5.462-5.042zm-15.57.944c.433-.006.834.126 1.14.435 1.56 1.578 1.552 2.613-.03 3.325-2.092.942-3.179.763-3.892-.636-.7-1.371 1.236-3.105 2.782-3.124zm98.097.43l1.707 1.1s-.36.561-.553.895c-.969 1.667.678 2.645 2.959 1.76.411-.16.762-.386.762-.386l1.409.959s-1.016.548-2.123 1.09c-2.846 1.393-4.892.802-5.58-1.609-.272-.957 0-2.155.534-2.856.272-.358.885-.953.885-.953zm-72.179.2c2.604-.088 5.139 1.946 5.741 4.68.25 1.28-.073 18.211-.073 18.211l-10.333-.005.18-17.76c-.068-1.124 0-2.235.602-3.033 1.136-1.414 2.519-2.046 3.883-2.093zm-10.73.778c-2.086.096-3.271 3.477-1.124 5.071.897.666.916.791.435 3.042-.547 2.567.02 6.085 1.301 8.064.983 1.639.782.8.279-.66-.647-2.74-.33-4.754 1.252-7.937 1.413-2.682 2.783-6.806-1.712-7.55a2.065 2.065 0 0 0-.43-.03zm85.755.773l.934.63s-.14.117-.342.313c-.374.362-1.117.42-1.345.142-.378-.46.753-1.085.753-1.085zm-74.438 1.31c-2.243-.075-3.72 4.085-.851 5.09.652.422.761.973.357 1.751-.544 1.046-1.087 3.53-1.003 4.568.122 1.489.503 3.433.802 4.108.753 1.859.603 1.116.406-1.032-.075-2.4.409-4.132 1.805-6.426 1.658-2.75 3.942-7.224-1.296-8.04a1.829 1.829 0 0 0-.22-.019zm-38.593.015a3.18 3.18 0 1 1 0 6.362 3.18 3.18 0 1 1 0-6.362zm14.753.323c.55-.006.962.36 1.462 1.105 1.375 2.049 1.217 2.469-1.432 3.927-2.808 1.544-4.685-2.34-2-4.138.811-.543 1.386-.844 1.858-.89.038-.003.076-.004.112-.004zm-29.135.151c2.96.03 7.586 4.258 5.33 4.87-.322.088-.728.148-.9.138-3.72-.227-7.982-5.044-4.43-5.008zm14.382.68a2.025 2.025 0 1 0 0 4.049 2.025 2.025 0 0 0 0-4.05zm117.266.596l1.477 1.003s-.903.415-1.966.983c-2.888 1.542-3.727 2.674-2.729 3.682.356.36.778.517 1.536.23 2.001-.777 3.869-2.146 5.736-3.227l1.11.762c-.026-.05-4.415 3.121-6.812 4.455-3.763 1.933-5.913-2.018-3.82-4.655 1.616-1.606 3.346-2.133 5.468-3.233zm-117.266.294a1.135 1.135 0 1 1-.001 2.27 1.135 1.135 0 0 1 0-2.27zm119.574 1.061l.807.543s-.087.04-2.553 1.457c-2.683 1.541-2.8 1.568-2.949 1.325-.131-.073.052-.702.876-1.256 1.443-.971 3.997-2.151 3.819-2.069zm-69.797.078c1.827-.035 3.69.833 4.753 2.69.542 1.41.588 2.72.582 4.2l-.044 9.942h-10.407s-.482-6.776 0-12.416c.473-2.833 2.766-4.37 5.116-4.416zm-32.32 1.472c.661-.048 1.148.6 1.776 2.005.621 1.392.154 2.178-1.8 3.022-.247.107-.528.186-.626.176-1.976-.188-2.784-2.465-1.364-3.848.88-.857 1.5-1.317 2.014-1.355zm105.765 1.017l.905.563s-.464.42-3.824 2.87c-2.714 1.98-3.105 2.518-2.538 3.629.457.896 1.45.78 2.821-.274 1.902-1.462 4.895-3.937 4.895-3.937l.098 1.692c-1.97 1.583-4.347 4.283-6.24 5.311-3.652 1.799-6.272-3.14-2.934-5.575 2.877-2.098 6.817-4.279 6.817-4.279zm-73.05.005c-2.72-.022-3.731 4.015-.806 4.87.842.452.771.684.21 2.695-.34 1.218-.45 2.719-.264 3.673.219 1.216.489 1.188.377-.117.003-.714.738-2.62 1.472-3.815 2.712-3.78 2-7.27-.988-7.306zm-63.376.05c1.794.011 2.799 2.511 1.242 3.589-1.103.763-3.41-.169-3.403-1.375.005-1.028.814-2.006 1.794-2.18.126-.023.247-.036.367-.035zm5.164.21c.565-.002.89.826.885 2.464-.006 2.35-.84 4.398-2.279 5.594-2.081 1.733-2.546-2.99-.601-6.112.81-1.301 1.496-1.946 1.995-1.947zm133.17.62c.512-.007.432.385-.162.798-.461.32-1.244.962-3.668 3.007-.44.371-1.07.856-1.398 1.076-.808.541-1.492.4-1.1-.225.384-.615 5.866-4.648 6.327-4.655zm-121.952.108a3.181 3.181 0 1 1 0 6.362 3.181 3.181 0 0 1 0-6.362zm0 1.154a2.025 2.025 0 1 0 0 4.05 2.025 2.025 0 0 0 0-4.05zm-38.07.059c21.53 10.886 34.953 31.252 38.266 54.452l10.46-16.592 2.826 1.066-15.242 24.842-.66-.206c-.064-24.269-12.16-47.228-35.699-59.826zm38.07.831a1.135 1.135 0 1 1 0 2.27 1.135 1.135 0 0 1 0-2.27zm-8.885.132c.941 2.082 2.087 4.267 3.858 6.763-1.796-1.686-3.758-1.613-5.702-1.868zm25.6.45c.334-.016.667.125.929.484.88 1.21 1.043 2.333.43 2.94-.839.83-2.174.501-2.777-.68-.628-1.23.415-2.695 1.418-2.744zm105.588 1.682l.035 1.883s-.402.483-.827.88c-1.2 1.123-2.841 2.913-2.958 3.37-.381 1.484 1.087 2.03 2.533.939.499-.377 1.217-.95 1.217-.95v2.319c-1.22 1.037-2.437 2.057-4.103 1.721-.97-.296-1.822-1.06-2-2.034-.695-2.92 2.134-4.55 4.328-6.504.708-.63 1.775-1.624 1.775-1.624zM74.11 140.562c.054-.002.107 0 .162 0a3.18 3.18 0 1 1 0 6.363 3.185 3.185 0 0 1-3.184-3.184 3.186 3.186 0 0 1 3.022-3.179zm63.925.714c1.735-.006 2.653 2.33 1.257 3.653-.55.52-1.788.89-2.49.401-1.934-1.347-.51-3.965 1.233-4.054zm-3.462 1.854c1.004 1.065 1.764 4.158 1.173 4.743-1.309 1.35-5.11-3.142-4.883-6.078.403-1.76 3.338.94 3.71 1.335zm-46.526-1.687c.727.004.864.656.7 1.041-.157.367-.726.397-1.179.21-.77-.315-.409-1.256.48-1.251zm-13.775.274a2.025 2.025 0 1 0 0 4.049 2.025 2.025 0 0 0 0-4.05zm-15.155.89c3.84.004 7.89 3.028 4.367 3.628-2.615.445-4.311-.072-6.347-1.932-1.035-.945-.667-1.447 1.217-1.657.252-.028.507-.04.763-.04zm15.155 0a1.135 1.135 0 1 1 0 2.27 1.135 1.135 0 0 1 0-2.27zm5.315 2.88c.054-.003.112 0 .167 0a3.181 3.181 0 1 1 0 6.362 3.182 3.182 0 1 1-.166-6.362zm62.56.161c.909-.015 1.706.156 2.167.577.563.516-.283 1.506-2.01 2.348-2.018.983-5.536.846-5.53-.216.007-1.412 3.052-2.67 5.373-2.709zm-76.638.836c1.764.01 2.242 5.482.709 8.103-.795 1.36-1.866.452-2.631-2.234-.628-2.203.576-5.876 1.922-5.869zm14.245.157a2.025 2.025 0 1 0 0 4.05 2.025 2.025 0 0 0 0-4.05zm65.963.357c.15.002.34.077.592.2 1.926.946 3.327 5.362 2.323 7.33-1.057 2.074-3.434-1.917-3.414-5.73.007-1.248.089-1.75.436-1.795.02-.003.042-.006.063-.005zm-85.211.284c.04-.002.082-.002.122 0 1.742.042 3.009 2.45 1.37 3.687-.718.54-1.822.626-2.5.195-1.335-.849-1.262-2.916.128-3.638a2.09 2.09 0 0 1 .88-.244zm19.248.249a1.135 1.135 0 1 1-.001 2.27 1.135 1.135 0 0 1 0-2.27zm-11.893.381c.953 1.419 4.815 5.164 5.35 5.487-1.707-.552-3.463-.318-5.218-.083.198-1.296.407-3.423-.132-5.404zm62.061.323c26.178 6.127 42.158 33.905 35.84 59.963 0 0-2.204-1.23-2.553-1.819.926-4.509 1.497-11.65.338-18.832-1.966-12.181-11.84-30.056-33.473-36.187-.24-.788-.152-3.125-.152-3.125zm14.106.191c.296 1.782.581 3.578 1.02 5.18-1.844-1.324-3.933-2.463-6.072-3.382 1.528-.321 2.923-.592 5.052-1.798zm7.548.572c1.041-.027 2.101.716 2.078 2-.01.565-.613 1.58-1.08 1.82-1.74.887-3.526-.804-2.759-2.612a1.92 1.92 0 0 1 1.76-1.208zm-65.768.69a3.181 3.181 0 1 1 0 6.362 3.18 3.18 0 1 1 0-6.362zm0 1.154a2.025 2.025 0 1 0 0 4.049 2.025 2.025 0 0 0 0-4.05zm-54.169.303c13.007 7.677 24.675 24.003 25.542 42.466l-3.15-2.059c-1.356-12.435-7.722-25.966-22.494-37.057 0 0 .038-1.195.102-3.35zm72.028 0h16.812v3.623l5.042-2.596v8.015l-5.042-3.052v3.497h-16.812v-3.678l-5.15 2.49.059-7.976 5.09 2.86zm-17.86.587a1.135 1.135 0 1 1 0 2.27 1.135 1.135 0 0 1 0-2.27zm6.612.635h.064l.2 1.154c-.033-.001-.064-.004-.097-.004a2.025 2.025 0 1 0 .762 3.902l.196 1.159a3.185 3.185 0 0 1-4.142-3.037 3.178 3.178 0 0 1 3.017-3.174zm37.977.401c.056-.002.11 0 .167 0a3.181 3.181 0 0 1 3.183 3.179 3.182 3.182 0 0 1-2.465 3.095l-.19-1.144a2.023 2.023 0 0 0-.665-3.97l-.196-1.145c.054-.006.11-.012.166-.015zm22.324 1.076c3.926.021 5.555 2.275 2.337 3.233-1.49.443-3.441.208-5.369-.646-1.607-.711.606-2.6 3.032-2.587zm-82.062.215c.95-.003 1.87.143 2.548.465 1.64.778 1.603 1.306-.152 2.318-2.447 1.411-8.21-.018-6.47-1.604.819-.746 2.491-1.173 4.074-1.179zm21.928.348c.087 0 .172.01.254.029l.352 2.064a1.135 1.135 0 1 1-.606-2.093zm37.986.405a1.13 1.13 0 1 1 .367 2.2zm6.925.812a3.18 3.18 0 1 1 0 6.362 3.181 3.181 0 1 1 0-6.362zm-61.973.802c.188-.01.402.077.63.264 1.908 1.56 2.859 4.861 2.108 7.316-.716 2.342-3.69-1.817-3.672-5.135.008-1.53.368-2.413.934-2.445zm82.424.279c.262.002.541.202.816.66 1.185 1.973 1.131 6.047-.098 7.316-.697.72-.956.584-1.682-.885-1.24-2.511-.304-7.101.964-7.091zm-20.451.073a2.025 2.025 0 1 0 0 4.05 2.025 2.025 0 0 0 0-4.05zm-59.445.543c2.403 1.517 4.864 2.901 7.423 4.054-2.395-.566-4.165.238-5.99 1.32.35-2.002-.333-3.63-1.433-5.374zm72.228.429c1.791.253 3.565.546 5.643.155a17.578 17.578 0 0 0-.35 5.391c-1.545-2-3.269-3.877-5.293-5.546zm-12.783-.082a1.135 1.135 0 1 1 0 2.27 1.135 1.135 0 0 1 0-2.27zm-65.636.783c.354.006.73.106 1.12.298 1.473.723 1.516 2.509.083 3.443-1.802 1.173-4.15-.887-3.027-2.656.431-.68 1.01-1.044 1.672-1.08.05-.003.101-.006.152-.005zm72.022 1.33a3.181 3.181 0 1 1 0 6.362 3.18 3.18 0 1 1 0-6.362zm18.622.533c.307-.006.626.063.944.23 1.132.593 1.37 2.095.47 2.973-.997.972-2.357.804-3.028-.372-.765-1.342.285-2.806 1.614-2.831zm-30.705.47c15.669 5.333 26.162 22.764 23.634 39.546l-1.956-1.848c1.49-9.51-3.733-27.682-21.184-35.141zm12.083.15a2.025 2.025 0 1 0 0 4.05 2.025 2.025 0 0 0 0-4.05zm0 .89a1.135 1.135 0 1 1 0 2.27 1.135 1.135 0 0 1 0-2.27zm-59.577.201c.8.07 2.149-.073 2.465.68.356.953-1.599 2.601-4.078 2.924-1.01.06-3.173.317-3.629-.41-.427-.908 2.491-3.166 5.242-3.194zm-49.742.558c2.118-.093 4.505 2.74 2.362 5.051-1.716 1.776-5.228 4.196-5.228 4.196v-1.555s3.44-2.516 3.496-3.648c.008-1.315-1.075-2.057-2.283-1.266-.24.156-1.184.924-1.184.924l.079-2.607c.64-.7 1.77-1.052 2.758-1.095zm54.11.665c1.57.06 5.21 5.673 4.283 6.822-.734.91-3.691-1.108-4.802-3.277-.596-1.164-.417-3.239.303-3.51a.544.544 0 0 1 .215-.035zm24.215.68s.162 13.06-.572 14.294c-2.943 5.327-9.297 2.555-9.839-1.438-.39-2.408-.156-12.832-.156-12.832zm.93 0h10.152s-.046 18.384-.455 19.438c-.333.858-1.808 2.339-2.734 2.743-2.981 1.303-6.17-.545-6.958-4.034-.57-2.516-.005-18.147-.005-18.147zm11.003 0h6.738s.231.974.499 1.775c.467 1.397 2.056 5.403 2.24 5.648.823 1.099.863 13.116.049 14.485-2.973 4.456-7.919 3.16-9.727-1.775-.453-1.582.2-20.133.2-20.133zm7.858.454c12.086 5.741 21.335 17.913 20.177 33.532l-2.22-2.215c.81-10.78-7.397-24.255-16.974-28.26zm16.641.367a3.181 3.181 0 1 1 0 6.362 3.18 3.18 0 1 1 0-6.362zm11.923.323c1.182.017 2.626.425 3.706 1.315 1.291 1.065 1.47 1.907.47 2.216-1.935.596-4.258.019-5.717-1.418-1.355-1.336-.187-2.138 1.54-2.113zm-11.923.831a2.025 2.025 0 1 0 0 4.05 2.025 2.025 0 0 0 0-4.05zm-63.68.255c1.696.009 2.474 2.396 1.174 3.604-.533.495-1.988.601-2.621.19-1.741-1.13-.721-3.806 1.447-3.794zm22.412.606c-.56 1.614-1.463 3.435-2.21 4.68-2.001 3.337-1.741 5.574.371 6.704 3.103 1.66 5.356-2.795 2.299-4.543-1.073-.612-1.073-.62-.685-2.274.484-2.063.569-4.524.225-4.567zm41.268.03a1.135 1.135 0 1 1 0 2.269 1.135 1.135 0 0 1 0-2.27zm-30.387.655c-.142-.01-.034.82-.044 2.293-.018 2.378-.216 3.101-1.736 6.289-1.94 4.071-1.682 6.853.723 7.756 1.87.7 3.686-.729 3.697-2.91.006-1.038-.457-1.853-1.168-2.064-.644-.04-1.356-.341-1.306-.65.394-2.431 2.5-7.01-.166-10.714zm40.148.327c1.571.989 3.187 1.926 5.526 2.044-.997 2.39-.895 4.135-1.061 6.04-1-2.566-2.545-5.404-4.465-8.084zm-119.868.372c.126-.002.252.007.377.024 1.502.234 2.77 2.157 2.367 3.59-.353 1.25-.463 1.461-5.296 4.69-2.683 1.79-2.964 1.867-2.964 1.867l-1.438-.968s1.217-.812 3.145-2.107c3.709-2.494 4.254-3.087 3.873-4.201-.415-1.21-1.802-.956-3.996.733-3.246 2.5-3.584 2.666-3.584 2.666v-1.492s1.423-1.132 2.04-1.663c1.504-1.07 3.583-3.12 5.476-3.14zm96.048.65c.365-.003.645.336.518.66-.06.156-.274.256-.557.255-.582-.003-.613-.83-.034-.91a.557.557 0 0 1 .073-.005zm32.593 1.735c.686 2.354-.79 6.277-1.694 6.779-.962.952-1.565.043-1.773-2.42.005-2 2.294-8.246 3.467-4.359zm-38.647-1.319c.295 3.39.401 6.206-1.188 8.959-2.062 3.57-1.527 6.63.68 7.306 2.197.672 4.14-.9 3.75-3.037-.119-.654-1.017-1.723-1.565-1.863-.675-.174-.756-.593-.371-1.937.745-2.604.495-5.901-.631-8.284-.104-.355-.517-1.157-.675-1.144zm7.394 1.13c1.853.01 2.728 2.42 1.34 3.692-.773.708-1.265.387-2.074-1.35-.75-1.611-.518-2.35.734-2.342zm17.262.494a3.181 3.181 0 1 1 0 6.362 3.181 3.181 0 1 1 0-6.362zm0 1.154a2.025 2.025 0 1 0 0 4.049 2.025 2.025 0 0 0 0-4.05zm0 .89a1.135 1.135 0 1 1 0 2.27 1.135 1.135 0 0 1 0-2.27zm-13.658.836c.26-.011.513.033.748.147 1.677.81 1.494 3.132-.357 4.518-1.171.877-1.666.573-2.758-1.692-.592-1.229.963-2.915 2.367-2.973zm-97.197.264c.17.004.33.031.484.073 1.729.476 2.824 2.493 2.391 4.025-.953 2.362-4.18 3.158-6.63 4.147l-1.272-.93s1.796-1.02 3.54-1.823c1.634-.753 1.897-1.052 1.775-2-.238-1.854-1.133-1.787-5.193.4-1.652.89-2.866 1.678-2.866 1.678l-.9-.739c1.344-.884 2.151-1.374 3.62-2.376 2.45-1.679 3.85-2.4 4.875-2.45.059-.003.119-.007.176-.005zm129.126 1.372c.592 1.797-.614 3.372-2.43 2.666-.985-.383-1.684-1.643-1.072-2.81.816-1.281 3.106-1.06 3.502.144zm-36.438-.624l2.861 5.14s.038 1.43.064 2.225c.109 3.337.823 4.44 2.777 4.117.14-.023.836-.225.836-.225l1.243 2.093s-1.344.587-1.692.66c-2.302.483-5.486-1.245-5.981-3.555-.48-2.235-.108-10.455-.108-10.455zm-93.715 2.113c.864.063.497.722.098.939-1.68.855-3.268 1.786-5.022 2.797l-1.174-.729s.906-.506 1.53-.89c1.923-1.182 3.88-2.09 4.568-2.117zm114.968.66a3.181 3.181 0 1 1 0 6.362 3.18 3.18 0 1 1 0-6.362zm-13.468.435c.733-.021 1.344.294 1.741.954.85 1.41-.05 3.134-2.112 4.054-1.152.513-1.344.407-2.572-1.414-.83-1.23-.826-1.45.092-2.235 1.03-.878 2.022-1.335 2.851-1.359zm-111.725.279l45.59 29.522-1.3 2.21-44.202-28.935zm135.467.381c2.77.053 6.387 3.261 5.106 4.528a.882.882 0 0 1-.587.225c-3.955-.233-8.321-4.826-4.519-4.753zm-10.274.059a2.025 2.025 0 1 0 0 4.049 2.025 2.025 0 0 0 0-4.05zm-60.888.562l1.208 3.14-22.69 36.123-2.23-1.432zm60.888.328a1.135 1.135 0 1 1 0 2.27 1.135 1.135 0 0 1 0-2.27zm8.333.376c1.11 2.066 2.961 3.332 5.066 4.22-1.987 1.64-2.987 3.767-2.91 5.991-.503-3.338-.94-6.658-2.156-10.21zm-119.951 1.09c.486.005.925.106 1.271.343 4.253 2.914.348 5.796-.014 5.57l-1.448-.914c.498-.826 1.628-1.945-.19-2.988-1.032-.45-2.182.09-3.184.787l-1.521-1.041s2.979-1.772 5.086-1.756zm100.278 1.649c.16-.005.317.005.47.034 2.4.464 2.233 3.011-.275 4.191-1.426.672-1.679.535-2.924-1.604-.585-1.004 1.181-2.57 2.729-2.621zm-101.046.934c.255.007.582.23.621.44.124.669-1.115 1.34-1.115 1.34l-1.423-.944c.608-.335 1.244-.789 1.917-.836zm127.873.611c.348-.027.602.137.704.553.487 1.978-1.712 5.649-3.74 6.245-1.185.347-1.528-.21-1.14-1.849.545-2.303 2.935-4.851 4.176-4.949zm-73.538.152l3.692 2.68-22.153 35.013-3.834-2.279zm60.28.283a3.181 3.181 0 1 1 0 6.363 3.18 3.18 0 1 1 0-6.362zm0 1.155a2.025 2.025 0 1 0 0 4.049 2.025 2.025 0 0 0 0-4.05zm0 .89a1.135 1.135 0 1 1 0 2.27 1.135 1.135 0 0 1 0-2.27zm-50.9.117c2.402 2.71 5.104 8.771 14.533 5.912 3.212 2.617 7.648 4.107 13.115 1.203l.04 16.333-41.866.044zm-76.464.416l41.23 27.135-1.292 2.279-39.977-25.551zm115.746.024a.44.44 0 0 1 .103.01c2.107.515 2.345 2.622.386 3.428-1.049.431-1.263.324-2.264-1.15-.4-.587-.625-1.075-.568-1.222.141-.36 1.753-1.073 2.343-1.066zm26.456 2.23c.737.005 1.47.395 1.814 1.164.516 1.154.218 2.122-.846 2.763-1.762 1.06-3.731-.888-2.817-2.788.367-.763 1.112-1.144 1.849-1.14zm-25.816 2.215c.973.005 1.789.933 1.316 1.497-.314.373-.717.266-1.232-.328-.606-.697-.641-1.172-.084-1.169zm11.82.406a3.181 3.181 0 1 1 0 6.362 3.18 3.18 0 1 1 0-6.362zm8.969.176c2.399.013 5.723 4.021 5.159 6.22-.185.718-1.53.33-3.13-.9-2.161-1.66-3.56-5.328-2.03-5.32zm-8.969.978a2.025 2.025 0 1 0 0 4.05 2.025 2.025 0 0 0 0-4.05zm7.712.41c.662 1.941 1.34 3.962 4.332 5.365-4.642 2.163-5.528 5.805-4.831 10.475l-1.086-.665c.995-4.184 1.748-8.95 1.585-15.174zm-7.712.48a1.135 1.135 0 1 1 0 2.27 1.135 1.135 0 0 1 0-2.27zm-.592 5.11a3.18 3.18 0 0 1 1.751 5.84l-1.027-.769a2.025 2.025 0 0 0-.724-3.917 2.023 2.023 0 0 0-2.014 1.869l-1.032-.773a3.188 3.188 0 0 1 3.046-2.25zm14.485.406c1.515.009-.84 4.21-3.003 5.355-1.646.872-3.153.94-3.149.142.011-2.089 3.839-5.51 6.152-5.497zm-14.485 1.638a1.135 1.135 0 0 1 0 2.27c-.622-.068-1.127-.557-1.134-1.135 0-.626.508-1.135 1.134-1.135zm13.996 3.83c.746.01 1.485.333 1.8.963.406.814.25 1.542-.494 2.279-1.831 1.81-4.322-.049-3.125-2.333.325-.62 1.073-.92 1.819-.91zm-5.854 1.706c2.55.08 4.48 3.252 4.02 5.047-.404.475-3.213-1.655-3.516-1.873-.359-.636-.38-1.664-.504-3.174zm-3.477 1.966l7.991 4.802-7.97 5.12zm-71.152 2.377l42.922.156.004 1.805-44.1.024 1.174-1.985zm-1.75 2.821h2.885v3.516h-3.961v-1.941zm41.244.083h3.472v3.516h-3.472zm-34.07.025h3.95v3.516h-3.95zm8.22.03h4.27v3.515h-4.27zm8.734 0h4.108v3.515h-4.108zm8.773.058h3.912v3.516h-3.912zm-35.737 4.333l47.605.112v2.108l-48.965-.113zm40.617 4.44c4.847-.054 7.671 5.356 3.883 9.154-3.482 3.492-9.292-.967-6.391-4.895 1.62-2.193 5.6-.426 4.606 1.912-.654 1.539-2.8.821-2.733-.846.003-.67-.491-.212-.548.499-.072.902.854 1.9 1.931 1.902 2.813.007 3.235-3.721.524-5.09-2.422-1.223-4.972.337-5.56 3.433-.064.337-.463 1.182-.768 1.78-.896 1.798-1.185 2.836-1.633 4.89-.207.256-.835.666-1.272.885-1.382.69-1.324.4-.807-1.849 1.49-6.474 3.925-10.644 6.9-11.492a7.107 7.107 0 0 1 1.868-.283zm14.333.337c2.993-.064 5.247 2.402 5.64 4.306 1.72 5.794-5.974 9.343-8.655 4.093-1.498-3 1.605-6.581 4.448-5.186 2.328 1.142 2.177 4.693-.2 4.68-1.291.06-2.077-1.1-1.365-2.03.37-.366.813-.08.998-.694.078-.257-.288-.462-1.169-.283-1.46.296-1.31 3.238.382 3.824 2.52.872 4.677-1.786 3.477-4.416-1.444-3.162-5.349-3.175-7.135.132-.26.48-.666 1.167-.89 1.472-2.665 3.616-2.875 4.157-3.668 6.171-.079.2-.219.35-.46.323a5.61 5.61 0 0 0-1.946.352c-.332-.088.11-1.356.142-1.452 1.815-5.605 6.477-11.155 10.401-11.292zm-23.189 1.575c-.632 1.1-2.532 4.677-3.848 9.961-.347-.216-1.281-.605-1.956-.84-.256-.09-.048-.386-.064-.832.48-2.384 2.02-6.55 3.716-8.67.361-.265 2.677-.349 2.152.38zm2.714 1.056c-1.625 2.076-3.323 7.59-3.677 10.436-.054.43-.132.906-.176 1.056-.254.851-1.846-.977-1.839-2.108.013-1.92 2.142-7.774 3.663-10.01.53-.779.593-.908 1.726-.949 1.82-.045 1.02.66.303 1.575zm-79.49-1.37c-.401.01-.8.063-1.193.157-2.354.584-5.16 3.08-5.433 5.727-.129.08-.45 1.931-.244 2.87.778 3.553 2.85 5.963 5.389 9.487 0 0-3.187 4.941-5.375 7.223l5.174 7.487c-1.43 2.825-3.918 4.963-4.543 8.45-.976 4.591 1.428 9.065 6.543 9.477 3.817.115 6.319-2.464 6.793-6.372.193-2.597-.876-5.854-4.72-11.003-.19-.254-.562-.782-.562-.782s.432-.507.66-.846c1.352-1.829 4.876-6.298 4.876-6.298l-5.267-7.448s.229-.5.636-1.056c4.299-5.863 5.1-8.844 4.338-11.756-.3-1.148-1.014-2.031-1.98-3.013-1.564-1.586-3.352-2.345-5.092-2.303zm-.122.72c1.68-.025 3.413.648 4.817 2.117 3.23 3.38 2.944 6.239-1.252 12.49-.92 1.372-1.824 2.88-1.824 2.88l5.296 7.316s-.858 1.284-1.75 2.332c-2.422 2.845-3.776 4.89-3.776 4.89.917 1.409 2.409 2.914 3.345 4.607 1.131 1.918 1.805 3.83 2.005 5.58.422 3.68-1.97 7.602-6.064 7.697-3.972.028-6.996-3.283-6.91-7.438.04-1.853.805-3.565 1.737-5.233.952-1.697 3.183-4.997 3.183-4.997l-5.125-7.473 5.428-7.247s-3.948-4.833-5.159-8.318c-.984-3.957.86-6.213 1.105-6.558 1.203-1.693 3.04-2.618 4.944-2.645zm114.264.41c3.049 3.474 4.696 8.444 5.404 12.715.285 1.754.337 4.747.088 5.071-.48.625-1.565.288-1.497-.464.55-6.023-5.933-10.337-11.545-7.727-4.33 2.013-6.642 6.693-5.56 12.514 2.04 10.977 11.247 19.02 17.477 30.03 2.206 3.73 2.728 5.829 2.714 5.756 0 0 .816-2.178 2.67-5.276 4.44-8.154 10.47-13.414 14.954-21.57 2.105-3.83 3.444-7.617 3.668-11.038.042-7.961-7.73-13.962-13.8-9.78-2.403 1.476-4.434 4.329-4.754 6.68-.136 1.004-.313 1.303-.762 1.3-1.036-.005-1.05-.397-.216-5.12 1.267-4.69 2.78-9.14 5.531-13.09zM39.86 235.779c.788 2.053 2.07 3.58 3.521 5.04 1.345-1.573 2.846-3.642 3.67-5.615 3.967-9.503-11.354-10.278-7.19.575zm3.463 4.105c-1.944-2.261-3.317-4.142-3.45-7.124-.213-5.909 7.51-5.245 7.126.037-.43 2.876-1.941 4.695-3.676 7.087zm95.718-9.288c.149.832.96 2.24.89 2.573-.376.872-.924 1.307-1.687 2.743-.16.306-.085.37-.513.293-.403-.056-1.11-.278-1.487-.386-.216-.062-.464-.18-.362-.455.733-1.684 1.553-3.692 3.16-4.768zm-12.802 2.543l-.909 2.356c-.086.254-.095.296-.362.24-.517-.065-.971-.106-1.487-.068-1.127-.138.995-4.349 1.314-4.987.461.078 1.143 1.877 1.444 2.46zm.855.543a.283.283 0 0 1 .06 0c.462.06 1.15.31 1.662.533.282.116.29.124.166.474-.26.52-.58 2.015-.924 2.538-.01.076-1.606-.948-2.06-1.146-.018-.284.505-2.32 1.096-2.399zm13.532.279c.527.018 1.178.498 1.535.772.168.332.015.665-.572 1.678-.52.896-1.062 1.864-1.193 1.76-.395-.309-1.126-.71-1.487-1.208-.27-.37.243-1.32.592-1.838.55-.82.814-1.115 1.125-1.164zm-8.607-.12c.488.11-.286 2.623-.43 2.937-.462.69-1.18 1.6-1.751 1.965-.292.187-1.19-.349-1.169-.978.014-.446.87-2.698 1.153-3.296.042-.087 1.65-.618 2.197-.628zm-19.908.96c.11-.002.219 0 .328.006 1.917-.056 3.888.89 5.13 3.002.587 1 .594 1.043.46 1.976-.318 2.194-.208 3.668.37 5.012.66 1.531.56 2.057-1.05 5.463-1.618 3.429-3.58 7.605-5.072 11.477a41.088 41.088 0 0 0-1.648 5.076c-.25.967-1.43.676-2.606.63-.598.132.863-3.893 3.027-8.704 1.732-3.85 4.089-8.188 5.029-12.497.766-3.513.52-4.957.1-6.433-1.622-4.292-7.265-3.24-7.252.714.122 2.562 3.085 3.935 4.172 1.423.18-1.154-.389-.482-.866.079-1.022 1.201-2.774-.135-2.499-1.907.362-2.329 3.369-3.094 4.822-1.252 1.592 2.017 1.243 4.097-1.056 5.658-2.368 1.74-4.525.75-5.707-1.057-2.525-4.057.928-8.56 4.318-8.665zm11.712 1.703c2.35.048 4.903 2.018 5.316 3.578.221 1.058-.12 2.304.259 3.327.315.82.617 1.291.39 2.02-1.934 6.225-6.5 12.865-8.757 20.235-.26.513-.499.577-1.081.743-.902.257-1.255.23-1.35-.24-.09-.448.212-1.299.739-2.894.63-1.912 2.027-5.185 2.846-6.724 1.908-3.585 2.971-6.038 4.357-9.101.259-.572.332-.912.738-1.736 1.747-3.541-.226-7.032-3.843-7.052-2.866-.015-4.148 4.473-1.639 5.785 2.454 1.283 4.285-2.088 2.103-3.28-.526-.29-.662-.014-.24.493.972 1.167.1 2.737-1.251 2.113-2.093-.968-1.015-4.534 1.428-4.328 3.77.317 4.261 5.803.415 7.193-5.287 1.911-8.061-6.602-3.085-9.467a5.116 5.116 0 0 1 2.655-.665zm11.14.17c1.391-.034 2.853.462 4.054 1.615 2.957 2.84 2.169 7.222-2.827 15.697-1.636 2.84-3.232 6.252-4.103 8.744-.216.62-.398.936-.89 1.208-.866.478-1.848.537-1.975.2-.325-.861 2.15-6.215 6.557-14.626 1.159-2.242 2.622-4.844 2.548-7.512-.29-2.118-2.052-3.641-4.41-2.949-1.588.467-2.237 2.706-1.067 3.834.489.472 1.09.719 1.477.68.731.024 1.562-.7.147-.777-1.497-.009-2.008-1.89-.744-2.739 1.817-1.22 3.903.218 3.756 2.592-.304 4.773-7.273 4.061-7.457-.856-.115-3.042 2.277-5.044 4.934-5.11zm69.093 2.065c1.727 1.223 2.97 3.455 3.262 5.589.092.66.177 1.331-.108 1.482-.35.185-.595-.087-1.315-1.037-1.678-2.213-4.996-1.27-6.108 1.765-1.06 2.89.036 6.136 4.489 12.593 1.6 2.388 3.008 4.368 4.333 6.709.938-2.33 2.529-4.835 3.887-6.905 5.087-7.703 6.02-11.706 3.252-14.284-1.778-1.62-4.592-1.67-5.545.4-.648.853-1.034 1.264-1.306.749-.118-.224-.105-.905-.03-1.408.484-2.447 1.28-4.049 3.043-5.653zm-88.786 5.58c1.053-.082-.76 5.593-3.927 11.96-1.728 3.527-3.037 7.316-4.381 11.003-.365.494-2.548.584-2.543.074 3.873-12.409 6.608-14.546 7.932-19.272.23-.817.398-1.997.43-2.098.978-.281 1.803-1.454 2.489-1.668zm-71.69.835l-4.103 5.35 4.005 5.683 4.162-5.433zm88.845 1.653c-.004.641-1.233 3.726-2.152 5.58-4.019 8.11-5.018 10.298-5.712 12.46-.125.39-.328.649-.582.743-.5.187-1.893.455-2.01.265.85-4.741 7.355-15.526 8.617-20.25.506-.023 1.797.746 1.839 1.202zm3.217-.494c.272-.02.382.092.304.455-.127.588-.828 1.971-2.05 4.372-3.385 6.654-5.16 10.596-5.726 12.622-.132.474-.214.847-.44.968-.466.248-2.093.904-2.171.195.509-3.007 2.49-4.964 7.614-17.506.24-.412.45-.614.675-.65.63-.104 1.176-.404 1.794-.456zm-13.888 2.06c-.129.774-1.017 2.397-2.484 5.393-2.44 4.985-4.02 8.7-4.978 11.996-.155.535-.369 1.097-.577 1.242-.397.274-2.176.19-2.176.19-.27-1.362 1.877-6.445 4.269-11.79 1.3-2.907 2.809-5.804 3.821-8.412.694.104 2.03.77 2.125 1.381zm3.622-1.284c.724-.007.162 1.21-1.573 4.638-1.407 2.781-3.65 6.682-5.1 11.164a68.835 68.835 0 0 0-.988 2.729c-.212.665-.41.993-.685 1.13-.522.26-1.787.246-2.01-.025-.352-.43 1.52-5.475 3.345-9.35 1.611-3.256 2.746-5.87 4.138-8.88.38-.599.397-.64.784-.717.804-.064 1.637-.603 2.09-.689zm-81.727.647l2.112 2.827-2.48 3.086-2.063-3.003zm-.318 12.192s-.898 1.033-1.82 2.67c-2.698 4.493-2.772 7.81.411 9.78 1.344.684 3.095.534 4.201-.43 3.606-3.146.925-7.467-1.403-10.397-.618-.86-1.39-1.623-1.39-1.623zm.132 1.149c1.352 1.595 2.341 2.792 3.242 4.797 1.036 2.693.372 4.81-1.633 5.805-3.17 1.572-6.052-1.958-4.548-5.727 1.114-2.792 2.939-4.875 2.939-4.875zm88.742 5.32c.297.567-30.163 7.613-52.633 1.565l-13.673 19.786 78.937-.137zm-1.154 1.404s7.337 12.7 10.939 18.92h-5.061l-7.213-15.443a80.209 80.209 0 0 1-11.522 2.342l2.568 13.1h-3.79l-2.142-12.518c-5.53.427-11.16.589-16.91.426l-2.48 12.093h-3.966l2.543-12.01c-4.365-.59-8.71-1.144-13.144-1.873l-7.438 13.883h-5.6l11.673-17.424c17.426 3.497 33.496 2.674 51.543-1.496zm78.849 2.91c-3.449.011-7.09 1.864-8.123 5.838-.363 1.263-.364 1.266-.376 12.514-.01 9.3-.088 11.541-.088 11.541h-3.179v3.715h10.348v-3.715h-3.433s-.049-11.568-.05-18.861c-.141-1.891.031-3.556.534-4.714 1.83-4.218 8.27-3.294 9.047.303.462 2.144.203 2.706.234 4.557h3.585s.095-3.255-.254-5.154c-.472-4.239-4.128-6.125-7.913-6.02a9.408 9.408 0 0 0-.332-.004zm-81.607 3.907l5.721 12.103h-10.837l-1.995-10.798zm-46.394.88l9.473 1.227-2.445 9.996H76.134zm30.926 1.491l1.3 9.732H97.803l1.815-9.54z"/></svg>