<svg xmlns="http://www.w3.org/2000/svg" width="224.225" height="312.808"><title>Vectorized Playing Cards 1.0</title><rect y="589.952" x="2314.331" height="311.811" width="223.228" rx="10.63" ry="10.63" fill="#fff" stroke="#000" stroke-width=".997" transform="translate(-2313.832 -589.453)"/><path d="M161.255 30.505l-80.526.392 10.226 19.372c20.93-1.882 39.27-.208 58.376.415zm-54.996 68.112c-.084.113-3.35.956-3.018 1.697 8.528 18.255 12.337 33.109 15.898 51.87 1.8-1.46 4.712-1.402 4.712-1.402-1.436-6.967 7.348-7.836 7.405-.547 1.686.391 3.42.397 4.943 2.1.684-20.502 8.042-41.715 17.544-56.413-10.829 4.285-26.717 14.965-26.717 14.965s-13.221-5.46-20.767-12.27zm65.82 2.183c-14.412 13.678-20.052 51.648-19.018 52.172-18.577-.62-24.208 19.854-8.105 30.894-.636 2.142-2.209 3.884-3.427 5.776 1.66.95 3.474 1.154 5.285 1.353 1.375 1.629 2.726 3.508 4.22 3.663 1.62-1.02 2.77-2.513 4.12-3.805 1.683-.428 3.353-.902 4.95-1.63-1.415-1.974-3.092-3.97-3.135-5.819 14-9.867 12.08-23.285-.542-30.154 3.76-22.597 9.244-37.032 15.61-47.297zm-99.256 17.458c-1.83.893-2.83 2.778-4.158 4.257-1.824.083-3.58.706-5.318 1.48 0 0 4.176 5.768 3.917 6.078-13.541 8.866-13.43 21.825-.429 30.362 2.203 18.443-13.474 47.631-14.266 46.783l-.028 6.034c10.91-12.065 17.083-33.985 18.165-51.987 22.282-1.483 23.071-23.003 7.732-31.098-1.18-1.08 3.857-6.082 3.857-6.082-1.279-1.258-3.417-1.4-5.29-1.555-1.182-1.412-2.212-2.819-4.182-4.272zm94.24 14.893c3.151 7.006 14.66-1.53 16.657 2.197 1.62 2.115 5.15 2.331 4.96-1.23-.664-3.527-2.987-4.309-12.202-2.772-3.496.583-4.93.928-4.908-.665-2.418-2.918-4.492 1.051-4.507 2.47zm10.69 10.223c-2.585-.002-3.024 10.097-2.986 13.129-7.481 11.81 15.345 10.467 5.474-2.398.343-1.681-1.259-4.422-1.215-5.634-.809-.103-1.164-4.663-1.274-5.097zm-131.596 6.071c-4.048.102-8.498 3.818-2.008 9.16.433.15-.218 1.276.004 3.008 1.83 3.947 1.335 9.79 2.697 8.892 1.575-1.037 2.89-5.397 2.55-11.485-.021-.399-.55-.822-.452-1.254 3.643-6.008.563-8.405-2.79-8.32zM87.58 160.76c-1.04 19.725-5.874 39.078-16.828 55.86 9.429-4.393 18.58-10.061 27.435-14.914l20.694 12.805c1.199-.52 2.029-.775 2.823-1.56-9.536-13.944-12.488-34.012-16.643-52.167-1.58 1.12-4.554 1.683-4.554 1.683-.212 6.297-6.82 8.338-8.169.125zM37.633 176.15c-2.207.14-3.867 5.602 2.386 6.411 4.412.624 10.063-1.547 12.866-.542 3.259 5.197 6.184-2.453 1.83-3.7-4.68-1.341-14.208 2.156-15.262-.816-.542-1.015-1.202-1.393-1.82-1.353zm37.533 85.437l-12.484 22.046 79.818-.481-10.433-21.027c.178-.233-34.861 4.165-56.9-.538z" fill="#e2cf00"/><path d="M92.488 52.154l1.297 3.093c17.145-2.072 35.082-4.219 53.04.347 0 0 1.318-2.86 1.297-3.066-16.733-4.256-54.151-3.151-55.634-.374zm17.35 43.436l16.314 10.552s7.814-5.52 11.144-7.855l-2.022-2.97c-6.9 15.21-19.029 3.181-23.576-3.975 0 0-1.236 2.772-1.86 4.248zm43.82 5.105c1.13-.024 1.757.411 2.325 1.562.642 1.3.887.98.474-.641-.65-2.555 2.063-4.218 4.62-2.512 1.846 1.232 1.765 4.212-.252 4.764-1.63.446-1.672.874-.24.804 2.567-.125 3.25 3.3 1.423 4.975-2.1 1.926-4.779.561-5.023-1.854-.112-.683-.257-.674-.482-.287-.649 1.115-.709 2.563-.582 3.875l-3.794-2.353c1.35-.669 2.174-1.072 3.15-2.086.128-.133.224-.23.223-.287-.002-.103-.423.035-1.196.115-2.292.24-4.056-1.246-3.586-3.404.4-1.835 1.35-2.636 2.94-2.671zm-16.73 59.527c4.127-4.72 9.252-7.75 16.374-7.326.906-19.779 7.765-37.366 18.75-53.211l-12.085-7.265-4.849 2.925c-11.66 16.537-18.824 37.52-18.19 64.877zm-90.583-46.217s-8.181 6.127-11.982 9.086l.184 54.537 1.056.362c.076.116-.092-.809.393-1.232.396-.345 1.024-.738 1.397-.873 1.052-.383 1.098-1.084.117-1.69-.762-.47-1.051-1.197-.964-2.405.062-.852.026-1.038-.33-1.617-.442-.72-.48-1.63-.103-2.573.174-.438.157-.556-.154-1.148-.396-.754-.443-1.566-.148-2.44.112-.335.194-1.066.183-1.63-.04-2.172 1.754-3.613 5.067-4.067 1.295-.178 1.334-.231.74-1.317-3.355-6.126 4.182-9.319 4.745-8.338zm103.214 3.042a5.541 5.541 0 1 1 .161 11.083 5.54 5.54 0 1 1-.161-11.083zm.052.99a4.439 4.439 0 1 0 4.505 4.371 4.439 4.439 0 0 0-4.505-4.371zm.115 1.408a3.01 3.01 0 1 1 .091 6.02 3.01 3.01 0 0 1-.091-6.02zm-110.04 2.277c.225-.004.465.03.708.108 1.381.439 1.864 1.655 1.116 2.808-.588.905-.52.983.508.6.81-.3 1.222-.205 1.86.426 1.912 1.894-.935 5.077-2.807 3.148-.928-.955-1.016-.673-.373.968.208.53.552 1.356.552 1.356l-2.745-.04s.426-1.094.623-1.61c.475-1.243.491-1.425-.5-.643-2.233 1.764-4.765-1.254-2.71-3.228.418-.402 1.089-.42 2.022-.053.68.267.762.081.251-.56-1.11-1.395-.084-3.252 1.494-3.28zm56.892 4.887c-1.116 7.309-.142 17.565-.166 23.046 2.977.567 3.01 2.595 3.467 5.114 1.447-.504 4.61 1.633 5.043 1.445.33-7.415-3.526-28.94-8.344-29.605zm49.385 7.325c4.225.339 3.416 3.602 2.157 4.943-.596.687-.485.996.17.6 1.784-1.077 3.2-.299 3.775 1.558.983 3.173-3.188 5.906-5.048 3.058-.63-.965-1.016-.746-.861.263.095.973 1.045 2.989 1.045 2.989l-4.145-.372s1.266-2.107 1.489-2.674c.461-1.177.217-1.491-.668-.542-2.593 2.372-6.185-.665-4.511-3.81.825-1.55 2.347-2.053 3.991-.817 1.108.723 1.347.41.356-.468-1.85-1.639-.238-4.927 2.25-4.728zm-106.077 2.59c.047-.002.093-.002.141-.002.356.007.728.106 1.099.315 1.03.579 1.312 1.721.666 2.715-.371.572-.263.933.169.559.578-.5 1.854-.168 2.352.612 1.279 2.002-1.22 4.621-2.814 2.954-.704-.735-.974-.765-.892-.282.23.907.826 2.455.826 2.455l-2.87.05s.619-1.628.757-2.454c.105-.653-.155-.558-.84.214-.664.75-1.27.828-2.117.267-2.093-1.387-.417-4.947 1.765-3.751.752.412.857.174.27-.603-1.05-1.387.021-2.977 1.488-3.048zm149.063-1.271c-4.647 4.802-3.19 1.963-1.035 5.624.008 2.413 1.417 4.302.3 8.111-.358.745-.39 1.099-.193 1.848-.34 4.208-3.712 4.154-6.99 4.807.544-.036 5.194 8.554-3.481 9.226l.099 34.922 13.602-10.028-.06-54.51zM86.877 153.69c-3.856 2.485-9.274 8.696-16.087 7.346-.825 21.788-7.975 38.656-18.175 53.152 3.522 2.082 7.398 4.58 11 6.182 3.045-1.57 4.754-2.225 7.743-4.684 12.262-18.941 16.15-39.647 15.52-61.996zm32.02 3.985c.688 11.19 2.509 21.786 8.33 30.287l.394-23.78c-2.075-.497-3.774-1.837-4.38-5.64zm-42.068 6.601l3.89.092s-.883 1.758-1.265 2.741c-.464 1.201-.244 1.446.643.611 1.154-1.086 2.994-1.187 3.962-.218 2.57 2.575-.118 6.772-3.158 4.931-1.302-.788-1.52-.524-.487.592 2.01 1.864-.089 4.549-2.437 4.56-1.698-.007-2.798-1.364-2.931-2.86-.065-.94.407-1.884 1.224-2.343.851-.478.241-.789-.683-.291-3.02 1.624-5.04-2.548-2.762-4.922 1.314-1.369 2.704-1.241 4.04.065.932.913 1.266.832 1.003-.248-.265-1.214-1.04-2.71-1.04-2.71zm104.993 3.275l2.787.003c-.274.69-.628 1.393-.85 2.074-.24.743-.065.838.673.12 1.921-1.29 3.97 0 3.554 2.043-.288 1.41-1.468 2.1-2.831 1.489-1.202-.54-.817-.309-.133.513.813.979.606 2.12-.469 2.876-1.902 1.337-4.413-.884-3.154-2.823.741-1.153.401-1.028-.274-.47-1.014.742-2.547-.308-2.577-1.764-.117-2.094 1.997-3.272 3.487-1.79.71.597.886.524.566-.345-.294-.631-.389-1.307-.779-1.926zm.15 15.228l2.92-.034s-.04.224-.49 1.069c-.53.993-.448 2.02.104 1.323.931-1.177 2.91-.849 3.559.59.755 1.676-.717 3.528-2.246 2.824-.994-.458-1.062-.36-.402.595.643.928.358 2.069-.686 2.735-2.051 1.31-4.51-1.304-2.802-2.977.458-.447.314-.665-.24-.364-2.265 1.23-3.935-1.829-1.977-3.62.834-.764 1.471-.711 2.842.236.427.295.509-.009.201-.757-.524-1.275-.783-1.62-.783-1.62zM73.548 184.61a5.882 5.882 0 0 1 5.968 5.797 5.886 5.886 0 1 1-11.77.171 5.886 5.886 0 0 1 5.802-5.968zm.067 1.05a4.834 4.834 0 1 0 .14 9.669 4.834 4.834 0 1 0-.14-9.669zm.055 1.857a2.978 2.978 0 1 1-2.936 3.018 2.978 2.978 0 0 1 2.936-3.018zm-7.4 14.261l3.399 1.661s-1.607 1.308-2.246 1.981c-.818.868-.761 1.274.343.86 2.104-.792 4.212.393 4.251 2.577.053 2.915-3.395 4.318-5.05 2.111-.493-.656-1.08-.93-.85-.393.56 1.305.217 2.948-.759 3.623-.781.54-2.212.7-2.933.325-2.48-1.286-2.609-4.144-.237-5.272 1.193-.568 1.233-1.1.06-.808-2.443.61-3.867-2.347-2.106-4.378 1.87-2.155 4.918-1.71 5.255 1.48.06.567.447.157.62-.712.207-.646.254-3.055.254-3.055zm31.675 4.795s-12.443 7.08-12.064 7.379c.073.043 2.757 3.82 2.757 3.82 6.174-13.987 20.958-2.403 23.326 4.738.513.317.601.226 1.16.477.052-.505 1.077-5.465 1.077-5.465zM77.99 258c-.623.78-2.709 2.993-2.446 3.076 18.287 3.93 37.146 3.618 56.343 1.535L130.42 258c-18.956 4.83-52.43 0-52.43 0z" fill="#d40000"/><path d="M31.82 28.675l1.121 257.077 160.477-.567-.962-256.82zm48.805 1.832l80.039-.327c-3.753 9.746-14.565 25.144-14.053 25.18-16.649-2.75-33.811-4.138-53.004-.039zm-46.952.626l44.915-.058 14.814 26.553s.87 1.657.35 3.39c-.567 1.892-1.054 2.732-1.564 3.698.05-.551-4.27-1.098-3.908 2.6.245 2.504 3.413 3.92 5.772 1.972.378-.031.375.318.292.93-.218 1.434-1.74 5.985-2.785 6.287-5.318-4.36-7.216 3.603-3.63 5.19 2.076.92 5.268.16 6.76-2.335 1.141-1.91 1.015-1.594 1.375.723.134.861.323 1.86.42 2.309.304 1.404 0 1.676-2.363 2.313-1.902.741-3.83 1.15-5.791 1.574-3.585.588-5.417 3.292-5.506 6.583-.02.71.006 1.04-.147 1.251-15.165 5.756-31.28 13.81-48.184 27.562zm101.833 63.048c-.574-.93-2.41-5.807-2.915-7.842-1.316-9.866-1.566-21.578-2.972-30.762l1.853.208s.696 2.66 1.446 9.843c.371 3.561.759 10.965 1.069 14.368.468 5.057 2.753 13.144 4.168 15.185 2.309 3.33 6.95 1.176 5.397-2.777-.805-2.05-3.923-1.719-3.49.41.007.38.296-.272.752-.672 1.347-.51 2.864.892 2.073 2.58-.983 2.156-3.89 1.173-4.854-1.545-1.152-3.246 2.729-5.68 5.632-3.7 3.234 2.206 3.241 7.797.636 9.561-4.383 1.599-7.364-1.595-8.795-4.857zm10.838 4.112c-.177-.104.006-.444.223-1.25.81-3.018.3-5.373-1.652-7.592-1.088-1.236-1.497-1.453-.928-1.677 1.208-.475 3.876 1.462 4.61 3.366.723 1.87.904 3.805-.115 5.92-.709.453-1.81 1.363-2.138 1.233zm3.303-2.01c-.002-.352.235-1.466.29-2.01.211-2.105-.774-4.243-2.516-5.914-1.462-1.403-1.596-1.547-.212-1.57 3.568-.06 5.844 5.708 4.197 8.55-.424.45-1.717 1.372-1.759.945zm3.022-1.952c1.05-4.918-3.706-8.195-3.802-8.042.237-1.102 2.126-.469 2.77-.04 2.404 1.615 3.787 5.835 2.311 8.233-.16.295-.358.464-.617.622-.496.312-.789.563-.89.344-.076-.165.2-.881.228-1.116zm-41.85-15.955c.497-.488.646-.502 1.601-.141 2.993 1.13 5.384-1.018 4.677-3.275-.255-.817-1.377-1.704-2.067-1.775-1.128-.117-1.15.478.065.932 1.494.558 1.645 2.143.33 2.858-1.545 1.042-4.074-1.604-5.929-1.38-.886.264-1.454 1.093-.947 2.106.395.71 1.73 1.141 2.27.675zm-3.32-.323c-1.037-.482-1.433-.473-1.234-1.606.13-.745 1.193-5.761 1.699-7.7 1.513-5.807.09-9.026-4.195-10.324-2.904-.88-5.405-.434-8.364 1.14l-.532-1.642c12.405-3.245 33.577-2.525 33.501-2.4.418 1.67.577 3.34.74 5.01 0 0-3.966-1.946-6.035-2.594-3.188-.977-8.227.094-9.12 1.924-.506 1.038-.242 1.73 1.9.576 3.505-1.888 10.665-.45 13.188 1.552.582.461.552.562.563 1.103.017.824.066.873-1.082.259-6.017-3.076-11.158-2.72-12.932 1.319-.409-.123-1.969-.392-1.969-.392l1.675 2.477.319 2.593s2.737 1.518 4.246 2.161c1.485.63.63-.04-1.193-1.309-1.338-.931-.273-1.23.61-.873 1.816.417 4.47.946 7.544-1.005.954-.606 3.14-.08 3.173.194 0 0 .291 2.267.58 6.998.137 2.238.412 5.162.569 6.362.473 3.626.608 3.832-1.3 2.094-.64-.584-1.706-1.551-1.719-1.494-.242 1.125 2.573 3.1 3.228 3.777.995 1.029 1.793 3.662 1.395 3.818-.252.1-2.926-2.169-5.03-4.208-.79-.764-1.964-1.788-1.997-1.753-.435.29 1.332 2.284 2.987 3.776 1.932 1.74 2.155 1.896 1.506 2.158-1.199.484-2.278-.118-5.189-2.525-.283-.234-1.385-1.016-1.438-.96-.265.355 2.42 2.897 3.03 3.116 1.133.406 1.46 1.5.566 1.93-.596.286-2.819-.932-4.6-2.475-.32-.277-1.206-.748-1.264-.684-.354.227 1.638 1.949 3.538 3.093 1.86 1.12 2.159 1.397 1.684 2.328-.441.96-4.525-1.261-6.567-3.549-.435-.487-.778-.696-.692-.532.89 2.466 3.817 4.232 5.995 4.936.389.127.952.284 1.206.486.62.492.483 1.005-.19 1.294-2.321.651-5.984-2.161-8.603-5.108-.304-.125-.123.26-.043.388 2.185 3.487 6.37 6.14 8.89 5.645 1.473-.29 2.656.154 2.668.648.01.405-.803 1.05-2.387 1.164-3.585.255-9.185-3.666-12.46-8.66-.103-.156-.224-.213-.232-.119-.089 1.059 1.948 3.655 3.51 5.14 4.642 4.412 9.03 5.903 12.453 3.417 1.93-1.495 3.795-4.765.92-5.858-1.522-.578-2.485 1.518-1.183.92 1.71-.206 2.099.7 1.876 1.554-.435 1.464-1.887 1.697-3.067 1.082-2.053-1.113-1.617-4.925 1.041-5.59 2.396-.58 4.486 1.452 4.761 3.378.427 2.993-2.95 6.23-5.657 7.036-9.235 2.748-16.447-10.083-16.49-10.374-.462-.891-1.02-1.363-1.371-.324-.378 1.505-2.462 5.918-3.577 5.892.347-1.557 1.808-4.174 1.453-6.467-.616 1.883-1.916 5.9-4.402 8.04-.644.586-2.536 1.278-1.234-.233 1.572-2.209 3.628-5.23 3.202-8.066-.417.637-.644 2.25-1.12 3.316-1.195 2.668-3.802 5.834-5.524 6.347-1.272.379-1.153-.05.149-1.421 1.395-1.47 3.866-5.785 3.703-7.646-.07-.821-2.563 7.106-7.249 9.277-1.265.462-1.984-.12-1.984-.12 1.842-1.06 6.93-6.076 6.45-11.774 0 0-.272.843-.673 2.109-1.725 5.438-5.431 9.014-8.32 9.31-2.306.237-3.916-.694-3.344-1.104 2.99.022 5.447-1.012 7.367-3.926 1.95-2.962 2.678-7.72 1.496-12.758-1.066-4.542-1.3-8.626-1.673-12.993 3.276 1.119 6.572 1.863 9.762.617-.32 1.301-.853 1.463-1.694 2.445-.611.718-.402.889 1.98-.794.694-.49.944-.882 1.07-.751.203.213-.113 1.552-.807 4.222-1.036 3.993-.767 4.279 3.069 5.783.716.281.983.556 1.234.855.117.14.746 1.273.806 1.313.14.094.103-1.156.026-1.471-.206-.84-.66-1.469-1.056-1.717-.753-.693-1.839-.755-2.535-1.073zm72.42 52.08l.038-4.147 4.028 2.858-.05 1.368zm-6.884.9l-.148-76.68s3.092-2.054 4.637-3.072c.965 3.04.959 9.56.597 12.462-.605 1.891-.875 10.305-.189 14.586.547 3.413.446 9.057-.07 11.759-.201 1.055-.046 6.002.334 10.579.29 3.497.206 6.677-.217 8.497-.332 1.434-.217 6.573.163 8.545.558 2.9.654 12.217.403 12.723-.664.752-5.858.858-5.51.601zm6.124-80.246s3.114 2.057 4.615 3.085l.021 3.303-4.5-2.937zm-46.473 5.338l1.925.12c.767 3.993 1.1 8.532 1.405 13.083.098 7.016.964 14.417 2.612 19.267l-1.416 1.484c-2.41-5.558-2.6-14.326-3.138-20.26-.235-6.675-1.333-13.65-1.388-13.694zm46.847-.7l4.188 2.835.043 3.593-4.219-2.799zm-44.069.964l1.691.184c.515 4.74 1.303 7.958 1.604 13.18.388 6.755 1.559 12.301 2.287 17.577l-1.267.421c-.848.39-2.253-5.844-2.879-18.483-.19-3.825-.837-8.128-1.436-12.879zm2.558.178l2.02.362c.893 12 2.304 23.27 3.782 29.729l-1.756.116c-2.178-9.23-2.32-19.91-4.046-30.207zm2.917.426l1.856.322c2.233 27.443 3.61 27.089 4.041 28.168l-2.009.815c-2.171-7.887-2.61-19.005-3.888-29.305zm8.427 26.955c-.318.925-1.07.839-1.891.934-.92-2.522-1.457-5.529-1.842-8.472-.847-6.466-1.153-12.528-2.035-18.909l2.214.227c-.072.049 1.57 22.503 3.554 26.22zm-47.633-24.121c2.918.14 5.339 1.45 5.572 3.367.052.431-.29.222-.685-.081-2.51-1.923-5.366-2.523-8.814-1.282-.752.27-1.367.696-1.702.638-.302-.193-.396-.66-.165-1.046.804-1.345 4.35-1.666 5.794-1.596zm-6.767 3.849c.063 3.022-.673 4.689-2.259 5.387-1.914.843-4.369-.962-3.176-2.981.902-1.527 2.452-1.067 2.747.537l2.432-5.415s.25 1.715.256 2.472zm88.834-.485l-.026 3.115-4.488-3 .3-2.994zm-79.615-.406c2.211.876 3.023 1.945 3.105 2.42-.128.355-.349.113-1.963-.758-2.487-1.525-5.727-1.773-8.575.162-.71.14-.782-.262-.071-1.027 2.17-1.699 5.166-1.723 7.504-.797zm16.791-.583c1.946-.062 4.271.433 6.236 1.418.868.436 1.648.707 2.214 1.208.453.236.488 1.264.157 1.341-.296.042-.78-.189-1.505-.695-4.667-3.03-8.026-2.657-10.724-.791-.15.103-.614.209-.797.195-.515-.039-.541-.25-.327-.528 1.25-1.412 3.117-2.092 4.746-2.148zm58.323 2.181l4.498 3.143-.003 3.09-4.781-3.324zM98.114 65.64l.657.019c1.53 3.709 3.45 1.797 4.248.312l.8.13c-1.252 4.968-6.347 2.369-5.705-.461zm-1.118.494c.743.09.717.93.95 1.543.52 1.368-1.452.21-1.79-.123-.573-.602.24-1.358.84-1.42zm22.261-.144c1.939 2.95 3.057 1.203 4.163-.081l.526.168c-.138 2.118-3.704 4.376-5.396-.035zm5.963.333c.208.004.624.152 1.007.307 1.06.429 1.005.743-.17 1.265-1.878.836-2.531.944-1.969-.236.324-.54.538-1.255 1.132-1.336zm-7.368.45c.473.347.783.732.838 1.357.038.44-1.428-.067-1.425-.77.046-.445.288-.807.587-.587zm-12.995.168c.964.357.848.816.177 1.232-1.205.672-1.721.54-.942-.516.36-.488.437-.706.765-.716zm74.14 1.555l4.872 3.424-.044 3.143-4.866-3.317c-.227-1.347-.013-2.252.039-3.25zM94.825 73.36c.23.006.322.77.376 1.885.09 1.856-1.8 4.44-3.709 5.33-2.3 1.073-4.762-.43-4.35-2.659.38-2.053 3.297-2.138 3.407-.24-.283.498.114.916.277.872.75-.201 2.52-1.793 3.24-3.574.28-.694.45-1.408.65-1.57a.167.167 0 0 1 .109-.044zm84.043-.58l4.867 3.552.022 3.123-4.827-3.32c-.19-1.392-.108-2.385-.062-3.354zm-59.059 4.946c-.367.619-.066 1.726.689.783 1.939-2.258 4.748.567 3.245 2.362-1.364 1.629-3.042 1.104-6.586-.249-2.582-.985-2.989-.65-3.625.062-.524.587-.257 1.767.422 1.753 2.092.475 3.903.937 6.07 1.388 4.577.939 7.368-4.957 3.187-7.124-1-.518-3.07.155-3.402 1.025zm-20.202.68c-1.785 1.6-.32 5.806 2.307 6.182.55.078 1.372.055 2.305-.214 1.838-.53 3.864-1.618 3.947-2.251.377-2.88-3.909-.298-4.476.043-1.352.82-2.782.715-3.503-.26-1.623-2.196 1.287-4.716 3.054-2.03.446.679.29-.47-.197-1.25-.687-1.103-2.46-1.031-3.437-.22zm79.583-.907l4.575 3.233-.026 3.007-4.436-3.198zm.343 4.402l4.332 3.116.074 3.126-4.547-2.993c.09-1.125.11-2.183.14-3.249zm-24.29 1.795c3.808.063 5.958 5.69 3.949 8.032-.598.697-1.075.884-1.345.624-.059-.056.037-.685.076-1.397.124-2.268-.359-3.821-2.018-5.544-1.245-1.293-1.716-1.693-.663-1.715zm-46.907.897c-.72.257-1.48.776-2.07.648-.582-.127-.86.161-1.088.618-.872 1.746-.602 2.31 1.126 1.32.82-.471 1.107-.302 3.302.112 1.569.296 2.636.266 4.016-.092 1.716-.445 2.739-.48 3.607-.005.868.475 1.462 1.129 1.484.596-.096-.623-.64-2.217-.766-2.747-.06-.255-.487-.03-.89-.001-1.423.103-3.12-1.176-4.219-.5-.88.541-.995.683-2.202-.025-.898-.527-1.521-.201-2.3.076zm45.882.392c2.58 2.154 3.24 4.065 2.99 5.633-.128 1.14-.213 2.4-1.33 3.087-.207.098-.514.159-.8.2.868-3.239-.154-6.14-3.8-9.236 1.06-.525 2.142-.35 2.94.316zm-58.178-.006c.115 0 .24.019.369.061.447.147.518 1.319.166 1.686-.353.367-.637.064-1.045-.867-.304-.507.014-.878.51-.88zm-2.382.912c.942-.02 1.299.843 1.46 1.53.138.586-.036 2.333-.536 1.724-.12-.37-.631-1.565-1.04-1.876-.912-.69-.822-1.359.116-1.378zm-2.651.868c.137-.004.314.013.528.05 1.47.245 2.597 2.585 2.255 3.913-.779 1.428-1.066.465-1.323-.83-.201-.536-.803-1.378-1.172-1.812-.766-.902-.885-1.304-.288-1.32zm88.4-.68l4.477 3.209.007 3.434-4.686-3.15c.105-1.201.158-2.352.202-3.493zm-91.309 1.392c2.193.004 4.065 2.553 3.374 5.01-.857 2.563-5.125 2.016-4.417-.539.204-.735.989-1.273 1.738-.813 1.082.665.963-.417.276-.8-1.06-.593-2.519-.234-2.844.965-1.132 4.18 4.242 5.606 7.167 1.287 1.07-1.579 2.233-3.268 2.875-3.988.577-.648.7-.58.607.255-.372 3.884-3.081 8.739-8.161 8.473-4.937-.468-6.48-5.706-2.752-8.975.626-.55 1.286-.82 1.925-.867.072-.005.142-.008.212-.008zm26.16.212c-1.806.875-3.443 1.206-5.221.431-1.315-.572-1.294.05-.723.56 1.652 1.406 4.655.77 5.942-.022.418-.257.555-1 .003-.97zm69.64 6.21l.014 3.122-4.998-3.348c-.079-.747.005-1.883.17-3.055zm-4.818 1.042l4.76 3.134.125 3.095-4.624-2.867zm.332 4.341l4.546 3.144.066 3.38-4.504-2.964zM68.555 102.83l-2.783 8.405 1.822.11 1.23 2.217 1.263-2.272 1.917-.145zm111.046 1.122l4.381 3.01.066 3.12-4.552-3.146zm-.178 3.82l4.491 3.244.09 3.316-5.091-3.392zm-100.495 1.876l-2.755 8.999 1.553-.211 1.454 2.407 1.468-2.162 1.392.079zm-20.737.67l-2.623 8.944 1.758-.007 1.485 2.256 1.303-2.178 1.994-.053zm120.647 1.646l5.271 3.698.044 3.52-5.11-3.422zm5.21 8.361l.06 3.084-4.436-3.157-.481-3.423zm-94.098.531l-3.22 9.09 2.159.021 1.31 2.183 1.047-2.194 1.736.018zm90.014.907l4.115 2.82-.032 3.165-4.051-2.713zm-77.987 36.784l-2.345-2.253c-.029-.184 1.917-1.127 3.116-.527 1.582.792 2.395 3.64.623 5.139-1.41 1.193-3.562.2-3.604.06zm-2.087-3.716c.042-3.48-1.791-4.374-3.307-5.079 0 0-.254-22.054-.22-22.713 0 .096-.39-2.388-.434-2.535 0 .001-.363-.097-.363-.093.063 2.236.21 25.152.174 25.3-2.837.328-3.63 2.249-3.886 4.827-2.213-.166-3.653 1.166-3.697 1.387-.818-1.122-.209-2.776-.854-3.947-1.961 6.858 1.853 10.961 5.182 10.579.534 6.584 7.786 7.774 7.54-.212 8.774-.515 5.801-8.581-.135-7.514zm-41.223-27.688l-3.176 8.906 2.226-.254.812 1.643c3.566-3.142 5.367 1.71 3.552-2.451zm120.75 15.847c.41-.03.95.339 1.057.842.078 1.504-1.943 1.166-2.007.216-.046-.674.565-1.03.95-1.058zm1.32 9.777c.872-.715 2.26-.31 2.282.767.02.955-1.076 1.27-1.932.733-.665-.405-.707-1.16-.35-1.5zm.124 2.65c4.777.364 8.33-2.88 6.808-5.21 1.283-1.612.236-2.538.587-3.463 1.014-1.04.166-3.275-.088-3.283-.208-3-1.08-3.385-2.376-4.983-.39-.463.908-.916 1.407-1.713-1.32.508-2.617-.472-2.61-.695l-.562-.697c-8.845.412-16.788 1.029-16.488 13.022-1.273 5.09.883 9.625 7.057 8.224 1.352-1.207.461-2.957.296-3.798-.528-2.313.081-3.817.25-4.9.526-3.353 2.983-6.465 3.25-1.21.431-.66.228-.757.939-1.03 1.695-.612 1.692 1.101 1.345 1.792-.223.356-.56.326-.904.286-.493-.06-1.137-.242-1.148-.423-.133.546.896 1.56.789 2.072-.136.486-.223.447.227.125 2.128-1.522 3.46 1.879.381 1.49 1.517.81-.728 3.18.84 4.394zm-3.15-18.304c1.678-.085 2.08-.1 2.002.78.318 1.624.725 2.378 2.843 2.207 2.134-.277 2.811-.41.663.879-1.085.478-1.437.57-2.723.455-1.296-.116-1.197-.247-1.937.195-.414.247-.865.548-1.202.61-.498.09-1.376.281-1.376.281-.499 2.522-1.258 3.792-2.303 4.991-1.479 1.68-2.229 1.974-.416 1.848.67.042.323-.294.616 2.425.103.952.28 2.056.422 2.427.471 1.239.534 1.855-1.258 1.943-4.472.338-5.517-4.015-4.921-6.239.051-.35.255-1.508.3-2.426.023-.502-.078-.928-.065-1.441.102-4.148 1.085-5.24 4.767-7.937 1.11-.813 3.105-.98 4.588-.998zm3.93.224c2.064-.043 4.059.95 3.064 1.593-.644.416-2.966.243-3.611-.216-.833-.592-.52-1.355.546-1.377zm-92.075 3.522l-.818 1.45-.855 6.75.152 1.37 1.69 2.214 1.336-2.296 2.103.037zm96.542-.673c1.337.267 1.39 1.488 1.05 2.24-.747 1.651-5.75 2.45-5.75 2.451-.04-.71.058-1.393-.462-2.191 0 0 3.332-.872 4.036-1.514.47-.43.756-.972 1.126-.986zm.99 3.758c.484.007.742.358.873 1.072.062.383-.082.71-.394 1.128-1.27 1.38-4.84 2.336-6.13 1.985-.09-.12.13-1.573.223-2.22 1.716.052 4.607-1.47 5.427-1.965zm-50.888 8.498c-1.705-2.46-5.49-2.1-5.083-1.928.027-2.107-.334-5-3.532-5.309-3.226-.244-4.883 4.01-3.66 5.812-1.99-.826-4.976 1.245-4.976 1.44-.254.008-2.536 6.037 4.368 6.347.629 2.846 1.705 4.223 3.912 5.394l.054 23.23.78 1.055.069-24.345c3.533-.156 3.969-4.199 3.707-5.131 1.57.068 2.994-.247 4.195-1.163l.413 3.968s.829-1.4.646-2.142c-1.537-22.815 6.716-47.496 17.552-63.494.579-.671.756-1.473 1.042-1.48a203.243 203.243 0 0 0 4.312-2.38c4.357 2.093 12.138 7.147 12.138 7.147l.126 32.51c-.12-.32 14.498-1.63 14.278-1.235 0 0-1.28-.502-1.3-1.357l-.38-76.077-6.396-4.177s-5.258 3.436-6.73 4.61l.162 44.79-11.329-6.636s.182-1.584.198-2.098c-.18-6.112-3.182-8.163-8.895-6.35-.765.243-1.298.456-1.672.143-2.406-7.031-3.488-25.509-3.485-25.509l16.123-27.311 27.35-.15.472 104.35.99 54.695-13.96 10.166-.203-35.037s-2-.956-2.524-1.02c-.197-.016-.45.424-.095.65.513.328 1.775.786 1.775.786l.296 34.727s-5.426 3.652-7.853 5.174c-1.81 1.124-7.53 4.005-10.92 5.664-1.314.644-2.642 1.16-2.764 1.26-4.617 1.984-8.779 3.373-12.626 5.42-2.655 1.086-2.536.022-3.101-.846-5.54-5.478-12.693-5.802-18.488-3.273-.898.333-2.01.623-2.76 1.144-.218.16-.596.34-.844.399-.508.12-1.064.346-1.531.715-.833.658-1.388 1.733-1.864 2.8-.295.66-1.181 3.74-1.299 4.652-.02.153.296.12.307.134.04.056.891-3.73 1.229-4.446.72-1.53 1.628-2.445 2.11-2.59.218-.037.41.304.112.843-.592 1.07-1.072 3.348-1.216 4.374-.128.948-.154 1.708.023 1.741.031.03.869-2.868 1.245-3.891.983-2.668 1.602-3.773 2.549-4.342.97-.583 1.2-.501 1.01.12-1.445 2.815-2.04 4.944-2.323 7.943-.043.598.26.615.498-.375.791-3.149 1.876-7.407 4.441-8.678 1.095-.495 1.581-.471 1.464-.118-3.054 3.858-3.818 8.142-3.782 9.524.012.462.199.37.59-.629 1.035-3.802 2.568-7.035 4.388-8.622.705-.614 1.557-.783 2.272-.871 2.156-.268 2.23.531.353 1.625-2.139 1.245-4.612 5.775-4.887 9.177-.095 1.177.322 1.305.616-.265 1.268-6.761 7.065-11.23 11.711-9.16 2.09.93 2.47 2.225.65 1.65-3.683-1.166-7.774 1.445-9.46 5.087-1.525 3.292-1.492 5.022-.42 9.431.73 4.073 2.156 9.278 1.686 13.266-.507.776-2.106-.318-3.995-.55-1.14-.214-2.532-.268-3.721.187-1.038.397-1.626.496-1.818-.062-.062-.18.8-1.057 1.184-1.543.614-.776.262-.9-.603-.057-.423.412-1.333 1.378-1.583 1.428-.546.11-.568-.505-.127-2.072 1.547-6.085 1.133-6.188-1.52-7.42-2.63-1.002-1.798-1.507-2.962-2.502-.82.64 1.071 3.581 3.212 4.224 1.751.526 1.538 1.421.771 3.83-.778 3.37-2.105 7.832-1.337 10.826 1.613 6.29 8 6.162 12.891 3.62l.597 1.603c-4.135 1.674-25.934 3.105-33.28 2.261-.568-1.985-.625-2.495-.855-4.832 0 0 4.538 2.049 6.804 2.404 2.828.444 7.184.465 8.299-2.14.341-.763-.01-1.408-.985-.966-1.794.813-4.86 1.415-7.338 1.262-2.079-.129-5.043-.963-6.324-1.735-.61-.367-1.123-1.084-.646-1.984.423-.094.979.373 1.308.542 3.751 1.893 5.81 2.26 8.256 1.534 1.857-.55 4.357-2.553 3.74-3.12-.627.217-2.707 1.964-4.141 2.345-2.952.784-6.1-.417-9.166-2.403-.946-.821-.514-1.42.645-.763 4.593 2.312 6.509 3.846 10.904.6.982-.727 1.53-.634 2.106-.193 2.282 2.044 2.275.896.603-1.227-.38-.482-.724-1.158-.951-1.877-.168-.532-.206-1.064-.51-1.413-.519-.596-1.452-.885-2.52-1.355-1.54-.677-2.052-.35-.915.203 1.991.97 2.96 2.011.488 1.45-2.245-1.004-5.992-.442-8.112 1.03-1.665.811-2.398 1.68-2.79-.156-.824-3.832-.022-9.03-1.125-15.717-.21-1.275-.467-2.083-.2-2.257.342-.224 1.196.601 2.256 2.088.482.678 1.442 1.983 1.436 1.711.037-1.416-2.166-4.073-3.984-5.12-.998-.575-1.677-3.233-.534-2.648.882.43 5.47 4.463 6.345 5.9.406.669.749.243.32-.543-.259-.47-1.338-1.855-2.385-2.878-1.86-1.815-2.075-1.73-1.718-2.102.706-.736 2.218.212 4.913 2.65.692.873 1.606 1.66 1.493 1.227.276-.679-2.422-3.58-4.023-4.356-.299-.188-.34-.385-.312-.746.152-1.37 3.25.642 5.82 2.99.963.88.165-.775-.95-1.9-.877-.883-2.29-1.983-3.248-2.36-.952-.392-1.011-1.222-.265-1.57 2.577-.109 5.237 2.524 6.822 4.594.438.568.84 1.006.384-.07-1.468-3.24-4.523-5.067-6.639-5.437-1.718-.3-1.68-1.851-.065-1.676 1.777.193 4.686 1.797 7.153 4.279.717.722 1.925 2.36 1.676 1.399-.005-.262-.763-1.288-1.638-2.277-2.017-2.004-4.363-3.775-6.85-4.302-1.163-.33-4.614.336-4.634-.262-.01-.442.36-.707 1.46-1.072 4.265-1.42 10.509 2.245 13.924 7.878.244.403.707.575.735.484-1.648-4.604-6.77-8.777-10.846-9.492-2.771-.444-5.565.263-6.894 2.13-1.495 2.101-.91 4.912 1.335 4.687 1.178-.109 1.084-.777 1.062-.799-.08-.079-.764.243-1.188.16-1.535-.302-1.374-3.078.873-2.804 2.584.315 2.949 4.39.061 5.247-2.665.79-3.641-.427-4.37-1.87-1.068-2.115.078-5.525 1.96-6.832 5.27-3.659 11.934-.592 15.7 3.036a16.707 16.707 0 0 1 4.08 6.231c.22.535.616.503.474-.07-5.296-13.51-21.101-14.971-23.45-4.606 0 0-.08.317-1.6-1.844-2.464-3.502-6.144-4.282-10.676-1.895-4.579 1.72-6.123 2.816-9.298 4.458-.463.164-3.399 2.189-3.87 1.768-4.496-2.982-8.417-3.999-10.552-6.184.074-.401-.306-6.46-.306-6.46l.105-26.124c.032-.255-2.38.173-6.396.803-10.68 2.131-9.745-3.485-11.158-3.88-.747-.15-.692.17-.895-19.97-.059-5.85-.175-16.134-.26-22.855-.087-6.721-.11-12.32-.05-12.438.06-.118.66-.633 1.352-1.123 2.602-1.844 4.063-2.96 9.757-7.304 1.29-.984 1.615-1.15 1.615-1.15.654 12.1.067 24.809.389 35.211l.48.003-.186-34.932c-.982-.257 22.453-13.97 35.297-18.42.24-.083.841.185.841.185 7.371 9.033 26.767 6.298 28.33-4.7 3.213 6.705 17.331 19.731 23.782 4.03 0 0 2.338 4.51 4.344 4.807 4.508.599 5.008-.113 14.93-4.925-11.345 17.212-17.6 35.436-18.402 57.507zm-6.03-4.292c.248.76.332 1.743.12 2.518-.29.607-.722.598-.722.598l-2.197-1.878-2.15 1.993s-1.315-1.325-.593-3.161c1.375-2.567 4.523-2.103 5.542-.07zm56.772-.303c1.407-.089.68 1.53-1.4 2.626-1.307.688-2.39.882-2.858.634a2.337 2.337 0 0 1 .12-1.762c.888-.455 3.328-1.255 4.138-1.498zm-90.809 3.049c1.562-.038 2.915 1.074 2.965 3.045.02.803-.391 1.599-.391 1.599l-2.61-1.924-1.993 2.126c-.34.119-1.561-1.404-.722-3.061.61-1.205 1.682-1.76 2.751-1.785zm37.732.905c2.195.995 2.576 4.064.44 5.246-1.014.562-2.61.875-3.358-.262l2.158-2.352-2.477-2.084c-.097-.097 1.897-1.156 3.237-.548zm52.692-.807c.378 0 .475.144.583.497.308 1.002-.474 2.011-1.826 2.33-1.249.295-1.13.441-1.721-.675-.464-.874-.587-.837.138-1.114a36.58 36.58 0 0 0 2.826-1.038zm-62.435 1.505s-1.558 1.583-2.24 2.245l2.345 2.445c.113.297-2.704 1.572-4.186-.35-.962-1.25-.42-3.625.946-4.44 1.395-.832 3.394-.14 3.135.1zm3.357-.276a2.506 2.506 0 1 1-2.472 2.54 2.506 2.506 0 0 1 2.472-2.54zm-34.25 4.216l-2.248 2.353 2.43 2.645s-1.923.314-2.606.186c-3.309-.619-2.985-4.499-.426-5.525 1.08-.379 1.883-.252 2.85.341zm-44.117.8s.443 4.983.847 6.686c-.266 1.942-1.523 3.265-2.088 5.259-.301.887-1.434 2.08-1.652.83-.818-1.544-.037-3.454-.713-4.554-.342-1.026-.24-1.619-.468-2.695-.498-.874-.9-1.287-.832-2.081-.134-3.523-1.014-2.825-2.578-2.537-1.289.425-3.03.596-4.05 1.35-2.214 1.56-1.01 2.454-1.844 4.809.132 1.031.384 1.403.203 2.293-.854 4.206.723 3.857.675 3.923-.657.966.154 3.14.468 3.03 1.925.471 1.228 1.876 1.854 2.622.628.721.595 1.085 3.232 1.15 4.764.373 12.334-.335 13.97-6.143 1.02-8.19 2.512-15.404-7.024-13.943zm47.36-.803a2.418 2.418 0 1 1 .072 4.835 2.418 2.418 0 0 1-.071-4.835zm-45.274 1.27c.9-.01 1.962.179 2.834 1.015 1.87 1.793 1.951 3.418 1.122 10.315-.234 1.943-.918 3.567-1.824 4.275-1.82 1.42-4.049 2.434-5.885 2.886-.97.238-1.812.243-2.468.238-.708-.005-1.12-.332-1.173-.926.156-1.606-1.484-1.762-2.434-1.671-1.693.067-1.866.245-.81-.573 1.206-.934 3.984-.947 4.512-.4 1.083-1.085 2.213-1.212 3.596-1.373-.205-.3-.7-1.504-.372-2.276.716-1.26 1.92-3.48 3.186-4.314 1.25-1.636.188-.896-.588-.868-.444.016-.406-.13-.478-.427-.309-1.275-.754-3.658-.757-5.077-.002-.684.639-.813 1.54-.824zm-7.971 1.766c.489.435.483 1.042-.031 1.493-.588.517-1.754.232-1.783-.74.078-.981 1.222-1.258 1.814-.753zm84.418 3.453c-2.03.101-3.702-2.07-2.936-4.234.419-.586.6-.502.6-.502l2.31 2.064 2.217-2.319c1.827 2.204.26 4.827-2.191 4.991zm-86.89-3.362c-.167.634.051 1.265.079 1.573-.402.286-2.116.787-3.035 1.24-.639.219-1.1-.381-1.012-.929.241-1.02 1.742-1.686 2.832-2.002.337-.083.891-.114 1.135.118zm.375 2.92c.618-.075.436 1.271.204 1.96-.23.491-.91.47-1.523.506-1.08.064-2.443 1.31-3.028 1.11-.194-.09-.333-.603-.353-.929.127-1.797 3.112-2.456 4.7-2.647zm3.266 1.871c-.206.301-.869.447-1.424.294-.908-.249-1.047-1.552-.25-2 1.407-.465 2.252.855 1.674 1.706zm89.714-2.967l-1.232 1.876-1.872-.034 3.025 9.282 1.4-3.627c.188-1.668.409-3.333.582-5.002zm-39.825.783l2.394 1.952 2.053-2.099c1.528 3.405-.232 4.964-2.105 4.923-2.065-.046-4.267-2.003-2.342-4.776zm-52.552 3.52c.758-.144.434 1.905.328 1.964-.484.179-2.572.452-3.45 1.193-1.873 1.467-2.672.572-1.805-1.186.821-1.021 3.84-1.952 4.927-1.971zm2.382.097c.835-.078 1.42.845.91 1.725-.69.642-1.904.171-1.9-.74-.004-.571.469-.955.99-.985zm-1.23 5.2c.114.478-.053.33-.93.589-.483.142-1.243.464-2.034.864-1.16.585-1.485.9-1.897.834-.327-.072-.704-.213-.806-.545-.404-1.324.675-2.674 3.188-3.602.523-.192 1.457-.348 1.777-.384.853.003-.058 1.312.702 2.244zm1.485-1.993c1.214-.017 1.442 1.595.533 1.879-2.128.55-1.948-1.88-.533-1.879zm-1.498 5.94c.341.328.39.865.007 1.145-.702.346-3.397.052-3.415-.705-.01-.499.891-.667 1.728-.684.837-.016 1.406-.019 1.68.244zm121.656.826l-2.22 2.97 2.98 7.458 2.721-9.031-2.137.847zm-125.621 7.663c.514 22.97.427 75.607.427 75.607l6.537 4.443 6.883-4.946c-.07-16.568-.137-27.996-.202-43.335l10.086 5.54s.31.446.262 2.519c-.696 5.724 4.839 9.44 8.512 7.18 1.417-.596 1.532-.702 1.832-.254.826 1.231 1.757 6.504 1.912 9.869.235 5.068 1.569 15.403 1.89 15.472L60.64 283.332l-25.59.124-.293-103.443c1.33 1.567 1.936 2.594 4.16 3.41zm95.255-2.215l-1.232 1.88-1.485-.001 2.606 9.614 3.154-9.4-1.738-.216zm-82.198 76.664s-3.194 2.293-4.214 2.952c-.537.2-.797.238-.924-.275-.156-.63.095-1.823.317-3.795.206-1.824.205-1.926-.098-4.525-.317-2.715-.355-2.828-.098-6.411.286-3.997.342-7.877.025-10.28-.3-2.284-.296-7.493-.066-10.4.282-3.56.19-6.683-.276-9.266-.831-4.605-.969-6.19-.103-9.655.325-1.297.486-1.986.418-4.157-.075-2.414-.12-3.202-.984-8.547-.497-3.077-.536-3.5-.07-8.368.094-.982.126-1.64.5-1.951.438-.364 4.994-.63 4.994-.63zm-11.98-74.362l4.962-.054c-.383 1.554-.47 2.736-.508 3.86l-4.409-2.897zm.072 1.986l4.364 2.848c.004 1.203-.085 2.349.09 3.55l-4.424-2.935zm.008 4.52l4.67 3.192c.183 1.244.563 2.501.709 3.619l-5.295-3.583zm151.026 1.258l.245 91.719-46.49.208-14.735-28.31s.15-2.604.515-3.933c.44-1.606.558-1.956 1.176-2.032 1.654.857 3.497-.283 4.062-1.536.695-1.544-.713-3.88-2.872-4.386-.952-.227-1.993.201-3.044 1.003-.611.51-.748.568-.87.124-.274-.999.614-3.715 2.2-6.046.882-1.297 1.12-1.67 1.406-1.177 1.155 1.995 3.631 1.582 4.57.455 1.138-1.364.9-4.473-1.675-5.298-5.04-1.612-7.352 3.444-7.29 3.432l-1.078-6.062c6.066-1.486 9.567-2.011 11.494-3.85 1.516-1.447 2.239-3.95 2.051-6.176 0 0 16.85-6.844 24.736-11.094 13.577-7.318 25.6-17.041 25.6-17.041zm-25.657.665l-1.246 2.191-1.768.002 3.576 9.256 2.731-9.663-1.705.152zm-125.15 2.656l5.351 3.69c.117 1.198.27 2.265.11 3.622l-5.633-3.726zm104.402-1.134l-1.332 1.769-1.535-.162 3.01 9.165c.914-2.649 1.747-6.246 2.652-8.898l-1.423.068zm-104.496 5.846l5.537 3.667c.021 1.133.075 2.2-.32 3l-5.225-3.352zm114.872.529l-1.344 2.585-1.79-.243 3.201 8.785 3.5-8.703-2.167.116zm-114.862 3.743l4.8 3.525c.07.05-.267 1.608-.19 2.49l-4.568-2.814zm.13 4.36l4.476 3.075c.01 1.165.09 2.262.274 3.254l-4.86-3.155zm-.077 4.442l5.175 3.684.274 2.96-5.483-3.447zm42.604 1.234c4.967 1.852 9.624 11.296 9.48 23.524-.098 8.489 2.466 20.605 2.419 20.465 0 0-1.44.193-1.848-.127-1.871-6.232-2.494-12.819-2.79-18.25-.242-4.53-.503-8.976-.79-10.015-.816-3.653-1.7-7.915-4.035-10.691-1.82-2.094-3.894-2.459-5.133-.108-1.016 1.926 1.122 5.113 2.897 4.054.43-.241.685-.65.123-.638-1.842.273-3.08-2.275-1.914-3.49 2.053-2.138 5.645 2.627 3.98 5.25-.735 1.134-2.654 1.334-4.19.916-3.417-1.652-4.274-5.696-3.13-8.36.871-2.032 2.785-3.246 4.931-2.53zm-6.008 1.215c.403.018.128.763-.244 1.923-.88 2.783.77 7.105 3.052 7.966.685.466.648.643.19.9-1.49.837-4.194-1.674-4.908-4.472-.516-2.023-.39-4.412.584-5.426.532-.554.954-.846 1.241-.885a.466.466 0 0 1 .085-.006zm-36.65 1.64l5.526 3.612c.257 1.127.145 2.328-.028 3.541l-5.532-3.855zm33.349-.046c.41-.013.257.674.143 1.927-.264 2.903.635 5.013 2.686 6.766.864.739 1.102.97.73 1.358-.53.551-2.044-.187-3.232-1.425-2.175-2.268-2.896-6.548-1.201-8.1.372-.34.66-.52.874-.526zm61.47.504c2.361-.092 4.355.824 4.574 3.71.321 4.224-3.616 6.535-6.362 4.109-2.462-2.435.033-6.247 2.887-4.461 1.434.905-.278 2.967-1.439 1.901-.523-.481-.753-.182-.38.373 1.122 1.677 3.334.283 3.176-1.194-.312-2.903-3.88-2.866-5.223-1.729-1.838 1.556-3.458 3.847-4.665 5.516-.99 1.449-1.202 1.41-1.056-.38.386-4.728 4.804-7.702 8.488-7.845zm-64.311.924c.376-.014.226.525.255 1.916.152 3.569 1.657 5.791 3.565 7.035.64.706-.179 1.207-1.383.865-2.741-.845-5.54-6.735-3.217-9.268.326-.355.583-.541.78-.548zm-2.666 1.17c.38-.024.165.764.2 2.253.076 3.134 1.046 4.64 3.376 6.552.76.623.854.553.554.899-.798.919-3.502-.383-4.655-2.26-1.372-2.233-1.573-5.603-.297-6.876.357-.356.623-.555.822-.568zm-2.652 1.51c.315.001.14.567.188 1.92.117 3.282.867 4.906 2.949 6.424 1.308.954 1.626.668 1.226 1.045-.7.661-2.617.093-4.055-1.12-2.156-1.82-2.76-6.308-1.009-7.844.313-.274.536-.426.701-.425zm-25.096.463l5.31 3.68-.15 3.109-5.283-3.576zm92.854 5.828c-2.163-.443-2.98-2.003-2.717-3.77.087-.591.433-.93.803-.158.318 1.226 1.136 2.924 2.253 3.254.45.133.074.759-.34.674zm-46.494-3.67c2.439 6.137 2.395 12.844 2.8 19.18.537 8.423 2.027 14.095 2.514 15.051 0 0-2.381.027-2.502-.317 0 0-2.246-11.17-1.908-16.693.024-6.18-1.179-11.614-1.914-14.056-.778-2.163-.811-.734 1.01-3.164zm-46.39 2.397l5.11 3.34a45.254 45.254 0 0 0-.069 3.429l-5.008-3.544zm68.701-.286c.004.186.739.343 1.891.064 1.279-.309 2.553-.254 3.536.016 1.045.287 1.16-.05.215-.462-.461-.202-1.194-.66-2.292-.64-1.098.02-3.358.618-3.35 1.022zm20.696-.128c.124.229.513.744.86 1.147.658.763.843.768.543 1.08-.688.717-2.135-.323-2.29-1.65-.135-.969.348-1.58.887-.577zm-45.747.26c2.385 3.4 2.738 11.376 2.786 17.045.045 5.105 1.772 14.458 1.911 14.417-.491.29-1.153.189-1.773-.05-.614-.8-.99-3.04-1.702-9.107-.184-1.565-.545-6.545-.626-10.554-.072-3.537-2.047-11.191-2.047-11.191s.767-.545 1.45-.56zm-2.656.85c2.175 4.853 2.528 9.671 2.626 15.518.093 5.53 1.32 12.009 1.786 14.868-.735.076-1.51.137-1.817-.194-.196-.268-.351-.688-.447-1.23-.99-4.782-1.226-9.983-1.51-14.382-.425-6.817-.535-8.504-1.501-11.903-.548-1.928-.74-1.887-.327-2.258.314-.282.915-.424 1.19-.418zm24.45 1.117c.06 2.258.35 1.338 1.147.978.6-.051 1.091.277 2.207.687 1.422.522 1.294.697 2.293.207.616-.303 1.107-.407 1.402-.168 1.168.95 2.676.415 3.524-.354.662-.345 1.385-.157 1.945-.105.809.074.598-.441.698-1.463.088-.906-.258-.986-1.196-.68-.96.313-1.913.358-2.746.103-2.13-.65-3.689-.228-4.745-.061-2.494.392-2.627.14-3.193-.217-.422-.267-1.118-.758-1.358-.743-.24.014-.161.832.021 1.816zm22.127-1.038c.237-.12.347.202.677.632.552.72.713 1.058.25 1.125-1.224.177-1.529.05-1.486-.712.034-.607.168-.845.559-1.045zm-49.14 1.072c1.798 1.811 2.254 11.973 2.458 14.16.648 11.855 1.774 13.558 1.196 14.448-.681-.012-.918.24-1.363-.355-1.539-4.342-1.45-8.804-1.698-13.335-.352-6-.948-9.25-1.792-12.223-.561-1.977-.555-2.01.458-2.552.18-.097.579-.149.74-.143zm-2.423 1.428c.633 1.44 1.906 7.985 2.078 13.635.138 4.486 1.21 13.258 1.408 13.305-.655.06-1.44-.073-1.758-.569-1.96-8.647-1.336-17.03-3.603-25.726.135-.421.852-1.117 1.875-.645zm-35.934 1.067l5.298 3.799.114 3.242-5.408-3.837zm78.752-.41c-2.991 1.162-3.766 2.114-3.295 2.952.396.705 1.586.457 4.773-.873 2.382-.993 3.129-.56 3.612.94-.023 2.216-2.172 2.474-3.385 2.169-.521-.02-.443.028.112.722 2.466 1.935 5.49-1.848 3.983-4.247-1.18-2.191-3.22-2.815-5.8-1.662zm-18.778.9c-2.468 1.937-1.586 5.426.468 5.95.572.29 1.424.153 1.758-.068.308-.204.305-.537-.325-.641-1.907-.318-2.99-1.716-2.069-3.134.895-1.377 2.552-1.112 5.738.26 2.754 1.188 3.962.821 4.286-.604.144-.629-.031-1.219-1.352-1.268-3.676-.136-6.113-2.372-8.504-.495zm33.035 5.342c-.164-1.005-1.797.026-2.879 1.805-1.064 1.751-1.175 2.001-1.391.184-.323-2.711 2.49-4.831 4.245-4.9 2.114-.243 3.503.94 3.557 2.302.106 2.682-3.095 2.708-3.532.609zm-93.127-1.601l5.612 3.853s.19 2.065.068 3.175l-5.635-3.606zm67.374 1.294c-2.44 1.655-1.006 4.675.701 5.015 1.8.358 1.926-.897.137-1.268-.956-.376-1.2-1.286-.828-1.99.853-1.395 2.43-.492 3.349-.056 2.036.968 3.091 1.323 3.734.653 1.143-1.191.123-3.313-1.386-2.564-.407.202-.713.394-1.58.179-1.314-.275-2.892-.569-4.127.031zm-67.326 3.287l5.52 3.778-.169 3.34-5.182-3.8zm.114 4.592l5.191 3.7c-.076 1.411-.04 1.973.016 2.873l-5.25-3.39zm91.804.712c4.164.407 2.784 5.188-.123 3.898-.775-.583-1.009-.536-1.87 1.561-1.102 2.683-1.37 2.465-1.219-.635.11-3.035 1.505-4.8 3.212-4.824zm-32.8.728c.1.002.179.019.228.058.281.315-.563 1.563-1.279 2.296-.527.346-1.81-.589-1.498-1.045.363-.443 1.879-1.241 2.55-1.31zm5.556 2.462l-.744.107c-1.124-2.503-3.458-1.93-4.18.395l-1.025-.117c1.036-2.85 4.733-4.597 5.949-.385zm20.96.572l-1.259.075c-1.13-2.715-2.73-3.12-4.085-.438l-.975-.282c1.678-3.429 4.484-3.704 6.32.645zm-6.295-3.097c.645-.04.561.257-.11 1.174-.582.797-.724.922-1.31.487-.96-.713.636-1.608 1.42-1.661zm5.967.08c.123.007.266.02.43.06 1.297.32 1.893.935 1.256 1.724-.396.491-.783.684-1.044.355-.876-1.444-1.361-2.183-.642-2.14zm-19.607.854c.136.538-.29.92-.764.473-.193-.182-.361-.493-.337-.722.297-.28 1.007-.047 1.1.25zm-65.638 1.847l5.338 3.833c.175 1.35.211 2.376.203 3.298l-5.495-3.64zm77.804 1.161c3.074 2.107 6.68 2.078 8.935.228.504-.413.943-.43.952-.033-.321 1.476-4.242 3.37-7.304 2.297-1.683-.59-3.065-1.174-4.169-2.746-.656-1.023.694-.363 1.586.254zm-1.301 1.027c4.493 3.876 8.066 2.8 10.773.845.4-.1.407.26.496.929.114.857-.598 1.28-2.545 1.864-3.764 1.127-8.18-.108-8.975-2.632-.093-.496-.284-1.14.25-1.006zm-76.522 2.322l5.411 3.711-.172 2.837-5.271-3.563zm.086 4.346l5.109 3.462-.017 2.348-4.969-3.54zm37.105 1.102c21.794 4.93 37.24 2.588 52.398-.083l13.43 26.337-80.927.109c5.285-8.56 9.682-17.918 15.1-26.363z" fill="#131f67"/><path d="M7.809 14.212v2.87h2.937v24.979H7.809v3.093h8.533V42.06H14.08v-7.086l3.428-4.748 5.139 11.834h-3.282v3.093h9.307V42.06h-2.226l-6.812-15.214 6.473-9.811 2.4.047v-2.871h-9.24v2.87h2.663l-7.85 12.047V17.083h2.33v-2.871zm71.737 15.421l4.033 7.538.008.355 2.23 4.353.336.216.502.948.056.461 1.245 1.991-.008.427 5.28 9.82c4.354-1.625 40.124-4.552 53.369.236l1.929-3.269.461-.003 3.402-5.968-.054-.502 1.145-1.305.166-.594 3.754-5.874.013-.947 4.695-7.826zm80.992 1.127s-2.449 4.707-3.71 6.61c-1.022-.806-3.982-.259-3.805 2.862-4.826-1.828-5.99 3.928-2.258 5.223-1.915 1.672-3.745-.219-5.197-1.5-1.42.351-4.368 1.394-6.037-1.676 0 0 .698.377 1.394.786 3.947 1.2 4.266-4.125 1.33-4.997-.37-.098-1.066-.137-1.066-.137.987-4.095-5.349-5.525-5.469-.604 0 0-.753-.123-1.324-.018-3.36.612-2.59 5.564.843 5.327.474-.033.896.052.896.052-.056.793-4.21 2.309-7.204-.42-1.42 1.081-3.666 2.436-6.595-.259 1.926-.078 3.774-.627 3.752-2.81-.013-1.421-1.292-2.69-3.135-2.758-.104-1.588-1.287-3.104-2.824-3.22-1.875.11-2.834 1.622-2.847 3.22-1.595.165-3.087 1.57-2.744 3.182.467 2.2 2.162 2.47 4.097 2.051-2.353 3.782-6.184 1.81-7.365.604-1.406 1.312-3.858 3.088-6.878.66 1.61-.276 3.4-1.22 3.097-3.465-.238-1.77-2.224-2.296-3.088-2.202-.002-1.17-.885-3.099-2.97-2.9-2.275.218-2.139 3.094-2.112 3.117-1.879-.155-3.242 2.054-2.706 3.465.652 1.716 2.017 2.25 4.526 1.787-2.927 2.746-4.786 1.68-6.384 1.103-1.414 1.482-3.302 1.96-5.238.646 4.33.206 3.641-7.448-1.494-4.672-.444-1.436-1.106-3.204-3.795-2.791l-3.065-5.917zM61.39 35.654a12.98 12.98 0 0 0-.674.028c-8.294.53-11.357 6.295-10.966 11.4.263 3.445 2.143 6.386 4.875 7.982 1.171.892 1.417 1.227 1.211 1.645-.243.493-.571.446-1.235-.165-9.489-9.077-22.85 1.586-16.94 13.357 4.7 9.36 17.889 7.193 20.716-3.338.225-.838.587-1.201.976-.972.277.163.058 1.249-.165 2.9.016 5.962-6.189 15.345-6.539 15.662l16.27-.014c-3.732-5.096-5.921-10.095-6.374-17.369-.045-2.201.779-1.732 1.476.764 3.18 11.388 17.662 11.281 20.947.188 3.064-10.35-8.46-18.999-16.1-12.031-1.1 1.002-1.843 1.188-1.858.457-.007-.31 1.02-1.463 1.961-2.197 1.906-1.486 3.496-4.268 3.512-7.086.035-5.695-4.201-11.29-11.093-11.211zm-8.74 48.499h-.02c-.003.012.007.01.02 0zm67.536-45.85c.21-.008.432.035.65.146.678.345.804.946.392 1.834-.145.312-.355.67-.32 1 4.767 8.792 15.28 4.863 16.27.778.062-.26-.058-.543-.194-.82-.404-.673-.35-1.223.174-1.684 1.119-.98 2.724.177 2.075 1.5-.172.349-.352.73-.222 1.197 2.7 6.128 8.073 6.588 12.583 4.163-2.077 3.72-10.13 6-13.512-2.956-5.397 7.296-13.962 7.158-17.85-1.08-3.495 8.427-14.043 8.626-17.882 1.627-3.494 8.007-11.598 6.19-13.893 1.179 7.528 5.447 12.488-.24 13.38-2.664 0 0-.175-.283-.415-.519-.964-.945-.937-2.057.06-2.498 1.28-.566 2.477.662 1.82 1.867-.183.337-.346.411-.226.702 2.343 5.46 13.881 7.046 16.219-.613.079-.438.034-.842-.165-1.174-.549-.915.148-1.947 1.056-1.985zm-33.681 3.093c1.82.103 1.312 1.668.947 1.787zm67.579.976c.012.03-1.122 2.027-1.122 2.027-.601-.959-.445-2.153 1.122-2.027zm-6.153 10.094s-1.162 2.57-1.546 2.786c-21.557-5.521-51.635-.72-52.375-.188l-1.324-2.494c18.9-3.776 37.746-2.97 55.245-.104zm-130.434-.872a5.208 5.208 0 0 0-2.098.49c-3.748 1.701-4.07 6-.702 9.396.536.541.979 1.055.98 1.141.008.383-.373.314-1.291-.24-5.152-3.106-10.18.621-8.086 5.997 1.69 4.341 8.37 3.683 9.406-.93.137-.614.582-.992.778-.66.166.285-.324 2.633-.82 3.938-.653 1.713-1.04 2.61-1.434 3.31-.48.852-.512 1.132-.141 1.22.533.128 6.372-.032 6.369-.174-.002-.079-.247-.649-.547-1.273-1.173-2.44-2.068-6.663-1.513-7.143.312-.27.416-.132.839 1.118 2.09 6.178 9.856 4.688 9.707-1.863-.1-4.456-4.178-6.413-7.854-3.771-.836.6-1.084.634-1.16.17-.03-.186.115-.4.41-.6 4.655-3.146 1.83-10.183-2.843-10.126zm94.019 39.07c-2.082 8.027-7.12 8.844-13.206 9.82-7.538 1.21-12.45-1.537-14.747-5.733 0 0-10.78 4.073-14.714 6.44 8.179 3.747 18.985 12.045 25.128 21.466 2.189 2.872 2.078 2.223 2.075 8.524-.009 13.665.023 18.745.023 18.745 3.375.506 3.56 2.826 3.376 5.433 2.709-1.196 5.315.267 5.303 2.823-.02 4.698-4.637 3.422-5.596 2.904 1.502 4.141-.26 5.856-2.06 6.059-2.217.25-4.761-.816-4.02-5.555-2.418.94-5.48-.767-5.904-3.62l-.118-4.833c5.98-11.252-1.527-20.4-8.576-23.408 0 0 1.995-4.123 4.574-5.28.262-.08-1.564-2.758-4.635-2.174-1.413.03-1.084.02-2.414-1.707-2.628-3.412-3.865-3.646-6.426.005-1.127 1.607-1.396 1.65-2.73 1.678-1.468.03-3.722 1.085-4.205 2.028-.11.215.466.435 1.23 1.33 1.102 1.285 2.8 3.052 2.532 4.85-5.804 2.362-15.433 12.724-5.308 25.992l-7.322.094-.349-47.23-5.092 2.833.227 36.995-1.452-.48c.111-11.801-.067-23.594-.439-35.388l-13.427 9.783.599 55.471 1.428.302c1.06 7.558 16.033 2.272 16.907 2.928l.179 30.824-.655 1.527 11.913 6.511 10.929-5.667s1.475-.265 2.027-.556c4.532-2.388 7.909-1.852 10.372 1.65 1.52 2.16 1.778 2.48 1.778 2.48.92-6.234 6.448-8.53 11.81-6.902 3.943 1.198 9.331 5.127 10.98 9.924 0 0 .296.722.59 1.047l.226.099c-.015-.125-.26-.723-.354-1.014-5.53-12.699-21.113-14.647-23.516-4.271l-2.207-3.093 11.603-7.114 15.855 10.433s-.745 3.668-.83 5.252l.274.127c.077-.2.19-.96.259-1.438.252-1.732.711-3.187 1.334-4.3.375-.67.81-1.215 1.297-1.621.947-.55 1.825-.494 2.786-1.396l-2.315-1.73-.052-5.554 4.654 6.516c1.463-.339 7.161-2.039 10.541-.156.382.118 5.34-1.295 8.425 5.62l14.86-6.171s.948-.534.958-.675c-14.818-5.467-29.78-24.826-28.34-25.138 0 0-.043-1.986.071-6.86.12-5.432.055-10.977.146-16.427-5.043-1.61-3.789-5.674-3.789-5.674-3.031.664-3.515.076-4.282-.458l-.523-5.143c1.817-1.547 2.908-1.691 5.157-1.198 0 0-1.09-2.235-.099-4.073.835-1.455 3.058-2.373 4.833-1.349 2.294 1.563 1.562 4.837 1.235 5.295 2.384-1.068 5.3.122 6.016 2.48.357-6.972.963-14.777 2.362-20.858 2.58-10.975 6.803-22.469 12.093-31.507.865-1.51 1.97-3.023 2.861-4.437.828-1.259 1.222-2.074 1.222-2.074s-1.132.623-2.33.957c-1.722.467-3.018.911-3.215 1.108-1.26 1.06-2.912 1.846-4.262 2.433-4.76 1.852-7.959-.91-9.935-5.129-1.1 5.358-6.01 9.89-13.25 7.074-4.092-2.171-5.378-3.56-9.204-9.225-.321-.579-1.15-1.244-1.15-1.244zm.157.875c2.708 5.353 6.76 9.145 10.7 10.661 7.035 2.306 11.675-2.197 12.984-6.335l1.357 2.299-10.65 7.561-16.072-10.216c.269-.247 1.706-3.846 1.681-3.97zm48.365.37l-4.771 2.81s-3.17 5.113-4.234 7.038c-5.566 9.83-9.744 20.525-11.923 31.135-.88 3.885-1.815 10.982-2.126 14.394-.497 5.442-.473 7.677-.33 12.668l.372.405s-.585 1.026-1.004 1.891c-1.14 2.35-1.418 3.678-1.348 6.402.159 6.269 3.97 12.27 9.353 14.715.304.137.708.316.708.316s-.923 2.495-2.598 4.252c-1.117 1.172-1.357 1.23-.962 1.806.55.802 2.323 1.498 4.526 1.466.78-.011.775-.013 2.216 1.556 2.813 3.063 3.659 3 6.219-.472.76-1.032 1.193-1.279 2.305-1.306 1.635-.039 4.62-1.358 4.606-1.975-2.013-.891-4.345-5.486-3.974-5.535 11.008-5.824 13.34-17.897 5.3-26.774l7.679-.123.283 48.16c1.503-.998 4.903-3.145 4.903-3.145l-.112-37.476c.528.1 1.066.479 2.092.646l.302 35.435s.999-.405 1.867-.971c4.29-2.827 12.692-9.364 12.692-9.364l-.288-54.609h-1.122l.18 54.581-13.037 9.519-.085-33.922s1.03-.153 1.415-.207c3.815-.534 5.582-5.4 3.05-8.576-.899-1.128-.261-1.048 1.65-1.414 3.39-.3 5.267-2.86 4.281-4.687-.423-.783.128-.698.486-1.442.234-.586.19-1.311.09-1.886-.134-.755.176-1.089.367-1.57.3-.754.009-1.607-.49-2.315-.527-.748-.382-1.55-.387-2.046-.023-1.11-.424-1.268-1.598-2.339-.889-.81-.176-.987 1.131-1.66 2.056-1.057 2.198-4.802-.537-6.397-1.462-.852-4.122-.783-9.887.127-2.185.346-4.752.576-4.752.576s-.02-21.351-.17-32.357zm0 .754s11.705 6.847 11.612 7.038c-3.93 5.384-18.592 26.836-18.698 52.776-10.751-1.35-15.153 7.056-15.676 7.024-1.413-31.75 11.473-54.467 18.076-64.109zm-7.383 4.177l-.038.778-2.32 3.465-.06-3.465zm-3.583 1.207l.085 5.582-4.752 3.63-.279-5.823zm-44.048 1.277l2.442 1.688-.085 5.54-3.677-6.69zm66.853 1.867l.018 4.008c-9.37 13.216-14.286 28.311-15.789 47.428l-2.282-.075c.604-19.01 7.004-36.355 18.053-51.36zm-63.459.41l5.78 3.777-.25 6.317-5.247-3.366-.49-1.292zm34.992.27l-.024 5.874-4.464 3.314-.208-5.832zm-54.114 1.536c.662.008 1.191.49 1.315 1.405.49 3.904 3.461 2.777 4.168 3.95.267.401-.366.75-2.4.586-3.728-.28-6.446-3.295-4.54-5.28.49-.45 1.004-.666 1.457-.66zm25.765 2.518l4.936 3.144-.014 6.488-4.837-2.952zm22.522.019l.381 5.737-5.402 3.593-.194-5.7zm10.282.023l-3.102 6.605-18.1 13.022-15.02-9.726-2.786-6.374 17.524 11.433zm-48.81 2.621c4.81-.058 8.5 5.046 9.764 9.52.918 2.957 1.058 4.021 1.155 8.717.1 4.783.25 5.608 1.146 6.284.552.416.712.304.782-.542.156-1.88 2.403-.721 2.442 1.259.044 2.199-2.377 2.906-4.167 1.216-.954-.9-.966-.89-1.264.877-.198 1.184-1.578 8.598 1.947 10.443.664.063.823-.47.33-1.09-.99-1.242.987-2.676 2.598-1.885 1.947.956 1.75 4.094-.33 5.21-2.379 1.276-5.455-.175-6.893-3.249-1.054-2.257-1.05-5.385.02-10.033.492-2.141.709-3.505.82-5.148.036-.54.1-1.126.14-1.306.116-.5-.131-.524-.984-.094-2.328 1.173-4.867.34-5.493-1.806-.748-2.565 2.11-5.214 3.875-3.592.67.615.59 1.227-.212 1.622-1.387.683-.913 2.482.561 2.126 4.863-1.455.417-15.1-5.058-16.044-3.62-.625-6.463 3.5-3.843 5.705 1.027.864 2.068.4 1.844-.82-.313-1.703 1.95-1.52 2.786.226 1.361 2.84-2.153 5.15-5.436 3.578-5.891-3.498-1.864-11.066 3.47-11.174zm21.805 1.085l4.851 3.258.043 6.331-4.819-2.857zm10.688.547l.023 5.813-4.681 3.404v-6.186zm12.611 3.81l-2.395 6.67-15.11 10.335-12.465-7.817-2.145-6.172 14.686 9.514zm-98.068.485l-.004 33.77c-4.897.209-7.708 5.052-4.04 9.628l-1.387.188c-3.312.454-5.53 2.21-5.092 4.338.135.651-.001 1.31-.188 1.636-.295.874-.217 1.542.179 2.296.31.591.259.83.085 1.268-.376.943-.286 1.67.155 2.39.546.534.394.965.32 1.82-.087 1.208.13 1.694.892 2.164.981.606 1.347 1.6.23 1.518-.553-.04-2.503 1.839-2.503 1.839l-.183-54.195zm26.548 4.332c.876-.002 1.779 1.099 3.074 2.956.783 1.33.797 1.15 2.588 1.08 1.83.133 2.945.617 3.423 1.17.18.209-.3.263-1.457 1.437-1.2 1.218-1.366 1.702-2.164 3.065-.287.491-.913.537-1.207.09-.237-.363.37-1.543 1.509-2.933 1.606-1.55 1.269-1.707-1.065-1.462-1.64.173-1.815.09-2.438-.905-1.856-3.69-2.843-3.566-4.62.113-.485 1.03-.292.964-2.395.802-1.656-.128-2.066.29-1.132 1.16 1.46 1.197 2.028 4.022 1.947 3.988l-1.126.104s-.345-.636-.495-1.037c-.306-.812-1.127-2.032-2.018-2.994-1.263-1.364-.57-2.11 2.249-2.414 1.57-.17 1.606-.191 2.329-1.25 1.272-1.864 2.122-2.967 2.998-2.97zm68.54 3.362l-1.626 5.761-12.89 9.038-10.485-6.996-1.39-5.417 12.045 7.628zm-44.439 4.564s3.726 7.258 5.078 11.96c1.176 4.092 2.81 15.938 2.38 16.667-.915-1.257-3.942-.974-3.983-.962.256-1.388-.865-4.185-3.447-4.738zm42.408 2.654l-1.287 5.672-10.976 7.934-9.057-6.185-1.188-5.483 10.024 6.694zm-63.807.316l1.423.495.27 10.245 10.98 1.824.25 1.754-12.716-2.05c-.133-4.37-.207-12.268-.207-12.268zm-5.573.306l.306 11.914c-.118-.04-9.153 1.248-12.611 2.155l.203-1.632s6.28-1.365 10.829-1.89c0-3.332-.026-6.836-.033-10.23zm102.156 2.193s1.494.138 4.69-.425c8.242-1.442 10.474-.857 11.528 1.683 1.151 3.94-3.168 4.035-3.938 1.534-.49-1.62-2.26-1.265-8.17.135-5.053 1.198-8.256.24-8.194-2.624.063-2.944 3.417-3.204 4.084-.303zm-67.73-2.155a1.846 1.846 0 1 1 0 0zm-26.774.325l1.3.392s.193 7.771.232 7.783c2.8.618 8.68 1.721 8.68 1.721l.31 1.537c-2.46-.577-10.305-1.862-10.305-1.862-.245-3.37-.217-9.57-.217-9.57zm-9.5.146s.005 6.202-.1 9.533c.045-.029-6.657 1.067-10.06 1.773l.264-1.245c2.691-.607 5.62-1.217 8.585-1.838-.059-2.44-.056-7.789-.056-7.789zm4.785 1.335a1.492 1.492 0 0 1 1.509 1.466 1.484 1.484 0 1 1-1.509-1.466zm111.51 3.87c.911 1.351 1.676 1.31 2.574 1.179-.226.067-1.287.693-1.226.9.03.104-.447 1.812.278 1.882 2.735.264 1.351 3.104 1.679 3.54.739.843 1.28 1.377.773 2.428-.45.933-1.096.904-.594 1.702 1.09 1.638-.416 1.978-.283 3.093.091.673.328 1.593.08 2.117-.749 1.579-3.393 2.48-6.332 2.602-.418.02-.1-.665-.297-1.098-.726-.46-.329-1.233-.085-1.74.241-.672.244-.673-.207-1.013-1.254-.78-1.19-1.14-1.09-1.702.276-1.665.017-1.828-.485-2.075-.643-.316-.555-1.018-.268-1.919.197-.622.057-.778-.246-1.343-.178-.333-.23-.513-.235-.726.09-.86-.68-.857-1.759-.015-.914 1.576-1.228 3.644-1.8 4.95-.444 1.004-.514 2.053.013 4.367 1.013 3.536.26 4.126-3.72 3.37-2.993-.736-3.877-3.93-3.045-7.84.134-.632.098-1.244.038-1.74-.326-2.691.37-5.277 2.248-7.043 3.136-2.949 4.687-3.398 11.17-2.985 2.536.18 2.73.34 2.73.34s.01-1.22.089-1.23zm-46.689.811l-.754 5.483-6.087 4.295c-2.866-2.262-5.079-1.509-7.095.915-1.598-.81-4.79-3.017-4.79-3.017l-.816-6.219 8.85 6.138zm-64.689 1.302a1.48 1.48 0 0 1 1.5 1.461 1.484 1.484 0 0 1-2.965.047 1.492 1.492 0 0 1 1.465-1.508zm63.67 5.615l-.334 5.28-2.164 1.626-2.178-.221-.514-3.272zm-63.708.042a1.492 1.492 0 0 1 1.509 1.466 1.484 1.484 0 1 1-1.509-1.466zm5.969.165a1.476 1.476 0 0 1 1.5 1.457 1.48 1.48 0 1 1-2.961.042 1.48 1.48 0 0 1 1.461-1.499zm-11.867.283a1.484 1.484 0 0 1 .048 2.965 1.488 1.488 0 0 1-1.51-1.461 1.484 1.484 0 0 1 1.462-1.504zm110.223.24c.417-.033 1.036.586.735 1.514-.402 1.059-.12 1.419.552 2.277.568.726.468.827.382 1.292-.13 3.048 1.833 1.73.98 3.946-.185.482.06 1.17.147 1.74-.192-.522-3.805-.474-4.111.056-.515-.077-1.166-3.47-.646-3.918.066-.001.443.582.636.91.485.823.59.793.439-.16-.6-3.783-.241-7.633.886-7.657zm-92.373.264a1.48 1.48 0 1 1 .042 2.96 1.476 1.476 0 0 1-1.499-1.456 1.48 1.48 0 0 1 1.457-1.504zm-24.007.274a1.48 1.48 0 0 1 1.5 1.461 1.484 1.484 0 0 1-2.965.042 1.488 1.488 0 0 1 1.465-1.503zm58.122.429l4.44 2.88c.074.909-.043 2.209.255 2.65-2.898-.27-4.365 1.381-4.365 1.381zm-45.581 2.38c4.862.036 9.571.811 13.946 2.226l-.344 1.565c-8.751-2.252-18.532-2.37-27.878.104l-.726-1.645a49.337 49.337 0 0 1 15.002-2.25zm-27.486 2.127c1.274-.022 2.576.453 3.493 1.48 1.723 1.93.894 5.51-1.541 6.648-3.645 1.703-7.441-1.938-5.894-5.69.643-1.559 2.304-2.41 3.942-2.438zm90.195.457l-.057 1.57-1.108-.924zm-23.191.071a2.913 2.913 0 0 1 2.951 2.871 2.909 2.909 0 1 1-5.818.085 2.913 2.913 0 0 1 2.867-2.956zm-66.924.094c-.391.006-1.043.166-1.339.439-.775.715.004.736 1.028.924 1.819.334 2.32 1.9 2.154 3.592-.15 1.538.367 1.514.783.943 1.695-2.323.248-5.71-2.626-5.898zm84.424.774c-.037.019-.08.047-.08.047.02.017.048-.005.08-.047zm-57.49.914c2.177-.045 2.406 3.535.481 7.534-.578 1.202-.873 1.053-1.508-.764-1.565-4.477-1.225-6.723 1.028-6.77zm5.036.104c.42-.021.826.139 1.16.518 1.17 1.335.27 3.494-2.848 6.818-.758.808-1.15 1.116-1.429 1.122-.78.016-.777-.114.109-2.999.39-1.272.776-2.669.858-3.102.26-1.386 1.226-2.31 2.15-2.357zm-7.878 3.201c.212.992.585 2.37.825 3.065.239.695.397 1.356.358 1.466-.192.533-1.582-.192-2.574-1.344-1.998-2.32-2.795-4.337-2.382-5.42.606-.868 2.156-1.253 2.87-.495.738.783.847 2.462.903 2.728zM83.74 153c2.107 1.242-.32 4.078-5.039 6.43-2.02 1.007-1.875.554-.344-1.433.586-.76 1.37-1.997 1.754-2.753.847-1.67 1.695-3.342 3.63-2.244zm-21.026.01c.669-.006 1.353.71 2.621 2.545.565.819 1.483 1.982 2.042 2.589.558.606.997 1.209.975 1.338-.217 1.288-6.787-2.79-7.26-4.507-.162-1.046.661-1.982 1.622-1.966zm94.037 3.733c1.185 2.437 1.287 3.952.307 4.503-1.393.783-3.184-.411-3.22-2.145-.013-.583-.612-2.616-1.16-3.937-.452-1.087-.514-1.758-.142-1.812 1.452.233 3.602 2.247 4.215 3.391zm-7.864-1.848c-.458 1.393-.944 3.568-.938 4.2.002.25-.15.76-.33 1.132-1.203 2.477-4.05.457-3.003-2.13.944-2.334 3.347-4.763 4.294-4.843.647-.055.042 1.437-.023 1.641zm1.918-1.337c.475-.047.873.99 1.486 2.737.829 2.36.794 4.2-.099 4.984-1.914 1.679-3.923-.76-3.15-3.824.62-2.45 1.225-3.844 1.763-3.897zm-64.226.432c2.383 35.07-15.595 62.052-16.876 62.788l-6.117 3.345-10.731-5.846c11.12-15.247 17.766-32.723 18.27-53.017 10.287.999 15.579-7.233 15.454-7.27zm58.952.111c.75-.205.227.45-.517 1.523-.795 1.146-1.826 4.26-2.643 4.758-1.835.882-3.91-.798-2.798-2.259 1.025-1.344 4.036-3.495 5.958-4.022zm10.914.238c.288-.001.826.189 1.607.57 3.82 1.866 5.704 4.326 4.07 5.503-1.148.826-2.376.185-3.523-1.99-.39-.74-1.1-1.836-1.574-2.442-.86-1.1-1.06-1.64-.58-1.641zm21.475 1.25a4.44 4.44 0 0 1 4.507 4.374 4.447 4.447 0 0 1-4.38 4.512 4.447 4.447 0 0 1-4.507-4.384 4.439 4.439 0 0 1 4.38-4.503zm-1.353 1.153c-2.888 1.28-2.018 5.815.471 6.47 1.051.294 2.33-.144 1.803-.65-3.288-1.031-3.31-3.455-1.985-5.23.213-.285-.072-.686-.289-.59zM56.25 162.98c-.112 2.563.443 5.535-.781 8.317-1.856 4.276-7.816 6.23-11 5.851-.663-.272-1.435-.53-2.09-.253-.395.168-.883.146-1.305-.05-.407-.19-.797.059-1.192-.084-.461-.311-1.215-1.02-1.127-1.546.144-.743.087-1.293-.782-1.537-1.205-.338-1.449-.988-1.094-2.895.076-.412.169-.598-.1-.778-.886-.594-1.223-1.694-.64-2.852.38-.667.673-1.138-.01-1.669-.27-.61-.222-.842.359-1.622.619-.74.727-.824.33-1.456-.892-1.422.118-2.47 1.32-3.056 1.61-.66 3.016-1 4.714-1.197.632.036.605.591.986 1.127.559.87-.23 2.128.226 2.574.658.304.957.91.905 1.428-.023 1.208.05 1.621.377 2.127.363.56.499 1.588.16 2.287-.3.622-.268.58.128.947.392.363.584 2.184.445 2.149l1.652-.151c-.172.183.622-3.405 2.504-6.179-.103-2.173-.931-4.171-.858-7.041 4.081-1.461 7.029 2.008 6.873 5.559zm63.389-4.884c.59.463 3.514 1.277 3.62 1.184-.091 1.4.762 4.121 3.81 5.03.037 3.904.005 21.928.005 21.928-4.247-7.115-6.878-16.3-7.435-28.142zm-71.03.637s.162.52.31 1.523c.262 2.05-.02 2.33-.565.928-.638-1.64-.671-.362.047 3.395.174.91.168 1.121-.056 1.735-.14.385-.39 1.279-.585 1.98-.574 2.063-.91 2.655-1.5 1.014-.3-.837-.551-.968-.337-1.623.269-.82.204-1.435-.336-2.234-.089-.13-.283-.43-.316-1.277.166-1.905-.682-1.923-.849-2.415.029-.745-.32-2.551.194-2.503.422.04 1.95.082 2.673-.184.32-.118 1.32-.34 1.32-.34zm63.298.236a2.854 2.854 0 1 1 .08 5.709 2.855 2.855 0 0 1-2.9-2.81 2.863 2.863 0 0 1 2.82-2.9zm-44.091 1.74l2.164.41c.482.16.13 29.996-17.19 51.53l-.15-4.988c8.241-11.928 14.176-26.556 15.176-46.953zm36.694.626l.396 7.129c-1.219-1.036-4.313-2.976-4.29-3.018l.014-2.635c.002.005 2.66.204 3.88-1.476zm-16.68.1c.521.219.976.724 1.423 1.088l-1.414.953zm49.578.358c9.344 2.77 18.544 2.69 27.642.664l.622 1.745c-9.87 2.676-19.68 2.521-29.428-.59zm-45.25 1.334l.5 3.074-5.273 3.413.256-4.667 2.749-1.782zm46.679 2.56a1.545 1.545 0 0 1 .042 3.088 1.54 1.54 0 0 1-1.56-1.523 1.541 1.541 0 0 1 1.518-1.565zm24.006.127a1.545 1.545 0 0 1 .043 3.088 1.54 1.54 0 0 1-1.56-1.523 1.54 1.54 0 0 1 1.517-1.565zm-44.963 4.796c.691 2.436.54 7.94-.349 11.672-.267 1.121-.429 5.1-.429 5.1-.165.209 5.293-4.516 7.047 1.68.604 2.13-1.848 4.15-3.49 3.558-.319-.115-.223-1.17.083-1.79.91-1.853-1.685-2.816-3.163-1.174-3.417 3.794.098 13.4 5.454 14.332 4.447.775 8.012-3.651 5.045-6.289-1.298-1.153-3.373.436-2.423 1.905 1.015 1.568-.854 2.194-2.268.74-2.465-2.536.303-6.352 4.026-5.47 5.953 1.354 4.728 10.66-1.513 11.184-4.773.4-7.986-1.678-10.005-5.365-1.895-3.543-2.036-6.366-1.169-12.579.516-3.688.092-6.796-.933-6.775-.562.012-1 .283-1.09.943-.181 1.351-.336 1.604-1.183 1.113-1.075-.623-1.672-2.63.085-3.989 1.802-1.392 4.136.78 4.04 1.155.044-.068.225-.422.467-2.003.787-5.146-.96-10.583-3.12-9.712-.475.19-.418.405.202.754 1.439.81.17 2.883-1.636 2.673-2.559-.297-3.14-3.866-.886-5.445 3.55-1.914 6.442 1.083 7.208 3.782zm-17.467-4.287s4.539 2.769 4.78 3.48c.155.456.34 4.427.34 4.427l-7.878-4.932-11.295 6.983c.185-1.533.998-5.479.998-5.479l6.006-3.8c.03.23 4.155 2.952 7.049-.679zm56.4.264a1.545 1.545 0 0 1 .048 3.088 1.545 1.545 0 0 1-.047-3.088zm-12.022.024a1.546 1.546 0 0 1 1.57 1.518 1.553 1.553 0 0 1-1.527 1.57 1.54 1.54 0 0 1-1.56-1.523 1.541 1.541 0 0 1 1.517-1.565zm6.044.349a1.55 1.55 0 0 1 1.57 1.523 1.545 1.545 0 1 1-1.57-1.523zm-15.134 2.187c4.09.852 8.191 1.726 12.112 2.155l.16 12.036-1.145-.066-.165-10.754c-3.788-.27-7.361-1.084-10.716-1.951zm30.414.392l-.212 1.414s-7.077 1.225-10.773 1.702c-.059 2.423-.052 10.518-.052 10.518l-1.414.26-.005-12.254c4.197-.456 8.388-.928 12.456-1.64zm-68.474.679l8.33 5.506.98 5.837-9.711-6.454s-8.804 5.926-12.098 8.123l1.004-5.502zm38.456 1.089c3.354.71 6.708 1.447 10.061 1.735l.142 9.683-1.542-.41-.122-7.859c-2.62-.227-5.31-.734-8.015-1.306zm29.67.287l-.283 1.316s-5.368.809-8.138 1.306c-.245.056-.155 8.524-.155 8.524l-1.325.202-.156-9.886zm-15.035 1.085a1.541 1.541 0 0 1 1.56 1.522 1.541 1.541 0 1 1-3.083.048 1.55 1.55 0 0 1 1.523-1.57zm-53.219 3.493l9.849 6.648s1.142 3.462 1.386 5.38l-11.334-7.318-14.181 9.4 1.64-5.807zm-59.696.203c.584.008 1.167.399 1.471 1.296.428 1.264 1.225 1.637 3.324 1.599 4.12-.22 8.44-2.156 12.328-.703 1.89.696 2.564 3.484.981 4.21-1.718.788-2.45.293-3.046-1.056-.55-.573-1.234-.483-4.926.151a68.751 68.751 0 0 1-5.153.632c-4.117.333-6.39-.964-6.902-3.414-.328-1.565.95-2.728 1.923-2.715zm112.83 2.249a1.541 1.541 0 0 1 1.565 1.518 1.55 1.55 0 0 1-1.523 1.57 1.545 1.545 0 0 1-.042-3.088zm-30.174 1.88a2.01 2.01 0 0 1 .057 4.018 2.006 2.006 0 0 1-2.032-1.98 2.006 2.006 0 0 1 1.975-2.037zm-22.946 1.406s8.105 5.415 11.858 7.916l2.074 5.959-13.804-8.977-16.892 10.99 2.027-6.129zm58.518 1.862c.735 1.98 2.069 3.489 3.48 5.021 0 0-.786 1.488-3.588 1.4-1.531-.048-1.613.193-2.136 1.23-.859 1.316-1.557 2.176-2.112 2.603-.982.756-2.821-.373-4.338-2.668-.552-.836-.781-1.034-2.447-1-2.557.053-3.483-.656-2.154-1.805 1.158-1.411 1.99-2.963 3.027-4.446l1.15.132c.049.17-.894 3.02-2.22 4.177-.674.76.269 1.035 1.913.688 1.044-.314 1.311-.19 2.084 1.405 1.61 3.044 2.447 2.897 4.357-.188.666-1.378.641-1.515 2.475-1.118 1.968.198 2.562-.049 1.754-.735-1.635-1.387-2.537-4.658-2.537-4.658zm-58.447 4.078s14.658 9.6 14.62 9.392l2.937 6.92-17.203-11.442-21.018 13.668 3.145-6.85zm.566 6.304l5.11 3.361-.014 6.049-5.219-3.508zm-1.31.174l.094 5.969-4.583 2.73-.255-5.601zm-5.814 3.847l-.042.231.108.057.038.004.165 5.38-5.271 3.654.019-6.077zm13.498.066l4.804 3.206.198 6.403-5.214-3.414zm5.931 3.909l4.818 3.347.17 6.393-4.922-3.314zm-25.501.023l-.024 5.908-4.795 3.347-.226-6.035zm50.71 7.624c-.952.991-1.303.868-2.117-.769-.845-1.699-2.113-2.493-3.95-2.46-2.319.04-.803-1.48 1.654-1.66 4.249-.188 6.405 2.663 4.413 4.889zm-56.835-3.466l.128 5.927-4.771 2.48-.147-2.81 2.457-4.295zm-6.152 7.92l.165 1.08-.882.34zm82.27 14.842c-.013-.001-.018.004-.02.02h.057a.112.112 0 0 0-.037-.02zm.037.02c.616.405 6.105 8.363 6.488 16.962.212 2.278-.773 2.713-1.264.547-.8-3.524-3.013-6.606-5.888-8.208-14.527-5.382-20.73 12.847-11.155 20.216 3.408 2.467 9.98 2.187 12.29-1.22.719-1.06 1.446-.958 1.538-.288.045.333-.122.562-1.01 1.358-3.59 3.221-5.736 7.78-4.596 11.117 1.513 4.428 5.647 7.493 10.415 8.193 5.116.752 10.436-2.85 12.003-7.529 1.437-4.29.173-7.91-3.81-11.522-1.872-1.699-1.966-1.835-1.579-2.24.377-.393.624-.296 1.551.6 2.862 2.763 8.197 4.25 11.711 2.625 5.627-2.6 8.048-11.364 4.196-17.1-2.329-4.664-8.68-6.401-13.988-3.823-2.827 1.373-5.317 4.581-6.058 7.798-.333 1.446-1.164 1.707-1.287.405.39-5.233 1.126-8.659 6.869-17.878zm48.344 8.98s2.092 4.321 2.404 6.596c.23 1.674.264 2.353-.193 2.362-.146.004-.507-.805-.646-1.438-1.123-5.182-8.649-5.1-9.74.08-1.11 5.266 3.654 8.996 7.812 5.72 1.71-1.176 1.792-.636.099 1.079-3.26 3.262-1.824 7.826 2.277 9.043 5.575 1.653 9.007-5.143 4.276-9.463-.604-.622-1.152-1.24-1.155-1.372-.007-.331.405-.359.73-.014 2.714 2.848 8.181 1.969 9.02-1.683 1.572-6.847-7.269-9.772-9.703-3.654-.595 1.526-.504 1.737-.81 1.443-.172-.165-.124-.797.065-1.655.383-1.734 2.857-6.992 2.857-6.992zm-73.232 18.873c-20.079 4.296-39.329 2.778-53.143.222l-6.313 10.787-.434-.02-1.626 2.792.174.32s-5.245 10.065-7.453 13.24c25.804-.25 82.444-.373 82.444-.373l-3.451-6.94.188-.189-3.408-7.246-1.108-1.254s-.677-1.31-1.184-2.716c-.466-1.294-2.465-4.837-2.465-4.837l-.283.024zm-52.417 1.518c.266.211 25.719 5.008 52.101.08l1.443 2.414c-23.09 5.314-56.498.238-55.18-.254zm.439 4.748c2.327-.083 4.685 1.167 6.275 3.253.506.664 1.334 2.621 1.334 2.621s1.114-1.844 2.206-2.767c1.653-1.396 3.796-2.562 6.898-2.452 2.855.102 5.999 1.648 8.835 6.115.716-2.578 10.098-11.336 17.826-.415.884-2.902 5.02-8.699 11.716-4.648.457.978.928 2.055.928 2.055-3.952-2.768-10.467-.911-12.008 3.409-.138.526.037.8.24 1.31 2.037 2.911-3.262 2.841-1.692.486.294-.535.318-.976-.15-1.678-1.243-1.863-4.983-4.18-7.728-4.121-3.17.069-6.681 2.172-7.854 4.083-.433.705-.532 1.41-.151 2.027.276.622.181 1.142-.283 1.523-1.092.896-2.463-.137-1.938-1.462.346-.583.292-1.298-.415-2.29-1.42-1.995-4.734-4.096-7.618-4.037-4.128.096-8.298 3.069-8.034 5.517.116 1.075-.178 1.477-1.056 1.353-1.068-.151-1.19-1.16-.434-1.98.112-.264.293-.902-.052-1.368-4.359-5.895-10.885-4.176-12.38-2.857 1.452-2.49 3.48-3.604 5.535-3.677zm-3.88 4.092c1.635.014 3.397 1.25 3.955 2.216.404-.419 4.104-2.183 5.903.34-4.71-.355-4.768 4.643-1.287 5.124-1.588 4.822 5.528 5.114 5.077.585 5.317.786 4.66-5.954-.344-5.243 2.622-1.91 4.406-1.293 7.558.896 1.059-1.38 5.379-2.668 6.44-.26-4.952-.305-4.108 5.43-.41 5.479a2.727 2.727 0 0 0 5.054-.5c4.617.324 3.948-5.914-.477-5.398.328-1.135 4.82-1.626 6.804.542 1.823-1.664 3.836-2.804 7.472-.424-4.958-.826-5.02 5.61-.415 5.224-.43 4.262 6.08 4.334 4.993-.59 4.956-1.337 2.231-6.642-1.41-5.181 1.621-1.926 4.373-1.018 5.465-.627 3.373-3.861 6.312-.632 6.312-.632-5.87-.613-4.594 7.755 1.127 4.72-.006 1.721.734 3.212 3.07 3.455l2.776 5.747-78.69.519 4.342-7.636c.439.138 2.948.366 3.488-2.576 5.171 1.64 5.518-4.38 1.655-5.332.468-.323.996-.452 1.541-.448zm121.83.712v2.918h2.305l6.567 14.738-6.29 10.292h-2.422v2.612h9.174v-2.612h-3.055l8.41-12.135v12.135h-2.526v2.612h8.378v-2.546h-2.754v-25.096h2.754v-2.918h-8.378v2.918h2.527v7.412l-3.574 4.601-5.356-12.013h3.574v-2.918zm-124.9 1.466c.514.826.084 1.364-.801 1.386 0 0 .575-.836.801-1.386zm64.736 1.066l.51 1.07c-.551-.223-.62-.46-.51-1.07z"/></svg>