<svg xmlns="http://www.w3.org/2000/svg" width="224.225" height="312.808"><title>Vectorized Playing Cards 1.0</title><rect y="-2435" x="7374.071" height="311.811" width="223.228" rx="10.63" ry="10.63" fill="#fff" stroke="#000" stroke-width=".997" transform="translate(-7373.572 2435.498)"/><path d="M29.6 25.335c.085 79.126.927 176.366.985 262.545l163.716-.038-1.091-262.126zm48.394 1.68c28.245.766 56.666-.063 85.12.159 0 0-10.338 18.008-13.471 23.676-.686 1.246-.756 2.128-.386 2.645.572.8.525 2.152-.116 2.934-.274.336-.4.553-.42.753-.02.2.159.42.304.782.506 1.727-.8 2.922-2.167 3.476-.917.371-2.958.617-4.465.545-9.443-.448-27.962-8.428-35.593-9.05-5.295-1.479-12.137-.962-17.777-.642-1.065.064-.879-2.418-.879-2.418-.888-8.199-6.695-15.336-10.15-22.86zm86.656.748l26.692.029.12 4.31-11.231 11.512c-1.058 1.077-1.893 1.97-1.893 1.97l-.067 10.387c-7.657-4.114-9.182-9.03-10.58-14.437-12.8 9.442-13.398 30.106.574 40.743.114-4.62 3.635-13.7 9.876-14.374l.086 35.993-7.674-7.496-16.687.218c2.751-4.464 2.813-8.009 1.033-12.193-3-6.836-7.629-22.44-7.274-22.387 0 0 .133-.335.512-.42 1.383-.308 2.263-1.643 1.868-3.248-.075-.517-.072-.396.28-1.067 1.358-2.317-.26-4.832-.26-4.832zm-88.53.217l10.016 18.106s-.13.83-.077 1.317c.079.701.313 1.326.715 1.98.265.432.46 1.022.52 1.568.1.899.1.9 1.415 2.085.276.25.33.403.227.661-.435 1.1-.18 3.349.68 6.034 1.088 3.391 1.369 3.347-.656 7.882-.422.947-.933 2.212-1.482 3.374-2.5 5.134-2.885 6.526 1.405 9.263 1.208.77 1.561 1.438 1.26 2.973-.238 1.207-.286 1.979.294 2.66.376.441.717.514.623.854-.064.232-.345 1.236-.251 2.08.252 2.276-2.376 5.627-4.774 6.801-.48.34-.617-.075-.888-.55-2.484-4.35-8.669-2.588-9.08 2.602-.108 1.372-.065 1.967-.42 2.259a5.28 5.28 0 0 1-.482.304s-9.255 6.019-15.142 9.113c-.383.202-.728.534-.999.589-.313.063-.545.006-.738-.189-2.173-4.132-.969-9.014-.782-10.744-.047-.613-.571-.724-1.361-.734-1.339-.015-3.265 1.342-3.683 2.607-.356 1.075-.585 1.771-.908 1.766-.324-.004-.482-.438-1.288-1.988-1.678-3.226-1.937-3.634-3.505-5.508-1.25-1.494-2.317-1.692-3.543-.579-.852.774-.824.101-1.549-.29-1.252-.852-3.134-.089-3.18 1.11-.04 1.007-.048 1.764-1.068 1.83-1.135.074-1.627 1.54-1.308 3.63.169 1.1.202 1.277-.135 1.68-1.098 1.315-1.241 2.223-.637 4.059 1.722 5.233 4.216 8.756 6.56 13.515 0 0-5.955 3.38-9.49 5.343l-.092-97.371zm115.724 5.174l.14 84.586-12.782-12.565s-.249-16.208-.236-22.835c.013-6.627.109-13.253.082-14.486-.027-1.232.066-6.476.106-11.859.084-11.278-.948-9.884 1.149-12.048zm-24.979 10.142l.705 2.041c-5.356 3.07-11.91 20.171.12 32.726l-.24 2.587c-12.61-11.436-10.276-27.838-.585-37.354zm.917 2.413c1.838 3.794 3.93 7.153 6.782 9.21-1.536 3.665-2.196 7.709.405 13.162-1.824 1.002-4.36 3.66-6.984 9.104-9.493-9.59-7.38-23.493-.203-31.476zm-70.621 7.168c5.265.009 10.756.867 15.789 2.384 3.174 16.049 8.75 26.838 8.726 33.122 0 0-.44-.074-1.375-.748-2.293-1.656-5.305-.732-6.917 1.375-1.529 1.998.01 4.777-.772 5.942-1.483 2.173-5.298 6.19-5.937 6.058-.465-.097-.39-.3 1.245-2.81 1.703-2.613 3.01-4.981 2.447-5.56-.238-.245-.365.274-1.636 2.481-2.984 5.182-5.608 8.386-6.647 7.97-.486-.196-.235-.625 1.974-3.544 2.495-3.296 3.188-5.357 2.94-6.27-.19-.7-.576.432-1.612 2.457-1.104 2.143-3.098 4.532-4.711 6.825-.511.83-1.168 1.311-2.008 1.69-.623.27-1.616.71-2.191.637-.296-.038-.092-.212.313-.608 3.183-3.278 5.92-6.933 7.472-10.44.24-.46-.104-1.116-.497-.633-2.381 4.19-5.697 9.418-9.296 11.724-.773.495-1.935.914-2.983.826-1.772-.051-1.146-.445.468-1.482 3.454-2.22 8.301-8.599 9.084-10.856.185-.533-.021-.838-.362-.8-2.842 4.546-6.597 9.548-10.962 11.641-2.352 1.129-5.318 1.35-6.777.638-1.069-.523-.8-.703 1.096-.826 4.564-.45 9.911-4.734 12.56-9.267 1.55-2.51.462-1.934-1.309.487-3.022 4.133-9.022 8.094-12.742 7.781-3.763-.223-5.929-3.139-5.445-5.638.292-1.512 1.366-3.053 3.47-3.494 3.604-.757 5.963 4.952 2.665 6.028-1.124.367-1.55.089-1.144-.362 2.446-1.07 1.359-4.01-.705-4.31-1.298-.189-2.804.685-2.867 2.698.038 1.5 1.273 2.967 3.75 3.002 2.938.042 7.445-2.072 10.18-5.965 1.941-2.976.154-1.971-1.293.014-1.277 1.752-5.401 4.202-5.715 4.112l.14-2.017c.062.348 6.348-3.955 5.98-7.158-.236-2.325.104-3.036 2.524-3.007 1.81.021 4.11.656 4.779 1.486.69.821 1.462 1.08 1.12-.304-.555-2.247.11-2.618-1.192-2.191-.899.294-1.696-.427-2.597-1.067-.991-.704-2.245-1.005-3.741-.95-1.118.04-1.622-.028-1.443-1.082.126-.744.268-1.42.053-1.907-.35-.792-1.75-1.61-3.33-2.775-1.867-1.375-1.522-1.456 2.456-10.624 1.67-3.85 1.677-4.64.676-7.482-1.583-4.49-1.831-6.29 1.134-6.916a44.749 44.749 0 0 1 5.165-.285zm16.84 2.602l1.54.439c.012.001 4.808 16.414 7.554 24.428.838 2.445 1.477 5.75 1.637 8.853-.076 4.273-2.482 7.339-5.416 7.674-2.077.238-4.331-.84-5.363-3.152-.87-2.198-.214-4.791 2.293-5.686 4.34-1.548 7.519 3.99 3.263 5.696-2.201.882-4.293-.708-3.301-2.558.695-1.297 2.65-1.157 3.113.183.377 1.427 1 .754.734-.212-.807-3.077-4.76-2.352-5.078.483 0 3.512 3.846 4.337 6.14 2.365 1.777-1.577 1.964-4.426 1.52-6.898-.61-5.134-3.517-11.794-5.58-19.394-1.03-3.795-2.522-8.32-3.055-12.221zm61.268.183l2.89 1.144-.067 9.528-2.452.845c-3.208-4.903-.54-11.513-.371-11.517zm-58.603.618l2.12.815c1.16 6.726 6.631 19.583 8.562 29.179.538 5.767.624 7.46-3.282 10.532v-.044h-2.114s-.008-.129.917-.82c5.116-3.826 2.062-12.258.13-18.738-3.366-10.35-6.374-20.937-6.333-20.924zm-19.804.67c-.269.004-.541.015-.816.03-3.196.171-3.72.376-3.731 1.071-.02 1.31.517 1.89 3.49 1.569 2.572-.278 6.299.121 8.866 1.226 2.93 1.26 3.625 1.558 4.678 2.1 2.643 1.36 2.18.007-.208-1.564-4.88-3.21-8.253-4.48-12.28-4.431zm23.057.464l1.99.758s.525 1.55.713 2.437c1.936 8.586 7.2 18.242 7.815 28.286.14 3.29-.425 6.36-2.838 7.843h-1.82c1.946-1.935 3.242-2.494 2.698-9.219-.86-8.638-6.558-19.43-8.558-30.105zm3.529 1.395l1.834.676c2.112 11.594 12.584 28.918 5.918 37.277h-1.666c1.488-2.32 2.101-4.356 1.878-7.486-.648-10.536-6.022-20.76-7.964-30.467zm3.075 1.067l1.974.603c2.68 11.747 12.98 30.998 5.637 36.322l-1.448-.039c5.532-10.34-2.854-21.041-6.163-36.886zm3.441 1.095c.606.338 1.473.499 2.134.69 2.077 8.883 5.874 17.619 7.602 25.892.581 4.53-.412 7.92-3.258 9.21h-.609c2.554-3.856 2.073-8.72.71-13.974-1.832-7.068-5.392-14.843-6.579-21.818zm-31.104.155a9.178 9.178 0 0 0-2.891.454c-1.04.392-.912 1.212.053 1.042l1.289-.227c2.368-.413 5.286.44 8.823 2.583.854.517 1.782 1.015 2.013 1.187.65.485 1.343.483 1.105-.135-.095-.247-1.458-1.304-2.664-1.98-2.58-1.558-4.977-2.898-7.728-2.924zm34.459.772l1.988.304c3.741 17.19 11.952 27.873 4.929 34.251h-1.757c1.921-1.962 2.79-5.036 2.152-8.669-.65-3.708-2.566-9.594-4.156-14.77-1.842-6-3.325-11.074-3.156-11.116zm2.852.483l1.685.314c1.973 6.987 5.324 15.65 7.342 22.864 1.24 4.437.742 9.902-2.028 10.909l-1.424.024c2.35-3.14 2.686-6.412 1.612-10.643-2.204-8.684-5.54-16.263-7.187-23.468zm10.397.01c1.702 7.244 5.787 18.295 7.255 22.111 1.953 3.897 1.367 9.667-1.569 11.951l-1.39.03c1.68-1.57 2.256-4.215 1.989-6.956-.756-7.746-6.24-18.49-8.225-26.74zm-7.39.342l1.738.16c1.74 7.577 5.125 14.942 7.322 22.521.41 1.711.766 3.8.623 5.339-.3 3.225-1.636 5.768-2.81 5.768h-1.196c2.445-2.913 2.325-6.885 1.279-11.155-1.73-7.056-5.913-15.564-6.956-22.633zm-45.241.039c-.724.004-.737.667.42 1.68.707.62.653.413.613.806-.172 1.678.091 3.214.782 1.486.184-.461.454-.981.724-.917.51.158.25 1.095.497 1.569.416.836-.026 1.04-1.038.782-.728-.186-.77.208-1.221.71-.791.878-.662 1.402.555 1.129.2-.045.37.012.526.048.38.087.727.328 1.631 1.019 1.163.886 2.809 2.068 3.876 2.249 1.71.29 1.329-.53-.072-1.067-1.2-.46-2.689-1.737-2.684-2.09.004-.271.381-.11 2.544-.705.938-.257 2.258-.834 2.814-1.09.918-.423.962-.42 2.399-.377 2.448.073 2.822-.01 1.105-1.284-3.468-2.573-8.097-4.248-10.551-3.18-.744.323-.727.125-1.265-.184-.703-.404-1.276-.586-1.655-.584zm49.648.232c2.405 9.261 7.055 17.56 8.187 26.344.256 2.513-.166 4.968-2.254 7.09l-1.41.025c-.206.003 1.968-3.359 1.781-6.236a16.33 16.33 0 0 0-.55-4.808c-2.732-7.81-5.422-14.89-7.51-22.333zm-43.417 3.04a.138.138 0 0 1 .039 0c.656.103.678.364.487.705a64.95 64.95 0 0 0-.782 1.477s-.665.13-.801-.038c-.24-.348.637-2.092 1.057-2.144zm1.665.3c.073-.001.163.036.304.091.63.25 1.723.76 1.25 1.154-.559.467-2.726.678-2.62.483l.724-1.337c.153-.284.221-.39.342-.391zm-6.637 8.094a.305.305 0 0 0-.14.039c-.125.075.16.579.575 1.149 1.917 2.586-.737 3.354-2.616 1.969-1.784-1.387-4.54-1.257-4.142.198.14.513.004.762 1 .777.885.013 1.113.062 1.91.608 3.052 2.087 6.995-.707 5.069-3.702-.363-.565-1.263-1.06-1.656-1.038zm7.53 4.04c-1.108 0-1.807.827-.42 1.074 4.957.89 1.633 6.03-1.863 3.381-3.15-2.843-7.363-2.823-7.414-.806-.007.508.016.525.763.667 1.756.331 4.378 1.13 5.382 1.636.59.297 1.211.575 1.38.618 2.1.763 4.792-.229 5.325-1.997.488-1.618.094-4.573-3.153-4.573zM40.552 95.015c.664.008 1.37.589 1.873 1.438 1.163 1.964 2.578 5.266 3.48 7.086.227.459.236.868.222 1.086.07 1.067.429 1.47 1.062.99.623-.473 1.486-1.263.473-1.39-1.02-.768-1.587-1.896-.956-2.583.465-.505.283-.834-.092-.854-1.428-.021-3.556-4.27-2.553-5.184 1.354-1.235 2.851.295 6.038 6.617 1.405 2.793 1.47 5.849.266 4.335-.41-.382-.326-.184-.806 1.018-.36.904-.657 1.333-2.032 2.655-1.675 1.61-2.69 2.883-2.727 3.162-.072.533.904.035 1.617-.893 1.59-1.555 1.65-1.969 1.636.091-.013 1.864-.109 2.204.227 2.192.523-.02.803-1.494 1.047-3.273.292-1.602 1.124-2.41 2.51-3.301.38-.245.387-.414.314-1.12-.256-2.263 1.03-6.483 1.617-5.44.082.235.337.784.473 1.168.11.596.484 1.268 1.057 1.313.712.533.71.82.956 2.77.08.637.362 1.592.56 2.1.368.946.697 1.5.492 1.781-.13.14-.406.401-.406.401l-11.603 6.878s-.911.504-1.24.642c-.92.415-1.48.108-1.931-.579-2.46-3.662-4.147-7.776-5.875-11.57-1.037-2.252-.022-3.742 1.318-1.926.52.706.254 1.156-.005 2.52-.047.247.183.152.613.222.678-.073 1.005.532.98 1.559-.428 1.471.164.677.444.603.536.008.655.33.956.942.187.861.566.612 1.12.043.457-.47.458-.458-.464-1.56-1.592-1.725-3.801-5.62-4.373-7.992-.158-.655-.1-1.177.02-1.526.72-1.62 1.721-1.625 2.814.638.185.385.551 1.005.81 1.38.42.607.68 1.129.667 2.095-.323.81-.376.826-.097.936.693.274 1.924 1.525 1.979 2.645.056 1.138.249 1.742 1.144 1.067 1.02-.77.586-1.079-.42-2.066-1.054-1.255-1.118-2.343-.492-3.248.102-.304.059-.39-.329-.353-1.224.119-2.415-1.432-1.563-2.61.391-.692.345-.87-.208-.89-.288-.009-.764.046-1-.086-.361-.679-1.117-1.627-1.11-2.404.358-1.092.911-1.532 1.497-1.525zm72.726.058c2.012 1.234 4.004 2.518 6.265 3.104-5.238 9.434-13.663 14.49-20.712 16.464.24 1.207.41 2.41 1.578 3.152-.04-.183-.557-2.326-.444-2.766 9.712-2.48 18.26-11.993 20.447-16.899l42.679-.463c-31.64 30.35-32.9 73.066-7.086 108.869l-2.969 1.733c-19.891-29.795-19.689-58.502-13.722-77.727 4.23-13.63 11.82-24.042 17.589-29.993 0 0-23.14-.318-34.657.106-1.673 2.56-3.23 4.65-5.478 7.066 0 0 5.851-5.65 5.7-6.632 10.674-.005 21.68-.622 32.34.12-12.474 14.929-18.622 30.34-19.689 44.837-.04 1.886-.153.832-.777 1.525l-1.97 3.056-1.578-3.176c-1.073-.347-3.183.212-4.078-.111-4.389 19.577.046 43.206 5.82 58.626 0 0-1.45.813-3.233.676-1.953-.433-2.43.105-4.122.449-1.946.37-2.625.368-3.056.86-.24.273-.672.654-1.163.921-4.74 1.722-10.3 8.177-10.3 8.085l-5.218-2.34c4.807-9.442 10.45-12.84 20.369-17.03l-.922-4.219c-10.564 3.936-17.287 8.647-22.59 17.802-6.433-.092-32.49-.275-32.518-.193 10.63-12.087 19.01-30.319 19.925-44.533.225-2.768-.162-1.437 1.062-2.263l1.926-2.293 1.51 2.259s1.095 1.392 1.787.231c1.938-19.821-.112-42.423-9.663-58.177 1.694-.112 3.382-.159 5.005.801 3.736 8.46 5.937 18.911 6.893 26.745 1.209 9.916 1.038 21.1-.193 30.598l.637.087c1.861-12.343 1.23-25.47-.478-36.945-.877-5.986-3.701-15.347-5.643-19.67-.536-1.193-.952-1.502-.444-1.679 11.64-.98 16.99-4.863 21.17-11.063zm-32.272 1.043a1.612 1.612 0 1 1 0 3.224 1.612 1.612 0 0 1 0-3.224zm87.48.82c-3.407 3.084-6.144 6.28-9.02 9.688 8.511 11.704 17.97 24.393 25.924 34.53 0 0 2.753-1.63 2.742-1.834-.006-.107-.22-.646-.27-.526-.118.282-2.23 1.463-2.23 1.463l-25.172-33.035s1.364-1.634 1.786-2.148c1.956-.643 7.398-7.384 7.665-7.245 4.264 3.267 17.124 17.114 22.078 21.359l.062 38.436c-.512 1.538-14.223 7.464-23.907 29.574-4.87 2.728-10.264 4.196-15.281 6.569 0 0 1.277 2.008 1.901 2.558-.766-1.656-.902-1.972.835-2.679l36.235-14.77-.067 2.983-.59 5.15c-9.86 6.082-18.183 8.63-31.755 17.802-.97.225-1.75 1.156-2.77 1.206-34.671-51.06-12.508-89.53 7.698-108.859zM55.584 99.547c.946.016.707 2.21.357 2.969-.699.549-1.396.061-1.38-.965.004-.335-.061-.651-.145-.705-.525-.335.353-1.31 1.168-1.299zm21.175 1.371c.797.605 1.091 1.41 1.385 2.216-1.074-.17-3.951-.994-2.601-1.637zm-5.237 2.853c25.006 37.817 23.887 77.983-4.02 108.43l35.307-.053c4.495-8.869 11.982-14.274 21.562-17.604l.835 2.785c-11.01 3.535-16.58 9.394-21.011 17.512h-42.11c16.179-17.408 23.59-32.112 24.757-52.004 1.111-18.945-3.709-36.246-18.347-57.063zm7.047.434l5.898 2.785-.873 6.053-6.179-2.848zm-10.633 1.7c31.537 47.706 18.01 81.264-7.168 109.192l-4.639.077-10.812-10.045.198 61.036S34.972 276.49 33.76 277.73c-1.197 1.152-2.095-.618-2.095-.618l.029-80.912.468-3.171.145-17.435 6.719-3.543 25.196 33.025s-1.012 1.492-1.482 1.757c-.306.173-.082.468.174.435.707-.093 2.726-2.35 2.302-2.713-9.14-11.323-26.132-33.493-26.132-33.493l-7.076 3.692s.204-14.475.077-20.031c.271-1.31 1.254-.96 1.916-1.545 8.148-5.237 13.89-11.63 17.434-17.83.26-.463 1.83-3.247 1.984-3.5.553-.9 1.924-3.718 2.723-5.517.446-1.005.92-2.223 1.1-2.37 4.903-1.596 10.05-3.862 14.973-5.898l-7.09-10.643zm-19.327.608c-.266-.004-.943.303-1.858 1.134-1.69 1.533-3.918 4.053-3.925 4.532.454.164.855-.097 1.217-.463 1.413-2.087 3.599-2.903 4.88-4.73.199-.338-.011-.478-.314-.473zm15.885 2.215s4.893 7.128 6.145 9.021c-12.893 5.105-26.385 11.848-38.335 16.209V131.1l1.887-5.13zm19.182 4.711l4.822 2.49-1.361 5.44-4.866-2.722zm3.977 9.05l3.963 2.887-1.81 4.614-3.992-2.746zm-32.335 3.384s-.61 2.14-1.636 4.054c-4.904 8.52-9.702 16.092-19.616 22.667-.378-.335-1.458-2.225-1.458-2.225l-.096-2.524c5.256-4.223 9.792-7.322 16.753-19.713l2.018-.82 1.718.743 1.164-2.076zm20.625.02c-4.569 9.692-9.064 19.689-16.343 27.242l19.92 27.807c6.555-19.633 4.121-38.034-3.577-55.05zm-25.065 2.113l-.956 1.656 1.655.956.956-1.656zm-2.703.179c-3.61 8.07-9.026 14.277-16.137 18.743l-.275-11.84zm1.269 2.409l-.956 1.655 1.656.956.956-1.656zm40.714.347l3.591 3.408-2.133 3.76-3.683-3.046zm55.016 1.675a.02.02 0 0 0-.01.01c-6.31 19.616-4.415 38.353 4.244 54.663 4.248-10.572 7.735-17.647 16.03-28.903-5.108-6.687-19.75-25.982-20.264-25.77zm-97.14.314l-1.003 1.626 1.626 1.004 1.004-1.626zm27.538 2.288c5.689 13.6 5.187 25.863 2.162 36.49l-14.21-17.95c5.206-6.463 8.663-12.581 12.048-18.54zm-29.005.048l-1.076 1.578 1.578 1.081 1.077-1.583zm-1.588 2.259l-1.178 1.51 1.506 1.178 1.178-1.51zm46.816 1.607l3.219 3.056-2.032 3.962-3.268-2.987zm-48.674.744l-1.236 1.452 1.453 1.236 1.236-1.453zm103.796.43l14.336 18.495c-4.796 5.708-8.78 12.431-12.343 19.68-3.994-12.516-5.797-24.813-1.993-38.176zm-105.809 1.872l-1.322 1.38 1.38 1.323 1.323-1.38zm33.489 1.849l-6.56 9.484 7.52 9.6c.81-5.196.991-11.229-.96-19.084zm-35.627.309l-1.41 1.293 1.294 1.41 1.41-1.294zm-2.07 1.848l-1.488 1.207 1.207 1.487 1.482-1.207zm56.024.98l2.693 3.147-2.732 3.239-2.558-2.877zm34.241.565l1.83.067c-3 29.594 2.897 44.567 8.114 57.59 0 0-.013.521-.188.675-.85.293-2.57.609-3.949-.603-7.019-18.042-8.55-40.265-5.807-57.73zm-92.675.381l-1.549 1.12 1.12 1.55 1.55-1.12zm114.657 1.052c-.466 0-.87 12.176.883 18.12l6.598-8.94zm-17.058 2.008l2.206 2.964-2.341 3.19-2.394-3.021zm-99.39.806c.111-.017.293.291.648.536.33.345.282.319-.087.613-.577.46-.75.386-.739-.333.05-.591.093-.802.179-.816zm60.355 2.226l2.438 3.49-2.698 3.47-2.308-3.654zm38.842 4.42l2.568 3.129-2.206 3.432-2.805-3.278zm59.457.662l.226 3.606-.888-1.318-1.631 1.25 1.139 1.511 1.424-1.11.087 1.453c-9.044 6.535-12.945 14.043-16.614 19.674l-1.632.69-1.858-.589-.907 1.608-1.579.371c-.048-.01 3.17-6.901 8.674-13.915 4.902-6.247 13.533-13.288 13.559-13.23zm1.047 5.643l.077 12.82-16.184 6.252c4.2-7.157 9.153-13.8 16.107-19.072zm-4.02-1.56l-1.478 1.212 1.275 1.463 1.472-1.212zm-2.274 1.931l-1.424 1.27 1.327 1.414 1.424-1.279zm-54.046.71l3.05 3.248-2.234 3.838-3.176-3.046zm51.748 1.366l-1.337 1.366 1.463 1.405 1.337-1.366zm-2.104 2.158l-1.284 1.419 1.554 1.346 1.284-1.419zm-2.114 2.418l-1.193 1.496 1.617 1.25 1.193-1.5zm-46.483 2.297l3.814 2.476-1.864 4.538-3.808-2.901zm44.639.02l-1.12 1.554 1.723 1.178 1.134-1.608zm-1.723 2.452l-1.038 1.607 1.742 1.12 1.033-1.66zm-1.54 2.428l-.956 1.655 1.805 1.028.956-1.675zm-1.39 2.51l-.956 1.655 1.998.864.792-1.578zm-37.92 1.023l3.905 2.645-1.728 4.754-4.122-2.915zm56.624 4.677l.193 97.83-42.993.15s-2.01-3.538-6.217-11.71c-1.78-3.46-3.287-4.93-3.441-7.67.16-1.61-.583-3.435-1.902-4.17-.443-.247-1.184.051-.936-.638.272-.757-.564-1.924-.792-2.172-.26-.438-.098-.545-.126-2.177-.026-1.577-.11-2.236-.448-3.427-.855-3.008-1.044-4.511-.556-6.072 1.27-3.957 2.594-6.992 4.306-10.681.996-2.16.844-3.003-2.21-4.571-2.288-1.175-2.591-1.162-2.303-2.877.135-.804.26-1.31.092-1.7-.103-.236-.483-.567-.705-.757-.298-.255-.209-.781.096-1.173.3-.384.302-.933.005-1.849-.625-1.926.79-4.478 3.461-6.24 1.181-.78 1.148-.619 2.38.675 3.6 3.78 8.948 1.405 8.958-3.924.004-1.661-.562-1.563 1.01-2.346 5.325-3.389 16.256-9.552 16.183-9.383.712 1.45.95 2.69 1.4 4.252.39 1.34.338 1.442.193 4.05-.13 2.356-.202 2.904.353 3.055 3.154.347 3.874-.768 4.479-2.804.261-.9.765-.717 1.076-.338 1.2 2.184 2.72 4.456 3.717 6.01 1.246 1.982 3.346 2.968 4.446 2.031.23-.77.421-.794 1.814-.478 1.69.384 2.652-.562 2.814-1.805.065-.496-.296-.475.609-.965 2.244-1.661 1.388-3.93 1.052-5.295.03.072.959-.566.98-1.844.107-6.639-5.647-16.2-5.517-15.953zm-54.283 3.823l4.566 2.206-1.076 5.454-4.692-2.11zm44.431 2.027c2.63 3.05 4.532 8.133 5.512 11.444.485 1.65.544 3.533.111 3.794-.426.259-.626-.018-.545-1.004.067-.82.091-1.457-.26-1.448-1.021.264-1.06-1.282-.956-1.646.07-.242.195-.413.25-.545.252-.6-.405-.518-1.085-.526-.603.014-.758-.352-.73-.922-.017-.633-.855-.51-1.332-.029-.435.439-.344.956.247 1.318.848.519 1.65 1.796 3.625 6.197 1.146 2.556.807 4.37-.56 4.35-.948-.029-2.052-2.625-2.945-4.538-.23-.494.348-1.047.55-1.313.525-.688.446-.905-.332-.917-.729-.01-1.038.054-1.477-.845-.166-.338-.286-.854-.227-1.182.375-.991-.396-1.23-1.144-.85-.943.393-.936 1.235.502 2.612.926 1.52.684 1.414-.193 2.437-.184.361-.073.583.313.589 1.113-.34 2.325 1.664 1.994 2.35-.341.296-1.273 1.365-.372 1.16 1.832-.499 2.947 2.184 1.868 3.093-1.61.807-1.99.555-4.47-4.397-.77-1.538-1.696-3.19-1.81-3.36-.113-.169-.164-.623-.159-.99.108-.895-.274-1.098-1.052-.742-.585.14-1.112.62-.372 1.076.864 1.491 1.17 1.731.695 2.11-1.08.86-.612.825.599 1.066.592.178.894.483 1.057.85.625 1.404 1.734 3.385 1.844 3.789.366 1.03-.296 1.492-1.202 1.448-.949.022-1.383-.727-1.844-1.366-1.724-2.396-2.966-4.77-4.725-7.492l.236-2.543s.461.1.72-.024c.506-.244.806-1.039 1.095-2.095.463-.919 3.193-3.009 4.238-4.132.193-.127.355-.337.357-.463-.007-.412-1.184-.137-1.96.753-1.138 1.01-1.624.664-1.588-.628-.112-1.595-1.085-.795-1.134.763-.125 1.23-.553 1.98-1.414 2.669-1.626 1.3-1.355.97-1.28 2.775.132 3.148-1.082 5.737-1.877 4.021-.282-.61-.613-1.301-1.322-1.332-.503-.022-.752-.515-1.029-1.733-.411-1.97-.986-3.239-1.51-5.054zm-40.473 6.782l5.261 2.095-.984 5.502-5.213-1.993zm40.116.507a.381.381 0 0 0-.12.029c-1.483 1.12-2.85 2.376-4.466 3.34-.605.357-1.313 1.283-1.317 1.53-.005.24.719.235 1.424-.073.669-.291 4.484-3.874 4.489-4.204.263-.29.237-.638-.01-.622zm-48.312 6.68c1.244-.003.519.366-2.196 2.25-2.65 1.838-7.018 7.65-7.525 9.807-.23.98.391 1.056 1.09-.29 3.218-6.184 9.305-11.835 14.877-11.584 2.73.123 4.205.86 1.945 1.183-6.194.76-10.824 4.293-14.876 11.333-.003.158.367.15.792-.12 3.709-4.535 7.887-10.54 15.228-10.055 5.296.32 6.8 6.616 2.404 8.766-3.832 1.874-7.366-2.69-4.19-5.397 1.032-.878 1.676-.493.686.406-2.125 1.928.48 5.363 3.07 4.06 1.576-.661 2.214-2.917.825-4.62-3.09-3.789-9.746-.908-14.384 5.213-.486.644-.907 2.043-.497 1.892.72-.297 1.155-.861 1.578-1.496 1.656-2.296 2.928-3.448 5.17-4.682 1.732-.954 1.839-.775 1.192.878-.272.697-.49.928-1.163 1.361-2.824 1.93-4.578 4.513-4.648 6.16-.051 1.201.828 2.771-.126 3.093-1.618.765-6.03.141-7.22-1.38-.857-1.094-1.19-.46-.546 1.318.425 1.174.406 1.838 1.047 1.718.81-.429 1.367-.329 2.94.531.758.414 2.101.8 2.92.99 1.492.344 1.804.198 1.771.844-.01.198.058.755.015 1.106-.242 1.945 1.382 2.606 3.596 3.885 1.294.747.783 1.516-.715 5.218-.778 1.674-1.443 3.927-2.403 5.628-.898 1.91-.975 4.002-.396 6.386 1.074 4.424 1.847 6.673-.068 7.071-4.926.746-15.809.715-21.75-1.569-1.519-11.403-9.57-28.322-8.538-32.696 2.06 3.106 10.702 2.284 8.1-6.4 0 0 .707-1.06 2.114-2.487 3.626-3.679 4.521-4.287 2.8-1.047-1.325 2.49-3.014 5.741-3.051 6.371-.03.502.36.619.666.218.226-.298.494-1.02.729-1.57 2.161-5.06 5.856-9.621 8.403-10.72.656-.282.623.019.169.575-2.996 3.728-5.285 7.176-6.912 11.676-.072.464.586.658.796.217 2.811-5.89 3.652-7.227 7.106-11.377 1.357-1.63 2.62-2.454 3.63-2.365.872.077.614.22-.194 1.081-.617.658-1.528 1.572-3.002 3.427-2.6 3.272-5.215 8.595-4.253 8.317.166.443.987-.971 1.68-2.322 1.9-3.19 3.918-7.406 8.431-10.178.943-.39 1.973-.614 2.883-.624zm-87.278 1.028l8.036 8.032 16.165-.208c-2.666 4.143-1.242 10.564.227 14.317 2.88 7.356 7.101 19.502 6.792 19.679 0 0-2.351.604-2.564 2.094-.314 2.21.643 2.046-.738 4.04-.31.45-.11 1.296.222 1.97.22.494.429 1.237.02 1.815l-14.26 25.437-27.058.13v-5.087l13.549-13.718-.165-10.093c7.39 2.197 9.928 9.822 10.562 15.47 13.348-12.182 13.018-30.521.405-42.027-2.459 12.16-11.265 14.688-11.073 14.447zm100.528 1.443c.865.063 2.032.202 2.824.628-.537.32-.918.703-1.275 1.095-.433-.768-1.016-1.188-1.55-1.723zm22.406.087c.72-.002 1.603 2.104 1.096 2.597-.286.278-1.214.383-1.545.174-.424-.315-.208-2.769.449-2.77zm-25.495 3.654a1.68 1.68 0 1 1 0 3.36 1.68 1.68 0 0 1 0-3.36zm-71.095 2.394l1.212.03c-2.202 2.943-2.5 5.478-1.718 9.15.878 4.134 7.575 19.668 8.007 23.947.02.193.039.738.039.738l-1.646.111s-.123-.442-.174-.613c-2.303-7.745-4.596-13.653-6.197-18.168-1.597-4.87-4.04-12.088.477-15.195zm8.853.03a.055.055 0 0 1 .029.004l1.163.01c-.043.025-1.737 3.656-1.858 5.86-.138 2.496.466 5.216 1.293 7.9 1.955 5.808 4.816 12.277 6.406 19.607.018.086.193.797.193.797l-1.724-.232s-.169-.75-.188-.854c-1.19-6.448-4.508-13.145-6.487-19.491-1.014-2.885-1.719-6.431-1.356-9.142.255-1.912 2.174-4.423 2.529-4.46zm14.07.014c-1.232 1.907-2.354 4.298-2.433 6.173-.07 3.488.945 6.432 1.96 9.514 3.124 9.487 4.64 14.493 6.202 22.102l-1.66-.71s-.065-.427-.101-.55c-.887-4.765-.943-4.35-6.155-20.374-1.22-3.846-2.385-7.219-2.157-10.421.051-1.824 1.643-5.436 3.32-5.725zm1.993 0h1.55s-.853.903-1.1 1.24c-2.707 3.754-1.924 7.782-.58 12.584 1.85 6.607 5.269 13.996 7.057 24.066.033.187 0 1.159 0 1.159l-1.844-.744c-1.675-9.233-5.808-18.807-7.8-27.112-1.171-4.876-.838-7.958 1.868-10.614.678-.524.85-.58.85-.58zm-18.906.053h1.158s-1.937 3.18-1.935 5.053c-.324 3.353.89 7.057 2.283 10.938 2.141 5.965 4.971 13.179 5.84 16.976.034.15.15.83.15.83l-2.023-.106s-.106-.92-.226-1.342c-2.334-8.165-4.608-13.446-7.289-20.9-.406-1.128-1.053-5.59-.29-8.48.6-2.27 2.332-2.97 2.332-2.97zm-3.104.004l1.25.034s-.188.34-.666 1.159c-2.28 4.13-1.259 7.9.155 12.1 1.885 5.606 4.846 12.45 6.694 18.927.105.365.247 1.467.247 1.467l-1.806-.024s-.366-1.32-.39-1.463c-1.016-6.004-6.503-16.01-7.931-23.627-.783-4.086-.11-6.616 2.447-8.573zm16.744 0s-1.972 3.42-2.152 5.324c-.354 3.735.83 6.827 2.186 11.04 2.339 7.267 5.638 15.795 5.932 19.693.01.128.058.603.058.603l-2.032-.724s-.09-.407-.13-.55c-1.771-7.053-3.866-14.078-6.68-21.996-.695-2.671-1.606-5.359-1.526-7.655.413-3.067.935-3.894 2.761-5.71zm8.94.005l1.636.034s-.489.262-1.656 1.506c-6.455 5.899 4.019 22.553 6.435 37.717.026.162.1.734.1.734l-1.8-.647c-.17-.756-.298-1.675-.506-2.5-1.957-7.752-4.569-15.723-6.965-22.952-1.345-5.268-1.836-9.908.579-12.502.756-.896 2.177-1.39 2.177-1.39zm-16.831.01l1.742.048c-1.26 1.579-1.998 4.039-2.066 6.227-.067 2.588.625 5.104 1.477 7.766 1.748 5.46 4.243 11.394 5.956 18.762.097.488.178.8.223 1.014a8.4 8.4 0 0 0 .265.873l-1.839-.367s-.19-.477-.314-.728c-.186-.378-.355-.859-.507-1.434-.89-3.843-4.168-12.564-6.163-18.68-1.583-3.854-2.014-10.59 1.226-13.481zm21.754.067c2.229-.081 4.244 1.81 4.72 3.587.463 1.887-.129 4.016-2.205 5.068-3.367 1.705-6.992-2.832-4.335-5.329 2.014-1.893 4.993-.492 4.344 1.93-.418 1.578-2.81 1.68-3.205.088-.108-.53-.374-1.06-.564-.768-1.238 2.908 2.924 4.27 4.653 1.564 1.025-2.168-.927-4.962-3.799-4.43-3.938.727-4.391 5.725-2.756 11.555 2.281 9.214 7.723 21.607 7.713 27.295 0 .075.02.31.02.31l-1.728-.517s-.012-.096-.025-.179c-1.036-7.945-6.937-21.099-8.63-31.21-.734-4.61 1.062-7.957 5.102-8.872a3.75 3.75 0 0 1 .695-.092zm-17.087.073c-1.212 1.62-2.004 4.054-2.042 5.792-.036 2.546.877 5.024 1.632 7.675 1.91 6.545 6.37 18.632 6.207 20.895.047.243.17.994.17.994l-1.724-.511s-.069-.11-.198-.42c-.574-2.247-3.306-11.873-6.367-20.196-1.177-3.346-1.75-5.953-1.67-8.172.25-3.06 1.125-4.339 2.467-6.043zm32.813 10.85c-4.467.255-4.037 5.7-1.27 6.623.99.273 1.571.037 1.728-.179.18-.245-.021-.62-.67-.714-1.878-.617-2.55-2.827-.854-3.754.926-.486 2.405-.173 4.189 1.147 3.187 2.36 7.093 2.509 6.584.121-.124-.58-.374-.657-2.708-.975-1.896-.258-2.75-.857-3.577-1.303-1.303-.703-2.45-.994-3.422-.965zm-63.946 5.064c11.54 11.27 9.83 28.932-.029 37.775-.203-.714-.633-2.463-.68-2.414 7.413-7.714 10.905-20.359.173-33.32.056.05.239-.935.536-2.041zm72.32.3a.96.96 0 0 0-.29.043c-2.987.817-3.607 3.77-1.67 4.986 1.189.745 2.101.288.623-.613-1.266-.773-.642-2.803.893-2.78.671.01 1.128.301 2.834 1.559 1.404 1.035 2.726 1.117 3.026-.285.18-.837-.1-1.209-.994-.99-.395.097-.627-.134-1.163-.506-1.193-.829-2.495-1.432-3.259-1.415zm-73.512 2.21c10.401 12.073 7.062 24.663.048 32.04-1.926-5.683-6.646-9.228-6.646-9.228 1.778-3.947 2.84-8.07-.488-13.274 3.095-2.797 5.66-5.87 7.086-9.538zm67.58 4.407c-.488-.009-.33.462.82 1.264 2.742 1.865 2.977 2.202.32 2.158-.674-.04-1.73.438-2.327.637-3.468 1.157-3.636 1.065-5.295.676-.553-.129-1.114-.36-1.357-.14-.374.341-.795.567-.323 1.076.344.372.984.655 1.762 1.1 4.027 2.308 4.393 2.86 9.127 2.984.543.014.821-.267 1.14-.27.773-.01 1.178.18 1.96.893 1.43 1.305 1.497.356.646-1.357-.446-.898-.837-1.112-.618-1.795.5-1.558-.212-1.868-1.144-.488-.698 1.08-.777 1.056-1.438-.333-.876-1.734-.465-2.534.864-1.405 1.007.857 1.264.22 1.655-.458.515-.892.437-1.691-.482-1.622-.53.04-1.023-.203-1.439-.656-.814-.889-2.375-2.003-3.87-2.264zm1.14 4.692c.109.006.185.05.221.164.01.57-.383 1.738-.704 2.35-.103.273-.28.307-.526.357-.83.154-.888-.103-.739-.617.304-.794.556-1.924 1.627-2.25a.75.75 0 0 1 .12-.004zm-2.11.395c.336-.024.347.115.212.42-.24.515-.661 1.002-.975 1.405-.665.43-1.748-.885-1.269-1.226.668-.264 1.171-.536 1.868-.58.062-.01.116-.015.164-.019zm-74.512.86c.18 0 .362.035.55.115 2.518 3.398 2.346 8.57.392 11.43-.146.214-.295.252-.541.17-.841-.499-1.91-.683-2.708-.971v-9.948c.822-.174 1.531-.798 2.307-.796zm66.33.81c-.192.01-.272.14-.028.391 3.67 2.656 8.72 5.735 13.38 4.542.427-.092.772-.326.69-.767-.051-.275-.525-.512-1.038-.377-1.068.282-3.117.319-3.958.184-3.204-.526-6.034-2.575-8.495-3.775a.917.917 0 0 0-.55-.198zm-1.071 2.534c-.164-.007-.151.157-.048.464.516 1.538 5.71 5.123 9.813 6.309 3.522 1.017 8.582.016 8.287-1.656-.153-.873-.794-1.081-3.04-.797-4.95.962-9.713-1.061-13.327-3.31-.975-.614-1.474-1-1.685-1.01zm-32.407 2.105c2.161-.026 4.304.15 6.622.536 4.51.77 9.736 2.166 14.157 4.214 7.514 2.82 16.962 4.996 24.979 4.7 1.957.055 5.494-.111 6.178-.337 1.788-.4 2.282-.021 2.708 2.196.075.483.224.623.845 1.043.95.643.791 1.278.676 2.698-.097 1.194.624 1.865 3.518 7.206 3.294 6.08 6.507 13.144 6.507 13.144-28.873-.02-56.419-1.091-85.96-.174 2.656-6.3 9.9-17.66 14.44-26.778-1.098-2.805.258-3.282-.31-3.948-.92-1.56-.257-3.747 1.687-4.24a38.448 38.448 0 0 1 3.953-.26z" fill="#131f67"/><path d="M61.958 285.687s9.462-19.127 13.448-24.858c5.736-7.27 31.624 3.16 44.5 5.766 5.232 1.01 17.362.536 17.362.536l10.14 18.275zm-19.647-21.733l-.4-59.547 2.962 1.849.678 59.813-12.804 12.26-.07-3.592zm7.75-6.795c3.05-6.138-.355-13.634-.355-13.63 1.77.436 6.699-8.919 7.137-8.649 7.544 9.252 8.852 23.038-.366 31.581-2.327-5.938-6.386-9.302-6.416-9.302zm5.631-42.115c5.732-5.858 10.278-10.42 14.821-16.976.372-.533-24.184-31.724-23.802-32.27 3.788-4.187 8.866-7.264 12.817-12.32 0 0 20.138 26.363 20.602 26.131 2.04-8.25 3.534-15.719 3.145-24.342-1.243-22.063-10.671-35.57-10.744-35.304-3.188 20.27-34.522 50.974-40.691 48.787l-.035-14.166c.373.709 19.85-12.532 24.986-30.03.37-1.258 15.483-6.094 15.377-6.279-.64-1.643-7.251-10.996-7.251-10.996s2.67-1.244 2.967-1.24c8.57 10.657 15.038 24.696 17.238 38.064 2.67 14.398 4.397 41.466-24.476 71.028zm86.556-37.249c-4.518-14.023-4.395-28.54-2.318-38.677 3.17-18.368 14.779-31.52 24.09-41.548l4.038.002-6.586 6.815c-3.016 3.46-7.384 10.676-7.384 10.676l24.095 31.494 13.734-2.968s-.414 14.09.012 14.09c-10.674 8.834-18.345 16.83-23.851 29.703-3.375 1.248-14.565 6.072-14.565 6.072-5.319-1.3 15.828-34.454 11.806-35.016-1.656-1.367-19.999-26.11-20.356-26.06-8.456 25.888-.207 53.074 14.668 72.061-1.688 1.094-3.216 1.946-3.076 1.69-6.372-8.84-11.955-19.395-14.307-28.334zm-44.018-12.98c.953 1.476 5.24-31.592-6.027-58.063 1.072-.812 10.367-2.59 10.367-2.59l2.501 7.925-6.34 2.685 1.17 3.715c4.922-2.387 15.582-5.912 22.139-16.803 0 0 31.86-.274 32.538-.217.661.055-6.498 6.916-13.287 20.804-3.102 6.344-5.569 14.552-6.083 24.182-.101 1.903-7.29-8.947-7.29-8.947 1.792-9.167 6.584-18.191 11.359-27.216 0 0-7.327-.416-12.445-.267-7.96 8.699-12.951 13.283-24.952 17.437 4.377 14.02 31.148 20.758 25.194 19.477-1.216-.287-2.757 12.888-1.47 27.734.25 11.87 6.637 31.658 6.861 31.498 0 0-4.257.96-4.598.276.717-.172-6.334 1.613-6.334 1.613l-2.523-7.375 6.825-3.14-1.104-4.162c-.026.002-15.059 4.549-22.422 17.662l-32.928.038c12.7-13.78 17.879-27.408 20.637-45.426 2.694.483 8.212-.84 8.212-.84zm80.98-118.96c4.141-3.465 12.45-12.487 12.45-12.487l.109 4.622-9.43 9.808.095 60.552-3.19-3.058zm-4.358 22.162c-1.698.809-5.083 4.789-6.697 9.26-10.926-9.76-6.426-27.7-.445-31.434 1.735 3.917 6.76 9.11 6.644 9.001-1.154 4.101-2.04 8.262.498 13.173zm-96.735-40.65l84.263.148c-4.806 9.464-9.216 17.114-14.325 26.43-2.658 3.207-60.2-10.354-60.47-9.003z" fill="#e2cf00"/><path d="M196.878 302.122v-2.78h2.768l6.61-10.032-6.848-15.833h-2.67v-3.112h9.933v3.112h-3.5l5.217 12.345 3.475-4.95-.078-7.395h-2.438v-3.112h9.065v3.112h-3.24l.16 25.865h2.746v2.78h-8.611v-2.78h2.37l-.231-12.162-7.914 12.162h2.801v2.78zm-31.544-18.041c-5.52-10.755-12.61-20.503-20.742-28.925 8.096-8.841 14.847-18 20.616-28.006 5.943 9.96 12.473 19.362 21.593 28.455-9.04 8.897-15.829 18.605-21.467 28.476zM32.568 273.634l-.562-79.508 9.578 9.305.569 61.057zm165.924-22.108c3.489-3.696 6.658-7.794 9.272-12.218 3.29 4.872 6.78 9.856 9.665 12.342-3.274 3.727-6.371 8.049-9.355 12.501-2.6-4.152-5.424-8.337-9.582-12.625zm-121.974 6.7c-1.982.303-.86-1.532-.498-3.276.202-.972-.739-1.887-.734-2.184.025-1.725 1.318-2.454 7.177-2.386 13.814.959 20.955 5.38 28.878 7.436 7.588 1.969 15.11 1.929 23.483 1.736.613.353 2.857 6.134 2.44 6.713-18.941 3.733-43.111-10.173-60.746-8.038zm34.139-41.17c-1.996-1.445-3.87-1.713-5.72-2.027 3.248-5.714 7.182-10.92 13.752-14.18l3.058 7.565c-3.865 1.986-7.658 4.351-11.09 8.643zm-39.904-19.642s-2.835 4.634-5.51 6.888C57.288 193.637 39.5 170.928 39.5 170.928l-7.548 3.821s-.03-4.396.14-4.704c20.387-10.504 34.375-30.36 40.535-48.951 0 0 3.282 3.349 2.85 4.766-5.512 14.665-14.937 29.373-28.799 40.403zm25.426-21.637l25.737.037 1.14 8.946c-9.856 3.303-17.989 10.049-25.594 17.851l-12.207-.212c4.002-8.769 9.563-17.664 10.924-26.622zm95.286-37.693c.832 2.523-.006 5.243.313 5.13-30.828 15.245-39.637 48.708-39.637 48.708s-2.927-4.634-2.793-5.35c15.956-35.465 26.632-36.521 28.683-40.373l-24.269-31.406 5.49-7.466 26.03 33.871c2.587-1.191 4.062-2.19 6.183-3.114zm-15.2 45.88c5.227-9.4 10.62-14.866 15.992-18.626l-.26 12.408zM32.137 147.066l.135-12.037 15.879-6.834c-4.39 9.57-10.35 14.7-16.014 18.871zm70.744-10.822l-.939-8.467c9.64-4.204 18.157-9.828 25.032-17.525 7.386-.354 12.43.146 12.39.046.013-.015-7.026 10.308-11.686 26.561zm79.867-88.934l8.774-8.866.277 79.12-8.813-8.387zm-77.114 64.424l-2.784-7.844c4.379-1.641 7.694-5.216 10.782-8.756 2.094 1.874 4.796 2.534 5.734 2.894 1.284.3-8.877 12.501-13.732 13.706zM37.764 57.56c9.397-9.17 15.503-18.842 21.405-28.458 5.176 10.58 12.669 19.837 20.702 28.785-8.28 9-14.57 18.637-20.61 28.338-5.938-10.226-12.188-19.812-21.497-28.665zM16.103 73.362c-2.709-4.325-5.438-8.488-9.37-12.665 3.828-4.098 7.08-8.16 9.265-12.154 3.014 4.386 5.876 8.969 9.576 12.474-3.604 3.966-6.5 8.168-9.471 12.345zm73.081-21.036s-1.095-.633-.974-1.526c.362-1.157-1.17-3.775-1.17-3.775 18.685-5.669 45.894 10.283 62.044 6.928-.135 1.128.05 2.472-.407 3.536.509 2.26.868 2.332-1.339 3.712-11.345 3.21-23.302-3.635-34.384-6.907-9.041-2.848-16.385-2.122-23.77-1.968zm-83.37-9.925v-3.38h3.171V13.619H5.813v-2.934h8.797v2.934h-2.294l.213 12.213 7.98-12.213h-3.111l.036-2.934h9.954v2.934h-2.84l-6.353 10.049 6.354 15.353h2.84v3.38h-9.953v-3.167l3.733-.059-5.29-11.958-3.563 4.908v6.955h2.594v3.32z" fill="#d40000"/><path d="M77.154 26.252l3.413 6.427-.59.4c.929 1.548 1.718 3.29 2.669 4.826l.685-.079c1.122 2.148 1.576 2.943 3.042 5.488l-.662-.003c.34 1.131 1.216 1.883 1.234 2.695.008 1.01-.251 2.035.37 2.72.734.81.822 1.034.671 1.508-.4 1.26.741 2.656 1.9 2.531 8.17-1.092 16.493-.165 24.814 2.35 5.985 1.886 11.297 4 16.326 5.486 1.585.473 4.79 1.22 7.549 1.422 7.652.56 11.946-.998 10.657-4.18-.102-.256-.332-.442-.352-.573-.037-.243 0-.504.435-.86 1.255-1.283.554-2.216-.211-3.635 0 0 9.827-17.555 14.735-26.301zm85.081 1.577l-7.172 12.382c-3.833-.695-4.735 2.53-4.793 2.983-4.979-1.277-4.214 5.18-1.716 5.615.161.937-4.093 2.1-6.335-.093 3.445.461 4.666-4.097.457-5.11 5.548-4.124-4.86-10.299-4.984-1.767-4.895-.862-4.259 5.605-1.154 6.108-1.588 1.75-6.257 1.8-8.698-1.891 4.152 2.156 6.398-3.409 2.085-4.967 5.323-4.667-5.1-8.97-4.855-1.429-3.93-2.328-6.63 3.608-1.386 4.518-.299 1.068-7.167 1.077-8.91-1.684 4.87 1.111 5.094-4.818.796-5.3 4.314-5.474-6.636-8.243-4.798-.772-4.23-1.673-5.828 3.6-1.708 5.295.228.839-6.672 1.553-9.087-1.475 5.303-.796 3.448-5.935.012-5.524 0 0 .05-.148.243-.648 1.622-5.16-7.098-5.59-5.89-.12.193.504.407 1.175.407 1.175-2.404-.49-3.873.49-3.699 2.745.599 2.994 2.18 2.773 4.204 2.177.849.887-4.882 3.852-8.48 1.204 4.406-1.266 2.174-6.43-1.513-5.733-.153-1.648-1.944-3.96-4.28-2.832l-2.471-4.86zm7.207 68.787l-5.177.077c-3.636 3.712-29.967 27.966-25.532 64.603 1.896 15.67 6.272 29.227 17.972 45.243l3.126-1.835.478.32 32.421-18.65.017-5.664-37.633 15.788c-.747-.795-1.186-1.68-1.815-2.659l15.081-6.41s.362-.916.478-1.337c4.958-12.544 15.03-21.626 23.8-28.642-.047-12.35-.105-38.206-.105-38.206L169.88 96.662c-2.908 2.659-5.486 5.393-8.066 8.36l26.034 34.267-2.308 1.502-25.76-34.09c3.051-3.668 6.363-6.866 9.663-10.085zm23.13 22.28s-.126-58.833-.297-87.242l-13.511 13.862.052 59.633zm-1.15-81.64l-9.546 9.849.107 60.615-2.453-2.418V46.318l11.926-12.494zm-92.898-1.46c.286.504.162 1.2-.296 1.77-1.953 2.421 4.18 6.63 8.591 5.898 3.358-.557 6.221-2.573 4.986-4.108-1.005-1.25-.349-2.513.86-2.505 1.242.009 2.24.997 1.163 2.35-2.396 3.012 1.258 6.545 6.844 6.618 3.95.052 5.267-.92 5.054-3.735-.1-1.319.159-1.683 1.076-1.883 1.465-.32 2.205 1.36.99 2.64-2.624 2.766.358 6.833 5.319 7.096 1.815.096 2.174 0 4.2-1.144 1.582-.894 2.141-2.243 1.365-3.292-.998-1.35.348-2.962 1.902-2.298 1.111.475 1.658 1.327.43 2.771-1.615 1.897-.85 3.462 2.259 4.518 2.421.822 4.098.72 5.232-.314.353-.322 1.138-.994 1.126-.789-.762 1.316-1.437 2.538-1.437 2.538-5.072 2.263-9.032-1.972-8.901-2.13-5.226 3.015-9.86 2.379-13.775-2.686-1.018.564-8.306 1.892-13.568-3.883-5.31 2.664-10.245 1.547-14.63-1.432-3.242 3.06-6.658 3.544-10.208 2.074l-1.052-2.115c.265-.1 1.41 2.121 6.965 1.086 1.866-.347 5.075-3.482 3.278-5.01-.823-1.164-.848-1.688-.12-2.394.714-.695 1.935-.337 2.347.36zM84.915 38.57c.31.6.352 1.598.01.999-.18-.316-1.121-1.728-1.077-1.772.438-.036.872.415 1.067.773zm106.511.482l.063 78.223-8.13-8.065-.39-61.28zm-94.14 3.788l2.56 1.61-4.584-.028zm14.39 1.346l2.149 2.087-4.519-.947zm40.264 1.083l-.96 1.97c-.554-.62-.715-1.934.96-1.97zm16.244 32.52c1.632-3.663 3.814-8.328 7.348-9.811-2.63-5.227-2.289-10.451-.423-13.316-2.668-2.484-5.407-5.46-7.108-9.739-8.431 7.445-9.787 22.737.183 32.866zm-.252-31.435l.58 1.43c-7.51 9.19-5.191 21.253.248 27.691l-.781 1.622c-6.647-7.01-9.557-21.83-.047-30.743zm-44.891 5.198c8.7 2.553 15.67 6.533 25.73 2.987l.046 1.959c-6.402 4.11-19.158-.233-27.775-3.413-13.852-5.113-24.632-4.814-32.333-4.23-.678-.133-1.217-1.903-.13-1.915 14.401-.16 12.074-1.956 34.462 4.612zm1.966-3.464l2.857 3.031c-2.146-.673-4.232-1.42-6.173-2.35zm43.613.748l.56.772c.243.335-1.58.508-1.274.116zm-49.096 5.548c10.386 3.9 21.823 7.792 29.328 4.301 0 0 .048 1.486-.81 1.907 0 0-.792.64-3.44 1.005-12.145.996-20.028-4.031-29.83-7.002-3.718-1.127-9.692-2.493-15.825-2.747-3.642-.166-9.215.357-9.215.357-1.213-.1-1.196-.817-1.206-1.52 10.558-1.408 20.267-.357 30.998 3.699zm50.226-3.74c.134-.006.27.004.405.025l1.062 1.356-1.26 2.003s-1.111-1.023-1.675-2.027c-.31-.65.53-1.313 1.468-1.357zm-30.602.382l3.289 2.483c-2.473.121-5.256.213-8.011-.881zm27.858 1.264c.26-.006.531.268.85.811.612 1.045.531 1.245-.657 1.627-1.56.501-1.682.391-1.177-1.009.343-.953.651-1.42.984-1.429zm4.996.64l2.224 1.867c-1.228 3.195-2.032 7.25.434 13.071-.273.019-1.872 1.596-2.373 1.865-1.409-.59-4.51-12.125-.285-16.802zm-2.53 2.445l-.564 3.533c-.046.29-2.46-1.673-2.235-2.655.43-1.166 1.9-.917 2.8-.878zm-3.99 1.24c.292.002.75.708 1.313 1.631.44.72.35.993-.622 1.868-1.43 1.447-1.712.975-1.395-1.486.156-1.216.374-2.015.705-2.013zm2.96 3.202c.194.004.363.05.487.15l.164 3.441c.015.31-2.686-.122-3.04-1.434-.45-.84 1.34-2.179 2.388-2.157zm-3.566 2.909c.194-.028.799.375 1.371.714.995.59 1.016.85.16 1.95-1.007 1.293-1.507 1.086-1.661-1.163-.057-.826-.119-1.466.13-1.501zm3.964 1.316c.087 0 .165.025.232.082.479.41 1.21 3.859.903 4.219-.439.512-2.744-.17-3.258-.98-.49-.772 1.283-3.32 2.123-3.321zm-2.822 4.061c.265-.018.742.164 1.463.512.433.209 1.157.602 1.317.937.282.59-.186 1.464-.79 2.19-.4.48-.775.123-1.55-1.486-.624-1.295-.881-2.123-.44-2.153zm4.655 1.543a.279.279 0 0 1 .145.034c.785.435.653 1.727-.275 2.683-1.115 1.148-2.083.283-1.313-1.173.487-.922 1.071-1.535 1.443-1.544zm-64.776 32.092c-.679.03-1.738.646-2.2 1.24-.585.753-1.095.654-1.743.6-.771-.012-1.945.158-3.533.883-.9.41-1.311.502-2.631.57-.861.043-1.725.16-1.916.26-.192.1-.812.317-1.376.482-1.153.338-.743.665-.081 2.151 3.365 8.627 5.776 18.678 6.654 26.865.986 9.392.688 20.782-.626 29.48-3.22.021-5.243-.144-8.635-.087-2.314 18.81-8.592 33.746-21.139 47.179l33.918.086c3.886-10.364 21.62-18.269 22.203-17.686l.934 3.782s-12.757 1.823-21.348 18.011c.878-.531 4.078-.163 6.19 2.03 4.22-5.35 11.14-8.845 11.185-8.763l.232-.645s1.269-.431 2.385-.643c.357-.068 1.09-.207 1.578-.377.753-.263 1.126-.544 2.288-.444 2.418.231 4.845-.47 4.794-.483-7.2-19.857-8.902-37.781-6.089-58.603 2.653.02 8.469.12 8.469.12.585-5.85 1.326-11.704 3.123-17.228 2.307-7.092 5.09-13.684 9.57-19.712 2.53-3.786 4.739-6.48 7.354-10.028l-33.202.077c-4.394 7.384-12.86 13.552-19.664 16.122-2.316.87-2.643.74-3.026-.348-.686-1.945-.653-1.863 1.158-2.38.605-.172 2.54-1.191 5.56-2.606 6.41-3.254 10.817-9.21 13.41-13.23 1.03-1.588.338-1.23-1.425-1.246-1.614-.126-2.352-.625-3.803-1.979-.535-.499-.765-.854-1.009-.825-1.895 2.721-5.076 6.312-7.559 7.375zm7.792-6.287c1.493 1.598 3.264 2.533 5.594 2.837-3.725 5.845-8.274 10.415-13.504 13.194l-2.658-7.478c6.517-3.034 8.259-6.073 10.568-8.553zm54.118 2.379c-35.114 32.463-33.048 73.39-8.459 106.634l-2.576 1.549c-23.095-30.948-27.273-76.729 8.014-108.321zm-22.137 3.96l8.608-.018-5.86 7.595-7.863-.028zm-1.348.062l-4.787 7.548-12.914.166c-7.727 9.526-16.027 14.173-24.476 17.345l-1.649-8.135s13.378-3.225 22.042-17.027zm-13.122.625l-2.993 3.31 3.108 3.163 2.839-3.21zm6.776-.077l-3.03 3.151 2.364 3.172 3.143-3.08zm-14.948.574l-.517 4.957 3.9 1.28.57-4.239zm23.725.185l-2.83 4.425 4.262.067 2.98-4.405zm-44.556 1.13l2.762 7.657-2.425 1.17-2.46-7.996zm-3.27 1.229l2.848 7.92-2.384.787-2.616-8.244zm3.413 31.273c.318 11.015.476 17.656-1.366 27.339-.096.506-2.074.058-2.074.058.25.083 1.114-10.943 1.045-17.868-.13-13.188-2.366-26.235-7.542-39.306.986-.603 3.42-.911 3.42-.911 3.266 9.911 6.162 20.573 6.517 30.688zm-34.475-30.543c11.335 15.04 19.438 35.444 18.082 55.576-1.298 23.41-10.173 36.901-25.76 53.112l-4.022.094c18.451-17.692 26.615-32.833 27.259-52.808.74-22.975-6.276-38.255-18.094-54.538zm-36.259 20.675l.04 5.478 38.62-16.564-5.57-8.205zm90.514-17.945l-4.204.213.14 4.243 4.383-.107zm37.476-.806l25.027 32.818-6.193 4.6-23.859-30.839zm-19.616 2.242l7.491.116-2.896 4.805-7.24-.058zm-1.383.118c-3.445 6.406-8.196 13.71-10.864 25.514l-24.66.02c-.045-2.694-.395-5.39-.796-8.084 10.626-3.89 18.857-9.703 24.91-17.386zm4.56.338l-3.215 1.854 1.965 2.259 3.543-1.356zm-29.353 2.36l-1.062 4.18 3.996 1.54.739-4.966zm22.995 3.124l7.187.043-3.027 6.043-7.12-.106zm17.112-.791l23.682 30.699-2.22 1.756-23.145-30.007zm-14.385 1.278l-3.239 2.699 2.438 2.814 2.987-2.385c.063-.05-2.186-3.128-2.186-3.128zm-31.432.222l-.995 4.065 4.156 1.105.743-4.359zm-5.75 2.703l-.844 4.002 3.915 1.057.825-3.857zm-32.32-.401c.201-.04-.654 4.762-1.913 5.628-.601.414-.913.323-1.435-.24-.359-.389-1.987-3.045-1.987-3.045l1.39-.699c1.689 2.7 1.687 1.394 2.326-.907zm-6.49 2.766c.551-.004 1.219.681 1.974 2.008 1.092 1.92 1.055 2.044-.739 2.597-3.229.855-4.43 1.06-3.436-1.071 1.07-2.295 1.492-3.529 2.2-3.534zm9.613-.38l2.21 3.782c-8.862 22.562-23.154 38.747-42.827 48.54l-.045-3.748c23.194-13.202 32.705-28.798 40.662-48.574zm60.249 1.63l6.975.126-1.864 5.334-7.414-.053zm-71.958-.232c-5.677 13.528-13.434 25.332-28.943 35.297l-.062-3.594c17.417-10.496 24.946-30.158 24.945-30.164zm88.157-.023c4.13.113 8.472 4.615 8.031 8.326-.31 2.615.191 4.556.903 3.485 1.573-2.366 6.208-.793 6.167 2.048-.023 1.512-1.033 1.76-1.612.396-.857-2.017-3.263-2.067-3.619.047-.332 1.98 1.347 3.436 5.836 5.058 5.26 1.234 8.426 5.949 6.556 8.66-.65.716-1.041.892-1.163.52a23.309 23.309 0 0 1-.285-1.24c-.597-2.84-1.958-4.034-3.612-3.058-.83.489-.724 1.136-.24 1.99.644 1.136.24 1.578-.913.999-1.82-.915-2.422-3.082-.657-4.082 2.099-.839 1.388-1.02-1.293-1.926-5.708-1.95-8.157-5.527-8.457-12.342.11-3.106-.315-4.214-1.776-4.638-1.338-.389-2.852 1.31-1.892 2.206.521.486.947.928.67 1.197-.886.86-3.106-.537-3.084-2.037.015-.981.386-1.183 1.854-2.337.407-.32.06-.922-.536-.931-2.244.723-2.085-2.244-.878-2.341zm-12.93.786l-3.487 2.004 1.816 2.538 3.86-1.814zm-67.841 1.97c.4 0 .729.323.729.724a.727.727 0 1 1-.729-.724zm7.147.314c7.36 16.06 9.11 34.426 3.988 52.78L60.086 153.12c7.625-8.584 12.75-18.412 15.885-26.924zm-26.877 1.18l-17.733 7.45-.098 13.296c9.908-6.761 14.11-13.683 17.831-20.747zm17.045-.112c1.748-.054.886 4.663-1.383 6.272-.833.64-1.394.561-1.668-.717-.142-.663-.84-2.065-1.719-3.194-1.022-1.313-1.01-1.345.483-1.438 1.649.025 3-.767 4.287-.923zm-1.727 2.005c-1.289-.02-1.675.584-.907 1.41.646.694 1.16.545 1.593-.46.264-.612.027-.94-.686-.95zm-31.984 17.248l.044-11.285 15.165-6.386c-3.043 6.594-8.674 13.132-15.209 17.67zm134.72 9.116l-2.021 2.031-19.578-25.52 1.227-3.222zM59.855 129.82c.656.01 2.145 2.286 2.563 3.92.31 1.211-.019 1.468-2.317 1.81-.953.26-3.525.008-3.316-.676.373-.989 2.838-5.057 3.07-5.054zm70.923.26l7.144.078-1.636 5.86-7.482-.111zm3.157.358l-3.326 2.302 2.631 2.592 3.524-2.177zm11.207 2.52l19.804 25.704c-5.908 7.515-11.802 16.149-15.676 27.56-7.051-16.492-9.633-32.546-4.128-53.263zm-80.435 2.188c.4 0 .729.323.729.724 0 .4-.328.728-.729.728a.727.727 0 0 1 0-1.452zm-2.278.98c1.237.087.07 4.024-1.792 5.46-1.467 1.133-2.097.608-2.436-1.464-.123-.749-.91-2.02-1.602-3.025-.774-1.121-.455-1.3 1.506-.85 1.369.266 3.059-.059 4.324-.122zm66.188.962l7.49.045-1.153 8.898zm-72.98.412c1.181 1.1 2.672 4.96 1.907 5.238-.89.323-4.917-.144-5.367-.608-.31-.32-.311-.321.347-1.202a89.408 89.408 0 0 0 1.535-2.148c.435-.51.917-1.89 1.579-1.28zm4.171.131c-1.14.039-1.217.195-.676 1.424.442 1.003.748 1.093 1.506.435 1.056-.916.613-1.907-.83-1.859zm131.47.773l.27 4.387c-28.792 14.282-39.574 47.999-39.73 47.998l-2.09-3.89c13.212-32.556 30.784-41.983 41.55-48.495zm-135.672 5.189c1.714-.036 2.215-.153 2.206.482.02 1.709-1.578 4.134-3.529 5.05-1.313.615-1.343.63-1.491-.918-.115-1.19-.503-2.723-1.12-3.943-.194-.453-.938-1.49-.003-1.195.936.295 2.868.546 3.937.524zm3.846-.397a.723.723 0 1 1 0 1.448.723.723 0 1 1 0-1.448zm-9.175 1c.31-.01.607.63.96 1.569.77 2.042 1.005 3.149.778 3.63-.351.74-5.076.262-5.88-.565-.152.114 3.476-4.224 4.142-4.634zm3.403.507c-.678.046-.319.454.183 1.636.348.818.818.95 1.357.377.72-.768.816-1.377.362-1.705-.667-.268-1.16-.305-1.902-.308zm137.8 4.438l.025 1.47c-1.122-.335-1.816-.81-3.095-1.235-.783-.263-1.246-.45-.554-1.275 1.084-1.293 2.247-2.102 3.57-2.903l.006 1.665c-2.112.936-1.907 1.8.048 2.278zm-83.228-1.494h7.954v5.252h6.222l-.482 5.985h-5.74v5.252h-7.954v-5.252h-5.681l.458-5.985h5.223zm17.965.018c-4.028 19.96-.333 41.149 5.882 58.413l-3.136.345c-4.844-13.806-8.695-33.461-4.778-58.746 0 0 1.403-.026 2.032-.012zm59.042.388a.723.723 0 1 1 0 1.448.723.723 0 1 1 0-1.448zm-139.934 1.675c.263-.008 1.072.34 1.79.54 1.08.3 1.931.43 2.916.449 1.977.038 2.236.02 1.385 1.646-.613 1.171-1.993 2.719-2.959 3.19-1.367.73-1.891.632-1.81-.714.01-.912-.386-2.499-.902-3.63-.402-.88-.86-1.468-.42-1.481zm8.365.64c.4 0 .729.324.729.725 0 .4-.328.728-.729.728a.727.727 0 0 1 0-1.452zm133.842-.095c.561-.012 1.522.332 2.4.758 2.324 1.13 2.262 1.389-.889 3.625-2.288 1.736-2.829 1.93-2.91-.806-.083-2.307.166-3.55 1.4-3.577zm-143.4.661c.923.013 1.945 4.819 1.115 5.247-1.291.667-5.292-.633-5.275-1.728.004-.356 3.753-3.525 4.16-3.519zm140.62-.198c.552-.024.625.409.575 1.94-.027.812.112 2.135.169 2.752.117 1.28.006 1.369-1.004.796-.648-.367-1.965-.967-3.389-1.09-1.167-.101-1.252-.581-.89-1.351 1.03-1.705 2.897-2.902 4.54-3.047zm-137.193.724c-.805-.006-.605.423-.106 1.627.354.853.967.935 1.598.208.883-1.019.709-1.557-.575-1.753a8.802 8.802 0 0 0-.917-.082zm136.126 1.144c-.335.031-.793.296-1.013.44-.757.474-1.065.816.034 1.192.977.334 1.496.48 1.419-.362-.047-.508-.007-1.244-.44-1.27zm-74.66.623v5.232h6.332v-5.232zm69.003.454a.723.723 0 1 1 0 1.448.723.723 0 1 1 0-1.448zm-118.546.815l19.978 25.642-1.328 3.343-20.576-27.068zm132.124-.12l.044 3.35c-2.257 1.652-16.59 12.038-24.005 29.52l-3.882 1.653c5.465-15.046 17.152-27.932 27.843-34.523zM39.63 155.794c1.3.395 2.542 1.3 3.77 1.462 1.41.172 1.898.082 1.515.811-.856 1.633-2.47 3.342-4.175 3.9-1.218.4-1.794.25-1.602-.506.358-1.418.42-2.58.371-3.872.193-.703-.408-1.689.12-1.795zm-1.525.3c.829.708.664 5.189-.261 6.153-.484.505-1.887.044-3.992-1.148-1.376-.78-1.632-1.256-.946-1.733 1.164-.707 4.572-3.44 5.199-3.273zm142.729.096c.431-.01.965.065 1.607.212 2.49.56 3.045 1.128.922 2.814-.785.623-1.616 1.398-1.858 1.694-1.142 1.4-1.937.385-2.187-2.157-.175-1.78.094-2.793 1.516-2.563zm-3.118.241c.404 0 .664.211.656.714-.01.643.452 3.424.71 4.19.448 1.302.123 1.596-.956 1.028-.786-.424-2.866-.745-3.992-.656-1.28.1-1.244-.243-.869-1.318.665-1.906 3.237-3.957 4.45-3.958zm-136.87.927c-.486-.002-.506.654-.173 2.157.105.479.517.45 1.293-.096.919-.645.881-1.05-.154-1.67-.427-.256-.745-.39-.966-.391zm5.662.164a.723.723 0 1 1 0 1.448.723.723 0 1 1 0-1.448zm128.843 2.814c.347.339 1.632.325 1.853.12.34-.312.182-1.765-.101-1.94-.724-.246-2.186 1.284-1.752 1.82zm-119.908 2.766c.436 2.071 3.35 1.957 3.021-.203-.192-1.261-.236-1.235.396-1.207 3.008.148 2.487 4.89-.98 4.523-.723.086-.82.382-.207.637.608.253 2.937.85 3.296.85 3.772-.013 9.213 5.786 9.08 10.932-.088 3.366 1.053 5.788 2.22 6.063.928.218 2.274-.625 2.157-1.656-.16-1.422.996-.978 1.66.044 1.016 1.41-.294 3.446-2.712 3.287-1.029.2.756.854 2.08 1.236 1.199.068.185 1.546-.038 1.81-.678.787-2.9.185-4.643-1.222-2.14-1.728-3.06-4.043-3.312-8.592-.162-2.923-.38-3.518-1.23-2.312-1.53 2.69-5.19 1.374-5.648-1.467-.256-1.504 1.069-2.59 1.497-1.226 1.134 2.834 3.912 2.153 3.46-.661-.298-1.857-2.155-2.881-5.826-3.915-4.412-1.242-5.724-2.753-6.583-6.371-.381-1.602-.32-2.44.526-3.278.418-.414.95-.835.95-.835s.59 2.435.836 3.563zm115.411-2.297a.723.723 0 1 1 0 1.448.723.723 0 1 1 0-1.448zm-138.483.688c1.313.476 2.442 1.18 3.797 1.641.879.3.639 1.003-.272 2.002-1.015 1.198-2.012 1.787-3.42 2.455l.015-2.025c1.71-.597 2.799-2.022-.074-2.478zm141.902 1.13c.497.005 1.202.023 2.028.194 2.094.432 2.34.619 1.082 2.09a156.64 156.64 0 0 0-1.54 1.83c-1.238 1.724-1.905 1.132-2.481-1.096-.716-2.327-.879-3.22.91-3.017zm-135.338.83a.723.723 0 1 1 0 1.449.723.723 0 1 1 0-1.448zm133.227 1.577c.2.736.503 1.672.734 2.335 1.136 2.506.418 1.537-1.618 1.316-1.369-.149-3.547.08-4.086-.299-.235-.305-.018-1.11.421-2.017.618-1.278 1.741-2.367 2.58-2.862 2.121-.98 1.627.266 1.97 1.527zm-122.315-.89l22.82 30.17-1.79 2.551-23.472-31.021zm143.012.112c-11.862 8.572-16.418 18.976-17.343 20.335l17.39-6.71zm-22.649.983c-.65.179-1.584 1.385-1.183 1.858.24.247 1.197.28 1.656.111.706-.259.224-1.972-.473-1.969zm-100.002 32.63l-4.86 6.125-25.327-32.76 6.39-4.614zm121.386-31.84l.179 11.26-14.875 6.2c4.98-8.414 9.86-13.616 14.696-17.46zm-101.71.954l5.957 7.757-7.28-.166zm75.332.635a.723.723 0 1 1 0 1.448.723.723 0 1 1 0-1.448zm4.366 1.835c2.725.037 3.634.185 2.842 1.524-1.057 1.307-1.681 2.549-2.835 3.758-.665.677-1.498-.72-2.193-2.956-.562-1.805-.277-2.26.79-2.275 1.066-.015 1.248-.053 1.396-.051zm-3.147 2.442c.223.713.744 1.886 1.159 2.602.414.716.879 1.511.85 1.65-.07.336-.388.361-1.105.091-1.553-.7-5.202.04-5.299-.305-.542-.772.271-2.878 1.803-4.337.749-.713 1.434-1.176 1.83-1.183.397-.007.468.541.762 1.482zm-127.288-.554l25.77 33.467-1.783 2.17-26.06-34.113s-4.115 2.016-5.325 2.689l.163 17.309-.705-.034.106 87.673 14.38-14.339-.188-59.488c3.052 2.87 5.662 5.931 9.155 8.745l5.98-.047c15.612-15.879 24.163-29.468 26.04-53.803 1.255-16.28-4.155-36.752-18.5-56.593l-3.504 2.128 6.922 10.43-14.662 6.498c-5.84 12.311-12.762 23.673-25.424 30.18l-.07 15.934-.222.33.167 5.003zm125.996 1.143c-.684.051-1.754 1.527-1.264 2.032.578.274 1.468.255 1.841-.24.255-.484.19-1.51-.577-1.792zm-76.875 3.447l7.568.043-1.979 6.492-7.37-.14zm71.893-.03a.723.723 0 1 1 0 1.449.723.723 0 1 1 0-1.448zm-38.557.198l.978 8.432c-8.255 3.001-17.155 8.093-24.94 17.455-1.33-.087-11.945.092-11.945.092.266.038 9.836-18.02 10.938-25.858zm-29.975.786l-3.47 2.384 2.712 2.892 3.591-2.433zm72.229.035c.738-.004 1.727.086 2.52.227 1.28.248 1.468.272 1.036 1.328-.575 1.4-1.873 3.926-2.2 4.127-1.173.727-3.778-4.484-2.89-5.384.236-.185.734-.294 1.534-.298zm-3.319 1.602c.336-.029.783.623.915 1.185.16.682 1.342 2.401 2.087 3.226.936 1.036.887 1.181-.454 1.289-1.597.127-3.157.441-4.056.768-1.394.506-1.583.394-1.405-1.235.27-2.453 1.908-5.146 2.913-5.233zm-1.223 5.074c.174.474 2.336-.398 2.456-.968-.02-.255-.868-1.734-1.379-1.802-.865.136-1.227 2.097-1.077 2.77zm-73.03-.334l7.153.068-2.345 5.894-7.072-.02zm3.202.79l-3.427 2.168 2.67 2.582 3.282-2.264zm72.743 1.069c.608-.006 1.25.052 1.386.275.38.626-1.168 4.123-1.168 4.123l-2.522 1c-.542-1.116-1.469-2.276-1.694-3.485-.089-.528.178-.721.762-1.049.87-.488 2.224-.854 3.236-.864zm-6.753.286a.723.723 0 1 1 0 1.448.723.723 0 1 1 0-1.448zm-32.62.1s1.545 8.734 1.629 7.771c-11.93 4.493-18.908 11.123-22.214 17.59l-22.383-.015 4.996-7.752 13.25-.067c6.405-7.772 14.307-13.97 24.721-17.527zm-2.866 2.056l-1.106 3.529 3.345 2.133 1.26-3.789zm36.664.068c.284-.026.564.452 1.14 1.473.424.754.983 1.85.983 1.85l-1 .373c-.807-2.758-1.548-1.733-1.635.702l-1.371.546s.149-2.347.932-3.718c.45-.787.7-1.202.951-1.226zM83.7 190.04l6.936.087-2.901 6.01-7.052-.194zm30.254.483l-.55 4.46 3.736.791.512-4.238zm-27.305.053l-3.427 2.215 2.25 2.96 3.296-2.216zm21.948 3.905l-.71 4.107 3.504.797.797-4.132zm-76.158.241l8.77 8.693.483 60.65-8.721 8.746zm47.716 2.22c-.031.049 6.996.202 6.996.202l-2.813 5.076-2.402-.108 3.162-2.158-2.027-2.592-3.249 2.12 1.81 2.62-4.745-.1zm45.241 1.502l2.381 7.87-2.862.497-2.152-7.404c.878-.454 1.755-.679 2.633-.963zm-22.5.492l.048 4.72 3.823.324.15-4.426zm19.004.754l2.178 7.476-1.817.517-2.603-7.097a7.42 7.42 0 0 1 2.242-.896zm-3.317 1.542l2.8 7.32c-3.868 1.569-7.879 4.925-10.898 8.276-2.238-1.645-3.555-1.817-4.935-2.189 3.807-7.093 8.304-10.817 13.033-13.407zm-42.257 1.836l7.356.222-5.117 7.64-8.321-.01zm21.898.285l-.478 4.47 3.939 2.326.598-4.59zm-4.745.627l-2.8 2.959 2.974 3.393 2.727-3.543zm-6.26.154l-3.326 3.051 2.645 3.451 3.04-3.47zm-42.372 2.846l.325 59.25-12.219 11.842-.091-3.187 9.714-10.144c.01-20.041-.053-40.082-.12-60.124zm32.51-1.914l-3.374 4.6 4.002.01 2.9-4.456zm-20.808 28.671c-1.33 4.788-7.464 9.98-7.574 9.892 3.037 4.352 2.935 10.558.256 13.615.013-.069 4.882 3.973 5.566 6.072.385.836.54 1.854 1.028 2.684.129.22.54.766.54.766 11.895-12.061 6.23-26.196.184-33.029zm.178 1.252c11.549 14.328 3.935 27.442-.094 31.1l-.77-1.27c8.582-9.974 4.945-22.226-.055-28.027zm-1.25 2.788c.077.233.527.908.193.864l-.579-.115zm-.086 1.598c.25 0 .46.078.574.251.235.391-.958 3.686-1.696 2.918-.222-.435-.484-.812-.688-1.263-.24-.537-.083-.797.468-1.331.38-.369.923-.574 1.342-.575zm1.66.893c.584.045 1.414 1.883 1.491 3.195.036.137-1.971-.308-2.505-.921.065-.538.568-1.906 1.014-2.274zm-4.518 1.5c3.478 6.99 3.26 12.451.198 17.472l-2.398-2.051c1.613-3.818 2.41-7.894-.305-13.082zm2.346 1.749c.24-.021.983.089 1.641.299 2.327.744 2.414 2.266.174 3.383-.928.463-1.218.258-1.752-2.07-.265-1.152-.464-1.577-.063-1.612zm4.494 2.678c.448-.002.655.846.71 2.308.051 1.388-.244 1.497-1.362.506-1.209-1.07-1.417-1.324-.309-2.205.324-.258.757-.608.96-.609zm-3.172 2.293c.221-.02.864.39 1.492.869 1.59 1.212 1.238 2.044-.57 2.63-1.252.407-1.19.458-1.158-1.708.016-1.071-.048-1.766.236-1.79zm21.065 1.972c-1.942.493-2.758 2.226-2.114 3.785.293.709.739.714.216 1.148-.583.673-.892 2.23-.251 2.798.757.433.951-.314.154 1.15l-14.63 26.872 87.815-.163-10.554-19.767c.024-.028.844-3.261-.844-3.651-.543-.125-.853-.629-.963-1.111.138-1.376-.487-1.96-1.013-2.671-8.348 1.179-15.599.592-21.589-.756-8.628-1.94-14.795-5.3-18.805-6.356-5.53-1.456-12.203-2.088-17.422-1.278zm4.73.186c6.804-.04 14.42 2.042 19.751 4.349 5.53 2.284 11.39 3.986 17.31 4.86 4.885.615 9.758.306 14.43-.065.51-.076 1.04-.006 1.42.398.969 1.076.31 1.75-2.114 1.974-3.89.322-8.714.184-12.993-.458-6.776-.779-13.96-2.827-20.157-5.396-7.746-2.907-14.86-3.88-20.48-3.022-3.087.47-3.541.545-3.529-.285.024-1.618 1.363-2.357 6.362-2.355zm-22.295 4.69c-.299.686-2.415-1.557-2.394-2.19.045-.28 1.758-1.397 2.438-1.851.328-.253.307-.122.311.175.012.845-.055 3.029-.355 3.867zm-3.258-1.654c.976.131 2.582 2.767 1.168 3.176-1.252.361-2.39.594-2.543-.246.644-2.062.887-2.878 1.259-2.925a.787.787 0 0 1 .116-.005zm56.786 9.003c6.233 1.078 14.415 1.723 19.762 1.305 3.066-.308 3.712-.21 3.693 1.069-.012.8.076.78-3.88.777-3.289.219-6.25-.134-9.433-.298-6.586-.327-12.57-1.456-18.1-3.375-6.135-1.592-11.45-4.65-17.454-5.281-5.506-.54-10.458.435-11.497 1.012-.346-.005-.528-.519-.507-.993.02-.463.193-.835.58-1.13 15.78-3.982 24.23 4.545 36.836 6.914zm-54.725-5.272c.526.006.358.784-.502 2.433-.732 1.401-1.02 1.394-1.434-.044-.442-1.536-.4-1.706.478-1.93.517-.125.953-.394 1.458-.46zm-3.683.782c.616.01 1.492 2.8 1.043 3.326-.355.415-1.639.133-2.013-.357-.602-.79.168-2.98.97-2.97zm27.589.754c2.448-.024 4.887.237 7.13.623-1.291.477-2.576.918-3.917 1.693a23.528 23.528 0 0 0-3.213-2.316zm3.18 3.388c8.652-4.823 12.304 1.836 13.554 2.91 7.563-1.674 9.044-.85 13.263 3.709 7.574-3.703 11.245-.555 14.406 1.436 3.709-3.465 8.41-3.561 10.861-1.822.459.767 1.096 1.74 1.148 2.03.04.226-.306-.037-1.158-.647-4.448-3.182-11.829.78-9.857 4.977.531 1.13.447 1.617-.347 2.07-1.128.763-2.514-.503-1.728-1.795 1.312-2.158.324-3.965-2.867-5.633-4.498-2.352-11.847.283-10.335 3.75.968 1.108.07 1.889-1.206 1.849-1.446-.045-1.936-1.013-1.01-2.047 1.158-1.32.854-2.659-.494-4.184-4.038-5.753-12.21-3.472-11.128 1.57.474 1.252-.876 1.757-2.278 1.2-.893-.354-.76-1.733.217-2.22 1.123-.114 1.283-1.74 1.149-2.785-.195-1.52-2.437-3.018-4.654-3.812-1.604-.575-3.095-.698-4.271-.59-2.484.227-3.87 1.913-3.461 4.44.241 1.491-.176 3.037-1.926 2.217-.958-.448-.717-1.532.26-2.53 3.44-3.358-3.484-7.445-7.664-4.63-.709.583-1.226.684-1.226.684 2.621-6.525 10.829-.414 10.753-.147zm11.394-.879l5.224 1.967c-1.205.238-2.054.578-2.907.916zM83.34 263.58c-4.82-.913-5.083 4.473-1.941 5.352-4.322 5.938 6.996 8.242 4.92.916 5.734 1.033 4.697-5.493.432-5.433.998-2.432 8.87-.59 8.53 1.217-5.322.565-3.195 5.413-.892 5.419-5.566 5.268 5.571 10.125 5.275 2.183 4.468.94 4.994-4.992.7-5.382 1.572-2.213 7.19-.818 8.747 1.713-4.433.588-4.156 4.483-.687 5.112-4.397 5.599 6.426 7.668 5.3 1.16 3.879 1.332 6.007-3.842.983-5.32 5.147-3.066 10.735 1.504 10.13 1.597-5.873-.348-4.704 5.538-.454 5.218-2.704 6.111 8.012 6.452 5.294.114 4.82.088 4.397-5.497-.22-5.87 2.907-2.12 6.186-2.306 8.295-.322-4.395 1.156-2.569 6.263 1.852 4.85.41 4.273 3.884 3.367 3.962 3.238l3.11 5.801-84.259.135 7.192-13.272c4.25.218 4.099-3.874 3.912-3.974 2.827 2.018 5.866-2.998 1.73-4.436 3.379-3.535 8.389-.27 8.09-.016zm-27.43-.37c-.175.18-.22.288-.51.02-.735-.841 1.263-.912.51-.02zm17.424 2.223c.37.304.115 1.136-.186 1.42-.76.814-1.016.749-.347-.655.197-.425.384-.77.533-.765zm36.914.376l4.381 1.06-2.08 1.173a26.333 26.333 0 0 0-2.3-2.233zm13.692 1.764l4.764.305c-.63.428-1.247.826-2.017 1.607-.6-.637-1.736-1.274-2.747-1.912zm15.872 4.859c.265.552 1.317 2.474 1.218 2.525-1.54.268-1.954-2.025-1.218-2.525z" fill="#100f08"/></svg>