<svg xmlns="http://www.w3.org/2000/svg" width="224.225" height="312.808"><title>Vectorized Playing Cards 1.0</title><rect y="484.934" x="2690.486" height="311.811" width="223.228" rx="10.63" ry="10.63" fill="#fff" stroke="#000" stroke-width=".997" transform="translate(-2689.987 -484.435)"/><path d="M81.73 261.567l53.415 1.14c4.731 6.494 14.231 19.737 14.231 19.737l-86.3 1.135zm-22.353 4.52c2.308-4.626 2.754-9.086 2.315-15.512-.347-4.932 2.758-8.773 5.96-7.301 2.477 1.138 1.334 5.804-1.227 4.816-.98-.377-1.84-.034-1.709 2.182.229 5.462 1.693 11.614.434 16.85-.877 5.088-7.916 2.744-5.773-1.034zm-21.626-7.134c-2.72-4.055 2.154-7.854 5.204-5.983 1.447.673 1.242 2.137-.581 1.357-2.545-1.09-5.284 2.764-3.07 4.312 1.02.712 1.408.617.633-.275-2.064-2.386 3.215-3.44 3.062-1.869-.36 1.914-.406 2.72-.581 3.096-1.075 1.67-3.142.818-4.667-.638zm7.584-17.05c-2.937-3.644.431-6.51.386-6.405.872-.939-6.998-15.52-6.004-15.615 9.94-1.051 19.985-.258 29.945.05.003.002-5.31 9.494-7.428 14.191-.853 1.893 1.141 4.12.316 5.527-2.564 2.785-.97 5.87-2.568 6.01-4.485-.573-8.917-1.313-13.89-.323-.366 0-.404-2.08-.757-3.435zm43.024-101.31c5.025 25.428-2.384 52.381-19.37 70.163-2.398-2.29-4.237-6.636-6.628-9.471-6.639-1.982-11.415.35-16.07 2.634-4.135-2.369-8.794-3.762-13.334-3.703l-.147-3.932c4.594-.099 9.447.323 13.538 2.84l6.401-2.583-19.96-20.583.27-3.518 24.221 24.293 3.12.11c-6.856-18.113-.859-46.884 27.959-56.25zm33.773 31.895l3.502 16.605s-18.513 19.823-29.96 29.233l-8.624-.78s11.782-20.831 9.62-19.239zm69.596 22.774c-8.221 9.151-18.045 14.97-28.955 21.382-4.362-4.844-9.655-10.171-12.712-14.947 9.517-5.056 18.59-8.973 27.91-17.823-.51.572-11.889 4.41-11.852 3.969-.41 1.889-.164 3.054-2.015 3.55-2.191-3.043-4.31-5.512-7.767-6.873-1.45.13-3.374-.822-3.374-.822.968-.197.542-11.875.003-12.01 0 0 .284-.346 2.815-.295 4.521-.309 7.443-5.745 10.248-7.607 8.766-.717 16.53.141 25.166-.09-.066 10.394.536 21.17.533 31.566zm-55.662-26.326c-.22-.441-2.433-17.664-.331-28.465.387-2.533 4.402-3.393 5.172-5.28 1.277-4.102-.642-9.168.37-13.765 1.03-4.68 3.254-7.313 5.2-10.791 2.108-3.768 5.126-8.47 8.47-11.28.983-.955 4.412 2.123 6.974 7.443 7.444 4.663 16.988-1.354 16.988-1.354s3.704 3.007 12.081 4.65l-.143 3.236c-.042.94-9.422-1.002-11.44-2.88 0 0-6.999 2.33-6.998 2.754.002 1.813 18.474 18.841 18.474 18.841l.104 4.199c-2.77-3.836-24.436-22.272-24.436-22.272 4.803 28.05-6.67 45.517-30.485 54.964zm-30.997-5.49l-.415-16.518 15.787.187.65 16.69zm-72.238-17.855c.422-.586-.614-30.787-.549-30.787 10.047-9.945 19.875-15.503 29.727-21.55 4.455 4.391 8.241 8.095 11.523 13.414l-13.592 8.33c.516 2.03-.825 2.762 7.938 10.667.147-.542 3.034-2.15 3.538.256-1.186 5.081.527 9.4.753 12.131-1.197 1.6-3.872-.117-3.872-.117-1.731-1.796-8.514 7.068-10.45 8.059-8.45-.314-25.49.256-25.016-.403zm95.103-53.853c.11-.107 8.593.065 8.48.368-1.546 4.123-5.382 11.442-8.892 19.886-4.046 7.197-9.657 11.437-14.448 16.153-3.83 3.771-7.244 9.713-9.86 8.171-1.598-5.108-1.967-9.638-3.728-15.298-.807-3.353 4.09-5.538 28.448-29.28zm37.118-28.317c3.108 1.32 11.837.63 13.222.036 1.776 1.199.667 2.798.443 3.685 1.822 2.297 2.82 3.111.75 6.813-.472 0 6.363 15.319 6.546 15.33 0 0-7.223-3.413-9.77-5.717l-4.983 6.595-5.788-7.447c-.021.672-11.154 8.025-11.289 7.67-.35-.35 10.167-11.62 8.08-18.236-.502-1.594.649-3.214 1.435-4.62.54-.963-.186-2.827 1.354-4.109zm-5.778-1.372c.471-.539-2.7-14.391.738-19.982 1.456-2.033 4.09-2.137 5.19-.473.841 2.315-1.665 5.537-2.168 7.111-1.63 4.385.79 10.169-.391 14.312-3.538 9.051-9.805-.89-3.37-.968zm23.553-6.152c-1.865.081-.563-5.467-.255-7.056-.008-.315 3.413-1.11 4.646 1.072 1.99 3.261-.402 7.375-4.39 5.984zm-22.24-27.973l-17.568 21.272c-17.763-2.036-35.588-3.33-53.752-.562L74.659 28.346z" fill="#e2cf00"/><path d="M192.466 26.366l-162.533.503 1.784 258.011 162.163-.958zm-37.395 1.58c1.783 0 3.566.005 5.348.01L140.96 51.788l-.479.16c1.297 3.782 3.148 8.497 4.915 12.077 2.816 5.788 9.89 16.423 5.476 24.93-.432.73-.835 1.085-1.376 1.082-.75-.003-.736-.442-.29-1.295.984-1.88 1.65-6.335 1.258-8.693-.25-1.505-1.09-3.824-2.686-7.33-7.394-13.598-9.705-20.845-9.285-20.845a1.716 1.716 0 0 0-.532-.21l-.726-.24c2.562 8.596 6.726 15.823 10.022 22.514 2.703 6.218 2.993 8.63 1.58 13.157-.548 1.753-1.537 2.876-2.51 2.871-.73-.003-.688-.15-.19-1.04 2.59-4.63 1.99-9.683-1.23-15.563-4.676-9.71-7.482-15.853-9.148-22.083-.041-.002-.853-.273-1.145-.343 1.387 6.484 5.263 13.963 8.87 21.615 2.983 5.893 3.842 10.188 2.767 13.58-.353 1.47-1.478 3.66-2.9 3.725-.556-.003-.643-.292-.118-1.049 2.21-3.774 2.602-7.255-1.353-15.179-3.636-7.285-7.284-15.439-8.53-22.562-.08-.584-1.66-1.277-1.32-.308 1.952 8.413 5.84 17.028 9.97 25.428 2.324 5.214 2.564 8.55.82 11.468-.975 1.631-1.224 2.003-1.955 2.018-.864.019-.849.05-.372-.94 2.11-4.386 1.763-8.25-1.056-14.587-3.866-8.69-7.122-15.882-8.513-23.53-.25-.071-1.558-.577-1.37-.194 1.932 7.286 4.407 14.048 7.596 20.887 1.11 2.372 2.91 6.988 3.492 9.3 1.102 4.402-1.383 10.447-4.636 10.752-1.212.114-1.061-.489.29-1.741 2.326-2.158 2.777-5.598 1.988-9.59-.593-3.073-1.614-6.371-3.018-9.722-2.838-6.777-5.927-13.868-6.904-20.124.032-.56-1.268-.562-.901.024.701 4.398 2.378 9.408 4.213 14.06 2.008 5.09 4.997 10.792 5.975 17.04.801 5.11-2.398 9.935-6.28 10.223-4.677.347-5.598-4.266-4.473-6.429 1.835-3.228 7.164-1.384 5.58 1.917-.912 1.9-3.696 1.402-3.578-.683-.032-.19.267-.761.214-.792-.097-.056-.505.317-.636.55-.946 1.688 1.896 3.952 3.872 2.596 6.62-3.576 2.15-14.478-.736-21.14-2.794-6.205-4.843-11.812-5.731-17.555-.242-.168-1.335-.444-1.182-.247.802 3.066 1.172 5.652 1.97 8.228 1.25 4.04 3.493 8.561 5.323 13.09 1.663 4.459 3.332 8.245 2.572 12.893-.071.43-.247.944-.541 1.257-.298.311-.543.263-.631-.92-.03-.161-.24-.374-.27-.579.162-1.746.043-3.477-.409-5.12-.387-1.375-1.124-2.78-2.68-5.452-.614-.995-2.22-4.037-1.657-1.935.323 1.19 1.426 3.832 2.572 5.745.712 1.188 1.46 4.432 1.239 5.059-.234.612-.777.647-1.03.436-.228-.19-.226-1.058-.285-1.594-.24-2.204-2.502-6.05-4.071-7.559-1.127-1.254 2.655 5.333 2.932 7.089.118.744.35 1.348.095 1.713-.167.24-.507.242-.84.157-.32-.082-.306-.303-.645-1.433-.58-1.936-1.297-2.91-2.785-4.655-.51-.598-.85.15-.038 1.12 1.123 1.769 1.968 2.9 2.254 5.176-.728 1.031-1.087.831-2.61-1.78-1.006-1.723-1.61-2.166-1.874-2.153-.668.032-.038.855 1.836 3.8.97 1.572.994 2.549-.11 2.544-.373-.002-2.468-2.301-2.993-3.298-.436-.827-.976-1.461-.978-.45 0 .4 1.298 2.516 2.188 3.544 1.403 1.62 1.805 1.944 1.983 2.662.085.342.255.94.375 1.328.36 1.166.177 1.499-.55.883-.33-.864-.596-.953-1.5-1.618-.761-.56-1.818-2.013-2.51-3.037-.261-.387-.486-.877-.753-1.271-.68-1.267-1.583-1.377-.93-.099.31.593.81 1.565 1.337 2.286.881 1.25.699 1.903-.347 1.898-.447-.002-1.699-1.639-2.481-2.918-.51-.835-1.308-1.425-1.21-.598.024.205.64 1.672 1.566 2.818 1.004 1.246 1.136 1.908.161 1.903-.666-.003-1.239-.636-2.088-1.927-.806-1.225-1.31-1.657-1.537-1.518-.29.177 1.156 2.607 2.344 3.934 1.123 1.255.3 1.97-.992.854-.7-.606-2.103-2.411-2.496-3.27-.703-1.534-1.156-1.115-.702.1.5 1.34 1.282 2.806 2.225 3.758.495.499 1.515.89 2.012 1.32 1.41 1.215 2.303 2.337 2.188 2.538-4.02.226-7.32-4.05-8.223-6.638-.642-1.703-1.373-1.953-.679.45 1.96 5.971 8.07 9.073 12.294 6.397 2.55-1.616.298-5.82-1.788-4.465-.567.368-.593 1.412.128.854 1.355-1.05 2.717 1.54 1.238 2.306-2.079 1.077-4.385-1.032-2.97-3.587 1.397-2.625 6.998-1.123 5.902 3.117-.664 1.903-3.571 4.28-6.064 4.327-4.631.087-7.83-3.452-9.613-6.946-.228-.45-.638-1.334-.977-2.055-.292-.623-.524-1.085-.548-1.08.516 4.243 4.583 9.49 8.225 10.357 6.052 1.417 7.708-2.178 11.668-5.894 0 0 2.893.375 2.994.313.267-.163 5.63-.401 5.789-.251-21.666 39.15-20.017 85.627-1.386 120.906 1.232 2.581 1.447 2.092-.593 1.566-2.108-.548-4.02.294-5.732-.1-3.541-.72-4.296 1.689-7.018 2.975-3.394 1.278-2.626 3.63-3.435 5.903-.255.352-.44.64-.3.594.224-.075.948-.742 1.002-1.33.14-1.504.678-2.693 1.291-3.292.584-.571.993-.86 1.134-.613.11.193.028.866-.261 1.41-.823 1.55.269 6.736.337 3.045.054-2.929 1.835-6.195 4.327-7.532 1.995-.973 2.614-.873.99.624-1.846 1.96-3.1 4.245-3.174 7.088-.03 1.179.44 2.162.607 1.105-.07-5.413 5.357-11.442 11.176-8.446.29.209.535.602.45.823-5.637-.942-10.54 2.126-9.818 9.393 0 0 .506-1.424.79-2.845.888-4.45 5.938-6.397 9.48-5.177.666.28 1.19 1.217 1.096 1.343-4.332-1.355-9.086 2.725-9.362 7.146-.09 1.437-.055 2.67.683.076 2.798-9.822 11.427-5.37 10.367-4.565-6.68-.794-9.097 3.685-8.943 8.864.096.473.34.631.54 1.072.891 1.951 1.296 3.624 1.367 7.165-.067.912.689 6.719-.074 6.474-2.426-.894-4.269-1.95-8.473-.066-.378.02-.502-.187-.372-.514.174-.44.831-1.309 1.977-2.593 2.582-2.743 1.1-2.007-1.024-.105-1.37 1.229-1.072.389.219-3.807.523-1.701.197-1.907-2.056-3.048-2.318-1.173-3.922-1.353-1.955-.123.772.47 1.595.964 2.47 1.312 1.027.559.91.794.153 3.246-1.472 4.762-1.983 6.502-1.906 9.705.187 7.792 7.638 7.018 11.879 5.267l.176 5.13 15.973 22.42s-55.835-.058-85.708.431c1.707-4.082 19.765-21.372 20.84-24.465.103.015-2.002-6.32-3.108-9.077-5.223-13.015-12.088-18.486-8.112-27.037.855-1.695 1.004-2.266 1.654-2.263.882.004 1.165.588.172 2.246-4.268 7.134 4.84 19.442 7.917 27.293.493 1.257 2.554 7.148 2.916 9.132.035.606 1.48.813 1.076.105-1.135-4.012-2.559-8.393-3.22-9.97-2.432-5.796-4.99-9.75-7.361-15.416-1.325-3.58-2.03-7.714.025-11.426.748-1.351.962-2.102 1.455-2.173.425.002.675.146.702.494.03.38-.204 1.001-.764 1.95-3.588 6.088 2.79 15.924 5.95 22.937 2.061 4.572 3.893 9.38 4.542 13.718.009.3.406 1.093 1.197.552-1.367-8.102-5.385-15.957-8.905-23.526-3.006-5.913-4.135-11.067-.117-15.935.35-.336 1.1-.28 1.153.218.029.339-.23.98-.859 2.278-3.54 7.377 1.941 13.369 4.513 20.403 2.508 5.88 4.842 10.82 5.78 17.087.709.268 1.06.604 1.136-.283-1.835-8.855-5.79-16.814-9.222-24.481-1.586-3.332-2.147-4.929-2.254-7.16-.148-3.069 1.402-6.951 2.791-7.975.36-.265.586-.313.915-.134.45.244.36.406-.532 2.087-1.703 3.211-1.85 6.819-.27 10.634 2.728 5.859 5.026 10.668 6.654 14.975 1.782 4.712 2.784 8.803 3.188 12.496 0 0 1.213.538 1.033-.266-.757-5.166-2.47-10.528-4.318-15.065-1.745-4.281-3.93-8.403-5.703-12.648-2.149-5.091-.37-10.656 4.038-13.436l2.027.044c-.118-.053-4.624 1.73-4.86 8.149-.225 6.116 2.682 9.875 4.783 15.056 2.562 6.248 4.855 11.728 5.4 18.405.2.233 1.31.282 1.292.184-.546-4.492-1.861-8.762-3.74-14.01-1.998-5.578-3.984-8.052-5.837-13.908-1.254-3.962-1.085-9.329 1.708-11.782 4.18-4.21 10.013-1.212 8.55 3.607-1.127 3.39-5.787 2.716-5.761-.46-.006-2.053 2.527-2.607 3.366-1.059.195.302.325 1.621.412 1.67.087.05.35-1.038.351-1.28.008-1.686-2.286-3.106-3.995-2.25-2.34 1.172-3.86 3.866-3.706 7.473.164 3.837.862 6.319 4.011 12.335 3.67 7.01 4.887 14.6 5.67 19.715.339-.141.745.04.877 0-.535-6.973-2.833-14.135-5.7-20.089-3.473-7.211-4.446-11.624-3.287-14.855.17-.475.332-.832.54-.863.39-.058.51.56.87 1.855.11.397-.03 1.022-.11 1.504-.302 2.958 1.777 9.11 3.71 11.843.567.78 1.29.753.665-.63-1.992-3.575-3.205-6.815-3.364-11.16-.047-1.278 1.445-.704 1.479-.064.108 2.076.316 4.52 1.31 6.26 2.02 3.443 3.145 3.593 1.078-.251-.459-.892-1.772-4.664-1.243-5.96.295-.264.653-.312.83-.047.585 2.131 1.393 4.242 2.823 5.883.75.855.874.469.48-.598-.659-1.234-2.719-5.361-1.77-6.291.306-.252.126-.115.958 1.238 1.159 1.885 1.79 2.624 2.354 3.174.749.733.93.24.156-1.048-1.546-2.573-2.426-4.711-1.882-5.25.536-.531.666-.285 1.887 1.786.543.922 1.33 2.28 1.6 2.6.266.319.51.401.516.138-.285-2.499-2.44-5.35-3.307-5.846-.125-.232-.08-2.206-.08-2.206 3.237 1.66 3.369 3.534 5.513 6.42.22.214.535-.048.441-.446-.075-.54-1.344-2.941-2.14-3.996-.626-.828-.654-1.303-.123-1.542.858-.386 2.055.884 3.33 3.15.593 1.053 1.384 1.663 1.386 1.111.002-.304-1.1-3.016-1.86-3.8-1.266-1.306-.64-2.22.826-1.011.665.548 1.567.96 2.496 2.956.542 1.165 1.008 1.314 1.01.384.003-1.044-1.76-3.597-2.946-4.303-.918-.548-1.44-1.159-1.182-1.566.805-1.178 4.06 1.827 5.172 4.621.329.825.903 1.246 1.044.883.25-.185-.41-2.199-1.086-3.132-1.118-2.132-3.76-4.191-5.324-3.943-.303.048-1.134-1.699-1.134-1.699 3.992-.641 7.87 4.118 8.56 5.898 1.309 3.38 1.975 2.983.83.02-2.237-5.793-9.187-9.037-13.044-6.235-2.196 1.595-.883 5.412 1.376 4.764.899-.335 1.769-1.246.19-.945-1.758.175-2.318-2.488-.527-3.022 2.883-.86 3.543 3.712 1.215 4.73-2.415 1.031-4.82-.506-4.593-3.145.428-4.99 6.585-6.432 12.664-2.397 1.71 1.135 3.813 4.836 4.536 7.18.24.774 1.045 1.045 1.143.948.231-.23-1.688-4.348-2.32-5.395-2.646-6.032-12.216-6.33-12.216-6.019 0 0-3.749 2.348-7.078 6.217l-8.553-.784c21.792-34.833 23.505-86.047 1.153-122.303.285.184 4.296 1.216 5.68.133 1.02-.486 1.312-.655 2.438-.252 1.268.454 2.605.053 3.986-1.205 1.04-.947 1.061-1.24 1.732-1.153 1.984.256 3.302-.9 3.71-3.748.161-1.12.271-2.282.11-2.112-.094.099-.324 1.067-.47 1.675-.402 1.674-.773 2.287-1.428 2.833-1.08.9-1.703.396-1.253-.968.426-.88.78-3.146.194-4.176-.102-.185-.127.516-.275 1.077-1.178 4.464-2.412 6.73-4.547 7.253-1.002.245-1.466.093-1.142-.481 3.767-3.995 3.516-8.422 3.231-8.043-.8 2.561-2.288 6.378-4.73 7.948-2.11 1.355-5.2 1.484-6.919.346-.975-.646.5-.837 2.708-.867 3.721-.05 7.199-4.995 6.621-9.164-.136-.77-.348.057-.65 1.324-1.373 4.514-3.727 7.684-9.106 6.738-.42-.074-.7-.35-.93-.508-.875-.604-.553-1.018 1.187-.792 3.89.505 7.276-3.125 7.255-7.512-.01-2.105-.314-2.08-.65-.512-.474 2.21-2.202 8.99-8.494 6.776-1.133-.612-1.75-1.394-1.347-1.51 3.67.737 7.032-.065 8.339-4.863.564-2.071.429-4.094-.145-5.789-.182-1.15-.571-2.028-.702-3.198-.351-3.133-.853-6.592-.702-10.021.3-.298.353-.233 1.409.465 2.074 1.37 3.642 1.055 5.75.242 2.714-.975 2.468-.799-.37 2.391-.59.666-1.189 1.478-1.257 1.604-.722 1.347.632.358 1.647-.91 1.41-1.764 1.705-2.17 1.983-2.17.094 1.907-.596 4.223-.954 5.785-.468 1.732-.462 2.132.646 2.576.48.193 1.407.572 1.921.817 2.32 1.103 2.107.205.257-.836-2.499-1.404-2.52-1.334-1.803-3.667.837-2.737 1.25-5.107 1.703-7.815 1.122-6.698-3.953-10.382-10.695-8.043-.386.193-.832-3.52-.769-4.503.06-.355-1.019-.277-1.903-1.357.27-.24-9.94-12.975-14.695-20.698 26.66-.032 53.441-.48 80.18-.474zm-16.578 23.929a.904.904 0 0 1 .104.076c-.044-.052-.08-.076-.104-.076zM161.6 28.553h28.594l.412 61.59-2.533.061s-4.774-8.175-6.031-12.038c-.314-.964-.864-2.292-1.077-2.813-.486-1.182-.825-1.328-.18-2.05 1.29-1.446 1.036-4.37-.219-5.78-.388-.457-.589-.302-.57-1.414.018-.955.107-1.566-.146-2.059-.425-.823-.712-.882-.105-1.789.636-.95 1.48-2.49 1.836-3.7.576-1.955.17-2.32 1.452-1.86 3.218 1.02 5.912-1.267 5.828-4.498-.07-2.719-2.625-5.143-5.595-4.4-.685.172-.82.113-1.874-.545-.302-.189-.763-.588-1.153-.736-.49-.185-.893-.17-1.096-.517-.4-.683-1.642-1.768-3.156-1.699-.924.043-2.125-.29-2.443-.455-.528-.275-2.009-.051-3.891-.332-.837-.125-1.512.199-1.917.204-1.16.014-.686-.13-.907-1.006-1.452-4.573-5.695-4.028-7.639-.589-.713 1.35-1.23 3.352-1.5 5.42l-11.425-.172zm-88.426.133c4.268 5.407 8.352 11.467 12.654 16.987 5.295 6.686 5.47 7.454 4.048 14.183-.795 3.802-1.136 4.68-2.747 4.393-1.513-.27-2.793.915-3 2.416-.386 2.816 2.34 4.55 5.078 3.14 1.444-.742 1.492-.822 1.01 1.633-.689 3.518-2.071 6.547-2.96 6.448-2.296-4.852-7.881-1.4-6.027 3.646-.58.88.182 1.997.474 2.919 0 0 .012.11-3.178 1.16-15.665 4.618-35.067 16.674-45.66 27.99l-.722-84.682zm89.888 11.554a2.569 2.569 0 0 1 1.812.66c1.366 1.222 1.045 2.93-.844 6.144-1.982 4.48-1.441 8.009-.987 12.712-.013 2.731-.94 5.326-2.415 6.448-2.392 1.818-5.34-.616-4.1-3.084.635-1.226 1.984-.51 2.301-1.67.114-.693.101-1.785.176-2.301-.285-2.062-.876-8.351-.878-10.534.025-1.88.644-4.242 1.5-6.012.835-1.475 2.18-2.331 3.435-2.363zm3.767 7.309c-.543.45-1.447.46-1.553-.103.003-.589.465-2.467.785-2.675 1.959-.456 1.335 2.292.768 2.778zm2.928-2.93c1.618-.063 2.685 4.063 1.281 6.477-.267.05-2.23.038-2.24.076-.032-.431.096-1.292.243-2.116.125-.705.198-1.24-.015-1.998-.53-1.89-.877-2.245.731-2.438zm3.084.058c.06-.002.123 0 .19 0 1.644.007 2.58 3.171 2.064 6.628-.074.497-.117 1.017-.299 1.134-.687-.185-2.594.493-2.628.487-.18-.182-.107-1.166.137-2.053.45-1.64.577-2.731.048-4.427-.38-1.466-.394-1.745.488-1.77zm4.095.91c1.806.303 1.924 5.29 1.182 6.91-.177.238-.858.18-1.101.27-1.536.438-1.194.667-1.016-1.77.123-1.672.152-2.97-.1-4.351-.121-.606-.17-1.028.271-1.068.256-.051.53-.043.764.01zm-9.01 1.95c.718.983.14 3.257-.409 4.102-.626.932-.878 1.009-.536 1.417.145.173.447 1.054.261 1.424-.344.684.54.807 1.343 1.224 1.303.68 1.935 1.932 2.907 4.213.34.795 1.035.544.697-.311-.288-.733-.4-1.81-.6-2.53-.209-.74.02-1.11.875-.893 1.286.326 1.108.02 1.578-.152 1.031-.57 1.724.237 1.1.683-.357.257-1.12.412-1.965.644-.717.197-.55.886.171.883.666-.003 2.575-.538 3.82-.914 3.57-1.079 3.69-1.652 3.355.374-.44 2.68-1.905 4.691-4.327 5.372-2.108.592-6.975.478-9.144-.214-2.059-.931-2.195-1.582-2.818-3.392-.852-2.478-1.355-6.673-.375-9.11.863-2.06.776-1.843 1.604-1.74.736.257 1.726-.028 1.945-.479.111-.214.392-.607.518-.6zm13.67 1.486c.203 1.102.222 2.236-.162 3.089-.222.4-1.472.379-1.955.384-.285.067-.263-3.725.043-4.137.727-1.09 1.667-.214 2.074.664zm-36.218-.655l3.534.043v.859l-4.17-.029zm12.37.147l.004 1.115-5.324.01v6.984l5.955.02.034 1.451-7.972-.028.024-9.547 7.279-.005zm27.06-.223c5.458 1.198 3.023 7.227.977 7.592-2.55.455-4.711.168-4.004-2.073.709-1.52.217-3.412.417-4.793.492-.455 1.777-.909 2.61-.726zm-41.148 2.116l5.252.053v1.153l-6.002-.015zm11.668 1.063a1.518 1.518 0 1 1 0 3.037 1.518 1.518 0 0 1 0-3.037zm14.818.603c.977.107 1.061 1.6.663 2.038-.512.507-1.468.29-1.759-.487-.263-.7.325-1.582 1.096-1.551zm-27.952.65l6.718.019v.935l-6.785.057-.18-.603zm37.822.403c.931-.022 1.502.762.92 1.429-.877.973-2.666-.517-.92-1.429zM108.42 55.17c-1.503 1.269-.298 2.516 1.699 1.314 4.296-2.584 10.634-.536 14.765 1.617.81.414.92-.552.123-1.22-3.815-3.358-11.95-5.284-16.587-1.71zm65.106-1.766c1.05.005 1.034 1.312.36 1.78-.673.292-.79.21-1.238.036-.613-.239-.155-1.81.878-1.816zm3.717.02c1.244.061 1.105 2.563-.773 1.66-.681-.73-.24-1.665.773-1.66zm-34.727 1.29l6.53.056v1.063l-6.107-.062zm-42.197 2.5c1.785 1.415 1.231 1.501-1.727.46-1.933-.43-3.857-.156-5.067.323-1.432.566-1.764.402-1.144-.556 1.666-1.868 6.255-1.49 7.938-.227zm8.58 2.344c-.18.441-.791-.354-1.619-.2-1.18.22-.84.276.408 1.694 1.249 1.42 1.657 1.755 1.58 2.302-.112.804.115 1.246.916 1.157.386-.042.843.404 1.433.94 2.043 1.856 3.075 2.779 3.74 3.065 2.704 1.167 1.486-.15-.243-1.343-2.882-1.989-3.884-3.314-1.836-2.605 2.176.754 5.637.327 7.34-.7.84-.506 1.37-1.282 2.553-.903 1.661.53 2.297-.448 1.836-.997-.753-.483-2.475-1.06-4.109-2.159-3.497-1.774-7.173-1.721-9.622-.294-1.444.841-1.947.25-.532-.584 5.677-3.06 10.169-.129 13.803 2.07.63.382 1.07.35 1.073.08-.097-.888-1.714-1.434-2.368-1.832-5.063-3.081-10.385-4.064-14.354.309zm34.471-2.71l5.675.005v1.12l-5.257-.024zm-46.173 1.429c1.572-.008 4.992 1.403 4.935 2.571-.066.444-.922.046-1.665-.408-1.438-.878-3.645-1.113-5.723-.726-1.595.298-2.102.56-2.33.37-.551-1.238 3.324-1.8 4.783-1.807zm61.362.835l.01 2.007c-3.081.224-3.715 3.647-1.739 5.553 1.62 1.563 4.298.947 5.644-1.269.235-.394.263-.631.408-.436.09.122.168.495.242.859.213 1.053-.09 1.323-.788 2.225-1.128 1.458-1.282 3.296-.574 4.664.194.377.602.915.531 1.163.395-.012-3.498 10.88-9.183 16.368-.952.633-1.642-.11-1.151-1.132 4.631-10.584-4.23-20.416-7.668-29.874l14.268-.128zm-41.172 1.826l.811.072c-.652 4.876-5.384 4.09-5.57.118l.683-.023c.922 3.695 4.086 2.182 4.076-.167zm-26.728.1s.341.545.341.85c0 1.134-.018 2.776-.047 3.273-.274 4.692-6.227 5.562-5.775 1.547.355-1.704 2.508-1.893 3.037-.35.773 1.939.91-.468.92-1.22.631-1.182 1.093-2.617 1.524-4.1zm28.688.332c.244.006.681.22 1.025.589.391.42.245.63-.67 1.1-.99.51-1.438.466-1.081-.564.221-.64.412-1.133.726-1.125zm44.536.247c.134.006.479.183.398.693-.134.85-.87 1.335-1.062 1.134.122-.45.27-1.65.664-1.827zm-51.644 1.646c-.117.345-.32.195-.84-.246-.573-.487-.543-.798.047-1.149.849-.51.9 1.078.793 1.395zm-18.026-1.271c.993 3.14 3.018 2.74 3.924.152l.868-.015c-.191 4.043-5.308 3.97-5.352.062zm-1.794.389c.303-.048.086 1.001.086 1.001s-.84-.433-.347-.892a.677.677 0 0 1 .261-.11zm7.516.266c.104-.007.3.073.513.213.497.33.411.523-.157.997-.875.729-1.27.324-.797-.655.176-.365.308-.547.441-.555zm65.352.683c.37-.023.89.144 1.988.436 3.029.805 7.081.775 10.53-.175 1.089-.3 1.897 1.61 1.31 2.999-.26.613-.215.69.578 1.513 1.124 1.17 1.305 3.053.45 4.769-.62 1.249-.58 1.137.157 3.27.337.975.772 1.97.85 2.239.93 3.142 3.228 6.854 4.63 9.96 1.4 2.183-2.51.023-2.51.023s1.051 1.408 2.45 2.463c1.354 1.03 4.018.333 5.237 1.585.286.394-.277 8.727-.564 8.958-12.038-.56-32.119-.118-32.119-.118l3.763 5.864c5.92 2.365 11.579 1.773 16.992-1.632-.134.49 6.586 3.775 12.104 4.133l.033 3.948c-4.094-.46-8.243-.554-12.047-2.947 0 0-3.496 1.462-6.999 2.558l19.616 20.29.01 3.392s-8.375-7.816-16.993-16.627l.186 43.326 16.972.333c-.533 11.276-.318 18.444-.204 31.359-8.02 8.228-19.056 16.46-29.252 21.404-4.812-4.64-8.788-9.666-12.266-15.041-.074-.114.35-.33.278-.444-.107-.166-.71-.228-.82-.391-2.12-3.158-7.047-11.913-6.267-12.119 1.508.105 8.497-.76 9.888-4.949.012-.265-.151-1.012.038-1.888.491-2.271.743-5.718-.09-7.91-1.502-3.95 3.017-2.684 3.17-2.42l-.005-14.923c-5.88 4.714-11.812 9.353-19.673 11.293-4.888-24.643 2.865-55.291 24.968-76.076l-1.212-.103c-22.71 23.497-28.665 49.336-24.79 76.55 0 0 .144.85.166 1.137.053.677-.11.936-.712 1.425-.574.377-1.095.782-1.043 1.247.097.874-.743.902-1.842.897-.506-.443-1.187.116-1.594.318-.57.085-.853-2.241-1.58-.536-.277 1.076-.802 1.157-2.016.622-.763-.223-.78.155-.048 1.039 1.013 1.09 1.87 2.719 1.704 3.207-.372 1.096-.21 2.2 1.338 2.828-.089.008-.935 3.342 1.466 3.246.764.007 2.7.398 2.7.398.125.638-.08 1-.38 1.282l-1.67-.836-.437 1.989-2.225-.157 5.414 6.686.631-5.215 6.33.802c1.016 2.636 7.41 17.301 19.634 28.213 0 0-6.681 2.908-8.555 3.82l-1.162-4.157-1.049 1.51-1.87-.48-.218 1.708-1.665.536 2.904 2.193-7.464 2.269c-21.323-34.391-30.972-82.162-4.418-132.68l6.71.086-1.31 2.24 1.908-.304.539 1.632 1.4-.661 1.408 1.765 1.603-4.715s4.753.108 5.346.048c.465-.053 10.047-8.092 9.841-8.399-.148-.221-10.435 7.296-10.78 7.008 0 0-1.033.246-.228-.716 1.444-1.728 2.463-3.041 3.929-5.523 2.422-3.296 3.51-7.317 4.08-10.04.01-.192.062-.63-.1-.95-.923-1.832-.719-3.029.94-5.19.581-.757.617-.945.451-1.41-.374-1.05-.015-1.947.75-2.652.303-.28.5-.414.787-.432zm-56.534 7.317c4.21 1.729.829 5.559-2.298 2.22-1.639-1.75-2.933-1.638-3.825-.36-.402.576.183 1.588.703 1.267.481-.298.977-.652 1.68-.005 5.325 4.903 9.148-1.96 4.56-3.668-.569-.261-1.375.318-.82.546zm-17.345-.166c.04-.003.087.018.148.056.199.125.214 1.858.014 2.586-.665 3.692-3.297 12.27-8.698 8.072-2.144-1.668-.193-5.855 2.373-4.432 2.004 1.11.651 3.761-1.519 2.24-1.053-.739-.719.784.171 1.219 1.508.789 4.238-.562 5.519-2.97.51-.96.989-2.657 1.527-5.101.271-1.23.293-1.661.466-1.67zm.456 6.391c.445 2.67-1.587 7.343-4.48 8.033-2.213.528-4.95-.914-4.754-2.249.057-.388.215.124 2.221.456 2.801.462 4.584-1.05 6.197-4.532.509-1.099.727-1.683.816-1.708zm6.97 1.276c-.001.302-.145 1.097-.27 1.623-.299 1.251-.486 1.726.882 1.106.905-.417 2.228-.83 3.597-.071 1.51.837 2.952.682 4.73-.072 1.546-.514 2.299-.52 3.16-.023 1.575.905 1.035.327.831-1.955-.14-1.607-.579-1.396-1.143-.788-.37.399-1.12.486-1.955.038-.995-.534-2.38-.28-2.847.1-.466.379-1.141.431-2.055-.185-.605-.409-.942-.195-1.684.137-1.222.548-1.69.252-2.354-.26-.602-.44-.885-.302-.892.35zm-6.064 1.917c.16-.001.177.615.067 1.856-.51 4.577-4.094 7.126-8.313 4.91-1.848-1.054-1.598-1.798.223-1.138 2.901 1.052 5.831-.419 7.264-4.18.367-.965.619-1.446.76-1.448zm10.297 3.265c2.086.863 4.4.589 4.988-.176.66-.858-.354-.717-.884-.588-1.826.437-3.08.277-3.82-.052-2.162-.835-2.026.07-.284.816zm-21.765 2.567c2.704 3.31 3.06 3.957 5.39 7.72 17.032 28.908 22.485 65.445 11.288 98.614-3.072 9.153-7.406 18.48-12.265 25.974l-5.832.062 2.002-2.283-2.714.2-.166-1.51-2.06.665-.99-2.277-1.866 5.214-10.809.029c25.316-24.601 30.302-54.415 25.58-78.349 0 0 2.116-1.323 2.41-2.097.072-.188.23-.987.376-1.106.94-.615 1.566-1.213 2.03-1.096.268.068.405.191.598.475.892 1.306 1.085 1.51 1.571.194.35-.944.2-1.286 1.348-1.105.672.357 1.566.347 1.485.213-.06-.099-1.014-1.219-1.466-1.855-1.069-1.504-1.375-1.776-1.277-2.434.15-1.004-.649-2.087-1.148-2.359.144-2.703-.894-2.973-3.834-3.577a2.494 2.494 0 0 1 .27-1.262l1.728 1.376.626-2.553 2.344.128-6.795-6.577c.034 1.856.122 3.731-.047 5.519-3.186-.174-6.328-1.2-6.376-1.006C78.026 109.82 70.9 100.508 63.375 93.24l7.516-3.61 2.13 4.06.523-2.3 1.865.327.313-1.476 2.059-.29-2.273-2.158zm44.759 4.75c.287.361.517.387.901.716l-.768.546c.036-.517-.01-.782-.133-1.262zm-50.007 1.357a1.16 1.16 0 0 0-1.158 1.157 1.156 1.156 0 1 0 1.158-1.157zm6.27.183a1.158 1.158 0 1 0 0 2.316 1.158 1.158 0 0 0 0-2.316zm-20.201.846c3.721 3.093 7.143 7.124 11.293 13.428l-.086.85 1.267.47s6.903 9.086 6.539 13.124c-2.37.495-4.204-.38-8.442 3.583l-2.723-.594-2.866.698s.037.898.75 1.2c.31.132.823-1.125 1.157-1.086 1.393.16 2.797.183 2.539.621-.292.126-1.04 9.153.413 11.075.81 1.957.23 1.941-.499 2.301-.79.517-3.278-.574-3.278-.574l.574 14.335c6.566-7.49 20.434-12.486 19.45-11.943 6.96 36.765-9.588 61.291-26.91 79.269l9.078.052s-7.826 12.553-8.408 16.024c.444 1.153 1.675 3.542-.404 5.22-.703.77-.778 4.27-.778 4.27-4.773.164-8.911-1.493-14.415.436-.569.192-.693-2.996-.721-3.573-1.691-1.582-1.959-4.8-.498-6.472.541-.616.311-.289-.143-2.372-.725-3.325-3.139-7.883-4.977-10.81-.602-.958-1.206-2.078-1.352-2.424-1.314-1.558-4.767-.838-5.187-1.248-.382-.32-.629-8.82-.242-9.025 13.605 1.08 34.895-.156 34.895-.156l-5.713-7.981c-7.037-2.744-16.707 1.94-16.24 2.188.022.027-7.73-4.227-13.106-3.623l.176-4.168c4.776-.02 9.183.87 13.03 3.14l6.536-2.434-20.033-21.016.232-3.463s5.117 5.478 10.681 11.33c4.773 5.021 6.558 5.865 6.558 5.865l.014-43.587-17.224-.043-.46-8.906-.446-.778-.204-6.391.479-.65-.166-2.734-.162-.389-.218-6.529.37-.55.057-4.11c8.324-8.146 29.813-21.85 29.813-21.85zm14.714 1.239l2.007 8.797 1.347-1.67 2.07.65.142-2.026 1.883-.655zm68.447 1.463a1.158 1.158 0 1 0 0 2.315 1.158 1.158 0 0 0 0-2.315zm-5.419.724a1.158 1.158 0 1 0 0 2.316 1.158 1.158 0 0 0 0-2.316zm-66.369 1.025a1.158 1.158 0 1 0 0 2.316 1.158 1.158 0 0 0 0-2.316zm70.524.698l-8.056 7.577 2.258-.095.405 2.211 2.021-.925 1.636 1.51zm3.43 2.546a1.158 1.158 0 1 0 0 2.316 1.158 1.158 0 0 0 0-2.316zm-64.075 1.492a1.158 1.158 0 1 0 0 2.315 1.158 1.158 0 0 0 0-2.315zm5.01.967a1.158 1.158 0 1 0 .001 2.316 1.158 1.158 0 0 0 0-2.316zm-4.545 1.723c.222 3.096.584 6.768.665 9.87l1.527-1.505 1.766.717.626-1.903 1.922-.095zm49.609 2.582a1.158 1.158 0 1 0 0 2.316 1.158 1.158 0 0 0 0-2.316zm-52.93.203a1.158 1.158 0 1 0 0 2.316 1.158 1.158 0 0 0 0-2.316zm57.52.281c-.64 0-1.158.519-1.158 1.158 0 .64.612 1.158 1.157 1.158.546 0 1.158-.518 1.158-1.158 0-.64-.518-1.158-1.158-1.158zm-.687 2.501l-6.68 6.87 2.188.203.688 1.95 1.4-1.186 1.699 1.244zm3.668 1.473a1.158 1.158 0 1 0 0 2.315 1.158 1.158 0 0 0 0-2.315zm-52.663 2.141a1.158 1.158 0 0 0 0 2.316c.64 0 1.158-.612 1.158-1.158 0-.546-.518-1.158-1.158-1.158zm-28.37.707l-2.173 1.666.536-.08s1.315 1.529 1.315 1.636c0 .108.806-.028.806-.028zm33.846 1.011a1.158 1.158 0 1 0 0 2.316 1.158 1.158 0 0 0 0-2.316zm-8.294 1.651a1.158 1.158 0 1 0 0 2.316 1.158 1.158 0 0 0 0-2.316zm47.829 2.333a1.158 1.158 0 1 0 0 2.316 1.158 1.158 0 0 0 0-2.316zm-4.57 1.699a1.158 1.158 0 1 0 0 2.315 1.158 1.158 0 0 0 0-2.315zm46.644.286l2.405 2.615v38.253l-2.349.048zm-93.652.27c1.96.003 4.145.286 4.84 1.476 1.082 1.336-1.219.82-3.155 1.11-1.79.22-.751.584 1.775.731 3.481.206 4.849.297 5.367 1.1.294.747.079 1.251.141 2.056l-3.952-.185c-2.05.002-3.254-.037-3.863.118-.484.124-.345.512-.18.679.086.087 1.66.108 3.497.156 4.947.13 6.04.297 6.392 1.889.265 1.46-.925 1.237-6.007.683-2.262-.184-3.479.347-3.806.508-.557.273 1.615.543 2.325.427.444-.07 3.706.283 4.906.508 1.01.153.121.125-.389.74-.337.51-.23 1.094-.759 1.38-.648.343-1.933.337-4.237.338-2.635 0-3.864.64-.247.797 2.336.101 2.468.06 2.667.735.528 1.663-.597 1.956-2.98 2.335-1.139.195-2.828.086-4.104-.005-5.041-.359-6.788-1.56-7.469-3.782-2.542-8.288.596-13.348 7.938-13.755a24 24 0 0 1 1.3-.038zm50.948.37l-5.692 8.28 2.194-.853 1.044 2.244 1.755-1.253 1.754 1.082zm-42.587 1.007c.295.36.166.63-.323.896-.411.225-1.116.059-1.58-.142-.612-.265-.673-1.358-.17-1.476.723-.144 1.62.192 2.073.722zM48.922 123l-3.112 2.98.094.114 4.1-1.613zm87.366 1.272a1.158 1.158 0 1 0 0 2.316 1.158 1.158 0 0 0 0-2.316zm42.38 1.001s2.9 2.864 4.09 4.067l-1.077-.005.029 2.258 3.43.038 1.884 1.846-5.239-.023v2.306l6.487.004-.033-.987 2.562 2.32.304 25.652-12.361-.038c-.046-12.63-.01-24.807-.076-37.438zm-84.797 2.78c-.178.555-.575.557-1.253.28-1.003-.408-.86-1.514-.1-1.632 1.436-.163 1.7.498 1.353 1.353zm3.89.485a1.158 1.158 0 1 0 .001 2.315 1.158 1.158 0 0 0 0-2.315zm-4.075.887c.452.028.902.26 1.158.512.633.64.409 1.236-.3 1.604-.793.413-1.352-.15-1.584-1.091-.156-.635.215-1.004.726-1.025zm36.345 3.036a1.162 1.162 0 1 0 0 2.325 1.162 1.162 0 0 0 0-2.325zm-38.262 1.41c.998.034 1.299 1.053.778 1.6-.747.74-1.908.422-2.073-.286-.053-.796.596-1.314 1.295-1.314zm34.113.47a1.158 1.158 0 1 0 0 2.315 1.158 1.158 0 0 0 0-2.315zm4.112.768l-5.181 8.693 2.097-.83 1.272 1.675 1.31-1.144 1.978.968zm-40.66 1.452c.928.005 1.187.733.513 1.4-.457.454-.975.468-1.504.048-.8-.637-.187-1.453.992-1.448zm44.29.108a1.158 1.158 0 1 0 0 2.315 1.158 1.158 0 0 0 0-2.315zm-37.722.913c-.64 0-1.11.518-1.11 1.157a1.158 1.158 0 1 0 2.315 0c0-.639-.566-1.157-1.205-1.157zm85.84.256v2.458l6.53.004v-2.457zm-85.755 2.183l-2.5 9.134 2.092-1.191 1.305 1.333 1.215-1.495 2.183.57zm4.446.991a1.158 1.158 0 1 0 0 2.316 1.158 1.158 0 0 0 0-2.316zm-8.151.465a1.158 1.158 0 1 0 0 2.316 1.158 1.158 0 0 0 0-2.316zm89.456.721l.005 2.207h6.529l-.005-2.192zm-53.729 2.885a1.158 1.158 0 1 0 0 2.316 1.158 1.158 0 0 0 0-2.316zm53.734 1.234v2.377h6.529v-2.377zm-134.624.29l2.297.042.038 41.438-2.24-2.368zm-.958.08l-.114 37.874-4.351-4.574 1.157-.014v-2.581l-3.767-.029-1.609-1.566 5.372.005v-2.534l-6.373-.023v1.532l-3.131-3.34.052-24.73zm82.019 1.157l-3.486 9.012 2.192-1.248 1.134 1.115 1.172-1.058 1.993.972zm-91.69.433l-.033 2.424h6.434v-2.424zm95.638.488a1.158 1.158 0 1 0 0 2.316 1.158 1.158 0 0 0 0-2.316zm-7.88.13a1.158 1.158 0 1 0 0 2.315 1.158 1.158 0 0 0 0-2.315zm-27.245.43a1.158 1.158 0 1 0 0 2.316 1.158 1.158 0 0 0 0-2.316zm84.74.935v2.548h6.529v-2.548zM96.86 151.7l-.968 1.494-2.215-.754 3.022 9.144 3.791-9.538-2.178 1.243zm-60.37.664v2.42h6.401v-2.42zm145.253 2.169v2.524h6.524l.005-2.524h-6.53zM36.49 156.643v2.425h6.401v-2.425zm91.606.456a1.163 1.163 0 1 0 0 2.325 1.163 1.163 0 0 0 0-2.325zm-34.856 1.21a1.162 1.162 0 1 0 0 2.325 1.162 1.162 0 0 0 0-2.325zm7.43.218a1.163 1.163 0 1 0 0 2.325 1.163 1.163 0 0 0 0-2.325zm81.073.161v2.278h6.524l.005-2.278h-6.53zm-53.656 1.063l-1.386 1.457-1.988-.565 4.508 8.408 2.278-9.044-1.989 1.267zm-91.597.854v2.752h6.401v-2.752zm60.413 1.248a1.162 1.162 0 1 0 0 2.325 1.162 1.162 0 0 0 0-2.325zm-.076 2.396c-.495.352-.711.968-1.229 1.286l-2.116-.901 1.272 11.45 5.874-10.82-2.686.451zm-60.337.375v2.861h6.401v-2.86zm96.14 1.327a1.163 1.163 0 1 0 0 2.325 1.163 1.163 0 0 0 0-2.325zm-7.517.133a1.163 1.163 0 1 0 0 2.325 1.163 1.163 0 0 0 0-2.325zm-88.623 2.692v2.866h6.401v-2.866zm92.816.639a1.162 1.162 0 1 0 0 2.325 1.162 1.162 0 0 0 0-2.325zm16.411.092c6.225.198 7.137 2.201 7.173 9.114.03 5.518-1.614 7.675-5.631 8.739-1.464.387-6.937.029-8.488-.468-.026-.473-.8-1.57-.974-2.413.395-.112 1.644.062 4.012.287 1.92.183 2.415-.125 1.808-.503-3.612-.852-6.071-.62-9.542-1.285-.05-1.038-.887-2.247-.887-2.247.188-.075 5.35.48 8.072.395 1.2-.05.477-.613-.007-.717-3.176-.454-5.238-.382-8.597-.805.092-.859-.345-1.64-.887-2.297 0 0 1.699-.015 5.2.038 1.844.028 3.447.105 4.253.078 1.353-.002 1.23-.634.057-.72-1.43-.159-7.062-.193-7.062-.193.42-.194.966-2.715.75-2.742 0 0 1.46.03 2.387-.005 4.512-.169 5.291-.098 5.376-.266.593-.542-1.008-.754-2.676-.75-.72.002-1.768.16-1.76-.232.006-.36-.01-1.098-.377-1.858 2.768-1.065 5.314-1.23 7.8-1.15zm-53.673 1.418a1.162 1.162 0 1 0 0 2.325 1.162 1.162 0 0 0 0-2.325zm44.408.242c.768.004 1.01 1.384.29 1.6-1.105.33-1.71.07-1.67-.584.022-.37.883-1.018 1.38-1.016zm-36.816 1.2a1.162 1.162 0 1 0 0 2.326 1.162 1.162 0 0 0 0-2.325zm33.106 1.306c2.63-.024 1.269 3.553-.755 2.263-1.003-.64-.297-2.256.755-2.263zm-41.604 2.86c-.054-.004-.083.05-.076.181l.607 10.876L98 177.43l-2.515.935-1.081-1.641-1.358 1.067c-.559.44-1.616-1.23-1.907-1.257zm39.165 1.114c1.18.164 1.967 1.346 1.148 1.914-1.845.808-2.832-1.835-1.148-1.914zm-2.835 2.387a1.162 1.162 0 1 0 0 2.325 1.162 1.162 0 0 0 0-2.325zm4.472.984c1.005-.015 1.478 1.444.484 1.903-.212.097-.841.167-1.12-.038-1.174-.866-.566-1.773.636-1.865zm-43.527 1.793a1.162 1.162 0 1 0 0 2.325 1.162 1.162 0 0 0 0-2.325zm88.798 1.457l-4.308 1.447v2.038c1.88-.599 2.956-2.127 4.309-3.485zm-40.375.984c.747.313.95 1.325.308 1.665-.506.268-1.878.226-2.214-.215-.87-1.395 1.001-1.791 1.906-1.45zm-40.616.402a1.162 1.162 0 1 0 0 2.325 1.162 1.162 0 0 0 0-2.325zm-4.763 2.008a1.025 1.025 0 1 0 0 2.05 1.025 1.025 0 0 0 0-2.05zm48.324 1.73a1.163 1.163 0 1 0 0 2.324 1.163 1.163 0 0 0 0-2.325zm-52.069.062l-.057 10.273 6.852-8.408-2.377.517-1.016-2.083-1.466.954zm43.49 2.366a1.162 1.162 0 1 0 0 2.325 1.162 1.162 0 0 0 0-2.325zm34.29.04l-1.125 1.917 3.188-1.77zm-29.649 1.365a1.162 1.162 0 1 0 0 2.325 1.162 1.162 0 0 0 0-2.325zm3.916 1.254l-1.39 1.984-1.831-.589-.541 1.889-2.197-.08 7.141 6.215zm-55.66.794a1.162 1.162 0 1 0 0 2.325 1.162 1.162 0 0 0 0-2.325zm107.081 1.669l.58 85.181-40.603.086-16.717-22.827c-.344-3.718-.144-7.536 1.421-12.526 1.635 1.132 5.216.514 5.094-3.874-.08-2.874-4.51-4.345-6.717-2.183.114-2.777 1.242-6.952 2.866-8.183 1.116 1.013 1.362 2.513 3.884 2.094 1.792-.298 3.21-2.3 2.435-4.634a6.145 6.145 0 0 1-.304-1.794c.002-.481.046-1.338-.048-1.817-.124-.633-.17-1.32-.17-1.32 21.63-6.787 37.098-17.65 48.28-28.203zm-98.941 1.463a1.162 1.162 0 1 0 0 2.325 1.162 1.162 0 0 0 0-2.325zm-5.482 1.135a1.162 1.162 0 1 0 0 2.325 1.162 1.162 0 0 0 0-2.325zm57.524.56a1.162 1.162 0 1 0 0 2.325 1.162 1.162 0 0 0 0-2.325zm-61.693 1.24l-1.813 10.824 7.915-8.09-2.15-.048-.427-1.846-2.012.65zm53.812 2.31a1.162 1.162 0 1 0 0 2.324 1.162 1.162 0 0 0 0-2.324zm5.13 1.262a1.162 1.162 0 1 0 0 2.325 1.162 1.162 0 0 0 0-2.325zm-63.872 1.41a1.162 1.162 0 1 0 0 2.326 1.162 1.162 0 0 0 0-2.325zm68.498.878l-1.894 1.438-1.741-1.064-.408 2.298-1.485.778 6.23 4.365zm4.604 3.096a1.163 1.163 0 1 0 0 2.325 1.163 1.163 0 0 0 0-2.325zm-65.738.392a1.163 1.163 0 1 0 0 2.325 1.163 1.163 0 0 0 0-2.325zm-5.163 1.518a1.163 1.163 0 1 0 0 2.325 1.163 1.163 0 0 0 0-2.325zm67.922 3.074a1.163 1.163 0 1 0 0 2.325 1.163 1.163 0 0 0 0-2.325zm-4.873 1.04a1.163 1.163 0 1 0 0 2.325 1.163 1.163 0 0 0 0-2.325zm-45.005 1.655c.007 0 .014.005.019.01.13.14.534 1.197.175 1.736-.185-.087-1.02-.865-.807-1.13.099-.12.504-.617.613-.616zm-26.38 1.823s1.124.059 1.37.166c0 .287-.27.915-.573 1.618-1.518 3.513-1.75 7.451-.21 11.246 2.42 5.151 9.248 17.338 8.741 18.453l-15.089.062.065-2.295c4.24-.166 4.907-2.759 3.849-4.902-.733-1.484-2.787-2.334-4.665-1.555-2.711 1.126-2.878 2.466-3.847 4.543l-.431-.548c.814-1.083 1.087-2.122 1.02-3.308-.066-1.163-.1-.842.306-1.48 2.361-2.537.815-5.84.815-5.84-.282-2.029 7.066-14.972 8.648-16.16zm-34.506.332c4.291 3.415 8.006 14.917 7.782 15.094-.2-.161-3.458 3.695.052 7.288 0 0-.214 2.16.46 3.27-1.55 3.216-1.823 3.46-1.955 6.102-.029-.01-.269-.032-1.708-.038-7.11-.034-7.442 9.007-.337 9.504.973.068 1.307-.153 1.894.427.594.738 1.128 1.48 2.144 1.096.242.001.632.228 1.04.607.683.925 1.674 1.582 3.088 1.329.502.048 1.015.193 1.557.389.622.49 1.703.862 2.548.493.251-.11.735-.146 1.129.034 1.027.468 2.073.175 2.458-.119.953-.494 1.165.299 1.12 1.03-.487 1.673.582 3.242 2.201 3.857 3.414 1.055 5.136-1.044 5.87-5.21.182-.912.342-1.997.342-1.997l11.43.299-16.413 19.022-27.938.342-.147-62.847c1.228-.072 2.154.029 3.383.028zm102.78 3.393c2.085.804 2.252 2.276.176 1.637-3.372-1.038-7 1.022-7.758 3.967-.14.543-.289.954-.375 1.058-.471.57-.449.05-.308-1.585.272-3.173 2.516-5.471 5.442-5.566.959.002 1.992.2 2.823.49zm-1.034 2.244c.872 0 1.795.256 2.485.855.782.858.549 1.427-.052 1.398-2.824-1.18-6.416.248-7.822 3.814-.864 2.188-1.02 1.015-.637-.679.707-3.066 3.04-5.332 6.026-5.388zm-19.644.845c-1.232.005-2.403.248-2.999.811-1.132 1.07-.19 1.087 1.86.375.997-.346 2.916-.187 4.143.238 1.028.355 1.39.505 1.333.185-.054-.962-2.283-1.617-4.337-1.609zm23.027 3.58c.52 1.189.183 3.285-1.632 3.497-2.14.25-3.247-3.339.662-2.71-.506-1.436-2.26-1.039-3.125-.675-1.764.77-2.966 2.504-4.047 5.689-.32.944-.556 1.438-.679 1.343-.204-.158-.3-1.626.171-3.393.85-3.186 2.924-5.11 5.12-5.172 1.422-.218 3.08.39 3.53 1.42zm-30.627-1.383c-.19.043.144.712.664 1.75.288.576.484 1.32.484 1.467-.003.564.431.704 1.068.342.735-.419.852-.734 1.893-.27.98.515 1.947.84 2.842.317.486-.283.807-.271 1.746-.024 1.122.296 1.27.341 2.107-.009 1.07-.447 2.34-.14 2.61.16.257.286.107-.11.689-1.458.269-.624.655-1.383.55-1.596-.144-.289-1.118.03-2.179.308-.573.15-1.12.106-2.22-.204-2.32-.654-3.781-.466-5.234.223-.812.385-2.846-.147-4.901-.982-.05-.02-.092-.03-.12-.024zm4.563 6.211c-1.046-.015-1.995.643-2.43 1.547-.503 1.255.355 3.52 1.662 3.715 1.162.173 1.118-.537.533-.73-.886-.29-1.93-1.559-1.255-2.661.463-.758 1.864-.754 2.838.18 1.963 1.883 4.211 2.007 4.637.374.129-.653-.368-1.523-1.135-1.286-.594.183-1.965.239-3.113-.541-.595-.404-1.189-.59-1.737-.598zM136.803 241c5.01-.3 2.855 6.54-.036 4.784-1.032-.627-.575-2.932 2.17-2.89-2.692-2.096-4.527.457-3.869 3.322-.604.935-.772 2.717-1.168 3.726-.61 1.151-1.088-1.864-.473-4.778.596-2.821 1.603-4.058 3.376-4.164zm-28.332.237c-1.034.012.03 1.125.19 1.257 3.12 2.449 4.645 3.962 2.135 3.156-4.077-.97-5.127.182-8.232 1.551-.57.274-.732.104-1.419-.1-2.728-.806-2.528.905.323 2.45 4.304 2.33 7.858 2.857 11.203 1.11 2.15-1.124 2.26-.388.26.854-3.422 1.995-7.024 1.692-12.555-1.751-1.786-1.113-2.036-.369-.208.802 4.176 2.522 9.8 4.809 14.391 1.086.903-.803 1.085-1.22 1.78-.873 1.835.916 1.232-.68-.02-2.183-.442-.53-.769-.96-.74-1.323.104-1.305-.617-1.3-1.276-1.267-.788.038-.7-.226-1.666-1.286-1.41-1.549-3.13-3.206-4.166-3.483zm-41.684 6.937c-1.734.137-2.131.215-1.708 3.768.08.668.377 2.669.46 3.42 1.028 9.304.196 13.42-2.396 14.558-.932.41-1.85.26-2.534-.014-1.64-.656-2.316-2.648-1.125-5.02.321-.64.709-1.627.864-2.197.155-.57.505-1.821.773-2.78.653-2.333 1.007-5.882.622-9.272-.261-2.302-.204-2.495.37-4.048 1.26-2.294 2.073-3.469 4.725-3.497 2.965.31 3.795 4.798-.051 5.082zm63.739-.204l-.812.038c-.977-3.252-3.017-2.2-3.357.083l-.689-.007c.119-4.342 5.55-3.165 4.858-.114zm-76.19-2.428c5.537.548 6.546 1.924 6.982 8.61.04 3.237-.173 5.19-.67 5.928-.83.398-1.623-.347-2.805.403-.65.397-.526.438-.806.006-.262-.405.045-2.113.47-3.476.405-1.3-.29-2.056-2.122-3.724-.497-.452-.931-1.078-1.376-1.974-.954-2.559-1.438-1.433-.644.774.393.95.485 1.42-.709 1.01-.702-.242-1.315.044-1.856.332-1.52.387-2.83-.444-1.511-.943.802-.303 2.24-.743 2.685-.741.323.001.48-.072.48-.223.003-.64-2.929-.57-5.164.2-2.745 1.263-2.903 1.038-2.65-.928.643-4.985 5.284-5.594 9.696-5.254zm54.15.435c1.415-.063 2.715 1.56 2.457 2.937l-.673-.042c-.317-2.593-2.769-2.704-3.421.199l-.973.024c.618-2.241 1.641-3.074 2.61-3.118zm16.461.052c.56.331.171 1.229-.425 1.41-.225.055-.938-.441-.766-.744.32-.364.808-.556 1.191-.666zm6.346.44c.39 0 .894.198.963.723.022.766-.561.608-.754.54-.387-.36-.533-1.234-.21-1.263zm-19.41.614c1.037.122 1.414 1.426.237 1.509-.525.108-.55-1.196-.237-1.51zm-6.316.142c.124.002-.068 1.072-.327 1.23-.513.31-1.168-.03-1.144-.352.058-.772.994-.883 1.471-.878zm18.112 2.6c1.977.75 4.547 1.476 6.965.631.883-.333 1.589-.729 1.587-.354-.002.392-.701.987-1.965 1.341-2.604.73-4.489.448-6.277-.895-.506-.38-.682-.728-.31-.723zm-.816 1.117c3.206 1.871 6.101 2.057 8.708.693 1.055-.366 1.089-.03 1.086.646-4.696 4.126-10.564-.157-9.794-1.339zm-78.719 2.85c-.795 1.604-1.222 5.554-2.52 6.725-8.861-.51-3.162-12.195 2.52-6.725zm54.909-1.31c-.502.264-.058 1.521.73 1.86 6.777 2.917 10.253 3.264 14.107 1.922 1.597-.555 2.47-1.861 2.548-2.496.094-.754-.937-.828-2.743-.028-5.495 2.154-8.942.474-13.38-1.195-.41-.155-.83-.208-1.262-.062zm-25.95.09l-.024 9.88-6.453-.114.076-1.462 4.83.143-.076-7.056-5.604-.052-.01-1.31 7.26-.028zm1.499.024l6.439.01.322 1.006h-6.761v-1.016zm-25.979 3.137c-.423.38-1.162.464-1.466.157-.682-.688.007-1.953 1.096-1.945 1.09.008 1.182 1.06.37 1.788zm2.967-1.606c.973.005 1.295.913.555 1.647-.502.456-.759.486-1.21.152-.57-.5-.272-1.766.655-1.799zm-6.355.245c.256-.01.48.016.646.27.592 1.211-1.35 2.05-1.756 1.148-.299-.73.456-1.394 1.11-1.418zm36.413.132l.375 1.272-7.421.033v-1.272zm-26.564.366c1.107.132.936 1.246.423 1.741-.883.816-1.739.552-1.514-.545.14-.687.585-1.183 1.091-1.196zm-5.967 3.643c-.39 1.391.442 4.206.194 4.5-.542.642-1.412.312-1.798.093-1.34-.86-1.425-5.909-.128-6.21.833.417 1.394-.33 1.775-.44.38-.109.126.579-.043 2.057zm19.615-2.073a1.324 1.324 0 1 1 0 2.648 1.324 1.324 0 0 1 0-2.648zm5.87.17h7.592c.454.633.408 1.061.28 1.5l-7.872.01v-1.51zm-22.295.173c.346-.004.52.738.288 1.585-.418 1.53-.396 3.613-.11 4.515.194.624.384 1.052.271 1.23-.393.62-1.595.196-2.107-.622-1.246-2.312-1.048-6.627.442-6.292.56.28.88-.159 1.216-.416zm-6.692.582c-.367.585-.105 3.871-.142 4.142-.047.343-.986.166-1.51-.07-1.288-.605-.938-2.14-.687-3.38.28-.972.9-1.045 1.665-1.134.423-.047.98-.01.674.442zm10.327.18c.41-.014.467.288.373 1.505-.073.952-.109 1.764.047 2.661.33 1.909.37 2.427-.109 2.8-.57.443-1.337.31-1.931-.214-1.218-.965-1.299-5.701-.342-6.111.89.222 1.45-.482 1.962-.64zm26.219 1.433l-1.092 1.5h-6.472l.005-1.495 7.559-.005zm-23.08 2.007c1.01.01.844 1.797.3 2.918-.46.677-.798.746-1.49.11-.785-.721.148-3.034 1.19-3.028zm21.191.499l-.91.835-4.746.005v-.83l5.656-.01z" fill="#131f67"/><path d="M197.306 298.544v-2.961h3.027l6.403-9.824-6.898-15.268h-2.532v-3.226h9.756v3.226h-3.138l4.822 11.923 3.513-4.62v-7.303h-2.578v-3.226h8.73v3.226h-3.036v25.092h3.037v2.96h-8.731v-2.96h2.467v-11.606l-8.169 11.606h3.083v2.96zM154.65 275.54c-7.171-2.588-10.096-11.529-6.028-20.359 5.45-11.828 13.581-19.424 18.998-30.583-.064 0 10.628 15.707 14.899 21.533 9.16 13.221 8.699 24.101-.173 28.394-6.372 3.083-12.905-.459-13.657-7.125-.117-1.04-.186-1.178-.67-1.18-.534-.003-.633.368-.766 1.908-.512 5.93-6.945 9.453-12.603 7.412zm44.122-23.03c2.778-6.537 6.013-10.036 9.404-16.97 2.735 5.362 7.793 11.152 9.493 16.57 1.274 4.188.283 7.596-2.45 8.612-3.178 1.18-5.56-.155-6.193-3.134-.253-1.194-.856-1.076-.888-.175-.107 2.922-3.473 4.2-6.166 3.426-1.548-.443-4.323-3.602-3.2-8.328zM48.503 225.839l-7.867-6.17c9.357-.204 18.711.012 28.067.172l-9.344 6.658c-1.913-2.09-3.043-4.899-5.758-6.254-2.02.835-3.403 3.713-5.098 5.594zm69.007-2.15c-.16-.024-.288-.037-.383-.097-.216-.135-.354-.436-.512-1.427-2.335-10.891-13.814-10.12-13.738-9.8-.086-.43 14.267-13.389 22.704-23.556 2.55 7.77 10.28 25.522 9.957 25.457 0 0-2.236.019-8.035-.125-5.277 2.383-8.949 4.703-8.776 8.063-.03 1.183-.315 1.675-.71 1.573a13.357 13.357 0 0 0-.507-.087zm25.774-35.055c7.466-.117 8.875-3.764 9.725-4.203 4.905-.807 7.935 2.385 10.084 5.8 2.745 1.653 2.402.127 2.97-2.447l6.834-2.002-.007 2.177c-2.11 1.136-5.241 4.047-5.241 4.047l-2.08-.123-1.193 1.59c-4.748 2.568-9.402 5.627-14.41 7.612 0 0-5.997-7.755-6.682-12.45zm-93.032.683l-.078-43.058c3.09-.218 8.775-.19 8.775-.19 2.378-4.196 5.62-6.17 8.962-8.607a142.77 142.77 0 0 1 .54 15.688c-8.848 10.8-13.763 24.093-8.307 43.96l-3.274-.363zm48.896 2.414c2.52-8.982 4.477-18.094 5.288-27.503l16.846-.25.336 5.769zm57.361-19.608l-.313-16.11c12.294-14.687 13.021-27.496 8.462-43.69 4.06.934 6.152 4.1 10.021 8.464l.003 42.01c-2.69.4-9.356.792-9.356.792-.202 1.968-5.835 6.675-8.817 8.534zm-52.057-25.39l-.75-7.104 21.89-20.907c-1.807 9.06-3.993 18.362-4.63 28.006zm-36.318-22.19c-1.563 1.025-7.322-4.959-8.264-8.982 1.444-1.951 14.118-8.16 14.118-8.16s7.407 9.507 7.104 13.472c-3.29.874-6.143 1.123-8.64 3.805-1.43.127-1.931-1.48-4.318-.134zm-9.997-8.038c1.763.284.632 2.662.362 4.404l-9.314 2.761c3.202-2.732 5.473-5.057 8.952-7.165zm30.329-21.02c1.915-.057 3.91.732 5.387.138.552-.215 1.655-.548 2.864-.32 2.784.861 3.76-2.206 5.535-2.22 2.297.007 3.571-1.6 3.586-4.818.007-1.391.123-1.548.385-1.687.783-.414 1.62.167 1.724.931 1.647 5.926 5.807 11.256 12.366 10.831-5.223 5.324-21.11 21.688-21.11 21.688-2.862-8.719-6.664-16.833-10.737-24.542zm67.587-5.106l9.57-6.945 5.727 6.97 4.952-6.636a1895.99 1895.99 0 0 0 9.53 6.733s-19.848.293-29.779-.122zm-99.782-3.545c2.013 1.424-19.177-24.291-21.62-33.382-1.832-5.357-.454-11.904 3.536-14.71 6.758-4.753 14.684-2.854 16.188 5.147.427 2.27 1.135 2 1.385.006.903-10.192 13.418-10.936 18.234-3.827 3.296 4.866 3.32 12.603-1.452 20.352-1.153 2.46-16.372 25.709-16.271 26.414zm-40.457-9.8c-2.839-5.538-7.055-11.12-9.29-16.289-1.676-4.227-.256-8.605 2.869-9.414 3.08-.798 5.314.472 5.899 3.352.197.975.586 1.048.778.145 1.158-5.446 8.839-4.268 9.367 1.436.337 3.635-.61 6.036-5.095 12.913-1.084 2.232-4.014 5.461-4.528 7.856zm1.496-34.974h3.198l-4.7-11.53-3.593 4.87.022 6.66h2.523v3.435H5.876V42.06H8.8V17.257l-2.925.006v-2.999h9.018v3.1h-2.49l-.055 12.09 7.873-12.191h-2.778v-2.999h9.594v2.999h-2.53l-6.482 9.965 6.343 14.83h2.819l.013 3.436h-9.864z" fill="#d40000"/><path d="M161.482 27.42l-87.971.564 17.096 22.832c18.162-3.697 33.972-1.295 50.381 1.571zm-2.25 1.157l-5.855 7.274c-1.62-1.465-5.236-.936-4.724 2.269-4.487-2.333-5.438 4.072-1.629 3.81-.478 1.257-4.324 1.589-5.41-.694-3.949 2.214-5.155.067-6.2-1.328 5.018 3.407 7.46-3.596 1.935-3.99 2.17-4.391-5.571-6.383-5.115-.67-5.106-1.157-3.935 6.028-.185 4.555-2.436 3.663-6.432 1.202-7.24.49-2.055 1.54-5.94 1.59-7.028-.874 5.683 1.143 5.06-6.34.014-4.617 2.69-5.747-6.26-4.973-4.085-.265-5.091-.195-3.964 6.083.507 5.015-3.973 3.744-6.949.255-7.577.18-2.352 2.595-6.483 1.173-7.051-.36 4.053 1.6 5.381-5.208.272-4.799 1.309-4.386-6.043-4.918-4.42.064-4.05-.918-4.272 5.569.266 4.56.282 1.775-3.289 3.477-5.485 1.76-1.61.881-3.374 2.254-5.47.222 3.193-.514 3.718-5.91-1.438-4.744.245-3.314-1.657-3.494-4.007-2.653l-3.766-5.1zm-60.687 8.138c-.28.617-.752 1.037-.642 1.508.091.386.487.921 1.04 1.647 4.402 5.737 13.326 5.545 16.01-.37.547-1.099.436-1.348-.223-2.283-.796-1.128.103-2.331 1.077-2.23 1.454.152 1.706 1.419 1.006 2.32-1.519 1.913 2.653 6.239 6.818 6.919 5.34.871 10.403-2.884 9.698-6.249-.04-.193-.139-.373-.18-.574-.567-2.818 3.9-1.468 2.293.327-.605.65-.93.843-.85 1.556 1.298 5.963 8.548 6.588 12 4.75-4.455 7.266-11.512 1.666-12.754-3.412-6.256 9.031-13.771 7.155-17.96-.783.495.496-8.25 14.228-18.178.148-4.202 11.332-11.864 3.672-11.34 3.207 3.52 1.961 9.913 1.25 10.529-4.811.085-.749-.483-.795-.812-1.386-1.664-2.996 3.706-3.017 2.468-.284zm-16.541.744c.796.075.93.406.797 1.215zm68.266 2.13l-1.153 1.448c-.275-.708-.283-1.358 1.153-1.447zm12.54.48c-2.736.116-4.85 3.897-4.711 8.94.067 2.445.497 8.582.664 9.494.234 1.276-.02 3.006-.47 3.189-1.184.481-1.63.791-1.95 1.357-.831 1.47-.144 3.128 1.609 3.872 1.25.53 2.836-.202 3.91-1.803.596-.89.736-1.285 1.262-3.521.242-1.03.22-2.737-.057-4.304-.63-3.562-.162-7.999 1.063-10.083 2.196-3.736 2.155-6.184-.114-6.956a3.294 3.294 0 0 0-1.206-.185zm-.142.57c3.185.011 3.099 3.188 1.333 4.166-.684.306-1.521.377-2.358-.171-.94-.543-.812.076.162.783 1.143.83 1.63.778 1.015 2.723-.573 1.812-.873 5.728-.56 7.953.857 6.087.133 9.122-2.43 10.178-1.262.52-2.625-.213-2.975-1.228-.549-1.587.428-2.95 2.839-2.568 0 0 .17-.506-.457-5.789-.87-7.35-.528-12.48.821-14.273.721-.958 1.652-1.778 2.61-1.774zm21.604 7.577c-.744.006-1.546.209-2.363.67 0 0-.088 3.304-.185 3.805-.541 2.796-.383 3.128.92 3.525 3.162.963 5.758-1.134 5.642-4.422-.065-1.848-1.781-3.596-4.014-3.578zm.427.442c1.728-.052 3.297 1.968 3.127 3.871-.091 2.279-2.27 3.52-4.223 3.123-.578-.088-1.176-.197-1.362-.631-.391-.604.238-.823 1.552-.817 1.438.007 1.705-.19 2.182-.996.946-1.597-.264-3.62-1.808-3.24-.526.129-.603.367.015.54 1.891.853 1.187 2.042.531 2.524-.78.574-2.07-.212-2.292-.688l.133-3.084s.625-.585 2.145-.602zm-19.483 14.291s-.72.344-1.067.665c-.765.705-.925 1.773-.55 2.823.165.465.139.543-.442 1.3-1.655 2.156-1.868 3.233-1.02 5.177.384.882.387.882.023 2.05-1.56 5.006-4.638 10.68-7.924 14.61-.508.607-.711 1.228-.711 1.228s.769-.04 1.195-.251c3.396-1.69 6.982-4.962 10.316-7.108-5.273 4.277-10.89 8.104-10.89 8.104l7.175.384c-1.802 1.848-33.26 28.503-24.907 76.313 9.82-2.442 14.39-6.493 19.625-11.179.05 3.853.133 14.221.166 14.221.1-.17-4.544-1.75-3.44 2.074.657 2.097.99 7.404-.175 10.4-.05.127.5.328.446.446-.063.136-.745.138-.745.138-1.783 3.326-6.376 4.054-8.64 3.954-.834-.079-.497 1.066-.387 1.48.421 1.712 2.394 5.379 6.08 11.268l.968.128-.56.518c.435.792 1.598 2.283 1.598 2.283l.05.506s2.023 2.815 3.107 4.136c.074.09.244-.124.318-.034.602.723 1.324 1.534 1.936 2.256.048.055-.094.261-.046.314a515.192 515.192 0 0 1 3.418 3.795l.45-.108 1.781 2.007c14.78-6.72 30.226-21.589 30.064-21.556l.127-31.998-17.5-.053-.074-42.388 17.48 17.281-.113-4.958c-3.965-3.77-19.9-19.849-19.9-19.849 2.319-.323 4.566-1.076 6.742-2.258 3.8 2.091 7.865 3.347 12.522 2.728l-.02-4.702c-5.286-.01-8.565-1.762-10.936-3.877l-3.265-.109c-6.03 4.586-10.294 2.458-14.88 1.557l-3.17-4.565 32.47-.166-.232-11.08-4.93.11-3.203-2.368 3.715 1.57s-.058-.61-.802-1.77c-2.001-3.27-4.541-8.082-6.064-12.28-.737-2.132-.735-2.044-.114-3.292.854-1.716.67-3.795-.455-4.964-.793-.824-.768-1-.508-1.613 1.054-2.43-1.489-3.326-1.5-3.17-5.437 2.097-12.733-.062-12.602-.128zm12.65.883c1.086-.01 1.204.467 1.2 1.276-.092 1.483-2.022 2.02-2.894 2.226-4.172.955-11.446.39-11.92-1.557-.347-1.43.545-2.223 3.507-1.513 4.762 1.023 7.709-.078 10.107-.432zM164.4 67.96c.433-.003.952.438 1.1 1.158.128.614-.512 2.425-1.048 2.842-1.325 1.033-2.523-.573-1.637-2.32.511-1.008 1.028-1.676 1.585-1.68zm14.235.204c.198.005.553.046.783.209 1.05.743 1.148 3.315.166 3.687-1.001.378-1.93-.665-1.922-2.302.005-1.002.378-1.609.973-1.594zm-3.336.531c.214-.01.44.035.674.143.875.404 1.3 3.101.432 3.962-.673.667-2.121.63-2.544-.755-.505-1.655.284-3.292 1.438-3.35zm-7.397.076c1.281.01 1.573 2.86.318 4.034-1.05.981-2.652.015-2.15-1.932.251-.973.828-2.033 1.832-2.102zm3.644.456c1.876.32 1.717 4.914-.74 4.455-1.4-.976-1.362-4.387.74-4.455zm-8.204 4.92l2.652.247s-3.433 7.43-6.571 10.268c-1.174 1.19-1.85 1.24-.959-.028 1.968-2.431 4.878-10.487 4.878-10.487zm15.9.048c1.55 4.13 3.14 8.322 5.253 12.545-3.213-3.096-6.059-7.858-8.683-12.327zm-12.47.398l1.756.02c.585 2.674 1.596 4.38 2.785 5.845 1.03-1.738 1.68-3.648 2.311-5.684l1.395-.02c.534.32-1.641 8.382-3.772 9.363-2.257-1.833-4.16-6.786-4.475-9.524zm-.74 1.908c-.147.193 2.727 7.099 5.158 9.314 2.292-2.223 3.754-5.153 4.735-8.645l7.54 10.581-7.35-5.03c-1.468 2.439-3.026 4.765-4.897 6.7-2.017-2.181-3.763-4.77-5.594-7.23-2.836 2.1-4.825 4.345-8.507 6.305.016.082 7.214-7.764 8.915-11.995zm-.707 7.52l5.13 6.269-13.656-.195zm11.108.1l8.617 5.931-12.84.133zM107.78 87.04s.072.377.156.603c1.53 6.239 5.748 11.425 12.095 10.809l-20.864 20.854s-3.445-11.69-10.424-23.672c0 0 1.273.262 2.268.455.932.142 1.64.098 2.34-.085.533-.08.941-.429 1.418-.532.804-.168 1.814.121 2.349.309 1.433.27 2.409-.531 4.204-2.117.477-.422.66-.32 1.262-.318 2.248.006 3.683-1.923 3.43-4.915L105.9 87.1l-.285 1.495c-.537 2.817-.912 4.032-3.701 4.152-.676.029-.93.483-1.998 1.4-1.495 1.283-2.551 1.393-3.61.891-1.082-.512-1.182-.21-2.202.276-1.169.556-2.87.491-4.404.052-2.14-.613-1.879-.408-1.879-.408 12.399 22.066 16.754 43.23 16.48 62.03-.392 26.788-9.763 48.409-17.984 61.443 0 0 1.411-.143 2.667-.328.606-.168 1.072-.006 1.67.204.559.197.98.187 1.528.124.428-.049 1.472.008 2.145.104 1.525.219 1.627.02 3.288-1.594 4.715-4.58 4.408-4.41 7.824-4.3 5.126.167 9.225 3.548 10.933 9.03.216.693.498 1.666.537 1.666l-.333-1.452c-1.5-7.35-7.787-10.039-13.035-9.94l22.15-22.207c-.113.021 5.134 16.896 9.703 24.418.008.051-1.386-.6-3.934-.27-1.385.18-2.935-.004-3.806-.152-1.12-.028-1.802.302-3.197 1.451-.58.496-1.101 1.04-2.235 1.519-2.694 1.137-3.768 2.313-3.782 5.267-.002.536-.084 1.223-.075 1.49.002.07-.004.197.014.197.045 0 .108-.11.161-.188.135-.197.406-.731.615-1.968.373-2.209.838-2.982 2.93-3.96.627-.294 1.949-1.094 2.536-1.562 1.927-1.537 2.57-1.889 4.135-1.525.89.208 1.647.315 2.842.17 1.42-.172 1.504-.245 3.024.147 1.032.266 2.308.524 2.308.524-21.467-43.108-20.76-83.071.429-123.617 0 0-6.272.074-6.539.237-.101.062-.863-.006-1.694-.156-1.707-.308-1.333-.102-5.362 3.947-4.98 5.006-12.946 1.013-15.345-7.387-.125-.44-.233-.705-.422-1.016-.06-.1-.218-.266-.218-.266zm20.294 4.93c.923.098 1.61.341 1.495 1.205l-29.566 28.95-.46-1.865zm6.235.176c-.365.719-1.352 1.619-1.785 2.297l1.609 2.002-.892 1.613-2.472-2.078-4.707 4.645 3.924 4.404-3.715 3.748-1.239-1.4 1.965-2.054-3.051-2.857-5.376 5.224 4.38 4.451-3.213 3.08-1.281-1.215 1.684-1.86-2.856-2.951-5.006 5.105 3.962 4.408-3.06 3.037-1.358-1.376 1.471-1.533-2.833-2.965-5.1 5.03 4.137 4.488-3.041 2.719-1.073-1.134 1.471-1.58-2.78-2.975-3.165 2.87-.527-1.969 31.307-31.098zm1.803.46l-1.32 2.648-1.02-1.12 1.329-1.366zm-73.841.171c-.812.198-19.452 10.581-30.064 21.979L32.173 119l-.394.508.19 6.572.265.351.09 2.68-.422.708-.005 7.36.565.094.09 9.006 17.433.048-.019 43.027s-10.237-11.252-17.608-17.893l.028 5.03 19.502 20.146c-1.342.189-3.087.513-5.718 1.965-6.327-3.952-13.642-2.743-13.642-2.743l.029 5.125c4.65-.45 8.848.187 13.737 3.478 4.024-2.728 8.874-4.387 16.104-2.221 1.59 2.52 3.182 5.119 4.773 6.809l-34.529.256.043 10.377c1.532.031 5.362 0 5.362 0 1.942 3.805 5.76 9 7.344 15.534-2.176 2.613-2.002 4.717.115 7.348-.019 1.187-.377 2.499.958 3.82 4.392-2.147 9.353-1.194 13.044-.097 1.25.372 1.724-1.053 1.68-2.847-.111-1.026-.106-1.465.683-2.15 1.878-1.628.712-4.973.418-5.048-.109-2.933 9.293-17.63 9.3-17.36l-1.874.679-8.038.036c21.141-20.384 29.978-43.637 28.128-69.893-.413-6.616-1.443-9.647-1.443-9.647-7.446 3.309-13.566 5.715-19.511 12.081l-.394-13.684c.331.648 2.538 1.245 3.526.417.676-.442.744-.915.118-2.576-.908-2.411-1.123-7.582-.446-9.338.08-.205.147-.751.204-1.286.078-.72-.08-.762-.147-.75.173-.042.9.105.987.029 2.54-2.235 5.265-3.632 8.607-3.777l.086-1.633c-2.479-6.26-4.578-8.714-6.823-12.213 0 0-.637-.211-1.04-.128l.518-.546c-3.15-4.998-7.633-9.546-11.754-13.865.012-.015.003-.02-.023-.014zm-.138.85l2.235 2.063c-10.665 5.126-21.188 12.637-31.55 22.824l.143-3.744c11.712-11.014 20.548-16.304 29.172-21.144zm68.493 3.743l1.343 1.338-1.86 2.16 1.21 1.233-.674 1.646-3.093-3.212zm-66.58.171a1.272 1.272 0 1 1 0 2.543 1.272 1.272 0 0 1 0-2.543zm91.264 1.756c21.74 24.197 10.577 59.362-18.444 67.81l-.323-1.988c29.28-9.862 36.148-42.855 17.149-63.597zm-87.497.161l1.385 1.604c-12.394 5.916-24.484 14.785-36.17 27.582l-.114-3.231c10.975-11.537 22.709-19.883 34.899-25.955zm-7.995.493a1.272 1.272 0 1 1 0 2.544 1.272 1.272 0 0 1 0-2.544zm-3.872 2.392a1.272 1.272 0 1 1 0 2.543 1.272 1.272 0 0 1 0-2.543zm12.892.835a1.272 1.272 0 1 1 0 2.543 1.272 1.272 0 0 1 0-2.543zm55.226.878l1.272 1.343-2.017 2.021 2.87 2.999 2.763-2.657-1.386 3.957-24.346 24.332-.508-2.553 1.917-1.926-2.937-2.933-.517-1.955 2.89-2.704 1.21 1.243-1.69 1.95 2.719 2.676 4.94-4.545-4.077-4.475 3.365-3.255 1.162 1.134-1.608 1.656 2.832 3.07 5.068-4.854-4.161-4.398 3.345-3.298 1.267 1.21-1.685 2.021 2.88 2.785 4.964-4.901-4.081-4.29zm-71.914.854a1.272 1.272 0 1 1 0 2.543 1.272 1.272 0 0 1 0-2.543zm20.052.247l.968 1.608c-14.755 7.454-24.96 14.92-40.062 32.076v-2.159c11.658-14.313 23.78-23.54 39.094-31.525zm-7.412.19a1.272 1.272 0 1 1 0 2.543 1.272 1.272 0 0 1 0-2.544zm114.169.488c2.602 2.316 8.069 4.625 11.591 4.38l.095 2.785c-6.144.583-11.51-3.35-11.51-3.35-4.734 2.885-9.55 3.25-14.573 1.998l-1.93-4.138c7.447 3.452 14.431.158 16.327-1.675zm-29.405.755c.273.503 1.191 1.086 1.191 1.086 5.732-1.492 7.518 4.416 4.845 7.791l.764 2.477c1.022.186 1.92.545 2.647 1.049 1.395.967 2.162 2.641 1.988 4.398.195 1.905-2.654 3.677-2.809 3.545l-.038 2.724c.802.667 1.768 1.313 2.382 2.258 1.37 2.3.827 4.617-1.286 6.074-1.257.85-2.621.961-2.676.873l-1.323 3.093c1.165.658 1.492 1.777 1.674 2.577.396 1.734-.82 3.992-2.348 4.826-1.929 1.052-4.558.117-4.555.118l-1.88 1.88c.484 1.627.617 2.598.361 3.553-.633 2.364-3.11 3.29-5.1 3.113-1.563-.14-2.738-1.281-2.738-1.281l-2.083.797c.058 0 .03 2.638-1.02 3.445-.331.342-1.505 1.1-1.505 1.1l-.275-1.817c.825-.594 1.338-2.034 1.172-3.089l4.498-2.201c0 .162 1.232 1.356 2.074 1.527 1.727.352 3.531-.995 3.535-2.58.002-.926-.532-1.555-.684-2.302l3.82-3.953c1.58.544 2.69.636 3.398.228 1.335-.77 1.694-2.36 1.437-3.317-.304-1.13-1.312-1.862-1.38-1.969l2.13-5.385c.993-.005 1.608-.161 2.382-.665 1.58-1.037 1.375-3.052.702-4.009-.819-1.164-2.009-1.38-2.102-1.352l.157-5.595c0 .046 2.155-1.035 2.386-2.282.342-1.837-.433-3.006-2.69-3.525-1.252-.289-1.186-.048-1.186-.048l-1.784-5.063c2.827-1.724 1.93-4.465.498-5.385-1.511-.97-3.644-.071-3.644-.071s-.972-.965-1.708-1.742zm-75.663 1.025c1.858 2.498 5.004 7.502 6.762 11.98.076.196.038 1.187.038 1.187-5.017.436-6.74 2.402-8.522 3.786-1.383-.71-1.965-1.54-4.465.024-.008.074-6.374-3.85-7.592-9.177 4.55-2.804 8.887-5.474 13.78-7.8zm-25.466.033a1.272 1.272 0 1 1 0 2.543 1.272 1.272 0 0 1 0-2.543zm12.057.251a1.272 1.272 0 1 1 0 2.544 1.272 1.272 0 0 1 0-2.544zm87.022 1.561c2.193 2.885 5.497 8.34 6.283 13.172 1.105 6.796.369 13.924-2.748 18.909-5.653 10.648-15.458 12.915-15.464 13.286l-.1-2.183c.093.491 7.494-2.627 12.532-9.665 3.11-4.77 4.877-11.587 4.275-16.907-.374-7.666-5.814-14.735-5.86-14.761zM44.457 110.5a1.272 1.272 0 1 1 0 2.543 1.272 1.272 0 0 1 0-2.544zm12.043.018a1.272 1.272 0 1 1 0 2.544 1.272 1.272 0 0 1 0-2.544zm108.574 2.145c2.822.306 6.273 5.422 9.414 8.342l.033 41.708-9.38.19c-1.222 2.934-4.056 5.834-8.57 8.697l-.005-15.63c15.394-16.49 11.205-34.54 8.508-43.307zm-124.071.475a1.272 1.272 0 1 1 0 2.543 1.272 1.272 0 0 1 0-2.543zm11.592.227a1.272 1.272 0 1 1 0 2.544 1.272 1.272 0 0 1 0-2.544zm119.093.1l19.18 19.336-.067 2.837-21.613-21.96zm-112.061 1.817l.508 2.43c-.62-.974-.644-1.334-1.718-1.504zm-10.382.707a1.272 1.272 0 1 1 0 2.544 1.272 1.272 0 0 1 0-2.544zm-11.488.356a1.272 1.272 0 1 1 0 2.544 1.272 1.272 0 0 1 0-2.544zm107.905 0l3.787 2.681-1.234 4.835-3.877-3.483zm-87.501.394l.673.399-.783 3.307-8.716 3.146c2.803-2.393 5.684-5.002 8.826-6.852zm1.428 1.537c.62 2.452 1.964 6.076 3.612 9.146-1.119.578-5.141 2.854-5.13 3.913.567 1.917 4.816 3.677 4.816 3.677a48.186 48.186 0 0 0-4.394 9.229c-.726-1.236-.81-6.11.754-8.138-1.543-.608-3.653-1.998-5.257-3.435 1.034-3.66 5.444-5.847 5.637-5.874-.077.184-1.302-7.647-.038-8.518zm-14.15.617a1.272 1.272 0 1 1 0 2.544 1.272 1.272 0 0 1 0-2.544zm97.082.105c5.658 10.54 2.293 19.697-6.733 26.258l.209-2.486c6.227-4.518 10.26-13.412 5.713-21.893zm-107.824.303a1.272 1.272 0 1 1 0 2.544 1.272 1.272 0 0 1 0-2.544zm90.51.067c-4.153 15.477-4.05 22.57-4.532 26.766l-16.118.138-.627-5.58zm-64.394.427s3.496 3.245 6.633 6.078l-.374.74-3.051.408c-2.335-4.596-3.208-7.226-3.208-7.226zm-2.894 1.698l.023.005.195 2.306c-1.048-.039-12.383 4.696-21.091 12.256 1.298-2.286 3.487-4.479 5.603-6.348 4.503-4.42 15.27-8.219 15.27-8.219zm-16.114.527a1.272 1.272 0 1 1 0 2.543 1.272 1.272 0 0 1 0-2.543zm7.136 1.447l.645.665-3.008 1.556zm20.973.679a.8.8 0 0 1 .128.005c.465.058.659.279.925.503-.589-.123-1.167-.191-1.717-.162.138-.166.376-.335.664-.346zm-11.511.48l.275 1.722c-6.522 3.707-14.281 7.212-25.57 17.884v-3.55c7.085-6.564 15.348-12.068 25.295-16.057zm8.773.16c.407.1.769.106 1.139.015 0 0-.237.468-.517.479-.297.011-.622-.494-.622-.494zm2.766.1c.82-.05 1.38.7 1.215 1.666-.63 3.273-.605 6.589.071 8.906.527 1.806.66 2.44.223 2.742-3.844 2.652-5.953-9.302-2.742-12.692.435-.41.86-.599 1.233-.622zm-31.397.418a1.272 1.272 0 1 1 0 2.543 1.272 1.272 0 0 1 0-2.543zm110.496.294l2.391 4.01-3.33 3.729-2.027-4.332zm-82.297 2.178l-.124 1.384c-1.717.522-3.214 1.261-4.502 2.355-.25.213 3.979 2.12 4.422 1.68l-.01 1.475c-.058.485-6.99-1.716-7.458-3.36.786-1.092 5.171-3.633 7.672-3.534zm-31.544.735a1.272 1.272 0 1 1 0 2.544 1.272 1.272 0 0 1 0-2.544zm18.905 1.46c-.492.935-1.22 2.177-1.36 3.534-4.756 2.883-9.633 5.577-15.567 12.192l-3.198-.019-.07-.84c6.485-6.182 13.507-11.516 20.195-14.866zm12.25.4l.033 1.742c-1.105.014-1.71-.347-2.533-.764.694-.439 1.232-.874 2.5-.978zm35.782.185l.892.935-.555.522zm-48.18 3.62l1.76 1.097c-4.533 2.365-9.304 5.86-13.433 10.424h-3.488c4.405-4.773 9.15-9.056 15.16-11.52zm93.912 1.258l.35 4.736-4.422 2.424.086-4.996zm-84.1.02l3.042.331.313 1.286c-2.552 1.623-4.769 3.526-6.895 5.504a26.88 26.88 0 0 1 3.54-7.122zm-7.293.507l1.305.602-.517 2.226c-3.726 1.656-6.695 3.893-9.874 6.908h-3.578c3.133-3.357 8.343-7.583 12.664-9.736zm11.317 2.092c.01 0 .015 0 .014.005l.475 14.596c-13.138 15.379-12.424 30.251-8.593 43.738l-2.506-.113c-2.912-3.618-6.785-7.303-6.785-7.303l-.01-42.458 9.058.034c2.137-4.942 8.011-8.459 8.347-8.499zm-10.695 2.05l.109 1.946a26.243 26.243 0 0 0-4.83 3.648h-3.403c2.352-2.188 4.687-4.392 8.124-5.594zm30.885.954l.498 2.296c-30.493 11.03-36.003 43.095-18.007 65.106l-1.224 1.366c-20.664-22.19-11.595-58.437 18.733-68.768zm-30.643 2.296s.166 1.76.218 2.344h-3.416c.768-.9 1.45-1.834 3.198-2.344zm85.807.736l-1.964 4.579-5.243.08 2.382-4.578zm-33.19 3.136h4.778v4.565h-4.779zm-20.679.451l.08 2.007c-2.122 1.08-1.587 2.798-2.12 2.771-1.305.33-4.745 2.154-4.745 2.154-1.221-1.106-2.866-.827-3.63-.289-1.06.694-1.294 2.31-.992 3.677l-3.649 4.266c-1.762-.753-3.48-.706-4.337.47-.965 1.326-.6 2.972.997 4.816l-1.988 5.1c-.23-.304-3.556.672-3.602 2.648-.048 2.092 2.751 3.456 2.748 3.616l-.133 5.628c-.126-.27-2.857.843-2.487 3.54.341 2.482 3.721 2.18 3.792 2.386l1.836 5.386c-.123-.165-2.489 2.151-1.04 4.341 1.209 1.826 4.718.645 4.689.527l.972 1.371-1.077 1.167s-.465-.557-.726-.507c-2.042.39-4.324-.078-5.418-1.708-1.49-2.3.173-5.895.702-5.865l-1.262-3.103c-2.3-.046-4.248-2.1-4.351-3.82-.218-3.603 2.74-5.11 2.747-5.087l.085-3.36c-.18.202-2.922-1.743-2.856-3.975.048-1.632 1.422-3.55 3.113-4.323.49-.23 1.252-.593 1.252-.593l1.144-2.752s-1.62-2.34-1.2-4.698c.778-3.57 5.432-3.326 6.168-2.98l2.159-2.704c-1.063-2.468.773-5.332 3.174-5.798 1.067-.172 4.057.536 4.057.536l2.766-1.429c-.047-1.511 1.602-2.495 3.132-3.416zm15.73 4.997h4.094v4.564h-4.095zm10.908 0h4.617v4.564h-4.617zm-26.306 1.143l-.052 1.746c-26.436 12.818-15.624 39.356-11.853 42.444l-.85 1.874c-4.638-2.82-16.597-33.444 12.755-46.064zm20.346 4.622h4.968l.043 4.692H110zm-21.494 2.282l-1.575 4.275-4.855.408 1.794-4.265zm99.188 3.127l3.322.019c-6.21 7.263-12.911 12.212-19.526 14.923 0 0-.023-.647.18-1.158.162-.405-.1-1.428-.1-1.428 7.354-3.621 12.404-7.827 16.124-12.356zm-17.02.062c-.855 1.027-1.83 1.932-3.042 2.602l-.479-2.645c1.016-.012 3.52.043 3.52.043zm5.846-.057c.336.845-8.717 5.733-8.75 5.317l.024-1.626 4.885-3.625zm1.955 0h.019l2.548.014c-2.302 3.63-14.474 10.221-13.968 9.293l.491-2.655c3.924-1.725 7.485-4.072 10.91-6.652zm4.294 0l3.353.014c-5.044 6.405-10.161 8.744-15.07 11.5-.295-.043-.162-.154-1.08-.127l-1.68-1.31c.314.288 11.281-6.141 14.477-10.077zm-93.812.227l-.114 1.936c-7.057 6.069-9.887 13.823-6.216 22.824l-.873 1.921c-3.949-9.604-2.783-18.935 7.203-26.68zm32.132.304l.375 5.224-21.907 21.324c3.335-11.913 4.257-19.104 5.153-26.52zm70.154 1.229l.01 2.9c-8.637 9.513-17.342 13.777-24.863 15.5l-.171-1.114 3.482-2.145c11.223-4.888 16.137-9.81 21.543-15.141zm-26.213.078c.152 2.095-1.713 6.05-3.846 8.283l-3.653-.01-.404-1.585c3.029-1.633 5.835-3.844 7.903-6.688zm1.103.624c1.342 2.16-.671 7.747-.754 7.526-.161.385 11.478 2.845-.48 8.602.26 1.692 1.382 5.304.518 7.535-.27-.854-2.35-6.65-3.958-8.133 3.733-1.063 6.422-3.347 6.13-4.1-.606-1.07-2.278-2.385-5.09-3.35 2.394-3.321 3.106-5.816 3.634-8.08zm-85.48 1.058l.375 4.404-4.252 2.557-.327-4.835zm73.964 4.09c.332.005.644.09.797.257 2.1.85 2.252 11.095.347 12.137-1.385.87-2.36-.529-2.311-.778.918-4.714.344-7.627-.038-10.923.04-.479.652-.7 1.205-.692zm36.626.152v3.644c-12.346 12.798-25.65 22.886-39.23 28.55l-1.24-2.101c16.496-7.627 30.288-18.509 40.47-30.093zm-2.168.333c-5.719 7.96-12.686 13.157-22.23 15.515l-.18-2.258c11.886-2.7 22.719-13.257 22.41-13.257zm-155.634 1.29c7.448 7.614 15.08 15.16 22.662 22.975l-3.013.157-19.74-20.48zm88.664.38l.266 1.879-2.169 2.377 3.426 3.682.176.868-2.942 3.075-1.329-1.314 1.628-1.827-2.762-2.904-5.12 4.925 4.218 4.58-3.183 3.026-1.253-1.295 1.627-1.879-2.827-2.985-5.22 5.191 3.948 4.361-2.634 2.913-1.248-1.314 1.353-1.551-2.861-2.947-5.016 4.83 4.128 4.565-3.354 3.34-1.3-1.262 1.883-2.05-3.093-2.946-2.482 2.344s.936-2.326 1.072-2.72c.2-.577 1.022-1.034 6.24-6.182 6.227-6.199 12.614-12.007 18.828-18.78zm35.72 1.252c1.82.031 4.917.47 6.42 1.263 2.789 1.47 1.912 2.628.1 3.492-2.167 1.032-3.944 1.537-6.392 1.608l.071-1.2c1.421-.344 2.896-.69 4.152-1.386.864-.478 1.087-.863 1.087-.863s-.843-.856-2.183-1.343c-.981-.356-2.383-.354-3.146-.48zm-81.461 1.585l2.291 3.436-2.714 4.55-2.605-3.924zm46.23.37c.08.648.9 3.164.47 2.676l-1.524-1.712zm35.373.337c1.267.107 2.6.145 3.526.593-1.073.833-2.29 1.019-3.502 1.225zm31.796 1.718a1.386 1.386 0 1 1 0 2.77 1.386 1.386 0 0 1 0-2.77zm-71.506 2.4l1.181 1.144-1.528 1.78 2.771 2.918 3.43-3.212.456 2.04-32.142 31.625-1.784-.128 2.045-2.415-2.325-2.378.954-1.708 2.742 2.44 5.025-4.807-4.07-4.285 3.482-3.573 1.314 1.134-1.997 2.164 2.908 2.97 5.258-5.172-4.114-4.475 3.283-3.131 1.206 1.143-1.528 1.618 2.999 3.123 4.431-4.613-4.033-4.44 3.583-3.488 1.1 1.1-1.65 1.842 3.012 3.117 4.835-4.968-3.98-4.318zm68.289.826a1.386 1.386 0 1 1 0 2.772 1.386 1.386 0 0 1 0-2.772zm-26.126.062c2.183 2.563 3.496 5.415 3.758 8.484-1.743-2.646-3.963-4.993-6.87-7.032l.498-1.286zm30.823.209v3.094c-9.737 11.031-21.557 19.346-33.693 25.134l-2.064-2.51c14.353-6.408 24.74-14.366 35.757-25.718zm-14.325 2.159l-3.947 3.065-.005-1.328 3.953-1.737zm-20.346.228c3.36 1.64 6.179 4.413 7.858 8.522-4.59 2.88-9.625 5.212-14.425 7.535-2.304-3.712-4.623-7.188-6.443-11.966 7.402-.055 9.433-4.098 9.485-4.13 1.783.675 2.157.755 3.525.039zm26.596.602c.69.014 1.38.542 1.404 1.334a1.386 1.386 0 1 1-2.771 0c.15-.956.758-1.346 1.367-1.334zm-10.245.911l.01 1.338c-1.89 1.656-5.561 4.337-5.561 4.337l-1.519-.08.494-3.796c2.299-.464 4.527-1.136 6.576-1.799zm-96.688.157l3.626 2.98-1.11 4.621-3.569-2.71zm48.684.873l.336 1.338-29.784 29.442-1.694-.275zm54.946 1.139a1.386 1.386 0 1 1 0 2.77 1.386 1.386 0 0 1 0-2.77zm10.999-.01c.163 0 .356-.012.356.143v2.548c-.145.051-.302.08-.465.08-.765 0-1.277-.62-1.277-1.385s.62-1.386 1.386-1.386zm-3.361 3.089a1.386 1.386 0 1 1 0 2.771 1.386 1.386 0 0 1 0-2.771zm-11.643.014a1.386 1.386 0 1 1 0 2.771 1.386 1.386 0 0 1 0-2.77zm-10.016.427l1.423.048-2.647 1.575c.486-.608.94-1.074 1.224-1.623zm25.395.649l.019 2.848c-6.813 6.81-15.416 13.875-28.57 20.684l-1.676-1.697c10.725-5.116 20.79-12.282 30.227-21.835zm-19.345 1.553a1.386 1.386 0 1 1 0 2.771 1.386 1.386 0 0 1 0-2.77zm12.317.105a1.386 1.386 0 1 1 0 2.77 1.386 1.386 0 0 1 0-2.77zm-137.983 5.56c4.701-2.728 8.48-3.048 13.865-2.225l1.609 3.175c-5.244-.93-10.769-.847-15.493 2.799-4.895-3.093-8.614-3.986-12.634-3.483l-.073-3.346c5.24-.732 9.941 1.063 12.726 3.08zm121.846-3.017a1.386 1.386 0 1 1 0 2.77 1.386 1.386 0 0 1 0-2.77zm12.669.57a1.386 1.386 0 1 1 0 2.77 1.386 1.386 0 0 1 0-2.77zm-16.835 2.068a1.386 1.386 0 1 1 0 2.771 1.386 1.386 0 0 1 0-2.771zm12.917.803a1.386 1.386 0 1 1 0 2.771 1.386 1.386 0 0 1 0-2.77zm-17.188 1.645a1.405 1.405 0 1 1 0 2.81 1.405 1.405 0 0 1 0-2.81zm13.485 1.163a1.386 1.386 0 1 1 0 2.77 1.386 1.386 0 0 1 0-2.77zm-17.589.958a1.386 1.386 0 1 1 0 2.771 1.386 1.386 0 0 1 0-2.77zm-61.253 1.253l3.445 3.155-3.563 3.578-1.305-1.253 1.983-2.073-1.342-1.808zm75.02.307a1.386 1.386 0 1 1 0 2.77 1.386 1.386 0 0 1 0-2.77zm-3.99 2.345a1.386 1.386 0 1 1 0 2.771 1.386 1.386 0 0 1 0-2.77zm-4.335 2.354a1.386 1.386 0 1 1 0 2.77 1.386 1.386 0 0 1 0-2.77zm-71.254 3.92l1.124.915-1.765 2.126-1.348-.02zM67.91 219.93c-3.926 1.943-5.792 3.174-8.53 5.557l-3.925-5.443zm-26.718.038l10.458.147-3.478 4.92c-2.294-2.417-4.62-4.058-6.98-5.067zm12.455.536c1.134.361 4.1 4.588 5.495 6.895 2.974-2.365 5.886-5.008 9.063-6.43-3.777 3.989-7.093 8.115-9.452 12.105-.67-1.8-2.531-6.949-4.888-9.187-3.717 3.47-5.186 7.659-5.186 7.659-2-3.407-4.408-6.82-7.193-10.012-.461-.622 3.39 1.771 7.203 5.48 1.073-2.704 3.947-6.403 4.958-6.51zm-12.56 2.657c1.796 1.427 6.68 7.692 7.241 11.46l-2.34.147c-1.243-3.87-3.333-7.737-4.9-11.607zm26.007.641c-1.768 3.627-3.962 7.331-5.537 11.345l-2.31-.1c2.53-5.53 3.452-6.543 7.847-11.245zm-13.252 1.613a.08.08 0 0 1 .057.015c2.196 2.997 3.232 5.91 3.886 9.456l-1.699-.066s-1.185-3.56-1.998-4.816c-.526-.768-.948-.67-1.319-.033-.838 1.504-1.152 3.012-1.622 4.65l-1.955-.143c-.362-2.687 3.964-8.994 4.65-9.063zm-.309 10.33c.795.011 1.625.871 1.618 2.384.062.708-.49 2.28-1.086 2.361-1.108.587-2.418-1.24-2.088-2.762.28-1.298.855-1.991 1.556-1.983zm-3.847.286c1.57.14 1.908 3.66 1.272 4.38-.73.724-2.662.21-2.845-1.044-.63-1.597.519-3.32 1.573-3.336zm7.738-.02c1.71.24 1.28 4.104.395 4.672-1.375.727-2.422-.488-1.958-2.305.374-1.463.931-2.333 1.563-2.367zm3.953.64c1.958.22.826 3.622-.029 4.315-1.242.967-2.441-.48-1.846-2.208.462-1.34 1.23-2.116 1.875-2.107zm-15.804.105c1.424.227 2.25 3.45 1.401 4.371-.442.528-1.73-.242-2.319-1.126-.706-1.06-.044-3.25.918-3.245zm15.161 7.02c.17 1.691-1.107 1.69-4.786.866-1.857-.417-5.15-.154-6.832.152-2.832.513-3.232.317-3.227-.835.007-1.338 1.594-2.097 5.267-2.21 2.628-.081 9.17-.107 9.578 2.026zm5.72-.994c-4.38.412-5.546 5.901-5.063 7.929.385 3.39.22 6.94-.432 9.271-.467 1.676-.883 3.46-1.637 4.978-1.152 2.294-.855 3.996.854 4.91 1.403.752 3.131.495 4.214-.668 1.957-2.103 2.19-6.567.991-16.693-.423-3.574-.196-4.286 1.538-4.085 3.639-.029 3.493-5.637-.465-5.642zm-.527 4.612c-.98-.378-1.644.511-1.514 2.728.035.984.208 2.09.333 2.97 1.416 9.717.886 16.226-2.098 16.546-2.597.417-4.356-1.495-3.089-3.473.718-1.12 1.337-1.272 2.733-.683 1.92 1.19 1.439-.544-.289-1.822-1.108-.784-1.193-.784-.598-3.236.802-3.308 1.073-5.667.778-9.85-.414-2.96.575-6.886 4.342-7.117 3.81-.115 2.66 5.295-.598 3.937zm-26.89 12.797c1.24.598 2.446.496 3.626.01.46-2.065.488-3.784 1.878-6.593-2.316-2.318-6.213-1.407-7.31 1.022-1.098 2.429-.076 4.652 1.806 5.561zm3.716-7.17c1.403.298 1.193 1.772-.128 1.291-3.15-1.483-5.717 2.98-3.175 4.66 1.297.725 1.87.309.584-.688-.527-.607-.394-.854-.076-1.462.66-1.226 3.059-1.028 2.89-.137-.547 2.826-.907 3.642-1.756 3.648-4.89.252-5.811-8.901 1.66-7.313zm41.542 5.082s-14.568 16.47-21.585 24.907l87.948-.409-16.736-23.088c-14.357 3.314-31.225 2.357-49.627-1.41zm-.437 5.262c2.197.024 4.696 1.62 6.857 6.938.117.05 9.672-14.51 17.945.564 1.35-3.384 9.143-12.21 18.15-.882 3.199-7.582 10.577-5.017 11.269-2.373-.155-.57-7.03-2.201-10.007 2.823-.55 1.065-.579 2.074.052 2.672 1.487 1.41-.132 3.43-1.826 2.281-.66-.447-.744-1.388-.238-2.066 1.495-1.115-1.567-4.581-4.086-5.828-3.456-1.712-8.276-.957-10.594 1.5-1.246 1.32-2.008 2.507-2.19 3.456-.097.44-.038.67.224.964 1.005 1.213.342 2.873-1.018 2.671-1.782-.263-1.544-1.93-.352-2.84.365-.18.227-.394.117-.705-3.254-9.16-15.379-7.416-16.69-1.072-.047.23-.151.472-.098.709.136.607.49 1.119.354 1.596-.556 1.948-2.993 1.389-3.104-.225-.05-.734.743-.955 1.13-1.625.233-.42.34-.934.117-1.4-3.286-6.884-8.926-5.444-11.725-3.888-.059.032 2.503-3.304 5.713-3.27zm-3.644 3.99c1.202-.042 2.295.549 3.317 1.733 3.443-1.821 5.892 1.332 5.485 1.637-4.877-3.165-6.46 4.21-1.655 3.93-2.112 4.367 5.43 6.239 4.583.657 4.654 1.624 5.422-4.766.708-4.67 1.523-2.636 5.477-1.911 7.15-.259 1.966-2.4 6.794-.111 7.273 1.94-5.415-2.773-5.96 5.705-.716 3.901-1.553 5.397 6.784 4.629 4.479-.023 5.193 1.707 4.486-6.053-.617-4.48-.31-.402 4.035-4.889 7.194-.673.427-.743 5.358-3.174 8.056.645-5.846-1.978-4.74 5.892-.55 4.327-1.12 5.214 6.439 4.368 4.508-.076 5.857 1.481 3.264-7.442-.853-4.147.671-3.586 5.594-2.1 5.54-1.547 0-.002 2.616-2.827 5.543-.759-4.574.385-3.018 6.554 1.304 4.798-.046 2.093 1.694 3.48 4.048 2.77l3.696 5.168-84.308.531 6.735-8.028c2.253 1.862 4.588.982 4.876-1.938 4.903 3.007 6.176-4.135 1.575-4.444.935-.637 1.807-.963 2.63-.992zm-4.712 2.321c.292.206-.104 1.199-.75.911zm65.737 2.074c.25.358.428.59.678.949.121.32-1.314-.17-.678-.95z"/></svg>