<svg xmlns="http://www.w3.org/2000/svg" width="224.225" height="312.808"><title>Vectorized Playing Cards 1.0</title><g transform="translate(-995.634 -1753.852)"><rect y="1754.351" x="996.133" height="311.811" width="223.228" rx="10.63" ry="10.63" fill="#fff" stroke="#000" stroke-width=".997"/><path d="M1025.792 1780.136h163.532l.3 261.366-163.967-.436s-.006-170.555.135-260.93zm116.157 259.485c-6.089-10.987-15.714-28.883-15.999-29.026-3.56 1.886-39.847 6.72-57.3 2.04-5.97 8.923-11.832 17.761-17.029 26.607zm-55.73-32.861c-.914.02-1.932.574-1.744.092.109-.279.366-3.096.479-4.104.273-.448.658.727.614 1.819-.026.626.277.179 2.344.287 2.235.116 4.066.533 4.825.696 2.643.57 7.757.16 9.949-1.425 1.186-.859 1.635.068.412.99-5.523 4.16-9.902 2.574-14.7 1.877-.715-.104-1.439-.249-2.18-.232zm2.348-3.948c-.344-.222-.57-.245-1.009-.041-1.695.786-1.252-.342-.03-1.479.557-.519.541-.783.118-1.329-.215-.276-.573-.31-.487-.724.366-1.783 2.885-4.48 5.7-5.685 1.17-.502 1.356.047-.125.912-2.277 1.33-3.014 2.465-1.726 2.003 2.497-.895 4.775-.263 7.97 1.321.913.453 1.331.541 2.108.459.574-.473 1.088.096 1.443.393.224.178.272.264.526.205 1.818-.425.729.727-1.756 2.53-4.451 3.126-9.306 4.6-12.732 1.435zm6.847.769c1.82-.545 4.038-1.683 5.398-2.87 1.654-1.442.719-1.223-1.181-.314-2.75 1.316-4.677 1.697-7.77 1.626-2.59-.059-2.51-.163-2.604.158-.33 1.125 3.233 2.275 6.157 1.4zm-5.025-4.396c.148-.485.261-1.13.129-1.34-.24-.381-.754-.1-1.41.721-.405.51-.349.579.048.98.2.135.352.235.472.304.553.234.642-.275.761-.665zm1.133.664c.796-2.693 2.58-2.64 3.851-.063l.898.005c-1.845-5.015-5.416-2.475-5.535.02.42.138.786.038.786.038zm6.661-.453c.842-.466.719-.784-.354-1.333-.762-.39-1.165-.47-1.304-.217.01.555.033 1.35.357 1.79.336.203.798.003 1.301-.24zm-11.8-7.67c-.155-.254-.128-.716.458-.986 3.61-1.66.98-5.164-1.808-2.536-.884.72-2.2 1.055-3.215.626-.955-.413-.973-1.573.296-1.82.416-.081 1.485-.307 1.879-.579 4.847-2.575 7.42 3.025 3.982 4.889-.707.41-1.457.638-1.593.406zm-13.579-5.086c-1.967-.884-2.236-3.958-.393-5.154 1.174-.797 2.373-1.014 5.606.574 2.283 1.122 3.59-.086 3.53 1.22-.035.793-.083 1.593-1.41 1.784-2.158.311-3.63-2.596-6.402-2.321-1.999.197-1.746 2.572-.301 3.054 1.925.643.758 1.406-.63.843zm36.168.447c-.361.168-.53-.616-.374-1.035.983-2.315 1.887-4.155 2.778-6.324.711-1.728 1.188-2.47 1.507-2.469.326.002.477.255-.068 1.319-.824 2.146-3.839 8.692-3.843 8.509zm-16.15-.6c-.87-.615-.723-1.528.267-.837 1.273.888 3.359-.737 2.933-2.271-.514-1.854-2.995-2.303-5.071-.643-3.277 2.62-6.871 2.753-6.871.705.006-.585-.077-.718 1.287-.81 1.585-.105 3.373-.826 4.261-1.364 3.986-2.412 8.226-.747 7.348 3.277-.396 1.898-2.74 2.818-4.154 1.943zm-14.614-5.94c-.323-.01-.914.314-1.084.189-.332-.246-.284-.96-.556-1.725-.485-1.357-.013-.933.84-.566 1.157.444 2.254.359 3.23.022 1.007-.347 2.328-.268 4.442.006 1.701.22 2.657.157 4.2-.282 1.676-.52 1.233-.333.953.693-.181.673-.41 1.576-.624 1.793-1.158-.644-2.038-.394-2.799.044-1.25.547-2.138.641-3.162.337-.964-.545-1.536-.5-2.31-.03-1.334.642-1.925-.42-3.13-.48zm24.987-2.82c.235-.41.576-.973.896-1.606 2.589-5.106 2.766-6.526.938-8.247-2.455-2.312-4.548-1.309-6.9 3.308-.572 1.12-.913 1.962-1.144 2.308-.266.399-.577.092-.73-.063-.29-.294 2.321-5.195 3.344-6.265 2.679-2.8 7.655-.56 7.338 3.248-.16 1.918-.526 2.97-2.292 6.486-.437.87-.817 1.608-1.048 1.963-.828.551-.64-.713-.402-1.132zm-24.401-.203c.409-1.819 6.279-2.66 7.826-.276.151.233.063.224-.602.043-2.984-.98-3.576-.926-6.436.196-.43.165-.735.233-.788.037zm22.398-.346c0-.17.218-.843.55-1.493 1.957-3.843 2.497-4.77 1.9-5.488-1.164-1.4-2.726-.183-4.162 3.829-.537 1.5-.902 1.18-1.164.943-.501-.453 1.718-5.122 2.789-5.818 2.426-1.532 4.336.242 3.264 3.377-.837 1.415-1.528 3.593-2.31 4.74-.37.513-.87.36-.867-.09zm-8.778-6.24c-.118-.194.111-.455.952-2.244 1.156-2.46 1.514-3.372 1.044-4.776-.837-2.503-3.992-3.117-5.908-1.474-.627.53-1.053 1.264-1.348 1.922-.693 1.526-1.27 3.499-1.68 3.913-.36.359-.86.432-.827-.195.455-1.328.67-2.358 1.748-4.304 2.685-5.797 10.426-3.113 8.614 2.989-.673 2.215-1.448 3.893-1.906 4.438-.255.303-.678.04-.689-.27zm-1.796-1.065c0-.19.291-.735.6-1.492 1.308-3.217 1.317-4.203-.591-4.244-1.141.146-1.31.61-2.313 3.148-.325.825-.505 1.412-.698 1.663-.208.27-.597.11-.757-.052-.41-.414 1.377-4.576 2.322-5.36 2.172-1.878 4.985.788 3.667 3.182-.618 1.673-1.15 2.808-1.512 3.326-.32.457-.722.393-.718-.171zm-46.23-37.504l-6.596-.45c1.17 7.014 1.229 14.735.048 20.21-1.01 4.68-1.021 8.129-.72 12.187.35 4.722 2.362 8.726 2.868 13.739.367 3.631-.442 7.422-1.164 11.033-1.206 6.034-.957 6.664-.78 13.745.165 6.564-.451 6.33-.83 5.946-.057-.058-.11-1.22-.101-2.6.008-1.38-.078-4.757-.157-7.101-.158-4.683.366-8.821.745-10.524.772-3.467 1.64-7.017 1.106-10.854-1.086-4.841-2.617-9.677-3.154-14.344-.661-5.754.966-11.528 1.504-15.707.52-4.035-.031-11.016-1.094-13.922-.183-.966-1.052-2.226-1.052-2.226-.994-.142-1.993-.281-3.388-.273-.078 27.712 0 55.435.022 83.15l6.15 5.68 6.32-5.98zm.445 31.79s9.385 5.376 19.733 10.66c-.985-6.046 2.14-6.957 5.074-7.659-.703-11.678 10.05-9.283 11.698.864l1.06.005c1.863-5.06 3.705-8.55 7.948-9.384 3.287-.646 6.53 1.426 7.352 6.306-.145-.343 10.901-6.451 11.205 6.454 5.017-3.1 8.596-.422 10.043 3.513 2.118-3.212 7.419-3.353 9.114-3.587.59-.677 1.631-1.064 3.524-1.052 1.622-.082 3.802-1.29 4.923.182 1.706.268 3.005-.04 4.463 1.082 1.16.877 2.454 2.833 4.385 1.484 3.682-1.764 7.82-2.56 11.112-4.688 0 0-.873-1.119-.618-.958.093.06.503.588 1.12.834.222.088 2.245-1.118 2.245-1.118-13.714-15.723-24.995-46.417-17.546-74.816.206-.483-.622-.669-1.029-.84.126-.218 2.139.074 1.284 1.88-.861 5.44-1.836 11.337-2.053 15.848-.004.55.046 1.041.046 1.041 30.75 14.115 26.98 44.686 19.08 55.327l1.245 1.651c.55.367 24.19-13.35 23.41-13.914l4.473-2.216-.725-59.947-17.69-1.347s.188-.503.412-.634c.162-3.66-.167-9.072.01-13.603.068-12.947.199-17.35.03-17.708-5.456-3.576-13.592-8.804-20.439-11.34.281.08-.111 5.366-.32 5.667-6.406 2.034-3.432 4.634-5.8 7.427-1.59 1.74-5.313 2.071-7.11-.016-2.148-2.068-3.155-6.813-3.155-6.813-3.39 3.606-2.693 7.963-7.232 9.603-7.294 3.601-9.61-7.164-9.186-6.915-2.795 2.682-10.639 4.863-11.486-6.461-3.527 3.231-7.48 1.627-9.157-2.349-2.153.076-4.567 1.754-6.746 2.662-2.021.89-4.608 1.413-6.528 1.374-2.401.289-4.38.278-6.543-.364-1.017.329-3.31-.654-4.017-2.06-1.082-1.266-2.025-1.34-3.054-1.112-3.504 1.837-7.262 2.28-11.398 4.204-.259.178.363.515.154.449-.088-.028-2.173 1.018-2.173 1.018 20.954 27.417 22.094 55.097 17.702 74.716-.172.68-.267 1.174.186 1.709-.665-.114-.676.08-.8-.344l2.179-16.468c.064-1.989.314-1.842-1.442-2.584-1.624-.686-3.16-1.347-4.5-2.167-5.11-3.768-10.884-8.405-13.698-14.192-8.03-12.438-5.38-27.278.634-39.037l-1.496-1.546c-17.564 8.757-27.933 18.2-27.933 18.2l.075 58.823 18.049 2.072zm-8.707-39.281c-.579-.637-2.053-.749-2.667-.265-.142.12-.445.743-.534.72-.818-.209-1.384-.378-1.493-1.065l.868-1.305c.687-1.033 1.677-1.4 3.346-1.788.592-.137 1.486-.263 1.801-.397 1.254-.54 1.69-1.706.421-1.183-.927.253-2.223.17-2.395-.675-.142-.693-.735-.965-1.397-.883-1.223.292-2.34.928-3.422 1.567-.48.288-1.39.94-1.39.94-.144.225-.674-1.41-.18-1.888.613.074 1.141.08 1.74-.157 1.491-.592 2.928-1.306 4.434-1.879.959-.374 1.047-.343.794-1.02-.124-.25-.235-1.08-.07-1.514.176-.462.156-.694-.142-.892-.677-.449-2.302-.03-4.588 1.062-.696.333-1.155.467-1.595.82.284-.72.118-.852.111-1.606.933.117 1.773-.252 2.518-.643.614-.32 1.303-.635 2.992-.85.461-.059.251-1.739-.274-2.226-.497-.46-1.541-.47-2.804-.098-1.128.258-2.53.519-3.307 1.725-.978.922.024-1.529 1.81-2.507.782-.017 2.508-.385 2.914-.475.689-.151.8-1.76-.202-2.449-.627-.544 2.277-.559 2.221-.393-.037.095-.064.783.159.958 1.25.375 1.24 1.392 1.349 1.821 1.436 2.347 2.143.875 3.132.066-.209 5.11 1.587 5.692 1.824 6.015-2.466 4.579-.606 4.691 1.706 5.745 0 0-.878.355-1.463.319-.92-.057-2.682 1.029-3.452 1.669-.425.353-.438.058-2.136.01-1.6-.047-1.718.072-2.448.393-1.44.635-1.432 1.235-.025.999 1.498-.253 2.966.653 3.138 1.886.119.234.013.646-.011.632-.312-.058-1.018.059-1.007-.09.01-.148 0-.707-.276-1.1zm2.186-6.193c.406-.258.476-.993.123-1.29-.322-.271-1.69-.127-2.076.219-.874.684.723 1.829 1.953 1.07zm.876-3.076c.502-.39.564-1.329.128-1.874-.738-.924-2.668-.37-2.773.795-.111 1.24 1.593 1.895 2.645 1.079zm-.628-4.22c.09-1.02-.923-1.665-1.856-1.182-1.16.602-.456 1.87.999 1.796.805-.041.805-.041.857-.615zm-3.4-4.136c-.542.265-.57.9-.056 1.31 2.037 1.119 1.417-1.88.056-1.31zm142.28 6.091c-.894-3.28-3.36-.028-3.363.018-.087-3.362.552-4.859-1.98-6.007 2.541-3.833 2.011-4.361-.683-5.831.248.021 3.576-.722 4.146-2.615.127.089 5.224 1.339 5.86-1.43-1.538.697-4.563.801-4.598-2.177.286-.086 1.004.061.944.156-.403 1.91 3.092 2.383 3.664.874 0 0 1.174.783 1.69.904.058.039-1.59 2.313-3.091 2.656-2.708.893-3.642 1.133-3.646 1.67 0 .207.442.24 1.247.404 1.682.116 1.646.475 1.867 1.03.195.49.385.589.946.54 1.92-.636 2.881-.97 4.22-2.303.163-.031.352 1.401.456 1.45.015-.228-1.36.17-3.471 1.4-1.723 1.005-2.398 1.15-2.617 1.422-.163.2.256.834.3 1.522.037.578-.353.858-.066 1.039.332.208.846.17 1.52-.004 1.49-.358 2.587-.941 3.926-1.765-.284.536.193 1.897.193 1.897s-.661-.463-1.205-.223c-1.048.458-2.743 1.082-3.2 1.19-.443.103-.636.16-.809.307-.213.18-.177.613-.181 1.248-.003.446-.131.858.15.992.626.201 1.889.138 3.175-.31.548-.237 1.711-.868 1.711-.868l-.364 1.882c-.488-.548-1.888-.145-2.826.223-.473.148-.614.444-.734.855-.21.702.238 1.186.755 1.416.344.154.873.091.873.091-2.428.92-1.945 1.26-3.362.562-.613-.661-1.213-1.358-1.447-2.215zm2.542.001c-.403-.463-1.104-.73-1.513-.546-.364.192-.233.595-.117.902.307.852 2.441.577 1.63-.356zm-1.417-2.345c.57-.743-.057-1.743-1.109-1.75-.731-.004-1.12.45-1.113 1.02.015 1.078 1.747 1.35 2.222.73zm-1.169-2.832c1.055-.285 1.378-1.303.65-2.041-.519-.525-2.146-.59-2.58-.116-1.112 1.212.133 2.644 1.93 2.157zm.877-3.724c.62-.316.74-.841.192-1.438-.993-.842-2.727-.186-2.167 1.041.275.601 1.22.781 1.975.397zm-126.94-28.27c.93-.338 1.603-1.057 2.584-1.61.66-.36.462-.302-.384-.795-.666-.304-2-1.649-2.124-1.328-.303.573-.26 3.707-.077 3.733zm23.55 32.822c.038-.64.115-1.603.097-2.31.126-1.346-.117-.953-.849-.513-.541.348-1.41.876-1.75 1.045-1.343.667-1.183.702.708 1.608 1.587.708 1.765.638 1.793.17zm-1.844-3.152c1.284-.805 1.71-1.22 1.772-2.124.006-1.04-.115-1.418-1.03-.698-3.124 2.456-6.339-2.362-3.48-5.039.583-.546 1.324-1.4 1.33-1.617.047-1.552-1.708-.045-3.142 2.087-1.588 1.938-2.577 4.364-1.184 6.692 1.114 1.704 3.595 2.042 5.734.7zm-7.096-3.135c-.057-.76.158-1.61.258-1.862.35-.89.335-1-1.256-.26-.635.209-1.392.378-1.684.376-1.3-.008-.975.4.888 1.946 1.872 1.554 1.934 1.694 1.794-.2zm4.427-7.443c.198-.468-.214-.648-.61-.56-.03.007-.712.513-1.513 1.141-2.427 1.903-4.207 2.125-5.412.675-1.22-1.47-.71-3.212 2.019-5.208 1.204-.88 1.493-.94.914-1.325-.44-.293-.467-.248-2.198.919-3.488 2.35-4.532 3.956-4.183 6.295.072.96.577 1.464 1.067 1.838 3.325 2.933 7.939-1.111 9.916-3.775zm3.52 1.388l-.21-3.237c-3.546-3.044-6.91-8.242-8.072-12.548-1.185-3.829-.24-11.816-.063-11.223l-1.916-3.613c-1.667 3.835-2.396 9.681-.581 15.639 1.54 5.056 4.623 11.181 10.842 14.982zm-14.936-1.886c1.127-2.154 1.161-1.921-1.015-1.94-2.485-.02-2.207-.322-.807 1.79 1.125 1.696.935 1.844 1.822.15zm1.492-2.951c1.431-.458 1.104-.353 3.004-1.582 2.18-1.412 2.27-2.183.082-1.096-2.81 1.397-5.277 1.04-6.193-.783-.816-1.624.888-3.65 3.693-4.442.959-.27 1.464-.5 1.466-.917.008-1.274-4.767.426-6.735 2.349-3.798 3.713-.474 8.118 4.683 6.47zm-6.14-5.781c.127-.194.469-.658.784-1.14 1.345-1.555.214-1.09-.98-1.516-.631-.232-1.278-.462-1.648-.406-.715.108.24 1.481.47 2.368.643 1.974.57 1.914 1.373.694zm5.084-3.558c2.408-.235 2.653-.466 2.656-.963.003-.493-.294-.398-1.503-.231-3.2.442-5.32-.369-5.777-2.067-.473-1.754 1.695-3.413 4.584-3.315 1.565.053 2.607-.486 1.654-1.003-.496-.27-4.806-.212-5.78.07-2.864.83-4.031 2.416-3.77 4.611.396 2.71 1.883 3.487 5.508 3.295.694-.037 1.58-.315 2.428-.397zm1.863-8.829c.002-.423-.685-.484-2.957-.82-3.026-.447-4.378-3.235-2.554-4.912.691-.636 2.34-.908 3.257-.742 1.995.362 3.215.77 3.234.096.004-.6-.575-.644-4.32-1.431-5.659-1.191-8.765 4.337-4.24 7.041 1.718 1.028 7.575 1.612 7.58.768zm1.403-7.91c.001-.212-.183-.375-.611-.542-.623-.242-1.041-.287-2.446-1.23-1.867-1.252-2.434-3.696-1.188-5.057 1.21-1.272-.967-2.772-2.702-1.338-1.802 1.49-1.65 3.83.425 5.683 1.911 1.705 6.516 3.478 6.522 2.483zm-9.168-.331c1.966-.918 3.379-.39 1.874-1.657-.845-.78-1.566-2.995-2.153-1.116-.45 1.12-.78 3.095-.792 3.29.132.133.102-.096 1.07-.517zm69.564-4.768c-2.24-.555-3.77-3.144-3.2-5.632.322-1.406 1.651-4.72 1.913-4.926.988-.78.853.258-.054 2.061-.828 1.84-1.472 3.32-1.216 4.416.364 1.56.998 2.75 2.626 3.145 1.145.278 2.224-.197 2.955-.71.966-.68 1.88-2.423 2.972-4.836.35-.679.818-2.763 1.4-1.491.28.658-2.05 5.037-2.922 6.146-1.096 1.396-2.948 2.215-4.474 1.827zm13.504-1.465c1.091 1.04 2.936 1.564 4.14 1.191 2.954-1.036 4.296-3.814 3.178-8.28-.566-2.504-1.05-4.061-1.54-4.37-.239-.151-.499.13-.73.478-.207.31.109.748.444 1.926 1.412 4.963 1.043 7.208-.68 8.156-2.5 1.376-4.642-.209-5.368-3.75-.116-.547-.458-1.663-.458-1.663-.192-.492-1.74-.383-1.177 1.265.17 1.276 1.35 4.318 2.191 5.047zm12.674-12.999c-.039-1.746-3.729-9.323-3.98-8.519 0 0-.016 1.771.128 2.468.055.263.247.507.404.787 3.207 5.69 2.712 9.701-.069 10.58-.947.428-1.153.85-.73 1.29.858.928 3.007-.906 3.425-1.572 1.052-1.493.906-4.218.822-5.034zm-53.698-1.288c1.209-1.343 3.859-5.979 4.676-8.41 2.514-7.24 5.156-15.565 5.887-23.261.08-.971.131-2.449.18-2.575-.198-.213-1.444-.101-1.863.111-.2.26-.066.837-.138 1.588-1.125 8.651-3.201 16.534-6.28 24.557-1.348 3.486-2.599 5.78-4.221 8.204-.284.423-.644.86-.786 1.105-.41.59-.108.975.367.726.844-.476 1.572-1.389 2.178-2.045zm-4.12 2.105c3.855-5.281 6.595-11.621 8.725-19.105 1.346-4.843 2.53-9.744 3.241-14.739.146-1.066.264-1.78.055-2.098-.52-.14-1.493-.053-1.83.206-.206.31-.068.932-.259 2.37-.493 3.716-1.232 7.448-2.478 12.334-3.29 10.813-6.314 16.867-10.286 22.164-.32.446-.607.735-.578.924.042.278.428.255 1.059-.138.825-.645 1.768-1.209 2.35-1.918zm-5.874 2.807c1.886-1.066 5.207-5.703 7.553-10.698 2.632-5.896 4.836-12.556 6.278-18.324.626-2.527 1.516-8.84 1.389-9.255-.151-.494-1.995-.083-1.739.258 0 0-1.831 10.147-3.801 15.74-3.658 10.383-6.822 17.428-10.226 20.815l-1.325 1.312s.018.388.302.447c.68.125 1.131-.071 1.57-.295zm-2.886-.414c4.255-2.372 9.24-13.449 13.308-27.357.696-2.38 1.968-10.347 1.968-10.347s-1.695.063-2.022.418c-.33.482-.277 1.707-.752 4.619-1.83 8.797-4.589 16.822-8.737 24.753-1.794 3.514-4.774 6.824-6.656 7.767-1.052.527-1.36 1.107-.59 1.15 1.298.046 1.413.316 2.356-.188zm58.314 123.881c-3.19-.011-5.902 3.041-8.317 6.878-5.137 7.86-8.59 20.997-9.43 27.977l1.937-.364c-.29.133 3.624-18.582 9.586-26.595 3.224-5.056 3.088-5.132 4.898-5.596 2.288-.587 4.123 1.882 2.988 3.369-.411.503-.862.133-.735-.584.406-2.289-2.943-2.729-3.879-.48-1.076 2.586 1.786 4.893 4.582 3.876 2.498-.88 3.545-4.362 1.79-6.935-.901-.87-2.205-1.642-3.42-1.546zm-16.8-.32c-3.821 4.784-5.714 9.701-8.06 16.415-2.345 6.707-4.03 13.268-4.76 20.796l2.062-.265c-.075-4.84 5.244-27.883 12.718-36.515.418-.547.753-1.001.722-1.128-.415-1.165-2.187.238-2.682.696zm8.443-1.787c-4.953 4.046-8.91 12.886-11.518 21.058-2.82 8.833-4.086 16.927-3.874 16.927l1.968-.288c-.147-.513 5.528-31.637 16.06-37.304.913-.454 1.104-.912.334-1.11-1.185-.166-2.139.222-2.97.717zm5.545.02c-10.815 1.42-17.882 34.506-18.118 37.253-.003.042-.04.256-.04.256l2.154-.443.028-.158c1.483-8.454 2.927-14.38 6.298-22.021 2.627-5.663 6.252-12.903 11.668-13.605.44-.057.857.12.703-.392-.33-.811-1.949-.914-2.693-.89zm-64.453-10.418c-3.908 1.002-4.036 5.675-1.432 11.646.196.451.161.698.36.871.445.389.794-.153.844-.51.075-.543-.157-1.273-.57-2.334-1.611-4.133-1.225-6.515.37-7.568 4.089-2.101 5.189 2.213 5.807 4.198.151.484.203 1.15.47 1.185.816.112 1.205-.177 1.192-.177 0 0-1.083-3.716-1.743-5.112-1.068-2.259-3.61-2.731-5.298-2.2zm-28.357 4.411l-.04 49.255-7.483 7.013c-3.211-2.747-7.43-7.048-7.43-7.048l.133-83.267-2.407-.193c-.59 35.775-.17 72.084-.198 107.929l22.124.163 18.31-28.54s.233-.34.306-.52c.224-.552.198-1.373.088-4.408-.045-1.233.094-2.18-.088-2.47-.185-.293-.575-.083-.94.08-.371.166-.592.107-.392-.33.113-.247.48-.791.796-1.31 1.028-1.684 1.28-2.223.932-4.09-.085-.46-.507-.848-.874-1.39-3.082-4.54-4.337-11.27-2.807-16.2.488-2.18.312-2.62-.741-4.319zm96.848-52.96c-2.011-1.032-1.972-1.009-1.984.943.01 1.46.038 1.812.587 1.615.793-.402 1.763-.771 2.495-1.081 1.397-.48-.378-1.094-1.098-1.478zm7.964 5.072c-1.561-1.244-.985-1.1-1.427 1.705-.267 1.694-.611 1.738 1.145 1.177.996-.344 3.045-.127 2.126-1.295.006.02-1.538-1.327-1.844-1.587zm-62.727 43.064c-2.395 1.447-4.84 8.458-4.84 8.458-8.37.996-11.873 9.215-12.247 16.068-.296 5.41-.663 11.727-.116 12.28 5.487-2.463 7.6.38 8.12-.386.238-.335-1.216-1.445-3.043-2.44-.424-.231-1.081-.647-1.33-.853-.667-.552 1.33-.078 2.591.78 1.61 1.094 1.88.866 1.182-2.33-.76-3.476-.884-3.902 1.79-5.279 1.07-.551 1.68-1.02 2.445-1.877.613-.686.77-.853.544.155-.39 1.747-1.947 2.51-3.348 3.218-.697.357-.985 1.075-.989 1.692-.004.628.72 4.025 1.054 5.11.31 1.03.425 2.064.664 3.115.629 2.728.67 3.263.351 5.242-.186 1.161-.28 1.823-.216 2.525.06.637.148 1.504.148 1.504.003-.03-1.494-1.533-4.771-.244-2.363.929-4.23-.04-5.553-.727-.305 1.074-.236 2.24-.2 3.474 13.625 2.488 25.261 2.154 35.058 1.13.254-2.894 1.489-12.094 4.083-20.39 1.08-3.452 2.3-7.092 3.677-9.52.939-1.656 1.896-2.772 2.235-2.965.105-.063.115-.097.113-.142-.002-.092.002-.17-.003-.259-.035-.538-.165-1.37-.628-1.74-1.13-.9-2.934.26-3.527 2.269-.52 1.203-2.891 6.41-3.06 6.323-.14-.088-.47-.095-.35-.497.908-2.11 2.155-4.342 2.857-6.236.97-2.728 3.08-4.168 4.657-2.448.54.59.757 1.133 1.005 1.32.187.142.439.045.593-.188.595-.895-.783-2.926-2.262-3.334-2.134-.589-3.724.966-6.144 6.01-1.398 2.91-1.648 3.642-1.869 3.418-.049.02-.42.02-.286-.545.289-1.212 2.143-4.735 3.486-6.97 1.988-3.307 5.68-3.576 7.232-.705.237.392.249.903.512 1.252.477.616 1.26.494 1.455-.517-.212-.669-1.51-3.085-2.41-3.506-2.077-1.426-4.596-1.146-6.716.745-.481.43-.983 1.301-2.39 4.153-2.07 4.574-2.126 4.591-2.692 3.854.833-2.224 3.025-5.839 3.91-8.058.168-.33.202-.686.189-1.027-.052-1.613.212-4.464-3.202-6.489-2.911-1.567-6.754.082-8.063 3.167-1.002 2.363-1.735 3.986-2.24 4.32-.71.471-.577-.184-.507-.422 1.009-2.138 2.428-4.3 2.653-6.451.147-5.823-5.76-7.976-9.602-5.037zm-30.497-109.119c4.61-2.142 7.766-3.22 12.463-4.603.635-.278.736-.342.062-1.675-2.976-5.888 5.19-10.582 7.965-4.802.37.77.456 1.197.821.828.682-.894 1.493-2.164 2.336-3.613 3.124-4.838 4.538-10.357 6.203-15.227.691-2.862 1.656-5.853 1.929-8.922-6.198-10.782-10.514-21.157-17.093-30.757l-43.382-.031-.163 86.677c12.13-10.116 20.388-13.775 28.859-17.875zm48.833-3.185c.526-.555.982-1.477 2.868-5.346.337-.69.875-1.76 1.094-2.259.283-.91 1.343-1.48.826.15-.117.352-.319.827-.64 1.458-.627 1.128-1.223 2.509-1.67 3.411-2.412 4.832-2.297 7.648.398 9.745 2.013 1.924 6.242 2.14 8.492-.965.337-.5.637-1.145.735-1.38.978-2.373 1.7-3.56 1.884-3.794 1.001-1.27 1.162.304-.334 2.726-1.714 2.776-1.743 5.784-.262 7.9 2.196 3.138 6.366 3.227 8.984.71 1.36-1.594 2.442-3.622 3.313-6.214.193-.575.392-1.002.534-1.339.218-.519.532-.712 1.344-.868 5.572-1.066 10.249-6.783 10.912-13.024.088-.844.328-2.338.415-3.224.175-1.77.179-10.93.005-11.477-.094-.295-.26-.451-.623-.447-.279.003-.673.101-1.239.303-1.837.655-2.692.821-4.457.19-.583-.208-.986-.279-1.225-.258-.779.067.256 1.183 2.526 2.417.972.528 1.74 1.24.953 1.187-.23-.015-2.969-1.43-3.347-1.661-1.248-.765-.922.198-.28 2.731.864 3.402.366 4.358-2.322 5.69-.501.25-1.166.768-1.504 1.102-1.425 2.104-1.057.554-.339-.567 1.226-1.283.474-1.72-2.04-.831-2.866 1.014-4.162.274-4.964-1.32-.907-1.8.8-4.117 2.222-4.072.46.015.378.18-.3.644-.821.56-1.21 1.099-1.295 2.054-.174 1.948 1.22 2.775 3.17 1.469.92-.617 1.643-1.043 2.34-1.201.69-.157 1.728.1 1.724.651-.001.228-.032.786.017.91.182.616 1.17-.257 1.599-.567 1.467-1.096 1.42-1.312 1.019-3.09-.656-2.49-.986-4.765-1.611-7.288-.334-1.321-.39-2.815-.187-4.162.102-.675.365-2.063.418-3.013.053-.95-.006-2.308.03-2.307 1.456 1.114 2.049 1.309 3.47.77 2.2-.902 3.59-.808 5.444.078.686.328 1.311.559 1.311.559l.084-2.857s-1.715-.353-4.887-.77c-9.547-1.253-29.138-1.518-29.867-.366-.186.293-.37 2.334-.891 5.172-1.155 5.896-2.45 11.772-4.183 17.526-.355 1.172-.694 1.644-.513 1.68.075.014.429-.44.594-.63.928-1.072.217 1.472-1.185 4.536-.127.277-.23.58-.231.674-.002.185-.882 2.32-1.49 3.611-.377.803-.69 1.044-.687.531.426-1.765 1.552-4.048 1.715-5.622-.987 1.425-2.424 3.777-3.511 5.18-.201.378.012.494.187.962.653 1.744 2.236 1.9 3.15.32.51-.88 2.095-4.198 2.646-5.65.567-1.494.966-2.282 1.155-2.38.379-.195.452.654-.22 2.067-2.04 4.288-2.915 6.69-3.914 7.577-.775.688-2.116.644-2.861-.58-1.264-2.076-2.342-1.388-1.183.74 1.198 2.199 3.934 2.404 5.363.424.472-.654 2.692-4.89 3.39-6.611.39-.962.805-1.71.944-1.764.746-.286-.105 1.909-2.246 6.304-.693 1.697-1.807 3.478-3.315 4.029-3.664.802-4.16-1.135-5.434-3.342-.62-.548-1.18.33-.944 1.3.385 1.574 1.104 2.19 2.214 2.98 2.32 1.475 5.544.46 6.712-1.222zm16.347 9.196c-.333-.735-.285-1.481-.115-2.177a17.853 17.853 0 0 1 1.763-4.417c1.203-.568.284 1.695.134 2.03-1.452 3.025-1.589 4.195-.235 4.544 1.16.299 1.785-.41 2.882-3.122.563-1.391.788-2.007.987-2.088.423-.17.626.001.6.426-.725 1.78-1.292 3.652-2.484 5.13-1.166.975-2.922.98-3.532-.326zm-10.885-2.323c-.505-.099-1.37-.75-1.972-1.3-2.05-1.877-1.712-4.47.83-9.347.198-.379.937-1.853 1.175-2.337.426-.867.844-.528.84.046 0 .161-.635 1.508-1.277 2.758-2.807 5.484-2.711 7.721.017 9.026 2.663 1.274 3.856.54 5.98-3.646 1.228-3.143 1.833-3.195 1.766-2-.003.445-1.49 3.459-2.449 4.86-1.39 2.03-2.595 2.391-4.91 1.94zm.202-2.647c-1.045-.646-1.472-2.254-.854-3.57.562-1.086 2.002-5.246 2.678-5.48 1.088-.038.508.873-.84 3.431-1.595 3.39-1.537 4.296-.307 4.815 1.14.48 1.68-.504 3.36-4.469.263-.622.632-1.269.848-1.133.267-.02.73.18-.153 1.977-.21.43-.565 1.33-.958 2.17-1.148 2.452-2.451 3.077-3.774 2.26zm18.87-7.194c-.46-.236-2.615-1.083-2.296-1.784.04-.066.165-.014.229.028 1.974 1.321 4.43 1.657 6.99-.177.431-.38.753-.123.512.354-.775 1.536-4.227 2.193-5.434 1.579zm-6.34-2.228c.059-.148.236-.587.394-1.177.237-.888.181-1.541.391-1.428.895.483 2.494.494 3.277.017.858-.523 2.6-.683 3.234-.27.907.588 1.368.314 2.004-.18.717-.559.73-.32 2.025.129.957.331 1.333.558 1.74.485.155-.029.471-.383.572-.365.311.056.346.938.633 1.944.253.89.109 1.105-.69.572-.594-.397-2.303-.584-4.079-.04-1.316.403-1.619.24-2.585.078-2.406-.407-4.143-.72-5.937.317-.958.554-1.305.842-.98-.082zm-5.987-4.399c-1.167-2.336 1.516-5.43 3.874-4.338.781.363 1.477 1.735.32 1.105-5.363-1.08-4.023 6.762 1.736 2.62 3.827-2.538 6.535-2.93 6.76-.476-.107.902-.909.758-1.517.84-1.586.222-2.173.48-4.01 1.266-2.797.88-5.53 1.599-7.163-1.017zm20.982 1.08c-1.308-.336-2.445-.852-3.809-1.099-1.351-.235-1.961-.94-1.717-1.887.254-.985 1.607-1.09 3.64.15 2.255 1.375 3.89 1.708 4.714 1.19 1.669-1.048.769-2.755-.823-3.191-1.195-.332-.316-.796.969-.414 2.073.785 2.117 4.526-.015 5.303-.713.26-1.97.19-2.959-.052zm-18.265-12.384c1.523-.94 2.994-1.779 3.517-2.34.275-.294 1.039-1.282.446-.98-3.105 1.862-6.71.315-9.321-.96-1.254-.585-.946-.326-1.909-.262-.653.044-1.178.18-1.294-.286-.052-.205-.417-.12-.651-.142-.965-.096-.355-1.371 1.672-2.777 2.39-1.658 4.476-2.74 6.546-3.187 2.151-.464 4.344-.202 5.952 1.345.618.594.564.99 1.128.625 1.29-.833 1.3.272.213 1.295-.746.702-.473.893.44 1.561.436.32.078.623-.165 1.088-.092.284-.02.595-.064.81-.203.999-4.756 4.528-6.404 5.13-1.133.211-.54-.642-.106-.92zm3.162-6.483l-.756.01c-.86 2.623-2.449 3.517-3.77.372l-.603.06c-.027 2.664 4.563 4.337 5.129-.442zm-4.97 2.46c-.313-.523-.663-1.722-.99-1.739-.887-.037-2.113.122-1.823.671.459.87 3.174 1.673 2.812 1.067zm6.082-.468c.818-.492.992-.831.458-1.372-.689-.698-1.049-.342-1.265.773-.186.958-.052 1.115.807.599zm-11.092-1.845c5.48-2.476 7.558-2.796 9.785-2.183.515.142.972.43 1.26.413 1.067-.064.387-1.256-1.527-1.94-2.186-.78-3.572-.425-7.773 1.762-2.46 1.28-4.459 3.174-1.745 1.948zm15.883-3.005c-.078-.148-.41-1.133-.504-1.493-.094-.36-.18-.73-.282-.732-2.543.406-4.778-.069-5.38-.212-3.845-.916-7.56-.73-10.334.354-.678.265-1.518.694-1.599.77-.219.204-.543-.029-.541-.284.002-.3 1.704-1.645 2.777-2.176 3.264-1.614 6.708-1.89 10.49-.874 2.464.943 4.052.79 5.627.102.774-.338.225.498-.02 1.607-.169.768.017 1.426.049 1.86.097 1.049-.023 1.574-.283 1.078zm57.288 221.437v-86.85c-14.418 10.618-41.688 21.695-41.688 21.695 3.434 6.986-4.13 12.964-8.47 5.87-4.465 5.006-10.616 22.537-10.834 28.358 0 0 11.877 20.706 17.673 30.927zm-79.415-28.598c.396-4.36 1.33-11.753 4.239-20.356 1.22-3.609 2.691-7.75 4.77-11.457.83-1.296.888-1.797.003-1.33-.556.292-3.098 3.153-3.444 3.876-3.898 8.212-5.702 18.078-7.129 25.61-.323 1.694-.419 3.8-.419 3.8zm2.852-.358c.928-10.593 4.832-24.895 10.697-34.216.551-.889 1.23-1.66 1.205-1.967-.077-.906-2.335.66-4.087 3.334-1.956 3.873-3.916 8.004-5.416 12.577-2.116 6.456-3.661 12.42-4.263 20.515zm5.637-.885c.588-6.104 2.485-11.704 4.076-17.314 1.946-6.86 4.543-11.909 7.569-16.455.97-1.458 2.116-2.823 3.205-4.213.139-.167.278-.468.246-.594-.699-.122-1.255.095-1.795.397-.755.422-1.817 1.487-2.437 2.276-4.31 5.488-6.63 11.895-8.782 18.369-2.067 6.216-3.556 12.195-3.847 17.824zm-38.714-4.679c.867-.067 1.425.096 1.677-.134.25-.229.168-.843.247-1.629.168-1.68-.007-1.588-1.058-.502-1.74 1.797-4.917 2.49-6.807 1.403-.953-.548-1.616-.928-1.706-.472-.105.532.04.938.448 1.222 2.289 1.042 4.462.326 7.199.112zm-2.046-1.286c1.205-.4 2.43-1.042 3.12-2.023.658-.936.647-1.07.149-.892-2.45 1.202-4.06 1.814-6.25 1.482-2.966-.45-3.089-.073-1.129 1.152 1.283.802 2.347.825 4.11.28zm-4.354-3.754c.46-.338.577-1.715.207-1.793-.375-.08-.92.604-1.054 1.16-.15.739.398.928.847.633zm4.591-.06l.788-.07c-.403-3.454-4.159-3.603-4.852.345l.595.089c.776-3.148 3.047-3.061 3.469-.363zm2.476-.556c1.15-.639.752-1.431-.798-1.734-1.017-.239-.96.592-.433 1.718.262.559.445.454 1.231.016zm-8.845-4.232c-.01-.384-.168-1.005-.35-1.38-1.325-2.706-2.056-5.905-1.906-9.88.108-2.85.144-3.73-.45-3.734-.829.398-1.318 5.7-.263 10.114.744 3.115 3.024 6.98 2.969 4.88zm-.032-4.315c-.08-1.488.247-4.825.084-5.552-.215-.957-.783-1.821-1.104-2.051-.497-.358-.621.327-.45 2.116.405 4.196 1.08 7.373 1.47 5.487zm.419-7.638c.327-.588.2-1.212-.522-2.616-2.839-5.527-3.207-9.305-.242-10.677.333-.154.542-.183.763-.305.935-.518.58-1.457-.82-1.069-3.863 1.071-4.625 4.68-1.368 11.358 1.659 3.333 1.916 3.799 2.189 3.31zm.703-3.134c.05-.232.15-1.135.19-1.32.038-.185-.351-.717-.77-1.783-1.092-2.783-1.115-3.938.074-4.745.385-.225.782-.236.842-.496.093-.404.086-1.067-.157-1.26-1.704.012-2.491 1.004-2.79 1.947-.45 1.492.02 3.678 1.358 6.386.648.845.987 2.389 1.253 1.27zm1.303-3.601c.911-1.836.047-4.214-1.208-3.403-.813.526-.855 1.083-.355 2.611.608 1.861.967 1.99 1.563.792zm3.196-4.91c.364-.36.04-.878-.634-2.906-.577-1.737-.313-2.924.787-3.266 1.578-.388 2.136 2.185 2.468 3.271.171.838.723 1.07 1.213.486.137-.163.177-.298-.057-1.213-1.018-3.99-2.35-5.26-4.494-4.266-1.988.922-1.727 2.983-.286 7.318.193.58.321 1.01.46 1.07.114.05.34-.295.543-.495zm1.76-1.356c.472-.465.444-.255-.095-1.92-.615-1.899-.939-2.295-1.6-1.642-.405.4-.2.842.263 2.395.538 1.805.682 1.908 1.433 1.167zm82.418-6.5c3.137-2.159 1.844-6.033-2.286-7.47a16.949 16.949 0 0 1-1.193-.455c-1.897-.91-3.373-1.192-3.378-.48-.002.418.567.63 2.387 1.513 2.69 1.308 3.298 2.819 1.97 4.723-.957 1.373.836 2.945 2.5 2.169zm2.847-4.715c.272-1.108.677-2.058.87-2.703.267-1.01-.076-.776-.747-.618-1.73.894-2.967.408-2.126 1.639.932 1.637 1.703 2.9 2.003 1.682zm-.215-3.872c2.155-1.287 2.633-4.641.627-6.24a7.265 7.265 0 0 0-2.314-1.191c-2.041-.62-4.987-.903-6.067-.576-.232.272-.241.701-.009.826.301.111.844.185 1.63.264 2.998.304 4.478 1.195 4.334 3.317-.148 2.188-1.902 3.028-5.068 2.337-1.702-.372-2.495-.192-1.812.205.812.472 2.56 1.092 4.28 1.43 1.472.257 3.15.356 4.4-.372zm-10.344-.552c2.426-5.43 3.703-19.67-10.158-29.963l.458 2.848c8.167 7.136 10.129 16.224 8.437 24.56zm12.375-9.733c-.867.56-1.593 1.143-2.707 1.639-.667.298-.684.37.222.863.439.239 1.16.677 1.437.975.48.516 1.045.713 1.257.526-.023-.808.255-3.48-.209-4.003zm-4.102 1.029c2.808-.885 4.31-2.232 3.99-4.485-.47-3.305-3.242-4.004-8.436-2.712-2.498.621-2.721 1.79-.35 1.188 2.994-.762 5.345.389 5.027 2.574-.186 1.885-1.706 2.983-4.376 2.984-1.41 0-1.845.125-1.654.632.129.343 4.642.183 5.799-.181zm-4.636-7.853c4.59-1.568 6.724-4.006 5.676-6.737-1.235-3.216-5.24-3.248-9.265-.255-1.88 1.372-1.592 1.88.23 1.182 2.361-1.082 3.88-1.249 4.847-.389 1.747 1.553.569 4.262-2.08 5.233-1.283.532-1.695.825-1.697 1.209-.004.607.23.46 2.29-.243zm7.743-.05c.118-.952-.96-4.253-1.427-3.493-.123.201-.552 1.133-1.094 1.617-1.578 1.41-1.28.876.288 1.308.872.24 2.103.851 2.233.568zm-12.14-7.054c4.64-2.68 6.412-6.507 4.007-9.05-2.162-2.286-5.745-.955-9.073 3.201-1.526 1.906-.38 1.667 1.678-.146 2.396-2.111 5.444-1.092 5.427 1.543-.007 1.126-1.604 3.02-3.115 3.9-.47.272-.538.691-.372.964.18.294.555.104 1.449-.412zm8.134-2.797c-.242-.72-1.988-3.813-2.363-3.707-.396.793-.425 1.837-.9 2.677-.646 1.265-.564 1.066 1.496 1.06 1.534-.005 1.72.21 1.767-.03zm-13.637-3.496c3.898-4.033 4.242-8.755.59-9.842-2.024-.601-5.258.856-5.268 2.362-.006.937.17 1.108.99.771 3.445-1.277 6.175 2.024 3.01 5.82-.769 1.098-.872 1.374-.648 1.601.263.266.476.167 1.326-.712zm41.988-34.484v-106.886h-22.814l-18.12 28.217-.028 6.984c0 .242.412.391.678.088 1.03-.794.633.04-.552 1.837-1.197 1.817-.83 3.314.479 5.254 2.775 4.112 4.222 11.66 3.04 15.65-.445 1.507-.544 2.115-.253 2.958.332.964.537 1.479 1.5 2.1.838.582 7.73 3.261 18.831 10.377l-.054-50.216 6.995-6.684 7.39 7.048.258 82.905c.003.877 1.721 1.276 2.65.368zm-4.002-83.036l-6.187-5.745-6.117 5.66c-.032 27.004.155 82.428.155 82.428l6.079.436s.446-1.265-.123-4.533c-.854-4.905-.8-10.895.571-20.006.856-5.59.006-10.436-1.29-15.54-1.126-3.4-1.166-6.548-.962-9.59.433-4.851 1.772-8.514 1.936-15.493.093-3.979-.097-7.874.049-12.782.06-.657.338-.576.388.102.186 4.442.359 8.661.399 12.998-.133 5.64-1.517 11.445-1.669 16.608-.114 3.577-.172 4.814 1.343 9.17 2.38 6.843.814 17.357.786 17.544-1.009 6.736-1.744 15.353 1.663 21.8l3.3.293zm-42.568 50.943c1.826-.836 2.187-2.313 1.204-5.869a70.09 70.09 0 0 1-.444-1.676c-.21-.878-.606-.974-1.134-.276-.316.417-.025.514.46 2.469.732 2.955.307 3.933-.795 3.926-.977-.007-1.738-.81-2.017-2.727-.095-.654-.235-1.1-.393-1.363-.266-.439-.586-.36-.843.125-.334.628.293 3.214 1.126 4.467.904 1.264 1.526 1.524 2.836.924zm-.497-2.654c.389-.728-.093-2.52-.344-3.692-.232-.655-.496-.814-.93-.708-.647.158-.615.863-.381 2.025.477 2.366.735 2.665 1.655 2.375zm5.55-4.268c2.088-1.187 2.288-3.235.884-6.958-.575-1.527-1.291-2.602-1.686-2.613-.155.97-.299 1.488-.125 1.87.163.353.437.895.633 1.348 1.188 2.747.868 4.33-.28 5.188-1.07.801-.393 1.475.574 1.165zm-68.36-1.432c4.9-1.045 9.318-8.893 12.1-15.892 2.535-7.052 5.23-14.8 5.657-21.26 0 0-1.853.085-2.08.466-.21.376-.302 1.187-.499 2.341-1.277 5.944-2.292 10.458-4.52 16.045-1.547 3.878-3.235 8.267-7.423 14.164-1.377 1.648-2.95 2.67-4.93 2.944-.503.07-1.35-.024-1.564.126-.375.264-.037.863.931 1.105.868.216 1.749.075 2.329-.039zm67.5-.918c.747-.792.82-1.733-.018-3.723-.235-.558-.342-.874-.621-.796-.591.164-1.28 1.712-.873 3.022.532 1.708.842 2.207 1.511 1.497zm-69.209-1.246c1.435-.191 3.253-1.328 4.566-3.111 2.7-3.52 4.562-7.525 5.943-10.638 1.106-2.509 3.104-7.924 3.646-9.885 1.152-4.165 1.783-6.853 2.308-9.835.049-.274.094-.712.013-.854-.569-.155-1.815-.062-2.197.32-.688 4.782-2.287 9.58-3.456 13.568-1.97 6.785-7.59 17.637-10.652 18.149-1.648.275-3.535-1.152-3.231-2.617.186-.899.31-1.241.752-1.467 1.068-.374 1.689.35.518.823-1.358 1.176 1.085 2.974 2.585 1.718 2.544-2.13-1.193-6.209-4.251-4.334-3.389 2.077-2.518 5.674-.387 7.384 1.074.862 2.319.983 3.843.779zm23.994-4.87c2.093-2.142 3.665-4.914 4.81-8.38 2.478-7.784 4.532-16.707 5.277-23.697 0 0-1.788-.184-2.186.193-.28.266-.012.519-.773 5.627-1.277 7.447-3.139 14.843-5.832 21.244-1.104 2.59-1.417 2.907-2.196 4.25-1.088 1.9-.685 2.383.9.762zm46.444-16.227c-.194-.1-.177-.035-.26.022-.285.197-.099 1.191.55 2.726 1.706 2.745 1.905 8.074 1.794 10.076-.034.602-.097.946.086 1.481.182.524.5 1.134 1.011.112.561-3.945.12-8.075-1.397-11.419-.535-1.19-1.058-2.352-1.784-2.998zm1.314 11.633c.299-1.061-.253-5.271-.938-6.75-.277-.596-.776-.642-.716.035.005 1.459-.152 4.232.005 5.054.746 1.715 1.326 2.806 1.65 1.66zm-3.864-17.005h-.805c.027 2.753-2.422 3.519-3.326.212l-.725.168c.964 4.666 5.32 2.527 4.856-.38zm-4.897 2.075c-.418-1.222-.245-1.668-1.307-1.119-.811.42-1.297.867-.155 1.415 1.016.429 1.727.477 1.462-.296zm6.136-.703c.336-.678.296-1.29-.21-1.293-.392-.002-.5.309-.611.966-.198 1.174.293 1.39.82.327zm.426-4.575c.31-.098.222-.534.139-1.088-1.328-1.84-4.612-1.276-5.791-.91-1.363.44-1.704.276-2.631-.148-.766-.142-.874.044-1.06.409-.164.32-.193.931-.247 1.995-.045.898-.012 1.316.301 1.035 1.216-1.088 2.623-2.448 4.677-2.532 2.488-.103 4.613 1.28 4.612 1.24zm-9.04 2.49c-.003.37.314.14 1.124-.367 2.947-1.745 4.654-1.498 7.177-.666.562.185.91-.4.3-.9-2.996-2.454-6.687-.89-8.602 1.933zm10.678-11.306l15.988-26.357-89.072-.065 15.124 27.983c12.333-2.845 32.634-6.479 57.96-1.56z" fill="#131f67"/><path d="M1067.615 2014.889c1.887-2.806 11.23 2.193 11.724 4.174 5.53-4.34 12.243-4.656 17.646.776 5.556-6.055 11.503-5.641 17.69-2.134-.691-1.368 7.911-7.41 13.14-3.57l14.138 25.107-90.579.29c5.35-8.007 10.09-17.572 16.241-24.643zm-39.565-130.952c-.492-1.359-2.48-15.306 2.562-15.654 8.151 3.603 18.555 16.49 23.375 24.365 5.974 9.758 12.01 32.198 8.677 31.218-.481-.142 10.288 10.609 11.03 11.659 1.22 1.726-18.154 33.897-21.354 32.743-.968-.349-7.42-4.19-7.42-4.19l.185-10.733s10.14-19.96 10.7-26.628c.213-2.52-6.975-6.834-7.304-7.705-.82-2.17-.722-10.23-4.911-13.75-2.309-1.4-4.489-.954-6.832-.656-9.506-1.583-4.58-17.557-8.708-20.669zm158.992 7.165l.057 3.96c-6.26 1.36-17.321-3.926-20.67 4.59.415 9.198 2.482 13.323 3.924 16.1 1.085 2.495 8.696-.351 11.377 2.165 7.691 9.44 5.876 22.01 5.944 33.336l-3.337 1.681c-23.06-13.562-40.766-55.69-43.22-67.684-.156-7.7 21.156-32.445 21.156-32.445.048-.054 7.764 4.684 7.764 4.684.187.075-.164 32.476-.162 32.326 6.094.313 12.001.906 17.167 1.287zm-46.848-29.615c-11.83 16.917-15.832 42.2-15.072 59.836 1.534 26.33 20.35 49.805 19.091 52.023-.214-.154-.71.108-.9-.06-4.333-3.843-7.36-3.17-9.576-3.205-4.236-.067-5.407 1.193-7.837 1.433-6.206.614-5.703.77-10.967-1.207-6.643-5.402-15.541-9.544-22.622-11.722-5.676.51-14.331 3.183-17.605 1.018 22.77-41.906 19.36-68.733-4.213-112.656 1.955.574 2.258 2.394 3.722 2.843 4.845 1.867 11.521 1.159 15.523-.582 4.344-1.951 8.446.906 8.39.811 8.555 6.023 18.906 9.909 24.294 12.594 1.592.82 3.604-.474 5.362-.829 3.602-.727 6.689-2.264 9.377-1.364.862.289 2.148.642 3.033 1.067zm-53.156-54.84c-1.159-2.15-13.015-24.644-13.015-24.644l88.19.53-13.23 21.7c-1.25 1.179-7.464 4.462-13.804-2.972-.119 1.068-9.407 7.675-17.391-.281-4.805 4.354-9.706 6.877-17.79 1.975-.18 1.367-6.484 7.498-12.96 3.693z" fill="#e2cf00"/><path d="M1096.687 2019.336c-8.544-7.99-17.44-.778-17.236-.321-3.382-3.43-6.689-6.238-11.147-4.858 0 0 0-1.203.034-1.23 13.29 2.427 33.648 3.056 57.443-1.913l1.222 2.549c-6.382-2.264-9.67.79-12.499 4.355-10.243-6.378-12.741-.782-17.817 1.418zm19.93-92.925l6.045-.118c1.139 17.558 15.826 44.426 16.18 44.426-1.024-1.419-10.72-.3-10.649-.121-5.331-14.207-11.186-28.4-11.576-44.187zm-35.257 41.653s-1.945-5.033-3.109-7.187c6.347-10.824 11.553-22.027 14.223-34.486l4.323.039c-1.28 17.2-15.064 43.32-15.437 41.634zm77.767-2.303c9.52-17.158 7.878-41.89-19.134-55.557 0 0 .704-18.128 2.713-18.17.453.141 12.226-.15 12.226-.15 3.084-7.56 8.048-16.703 14.983-22.876l.174 20.263c-5.133.505-8.263 2.141-9.818 6.15l-7.112 1.582c.523 20.355 8.192 39.163 30.937 56.056-5.435 4.665-24.014 14.136-23.942 13.97zm-113.97-12.79l.202-21.1c3.45-.744 6.168.254 9.016-5.92 0 0 4.779 2.266 6.367 3.101-4.467 7.984-8.324 16.514-15.585 23.92zm45.284-37.358l.234-10.712 10.183.293c-.864 3.633-1.134 7.265.02 10.898zm23.232-.13c.696-3.505 1.192-7.03-.25-10.749l11.027.188-.26 10.668zm-20.97-20.947c-1.834-21.01-16.249-44.792-16.451-44.286 1.698.272 4.689 1.112 6.335.334 1.993.33 3.72.105 3.814-.08.132-.734 13.4 30.507 11.628 43.984-.21.456-4.894.486-5.326.048zm25.487.184c1.556-9.706 5.572-27.46 15.059-41.86 1.078 2.557 1.983 5.186 3.462 7.575-7.152 10.394-11.56 22.274-14.234 34.401zm-65.935-5.232c-4.34-8.844-22.397-22.767-21.473-21.36 7.474-6.692 15.81-10.943 24.131-15.236 0 0 1.48 1.402 1.255 1.755-5.115 8.053-7.595 25.116-2.642 34.895 4.76 10.445 13.203 16.62 21.811 21.468-.666 6.53-.991 11.251-2.6 17.744 0 0-5.409-2.841-9.842-4.67-.705-12.333-3.26-23.364-10.64-34.596zm47.822-86.663c6.364 3.875 12.064 3.467 17.59-1.792 6.937 6.287 14.439 3.359 17.609.524 2.933 3.301 6.755 5.133 12.345 4.042l-1.385 2.903c.331-1.542-38.547-4.06-57.358 1.2 0 0-1.1-2.19-.977-2.208 1.637-.1 7.086 1.917 12.176-4.67z" fill="#d40000"/><path d="M1001.678 1765.348v2.957l2.842-.154v25.522l-3.072.014v3.034h8.525v-3.034h-2.228v-7.339l3.72-4.838 4.882 12.177h-3.072v3.034h9.331v-3.034h-2.587l-6.514-15.595 6.668-9.94h2.088v-2.804h-8.986v2.803h2.822l-8.352 12.187v-12.187h2.228v-2.803zm71.05 15.958l15.716 29.244s.46-.085.69-.13c21.782-4.253 39.034-4.834 57.563-1.579l16.472-27.226c-29.979-.34-90.44-.31-90.44-.31zm1.752 1.245l87.39.096-4.916 8.055c-2.943-.908-4.584.44-4.996 3.259 0 0-.364-.157-1.047-.23-4.307-.466-4.85 5.205-.83 5.89 1.026.174 1.2-.03 1.2-.03-3.586 3.01-5.623.98-7.31-.014-.046.351-3.215 2.73-6.202-.115 4.278.427 4.944-3.857 2.899-5.487-.428-.42-.864-.749-.864-.749 1.007-.876 1.226-2.04.58-3.374-1.297-2.681-5.363-2.525-5.985.403-.242 1.14-.25 1.34-.25 1.34-3.283.214-3.95 3.311-2.822 5.03.642.977 2.052 1.189 3.355 1.123-1.756 2.485-5.775 1.64-7.565-.408-2.844 3.34-6.086 2.933-7.704 1.143 1.1-.012 1.857-.028 2.866-.96 1.725-1.595.878-4.422-1.56-5.213a4.08 4.08 0 0 0-.84-.188c.017-.024.063-.18.168-1.032.606-4.93-6.786-4.443-6.072.408.083.563.235.864.235.864s-.784-.043-1.233.164c-4.106 1.891-1.277 7.1 1.896 5.76.3-.127 1.12-.53 1.238-.523-3.93 4.868-7.229 1.417-8.098.888-2.654 3.933-7.263 1.25-7.358.974.287.08 1.151-.099 1.973-.518 2.597-1.353 1.862-4.835-.164-5.593-.62-.216-1.37-.239-2.212-.172 0 0 .064-.877-.02-1.186-1.276-4.74-7.177-2.374-5.726 1.632.127.351.47.706.47.706s-.8.485-1.156.806c-2.817 2.533.05 6.71 3.34 4.973.425-.224.837-.695.956-.667-1.549 2.827-3.898 3.814-7.248 1.473-2.067 3.274-5.439 1.914-6.39.274 3.15.288 5.197-5.746-.858-5.942-.471-1.64-.448-4.136-4.287-3.706zm-20.448 3.519c-3.287 8.715-12.568 16.603-17.942 26.419-6.073 9.936-4.166 20.098 4.099 21.855 4.332.92 9.984-3.245 10.488-7.728.103-.916.44-1.4 1.056-1.325.48.058.436 1.24.254 2.659-.663 4.662-3.19 12.06-6.46 15.47l15.206.01c-.611-.345-6.288-7.438-5.736-16.042.01-1.538.009-2.049.691-2.044.547.003.553.256.715 1.766 1.025 9.55 12.899 10.586 16.628 1.454 1.882-4.608-.09-12.81-5.055-19.824-3.77-6.171-10.186-13.347-13.944-22.67zm6.701 57.36c.033.019.056.022.058 0zm56.424-50.525c.694 0 1.253.564 1.253 1.257a1.255 1.255 0 1 1-2.51 0c0-.693.564-1.257 1.257-1.257zm19.527.149a1.333 1.333 0 0 1 0 2.664 1.333 1.333 0 0 1 0-2.664zm-38.276 1.454a1.285 1.285 0 0 1 0 2.568 1.289 1.289 0 0 1-1.286-1.286c0-.709.578-1.282 1.286-1.282zm54.831 1.58l-1.113 1.977c-1.229-1.077-.382-2.488 1.113-1.978zm-70.119 2.726l-1.107-2.045c1.982.134 1.398 1.553 1.107 2.045zm33.874-1.114c7.5 8.545 14.226 6.018 18.624.336 1.887 4.843 6.09 8.19 13.325 4.935-.437.774-1.536 2.14-1.536 2.14-6.393 1.723-9.567-1.286-12.033-4.152-6.505 5.4-12.63 4.091-17.684-.672-4.314 5.43-11.299 6.598-17.765 2.165-2.956 4.363-7.196 6.124-12.528 3.941 0 0-1.131-1.778-1.229-1.891.773.648 10.592 4.724 12.99-5.079 3.418 5.801 14.625 6.11 17.836-1.723zm.754 3.514c8.436 7.888 17.29 1.067 17.515.585.133.439 4.948 6.188 11.89 4.028l-1.128 1.934c-13.063-2.21-25.08-3.63-52.599.418 0 0 4.392-1.301 6.614-4.805 1.237.803 10.784 6.132 17.708-2.16zm-106.657 2.237c-.768 1.859-2.023 3.782-3.072 5.5-4.937 7.66-5.218 8.395-5.611 11.098-1.099 5.292 5.15 7.433 7.142 3.82.893-1.525 1.455-.532 1.056.913-.254 2.538-2.838 5.479-2.846 5.424l7.57.058s-3.248-3.308-3.197-5.962c.004-1.213.65-1.249 1.44-.158 2.259 3.118 6.471.61 6.499-3.826.017-2.718-.808-4.242-5.727-11.559-1.072-1.6-2.254-3.617-3.254-5.308zm77.089 4.3s3.672.431 3.96.504c.322.25-3.092 1.188-3.106 1.119zm7.444 37.637c-.222.008-.5.258-.96.71-.996.981-1.222 1.11-2.188 1.249-.73.105-2.268.99-3.202 1.843-.252.23-.734.423-1.31.523l-1.532.264c-.341.059-.712.167-.825.236-.49.298-1.289.344-2.184.13-.864-.208-1.002-.203-1.954.09-1.386.427-2.294.428-2.976 0-.682-.427-1.766-.587-2.453-.364-1.016.328-3.649-1.248-3.643-2.18.002-.211-1.496-1.332-1.872-1.334-1.334-.198-13.058 4.43-12.998 4.7 14.396 17.78 26.514 44.87 17.385 78.019l-1.613-.773c1.356-6.026 1.892-12.09 2.31-18.25-27.022-11.665-29.348-38.793-18.86-55.92l-1.78-1.896c-6.356 3.391-12.814 5.317-28.523 18.494l.043 21.332c.04 19.284.03 38.074.03 38.074 5.684.63 11.945 1.143 18.12 1.675 0 0-.08 19.07-.221 26.53-.12 6.309.115 5.913.115 5.913l20.448 10.781c-1.437-5.678 2.11-7.934 5.078-7.698-1.312-5.474 1.945-7.98 5.664-7.278 2.513.475 3.392 1.86 4.83 6.437.233.744.554 1.739.554 1.739l1.433-.053c1.794-3.852 2.993-8.754 7.213-9.39 5.524-.831 7.582 2.964 7.579 6.759 5.353-4.717 11.764-1.066 11.347 5.98 2.693-1.731 7.256-3.297 10.131 3.38 1.081-.229 1.632-1.433 3.152-1.81.569-.119 1.858-.811 1.858-.811l.016-.232s1.195-.413 2.797-.676c1.374.513.973.496 1.714-.418.825-.423 2.163-.701 3.196-.609 1.082.097 1.564.175 2.198-.1.988-.432 1.911-.542 2.497.11.42.468 1.027.242 1.68.216 1.304-.053 3.043.483 3.585 1.656.8.815 2.549 1.641 2.549 1.641l1.416-.326.163-.523 11.583-4.421c-23.618-25.86-23.002-60.169-17.439-77.535l2.136 1.027c-1.133 5.147-2.418 10.433-2.251 18.106 21.268 9.483 31.85 33.993 18.955 55.388l1.364 1.761c5.364-2.251 18.856-9.827 23.52-13.944l.993.082s2.828-1.831 4.076-2.808l.168-56.775-.99.259-.177-3.317-17.534-1.392c.223-.166.39-.234.441-.566l-.1-31.43c-.652-.997-15.338-9.6-20.8-11.612-.218-.001-.067.368.01 1.267.269 3.083-1.813 5.827-4.224 5.832-.867.002-1.017.37-.974 2.141.061 2.517-.849 4.208-3.5 5.165-3.142 1.134-5.268-.51-7.017-6.975-.46-1.697-1.357-1.273-2.218 1.047-.427 1.151-1.81 3.946-2.635 5.419-.636 1.132-1.642 1.635-3.01 2.237-1.066.527-3.373.436-4.703-.24-2.412-1.225-3.347-2.696-4.042-6.341-.09-.476-.404-.435-1.186.154-4.257 3.207-10.244-.109-10.21-5.655.01-1.628-.056-1.693-1.012-.912-2.887 2.358-6.81 1.162-8.381-2.554-.368-.87-.564-1.257-.85-1.248zm-24.47 1.968c.3-.013 1.238 1.234 1.238 1.234.865.956 2.027 1.44 3.235 2.15.113-.168 14.096 18.598 16.474 44.473l6.504.033c-1.213-25.142-8.147-37.226-11.328-44.98l2.333-.74c5.231 10.023 11.607 30.364 11.395 48.173h-10.742c-1.517-17.837-8.453-35.229-18.154-48.422-.675-1.014-1.204-1.72-1.008-1.901a.082.082 0 0 1 .053-.02zm-4.114 2.655l1.09 3.418s.13-.798.465-1.1c2.123-1.912 4.154.606 3.197 4.023-.218 1.052-.643 3.125-.643 3.125s-2.133-1.094-3.206-1.445c-2.96-1.258-3.947-3.736-1.685-4.018a20.678 20.678 0 0 1 1.157-.081c-.94-.74-3.015-2.43-3.015-2.43zm9.936.384c.894.507 3.202 1.055 4.527.557 1.07-.403 1.886-.182 3-.087.638.055 1.91-.225 1.91-.225 6.36 13.379 10.734 29.253 11.463 43.771l-5.002.03c-1.888-15.424-7.857-31.09-15.432-42.712-.335-.506-.78-1.315-.466-1.334zm20.895.23c1.936.024 3.962 1.954 5.064 5.112.613 1.76.853 1.653 1.675 1.368 2.113-.723 4.362 1.596 1.531 1.983-2.779.459-1.193 5.895-1.43 6.374-1.126.197-3.243-4.424-3.187-5.798.135-3.37-3.03-6.187-4.997-4.771-.932.67-.83 1.144-1.119.902-.885-.743-1.064-2.793-.028-3.955.748-.84 1.61-1.225 2.49-1.215zm57.533 1.162s.11 4.431-.058 5.41c-.33 2.953-4.188 3.264-4.339.902-.63.944-1.063 2.118-1.315 3.173l-2.736-1.882c1.039-.746 2.03-1.4 2.798-2.323-2.028.154-3.162-1.602-1.804-3.096 1.507-1.712 5.676-1.896 7.454-2.184zm-100.6 1.402l1.21 1.363c-10.78 19.11-6.98 43.537 19.042 56.371-.172 5.863-.923 11.793-2.323 17.295l-9.6-4.656c.065-21.606-12.17-42.204-31.7-55.743 7.087-5.694 14.927-10.695 23.372-14.63zm78.606.163c.458 2.522 2.847 7.092 3.02 6.83-.025-.15-9.942 12.702-14.252 34.196l-3.681.014c2.413-14.322 7.23-27.836 14.913-41.04zm30.562.6l1.959 1.185c-10.276 8.604-17.043 19.51-22.013 31.273l-2.597-1.23c7.706-17.061 15.32-24.638 22.651-31.228zm2.741 1.905c.538.035 1.176.715 2.165 1.258.967.53.726.812-1.095 2.208-2.153 1.65-2.356 1.578-2.337-.778.012-1.562.407-2.604 1.161-2.683a.621.621 0 0 1 .106-.005zm-2.366 2.43c.113-.007.204.03.264.124.157.623.14 2.051-.11 3.46-.204.929-2.966 3.26-3.951 4.182-.395.259-.576.164-.648-.298.03-.732.102-1.706.115-2.698.004-.305-.06-.625.216-.859 1.353-1.597 3.323-3.87 4.114-3.912zm5.13.758c.017 0 .028.002.04.01.254.152.212 3.355.033 3.566-.801.207-2.956-.133-3.51-.428-.12-.372 2.921-3.17 3.438-3.148zm-96.254 1.036l.748 3.14s.215-.421.27-.504c1.487-2.276 3.298-.942 3.268 2.217-.01.998-.917 4.987-.917 4.987s-5.585-2.682-6.024-3.859c-.432-1.158.182-2.177 1.21-2.27.384-.044.787-.076 1.229 0l-2.4-2.453zm63.946.418l2.534.936c-5.285 8.597-10.74 17.09-14.712 36.456h-10.622c1.485-11.836 4.496-23.47 9.868-34.795 0 0 2.087-.64 3.264-1.023 0 0-8.78 20.09-9.801 33.005l5.131.11c2.738-12.585 7.863-25.63 14.338-34.689zm-20.112.312c1.427-.053 2.48.95 2.4 2.731-.018 1.629-.168 1.865-1.32 1.215-1.514-.855-2.71-.873-4.066.096-.746.533-1.478.974-1.478.974s.654-2.829 1.656-3.72c.96-.854 1.951-1.264 2.808-1.296zm-5.448 4.186c-.103.957-.386 1.396-.639 2.212 0 0 .831-.323 1.229-.508 1.888-.88 3.855.75 3.826 2.659.084 1.274-1.3 2.8-2.948 2.813-.575.004-1.183-.177-1.77-.615.425 2.334.51 3.413-1.196 4.584-1.428.95-4.436-.136-4.267-2.745l.105-1.608-1.445.187c-4.035.165-4.106-4.802-.85-5.583 1.301-.307 2.713.759 2.713.759-.619-1.218-.631-3.314.201-4.282 2.05-2.382 5.293-.216 5.04 2.127zm35.237-3.101c.22 1.859.959 3.886.748 5.62-.314 2.218-2.2 3.531-3.681 2.093-.183-.177-.514-.547-.514-.547-.668.846-1.085 3.24-1.085 3.24l-2.616-1.613s1.817-1.275 2.319-2.001c.14-.202.206-.586.206-.586-1.456.455-2.691-1.033-2.294-2.347.788-2.152 4.703-2.95 6.917-3.86zm18.283 1.344c.98-.03 2.495.247 3.691.374.921.16.41.68-1.651 2.688-1.893 1.845-1.834 1.671-3.293 1.647-3.407-.058-4.004.019-2.02-2.122 1.039-1.122 1.946-2.135 2.692-2.51.158-.046.355-.07.58-.077zm-6.144.389a.166.166 0 0 1 .11.048c.226.21.15 1.171.125 2.592-.026 1.512-.01 1.512-.643 2.304-.807 1.01-1.477 2.041-2.319 3.014-.729.791-.706.706-1.142-1.195-.423-1.844-.187-2.419 2.189-5.093.804-1.032 1.377-1.684 1.68-1.67zm10.642 1.05l.028 3.74c-7.031 6.876-11.809 14.609-15.057 23.131l-2.448-.974c4.24-10.89 10.59-19.381 17.477-25.896zm-60.951 2.262a2.105 2.105 0 1 0 2.107 2.102 2.105 2.105 0 0 0-2.107-2.102zm-.015.662c.803 0 1.455.652 1.455 1.454a1.452 1.452 0 1 1-2.904 0c0-.802.647-1.454 1.45-1.454zm-78.116.888c21.933 14.071 31.768 35.885 31.724 54.624l-1.238-.556c-1.284-26.48-15.677-42.76-31.234-53.295zm129.851.202c.497.002 1.172.079 2.15.192 1.816.097 2.039.211.788 1.646-.343.393-1 1.215-1.464 1.834-.464.618-1.028 1.264-1.287 1.353-.381.132-3.569-.018-4.478-.144-.298-.04.093-.345 1.646-2.563 1.19-1.7 1.317-2.263 2.443-2.314.064-.002.131-.005.202-.004zm9.135.72s.435 12.07.12 19.766c-5.004-.185-7.942 1.714-9.164 5.31l-5.256-2.603c3.857-9.905 9.014-16.797 14.3-22.473zm-15.485.278c.284.004.446.593.528 1.752.33 2.075.294 2.316-.572 3.648-.43.663-1.022 1.6-1.31 2.083-.502.845-.859 1.096-.984.687-.685-2.239-.9-3.624-.658-4.076.4-.742 2.266-3.394 2.53-3.739.183-.239.336-.357.466-.355zm-125.113.226c17.63 10.915 30.528 29.558 31.06 52.08 0 0-3.756-1.763-6.076-3.053l-.12-2.189 1.224-.038.393 2.467 2.693-.086-.715-6.159-4.214.399-.85-3.49 1.277-.273.705 2.25 2.741-.724-1.459-5.486-4.234 1.156-1.353-3.705 1.406-.504 1.138 2.217 2.577-.897-2.433-5.501-3.893 1.838-1.978-3.59 1.522-.811 1.224 2.136 2.41-1.248-2.981-5.06-3.696 2.064-1.858-2.784 1.147-.801 1.268 1.464 2.116-1.498-3.244-4.363-3.538 2.77-2.616-3.03 1.205-1.022 1.8 1.613 2.011-1.757-3.854-4.204-3.37 3.072-2.51-2.18 1.228-1.358 1.565 1.195 1.666-1.973-4.195-3.456-3.145 3.11-3.014-1.991v-1.483c.979.377 2.015.817 2.942 1.31l1.56-2.362-4.502-3.038zm49.1.93l.666 3.85c.633-1.046 1.137-1.767 2.506-1.363 1.644.67 1.667 3.146.274 6.936-.258.703-.576 1.31-.576 1.31s-.721-.298-1.2-.628c-1.006-.688-2.7-1.467-3.567-2.832-.907-1.43-.927-3.43.74-3.26.33.003.983.16.983.16l-2.5-3.188zm-50.07 1.148l3.053 1.968-.634 1.152-2.419-1.09zm76.537.907c.884 1.237-2.228 4.88 1.843 6.336 0 0 .1.839-.749 1.35-1.992 1.448-4.852-1.197-3.965-3.918.568-1.74 2.208-3.758 2.87-3.768zm8.448.115s1.227.897 1.473 1.133c2.267 2.174 2.289 5.29.236 6.38-1.366.724-2.91.14-3.447-.912-.248-.488.16-.997.682-.994.978.006 1.724-1.868 1.435-3.84-.115-.782-.38-1.767-.38-1.767zm26.746.725s.27 2.664.657 3.845c1.19 3.312-.33 5.328-2.553 4.22-.318-.159-.879-.88-.879-.88l-.22 3.807-3.164-.921c.684-1.1 1.67-1.882 2.405-3.12 0 0-.474-.017-.888-.02-1.89.066-2.586-2.029-.605-3.753 1.476-1.273 5.247-3.178 5.247-3.178zm16.536.884c.382-.003.86.028 1.516.028 2.007.002 2.522-.27 1.637.98a36.163 36.163 0 0 0-1.435 2.304c-.506.936-.607 1.231-1.45 1.416-1.22.241-2.603.074-3.998.139-.303-.015.32-1.054.667-1.7.852-1.581 1.371-2.667 2.103-3 .287-.13.577-.165.96-.167zm-6.202 1.224c.243-.013.422.421.653 1.32.538 2.096.677 2.148-.192 3.868-.439.868-1.186 2.339-1.493 2.948-.788 1.56-.833 1.545-1.33.148-.952-2.68-1.035-2.404.538-5.414.982-1.88 1.47-2.852 1.824-2.87zm-115.69.734l2.836 2.275-.806.783-1.57-1.157-2.318 2.481 3.811 3.476 3.226-3.178 2.765 2.89-.845.715-1.623-1.565-2.428 2.074 3.624 4.281 3.652-2.784 2.29 3-.936.586-1.493-1.45-2.376 1.647 2.957 4.166 3.725-2.136 2.117 3.48-1.176.566-1.2-1.91-2.674 1.54 2.525 4.873 4.022-1.68 1.618 3.72-1.229.5-1.032-2.238-2.707 1.07 1.814 5.118 4.08-1.172.99 3.802-1.259.35-.619-2.107-2.597.624 1.085 5.136 4.152-.264.495 4.152-1.292.058-.321-2.477-2.645.034c.014.873.115 2.654.115 2.654l-1.598-.74c-2.375-15.787-10.844-28.946-23.463-38.107l-.067-1.886 3.072 1.949s2.817-2.51 3.303-3.15zm121.196 3.682c.88-.007.49.675-.581 2.716-1.196 2.277-1.409 2.325-3.648 2.87-2.724.665-2.645.814-1.171-2.327.568-1.211.982-2.271 1.502-2.674.683-.528 2.005-.326 3.442-.542.179-.027.33-.042.456-.043zm-127.422.672c13.104 8.454 21.388 25.94 22.416 36.542 0 0-.355-.238-1.07-.566-.994-.456-1.238-.754-1.527-2.199-2.596-12.964-9.914-23.966-19.762-31.733zm118.172 2.164c.555-.115 1.564 3.865 1.262 4.7-.216.6-2.166-.817-2.875-1.119-.354-.15 1.238-3.503 1.613-3.58zm-63.192.183l-.063 4.128s.497-.59.754-.778c.974-.71 2.463.275 2.52 1.493.078 1.69-.178 2.376-1.531 4.723a31.404 31.404 0 0 1-1.052 1.651s-1.598-1.139-3.345-2.88c-1.889-1.88-1.528-4.393.124-4.401.495-.004.936.164 1.369.302-.357-1.216-1.685-3.576-1.685-3.576zm51.22 3.091s.856 1.126 1.84 4.09c.938 2.83-.507 4.96-2.468 3.892-.351-.19-.72-.604-.72-.604-.138 1.371.106 3.84.14 3.859l-3.164-.552s1.737-2.76 1.862-3.442c0 0-.196.154-1.065.154-3.179-.002-2.52-3.783 1.152-5.88.55-.315 2.424-1.517 2.424-1.517zm18.222.048c.687-.03.363.635-.399 2.189-.841 1.718-.63 1.57-2.41.662-2.487-1.215-2.34-1.405.812-2.256.996-.368 1.636-.579 1.997-.595zm-45.111.504c2.491.015 4.328 2.473 3.96 5.966-.633 5.998-.27 5.628.384 6.226 1.19 1.09-.421 1.745-1.838.706-.987-.724-1.309-1.438-1.263-4.748.053-3.803-.152-4.772-1.512-4.44-.849.208-1.116.93-1.022 3.495.131 3.6-.107 4.507-1.474 5.66-1.474 1.14-3.065.123-1.718-.63.615-.692.731-1.573.494-3.749-.26-1.853-1.34-8.518 3.989-8.486zm61.59 3.024c.312-.006.627-.002.945.01 4.793.18 16.915 1.166 16.915 1.166l.106 3.58c-.542.334-9.588-1.045-16.244-.92-1.556.028-2.657.715-3.782.138 1.08.448.981 5.85-3.778 4.541-4.035-1.45-2.069-6.908 3.092-8.285.887-.12 1.806-.212 2.745-.23zm-26.675 2.4l10.359 5.107c1.45 19.447 8.163 39.992 31.027 55.566-3.704 2.65-12.996 9.16-23.616 13.617l-.869-.931c12.61-21.444 3.083-45.046-18.998-55.728.06-5.952.807-11.824 2.097-17.631zm36.437 3.26c1.987-.078 2.504.15 2.674 1.05.16.851.792 1.05 1.54.778 1.824-.664 2.937 2.569 1.426 4.003-.937.891-.773 1.234-.004 1.239 1.903.012 1.848 2.504-.087 3.917-.803.586-.792.852.048 1.267 1.407.694 1.124 2.067-.662 3.197-.972.614-1.004.765-.202.984 2.02.55-.041 3.429-2.25 2.918-.908-.21-1.77-.014-2.636.552-2.367.986-2.764 1.182-5.319.864-2.243-.412-3.246-1.15-3.825-3.12-1.316-4.005-2.735-8.443-2.75-12.816-.199-2.685 4.301-5.113 6.433-5.218 1.736-.261 3.728.367 5.614.384zm-141.682.066a4.31 4.31 0 1 1 0 8.621 4.31 4.31 0 0 1 0-8.62zm47.904 1.268l-.389 3.768s.634-.495.783-.62c1.121-.937 2.893.111 2.491 1.57-.131 1.286-2.35 5.107-3.235 5.909 0 0-3.56-3.878-3.941-4.637-.846-1.686.31-3.443 1.848-2.698.22.107.854.577.854.577l-1.128-3.577zm-47.616.302c-1.524.052-2.97.987-2.775 2.232.13.532.942-.236 1.743-.74a2.162 2.162 0 0 1 2.05-.143c.619.22.884.791 1.243 1.233.304.373.637.678.825.495.16-.198.095-.445.053-.667-.328-1.698-1.732-2.452-3.14-2.41zm116.079.586l1.54.787c2.075 27.481 15.971 43.638 30.572 53.261l-1.161.7c-17.919-11.479-30.36-32.046-30.951-54.748zm2.333 1.128s3.869 1.98 5.894 2.894l.077 2.487-1.353.048-.461-2.338-2.813.202.878 5.75 4.536-.557.634 3.475-1.536.322-.787-2.136-2.602.634 1.685 5.587 4.09-1.32 1.281 3.653-1.373.499-.878-2.141-2.693.94 2.083 5.454 4.258-1.368 1.718 3.412-1.29.572-1.234-2.117-2.554 1.305 2.995 5.093 3.845-2.016 1.795 2.722-1.411.946-1.282-1.666-2.068 1.363 3.312 4.522 3.312-2.482 2.476 2.856-1.094.97-1.69-1.714-2.001 1.786 3.945 4.33 3.428-2.977 2.433 2.266-.72.758-1.637-1.022-2.17 2.304 4.143 3.605 3.288-3.605 2.79 2.054v1.517l-2.492-1.262-1.67 2.515 4.161 3.149-.029 1.238c-23.757-14.173-30.008-36.156-31.22-52.507zm-48.639.273c1.027-.03 2.111.935 3.903 3.01 5.006 5.8 3.67 14.77-2.876 19.45-.953.681-1.336.62-2.5-.38-6.714-5.768-7.101-13.48-1.124-20.256 1.034-1.17 1.798-1.8 2.597-1.824zm23.995.797c1.235 1.893 2.794 3.84 2.972 6.14-.089 2.272-1.621 2.69-3.207 1.367-.2 1.194.48 3.519.48 3.519l-2.87-.307s1.126-1.967 1.171-3.197c-1.993 1.388-3.515-.422-3.245-1.882.57-2.483 2.61-4.157 4.7-5.64zm-23.908 1.483c-.236.02-.48.18-.855.48-1.748 1.403-3.122 3.147-3.835 4.959-1.505 3.823-.523 8.133 2.87 11.477 1.724 1.698 2.33 1.582 4.973-1.93 2.214-2.942 2.674-6.741 1.31-10.042-.665-1.61-1.87-3.18-3.316-4.32-.556-.437-.845-.648-1.147-.624zm55.22.706l2.226 1.094c2.842 18.742 12.052 30.176 22.373 38.06l-.019 1.737-2.77-2.145-3.316 3.47-2.688-2.203 1.008-.98 1.53.975 1.96-2.193-3.855-3.437-3.36 2.913-2.799-2.88.85-.71 1.934 1.69 2.165-1.92-3.744-4.2-3.35 2.539-2.338-3.101 1.018-.605 1.224 1.68 2.582-1.608-2.731-4.2-3.893 1.997-1.992-3.59 1.133-.543 1.291 2.016 2.424-1.166-2.438-4.954-3.98 1.315-1.463-3.897 1.137-.418 1.003 2.304 2.693-.864-1.829-5.333-4.113 1.162-1.018-3.922 1.272-.273.667 2.116 2.828-.566-1.037-5.078-4.21.532c-.14-.862-.76-3.187-.749-4.065l1.296-.106.408 2.237 2.832-.096zm-55.072.408c1.544.212 3.429 3.183 3.855 4.262.813 2.134.881 4.607.139 6.524-.607 1.567-2.423 4.347-3.576 5.13-.93.505-1.71.131-3.039-1.674-2.625-3.569-3.133-7.86-1.06-10.8 1.583-2.246 2.757-3.444 3.681-3.442zm58.057.926l1.118.528c1.374 10.86 7.81 25.765 20.477 34.68v1.364c-9.851-7.071-18.895-19.266-21.595-36.572zm-58.253.74c-4.412 3.325-3.706 8.53-.364 12.037 3.6-2.382 4.872-8.816.364-12.037zm-67.321.22c2.488-.057 4.066.81 4.824 2.535 1.177 2.679 1.337 3.188 1.58 4.593.137.804.35 2.016.47 2.693 1.292 7.281.34 10.025-4.08 11.16-1.32.34-3.16.449-4.445.14-.338-.082-1.573-.09-2.544-.12-1.928-.063-2.517-.267-3.485-1.052-.349-.283-.685-.51-1.104-.576-2.206-.35-2.865-2.37-1.19-3.864.953-.85 1.048-.963.96-1.109-.05-.081-.457-.15-.908-.153-2.223-.014-2.2-2.302.039-3.936 1.064-.777 1.544-1.51.84-1.33-2.028.478-2.743-2.485-.624-3.404 1.128-.631 1.938-1.16.85-1.218-.915.079-1.659-.596-1.38-1.391.34-.964 2.195-1.841 3.266-1.513.836.256 1.651.49 2.174.115 1.269-.912 1.836-1.323 2.928-1.469a13.753 13.753 0 0 1 1.829-.1zm73.954.557l10.224.197-.302 10.027-9.63-.182s2.112-4.48-.292-10.042zm-22.91.23l9.792.12c-1.614 3.78-1.011 7.663-.418 9.85l-9.586-.149zm16.353.015c2.631 1.533 3.355 7.115-.3 9.985-3.478-3.575-2.781-7.927.3-9.985zm-24.158 4.358l2.625.245-.936 3.759s.423-.446.562-.49c3.373-1.584 3.615 2.005.182 5.246-.759.715-1.977 1.695-1.977 1.695s-.955-1.445-1.714-2.75c-.862-1.314-1.448-2.72-1.3-3.466.213-1.083 1.516-1.8 2.347-1.138.409.326.883.821.883.821zm46.877 2.756s1.101 1.13 1.771 1.862c2.318 2.536 2.717 4.91 1.54 5.63-1.008.462-1.635.146-2.447-.513.169 1.572 1.417 3.893 1.387 3.897l-3.46.557s.853-3.15.782-4.339c0 0-.711.546-1.028.682-2.259.825-3.379-1.742-1.521-4.301 1.558-2.147 2.976-3.475 2.976-3.475zm47.275 4.752a4.205 4.205 0 1 1 0 8.41 4.205 4.205 0 0 1 0-8.41zm2.074 1.924c-.181.041-.33.458-.35 1.378-.21 1.886-1.779 2.646-3.495 1.771-.693-.353-1.284-.877-1.286-.475-.002.215.555 1.34.95 1.723 1.455 1.308 4.996.998 4.915-2.05-.038-1.434-.432-2.414-.734-2.347zm-76.345 1.58a1.887 1.887 0 0 1 1.407.542c1.15.785 1.367 1.788 1.44 5.573.064 3.338-.004 3.42.547 3.826 1.349.991 2.162-.52 1.776-3.903-.371-3.256.802-5.624 2.77-5.611.968.006 1.148.575.413 1.3-.776.767-.964 1.703-.72 3.586.623 4.826.084 7.195-1.944 8.175-2.116 1.021-4.837-.152-5.314-2.823-.306-1.781-.303-3.894-.091-5.885.038-2.093-.01-2.332-.74-3.532-.516-.806-.13-1.209.456-1.248zm-53.203 1.564c1.17-.002 2.384.676 3.11 2.175 1.752 3.617-2.043 6.592-5.525 6.826-6.043.09-13.225-.782-19.29-1.59l.095-3.417c5.567.322 11.843.774 18.605 1.09-.77-3.178 1.055-5.08 3.005-5.084zm31.786.701l3.365.744-2.141 3.5c.635-.276 1.074-.467 1.709-.236 1.37.495 1.389 2.232.384 3.855-.795 1.178-3.03 2.586-4.556 3.451-.857-1.84-2.75-5.061-1.997-6.82.4-.935 1.508-1.39 2.54-.88.341.205.993.538.993.538zm7.953.096l10.253.12c-1.49 10.366-4.406 24.209-10.152 35.492l-2.414.624c5.067-11.212 8.438-21.726 10.013-33.48h-5.127c-2.949 12.615-7.312 24.306-14.02 34.464l-2.982-.97c7.169-11.365 12.85-24.048 14.43-36.25zm23.386.183h11.429c2.102 21.107 9.234 35.512 19.848 49.762 0 0-.67.15-1.065-.02-1.101-1.373-2.11-2.213-3.759-2.635-8.92-12.843-14.906-30.799-16.349-44.535h-6.797c.774 17.252 5.554 31.397 11.914 45.097l-3.451.633c-5.108-12.26-10.708-22.929-11.77-48.302zm17.784 2.606c.94.728 1.957 1.442 2.914 2.136 2.573 1.806 2.54 5.219.038 5.203-.265-.001-.883-.038-.883-.038s1.022 2.237 1.666 3.37c-1.043.278-3.221.686-3.221.686s.312-2.197.25-4.018c0 0-.418.467-.764.63-1.66.693-3.063-.756-2.856-2.468.28-2.31 2.856-5.5 2.856-5.5zm-76.354.413l5.626 2.794c-3.834 8.726-8.224 16.896-14.573 23.107l.163-20.165c3.466-.1 7.021-.132 8.784-5.736zm38.468.317h3.46c-1.535 16.099-12.172 37.877-14.17 40.502l-.657.495c.04-.022-1.362-4.937-2.957-6.706 6.001-8.094 12.29-23.649 14.324-34.291zm24.336 0h5.227c1.628 12.828 5.594 26.686 15.643 43.517 0 0-1.007.101-1.785-.365-1.713-1.062-2.903.344-3.926.29-1.6-.087-1.864-.182-3.514.21-8.293-17.492-10.646-31.26-11.645-43.652zm-56.463 2.88l1.867.878c-4.015 9.286-7.61 16.665-17.122 25.724l-.033-2.698c6.681-6.471 11.183-15 15.288-23.904zm2.717 1.296c.884.332 1.887.88 2.721 1.33.28.111.204.361.207.623-.353.882-1.911 1.27-2.501 1.44-.712.203-1.414.345-1.54.375-.815.19-.557-.625.326-2.41.397-.804.554-1.34.787-1.358zm3.73 1.968c.558-.035 2.815 1.212 3.297 1.66.171.53-.314 1.363-1.027 2.905-1.096 2.37-1.314 2.422-1.642.475-.056-.336-.383-1.444-.58-2.18-.459-1.706-.502-2.688-.049-2.86zm4.084 1.915s1.312.637 1.738.917c-5.857 17.54-21.453 32.038-21.37 31.704l-2.434-1.43c10.38-9.379 17.987-20.453 22.066-31.191zm-6.192.25c.567.011.073.708-.691 2.395-.725 1.652-.963 2.238-1.642 2.5-.972.353-2.37.364-3.61.581-.53.092-.307-.313.51-1.972.958-1.947 1.012-2.351 2.515-2.756.869-.135 2.038-.755 2.918-.748zm2.055 3.484c.603 2.173.59 2.601.187 3.356a84.636 84.636 0 0 1-2.021 3.513c-.682 1.118-.876.886-1.282-1.833-.251-1.687-.471-2.445-.285-3.18.34-.83 1.356-2.789 1.93-3.934.822-2.445 1.263 1.862 1.47 2.078zm10.78-1.896l3.073 1.008-2.41 2.91s1.01-.183 1.128-.135c2.417.16 2.016 2.563.144 4.017-.775.71-4.599 2.448-4.599 2.448-.409-2.15-1.253-3.524-1.05-5.73.141-1.19.247-2.262 1.703-2.295.766-.041 1.077.742 1.575 1.373zm55.69 2.607s1.851.955 3.567 2.275c2.238 1.722 2.62 3.746.384 4.526-.259.09-.994.053-.994.053.616 1.073 2.079 2.67 2.079 2.67-.733.512-1.767.913-2.914 1.271 0 0-.284-2.67-.557-3.7 0 0-.296.582-.662.81-2.155 1.341-3.846-1.186-2.688-4.382.703-1.94 1.785-3.523 1.785-3.523zm-23.688.446c5.38-.13 2.229 8.68-.46 8.112-.046-.08 2.22-5.212-.83-6.029-1.4-.374-.194-2.1 1.29-2.083zm-8.822.624c1.672-.01 2.888 1.169 1.291 1.91-2.513 1.168-1.017 3.965-.96 5.55.035.968-2.239-.845-2.722-2.813-.624-2.545-.335-4.429 2.39-4.647zm-39.797.927c.37-.002.65.028.744.1.157.416-.594 1.715-1.69 3.38-.583.885-.833 1.134-1.19 1.344-.848.476-2.038.352-3.03.422-1.478.019-1.218-.01.419-2.558.73-1.139 1.192-2.07 1.627-2.367.087-.056 2.007-.318 3.12-.321zm1.939 1.838c0 3.187 1.083 4.231.288 5.237-.972 1.566-2.213 3.279-2.664 3.82-.76.913-.675.74-.874-1.646-.144-1.73-.301-2.887-.076-3.427.65-1.562 1.422-2.31 2.227-3.97.63-1.338 1.099-1.114 1.099-.014zm42.47 1.598c1.564.022 2.529 1.682 2.458 3.207l-.067 1.46c2.02-.775 4.526-.023 4.637 1.957.188 3.358-2.285 2.969-4.378 2.828.211.079.52 3.035-.724 4.166-1.954 2.186-5.596-.047-4.68-3.254.19-.667.23-1.085.23-1.085s-1.306.47-1.767.451c-3.961-.17-3.658-5.77.322-5.112.813.135 1.363.331 1.363.331s-.086-.354-.22-.854c-.58-2.156.636-4.124 2.827-4.095zm79.254.999l2.136 1.229v2.38l-3.038-2.246zm-128.04 1.593c.84-.008 1.502.058 1.372.26-.003.424-1.844 2.986-2.933 4.156-.929.998-1.06.856-3.331.745-.891-.044-1.474-.051-1.45-.289 1.047-1.371 2.488-3.138 3.485-4.612.392-.12 1.774-.249 2.856-.26zm2.078 1.119c.157-.002.205.338.201 1.08-.003.56.077 2.292.159 3.043.148 1.366.148 1.364-.437 2.18-.714.766-1.442 1.895-2.362 2.774-1.382 1.53-1.24 1.618-1.22-1.656.017-2.558-.176-2.558.342-3.159a32.733 32.733 0 0 0 1.742-2.246c.88-1.277 1.345-2.013 1.575-2.016zm13.17.451l2.842 1.517-2.846 2.885s.712-.003.95.043c1.829.355 1.692 2.293-.148 3.74-1.13.713-5.012 2.126-5.012 2.126-.133-1.63-.478-3.129-.412-4.877.027-.807.1-1.684.72-2.381.427-.473 1.142-.749 2.145-.1.527.467.802.997.802.997zm33.534.984a2.016 2.016 0 1 0 0 4.032 2.016 2.016 0 0 0 0-4.032zm31.767.475s3.72 1.398 5.395 2.933c1.565 1.305.828 3.455-.725 3.5-.113 0-.773-.097-.773-.097.527.8 2.29 2.765 2.29 2.765l-2.875 1.167s-.46-2.214-.816-3.456c-1.003 2.313-3.475.808-3.639-.634-.399-2.113.5-4.178 1.143-6.178zm-31.767.178a1.402 1.402 0 1 1 0 2.803 1.402 1.402 0 0 1 0-2.803zm-54.893 2.865c1.002-.009 2.252.038 2.812.072.427.328-.465 1.345-2.188 3.154-1.382 1.45-1.586 1.25-3.26 1.263-2.808.022-2.878.04-1.588-1.426 1.412-1.607 2.236-2.641 2.89-2.976.219-.057.732-.08 1.334-.087zm3.422 1.412c.297-.06.216.698.168 2.414l-.081 2.909-2.185 2.102c-2.528 2.262-2.225 2.404-2.208.288.015-1.681-.003-2.863.36-3.61 1.104-1.33 2.254-2.507 3.51-3.777.197-.195.337-.307.436-.326zm55.522.725c.608-.051 2.16 2.604 2.549 4.828.887 5.08 3.93 7.488 6.072 5.448.871-1.199.969.11.926.735-.449 6.436-7.742 3.757-8.572-2.635-2.56 1.66-4.949-1.695-3.423-1.642 3.608-1.147 2.622-4.46 2.448-6.734zm-8.448.048c.357 2.226-3.656 6.039-5.914 3.364-1.148-1.36-.102-4.166 1.359-2.438 1.614 1.195 3.18-.191 4.555-.926zm-55.143 3.052c.825-.017 2.019.139 2.54.068.736.074.21.429-1.383 1.881-1.372 1.251-1.763 1.808-1.92 1.263-.076-.846-.043-1.851-.038-3.044.126-.117.426-.16.801-.168zm18.71 1.479l2.449 1.785-2.429 2.237c2.178-.107 2.372 1.934 1.546 3.072-.536.798-2.6 1.638-4.666 1.973-1.243.202-2.256.35-2.256.35s-.047-.957-.082-2.548c-.07-3.255.15-4.536 1.402-5.17.896-.454 2.412.259 2.784 1.09.123.274.446.753.446.753zm-15.753.177c.01-.002.016 0 .02.005.138.187-.36 5.482-.36 5.482l-3.548-1.997s3.59-3.427 3.888-3.49zm93.88.624c2.526 1.19 4.42.96 6.12 2.434 1.48.775 1.04 2.908-.04 3.384-.488.15-1.295.067-1.295.067.893 1.103 2.851 2.496 2.851 2.496l-3.11 1.301s-.426-2.097-.821-3.24c-.566 1.7-2.484 1.658-3.576.86-.774-.593-1.094-2.58-.725-4.302.097-.454.595-3 .595-3zm11.366 17.256c3.21 4.517 4.997 8.315 5.496 13.983.295 3.495.194 4.148-.634 4.142-.532-.003-.762-.266-.758-.864.056-9.49-11.634-11.72-15.984-3.523-2.551 4.806-1.293 11.177 4.19 19.853 5.045 8.216 11.542 14.46 15.24 23.3 3.665-8.778 11.017-16.164 16.272-24.625 7.59-10.879 4.959-22.347-4.406-23.553-4.298-.554-9.007 3.752-9.552 8.208-.122.993-.333 1.286-.879 1.204-.73-.108-.457-2.07-.139-4.69.867-5.005 2.635-9.18 5.501-13.435zm45.346 12.543c.084-.021 2.381 3.18 2.707 4.378.266.976.47 1.986.302 2.41-.201.509-.68.119-1.277-.673-1.638-2.176-4.859-1.48-6.172 1.349-.947 2.04-.42 4.666 1.339 7.647 2.103 3.887 7.247 10.878 7.401 11.515.138-.548 3.415-6.485 6.053-10.421 1.392-2.376 2.433-4.387 2.496-7.527-.32-3.908-4.997-5.52-7.085-2.486-.675.981-1.076 1.28-1.3.48-.152-.54.322-1.706.57-2.952.209-1.04 2.232-3.745 2.28-3.72zm-73.326 19.493c-30.671 7.268-55.584 2.774-58.056 1.915l-1.954 2.914c-.238.495-.384 1.974-1.709 2.376l-1.987 2.966.389.413-1.762 1.536.428.514-1.282 1.862-.504-.053-2.966 4.507.45.504-6.81 10.661 92.146.03c-5.356-10.104-11.087-20.01-16.383-30.145zm-.557 1.31l.548 1.522c-1.524-.188-3.303-.28-5.112-.36 1.59-.328 3.182-.73 4.564-1.162zm-5.352 1.325c-2.93 1.345-4.686 2.961-6.033 4.666-1.677-1.302-3.81-2.225-6.355-2.803zm-51.782.74l1.305.148s-.437.34-.749.269c-.238-.054-.556-.418-.556-.418zm58.7.758l.83 1.641c-1.996-1.058-10.533-3.48-12.956 5.007-2.548-3.446-13.058-8.441-18.389 2.18-1.516-2.878-10.34-11.156-18.389-.606-3.171-6.557-5.822-7.106-11.644-6.211 4.138-3.977 9.96.163 12.427 3.547 6.944-5.759 12.75-4.028 17.822.658 6.546-7.127 13.073-5.41 17.665-1.834 3.225-4.746 6.376-6.177 12.633-4.382zm-53.612.043c4.126.557 8.253.81 12.379 1.013-2.388.876-4.837 1.631-6.783 3.393-1.473-2.057-3.52-3.252-5.596-4.406zm29.77.658c-2.253 1.06-4.68 2.654-6.625 4.33-2.1-1.71-4.26-3.189-6.614-3.932 4.319.212 9.103.022 13.238-.398zm100.46 2.308c-.004.017-.004.025 0 .03.004-.006.002-.015 0-.03zm-74.041 1.061s-.832.14-1.1.211c-3.643.969-2.85 6.102.898 6.101.357 0 1.243-.139 1.243-.139-.07 3.476.986 4.324 4.537 4.128l6.019 10.762-89.04-.384 5.654-9.044c2.843.334 4.631-1.248 3.998-3.662 0 0 1.751.535 2.242.538 3.218.02 4.05-4.92.964-5.775-.343-.095-1.205-.19-1.31-.22 1.411-3.526 5.288-1.445 6.398.019 2.5-2.055 5.263-1.135 6.447 1.526 0 0-.466-.26-.61-.365-2.927-2.141-5.65 2.294-2.784 4.34.282.2.879.374.879.374s-.349.284-.668.82c-1.488 2.503.908 5.551 3.802 4.767 2.221-.87 2.253-2.54 2.251-4.378 0 0 .768.06 1.455.068 2.665.031 3.43-3.383 1.798-4.97-.882-.857-2.034-.79-2.605-.9 3.073-3.018 5.157-.936 7.325.455.328-.008 3.764-4.134 7.848-.081-1.982-.52-4.012.766-4.04 2.83.04 1.327.99 2.501 3.043 2.595-.221.667-.368 1.165-.38 1.813-.04 2.167 1.644 3.515 3.782 3.182 1.787-.228 3.108-2.27 2.472-3.97-.287-.765-.682-1.046-.682-1.046 4.813.603 4.73-5.493.987-5.863-.887-.088-1.57.297-2.465 1.116 2.2-4.5 6.226-3.597 7.733-1.757 2.067-1.502 4.918-3.553 8.328.101-.562-.118-1.354-.146-2.04.036-2.7.716-2.712 4.149-.571 5.193.602.294 1.34.465 2.136.435-.712 2.885 2.49 4.945 4.757 3.564 1.625-.99 2.05-3.327.292-5.46 2.959-.132 3.25-3.819 1.541-5.112-1.34-1.013-2.917-.532-4.06.807-.368-1.059 2.556-4.74 6.686-2.088 2.187-1.834 4.358-2.399 6.84-.567zm1.291 2.88l1.157 2.103c-.77.076-1.873-.749-1.157-2.103zm-14.928 2.136a1.31 1.31 0 1 1 0 2.621 1.31 1.31 0 0 1 0-2.62zm-54.044.077c.175.703.252 1.405-1.027 1.54zm130.902.61v2.932h2.4l6.778 15.61-6.504 10.133h-2.674v2.606h9.312v-2.606h-2.721l8.275-12.634v12.634h-2.376v2.606h8.42v-2.606h-3.073v-25.743h3.072v-2.932h-8.42v2.932h2.377c.058 2.525.072 4.699 0 7.224-1.183 1.579-2.41 3.506-3.71 4.993l-5.233-12.217h3.39v-2.932zm-115.849.657a1.2 1.2 0 1 1 0 2.4 1.2 1.2 0 0 1 0-2.4zm19.973.375a1.272 1.272 0 1 1 0 2.544 1.272 1.272 0 0 1 0-2.544z"/></g></svg>