<svg xmlns="http://www.w3.org/2000/svg" width="224.225" height="312.808"><title>Vectorized Playing Cards 1.0</title><rect y="589.952" x="2090.74" height="311.811" width="223.228" rx="10.63" ry="10.63" fill="#fff" stroke="#000" stroke-width=".997" transform="translate(-2090.242 -589.453)"/><path d="M119.749 283.073c.538-7.928.076-16.44.438-22.893-.246-.455.638-1.707.684-1.707-.525-.96-.701-3.415-.038-5.594 5.19-19.773 14.588-35.16 24.268-49.51 7.871 23.715-16.846 40.352-22.044 61.074-1.734 7.175-1.474 12.185-2.14 18.667zm-41.096.302L49.248 237.95l6.386-3.108 30.224 48.373zm38.035-84.15c.26 1.305 1.285 2.005 2.374 1.408 1.067-.584 1.19-.623.526.405-1.465 2.27 1.503 4.467 3.408 2.52.677-.693.79-1.82.175-2.392-.694-.646-.845-.98.18-.489 2.572 1.042 3.99-2.68 1.496-3.931-.642-.323-1.894-.037-2.365.454-.57.594-.65.385-.498-.075.09-.272.153-.714.368-1.24.168-.414.289-.977.289-.977l-2.63.027s.213.603.428 1.11c.203.476.28.833.378 1.031.354.715-.071.45-.781-.078-1.004-.747-2.263-.537-2.978.445-.264.578-.485 1.179-.37 1.783zm3.796-36.955l5.652-.168 6.216 17.154c-4.975 8.259-6.316 17.575-.528 27.017l-17.925.029c4.205-14.228 4.854-29.32 6.585-44.032zm5.91 22.32c.759-.679.856-1.909.165-2.73-.87-1.03-.67-1.083.496-.41 1.682.972 3.291-1.13 2.299-2.99-.631-1.18-2.67-1.441-3.45-.391-.65.875-.577.073-.077-1.09.183-.427.447-1.23.447-1.23l-2.739.056s.354.776.542 1.274c.5 1.321.52 1.74-.25.89-1.672-1.405-3.633-.387-3.651 1.63.017 1.552 1.423 2.547 2.654 1.822.748-.44 1.083-.546.24.466-.58.964-.372 2.193.395 2.77 1.051.635 2.176.599 2.93-.068zm-37.867 5.345c.22-.162.302-.056.167.163-.115.186-.41.45-.662.731-1.279 1.422.375 3.23 2.436 2.95 1.403-.19 2.226-2.397 1.19-3.268-.336-.224-.6-.267-.854-.574-.02-.122.037-.205.161-.157.183.077.557.379.745.43 1.304.354 2.288-.185 2.619-1.105.21-1.064.008-2.208-.862-2.805-.808-.543-2.004-.387-2.7.538-.714.947-.812.046-.229-1.26.219-.49.37-1.187.37-1.187l-2.519.133s.134.542.356 1.165c.56 1.422.96 1.83.245 1.095-3.076-1.811-4.097.652-4.148 1.632-.095 1.845 2.59 2.89 3.685 1.519zm12.315-27.82l4.544.015c-3.426 18.217-10.447 33.477-22.26 43.979l-22.232-.069-10.712-7.49 4.137-5.372c28.223 2.907 40.242-11.086 46.523-31.064zm-20.453 42.23c1.33-.586 1.883-2.092 1.003-3.103-.795-.914-.876-1.2.346-.487 1.635.952 3.216-.95 2.414-2.81-.5-1.158-2.072-1.516-3.204-.729-.995.742-.976.41-.456-.761.258-.58.455-1.51.455-1.51l-2.785.04s.201.661.404 1.116c.465 1.042.633 1.52.417 1.523-.104 0-.448-.317-.65-.502-.554-.51-2.07-.606-2.633-.068-1.668 1.59-.729 4.372 1.392 3.859 1.37-.332 1.683-.852.548.436-1.398 1.587.768 3.87 2.749 2.997zm-17.57-.552c1.152-.543 1.537-1.871.892-2.728-.65-.864-.97-1.42.185-.642 1.534.772 2.875-.254 2.856-2-.02-1.827-2.073-2.68-3.583-1.579-.256.186-.57.353-.626.354-.184.002.151-.987.518-1.634.16-.28.44-.853.44-.853l-2.786-.107s.156.76.375 1.343c.444 1.186.552 1.581-.226.908-2.094-1.958-4.329.535-3.447 2.688.467 1.211 1.896 1.211 2.74.606.765-.594.374.193-.15.82-1.432 1.706.666 3.827 2.812 2.824zm127.207-45.675l.146 3.37-35.996 29.997-1.51-2.312zm-133.883 6.309c5.183-3.688 10.948-10.31 16.638-13.76 4.157 9.554-5.594 18.92-16.638 13.76zm95.117-2.418c-5.213-17.896 19.409-16.705 16.318-12.904zM34.248 150.32l35.634-29.05 1.62 2.441-37.593 30.797zm97.614-29.305c.1.304 1.178 1.462 1.18 1.567-.308-.23-2.138-1.256-3.032-.259-.312.365-.709 1.238-.666 2.142.374 1.618 2.216 2.189 3.524 1.08.377-.318.7-.705.777-.569.067.118-.14.674-.307 1.115-.193.452-.911 1.403-.39 1.402l2.53-.005s-.093-.593-.396-1.249c-.566-1.225-.542-1.89.14-1.008 1.33 1.72 3.907.286 3.637-1.775-.194-1.488-1.7-2.34-2.809-1.63-.121.077-.477.43-.527.432-.136.006.235-.561.48-1.032.817-1.566-.401-3.015-2.266-2.859-.603.05-1.262.43-1.266.484-.7.565-.815 1.541-.61 2.164zm30.765-14.573c3.565 3.28 7.13 5.683 10.695 7.783l-3.364 5.311c-22.801-2.11-39.382 6.904-46.301 31.343l-3.759.723c1.414-15.245 6.523-30.363 21.627-45.136zm-21.852 3.648c.006.722 1.334 1.582 1.038 1.781-.135.072-.926-.616-1.289-.654-2.633-.28-3.178 3.813-.57 4.273.514.09 1.573-.229 1.887-.487.418-.343.707-.625.793-.594.16.058-.204.788-.49 1.329-.266.502-.637 1.486-.637 1.486 1.043.189 2.05.232 2.992.014 0 0-.27-.855-.54-1.507-.344-.833-.417-1.361-.186-1.305.1.024.212.284.422.464 1.297 1.113 3.199.638 3.699-1.1.47-1.635-1.487-3.318-2.85-2.404-.475.32-.476.08-.001-.637.434-.655.327-1.646-.066-2.236-1.43-1.518-4.267-.432-4.202 1.577zm21.49 4.847c-.072-.364.02-.26.404.139 1.2 1.249 3.267 1.055 3.793-.6.525-1.653-1.08-3.544-2.477-2.894-.727.337-.74.218-.324-.323 1.072-1.395-.11-3.233-1.95-3.212-1.68.018-2.67 1.636-1.853 3.026.335.569.227.69-.363.404-1.719-.834-3.323 1.887-2.063 3.501.74.948 2.454 1.048 3.434.107.521-.501.517-.262.138.775-.33.903-.696 1.634-.696 1.634l2.975.026s-.794-1.51-1.018-2.583zm-63.707 36.556s-4.416-12.29-5.929-18.183c3.273-7.839 7.752-15.434.222-26.72l18.3-.051c-5.654 12.818-5.774 45.168-7.102 45.247zm1.605-14.386s-.903-1.242-.959-2.25c-.109-.645.058-.684.394-.026 1.63 1.802 3.836.062 3.846-1.534.188-1.46-1.52-2.71-2.617-1.982-.768.51-.977.364-.292-.586.966-1.34-.086-3.082-1.813-3.063-2.245.025-3.105 2.123-1.496 3.62 1.19 1.107.081.453-.863.058-1.84-.77-3.045 1.102-2.22 2.992.57 1.304 2.241 1.644 3.221.588.537-.578 1.034-.917.742-.043-.152.707-.974 2.207-.974 2.207zm2.833-19.7s-1.084-1.359-1.27-2.38c-.064-.377.203-.281.818.247 1.969 1.69 4.674-1.34 2.839-3.192-.63-.636-1.272-.82-2.008-.436-.92.48-.846.248-.387-.249.672-.728.623-2.056-.101-2.701-2.002-1.784-5.17.874-3.31 2.78.81.83.426.723-.465.19-1.686-1.009-3.552 1.755-2.286 3.377 1.501 1.27 2.626.645 3.664-.152.225-.12.42-.173.422-.075.002.183-1.037 2.628-1.037 2.628zm-24.001-7.658c-1.117-.075-1.915-10.507-.55-13.81 2.91-13.935 11.79-24.084 17.318-32.62 8.867-12.71 7.765-33.822 8.142-32.98l1.257.146s-.973 12.376-.423 17.968c.573 4.917.447 5.223.095 5.71-.093.458.045 1.798-.055 2.259-3.946 18.204-13.365 36.923-23.09 51.055zm91.175-31.803l-29.946-47.218 7.196-.648c2.671 4.231 28.685 44.577 28.685 44.577z" fill="#d40000"/><path d="M46.866 284.218c3.406-12.484-5.82-41.519-11.586-45.312 6.762-.285 14.895-.163 14.638-.796 0 0 28.754 45.224 28.52 45.464-.222.226-31.572.644-31.572.644zm116.539-70.826c-6.968-.99-4.22-6.775.26-7.375-.583.097.48-2.876 4.094-4.078.82-1.488 1.464-4.03 2.215-5.21-2.166.704-4.798 2.534-14.638 1.092.857-4.663 10.27-5.458 13.663-4.737 1.96.455 3.895 3.375 4.491 3.437 6.042-1.007 13.728 4.459 11.403 10.007-.36.791-1.28-.94-3.313-1.677-6.574-2.383-7.034-5.94-8.546-7.534-.55-.103-3.456 5.65-3.456 5.65l.907 3.907c1.577-.144 8.584 4.185-.14 7.118-2.41 8.314-6.954 2.447-6.94-.6zm16.512-37.121c-.372-.379.294-2.967 1.178-4.455.478-.804 1.582-1.344 2.23-1.23 1.153.202.973 1.879-.555 6.789-.064.708-1.624.783-2.853-1.104zM41.15 141.89c-1.912-.007-.197-5.206.98-6.857.385-.513 1.911.58 1.99 1.333.14 1.349-1.932 6.06-2.97 5.524zm-1.356-35.356c2.333.563 6.017 2.912 7.778 4.201 2.189 1.634 1.591 4.841 3.342 5.126 1.183-.585 3.353-5.838 3.353-5.838s.544-2.698-.999-3.529c-3.838-2.067-3.77-4.301-3.526-4.5 1.139-2.95 3.405-2.426 4.63-2.59.026-1.616-.028-5.026 3.316-4.674 2.924.276 3.212 4.455 1.983 4.493-.024-.07 5.53-.797 5.476 2.867-.03 1.986-3.324 4.527-4.35 3.604 0 0 .55 3.96-4.427 5.317-1.162 1.183-2.111 6.216-2.112 5.77 3.001-2.71 7.7-3.344 15.116-2.372-4.594 8.516-17.295 4.53-18.288 2.883-6.39-1.928-12.384-4.438-11.292-10.758zm54.708-20.41c6.76.613 14.154-1.508 19.775-.385.64.087 1.336 1.035 1.721 1.245 2.906 1.585 5.947 1.092 10.623-.677 1.155-.437 22.587-.27 22.587-.27 4.881 7.21 13.56 20.776 13.75 20.316 0 0-11.88-.134-17.354.19-3.849.228-1.586.752-4.258.868-18.728 14.065-22.293 44.46-22.293 44.46s5.951-1.567 7.507.076c7.362-21.536 21.34-31.37 40.832-29.445 9.007.89 19.755 9.748 19.755 9.748l-19.276 15.686c-14.933-7.533-21.33 14.669-16.8 14.725l38.816-31.73s.665 2.59.598 2.678c-2.767 3.627-49.043 41.19-49.043 41.19l-2.032-2.244s-1.276 1.133-1.948 1.887c-.066 1.23.367 2.274 1.3 3.236-9.167 7.357-9.47 20.855-2.712 28.223 0 0-2.997.212-3.312.266-3.808.652-7.747-18.126-.198-26.865-3.809-7.468-6.155-17.63-6.632-18.1.101 1.197-6.012.799-6.012.799-.467 15.177-2.05 30.06-5.698 44.4l28.085.604-11.955 20.748s-13.416-.335-19.196-.74c-6.034-3.51-9.513-.841-15.177.459-8.06.236-19.922-.139-19.922-.03-4.024-7.99-8.348-13.866-14.225-20.716-.747-1.244 23.856-.475 23.856-.475s12.297-18.603 14.538-23.858c1.748-4.1 5.67-19.03 5.67-19.03.18.779-2.233-3.882-7.858-3.776-4.65 30.914-41.386 41.327-63.49 21.43l-.207-3.594L83.03 137.91l2.164 2.502c-.465-.373-29.905 24.125-29.415 23.97 8.725 4.567 18.82.87 17.647-14.12 6.912-4.998 13.034-10.82 19.052-16.762.13-.233 6.716 14.776 6.554 17.665 3.788-1.273 6.03 1.395 5.96.94-1.363-8.68 6.238-41.59 6.383-45.374-4.222-.34-9.82-.184-18.599-.532 7.052 13.649 4.602 22.895-5.255 31.303l-2.062-2.59c.837.466 14.398-11.27 3.48-28.802-.5.041-5.756-.475-5.756-.475s10.774-17.094 11.319-19.513zm52.34-56.411s30.744-.739 30.755.162c-.982 16.518 2.868 31.584 12.16 45.52 0 0-13.618-.483-13.37-.312z" fill="#e2cf00"/><path d="M191.563 28.64l-159.829-.195.992 256.527h159.633zm-14.619 1.018c-.013-.014-2.06 27.137 12.107 44.92-8.654-1.311-13.61.015-18.648 3.575l.69.71c6.94-4.263 12.818-3.142 18.843-2.478l-.164 34.932c-.043 1.696-7.04.939-11.466-2.388-2.1-1.24-4.81-3.845-6.026-5.8-.37-.594-.758-1.181-.865-1.305-.407-.468-2.93-5.17-7.564-14.072-2.355-4.526-5.47-10.7-7.998-15.486-1.637-3.098-4.681-8.951-4.896-9.418-.447-.973-3.762-7.438-5.051-9.79-3.408-6.215-8.91-17.059-10.872-20.945-.433-1.008-1.093-1.473.088-1.44.263.006.525.022.675.058.208.104.461-.357.461-.357zM34.626 176.546l-.101-2.747 46.448-38.308 1.482 1.907zm44.878-67.101c-.186.069-.39.139-.614.21-1.194-5.32-.513-12.426.894-17.77 2.049-7.417 5.875-13.366 10.134-19.344 9.737-13.652 14.049-23.943 13.875-42.282l1.391.149c-.058 2.896-.441 5.075-.553 8.93-.175 4.13-.106 7.27.334 11.302.215 1.982.345 3.266.011 3.524-.159.13-.302.815-.157 1.067-.023.55-.098 1.648-.098 1.648-2.23 10.919-14.189 38.915-25.217 52.566zm5.809 24.821l-2.461-3.02s-1.893-1.526-.192-3.25c4.917-4.987 4.95-11.326.196-17.026-.32-.724 1.477-4.38 1.477-4.38l3.743.062c5.837 7.102 7.43 19.65-2.763 27.614zm3.44-28.185c.116-.486-5.547-.298-5.547-.298 3.517-5.243 6.509-10.636 9.448-16.044 4.56-8.184 10.884-22.524 12.866-32.917 1.476 12.156 3.622 30.2 14.025 30.911 3.41.233 7.36-2.104 8.005-1.717l21.611-.171c4.432 8.986 9.194 14.775 14.832 20.922 4.052 2.31 8.994 4.14 13.77 5.326 2.712.674 2.973.225 8.324.988 1.413.202 3.565-.395 3.543-.395-4.275 3.373-9.208 2.417-14.64.973-.304-.08-.623-.175-.94-.287l-4.102 6.17c-9.13-2.163-38.442-.631-46.169 31.237 0 0 .794.405.609.186 6.137-27.661 32.06-33.176 44.418-30.42l-1.062 1.622c-20.506-2.508-37.202 10.317-41.179 28.505l.396.359c7.695-27.498 40.042-37.672 60.097-18.612l3.679-2.605-.119 3.526-49.306 41.31-1.972-2.04s-.347.263-.74.59c-1.273 1.06-1.775 1.319-1.418 1.91.356.59 1.74 1.922 1.8 2.071-8.178 6.664-10.773 19.515-3.002 28.516.867.953.71 1.21.55.135-6.97-7.585-6.087-21.002 2.604-27.36l1.752 2.296c-3.827 8.402-5.868 21.506 4.194 22.64 3.605 9.66-.542 21.107-5.172 28.78-4.906 8.84-10.851 16.186-14.563 25.814-1.804 4.017-4.674 15.932-4.523 25.038l-1.082-.011c-.001-3.716.247-8.122.278-10.938.151-13.732.131-12.917.44-13.266.102-.116.39-.237.418-.334.04-.145-.225-.43-.33-.764-.107-.344-.289-.95-.27-1.458.018-.508.495-1.25.404-1.416-2.164-7.578-2.342-21.196-9.329-27.452-3.426-2.942-7.976-3.06-13.87-.647-13.005.023-11.077.691-21.58.092-4.345-7.955-9.614-15.702-15.315-21.447-2.665-2.972-6.37-4.6-9.854-6.754 1.398-2.65 2.983-4.588 4.715-5.846.36-.513.604-1.066 1.069-1.5 35.414 3.403 43.094-30.895 41.478-30.023l-.314.272c-9.682 35.338-44.138 34.05-61.459 18.773 0 0-2.447 2.126-2.455-.207-.007-2.12.767-2.734.767-2.734l48.613-39.642c.889.566 1.846 2.45 2.245 2.239.895-.476 2.215-1.432 2.174-2.002-.031-.437-1.777-3.188-1.777-3.188 13.005-13.465 7.139-19.48 2.964-28.706zM107.18 30.41c.234-.002.455.109.62.369.296.467-.884 3.198-1.614 3.68-.69.455-.74-.074-.241-2.716.146-.774.72-1.33 1.235-1.333zm71.33.047h11.261l.083 43.245c-8.415-11.827-12.677-25.448-11.345-43.245zm-68.308.104c.281-.013.529.065.61.27.29.728-1.362 3.878-3.405 6.49-1.06 1.354-1.595 1.746-1.926 1.423-.279-.616-.27-1.333.705-2.46.805-.928 2.175-3.099 2.74-4.315.243-.712.486-1.357 1.276-1.408zm11.562.154c.328.003.665-.002.76.153 1.965 4.01 5.667 7.627 9.455 9.56.553.313.292 1.1.478 1.652-4.255-.632-9.84-6.66-11.333-11.06-.008-.319.312-.307.64-.305zm6.654-.003c.846.86 2.178 1.9 2.478 2.88.184.603.319 1.294.19 1.619-.74.462-4.414-3.8-4.272-4.298.467-.307 1.054-.372 1.604-.2zm-15.931-.061c.36.014.912-.007.993.265.459 1.859-3.786 9.101-6.882 11.153-1.1.73-1.171.538-1.083-.686.059-.822.138-.756 1.267-1.835 1.613-1.54 3.374-3.915 4.342-6.021 1.243-2.7.939-2.87 1.363-2.876zm2.88.028c.404 0 .78.138.885.317.14.243-.048.638-.18 1.126-1.398 3.958-4.875 9.654-8.959 12.89-1.587 1.224-1.857 1.216-1.972-.048-.067-.735.27-.949 1.017-1.466 3.464-2.402 6.577-6.57 7.894-10.827.257-.83.16-1.574.61-1.826a1.46 1.46 0 0 1 .705-.166zm21.498 6.859c.166.284 1.355 2.142.384 1.442-.399-.326-1.123-1.15-2.276-2.46-2.726-3.095-2.808-2.903-2.754-3.673.027-1.003-.691-2.65.86-2.222 1.524 1.79 2.482 4.678 3.786 6.913zm-12.411-6.797c.309-.006.674.052.979.113 1.795 3.375 6.177 6.338 6.16 6.323 0 0 .11 1.468-.049 1.728-.091.452-6.96-4.766-7.724-7.89.073-.201.325-.269.634-.274zm-4.889.061c1.613 2.963 4.94 9.686 12.76 12.402.562.123 1.16 1.723.73 2.163-4.287-1.243-12.064-5.44-14.705-14.524.258-.241.941-.204 1.215-.04zm-2.1.576c-.267.004 3.693 11.432 14.973 14.84.976.305 1.547.728 1.485 1.305-.078.728-.054.818-1.14.274-3.077-1.607-7.463-2.36-11.127-.498-.571.29-1.151 1.083-.691 1.582.263.254.91.065 1.734-.256 4.264-1.66 10.79-.683 11.943 1.925.819 1.852.958 3.217.511 3.444-.341.173-.92-.45-1.94-1.344-3.244-2.846-7.123-3.638-10.207-.903-.667.592-1.328.49-1.56.733-.227.236.042.768.231 1.287.199.542.207.69.01 1.149-.27.628-.28 1.431-.251 2.03.072 1.457 1.037 2.712 3.812 4.635 2.162 1.497 3.852 2.339 1.22.208-4.54-3.679-5.365-5.177-2.421-3.902 2.939 1.18 7.014-.003 9.9-2.205.982-.016 1.567-.188 2.084.19 2.153 5.052 3.913 11.776 6.774 18.295-3.417 3.86-15.314 13.315-23.797 12.978-7.325-.291-9.91-12.28-11.53-18.904-.546-2.804-1.168-5.657-1.093-9.617 0 0 .133-.106.321-.07 1.229.231 3.34.392 4.414.141 1.949-.455 2.34-.802 2.455-.515.134.338-.678 1.1-2.096 2.072-.617.422-2.412 1.287-2.223 1.414.43.287 2.602-.87 2.966-1.178.568-.482.958-.512 1.23-.246.318.311.383-.02-.667 2.587-1.159 2.874-1.047 3.135 1.21 4.905.786.616 1.503 1.231 1.675 1.5.216.353.363.77.463.903.382.51.148-.311-.08-1.617-.263-.967-1.21-1.927-1.882-2.394-1.233-.857-1.042-1.697-.021-4.616 3.01-8.608 2.242-12.448-1.072-14.318-1.494-.843-5.679-.618-6.997.484-.65.543-.561-.523-.458-.594 7.95-5.465 9.815-10.677 11.843-15.704zm15.345 4.218c2.257 2.239 5.065 5.28 6.756 7.443.929 1.153 1.418 2.336 2.157 3.547.14.22.28.47.18.573-.037.043-.36-.145-.54-.28-1.653-1.246-8.48-9.02-8.48-9.02-.315-1.276-.534-1.712-.073-2.263zm1.35 5.276s5.915 6.459 9.304 9.636c.667 1.4 1.943 3.415 1.91 3.755-.013.15-.723-.397-.723-.397-3.745-3.45-7.204-7.327-10.799-11.002.034.02-.284-1.521-.288-2.143.082-.304.44.032.596.151zm12.832 16.556c.796 1.295 1.377 2.455 1.76 3.216.632 1.206.42 1.24-.137.795-4.233-3.464-7.777-7.682-11.764-11.546-.518-.533-1.551-1.717-1.551-1.717.036.043-1.3-2.785-.46-2.729.655.256 1.086.968 1.51 1.422 2.09 2.239 6.073 6.086 10.642 10.559zm-36.922-9.232c1.745-.052 3.465.4 4.332 1.47.79.974 1.108 2.515.67 2.962-.273.28-1.242-.507-1.242-.507-4.11-2.307-5.527-1.196-7.757-.52-.318.097-.657-.76-.25-1.609.82-1.41 2.894-1.755 4.247-1.796zm25.868 2.184c4.398 4.408 8.865 9.306 13.623 13.097.667.569 1.124.934 1.428 1.24.628 1.245 2.073 4.209 2.073 4.209-5.099-3.565-16.586-15.857-16.459-15.775.115.058-.961-2.249-.665-2.771zm-8.607.73c.803-.008 1.684.244 2.378.52 2.215.879 3.61 1.815 1.315 1.503-3.193-.435-4.285-.458-5.454-.27-2.172.35-2.34.59-2.53.246-.499-.905 1.882-1.976 4.291-2zm-18.127.258c.8-.004 1.67.172 2.521.544 2.709 1.185 3.186 1.956.88 1.585-1.197-.192-3.391-.173-4.962.232-.498.128-1.049.417-1.178.459-.557.178-.71-.238-.473-.937.412-1.207 1.684-1.873 3.212-1.883zm19.61 3.456l.558.041c-.698 3.956-4.65 3.57-5.713.172l.559-.012c2.081 3.25 3.637 1.338 4.595-.2zm2.2.206c1.826-.02 1.708 1.076-.194 1.811-1.457.564-1.621.462-1.088-.629.514-1.049.461-1.173 1.282-1.182zm-18.811.142c.178 3.564-4.788 4.218-5.093.33l.472-.023c1.628 3.057 3.507 1.212 4.094-.307zm2.209.487c.562.383.213.91-1.008 1.655-1.1.685-1.384-.143-.477-1.292.381-.37 1.007-.677 1.485-.363zm8.613-.005c.217-.069.732.895.294 1.126-.262.137-.648-.258-.691-.549-.034-.23.111-.487.397-.577zm14.872.222c3.314 3.651 6.65 7.317 16.408 15.264 0 0 1.379 2.452 1.68 3.41-.238.293-.362.26-1.046-.08-6.364-4.913-12.28-10.888-16.915-16.442-.22-.784-.71-1.54-.127-2.152zm-31.597.364c.376-.012.907.829.615 1.334-.242.19-.618-.104-.78-.336-.163-.229-.158-.65-.058-.837.06-.109.136-.158.223-.16zm32.982 5.057c-.026-.127 15.413 15.52 17.393 15.221.922.543 3.216 4.99 3.216 4.99.066.141.056.402-.317.218-2.61-1.291-13.521-10.345-19.1-17.085-.408-.981-.901-2.229-1.192-3.344zm-18.35 2.298c2.692 1.3 1.533 3.968-1.308 2.271-2.239-1.36-4.014-1.484-4.001-.307.005.497.615 1.137 1.206 1.13 1.107.071 2.11.476 3.197.714 1.697.365 2.966-.086 3.39-1.116.722-1.747-.992-3.655-2.122-3.553-1.13.101-.845.642-.362.86zm21.316 4.277c-.188-.165 7.677 8.452 18.4 15.571.416.48 1.452 2.966 1.618 3.302-.043.234-.28.004-.28.004-5.415-3.13-12.563-9.339-19.336-16.385 0 0-.651-1.562-.851-2.577.147-.068.307.02.45.085zm-17.865 3.103c-.245.033-.571.402-.975.624-.824.454-1.085.575-3.112-.033-1.1-.33-1.278-.307-1.935.18-.574.424-.892.495-1.532.208-1.152-.517-1.686-.141-2.753.231-1.016.368-1.365-.08-2.28-.288-.12.001-.173 3.69-.052 3.808.042.04.951-.556 1.466-.819.887-.45.76-.38 2.053-.326 1.91.33 3.801.218 5.08-.284 1.592-.45 2.836-.366 3.936.535.667.547 1.553.457 1.036-.549-.18-.348-.584-1.628-.535-2.105.073-.712-.085-1.168-.35-1.182-.016-.001-.03-.003-.047 0zm20.396 2.875c3.62 3.472 8.084 8.77 18.584 14.91.547.958 1.287 2.232 1.755 3.225.043.276-.025.521-.293.426-6.489-4.113-10.096-6.111-19.09-14.975-.56-.899-1.155-2.429-1.618-3.675.097-.352.513 0 .662.09zm-1.528 1.325l4.016 7.54-13.523-.029c3.436-2.048 6.717-4.778 9.507-7.511zm-22.416.17c-2.22.883-2.556 1.066-4.758.53-1.283-.313-.931.431-.275.739 1.662.778 4.069.229 4.961-.387.589-.379.992-1.247.072-.882zm-2.28 2.327c-2.325.033-4.519.844-4.682 1.788-.032.183.158.388.52.17 1.576-.948 5.488-1.258 8.448-.189.48.173.562-.124.066-.534-1.107-.914-2.76-1.257-4.352-1.235zm29.516 3.222c4.377 4.04 8.602 7.756 18.023 13.164.678 1.48 1.66 3.25 1.832 3.404-8.83-4.286-18.452-12.743-18.452-12.743s-1.514-2.698-1.862-3.854c-.031-.39.335-.069.459.029zm3.014 6.293s8.06 6.817 17.25 11.444c.372.358 1.297 2.551 1.598 2.786.305.238-.364.237-1.026-.104-4.81-2.215-15.122-9.304-15.122-9.304-.99-1.621-2.406-3.308-2.7-4.822zm-96.459 28.485c.737-1.576 1.49-3.33 1.977-4.76 2.194.022 3.273-.8 4.051-1.79 1.112-.031 1.963-.027 3.477-.07-.05-1.498.02-3.617.02-3.617 1.535-1.58 2.576-3.406.196-6.2 0 0-.096-1.302-.13-3.522-1.097-.175-3.557-.062-3.557-.062-1.988-2.798-5.514-2.092-6.583-.001 0 0-1.585.087-2.672.091-.023.592-.21 3.215-.21 3.215s-4.635 3.16.173 6.885l-.065 3.13c.9.072 1.545.012 2.72.237 0 0-1.84 4.271-3.05 6.298-.413.11-.315-.129-.815-1.545-.602-1.67-1.962-3.495-3.116-4.394-1.565-1.207-3.706-1.581-5.199-2.63-1.44-1.01-2.456-2.314-2.913-2.072-.15.508-.315 3.424.227 5.298.763 3.083 5.198 5.048 8.902 6.523.284.184.538.462.539.563.005.51-.487.353-1.703.232-1.836-.184-2.596.319-3.24 1.887-.193.387-.65 1.053-1.022 1.494-.371.442-.76.872-.813 1.06-.054.188-.436 1.14-.814 1.935-.232.49-.62 1.002-.648 1.726-.086 2.21-.12 5.177.213 7.048.244 1.374 1.98 2.163 2.578 2.275.918.171 1.085 1.102.941 1.864-.707 3.755-2.87 6.053-3.562 4.82-.182-.325-.374-1.86-.425-1.84-.033.012-.363 1.305-.237 1.83.135.566.858.982 1.57.724 1.057-.383 1.889-1.43 2.545-3.813.269-.974.523-1.518.98-1.589.835.058 2.137 1.779 2.137 1.779-4.337 3.614-12.686 10.176-12.686 10.176l-.312-118.4 68.726.133c.383 9.386-.757 17.283-4.127 25.646-3.995 9.007-10.194 15.702-14.937 23.992-5.727 10.009-7.56 20.391-5.61 30.834-5.85 7.66-10.78 11.336-15.46 14.894 0 0-3.509-3.689-5.458-5.753 0 0 .822-.068 1.784-.107 4.446-.498 9.258-1.128 11.116-5.756.265-.515.153-.743-.161-.814-3.48.483-6.505-.007-8.48.133-4.827.34-6.867 2.014-6.867 2.014zm.53 3.408s-5.586-2.655-6-2.73c-2.435-.441-8.307-3.501-9.3-5.581-.129-.272-.453-4.067-.557-4.844.035-.248.134-.24.378-.062.627.433 3.06 2.019 3.959 2.455 3.71 1.803 5.146 3.087 6.054 5.8.228.679.466 1.386.601 1.532.297.32.423.294.795.01 1.59-2.058 2.334-3.771 3.07-5.98.095-.245.302-.497.18-.854-.29-.974-1.003-2.237-.274-3.191-2.325.106-4.55-1.592-4.266-3.294.62-3.153 1.958-2.585 4.464-3.044-.29-7.291 6.535-5.52 6.518-.442 7.497.631 3.955 7.565-.4 6.504 1.727 3.94-3.462 5.417-4.191 4.747-.293 1.273-2.27 5.373-2.69 6.592 5.555-3.938 14.494-2.19 15.789-2.443-3.228 6.75-13.78 5.107-14.13 4.825zm100.034-24.852c1.41 1.086 13.373 8.567 15.58 8.736 0 0 1.057 1.186 1.93 2.266.813 1.005 1.113 1.163 1.206 1.367.094.201-.306.191-.373.184-5.382-2.34-10.857-4.8-15.51-8.689-.628-.533-.77-.776-1.079-1.183-.41-.542-1.627-2.48-1.754-2.681zm3.964 6.034c5.471 3.075 10.122 6.056 15.107 7.659.711.267 1.074.285 1.429.535.354.25 1.873 1.19 2.232 1.4 2.275 1.334 2.508 1.27 1.944 1.494-.624.248-4.619-.918-7.993-2.166-5.987-2.213-8.104-3.469-10.27-5.42-.487-.506-2.762-3.226-2.449-3.502zM50.08 117.41c.462-.01 1.2.276 1.968.865.822.63 2.842 1.95 3.675 2.308.427.183.56.23.56.23l5.38 6.108-13.852 11.26s-1.125-1.15-1.483-1.534c-.338-.364-.24-.667.181-1.079.339-.33.364-1.048.308-1.4-.085-.522-.071-1.111.59-1.599.535-.393.618-1.081.592-1.272-.02-.153.29-.656.752-.993.972-.71 1.265-1.572.937-2.588-.138-.425-.212-.536.345-.908.99-.66 1.236-1.283 1.31-2.247.012-.152-.029-.314-.052-.435-.195-1.024.71-.765 1.452.52.405.701.52 1.852.724 3.16.24 1.543.403 1.963.487 1.746.48-1.246-.086-5.922-1.509-6.556-2.08-.928-3.817-2.82-3.296-3.562.18-.257.212-.17 1.48.416.742.343 1.43.621 1.533.625 1.467.046.577-.582.099-.648-.574-.08-2.291-1.124-2.493-1.49-.335-.61-.15-.917.312-.927zm-3.542.804c1.353-.015 1.613.347 1.627 1.513.008.688.265 1.217 1.343 2.588.44.558.733.987.705 1.206-.048.361-.178-.013-1.67-.19-.53-.062-.799-.07-.984.204-.513.762-1.601-.032-2.27-1.154-1.596-2.676-1.033-4.142 1.249-4.167zm25.79 1.613l14.728 18.024-1.661 1.29-14.783-17.78zm-2.462 1.106l1.578 2.664s-4.564 3.899-5.764 5a22276.443 22276.443 0 0 0-31.581 25.673l-.295-3.585zm-26.583.483c.288.007.617.371 1.083 1.083.405.617 1.271 1.855 2.195 2.706 1.795 1.653 1.968 1.503.511 1.66-.579.062-.768-.007-1.121.875-1.069 1.333-4.226-3.442-3.486-5.27.289-.713.53-1.061.818-1.054zm5.137 2.578c.266-.013.617.087 1.027.336.781.32.833.507.704 1.253-.123.714-.667.899-1.736-.043-.812-.765-.675-1.514.005-1.546zm23.506.441l1.73 2.234L34.38 158.43l.01-3.655c.957.123 26.143-21.762 37.536-30.34zm-30.46.363c.106-.022.27.338.706.993.887 1.334 1.7 2.214 2.63 2.914.877.662.976 1.031.373 1.036-.257.002-.61.273-.794.591-.372.64-.405.488-.98.151-.82-.48-1.644-1.205-1.972-2.157-.31-.896-.343-2.26-.09-3.254.044-.173.08-.264.128-.274zm6.202 2.535c1.001-.035 1.721 1.13 1.06 2.072-.368.359-.7.531-1.434.1-.967-.57-1.142-1.448-.35-1.94.247-.153.493-.224.724-.232zm-6.442 2.521c.21-.01.59.294 1.225.946.488.5 1.335.927 1.674 1.117.761.424.797.572.383.912-.176.146-.755.155-.913.615-.45 1.317-2.358-.213-2.54-2.095-.092-.956-.1-1.482.17-1.495zm4.796.156c1.253.053 1.845 1.514.847 2.233-.544.392-1.916-.3-2.053-1.017-.089-.462.73-1.235 1.206-1.216zm29.288 1.087a1.315 1.315 0 1 1 0 2.629 1.315 1.315 0 0 1 0-2.63zm-3.931.544a1.315 1.315 0 1 1 0 2.629 1.315 1.315 0 0 1 0-2.63zm-26.34 1.756c.079-.004.163-.004.25 0 1.206.059 1.27 1.208.553 1.826-.429.37-.817.486-1.372.042-.99-.792-.624-1.8.568-1.868zm29.268 1.924a1.315 1.315 0 1 1 0 2.63c-.727 0-1.32-.589-1.32-1.315 0-.727.593-1.315 1.32-1.315zm115.447.077l.062 3.325-46.44 38.63-1.572-2.051zm-118.116.284l-3.433 7.71-1.032-1.988-2.567-.001.788-2.3-1.512-1.84zm73.08 32.066l6.112-4.899c-2.63-13.273 7.87-18.554 17.842-14.698l6.205-5.289c-11.513-9.694-38.586-3.118-30.158 24.886zm-82.671-25.942a1.315 1.315 0 1 1 0 2.63 1.315 1.315 0 0 1 0-2.63zm-3.993.322c.727 0 1.274.547 1.274 1.273 0 .727-.547 1.362-1.274 1.362a1.319 1.319 0 0 1-1.314-1.32c0-.727.588-1.315 1.314-1.315zm21.248 2.67l-6.059 4.85c1.566 12.709-4.616 19.18-17.907 14.824l-6.428 5.099c17.366 11.944 40.092-3.453 30.394-24.773zm-18.646 1.147a1.315 1.315 0 1 1 0 2.63 1.315 1.315 0 0 1 0-2.63zm127.447.333c.727 0 1.32.589 1.32 1.315a1.319 1.319 0 0 1-2.635 0c0-.726.589-1.315 1.315-1.315zm-130.168.315l-3.873 7.662-.965-2.307-2.6.036.84-2.675-1.627-1.374zm124.966.806l1.204 2.028 2.543.061-.957 1.93 1.837 1.892-8.285 2.036zm-134.208 5.565c.726 0 1.32.588 1.32 1.315 0 .726-.594 1.315-1.32 1.315a1.315 1.315 0 1 1 0-2.63zm-3.784.146c.726 0 1.32.589 1.32 1.315 0 .727-.594 1.315-1.32 1.315a1.315 1.315 0 1 1 0-2.63zm131.586.782a1.315 1.315 0 1 1 0 2.63 1.315 1.315 0 0 1 0-2.63zm13.302.204l.057 2.92c-12.117 10.695-37.597 31.336-37.597 31.336l-1.586-2.036s25.924-21.183 39.126-32.22zm-142.253 2.848a1.319 1.319 0 0 1 0 2.635 1.319 1.319 0 0 1 0-2.635zm131.642.316a1.319 1.319 0 0 1 0 2.635 1.319 1.319 0 0 1-1.315-1.32c0-.727.589-1.315 1.315-1.315zm-3.722.236a1.319 1.319 0 0 1 0 2.635c-.727 0-1.32-.593-1.32-1.32 0-.726.593-1.315 1.32-1.315zm14.699.466l-.11 3.717c-11.742 10.01-35.759 29.894-35.675 29.906l-1.815-2.505s26.327-22.677 37.6-31.118zm-145.033-.546l-3.622 8.172-1.564-2.2-2.286-.156.544-2.21-2.1-1.428zm125.607 3.228l2.313-.44-.404 2.368 1.625 1.706-8.52 1.872 4.119-7.637zm12.729 39.813c1.727 2.584 1.618 5.406.895 5.839-.763-.43-1.425-1.175-2.213-1.515-3.97-1.712-7.139-3.117-7.706-5.635-2.162-5.697 7.584-.838 9.024 1.311zm-20.862-15.132l13.355-10.872s2.047 1.055 2.434 1.534c.138.528-.231.69-.775 1.18-.25.321-.407.629-.421 1.322-.015.746.231 1.08-.07 1.41-.504-.027-.906.63-.884 1.163.016.406-.515.856-.827 1.162-.552.543-.714.656-1.069 2.496-.035.184-.023.663-.282.911-.772.07-1.332 1.96-1.684 2.08-.564-.037-1.46-.726-1.678-1.743-.142-.662-.104-1.946.053-2.774.186-.985.27-1.877.208-2.114-.144-.548-.507-.211-.502.558.003.313-.118 1.25-.317 2.134-.198.885-.738 2.061-.495 2.759.362 1.041 1.695 1.481 2.296 2.032 1.581 1.45 1.925 2.157 2.105 2.479 1.264 2.31 1.268 2.705.951 4.444-.182 1-1.158.83-1.745.423 0 0-3.755-2.732-5.389-4.09-2.476-2.056-4.214-4.157-5.264-6.494zm5.068 7.472c1.432.58 5.161 3.286 5.161 3.286l-3.396 7.066c.618 1.107.867 3.855.867 3.855 4.296-.33 6.623 6.912-.068 6.243.764 4.476-6.446 7.983-6.25-.038-7.51.584-4.987-7.924-.36-6.328-.138-3.605 2.265-4.072 3.96-4.957 1.39-1.573 2.243-5.132 2.243-5.132l-.338-1.086c-1.425 2.488-7.489 3.202-14.153 1.883 1.804-4.275 7.277-4.154 12.334-4.792zm-13.252 5.38c-.226.85-.232.841.795.737.52-.053 2.609-.048 4.066.01 2.681.208 6.902.227 9.019-1.386.41-.39.635-.364.711-.15.181 1.041-1.875 4.468-1.875 4.468l-3.393 1.876s-1.389.065-3.11.023l-.03 3.053c-1.348.797-3.661 4.213.057 6.832l-.123 3.324 3.278.06c2.175 2.082 3.946 2.073 5.943.112l3.779.003-.015-3.59c1.863-1.498 2.128-4.04.224-6.07l-.047-3.643-2.908.018s-.602-.465-.618-.836c-.003-.239 2.123-4.334 2.53-4.918.528-.76.385-.326 1.23 1.429 1.21 2.511 2.407 3.535 5.474 5.017 2.737 1.324 3.715 1.941 4.508 2.699.632.603 1.005.413 1.25-.487.527-2.003.364-4.007-.738-5.84-2.328-3.869-6.383-4.047-7.027-4.942-.085-.214.74-.46 1.628-.857 1.535-.932 3.781-3.753 4.07-4.885-.053-.546.308-2.264.573-2.645.306-.675.34-.99.327-2.805-.275-1.035-.025-2.383.104-2.847.139-.941-.361-2.05-1.072-3.412-.266-1.264-.204-.935.614-3.784.133-.46 1.053-4.428-.124-4.7.015.035.123.157.156.222.198.398.307 2.112.128 2.597-.071.192-.205.69-.298 1.107-.713 3.188-1.135 3.988-1.78 3.29-.153-.165-.742-.402-1.195-.703-.856-.568-.783-.847-.573-1.91.052-.162.391-1.625.355-1.58-.185.502-.31 1.8-.894 2.104-.313.073-.746-.206-1.56-.908a17.294 17.294 0 0 0-.979-.736s9.652-8.123 13.24-10.816l-.032 120.31-68.219.029c-.853-7.453 1.388-17.312 5.099-27.187 2.293-6.104 5.587-10.631 9.302-16.095 7.122-10.417 12.51-20.995 10.432-34.405-.27-1.99-.545-2.943-.45-3.479.864-1.624 4.298-6.548 6.808-8.599 3.684-3.008 8.809-7.503 9.22-7.237 1.223 2.36 2.671 4.27 4.588 5.71.338.367.347.689-.432.852-5.084-.046-10.318 1.071-12.016 5.57zM35.96 163.995a1.315 1.315 0 1 1 0 2.629 1.315 1.315 0 0 1 0-2.63zm127.53.298a1.315 1.315 0 1 1 .001 2.629 1.315 1.315 0 0 1 0-2.63zm2.865 3.607a1.315 1.315 0 1 1 .001 2.63 1.315 1.315 0 0 1 0-2.63zm-4.255.56a1.315 1.315 0 1 1 0 2.63 1.315 1.315 0 0 1 0-2.63zm-4.7 2.997l2.379-.118c-.298.854-.458 1.736-.628 2.621l1.937 1.423-8.378 1.425 3.61-7.424zm-5.715 21.652l-14.11-18.219 1.702-1.376 14.224 18.02zm-1.723-17.7a1.315 1.315 0 1 1 0 2.629 1.315 1.315 0 0 1 0-2.63zm29.635 2.04c1.144.89 0 2.137-1.093 1.645-.949-.4-.877-1.363-.13-1.748.466-.221.822-.167 1.223.103zm1.522.848c1.174.019 2.47 2.8 2.232 3.618-.35.95-.67.985-2.326-.416-1.636-1.383-1.66-1.441-.998-2.19.367-.425.543-.985 1.092-1.012zm-27.908.508c.727 0 1.315.588 1.315 1.315 0 .726-.588 1.319-1.315 1.32a1.319 1.319 0 0 1-1.315-1.32c0-.727.589-1.315 1.315-1.315zm-4.077.506a1.314 1.314 0 1 1 .001 2.628 1.314 1.314 0 0 1-.001-2.628zm28.883.938c1.298.192 1.638 1.172 1.041 1.901-.811.987-2.63.09-2.2-1.083.196-.533.67-.808 1.16-.818zm2.328 1.48c.509-.043 1.274.66 2.112 1.824.94 1.31 1.017 1.732.75 2.53-.388 1.165-.631 1.378-1.476.243-.32-.427-1.059-1.43-1.587-1.983-1.127-1.18-1.303-.88-.63-1.782.311-.417.526-.806.831-.832zm-3.05 1.376c1.165.602 1.277 1.386.589 1.94-.811.443-2.242-.082-2.52-.885-.405-1.174.84-1.77 1.93-1.055zm1.975 1.734c.66-.042 1.203.639 2.01 1.941 1.373 2.217 1.448 2.964.277 4.426-.842 1.052-.928 1.108-1.752-.568-.674-1.37-1.954-2.974-3.14-3.936-.496-.401-.67-.964-.313-1.002.104-.011.543-.032.974-.048.634-.023.864-.109 1.211-.449.23-.225.476-.348.733-.364zm-4.733 1.73c.613-.03 1.406.303 1.996.989.668.703.589 1.346-.724 1.475-.591.232-2.201-.824-2.209-1.532-.007-.595.395-.906.937-.932zm3.094 2.572a.896.896 0 0 1 .095 0c.551.026.836.558 1.456 1.802.951 1.91.677 2.949-.968 3.793-1.115.574-1.967.745-2.11.09-.042-.19-.043-.74-.135-1.275-.123-.712-.286-1.453-.916-2.402-1.005-1.515-1.183-2.052-.08-1.606.584.236 1.219.208 1.887-.142.295-.155.545-.248.771-.26zm-5.577 3.07c-.382-.008-.628.226-.525.851.347.171.896.012 1.31.161.559.201.904 1.109 1.5.96.062-.764-1.443-1.954-2.285-1.972zM58.208 205.523c-3.074-1.464-10.689-4.853-14.358-4.902-6.802-1.91-7.259-1.042-9.644-1.653 12.626-3.275 21.317 3.02 24.499 6.08 1.444 1.439.658 1.026-.497.475zm8.04 29.765c7.225 12.533 13.96 26.67 25.257 47.602l-1.085.34-43.084.077c2.134-23.126-10.363-45.159-11.208-44.295 9.76.18 17.86-1.702 19.571-5.299l-1.391-.398c-5.68 4.901-13.908 5.127-19.584 3.612.129-12.05-.55-24.776-.174-36.822 6.71-.5 11.956 1.962 15.675 6.864 6.253 8.243 10.493 18.725 16.024 28.32zM46.49 201.902c1.728-.132 11.158 3.748 15.377 6.646 1.172 1.212 2.883 3.318 2.885 3.524.007.56-.825-.13-4.9-2.455-3.084-1.734-6.283-3.118-9.398-4.448a2063.3 2063.3 0 0 0-.428-.183s-.23-.265-.626-.572c-1.11-.858-3.265-2.38-2.91-2.512zm4.584 4.395c-.093-.018 9.353 3.403 16.87 9.389 1 .796 2.226 3.765 2.226 3.765-.67-1.262-12.543-8.365-16.71-9.992-.006-.006-2.386-3.162-2.386-3.162zm3.33 4.542c.516-.309 14.33 7.846 16.356 9.95.917.702 3.067 4.11 3.074 4.797.007.61-.664.083-1.901-1.06-6.362-5.94-15.554-10.418-15.628-10.32zm2.564 4.738c6.488 2.745 14.636 9.344 18.749 13.273 1.028 1.017 1.762 2.492 1.901 3.178.087.426-.128.397-.213.625-5.33-6.118-17.043-13.1-18.597-13.647.012.387-1.288-2.371-1.84-3.429zm21.54 19.062c.746.761 1.929 3.43 1.664 3.756-.13.16-.117.076-.43-.142-1.705-1.697-10.466-9.47-17.775-13.83-.687-.343-2.988-3.972-2.5-4.042 3.82 1.247 14.749 9.972 19.04 14.258zM62.7 225.964c.126.01.355.172.747.388 6.722 3.708 16.466 13.045 18.313 15.29.42.69 1.082 1.959 1.033 2.736-.084.612-.328.092-3.046-2.582-4.367-4.277-9.391-8.416-14.715-11.892-1.024-.703-.828-.793-1.57-2.086-.746-1.296-1.04-1.874-.762-1.854zm42.99.142c4.8.137 6.677 3.77 9.633 10.468 2.42 6.599 3.423 12.645 3.534 17.458.007.324-.58.049-.847-.023-1.285-.345-2.885-.668-4.74-.199-1.362.344-2.656.305-1.258-.61.451-.295 1.673-1.426 2.323-1.83 1.316-.82.516-.81-.79-.166-.989.487-1.65 1.104-2.058 1.201-.252.06-.095-.768.147-1.362 1.396-3.433 1.818-5.465-.26-6.102-.563-.172-1.321-.693-1.68-1.04-.285-.278-.529-1.389-.62-1.434-.095-.047-.162 1.012-.16 1.173.006.552.714 1.67 1.566 2.28 1.446 1.037 1.731 1.324.946 3.78-1.101 3.44-1.336 4.282-1.538 5.08-.116.459-.34 1.24-.454 1.745-.436 1.95-.383 3.653-.302 5.274.475 3.62 4.378 5.407 9.617 3.396.496-.193.702-.019.702-.019-4.173 4.244-8.857 6.957-11.587 15.531-3.51-7.074-8.482-12.616-16.749-14.838l-.121-1.477c2.883 1.382 8.473 3.262 12.02 1.149 1.9-1.298 1.323-2.134-.983-1.24-2.745 1.066-7.703.942-10.179-.454-.504-.284-1.018-.038-1.163.01-.13-.832-1.32-3.965-1.145-5.144-.103-.164.753-.172.918.047.685.914 4.163 3.637 7.776 3.424 1.797-.105 3.274-.65 4.835-2.297.13-.116.765-.2.852-.297.139-.156.038-.39.033-.473-.04-.125-.273-.469-.426-.856a1.53 1.53 0 0 1-.209-.963c.005-.226.155-.346.272-.504.135-.303.098-.688.023-.893a.547.547 0 0 1-.11-.809c.489-.553-4.207-4.84-5.127-4.83-.332.005-.136.616.54 1.065 2.386 1.585 4.126 3.655 3.731 3.926-.304.208-1.373-.248-2.461-.505-2.185-.512-4.807-.838-7.652 1.214-1.064.874-3.877 1.006-3.877 1.006-.036-1.533-6.511-18.644-6.524-17.9 2.356-2.746 9.758-9.25 17.176-12.052 2.281-.748 4.732-1.13 6.377-.91zm-28.12 3.83l13.464.208c-3.385 1.703-9.536 7.816-9.536 7.816-1.76-3.54-2.297-5.307-3.928-8.024zm-11.64 1.775c1.004.006 11.691 8.714 13.211 10.77.183.248 1.266 1.391 2.408 2.536 2.764 2.77 3.904 4.372 3.916 5.515.006.54-.487.189-1.225-.624-5.535-6.15-9.137-9.49-15.978-14.205-.776-.415-3.188-3.625-2.37-3.982.011-.005.022-.01.038-.01zm36.557 1.604c-.301-.01-.252.278-.088.544 1.696 1.5 6.173 1.433 7.717.222 1.4-1.1-.436-.52-1.007-.274-1.338.573-2.773.509-4.636.014-1.086-.289-1.686-.496-1.986-.506zm4.129 2.44c-1.566.015-3.203.485-2.838 1.06.133.21.561.603 1.585.047 1.477-.73 4.512.228 4.602.251.31.081-1.009-.869-1.452-1.064-.488-.215-1.185-.3-1.897-.294zm-37.73 1.628c5.744 3.513 12.74 10.545 16.939 15.566.699.865 1.204 1.929 1.21 2.554.01.902-.182.403-3.996-3.462-2.991-3.06-7.506-7.226-10.496-9.47-1.796-1.308-2.116-1.479-2.961-3.031-.793-1.457-1.08-2.18-.695-2.157zm35.781 1.173c-1.08.513-2.512.403-3.907-.076-1.263-.434-.967-.063-.487 1.315.218.627.353 1.515.355 1.646.004.306.003.328.894-.17.776-.435.94-.584 2.597-.199 1.683.392 1.71.247 2.502-.165.69-.36.832-.575 1.304-.385.923.371 1.968.53 3.15-.093.908-.477 1.204-.155 1.624.057.57.286.79.104.567-.464-.088-.226-.255-1.197-.26-1.504-.009-.583-.152-1.107-.397-.984-.905.455-1.64.94-2.504.923-1.583-.028-2.972-.98-5.438.099zm-69.988 1.198c14.315 17.833 11.785 43.541 11.308 43.332l-11.219.05zm37.246 3.604c5.717 4.01 12.522 10.998 16.293 15.83.642.835.12 1.098.44 2.105.118.374-.515-.178-2.332-2.128-2.263-2.431-5.984-6.086-8.433-8.207-2.684-2.324-3.46-2.908-4.03-3.694-.451-.656-2.29-3.814-1.938-3.906zm32.179 1.64c-.061-.001-.121.002-.18.005-2.035.095-3.069 2.376-1.325 3.987.656.606 1.697.964 1.694.639-.002-.078-.329-.406-.558-.582-1.453-1.117-1.304-2.858.35-2.876.573-.006.609.198 1.934 1.15 1.56 1.118 3.4 1.12 3.378-.005-.017-.827-.325-1.674-1.717-1.538-.366.037-.854.076-1.282-.033-.41-.103-.76-.354-.923-.425a3.521 3.521 0 0 0-1.371-.322zm-28.463 5.25c4.374 2.937 10.386 9.578 13.459 13.494.704.918.75 1.933.466 2.48-.067.107-.605-.227-.605-.227-3.553-4.184-7.582-7.987-11.537-11.85 0 0-2.349-3.778-1.783-3.897zm42.406 6.353l-.945.47c-1.432-2.147-2.742-2.176-3.839.331l-.703-.177c-.524-.578 1.885-6.03 5.487-.624zm-.212-1.83c.394.013 1.084.226 1.244.628.18.371-.022.79-.563.771-.082-.002-.605-.644-.865-1.037-.193-.24-.11-.37.184-.363zm-16.065 2.625l-1.058.05c-2.014-2.648-3.52-.871-4.423.233l-1.133-.153c.181-2.908 5.32-3.92 6.614-.13zm10.29-2.26c.159.003.316.033.463.09-.417.632-.488 1.16-.582 1.731-.41.17-.997.525-1.433.071-.81-.736.437-1.913 1.552-1.892zm-16.522.297c.5.002.35-.031.133.247a5.039 5.039 0 0 0-.678 1.235c-.068.313-.12.426-.413.436-.559.018-1.691-.181-1.684-.173-.43-.407 1.35-1.702 2.642-1.745zm6.398.37c.334-.04.255.436.149.623-.211.248-.295.33-.413.02a1.318 1.318 0 0 0-.216-.357c-.164-.211-.145-.222.058-.258.092-.016.305-.026.422-.028zm17.285 2.113c1.232-.032.408 2.058-1.306 2.563-1.892.96-4.063.73-6.272-.53-1.26-.718-1.641-1.475-.544-1.172 4.136 1.139 5.142.928 7.637-.686.148-.127.306-.158.485-.175zm-39.796-.453c4.118 3.489 7.218 7.44 10.51 11.081.657.812.964 1.594.838 2.124-.158.66-1.51-.913-1.51-.913.035.015-8.037-8.6-8.037-8.6s-2.049-3.673-1.8-3.692zm12.306 1.205c.286.01.853.142 1.769.378 3.96 1.201 5.16 1.157 7.436.111 1.45-.666 2.05-.57 1.43.432-1.144 1.843-5.18 2.047-8.209 1.018-.802-.272-1.507-.75-2.28-1.329-.414-.431-.514-.622-.146-.61zm18.267 1.221c.237-.015.679.257 1.217.562 3.318 1.882 5.767 1.536 7.812.274.37-.337.57-.175.62.152.174 1.146.225 1.97-.298 2.52-.305.322-.823.467-1.604.73-3.213 1.08-7.123.308-7.871-2.102-.244-1.24-.398-2.102.124-2.136zm-26.33 5.17a.132.132 0 0 1 .038 0c.232.034.768.503 1.613 1.46 4.416 5.01 6.86 7.889 6.414 9.338-.041 0-.07.312-.256.151-2.429-2.097-4.412-4.39-5.889-6.787-1.618-2.627-2.283-4.131-1.92-4.163zm35.605 3.524c-3.727 2.85-8.248 9.632-8.653 12.974-.078.638-.01 1.117-.246 1.348-.188.183-.61.2-1.173.09-.346-.064-.263-.102-.345-.492-.32-1.53 1.144-5.378 4.176-9.915 1.59-2.38 5.204-5.594 6.214-5.615.673.278.019 1.64.027 1.61zm-27.597-1.548c.263-.007.67.13 1.24.374 3.345 1.435 4.593 1.957 6.758 3.723 4.036 3.29 8.521 11.103 7.204 11.834-.578.321-.988.119-1.223-.607a18.097 18.097 0 0 0-.971-2.155c-2.705-4.971-6.223-8.39-11.182-10.808-1.832-.893-2.018-.795-2.157-1.542-.105-.562-.007-.81.33-.819zm27.543 2.871c.335-.028.416.584.302 1.815-.093 1.003-.153.983-1.272 2.159-1.788 1.447-3.902 4.848-4.881 8.31a.831.831 0 0 1-.26.53c-.46.395-1.04.202-1.438.194-.286-.152-.207-.778-.156-1.13.818-3.144 2.831-7.005 5.988-10.397.888-.954 1.421-1.456 1.717-1.48zm-26.848.09c1.772-.04 8.067 4.663 10.615 8.78 1.665 2.69 2.114 3.794 1.73 4.185-.202.208-1.097.24-1.565.057-.426-.167-.589-.815-1.386-2.313-2.08-3.907-5.076-6.74-8.32-8.235-.604-.278-.927-.454-1.122-.67-.217-.448-.496-1.71.048-1.804zm.956 3.496c.55.103 2.072 1.09 3.344 2.024 2.25 1.652 5.674 6.699 4.966 7.422-.227.232-1.013.24-1.417.082-2.409-4.288-5.536-6.33-6.806-7.521-.385-.647-1.284-2.174-.087-2.007zm-5.005.757c.105-.027.526.388 1.292 1.192 2.26 2.373 3.694 5.004 3.363 6.333-.28 1.124-.61.509-3.198-4.427-1.089-2.078-1.609-3.06-1.457-3.098zm30.93.066c.052 1.365-.059 1.702-.203 2.426-.099.494-.425.723-.733 1.107-.769.958-1.642 2.613-2.082 3.95-.37 1.079-.195 1.337-1.523 1.192-.619-.081-.47-.248-.227-.96.836-2.34 2.843-6.13 4.768-7.715zm-25.695 2.573c.028-.7 6.066 5.377 5.236 6.06-.785.138-1.254.167-1.582-.113-.645-1.446-3.52-4.187-3.52-4.187zm25.36 1.916a.082.082 0 0 1 .037 0c.27.055.12 3.792-.104 4.1-.43.218-1.244.237-1.679 0-.266-.143-.346-.41-.246-.7.25-.723 1.559-3.311 1.991-3.4zm-22.788 4.11c-.19.297-1.366.35-1.809.014-.142-.107-.28-1.96-.115-2.297.45-.293 2.073 1.883 1.924 2.283z" fill="#131f67"/><path d="M17.77 13.917c-4.694.09-7.022 4.019-7.045 7.953l.004 10.319H7.927v3.424h2.802s.048 1.566.04 2.503c-.039 4.636 1.599 7.448 4.796 8.225 3.068.559 4.667-.102 7-1.31.849.353 1.442 1.08 2.35 1.172 1.003.101 3.095.053 3.095.053l-.057-3.514-1.046-.152c-1.998-.035-2.866-.734-2.65-1.983.425-.815.486-1.406.527-2.389V20.765c-.063-4.279-3.559-6.81-7.015-6.848zm-.147 3.4c2.24-.034 4.103 2.575 4.053 5.246l.034 13.483c.074.849-.063 1.677-.436 2.26-.293-.862-4.928-5.598-7.246-5.379 0 0-.095.24-.16-5.685-.03-2.91-.794-7.253 1.82-9.215.653-.48 1.307-.7 1.935-.71zm121.453 11.684l.757.993-4.422.024c.723.61 17.11 33.586 38.062 71.684 3.469 6.686 10.085 9.097 17.766 9.39l-20.348-32.77c2.167-1.181 6.47-4.341 9.073-3.755.161.8.934.482.945-.228l.941.019.331.515h3.955l.323-.467 3.409.49c-9.11-11.228-13.915-28.531-12.355-45.422l-30.211.066-.402-.53zm-3.665 1.017c-.017-.014-.03-.021-.029 0zm-34.733 21.98C97.243 63.09 88.75 72.217 83.706 81.406c-5.406 10.027-6.677 18.752-5.155 28.296l.988.085c11.526-15.723 20.452-34.507 25.448-52.98.109-.402-.078-1.113.014-1.52-.213-.489-.027-1.017.109-1.159.29-.305.183-1.504-.033-3.486-.544-5.887-.437-10.507.055-15.843.378-4.096.357-4.74.357-4.74l-1.973-.03c.364 6.972-.557 15.564-2.838 21.97zm47.447-21.497l3.242.066c.5 9.909 8.845 11.197 10.136 11.053-2.131 6.7 1.396 14.053 9.89 15.097-1.948 6.212 1.5 14.4 8.296 14.178l.719.454c-.439.895-.532 2.734-.506 2.763-1.511.11-2.33.33-3.312.525-8.782-13.242-28.465-44.136-28.465-44.136zm28.815 0c-.981 11.068 1.24 26.27 6.438 35.253 0 0-.165.602-.274.766-.496.746-.74.1-1.04-.501-1.108-2.046-3.2-2.364-4.116-1.226-2.023 2.758.17 3.846 1.873 5.403-6.96-.425-9.28-8.084-7.67-11.873-.037.722.351 1.813.861 2.587 1.956 2.966 4.812.464 3.994-1.883-.339-.971-1.587-2.59-1.587-2.59s1.695-.25 2.388-.669c.646-.401 1.055-1.112.888-2.085-.133-.781-.168-1.123-.586-1.826-.514-.641-1.433-1.085-2.17-1.035-1.436.095-1.611 1.084-2.551 1.76-.234-1.78-1.374-3.134-3.236-2.797-1.416.256-2.436 1.762-1.569 3.648.438.962 1.054 1.255 1.674 2.09-10-1.12-8.91-12.995-7.804-12.782 0 0 .301-.056.212.398-.57 2.906 3.04 4.642 4.621 2.53 1.009-1.712-1.157-4.416-1.157-4.416s1.442-.31 2.097-.687c2.611-1.506-.171-5.832-2.601-4.77-.853.388-1.07 1.179-1.902 1.6-.556-.62-.59-1.296-1.59-1.853-2.741-1.526-4.455 2.086-2.938 3.675.623.644 1.721 1.23 1.506 1.31-8.501-1.074-8.419-9.971-8.224-9.91zm-73.076.074h1.17c-.346 5.278-1.096 12.242-.605 17.389.572 4.917.598 5.614.246 6.102-.483.542-.228.797-.133 1.239.127.808.14.816.024 1.276a107.438 107.438 0 0 1-4.02 12.73c-5.471 15.084-14.397 31.531-21.397 40.157-.005-.03-.32.027-.325-.003-1.915-12.036 2.178-22.069 4.315-26.187 4.332-8.348 11.137-15.474 15.177-24.22 3.439-7.441 5.976-16.386 5.548-28.483zm43.069-.05l28.513 44.339-5.203 2.55-29.18-46.729zm-85.87 4.64c-10.11.149-15.04 12.868-6.574 18.976 1.521 1.098 1.99 1.738 1.575 2.162-.348.356-.817.19-1.575-.563-6.592-6.47-16.765-2.933-17.714 6.036-1.573 14.865 16.923 18.762 21.663 4.611 1.36-4.056 1.939.34.62 4.655-1.098 3.98-3.008 8.062-5.24 11.46a30.838 30.838 0 0 1-.918 1.268h16.243s-.517-.692-1.25-1.546c-2.955-4.399-4.556-9.335-5.075-14.488-.12-1.466-.069-2.579.218-2.763.492-.316.775.08 1.3 1.826 1.082 3.594 3.123 6.531 5.403 7.644 5.509 2.285 10.009 1.592 13.773-3.425 8.144-10.853-5.173-24.261-14.691-15.5-.874.797-1.42.884-1.504.227-.04-.318.205-.622 1.395-1.74 8.18-6.498 4.08-17.634-6.12-18.765a12.629 12.629 0 0 0-1.528-.076zm-41.099 6.782c.206.416-.554.827-1.367 1.053-2.295.639-4.545-.791-4.617-4.08-.022-1.003-.087-2.075.265-2.233 1.054-.474 5.098 4.007 5.72 5.26zm143.68-2.762c.739 0 1.334.6 1.334 1.339a1.336 1.336 0 1 1-2.672 0c0-.739.6-1.34 1.338-1.34zM17.314 50.889c-4.623.011-7.045 6.302-2.643 10.03.772.654 1.07 1.249 1.017 1.391-.12.322-.237.051-1.178-.61-4.138-2.91-9.106-.305-8.67 3.879.624 5.972 7.347 7.387 9.735 1.863.422-.976.624-1.28.851-1.282.208-.002.236.399.137 1.036-.436 2.602-1.7 5.339-3.117 7.535h7.507c-1.54-2.327-2.18-4.622-2.588-7.492-.03-.756.076-1.255.37-1.258.197-.003.31.269.633 1.546 1.198 4.729 8.503 4.48 9.72-.302 1.364-5.358-3.697-9.169-7.851-5.78-.587.478-1.252.826-1.367.491-.034-.095.34-.794 1.002-1.376 4.241-4.142 1.404-9.683-3.558-9.671zM173.1 53.971a1.353 1.353 0 1 1 0 2.706 1.353 1.353 0 0 1 0-2.706zm-67.937 2.64c.487 1.933-9.05 30.932-22.601 49.386l5.917.123.183.653c8.29 12.24 3.105 23.067-3.589 28.096l2.318 3.089-2.086 1.689-2.086-2.484c-16.964 12.725-50.067 40.892-50.067 40.892l.184 4.517 2.583-2.034c16.792 16.254 52.398 15.365 61.736-18.187l2.503.057C94.51 187 71.528 196.625 54.18 192.548l-4.063 5.836 1.088.582c-.2-.31-.384-.419-.09-.705l3.453-4.441c25.952 3.324 41.62-11.365 46.705-31.261l3.31.057c-2.84 16.713-10.674 31.428-21.847 42.944-8.064-.033-22.241-.218-22.241-.218 5.162 5.002 15.022 20.267 15.415 21.815 0 0 10.142.323 21.02.057 3.988-1.794 9.324-2.514 11.816-1.258 4.38 2.207 8.495 10.395 10.345 23.532.477 3.384.909 4.818 1.04 5.5.024.124.321.213.365.19.167-.088-.266.598-.284 1.107-.018.509-.002 1.276.241 1.542.307.337.27.56.227.705-.028.095-.62.643-.62.643-.088 7.653-.045 14.601-.463 24.015l1.504.009c-.01-15.147 4.56-29.162 11.603-38.81 4.282-6.332 8.813-13.156 11.319-19.653 2.82-7.314 3.21-15 1.698-21.484l-1.031.056c-6.195-4.246-8.718-13.31-1.088-19.785l-2.7-3.515c-7.621 5.892-9.371 16.76-1.477 25.755l-3.088-.01c-7.703-9.613-5.997-20.652 2.904-28.53l-1.991-2.531 2.164-1.908 1.954 2.137 49.691-41.518-.035-4.543-3.808 3.088c-22.29-20.607-55.345-6.147-60.192 18.675l-3.03.032c6.353-26.711 29.76-34.26 46.693-30.708l4.179-6.321c-3.074-.864-6.072-2.904-8.902-5.315-1.192-1.016-1.945-1.638-2.812-2.655-8.02-8.475-13.464-20.244-13.72-20.264l-21.806-.054c-3.2 1.582-8.678 3.381-11.684.954-6.455-5.213-8.621-15.73-9.509-22.496-.269-2.107-.497-5.771-.695-6.987-.123-.222-.36-.236-.576-.197zm77.312 11.697a1.323 1.323 0 0 1 0 2.644 1.323 1.323 0 0 1 0-2.644zm2.838 1.556c1.075 1.393 2.03 2.829 2.563 4.347-.5-.016-.972.14-1.529-.295-.13-1.533-.76-2.453-1.555-3.475zm-3.988 1.954c.441.216.79 1.88.483 2.166-.531.113-.893.075-1.072-.11-.267-.44.238-1.971.59-2.056zM94.6 86.282l20.244.024c3.523 2.7 6.965 2.342 11.963.178h22.51l1.272 2.31H93.502c.318-.859 1.098-2.512 1.098-2.512zm-1.67 3.61h58.26l1.471 2.369H91.487zm5.624 3.443h6.537l-2.422 4.11h-6.745zm14.512 0h6.239l-2.777 4.105h-6.182zm20.178 0l-2.625 4.105h-6.343l2.725-4.068zm7.824 0h6.248l-2.336 4.105h-6.471zm-83.929.638c-4.051-.046-3.3 5.327-2.918 5.159-2.544-.583-4.423.625-4.736 2.792-.248 1.72 1.432 4.17 4.37 3.829-.39.45.008 3.05.399 3.287 0 0 .05.377-1.501 3.612-1.84 3.84-2.217 4.022-3.051 1.5-.897-2.713-2.285-4.088-5.898-5.842-.963-.467-2.325-1.282-3.028-1.812-1.613-1.215-1.632-1.196-1.556 1.273.099 3.205 1.071 4.611 4.494 6.504 1.675.926 4.882 2.234 5.463 2.227.409-.004 1.91.669 4.134 1.855.435.231 1.922 1.05 3.827 1.234 2.021.143 6.574-.334 9.214-1.859 1.48-.855 2.053-1.62 3.145-3.808 0 0-3.74.194-5.449-.255-3.55-.208-5.315-.003-8.008 1.395-2.252 1.17-2.378 1.38-1.438-.553.43-.887.83-1.931 1.192-2.97.393-1.034.496-1.12 1.48-1.22 2.16-.22 3.391-1.467 3.59-3.629.055-.58-.032-1.191-.032-1.191 1.47.217 4.48-.512 4.386-3.558-.084-2.738-2.037-3.368-4.44-3.557.308-1.403-.716-4.38-3.639-4.413zm.05.85c3.549.025 3.466 3.283 1.92 5.132l-1.889-1.554-1.523 1.405c-1.658-1.059-1.65-5.005 1.491-4.983zm97.123.04l1.745 2.577h-3.604zm-66.273 3.703h6.684l-2.682 3.77h-6.32s1.415-2.407 2.318-3.77zm21.068 0l-2.526 3.916h-5.842l2.342-3.836zm7.828 0h6.04l-2.388 4.177h-5.97zm14.214 0h6.116l-2.488 4.177h-6.031zm13.854 0h6.3l-2.6 4.177h-6.074zm-87.728.776l3.003 3.027-2.927 2.933-3.018-2.886zm7.615 2.949c-.532 3.516-3.92 3.325-4.883 1.605l1.381-1.575-1.693-1.662c1.643-2.637 5.597-1.025 5.195 1.632zm-10.084-1.684l-1.624 1.83 1.782 1.712c-1.149 1.595-5.56 1.469-4.675-2.37.561-2.437 3.041-2.885 4.517-1.172zm102.95-.447l1.858 2.554-3.486.029zm-72.493 3.136l74.74.241 2 2.446c-26.095.45-51.648-.42-78.306-.44zm-26.277 1.59c2.961 1.816.774 5.644-2.405 4.993-2.37-1.04-2.854-3.498-.722-4.924l1.67 1.376zm25.629 1.466l-2.04.01-1.986 2.322c7.51 7.91 7.234 14.773.237 20.755l2.814 3.15c7.849-6.714 9.589-17.264.975-26.237zm7.714.302c4.21 6.578 7.85 19.036-4.692 30.448l-1.514-1.835c10.92-10.666 8.355-19.634 3.463-28.532zm1.169.161l16.971.066c-3.633 13.846-6.182 22-6.565 43.659l-4.905.028c.533-.499-2.54-13.078-6.126-17.44 7.52-12.767 3.468-19.968.625-26.313zm-53.384.02c.293-.003.894.376 2.072 1.082a154.84 154.84 0 0 0 3.05 1.784c2.332 1.306 3.49 2.54 4.154 4.422.496 1.41.187 1.437-1.24.109-1.06-.988-2.191-1.839-5.018-3.775-.996-.682-1.31-.57-.733.26.416.599 1.312 1.279 3.126 2.384 1.316.802 3.128 2.408 2.985 2.645-.13.215-.354.196-.989-.08-.292-.129-1.24-.517-2.1-.866-3.696-1.5-5.274-3.342-5.496-6.405-.077-1.066-.143-1.558.19-1.56zm77.45.065s.511.675.577.956c.142.607-.454 1.165-2.332 2-.644.287-1.18.443-1.163.819.086.883 1.777 2.23 1.57 3.434-.389.92-2.738 1.824-3.325 2.909.004.747 1.527 1.89 1.31 2.904-.119.303-.61.613-1.339 1.244-1.49 1.293-1.582 1.491-1.035 2.498 1.27 2.338 1.317 2.165-.417 3.826-1.746 1.674-1.714 1.653-.88 3.108.9 1.568.859 1.497-.35 2.502-1.184.985-1.135 1.185-.5 2.408.613 1.182.753 1.2-.28 2.114-1.206 1.069-1.433 1.181-.582 2.526.88 1.39.945 1.332-.047 2.469-.94 1.077-1.049 1.127-.54 1.859.64.92.762 1.164.09 2.176-.724 1.093-.721 1.015-.056 2.034.56.857.463 1.811.463 1.811l-2.1-.004s-.015-1.208-.26-1.651c-.595-1.077-.58-1.41.128-2.365.726-.98.605-1.064-.071-2.044-.684-.991-.586-.981.303-2.11.815-1.034.856-1.522.392-2.114-1.098-1.4-1.096-1.991.01-2.918.843-.707.921-1.022.193-2.233-.712-1.184-.801-1.293.507-2.473 1.336-1.207 1.322-1.182.425-2.55-.87-1.327-.823-1.415.573-2.71 1.412-1.31 1.43-1.313.506-2.966-.866-1.547-.873-1.52.818-3.027 1.684-1.403 2.257-1.581.577-3.595-.936-1.597-.27-1.754 1.268-2.55 2.696-1.646 1.468-1.544.336-3.987-.947-1.638-.406-1.65 1.244-2.47.409-.175.863-.378 1.329-.638 1.103-.615.506-1.177.506-1.177zm3.524.038l8.103.104c-9.392 11.993-13.912 27.331-15.534 43.512l-3.06-.047c-.192-12.637 3.783-28.424 10.491-43.569zm41.605.281c4.633 3.901 8.068 6.134 10.51 7.015 0 0-3.267 5.423-3.518 5.225-18.798-3.621-41.152 7.339-46.208 30.967l-2.961.02c1.093-9.273 3.533-17.016 8.027-25.094 4.458-7.843 8.565-12.426 14.76-18.203zm-32.339-.2l3.992.07s.75.9 1.088 1.226c1.723 1.954 1.872 1.565-1.925 3.708-2.397 1.354-3.46 1.982-3.6 2.55-.107.57 1.047 1.705 1.183 2.469.002.085-3.26 2.268-3.85 2.577-.823.4-.864.743-.047 2.162.939 1.632.863 1.575-1.164 2.99-1.977 1.38-2.365 1.243-1.523 2.615 1.17 1.907.62 2.337-2.133 3.822-.695.375-.713.752-.227 2.053.675 1.808.85 1.627-.573 2.606-1.68 1.157-1.975 1.189-1.603 1.897 1.081 2.058 1.51 2.559.066 3.23-1.102.513-1.125.803-.516 2.162.613 1.366.771 1.311-.317 2.081-1.007.714-1.6.555-.62 1.722.777.923.708 1.652.076 2.219-.543.23-.796 1.264-.638 1.286l-1.4.038c-1.097-1.478.197-2.324.392-2.47.179-.34-.04-.58-.482-1.38-.609-1.102-.588-1.234.289-1.878.885-.651.911-.482.321-1.92-.686-1.673-.654-1.864.426-2.64 1.063-.763 1.077-.933.355-2.398-.762-1.545-.763-1.546 1.125-2.8 1.329-.882 1.347-.83.644-2.465-.486-1.129-.143-1.52 1.665-2.757 1.032-.707 1.11-.847.624-1.689-1.34-2.32-1.326-2.391.984-3.888 1.89-1.224 1.873-1.33 1.145-2.96-.79-1.768-.86-1.632 1.73-3.184 2.134-1.279 2.25-1.205 1.372-2.744-1.091-1.914-1.022-1.6 3.245-4.04 1.539-1.053 2.927-.688 1.396-2.482-.674-.861-1.5-1.788-1.5-1.788zm-75.36 3.15c.297-.01.527.353.512 1.026-.053.95-.501 1.89-.932 2.834-.902 1.921-1.801 3.343-2.275 3.348-1.116.013-1.085-.237.397-3.136.677-1.323 1.375-2.834 1.485-3.126.239-.634.553-.937.814-.946zm13.718 4.351c.02 4.07-12.74 6.12-13.404 4.066 2.225-1.742 8.802-.969 10.196-2.527-1.68-.097-3.956.18-5.516.208-1.945.035-5.087.866-5.12 1.21-.203-1.071 3.34-3.08 6.148-3.207 2.625-.114 5.475.197 7.696.25zm1.093 6.211s-24.883 20.59-37.183 30.551l.075 4.442 39.364-32.226zm-.08 1.017l1.589 1.93-36.952 30.107-.132-3.155zm116.797 10.564l-1.328 1.418c-36.09-26.853-69.325 13.919-50.999 43.085-.166.376-1.44 1.307-1.44 1.307-20.426-33.86 18.656-73.48 53.767-45.81zm-19.86-5.881c2.049.016 5.82 1.422 7.412 3.34 1.854 2.231 1.315 3.226-1.04 1.12-2.532-1.84-4.623-2.266-1.107-.094.775.479 1.473 1.414 1.509 1.518.128.373-.52-.018-3.468-1.093-1.752-.639-3.973-2.366-4.55-3.543-.432-.88.17-1.257 1.244-1.248zm-7.596.061c.639-.005 1.208.045 1.613.161 2.581.741 3.394 1.13 4.356 1.878.658.512.447.881-.317.553-.89-.381-3.71-1.22-4.214-1.168-.734.075.002.555 1.054.818 2.334.584 3.492 1.186 1.826 1.211-.868.13-4.67.141-5.704.02-1.73-.205-4.32-1.782-3.723-2.347.644-.61 3.191-1.11 5.109-1.126zm-7.403 2.427c3.061.036 4.717 1.179 1.372 1.41-5.752.91-6.856 2.16-.483.671 1.483-.347 1.456.188.43.69-.838.408-1.885.609-2.757 1.032-1.572.654-5.174.799-6.58.265-2.073-.789 4.436-4.11 8.018-4.068zm24.63.52c1.546.04 4.845 2.282 6.314 4.385.96 1.374.482 2.361-.97 1.258-.29-.22-2.374-1.992-2.488-2.034-.195-.071 1.73 1.756 2.01 2.27.242.437.797 1.437-.24 1.457-1.622-.2-5.43-4.455-5.454-6.555-.006-.562.312-.794.827-.78zm-19.19 1.197c.644-.021.315.32-.909 1.182-2.207 1.555-1.056 1.243 1.524-.085.784-.403 1.73-.719 2.062-.78.332-.062.728-.152.88-.199.693-.213.158.642-.97 1.547-2.374 1.903-5.055 3.397-6.906 3.855-2.359.584-2.859.658-1.987-.814 1.386-2.34 3.404-4.21 5.331-4.574.434-.082.76-.125.975-.132zm7.937.038c.982-.02 2.197.183 4.11.596 1.345.42.993.51-.62.685-3.032.332-1.77.686 1.178.634 4.022-.03-2.015 1.45-3.973 1.746-1.527.068-1.976.014-5.307-.61-1.27-.238-.508-1.168 1.897-2.318.983-.47 1.732-.714 2.715-.733zm24.856.544l.109 2.592-48.696 40.716-1.656-1.83zm-16.57 2.227c1.943-.025 4.748 1.321 4.447 2.134-.112.303-.33.29-1.812-.104-.972-.26-2.715-.533-2.483-.317.08.074 1.44.594 1.958.719 1.716.412 3.77 1.382 3.316 1.67-.795.483-1.523.105-2.464.004-2.355-.327-6.222-1.516-6.859-2.11-.722-.673 1.808-1.968 3.898-1.996zm-22.713.152c.35.018.481.344.147.79-.508.669-.741 1.23-1.197 2.053-1.628 2.514-2.654 3.51-4.22 4.484-1.564.974-1.788.807-1.65-1.22.176-2.106 1.683-4.32 3.812-5.36.983-.14 1.547-.398.516.837-1.83 2.192-.578 1.968 1.13-.52.543-.79 1.112-1.083 1.462-1.064zm-6.324.293c1.055-.005 1.41.368.057 1.003-1.288.604-3.85 2.395-3.912 2.592-.107.333.853-.19 2.445-1.06 2.13-1.162 2.317-1.135 1.287.194-1.164 1.503-3.965 3.386-6.163 4.082-3.076.843-3 .254-1.282-2.029 1.638-2.481 3.03-3.665 5.127-4.342.92-.297 1.808-.437 2.44-.44zm-52.163.378c11.159 19.245 4.964 38.798-7.982 48.77-13.535 10.425-34.593 9.806-47.02-2.705l1.725-1.628c-.009.008 19.588 19.965 44.27 2.25 12.525-8.99 17.699-30.221 7.366-45.022zm-49.987.043a.158.158 0 0 0-.085.019c-.376.244-1.792 4.4-2.077 6.125-.083.505.04 1 .454 1.405.291.285.763.1.908.043.944-.427 1.464-1.082 2.29-3.155.553-1.135.63-2.492.52-2.966-.045-.192-.35-.64-.733-.894-.425-.282-1.024-.579-1.277-.577zm.217.866c.447-.005 1.33.722 1.438 1.239.008.902-.508 2.404-.894 2.18-.644-.8-1.386-.295-1.509-.586-.083-.888.488-2.05.88-2.824a.34.34 0 0 1 .085-.01zm120.522.719c4.962.001 9.896 1.454 13.519 4.663l-1.935 1.774c-8.497-6.057-18.389-4.284-24.251-.198-5.804 4.044-10.94 12.998-5.908 25.608l-1.816 1.646c-5.638-10.143-2.613-23.548 7.364-29.89 3.518-2.235 8.025-3.515 12.545-3.599.16-.003.322-.004.482-.004zm-73.377 1.48c.15 0 .379.493.354 1.097-.029.726-.336 1.673-.827 1.874-.554.226-.904-1.424-.904-1.424a6.375 6.375 0 0 1 1.377-1.547zm88.84.568c.202-.01.398-.002.567.019.554.068.56.564.038 1.04-.563.514-.856.542-1.424.128-.506-.37-.533-.641-.094-.956.229-.145.576-.214.913-.231zm-95.302.113l1.646 2.03-5.704 4.588-.681.052-43.668 36.16-.01-3.21zm91.24 4.896l-5.947 4.907c-11.887-6.175-21.419 4.83-18.056 14.826l-5.143 4.463c-9.2-25.245 17.705-33.884 29.146-24.196zm-31.14-3.855a.125.125 0 0 1 .053 0c.04.009.08.038.118.076.208.203-.206 3.55-.516 4.171-.112.227-.2.518-.198.648.003.275-1.095 2.572-1.954 4.087-.324.571-.67 1.32-.766 1.67-.69 3.314-2.176-2.015-1.651-5.109.247-1.453 2.31-4.455 2.909-4.233.305.113.283.343-.25 1.504-1.491 3.242-1.865 4.913-.299 1.779 1.805-3.613 2.275-4.542 2.555-4.593zm-101.029.066c.221.013.397.135.492.393.067.22.138.675.014.898-.304.687-.936 1.139-1.575 1.098-.28-.018-.586-.265-.624-.568a1.38 1.38 0 0 1 .378-1.093c.455-.465.947-.749 1.315-.728zm45.276.208c.705.035 1.447 1.93.975 2.796-.387.708-.459.576-1.135-.795-.356-.721-.63-1.495-.63-1.495l.578-.454a.423.423 0 0 1 .146-.047c.023-.003.044-.006.066-.005zm-1.187.8s.741 1.342.922 2.412c.111.653.093.53-.624.26-.565-.353-.69-.557-1.04-.998-.232-.408-.464-.71-.464-.71zm4.456.288c.374-.013.776.366 1.144 1.291 1.383 3.477 1.256 7.378-.297 9.22-.258.304-.32.318-.63.127-.252-.156-.276-1.807-.033-2.275.077-.147.305-1.144.322-1.708.04-1.335-.326-1.503-.501-.265-.203 1.431-.424 2.43-.814 1.57-.196-.436-.296-.873-.445-1.338-.777-3.006.13-6.584 1.254-6.622zm-6.022.89s1.33 1.717 1.878 2.331c.194.332.186.417-.123.535-.526.201-2.286-.971-2.984-1.334-.377-.3-.213-.53-.213-.53.48-.362.962-.718 1.442-1.003zm52.466.06c.71-.007.71.24-.047 1.33-4.23 6.087-3.377 5.183-.686 1.854 1.496-1.85 1.756-2.027 1.92-1.613.124.31-1.656 3.912-2.577 5.217-.476.675-2.102 1.803-2.924 2.219-2.012 1.019-1.789.61-1.045-1.916.948-3.917 3.33-7.068 5.36-7.09zm-54.949 2.106c11.599 28.842-20.161 41.501-34.491 28.162l1.67-1.329c19.933 13.52 39.608-8.139 30.603-25.088 0 0 .816-.678 2.218-1.745zm2.687.7c1.909.195 4.73 3.688 4.872 5.633.301 1.382-.09 1.62-.766.648-1.144-2.112-1.007-.773-.034 1.325.517 1.06.637 2.33.1 2.398-.735-.149-2.324-2.683-2.81-3.727-1.158-2.29-1.243-1.901-1.878-5.293-.119-.636.047-.979.516-.984zm-5.77.946c8.834 16.943-10.172 37.3-29.502 24.142l5.794-4.598c10.09 4.84 21.345-1.163 18.121-15.074zm88.135 3.159l-15.938 13.28c-3.28-11.008 8.763-17.295 15.938-13.28zm-29.601-.028c.52-.108.963 3.225 1.06 7.904.094 4.577.21 5.029-1.212 3.344-.596-.687-1.33-1.342-1.655-1.958-.945-1.786-.645-3.658-.383-6.272.243-2.44 1.116-2.058.974.497-.091 1.643-.074 3.687.184 3.684.094 0 .12-.159.062-.383-.123-.468.44-5.765.672-6.39.1-.27.201-.406.298-.426zm-43.924 2.015c1.152.45 1.479 4.293.232 8.008-.536 1.596-1.36 2.64-2.587 3.283-.876.46-1.081.313-.686-.487.727-1.306 1.115-2.658 1.41-4.343.117-1.644-.75-.324-.677.379-.68 3.066-1.572 3.528-1.457.298.085-2.38.397-3.402 1.519-5.038.563-.819 1.167-1.947 2.246-2.1zm39.974.388c.474.004.59.64.166 1.878-.294.858-1.296 3.637-1.178 3.628.073-.006 1.148-2.506 1.367-2.914.36-.67.493-.796.809-.766.308 1.234-.01 2.776-.161 4.053-.651 3.331-2.92 6.771-3.789 5.747-1.416-1.668-.753-8.423 1.126-10.477.707-.773 1.292-1.152 1.66-1.15zm-60.7.51c1.711 11.783-8.01 16.813-16.41 13.26.179-.045 16.41-13.26 16.41-13.26zm39.741.218l1.694 2.223 3.102.161-1.589 2.342 1.58 2.999-3.462.066-1.992 2.29-1.731-2.068-3.027-.16 1.764-2.815-1.424-2.692 3.269-.156zm-26.039 1.013c.39.013 2.303 2.528 2.493 3.457.578 2.25.364 6.504-.445 6.357-.877-3.064-.536-4.646-.851-4.294-.545.563.338 5.26.047 6.418-.138.295-.608-.06-1.135-.818-1.408-2.024-1.218-9.943-.142-11.11.01-.006.02-.01.033-.01zm103.621 4.774l-38.294 31.723 2.209 2.842 36.155-29.85zm-55.308.547c.167-.034.55.234 1.268 1.022 1.253 1.692 2.581 4.016 3.065 5.803.183.696.478 1.617.657 2.049.269.647.291.826.133 1.021-.664.818-3.438-1.24-4.333-3.212-1.257-2.768-1.289-5.262-.028-2.833.458.884 1.027 2.172 1.021 1.66-.001-.145-.558-2-.984-2.828-.264-.52-1.227-2.595-.799-2.682zm54.902.77l.08 2.626-35.664 29.828-1.4-1.703s33.592-27.94 36.984-30.75zm-55.682 1.623c.167.017.253.257.203.79-.163 1.734-.59 5.51-.501 5.842.053.2.564-2.5.68-2.98.61-2.502 1.541 3.479.98 6.158-.089.422-.267 1.102-.36 1.519-.092.417-.39 1.13-.51 1.32-1.01 1.589-3.385-4.738-2.985-7.961.249-2.007 1.894-4.748 2.493-4.688zm-41.26 1.386c.466-.025.556.433.477 1.396-.27 3.3-2.464 6.764-4.867 7.686-2.394.918-2.616.733-1.197-.98 1.076-1.298 1.728-2.66 1.547-2.837-.1-.098-.34.447-1.211 1.565-1.093 1.402-1.273.215-.28-1.844.86-1.78 1.66-2.71 3.274-3.799 1.138-.767 1.845-1.165 2.256-1.187zm21.687 1.003c-.483 14.21-4.025 29.647-10.865 43.067l-6.39.014c7.824-11.526 12.818-25.796 14.208-43.02zm2.81.014s.958.995 1.347 1.665c.43.74.55 1.386-.231 1.94-.907.766-1.286.481.193 2.383.78 1.003.527 1.167-.44 2.01-.997.872-1.054.919-.127 2.096.991 1.26 1.17 1.454-.123 2.427-1.165.876-1.18 1.082-.27 2.507.839 1.312 1.093 1.299-.515 2.658-1.374 1.16-1.406.84-.08 2.975.487.786.453.837-.44 1.627-2.196 1.942-2.082 1.821-1.77 2.332 2.406 3.448 1.318 3.35-1.036 4.995-.474.406-.352.865.71 2.587.903 1.465.772 1.781-1.343 3.236-2.203 1.514-2.274 1.719-1.173 3.263 1.084 1.522 1.108 1.419-.653 2.99-.795.71-1.448 1.362-1.448 1.362h-3.902s.824-.752 1.386-1.168c3.205-2.372 3.192-2.121 1.84-3.832-1.196-1.513-1.08-1.613.132-2.478.872-.623 2.047-1.265 2.928-1.902.475-.337.124-.619-.667-2.114-.886-1.676-.934-1.482.715-2.838 1.804-1.485 1.834-1.43.856-3.311-.981-1.887-.998-1.723.241-2.734 1.842-1.503 1.93-1.423.96-3.164-.773-1.39-.78-1.35.525-2.654 1.317-1.315 1.153-1.232.374-2.436-.792-1.224-.75-1.389.293-2.318 1.125-1 .966-.94.033-2.218-.919-1.26-.905-1.166.213-2.143.588-.513 1.179-1.036 1.145-1.277-.087-.622-.681-1.506-1.254-2.355-.218-.325.22-.424.918-1.15.71-.738.679-.553.142-1.532-.29-.53-.842-1.424-.842-1.424zm-10.459.033l1.112.029s.19.252.449.515c.714.729.745 1.156.028 1.547-.688.375-.424.9.152 1.745.61.897.605.794-.27 1.675-.903.734-1.37.942-.374 2.332.566.644.496 1.31-.383 1.887-.675.444-1.797.813-.615 2.502.577 1.204.623 1.127-.581 1.982-1.603 1.138-1.904.94-1.169 2.597.819 1.843.9 1.871-.78 3.108-1.953 1.436-2.02 1.552-1.206 3.273.82 1.735.84 1.295-1.225 2.904-1.514 1.179-1.858 1.244-1.41 2.218.84 1.827 1.196 2.316-1.253 3.572-2.829 1.449-2.972 1.557-1.613 3.713 1.104 1.753.859 1.504-.965 2.554-2.637 1.517-3.802 2.178-3.884 2.649-.053.533 2.058 2.119 2.058 2.119l-3.68.1s-1.547-1.257-2.148-1.84c-1.664-1.621-1.682-1.09 3.85-3.775 3.054-1.482 2.798-1.146 2.3-2.01-1.473-2.554-1.524-2.82 1.239-4.21 2.4-1.209 1.988-1.295 1.405-3.122-.509-1.592-.428-1.446.837-2.384 3.058-2.269 2.975-2.034 2.497-3.146-.47-1.094-.83-1.603-.477-2.142 1.102-1.58 3.446-1.917 2.488-3.799-.448-1.214-.607-1.485.742-2.535 1.217-1.013 1.224-.89.445-2.228-.949-1.227-.812-1.43.577-2.393.99-.905.976-.881.42-1.765-.765-1.217-.728-1.255.365-2.213.89-.78 1.046-.823.478-1.684-.753-1.142-.629-1.393.364-1.954.609-.343.606-.483.553-1.064-.01-.112-.326-.757-.326-.757zm13.802.067l5.123.014c1.636 9.498 4.493 13.396 6.144 16.404-6.477 10.398-5.004 19.034-1.05 26.677l-16.224-.061c4.16-14.23 6.304-28.547 6.007-43.034zm-35.163.037c.188-.013.321.291.639.833 1.026 1.75.3 4.23-1.202 6.83-1.124 1.945-1.327.46-.813-2.341.324-1.766-.566.88-.989 3.013-.23 1.156-.783 2.09-1.386 2.034-.567-.092-.392-1.713-.373-2.072.128-2.553 1.08-4.362 2.927-6.897.7-.96.984-1.384 1.197-1.4zm52.296 4.995c.243-.01.583.09 1.002.331.327.188.914.543 1.32.767 1.42.782 1.536 1.02.86 1.807-.834.972-1.369.602-2.813-1.017-.975-1.093-.992-1.86-.37-1.888zm-.473 2.138c.23.006.702.253 1.163.78.936 1.072.823 1.976-.213 1.718-.423-.619-.64-1.56-1.045-2.257-.092-.158-.043-.244.095-.24zm45.758.137c-.907.002-2.426 1.2-2.715 2.418-.881 3.715-.88 3.555-.09 4.096.232.159.406.274.52.345.464.365 1.095.93 1.178.818.753.004 1.897-4.756 1.86-5.737.047-1.036.083-1.161-.176-1.632-.117-.214-.323-.308-.577-.308zm-46.454.08c.06-.01.136.022.227.095.595.592.834 1.65 1.136 2.408.001.164-.067.434-.152.596-.513.986-1.313.03-1.395-1.67-.046-.955.003-1.393.184-1.428zm46.312.734a1.05 1.05 0 0 1 .114 0c.609.027.514.657-.331 1.57-.445.48-1.362.708-1.665.412-.441-.431.47-1.616 1.461-1.902.162-.046.302-.073.421-.08zm-102.893.52c.035 0 .066-.002.1 0 .318.02.585.164.794.407.406.502.235 1.277.043 1.925-.481 1.699-3.664 4.987-4.806 5-.68-.119 2.163-3.73 2.252-4.338-.212-.206-1.973 1.828-2.8 3.24-.375.64-.8 1.43-1.027 1.566-.593.069-1.278.447-1.282.047.098-1.804 3.63-5.736 4.834-6.83.739-.695 1.378-1.007 1.892-1.017zm8.52.17c2.728-.03-2.645 5.942-6.121 6.802-1.083.268-3.08.339-3.222.114-.142-.225.018-.408.464-.525.717-.189 4.27-2.449 4.266-2.715-.003-.335-1.47.22-2.724 1.031-.812.525-1.193.416-.752-.218 2.04-2.934 4.771-4.451 8.088-4.488zm47.238.01c.155.013.31.32.407 1.008.496 1.28.52 1.629.052 2.005-.8.644-.998.464-.988-1.017.007-1.22.271-2.017.53-1.996zm-89.904 1.698s.996.373.582.847c-.288.329-1.513.049-1.514-.047zm137.1.038c.326-.021.334.279.162 1.036-.09.398-.484 2.49-1.178 3.07-.085.055-1.093-.546-1.367-.823-.126-.129-.52-.422-.573-.615-.171-.632.013-1.454.492-1.864.188-.16.564-.248.767-.25.159-.002.629-.156 1.045-.341.291-.13.505-.203.653-.213zm-136.75 1.443c.655-.005 1.46.065 2.143.298 2.012.585 5.704 2.238 6.272 2.781.827.79-1.331 1.631-3.926 1.66-1.376.016-1.635-.27-3.538-1.41-.245-.16-1.353-.888-1.031-1.153.352-.361 1.415.103 2.738.775.432.22 1.483.157 1.48-.038-.002-.228-2.645-1.21-4.625-1.84-1.3-.413-1.27-.83-.473-1.007a7.11 7.11 0 0 1 .96-.066zm-2.601.903s.548.485 1.258 1.017c.77.577 1.666 1.29 2.29 2.237.9 1.1 2.324 3.833 2.166 4.328-.365 1.136-4.17-.856-7.28-3.968-1.011-1.012-1.604-1.764-1.604-1.764l1.188-1.074s1.042.872 2.246 1.935c2.26 1.993 2.244 1.308-.028-.79-.643-.594-1.234-1.126-1.234-1.126.03-.38.39-.717.998-.795zm92.931.095s1.214 1.26 1.665 1.84c-7.403 7.237-10.23 17.347-3.084 28.115l-3.43-.014c-6.422-12.64-3.377-22.156 4.849-29.941zm-62.612.298c.46-.021.041.52-.775 1.91-1.526 2.596-1.828 3.252-4.305 3.898-.638.165-1.546.034-1.92.08-1.065.134-.591 0 1.04-1.059 2.262-1.466.341-.712-1.75.364-1.21.624-2.481.593-2.592.27-.06-.178.49-.647.847-.965 3.184-2.847 4.16-2.727 7.123-3.756 1.293-.449 2.017-.728 2.332-.742zm-13.31 2.597c1.152.007 2.227.122 3.183.335.633.143 1.664.27.795 1.055-.984.926-3.643 2.19-5.61 2.275-.276.01-4.327-.275-3.462-1.144.172-.097.722-.071 1.196-.161 2.244-.425 1.637-.786-1.125-.639-3.46.185-3.618-.173-.998-.889 1.916-.524 3.798-.793 5.524-.828.168-.003.332-.005.497-.004zm18.485.264c1.54-.015 2.737.26 2.743.847.011.952-2.906 3.04-4.82 3.453-.45.097-1.091.237-1.423.312-.668.15-4.365.022-4.726-.109-1.731-.628-.527-.875 2.65-1.244 1.381-.16 2.04-.522 2.038-.785-.002-.127-1.02-.163-2.535.029-1.694.214-1.361-.284.747-1.377 1.392-.721 3.58-1.108 5.326-1.126zm-28.499 1.32c.216.006.736.184 1.6.544 1.843.537 4.376 1.143 6.11 3.037 1.4 1.356 1.742 1.793 1.448 2.27-.357.578-4.703.139-6.532-.643-1.209-.516-2.649-1.624-3.307-2.583-1.593-2.321-.923-2.932 1.102-1.31 2.441 1.955 2.803 2.156 3.236 2.067.174-.036-.256-.437-1.074-1.045-2.055-1.527-3.057-2.349-2.583-2.337zm15.037 2.493c2.044.003 2.486.156 4.47 1.064 2.484.875 1.882 1.654-2.526 2.753-2.207.518-4.428.155-6.04-.837-3.552-2.186-3.318-2.623.648-1.646 1.303.32 2.602.38 2.682.137.061-.187-1.515-.588-2.796-1.012-1.386-.46-.194-.42 2.578-.45.367-.003.692-.01.984-.01zm102.214 9.443s-.454.214-.655.324c-.158.088-1.386.241-2.729.341-2.649.197-4.43.622-6.037 1.267-2.425.976-4.048 3.983-4.048 3.983 1.814-.123 12.077 1.733 14.925-1.965.596-.774-1.53 5.844-2.622 6.137-2.705-.325-3.843 3.92-3.572 3.741-2.729 1.057-4.844 1.678-4.15 4.844.302 1.381 1.701 3.022 4.667 2.61-.808 5.49 5.911 6.91 6.652.292 0 0 1.31-.25 1.815-.31 3.063-.725 3.806-5.202-.691-6.622-1.248-.37-1.318-.604-1.318-.604.232-1.01.177-2.07-.554-3.247.992-2.364 3.461-6.922 3.461-6.922zm.474 1.366c.618.825-2.606 2.192-6.039 2.487-.77.066-2.463.222-2.507.298-.37.648 6.639.177 8.822-1.045.748-.419.815-.05.49.595-2.534 3.259-8.652 2.456-13.436 1.883-.273-.274-.04-.61 1.031-1.48 1.966-1.595 3.381-2.127 6.485-2.446.866-.027 4.764-.761 5.154-.292zm3.79 3.372c-.44 1.401-2.743 5.68-2.743 5.68-.283.283-1.292.483-1.216-.6.012-1.163 2.19-5.953 2.777-6.045.702-.054 1.218.462 1.182.965zm1.461.326c.675 4.91 4.4 6.077 7.976 7.625.94.431 1.739 1.198 2.682 1.693 1.767-2.41-.224-7.089-3.335-8.613-2.31-1.079-4.417-1.937-5.718-1.84-.754.056-1.594.54-1.605 1.135zm1.912-.293c.4-.005.973.111 3.06.667 3.152.838 5.375 3.162 5.955 6.224.024.124.186 2.497-.357 2.413-.821-.237-1.263-1.063-2.58-1.613-1.644-.688-3.95-1.591-5.364-2.876-1.142-1.038-1.767-2.155-1.906-3.112-.141-.994.191-1.095 1.026-.294 1.87 1.488 3.714 1.997 5.563 3.434.514.4 2.357 1.421 1.098.149-.852-.862-3.364-2.365-4.698-3.006-1.853-.89-2.86-1.974-1.797-1.986zm-141.949 4.9l21.13 33.03c-5.201 2.743-7.765 3.944-16.4 3.268l.033.436-3.669-.214c6.338 9.893 14.16 22.798 11.94 45.313l25.738-.027s.402.382.441.408c.376.254.941-.447.941-.447l11.61-.062.314.375 5.414-.038s-24.753-46.319-37.186-69.318c-5.107-9.226-10.426-13.325-20.306-12.724zm133.236 1.093c1.388-.035 2.767.92 2.777 2.771.005.965-.81 2.311-.81 2.311l-1.885-1.796-1.802 1.803c-.887-.734-1.413-2.13-1.123-2.925.555-1.358 1.764-2.138 2.843-2.164zm-21.853.657c1.789 6.97 3.72 16.579-11.787 38.787-9.172 13.135-12.173 25.526-12.54 40.65l-.926.004c.438-8.3.496-23.347.496-23.347l.866-.771s-.394-.64-.568-1.39c-.292-1.266-.046-.844.71-4.244 3.17-16.416 23.75-49.689 23.75-49.689zm-82.804 3.198l78.59.36-1.045 2.061-76.05-.544zm104.757.596l2.918 2.842-2.852 3.203-3.004-3.141zm-2.394 1.208l-1.592 1.693 1.38 1.452c-1.421 2.982-5.202.655-5.076-1.577.149-2.61 3.2-3.681 5.288-1.568zm5.043 3.365l1.269-1.612-1.434-1.571c2.347-2.318 4.566-.277 4.78 1.657.23 2.061-2.985 4.388-4.615 1.526zm-93.079-1.972l6.438.062-2.393 4.479-6.528-.028zm14.342.033h5.912l-2.497 4.541h-5.984zm13.963 0h6.272l-2.545 4.541h-6.442zm14.039 0h6.419l-2.337 4.541h-6.66zm14.299 0h6.187l-2.507 4.541h-6.367zm-68.321.024h4.158l-1.699 2.99zm103.672 2.865c2.38 1.91.726 5.048-1.754 5.104-1.707.039-4.186-2.85-1.504-5.204l1.786 1.633zm-87.458 2.414h6.046l-2.276 4.086h-5.922zm13.439.033h6.631l-2.337 4.087h-6.31zm14.2 0h6.598l-2.153 4.087h-6.664zm14.147 0h6.546l-2.038 4.087h-6.92zm-53.989.156h4.172l-1.779 3.273zm3.145 4.74l61.26.543-1.041 1.987-58.662.01zm2.153 3.556l57.404.142-1.32 2.748-19.833-.09c-3.87-2.888-8.293-1.553-13.339.09 0 0-15.183.159-21.153 0zm80.557 7.015c3.185 4.076 5.47 9.753 6.395 14.233.917 4.58-.078 6.823-1.249 2.814-1.94-10.023-13.825-11.487-19.128-3.722-7.367 10.785 5.539 23.874 14.791 15.107.79-.748 1.228-.929 1.495-.615.31.366.095.692-1.552 2.351-6.427 6.477-4.04 15.798 4.664 17.965 12.354 3.076 19.823-12.023 9.025-19.152-1.123-.854-1.241-1.07-.832-1.532.365-.413.682-.365 1.682.539 9.254 8.371 21.895-2.566 16.04-13.878-4.51-8.713-17.06-7.114-20.064 2.568-.56 1.805-.602 1.909-.913 2.11-1.286.05-.38-4.206-.184-5.331 1.455-4.967 3.064-9.615 6.14-13.457zm-99.648 4.63l30.277 47.788-6.693-.075-28.75-44.955zm148.709 2.79c.2.15 3.021 7.91 2.47 8.622-.17.561-.647.367-.832-.336-1.759-6.702-10.053-5.573-9.975 1.358.047 4.292 4.454 6.145 8.287 3.481.568-.395.828-.402.832-.024.002.114-.44.7-.984 1.306-3.079 3.43-1.92 8.17 2.238 9.143 5.586 1.308 8.292-4.98 4.091-9.503-.61-.657-1.11-1.262-1.111-1.343-.004-.34.466-.282 1.012.123 3.875 2.877 8.596.936 8.542-3.51-.07-5.868-7.365-7.414-9.37-1.986-.5 1.351-.743 1.711-.998 1.466-.98-.514 2.627-8.882 2.726-8.882zm-154.778.323l28.584 44.664c-1.312-.03-2.53.05-3.841.03.531-8.341-6.18-12.252-10.125-12.451 2.366-9.755-4.746-13.86-9.49-14.634 1.923-12.678-8.572-14.476-8.724-14.348.05-1.04-.145-1.791-.285-2.66l3.882-.6zm-4.63.708c-.062.268.538 2.794-.592 2.329l-.08-2.324zm-6.018.065c.409 1.68 1.272 2.012 2.444 3.139 0 0-1.5.254-1.847.014-.623-.43-1.925-3.167-1.925-3.167zm4.471 2.841a1.313 1.313 0 0 1 0 2.625 1.313 1.313 0 0 1 0-2.625zm2.597 1.01c3.76-.247 9.212 3.786 7.774 11.332-.25-.527-.546-1.686-1.156-2.51-2.592-3.494-5.643 1.296-3.586 3.25 1.008.959 1.48 1.337 1.371 1.424-2.317-.44-4.073 1.612-3.108 3.89 1.608 2.947 3.841 1.385 5.133-.363 0 0 .796 2.638 1.587 2.973 1.212.514 2.883-.137 3.452-1.6.847-2.178-1.212-2.736-1.665-3.948 4.35.142 9.89 6.498 7.37 12.011.33-1.257-1.017-4.07-3.636-3.345-1.308.457-1.764 2.362-.708 4.323.337.627.52.86.52.86s-1.133.15-1.43.333c-3.398 2.092.983 7.8 3.511 4.232.258-.424.681-.909.681-.909.418.795.545 1.914 1.307 2.297 3.13 1.576 4.526-1.75 3.21-3.381a274.42 274.42 0 0 1-1.576-1.978c-.13-.587 9.382 1.907 8.224 11.162l-25.22-.034c2.337-14.217-3.323-30.482-6.212-35.438l1.251-1.651c.314.614.835 2.16 1.755 2.456 2.926.941 3.817-1.103 3.425-3.205-.209-1.12-1.776-2.02-2.274-2.182zm6.679 13.379a1.247 1.247 0 1 1-1.25 1.249c0-.688.562-1.25 1.25-1.25zm149.815 11.505c-1.678-1.565-3.533-1.522-5.21-1.338l-.091 3.524s4.152-.207 3.6 1.945c-.148.422-.347 1.838-.347 1.838l-.055 18.072c.674 7.943 10.9 9.532 13.421 1.995.486-1.287.406-2.456.406-3.86v-9.529l2.908-.058-.11-3.385-2.664.04c.194-4.758-.628-9.341-3.97-10.43-3.675-1.106-5.98-.17-7.888 1.186zm8.673 8.133c-1.69.307-4.053-2.883-5.997-5.169.89-1.713 3.601-1.404 4.612-.352 1.464 1.525 1.363 4.344 1.385 5.52zm-149.024-4.828a1.258 1.258 0 1 1 0 2.516 1.258 1.258 0 0 1 0-2.516zm141.66 3.039c1.784 3.483 7.266 6.156 7.348 5.623l.03 9.585c.278 3.839-1.07 5.71-3.504 5.96-4.267.047-4.22-5.253-4.22-8.205l-.057-9.46c.028-1.139-.11-2.559.403-3.503z"/></svg>