<svg xmlns="http://www.w3.org/2000/svg" width="224.225" height="312.808"><rect ry="10.63" rx="10.63" width="223.228" height="311.811" x="7150.843" y="-2435" fill="#fff" stroke="#000" stroke-width=".997" transform="translate(-7150.344 2435.498)"/><path d="M140.758 26.92s25.294 36.56 33.872 43.048c.631.296 11.207-1.724 11.207-1.724-5.42-12.977-8.907-26.403-5.39-41.455zm14.055 57.82c-17.437 4.922-34.842 9.55-53.746 1.528l-20.644 19.945c-.172.515 26.752 12.113 27.175 10.843l-6.626 21.154 15.278 3.363 7.014-22.502s21.093-2.023 30.883-5.382c7.443-2.554 15.141-4.406 21.788-9.955-13.73-8.25-21.136-19.092-21.122-18.994zM49.932 90.638c-6.61-4.055-11.775 4.292-6.936 8.46-.569 2.434-.762 6.058 1.594 7.65 2.165 1.368 6.202-.05 6.785-.036.041.001.105 4.383-.232 4.372-.626-.021-2.99-2.035-4.447-2.472-4.926-1.476-11.854-2.205-11.732-1.95.206.425-1.227 1.436 4.27 4.887 2.042 1.282 8.492-.162 13.63 1.459 3.13.987 6.207 2.628 7.906 1.81 2.149-.897 4.654-3.732 5.463-6.041.228-2.523-12.89 2.934-12.092 3.023l-.042-5.083c5.286.581 10.057-3.25 4.862-9.817 3.87-3.846-1.543-13.01-9.03-6.262zm22.022 23.25c-13 13.106-39.574 37.7-39.574 37.7l.285 18.355 25.96 23.231c2.057-24.66 16.071-47.676 29.415-59.19 1.226-3.502-13.26-18.867-16.086-20.095zm92.625 4.534c-1.958 15.164-3.739 35.842-29.464 58.828 4.458 7.592 10.132 15.318 18.298 19.006.58 1.304 23.602-23.823 37.765-35.703l-.075-16.092zm-115.941 3.255c-.054.33-1.004 4.314-1.249 4.208.02.217 2.635-.971 2.93-2.063.26-.958.859-2.255.898-2.439-.59-4.1-1.704-1.188-2.58.294zm-9.63 10.601c-.935 2.257-1.81 6.402-1.487 9.1 4.605 2.306 5.857-7.284 4.618-8.2-.741-.314-2.5-.922-3.132-.9zm142.236 43.969c-.427 1.912-.337 2.48.514 2.853 1.49.653 2.161-.136 3.358-3.25.713-1.854 1.348-4.644.773-5.753-2.825-1.97-4.318 4.705-4.645 6.15zm-69.653-4.493c-.904.007-1.774.081-2.58.265-7.602 1.74-7.027 15.023-8.317 20.32-23.88 3.407-30.197 5.03-36.74 7.718-10.175 4.18-13.397 6.73-16.09 8.834 1.692-.198 19.949 16.825 20.89 19.228-1.161-3.295 35.318-11.315 54.747-3.26 2.383.853 20.535-17.616 19.962-19.677 2.356-4.125-22.88-8.76-26.062-11.336-2.611-14.055 17.63-21.753 3.613-21.344-2.551.075-6.196-.775-9.423-.748zm63.513 15.789c-.45.53-.903.812-1.488 1.434l-1.333 1.758.97 1.57 2.488-2.743zm-17.807 17.674c2.62-1.182 11.92-5.69 12.32-4.648l-.197 4.513c-1.423-.465-10.606 1.053-5.295 10.532-3.345 7.53 4.109 11.413 9.33 6.434 10.942 3.754 9.478-7.194 7.22-8.964 1.78-2.764-.457-8.649-1.57-8.67 0 0 9.548 2.154 8.615.454-.427-.776-.96-2.114-3.082-3.531-2.446-1.633-6.742-1.04-10.22-1.768-3.718-.778-6.111-2.107-9.236-2.295-4.716.43-9.117 4.57-7.885 7.943zM50.884 240.754l-13.157 3.516s4.256 9.876 5.728 18.682c1.801 10.772.362 22.483.362 22.483l38.186.193z" fill="#e2cf00"/><path d="M206.211 301.715c-5.027-1.745-5.13-4.91-5.302-8.941-.297-6.116-.244-12.551.634-17.533.336-1.515.517-2.29-.996-2.826-.834-.288-1.669-.172-2.503-.3v-3.77c1.585-.085 3.056-.081 4.394.71.602.368 1.273.774 1.273.774 1.97-1.863 7.143-2.14 9.602.16 1.63 1.643 2.157 3.018 2.262 6.72.078 2.73 0 2.916 0 2.916l2.837-.016v3.668h-2.837s.064 1.823 0 5.775c-.049 3.076-.108 5.087-.323 6.55-.966 5.105-5.512 7.264-9.041 6.113zm5.441-6.315c.988-2.634.576-12.81.576-12.81-4.235-1.627-6.03-4.176-7.754-5.99 0 0-.718 11.296.14 17.38.78 5.046 5.334 5.798 7.038 1.42zm.024-17.114c.23.034.494.05.53-.048.323-.915-.24-4.74-1.197-5.508-2.575-2.066-4.929 0-4.853.093 1.215 1.651 2.642 3.466 4.482 4.897.349.291.645.508 1.038.566zm-126.505 7.208c-16.754-23.913-32.279-46.66-52.89-71.73 0 0 .017-9.69.089-19.3l63.32 90.794zm58.655-31.244c8.3-9.009 14.588-18.61 20.17-28.418 6.36 11.297 13.723 20.5 21.853 28.099-7.97 8.057-15.202 17.277-20.927 28.863-4.653-8.854-10.69-18.092-21.096-28.544zm55.094-2.896c3.54-3.71 6.588-7.866 9.452-12.252 3.183 4.512 5.101 7.888 9.377 12.649-3.672 3.889-6.76 7.796-9.275 12.048-3.029-4.826-6.186-9.315-9.554-12.445zm-79.83-4.47c-.54-4.542-1.465-9.977-2.795-14.655l11.561-10.9c-1.247 9.74-3.163 17.214-8.766 25.555zm55.255-34.357c2.587 3.436-1.78 5.344-3.428 3.815-3.343-3.101 1.554-6.305 3.428-3.815zM59.71 190.884c-1.919 1.23 3.447-29.967 18.176-46.09 8.96 25.662-6.848 40.05-18.176 46.09zm72.666-.115l-9.783-2.64 4.871-13.681s9.185 2.152 8.402 4.992c-2.55 9.248-3.49 11.329-3.49 11.329zM87.09 185.51c2.65-4.355 4.66-9.156 6.512-14.07l13.91-1.927-8.063 15.635zm58.959-19.198c-7.572-15.075 1.348-38.935 17.821-45.503-.593 15.288-5.337 30.773-17.821 45.503zm-50.886-4.284c.333-5.354-.28-10.965-1.021-15.938l34.433 4.59 1.203 14.433zm25.198-22.93c1.167-4.59 2.203-8.41 4.457-12.132 2.507.08 12.675-1.592 11.379.383-2.765 3.537-4.087 9.277-5.898 12.888-1.9-.201-10.508 1.281-9.938-1.138zm-22.808-2.63c-3.483-1.228-8.244-1.571-10.096-4.264l3.622-11.479 10.729 3.291zM127.66 26.947l8.408-.08s40.399 51.69 55.54 71.806c-.505 2.048.169 19.4.169 19.4C170.33 87.89 127.66 26.945 127.66 26.945zM50.19 99.07c-2.258-2.425 1.334-4.573 2.828-2.407 1.315 1.909-1.636 3.686-2.827 2.407zm45.33-8.475c.13-11.978 8.625-26.194 8.536-25.831-.098-.023 1.211 11.71 2.844 15.402-.44.651-10.979 11.18-11.38 10.43zM59.336 86.62c-6.585-12.59-14.5-22.13-21.392-28.813 8.584-8.12 15.02-18.148 21.624-28.027 5.452 10.363 12.539 19.834 20.487 28.835-7.973 7.83-15.506 18.921-20.719 28.005zM6.361 61.061c3.858-3.848 9.557-12.6 9.502-12.61 2.712 4.43 5.571 9.015 9.508 12.676-.042-.039-6.101 6.474-9.23 12.597-2.792-5.103-6.478-9.545-9.78-12.663zm-.548-27.847v-3.71h2.775s-.032.302-.01-4.756c.031-7.075.385-9.248 1.799-11.055 3.81-4.867 10.8-3.375 12.637 2.698.14.462.455 1.632.486 3.18.083 4.027.09 10.708-.044 14.88.067 1.636-.516 3.768-.936 4.133.202 1.486 2.54 1.785 4.006 1.67v3.88c.007-.021-1.487.143-3.248 0-.742-.06-2.456-1.472-2.456-1.472s-2.71 1.863-5.144 1.813c-7.968-.165-7.083-10.11-7.06-11.246zm6.383.979s.006 1.397.091 2.33c.281 3.083 2.293 4.681 4.298 4.133a4.08 4.08 0 0 0 1.588-.914c-1.706-2.532-3.734-4.66-5.977-5.55zm7.403-15.432c-.851-4.65-5.23-5.363-6.88-1.428-.298.709-.546 6.313-.546 6.313l.034 6.621c3.553.781 5.513 3.06 7.733 5.647 0 0 .445-11.9-.34-17.153z" fill="#d40000"/><path d="M30.709 24.752l-.316 262.08 163.067.03-.055-261.685zm149.022 2.052c-1.325 14.5-1.557 25.865 5.967 40.904-1.359 1.425-11.597 1.83-14.824 3.517-.06.405.829 1.106.829 1.106 3.375-1.566 16.538-2.995 16.538-2.995-5.513-9.608-10.047-28.089-6.634-42.262l9.5.03-.06 69.83s.748 13.478 1.03 21.073c-5.06-6.537-11.767-15.667-16.147-22.445-5.315-7.476-11.23-16.246-17.306-24.473-1.791-2.592-4.345-5.955-6.428-8.984-3.272-4.676-5.977-8.305-9.37-13.34-3.624-5.213-7.097-9.944-11.404-15.997-3.65-5.151-3.82-5.762-3.82-5.762zm-62.393.27c6.158 10.703 17.182 14.327 19.956 15.049l1.612 2.355c-12.997-2.546-19.957-10.89-23.225-16.05-.254-.4-.225-1.323-.225-1.323zm-6.095 0c-1.704 4.041-4.088 6.364-6.347 8.811l.078-2.6c.07.164 3.383-3.513 4.524-6.21zm2.981 0s.05.69-.156 1.258c-1.305 4.214-9.407 12.212-9.174 11.013l-.083-2.063c-.035.089 6.087-5.83 7.69-10.208zm-5.892 0c-.631 1.177-2.987 4.73-3.2 3.745l.209-3.745zm18.512 0c1.021 1.478 1.949 2.559 3.022 4.07.2.289.321.63.27.759-.162.42-.647.108-1.989-1.081-2.2-1.95-3.696-3.748-3.696-3.748zm-8.194 0l1.99.005c4.121 6.845 11.516 10.488 14.076 11.284.682.753 1.419 2.13 1.705 2.434-6.902-1.87-14.635-7.705-17.771-13.723zm4.839-.029c2.195 3.168 5.635 5.389 7.572 6.904 1.042.817 2.418 2.485 2.29 2.816-4.316-1.364-9.362-6.147-11.678-9.69zm-8.46 1.96l1.2 1.91c-2.906 4.79-6.55 9.107-11.41 12.51l-.026-2.503c5.515-3.972 7.898-7.963 10.236-11.917zm1.946 2.767c3.464 4.667 10.93 11.89 22.904 14.048 0 0 .68.614 1.671 1.965 1.259 1.713 1.279 1.78 1.445 4.588.111 5.138 1.78 12.112 3.438 16.499-.205 1.09-.396 1.646-2.453 4.424-8.57 11.576-26.829 22.524-35.824 7.58-3-4.787-3.292-13.965-3.482-19.688 0 0 .057-.403.08-.512.216-1.039.513-.875 2.137-.43 1.646.706 3.36.136 5.102-.338 1.984-.801 2.149-.184.236 1.602-.662.617-1.472 1.56-1.386 1.515.085-.045 1.198-.5 1.69-.874 1.528-1.163 1.89-.718 1.323.563-2.403 5.432-2.83 5.649.55 7.158a6.081 6.081 0 0 1 1.581 1.01c2.312 2.176 1.482 1.004.835.005-.994-1.563-.095-2.389 1.584-1.42 1.121.646 2.595 1.168 3.396.92 1.556-.506 2.03-2.21 1.569-4.085-.37-1.036-2.495-2.868-2.005-.951 1.278-.057 2.38 1.754 1.27 2.98-.837 1.13-2.33.52-4.622-.995-1.266-.951-2.803-.465-2.743.705.04.786-1.073.605-1.796-.396-.401-.556-.129-2.156.625-3.673 4.75-9.548.746-18.807-7.48-16.197-.904.287-1.72.52-1.72.52l-.044-3.653c4.723-3.29 9.732-8.539 12.119-12.87zm4.802 17.143c-1.24 1.497-.8 2.83 1.922 1.487 2.217-1.092 2.525-1.221 4.941-1.308 3.43-.124 6.508.966 10.317 3.303 2.524 1.549 2.892 1.666 2.207.696-2.04-3.903-14.093-9.828-19.387-4.178zm-11.647.447c2.38.6 4.665 2.171 4.267 2.823-.143.234-.282.279-.585.12-1.741-.86-4.517-2.266-8.53-.55-.442.189-.687-.104-.685-.638.004-1.035 1.747-1.862 3.588-1.929.655 0 1.37.033 1.945.174zm13.827 3.027c-1.419.737-1.906 1.13-2.509.8-1.44-.787-1.135-.17-.241 1.415.631 1.119.625 1.349.531 2.034-.102.745-.086.773.638 1.57 1.354 1.779 2.701 3.496 4.728 4.845.632.421 1.477.9 1.541.902.202.006.125-.155-.237-.507-2.596-2.498-4.644-4.736-2-3.785 3.079 1.004 6.007-.247 8.408-1.063.979-.302 2.007-.557 2.262-.557 2.217.003 2.741-.92 1.323-2.328-4.796-5.379-8.777-6.645-14.444-3.326zm11.382 1.008c.992.916 1.515 1.413 1.415 1.652-.106.256-.87-.178-2.149-.86-2.574-1.372-5.492-1.695-9.138-.642-2.83.817-1.995-.48 1.159-1.7 2.526-1.165 6.01-.817 8.713 1.55zm-26.433-1.853c2.163-.034 4.415.675 5.92 1.974 1.051.906.283 1.116-1.424.41-2.583-1.068-4.759-1.238-6.878-.246-.665.311-1.432.682-1.642.662-.354-.24-.505-.937-.198-1.43.852-.836 2.54-1.343 4.222-1.37zm35.639.742c.159.007.398.26.753.758.647.908.672 1.357.136 2.947-.655 1.94-.918 1.626-1.082-1.082-.107-1.757-.11-2.636.193-2.623zm2.144 2.927c.247-.035.535.4.995 1.3.322.627.246.815-.758 3.752a36.45 36.45 0 0 1-.826 2.217c-.309.243-.269.222-.4.053-.716-.914-.665-2.697-.049-4.835.467-1.62.721-2.442 1.038-2.487zm-19.483.222c.078-.007.557.098.557.098-.05 4.351 3.315 3.476 3.76.385 0 0 .83-.085.958.12.398.648-.528 2.51-1.913 3.118-1.01.451-2.384.342-3.205-.414-.23-.426-.925-2.042-.795-2.713.162-.391.404-.574.638-.594zm-2.005.509a.991.991 0 0 1 .101 0c.33.016.57.106.701.505l.72 2.21c-.53.635-2.545-.65-2.541-1.614a1.074 1.074 0 0 1 1.019-1.101zm-13.682-.005c.509-.05.688.007.747.482.172 1.436-1.264 2.997-3.127 3.082-1.803.201-2.777-1.197-2.721-2.56.004-1.037.896-1.167.995-.348.286 2.366 2.308 2.502 3.231 1.196.35-.512.27-1.773.875-1.852zm22.14.482c.143-.006.335.048.618.144 1.86.594 1.909.881.318 1.454-1.896.684-2.02.773-1.574-.55.248-.739.322-1.035.637-1.048zm-19.713.208c1.378.085 1.494 1.252.282 1.641-1.806.797-2.414.745-1.715-.43.38-.833.719-1.195 1.433-1.211zm-8.625.42c.165-.002.354.061.556.212.207.625.558 1.106.835 1.753-.283.281-.958.277-1.388-.065-.864-.684-.716-1.894-.003-1.9zm43.344 1.347c.535.003 1.08.851 1.257 1.483-1.87 2.403-1.576 6.89-2.01 8.244-.378 1.102-.5.15-1.54-2.704-.42-1.152 1.697-6.881 2.187-7.009a.413.413 0 0 1 .106-.014zm1.913 2.463c.416.238.981.784 1.081 1.642.058.499-.188 1.161-.347 1.816-.378 1.558-.889 4.502-1.073 7.221-.078 1.157-.074 2.198-.125 2.3-.563 1.102-1.75-1.865-1.648-4.227.369-1.886.575-8.493 2.112-8.752zm2.642 3.39c.264.368.431.65.513.966.141.55.023 1.207-.301 2.609-.858 3.715-.734 7.718-.174 11.828.118.865-.482.432-1.39-1.057-.505-.826-.827-1.958-.981-3.294-.317-2.922.293-6.883.812-10.007.23-1.383.39-2.602 1.52-1.044zm1.424 2.261l1.502 1.811s-.641 4.164-.637 6.386c-.105.832.746 9.88 1.024 10.61-.923-1.033-1.355-1.641-2.367-2.94-.115.018-.991-8.915-.386-12.331.366-2.067.864-3.536.864-3.536zm2.357 3.598c.253-.009.573.275.976.84.363.511.54.93.56 1.566.015.463-.215.82-.222 1.647-.042 4.921.623 9.566 1.46 14.044.295 1.602-.28.949-1.23-.065-.87-.928-.887-1.281-1.352-2.6-.092-.264-1.02-9.34-1.012-10.026.033-2.82.114-4.39.439-5.067.106-.221.23-.333.381-.339zm-5.459 9.89s-1.748.9-2.207.584c-.738-2.014-3.402-7.405-3.448-8.36.047-.313 1.092-1.732 1.092-1.732 1.472 3.194 2.797 6.461 4.563 9.508zm-32.911-6.475c-.528.62-1.156.361-2.427-.198-.652-.2-.551.068-1.629.628-.835.434-1.128.445-1.682.44-.73-.006-.992-.261-.995.252-.001.284-.043 1.567-.216 2.23-.234.903-.44 1.301-.31 1.458.371.34.683.133 1.465-.623 1.299-1.255 2.174-.895 3.62-.429 1.646.53 1.986.726 3.49.2 2.132-.745 3.415-.745 4.264-.205 1.463.931 1.904.877 1.302-1.67-.195-.821-.208-2.094-.328-2.315-.136-.25-.507.463-.897.725-.744.5-1.128.491-2.806-.058-.993-.326-2.107-1.39-2.851-.435zm26.978.332c.649 1.53 3.233 6.641 3.154 7.212-.503.452-1.177.781-1.576.377-1.292-2.357-1.679-3.627-2.729-6.273-.313-.632.624-2.243 1.15-1.316zm13.875-.188c.183-.025.566.355.85.735.885 1.184.938 1.33.966 2.599.102 4.598.68 10.011 1.975 14.185.255.822.739 1.82.686 1.956-.434.634-2.45-1.062-3.057-3.641-.839-3.276-1.33-6.693-1.596-8.917-.338-3.913-.336-6.713.176-6.917zm-15.5 2.537c.745 1.435 1.683 3.912 2.314 5.398.288.645-1.184 1.153-1.522.934-.588-.44-.867-1.675-1.253-2.415-1.228-2.686-1.449-2.742-.768-3.579.42-.581.92-1.294 1.23-.338zm18.417 1.647c.108 0 .248.105.425.333.777.918 1.304 1.619 1.507 2.3.147.493.03.863.082 1.757.14 2.343.754 5.54 2.497 12.085.17.638.401 1.393.372 1.598-.168 1.202-1.93-.746-2.444-2.758-.595-2.283-1.68-5.2-2-7.896-.658-4.281-1.022-7.42-.439-7.42zm-19.968 1.73c1.465 3.42 1.58 3.413.658 3.684-.975.286-1.034.192-2.18-2.136-.835-1.7-1-1.912-.298-2.525 1.074-1.264 1.355-.058 1.82.977zm-20.41-.816c-.167.004-.657.376-1.151.571-1.21.48-3.36.512-4.67.118-2.323-.933-1.669.278.385 1.015 1.594.536 4.751.12 5.24-.873.302-.318.41-.835.196-.83zm17.656 1.799c1.308 2.021 1.701 2.829 1.48 2.986-.209.21-1.245.6-1.67.391-.536-.262-1.001-1.51-1.236-2.489.164-.478 1.023-1.335 1.426-.888zm-32.769.851c.585.003 2.106 2.046 1.797 2.415-.086.19-.656.01-1.988-.36-.444-.163-1.45-.295-1.132-.94.159-.293 1.09-1.116 1.323-1.115zm31.366 2.802c-.131.35-1.117.431-1.536.405-.36-.75-.455-1.107-.556-1.603.137-.298.812-1.07 1.146-.918.2.178.844 1.746.946 2.116zm27.216-1.971c.209.007.57.373 1.106 1.14 1.014 1.45.877 1.344 1.604 4.806.826 3.926 1.813 6.721 2.81 10.732.014.665-.255.488-.994.038-1.208-.735-1.605-1.552-1.985-3.68-.65-3.515-2.02-6.768-2.546-10.92-.277-1.374-.3-2.127.005-2.116zm-30.424 1.403c.713-.025.617 1.074.413 1.252-.521.453-1.957.318-2.204.344-.552-.865 1.326-1.567 1.79-1.596zm34.047 3.736c.21.029.772.824 1.825 2.304 1.012 1.422.79 1.19 1.396 3.53.857 3.235 2.275 5.568 3.106 8.545-.002.34-.413.296-.807.135-.767-.321-1.451-.864-2.1-1.396-.445-.48-.442-1.09-1.754-5.603-.473-1.628-.597-2.051-1.188-4.525-.495-2.069-.716-3.023-.478-2.99zM59.397 97.048c3.441 6.332 2.167 9.14-5.234 10.017-.534-.075-.03 3.244-.045 4.727 3.709-2.121 8.192-2.617 12.325-3.948-1.125 3.603-3.1 7.686-9.083 7.057-6.253-4.832-13.612-1.929-18.606-3.89-2.716-1.012-3.753-4.029-3.785-4.546 3.257.326 6.934 1.024 10.09.796-3.447-2.656-2.439-6.331-1.953-8.012-4.034-5.087-.666-10.808 5.194-9.478.605.137 1.8.726 1.8.726 5.653-5.06 12.205-.306 9.297 6.551zm114.36-3.08c.233-.022.75.589 1.786 2.038 3.074 4.3 5.735 8.3 5.695 8.525-.133.74-3.336-.557-4.144-1.618-.92-1.208-3.51-7.43-3.507-8.418.002-.33.047-.515.17-.527zM48.583 112.385c1.6.234 2.046.37 2.029.995.137.53-3.88.6-4.424.207-.435-.314.126-1.003.555-1.169.623-.187 1.239-.122 1.84-.033zm110.721.57c-22.44 10.598-31.62 38.787-20.293 60.39l-1.56 1.126c-11.105-22.84-2.843-47.315 15.2-59.675.73-.52 2.346-.92 3.098-1.419 0 0-7.361 1.68-9.853 2.654-.505-.017-1.99.506-3.585 2.236-1.394 1.292-5.754 7.303-5.615 7.512l-11.585.467.01.428 11.37-.263c-11.708 19.278-8.832 37.621-1.602 50.458l.179.12c.42.283 1.526-.526 3.82-2.7.945-.895 2.136-2.007 2.647-2.472 1.418-1.3 3.437-3.54 4.825-5.159-7.873-16.047-.107-37.181 18.317-46.706.032-.507-.196-2.055-.196-2.055s-.696-.625-1.108-.56c-20.525 9.04-28.749 31.492-20.403 51.91l-1.377 1.497c-10.486-21.143.77-47.57 20.397-55.056-.01-.478-.435-1.088-.963-.72-21.188 9.837-30.422 34.957-20.043 56.37l-1.307 1.155c-11.809-23.445.633-49.716 20.14-58.693.575-.134-.513-.845-.513-.845zm-114.21.218s-.149 1.249.292 1.675c.203.89-.121.794-.879.613-1.865-.444-.41.617 1.116 1.473 1.503.844 1.301.816-.01 1.647-.881.56-.79.77-.671 1.193.176.63.296.21.662-.125.767-.706 1.38-.882 2.062-.88 1.024.005 1.128.825.947 1.464-.408 1.342-1.79 1.27-2.923.937-1.853-.546-4.88-3.76-4.834-5.653-.129-1.696 2.191-2.421 4.238-2.344zm8.334.414c.718.264 1.623.617 2.618 1.034 1.374.436 2.766 1.147 3.664 1.745 2.734 1.823 2.567 5.468 2.37 5.83l-14.126 13.387s-.797-.39-1.549-.773c-2.375-1.212-2.945-1.85-1.627-2.521.639-.326.845-1.026.937-1.71.122-.917.074-.76.623-1.179.954-.727 1-1.027 1.004-2.236.003-.8.086-1.169.377-1.671.231-.399.474-1.232.637-2.188.027-.157.035-.55.066-.688.167-.748.404-.968.562-1.138.159-.17.413-.746.59-1.246.394-1.115.32-.95.956-.826.924.18.792.719.69 1.575-.049.415-.325.707-.231.613.126-.125.694-.393.811-.42.296-.067.59.034.667.498.042.258-.07.733-.063 1.1.019.953.058 2.094.275 2.846 1.049 3.62.84 3.118.483.106-.085-.721-.186-1.78-.082-2.661.073-.622.251-1.391.493-1.812.62-1.08.654-1.294-.69-1.825-.5-.198-1.351-.544-1.527-.89-.216-.421-.856-.996-1.69-1.192-2.03-.477-3.21-2.438-2.918-2.729.192-.19 1.01.059 1.526.077 1.853.066 2.247-.03 3.067-.734.437-.375.634-.71.981-.734.368-.007.835.266 1.106.362zm96.146 2.169c-18.976 15.352-22.302 40.187-12.836 59.35l-1.638 1.287c-11.897-22.478-3.906-46.727 10.71-59.988zm-109.554 1.83c.335-.031.701.46 2.033 1.884.898.96 1.832 1.792 2.324 2.072 1.114.534.87.312-.058 1.193-.95 1.09-.426 1.985-1.56 1.44-2.953-1.387-5.026-5.47-3.106-6.453.145-.075.255-.125.367-.136zm-1.468 4.294a.737.737 0 0 1 .227.024c.364.09.805.774 1.28 1.251 1.312 1.322 1.921 1.908 2.97 2.372 1.031.456 1.059.567.333 1.371a2.443 2.443 0 0 0-.483.84c-.062.197-.078.446-.3.489-1.148.22-4.969-2.097-5.119-3.695.124-1.495.501-2.607 1.092-2.652zm8.095.445c.662-.017 1.052.573 1.048 1.53-.003.664-.376.934-1.135 1.218-1.623.607-2.622-.554-1.488-1.836.477-.538 1.121-.9 1.575-.912zm-.99 3.897c1.223.005 1.578 1.037.68 1.927-.842.837-2.544.84-2.54-.077.003-.72 1.08-1.853 1.86-1.85zm-7.589 1.235c.828.245 2.844 1.697 3.73 1.867.047.49-.543.624.294 1.545.38.418.412.703.082.879-1.01.538-4.513-1.164-4.748-2.918-.114-.856.17-1.342.642-1.373zm4.57 2.098c1.205.05 2.568.086 2.424.662-.104.417-.535 1.52-1.086 1.313-.268-.1-.529-.367-.715-.545-.643-.617-.814-1.438-.623-1.43zm45.568 4.988c3.51 3.178 16.262 36.374-10.312 60.559l-5.64 1.69c25.514-20.035 21.27-48.476 14.385-60.746.002-.36-.1-.319-.735.256-.556.504-.615.612-.391.705 7.78 11.973 10.689 45.79-19.967 62.108-.514.534.527.453.527.453.054-.44 13.803-3.78 12.833-3.864 12.815-11.328 23.972-38.342 10.083-61.889-.335-.22-.783.728-.783.728zm-4.427 3.759l-.179.748c11.123 21.837.506 48.59-20.17 58.49.341.25.719.422 1.099.6 23.454-12.629 30.217-39.358 19.986-60.062zm-1.86 1.548l-.13.793c9.209 18.584 1.899 44.373-20.077 54.835-.209 1.125.003.796 1.03.743 25.429-13.636 27.82-39.568 19.863-56.408zm-1.579 2.229c-.718.95-2.033 1.44-2.47 2.662 7.387 19.524-2.16 38.318-18.322 46.24-.013.982-.718 3.414.993 3.025 19.968-9.046 28.656-33.089 19.925-52.014 0 0-.114.082-.126.087zm100.3 37.748c.734.051 1.393.274 2.076.363 2.48.322 4.089 2.13 2.98 3.23-.364.361-.872.153-2.484-.635-.74-.362-.859-.701-1.012-1.518-.184-.979-.38-1.078-.628-.319-.251.768-.522 1.244-1.369 1.05-2.378-.553-1.48-2.19.436-2.171zm-26.533 16.622c-5.956-3.38-13.31-9.475-17.515-16.4-2.09 3.923-4.547 11.06-4.547 11.06l-9.348-2.61-.11.194 9.24 2.663-.901 3.083c-.097.333-1.528 3.842-1.528 3.842l14.431 6.735c-.894 1.399-1.87 2.304-3.109 3.609-.7.736-.72 1.69-.72 1.69l20.01-19.087s2.58 3.828 3.54 4.696c.9.814 1.18 1.011.13 1.254-4.701.69-8.35 4.25-7.078 9.024.206.531.62.336 1.512-.225 3.121-2.826 10.75-5.443 11.011-4.78l.03 3.041c-8.214.12-7.372 6.158-6.77 9.397 0 .07-2.376 2.146-2.376 2.146.84.44 1.663.896 2.44 1.439-.723 4.028 2.71 9.867 9.452 6.878a39.512 39.512 0 0 1 1.776 1.95c.69-.8 1.485-2.681 1.485-2.681 3.349 1.515 10.298-1.877 6.744-9.646l1.96-1.869-1.883-1.186c-.049-1.976-.355-3.74-1.534-5.462 0 0 3.161.806 5.501.942 1.445.13 2.663.167 2.541-.706-.035-.257-.251-1.515-.392-1.927-.698-2.035-4.318-3.53-7.833-3.726-.573-.033-1.191-.015-1.314-.163-.23-.28.183-.676.56-.61 1.926.335 3.777-1.088 4.11-2.898.067-.318.46-.899 1.025-1.517 1.002-1.096 1.08-1.068 1.061-2.652-.013-1.1.18-1.344.687-2.081a5.09 5.09 0 0 0 .63-3.842c-.104-.45-.53-1.085-.167-2.206.59-1.822-.707-3.49-2.408-4.44-.136-.038-.095.095-.207.23-1.543.48-3.422-.625-3.422-.625-.388-.19 1.314-10.077 4.84-9.194.585.355.833 2.074.789 2.104.162-.004.25-1.011.022-1.683-.24-.705-.786-1.377-1.838-1.178-.815.154-1.756 1.236-2.182 1.779-1.647 2.098-1.666 3.438-2.216 5.67-.265 1.056-.293.995-1.754-.146-1.048-.82-1.556-1.081-1.192-1.561.164-.216.843-.899.843-.899l12.763-12.28v122.976h-72.169l.505-15.804c1.354-11.112-1.028-34.447-2.83-36.641 1.39-1.562 5.704-5.328 5.466-5.498l-.572-.338-2.28 2.098-5.634-1.706c-2.402-1.66-4.855-3.194-7.398-3.847-4.154-1.066-12.154 2.33-12.16 2.366-12.781.946-23.015 6.136-22.872 6.096-.557-.51-1.293-2.142-1.313-2.132-6.588-9.168-13.064-14.304-21.912-20.57l11.207-6.19-26.558-27.748-.234-22.532 38.472-36.78c.227-.635 12.275 8.51 16.76 15.95.86-3.637 2.462-6.94 3.797-10.512.14-.326 7.654 2.779 9.883 2.91.333.02.602-.332.602-.332l-9.918-3.225 2.029-5.809s.706-1.578-.09-1.84c-4.522-1.462-8.764-4.04-13.088-6.236 0 0 2.02-2.245 2.05-2.344.029-.094.847-1.298.652-1.713-2.2 2.133-20.149 18.78-20.149 18.78-.51-2.858-1.313-3.856-3.058-5.62.951-.045 2.439-.984 3.299-1.611 2.63-1.916 4.063-5.336 3.718-7.334-2.525.804-4.805 1.746-7.968 2.32-1.777.322-3.464 1.125-4.486 1.986l-.157-3.188c.006.037 4.255.745 6.224-2.106 1.696-2.458 1-5.27.61-6.705.045-.318-.05-.283.682-.956.54-.498 1.381-1.14 1.381-1.14.036-.181-2.194-1.008-2.571-1.763.594-5.908-4.127-8.188-8.122-7.139-.747.226-1.103.365-1.991-.624-.133-.147-1.198-1.273-1.198-1.273s-.47 1.085-.711 1.56c-.784 1.545-.999 1.08-2.688 1.163-4.28.21-6.19 3.665-5.207 7.907.23.995.127.842-.526 2.1-.334.644-.88 1.464-.88 1.464s.785.435 1.314.672c.784.35.825.76.821 1.54.11 1.722.488 2.874 1.477 4.352-3.352.078-5.924-.235-8.96-1.243.465 4.667 3.906 6.405 8.12 7.09 0 0-.442.412-.907.596-.986.286-1.603 1.152-1.594 1.927-.142.741-.621 1.485-1.063 1.88-.656.568-1.195 1.368-.936 2.916-.067 1.122-.338 1.446-.667 1.874-.661.86-.885 1.715-.72 2.845.077.526.24 1.652.13 2.816-.18 1.94.514 2.667 1.397 4.033.571.885.45.908.318 1.55-.317 1.542-.647 2.334-.99 3.507-.767 2.623-.796 4.612-.169 5.124.945.772 2.015.54 2.512.386 3.729-1.15 3.083-4.812 3.28-7.269.106-.632.321-.935.53-.905 1.055 1.233 2.17 1.947 3.605 2.725-4.962 5.05-8.203 8.14-14.476 13.649l.17-123.006h71.557s.075.91-.095 5.361c-.31 9.046-.69 18.522-.097 27.743.1 3.192.034 6.343.493 9.5.446 3.077.644 6.394 2.081 9.26.578 1.553.597 1.433-1.604 3.467-1.08.998-1.998 2.06-1.958 2.248.014.062-.047.296.118.164.11-.089.908-.878.996-.982.597-.703 1.595.2 4.999 1.16.667.188 1.608.816 2.328 1.337 5.088 4.288 12.248 2.95 17.6.612 1.519-.663 1.891-.732 4.332-1.021 9.04-1.072 18.699-5.021 18.678-5.01l1.18 1.934s.444-.082.76.404c5.2 9.82 22.174 21.04 21.872 20.52l-11.095 6.143c8.078 9.98 26.55 26.912 26.55 26.912l-.425 24.336c-4.96 3.966-9.322 8.513-13.682 12.953-1.254 1.24-2.139 1.95-1.663 1.973 1.132-.173 2.11.943 3.03 1.718.584.65.443.591-.23 1.48-.473.624-.646.804-.648 1.255.017.874.01 1.459-.766 2.114-.483.605-.759.994-.846 1.712-.087.717-.08 1.176-.574 1.81-.835.178-.915 1.395-.767 1.94.875.867.475 1.807.556 1.61-1.67 1.813-3.425 3.385-2.305.849.505-.944.68-1.727.68-1.727s-.804.834-1.225 1.228c-.644.596-.88.245-.9-1.607-.082-1.401-.673-3.356-.908-3.73-.13-.209-.153.153-.091 1.502.08 1.775.292 2.29-.333 4.062-.844 2.394-1.445 2.733-.073 2.65 1.299-.078 2.397-.092 2.965.683.192.262.438.71.963.973 1.069.584 1.919 1.232 2.513 1.878 1.92 2.089 1.37 3.956-2.345 2.69-1.956-.667-.675-1.506 1.427-1.312 1.291.12 1.509-.356.391-.698-2.079-.385-2.413-.62-3.784 1.01-5.757-.569-8.99-3.787-10.544-6.41-.65-1.096-.848-1.305-.396-1.926.179-.245.07-.17-.236.169-.307.339-1.143.623-1.42.866-1.934 1.93-3.894 4.003-5.637 5.572zm25.058-13.514c.977.12.958.941.085 1.73-.82.62-1.38.74-1.843.274-.81-.816.236-2.01 1.758-2.004zm2.845.569c.788-.004 1.793.359 2.986 1.35 1.425 1.184 1.75 4.051.442 4.547-.548.208-.633.005-1.8-1.105-.788-.748-1.642-1.425-2.483-1.826-1.717-.817-1.937-1.126-.777-1.682.244-.125.56-.42.705-.652.298-.478.388-.63.927-.632zm-1.855 3.816c.228.007.533.146 1.01.401 2.894 1.581 4.31 4.06 3.33 5.458-.643.917-1.688.567-2.485-.734-.45-.733-1.642-1.67-2.995-2.357-1.55-.786-1.583-.898-.464-1.434.46-.22.805-.532 1.03-.928.26-.46.281-.414.574-.406zm.928 5.906c2.187 2.18 1.937 3.36.516 4.248-.97.605-2.526.757-3.036.255-.824-.72-.802-1.546.11-1.811.849-.182.53-.523-.263-.724-2.836-.805-4.579-2.31-1.497-1.983.885.094 1.74-.594 2.203-1.143.67-.812 1.573.765 1.967 1.158zm-149.119.84l63.819 91.362-51.594-.1s-.194-.671.226-6.148c.621-7.43-.332-13.873-2.091-21.126.222-.024-2.47-8.804-4.564-13.093-.381-.9-.319-.986.917-1.145 3.652-.587 7.586-1.47 11.235-3.014 1.696-.15 4.186.512 4.051.305-.06-.1-2.206-2.067-2.206-2.067-5.958 2.38-11.455 3.251-16.63 3.842 6.87 11.69 9.32 27.605 7.261 41.9l-9.885-.03-.03-70.353zm11.406 13.53c.902-.035 3.147 1.55 3.422 2.743.056.244.64 1.71 1.294 3.073.013.251 2.225 4.246 1.253 3.898-1.934-2.628-5.39-7.103-6.258-9.283.001-.29.037-.42.29-.43zm6.895 3.997c.12.66.79 2.386 1.318 3.524 1.377 2.964 3.51 7.612 3.076 8.935-.292.892.008.845-.772-.256a263.62 263.62 0 0 0-1.86-2.584c-.698-.936-.228-.077-.627-1.602-.95-4.31-2.484-6.576-3.482-9.095-.355-1.183 1.89.601 2.347 1.078zm1.226.657c.186.13 2.715 1.909 2.97 2.164.897 3.188 4.482 13.402 3.554 15.227-.324-.253-1.69-1.9-1.88-2.749-.413-4.884-1.962-8.396-3.625-12.036-.468-1.097-.835-2.194-1.019-2.606zm4.758 3.587c.8.39 1.63 1.285 2.099 2.084.313.542.474 1.18.77 2.523.916 4.167 2.665 8.391 1.878 12.838-.49.665-1.557-.843-1.71-2.328-.505-4.925-.939-7.283-2.67-13.075-.336-1.123-.59-2.004-.367-2.042zm4.061 3.82c.172.007.522.325 1.107.874 1.137 1.067 1.297 1.46 1.304 3.231.037 2.603.903 5.574 1.038 8.201.078 1.516.355 5.438.12 5.67-.33.457-1.798-1.205-1.685-3.752.187-3.062.035-5.367-1.27-10.665-.603-2.448-.909-3.494-.647-3.554a.13.13 0 0 1 .033-.005zm117.826-15.467c4.56 2.927 2.952 8.33 1.976 8.993 6.296 7.956-3.492 12.03-6.598 9.17-4.598 4.568-12.488.74-9.45-6.791-.003 0-5.774-11.03 5.614-10.294 0 0 .197-4.457-.125-4.66-4.065-.274-9.591 3.64-11.157 4.723-.868.525-1.058.275-1.058.275-.217-2.314-.223-3.373.717-4.663 1.641-2.251 4.353-3.012 7.916-3.794 4.409 1.357 8.607 3.488 12.692 3.157 2.249.013 4.55.376 6.73 1.546 1.471.694 2.237 3.298 2.237 3.298-2.308 1.207-9.494-.96-9.494-.96zm-2.169-16.357c.02-.79.911-1.67 1.79-1.568 1.207.087 1.365 1.516.292 2.042-.31.251-1.312-.119-1.367.159.074.486-.417.281-.511.106-.167-.207-.204-.502-.204-.74zm-.732 3.114c.444-.31.814-.338 1.26-.396.684-.083 1.56.02 1.755.738.19.704-1.16 1.119-2.254 1.137-.556.01-1.2.118-1.367-.272-.157-.367.383-1.041.606-1.207zM37.225 140.64c.88-3.058.33-4.77 1.796-8.54l3.57 1.188s.15 3.697-.569 5.757c-.72 2.058-3.087 3.7-4.797 1.595zm26.588 82.702c.422.05 1.456 1.523 1.922 2.869.429 1.248.287 2.833.6 4.178.7 4.608.659 9.225.473 10.62-.093.696-.541.413-1.155-.25-.892-.964-.768-.985-.758-3.661.009-2.294-.5-7.963-.734-9.115-.433-2.13-.614-4.162-.512-4.51.028-.098.086-.14.164-.131zm41.747.551c4.597.732 8.272 3.87 10.377 9.036 2.033 5.253 2.534 12.42 2.85 19.01-.023 1.576-.673 1.178-2.375.198-1.86-.908-2.256-.645-4.971-.023-1.694.388-1.541-.765 1.246-2.676.949-.62 2.053-1.446 1.69-1.57-.184-.063-1.033.166-1.647.662-2.734 2.21-3.476 2.748-2.687.599.199-.543.832-2.05 1.097-2.772.99-2.7-.15-3.855-3.515-5.565-.842-.427-1.395-1.14-.555.353.687 1.221-.734 2.207-2.492.778-1.223-.994-3.68-.332-4.472.908-.769 1.2-.358 3.44 1.156 4.166 1.335.575 1.832.161.542-.733-1.66-1.151-1.337-3.093.527-3.085.46.002 1.273.515 3.328 1.632 1.471.795 2.518.46 2.52-.729.001-.795.456-.73 1.423-.252 1.302.644 1.16 1.227.472 3.027-.465 1.257-.696 2.685-1.12 3.999-1.098 4.422-1.244 9.43-.03 10.991 3.226 4.152 6.654 3.712 9.588.968l-.126 4.547c-2.992 2.401-6.487 4.038-11.884 12.94-1.882-2.364-9.957-12.028-22.906-14.21l-2.913-3.988c.049-.247-2.178-14.827-3.634-19.79 0 0 1.602-2.433 3.057-4.226 5.814-7.162 15.64-15.36 25.454-14.195zm-16.887 4.139c-.498.158-.66-.835-.389-1.025.599-.05.81-.03 1.41.013.454.028.443.548-1.021 1.012zm-21.85-.744c.646.46 1.435 1.7 2.206 2.83.427.625.185 1.662.252 2.686.094 1.45.255 3.843.357 5.313.2 2.866-.069 5.264-.488 6.129-.428 1.035-1.296.32-1.512-1.097-.051-.34.232-3.855.232-5.786 0-3.32-.848-7.418-1.048-10.075zm19.599-.02c.228-.013.402-.005.553.188.698.894.98 1.434.345 1.923-.841.703-1.608.526-2.075-.81-.3-.95.41-1.25 1.177-1.302zm-2.596.787c.751.503 1.497 1.83 1.575 2.786-.048.263-.279.486-.783.893-.5.458-.658.429-1.217-.452-.875-1.368-1.285-2.268-1.113-2.74.437-.455 1.006-.637 1.538-.487zm30.608.173c1.255.106 2.494.68 3.715.968l-1.863 1.801a39.261 39.261 0 0 0-1.852-2.77zm-33.393.939c.688.896 1.888 3.238 1.824 4.109-.175.296-.447.56-.736.726-.229.063-.435-.339-1.211-1.712-1.35-2.388-1.745-3.06-1.045-3.348.369-.04.93-.023 1.168.225zm-2.721.555c.75.668 2.552 4.226 2.604 5.227-.02.282-.105.526-.272.715-1.132 1.218-.846 1.022-2.532-2.449-1.424-2.854-1.8-3.136-.858-3.457.208-.071.73-.165 1.058-.036zm-2.707.928c.494-.007.633.82 1.596 2.702 1.613 3.56 2.219 4.054 1.853 4.435-.45.567-.713.966-1.14.277-.973-1.582-1.938-3.6-2.844-5.372-.725-1.322-.79-1.483-.324-1.806.267-.186.665-.233.859-.236zm28.79 1.012c-.605.17-3.043.942-1.55 1.081.302.029 1.067-.163 1.604-.2 1.509-.104 4.648.18 4.535-.109-.286-1.084-3.766-.983-4.588-.772zm-30.9.333c0 .06.39.753.78 1.433 2.293 4.43 3.567 6.042 3.16 6.742-.335.423-.853.955-1.16.828-.492-.203-1.15-1.652-2.79-4.934-1.696-3.392-1.872-3.645-1-4.086.356-.165.79-.288 1.01.017zm-2.29 1.562c1.053 1.713.915 1.488.903 7.062-.008 3.468-.454 5.68-1.034 6.534-.304.447-.84.184-1.106-.69-.122-.4.225-.995.29-1.628.41-4.174.124-8.345.133-12.295.318-.033.643.738.814 1.017zm27.177 1.367c.491.7.371 1.265.368 2.207-.006 1.333.09 1.431 1.01.758.816-.596.882-.635 2.337.353.863.586 1.952.652 2.656.005.496-.456.668-.25 1.333-.078.724.402.93.464 2.483-.29 1.048-.463 1.09-.53 1.714-.202 1.098.967 1.26.617 1.111-.647.003-.441.131-1.266.261-1.802.546-2.249-.338-2.273-1.507-.84-.453.555-1.461.795-2.415.348-1.365-.642-3.497-.382-5.072-.117-1.865.313-2.728-.2-3.477-.84-.424-.362-1.394-.685-1.501-.408-.108.278.112.714.7 1.553zm-25 3.154c.234-.05.592.641 1.117 2.106.676 1.89-.506 8.463-1.218 9.539-.376.565-.617.911-1.39-.135-.308-.46-.069-.606.236-1.899.464-1.966.855-5.146.88-6.626.006-1.92.111-2.928.376-2.985zm2.377 6.375c.168.012.364.391.633 1.14.38 1.03.195 3.013-.304 4.53-.29.885-.565 1.828-1.058 2.619-.168.443-1.028.288-1.266-.696-.15-.623.368-1.395.619-2.386.251-.995.538-2.26.68-2.898.263-1.555.45-2.326.696-2.309zm18.392 2.913a.116.116 0 0 0-.053.005c.004-.006-.01.01-.014.014-.04.04 1.793 2.036 2.284 2.594.257.217 2.465 2.9 1.092 2.284-3.464-1.435-7.517-.73-10.012 1.676-.313.302-.571-.006-1.517-.077-1.939-.144-2.643.624-1.464 1.58.181.146.558.212.728.446.156.215.11.601.19.709 3.75 4.976 10.692 5.944 15.05 2.694.548-.409.856-.553 1.367-.4 1.014.3 1.103-.548.208-1.735-.39-.517-.872-1.114-.592-1.286.554-.476.828-1.254-.135-1.545-.663-.201-1.407-.94-1.78-1.97-.436-1.203-4.705-4.901-5.352-4.99zm-17.015 2.178c.814-.019.852 4.794-.049 6.255-.462.553-1.52-.475-1.362-1.531.121-.803.986-4.42 1.184-4.608.08-.076.158-.114.227-.116zm16.61 3.004c.684-.006 1.62.3 2.364.972.402.363 1.107 1.937.814 2.554-.082.314-.927.295-1.004.066-.464-3.177-3.04-3.638-3.857-.672 0 0-.53.45-.597-.418.183-1.684.974-2.489 2.28-2.502zm20.735.276c.818-.016 1.598.396 2 1.27.279.61.31 1.122.198 1.39-.083.2-.358.113-.358.113-1.308-3.585-3.086-1.927-3.73.055 0 0-.673.207-.756-.006-.084-.214-.032-.617.235-1.175.511-1.066 1.483-1.63 2.41-1.647zm-17.485.222c.463-.025 1.255.351 1.848.948.602.607.66.97.174 1.419-.292.27-1.33.537-1.531.068l-.875-2.043c-.083-.194.174-.38.384-.392zm-6.298.097c.518.001.628.119-.186 2.011-.174.405-2.261-.183-1.864-.963.597-.622 1.532-1.05 2.05-1.048zm20.909.15c.208-.01.378.02.449.115-.187.067-.976 2.063-.976 2.063-.745-.09-1.635.015-1.796-.595-.153-.575.148-.926 1.197-1.328.318-.115.778-.24 1.126-.256zm6.109.511c.79.29.975.959.874 1.304-.077.262-.45.264-.715.063-.252-.292-.623-.79-.594-1.125.082-.334.183-.337.435-.242zm-39.378 1.844c.243.457.682 3.048.17 2.981-.498-.128-.73-.91-.817-1.613-.018-.145.425-1.351.647-1.368zm8.699 1.383c.23-.033.81.17 1.671.656 2.834 1.37 5.74 1.563 8.826.874 1.78-.461 2.234-.732 2.485-.427.428.519-.247 1.038-2.76 1.883-2.756.926-5.616.77-9.376-1.884-1.01-.713-1.142-1.06-.846-1.102zm31.452.714c.466.87-1.122 1.696-1.927 1.929-1.71.494-4.3.263-5.764-.616a4.294 4.294 0 0 1-.352-.235c-1.19-.886-.697-1.52.628-.836 1.425.735 4.325.87 5.863.128.77-.372 1.3-.839 1.552-.37zm-35.195 1.623c-.158.035.11.435.662 1.034 3.877 4.351 13.127 6.712 18.326 2.227 1.629-1.528 1.38-2.216-1.188-.995-2.84.935-6.876 1.057-10.367.54-1.717-.231-4.512-.89-5.931-1.927-.894-.653-1.363-.91-1.502-.879zm26.733.13c.237.02.652.107 1.552.576 1.314.683 4.297.449 5.274.088 2.058-.76 2.48.206.53 1.283-2.172 1.315-5.171.801-6.921-.893-.542-.486-.835-1.09-.597-1.139.023-.005.129.083.162.086zm-25.703 7.698c7.635.697 19.157 8.274 23.65 17.375h-2.585c-4.514-7.162-11.46-12.927-19.701-15.078-.326-.25-1.539-1.98-1.364-2.297zm33.89 1.667l-.353 2.516c-1.279 1.049-5.97 4.935-9.448 11.018-.724-.033-1.075-.907-.955-1.501 2.785-5.492 6.115-8.524 10.756-12.033zm-30.858 1.97c1.752-.121 13.149 6 16.986 13.738h-2.1c-4.318-5.622-9.116-9.29-13.374-10.761-1.036-1.093-2.17-2.93-1.512-2.978zm30.505 1.75l-.019 3.4c-2.727 2.655-4.72 5.325-6.28 8.588h-2.117s-.47-.933-.307-1.514c2.407-4.33 4.711-7.484 8.723-10.474zm-17.313 11.988h-2.049c-1.729-2.445-4.298-4.797-6.656-6.197-.967-1.198-2.05-2.676-1.614-2.915.026-.885 9.095 5.243 10.32 9.112zm17.358-6.917l-.045 1.966c-1.386 1.773-2.548 3.26-3.659 4.95h-1.746c1.592-3.436 5.592-7.845 5.45-6.916zm-23.516 3.807c.632.167 2.94 2.371 2.867 3.11l-1.04-.03c-.583-.736-1.274-1.502-1.684-2.256-.257-.476-.422-.918-.143-.824zm23.114.608c.007-.003.01-.002.015 0 .003.001-.02 2.502-.02 2.502h-1.753c-.19-.034.848-1.89 1.758-2.502z" fill="#131f67"/><path d="M153.978 26.47c-8.59-.001-17.277.048-26.941.15l65.248 92.577.053-20.566-20.939-27.02c4.765-1.47 10.584-2.485 15.166-2.894-5.884-13.045-8.828-25.296-6.235-42.087-9.27-.107-17.762-.158-26.352-.16zm25.265.59c-.51 5.927-1.182 12.538-.106 19.88-3.396-1.24-4.192.878-4.755 1.1-.64-1.424-3.006-3.888-5.685-.992-1.394 1.506-.717 4.338 2.517 5.616-3.703.284-5.627-2.88-6.277-6.145-2.002-1.28-4.106-2.547-4.306-7.04l1.026.172c-.34 3.134 2.916 4.73 4.821 3.234 1.233-.944 1.365-2.4.879-4.664.99-.202 3.308-1.173 2.695-4.15-.846-4.112-5.07-3.63-6.999-.926-1.604-1.985-4.544-2.353-5.723.73-.657 1.717.84 3.645 2.54 4.018-3.777.724-5.681-4.483-5.892-8.008l-1.565-2.777c10.21-.06 14.676-.048 26.83-.048zm-51.144.101l7.578.005 55.308 71.57.115 17.817zm19.16.005l1.208.014c.947 6.3 4.57 10.86 10.766 13.08.321 5.146 2.803 12.137 12.22 14.499-.278 5.811 3.455 11.364 7.452 14.026 0 0-1.079.267-1.922.348-5.374-4.26-6.698-10.534-7.23-13.123-.183-.374-.695-.464-1.102-.555-4.599-1.625-8.47-5.402-10.051-10.013l-.995-4.525c.002-.582-.116-.309-1.483-.812-3.547-1.306-6.827-5.143-8.297-9.727-.774-2.41-.566-3.212-.566-3.212zm-4.873.014l4.246.005s.025.749.086 1.237c.572 4.512 4.624 10.176 8.757 12.055.585.266 1.399.64 1.59.816 1.154 7.398 4.508 11.854 11.586 14.905.113.117.432.191.527.338.964 4.575 3.073 9.879 7.085 12.795l-1.734.179zm20.739 7.765c.96 0 1.739.779 1.739 1.739 0 .96-.78 1.733-1.74 1.733a1.735 1.735 0 1 1 0-3.472zm-58.596 9.488c.1.25-23.746 20.422-21.425 58.374l-.69.773.187.27c-.787.894-1.545 1.611-2.405 2.483 4.945 3.151 13.564 6.591 13.592 6.5l-1.647 3.816 10.302 3.328-1.382 3.627s-7.167-2.376-10.138-3.366c-1.465 3.25-2.352 6.68-3.42 10.06-.1.273-.334.142-.7-.386-5.351-9.126-16.342-15.712-15.972-15.06l-38.977 36.983-.266 22.855 26.975 27.801s-7.806 3.842-11.5 6.361c2.872 2.344 6.124 4.15 8.979 6.366 5.907 4.166 9.893 10.29 13.722 14.437 18.054-8.952 36.237-8.453 51.94-3.019-1.83 1.925-3.871 3.593-5.757 5.68 4.565 11.976 3.104 35.761 2.874 36.408 9.503-9.708 23.64-30.524 21.754-59.833l3.999-4.009c-.073-.205-10.004-5.521-14.142-6.679l1.145-3.642-9.911-3.096 1.106-2.894 9.872 2.86c1.87-4.59 3.85-11.017 3.85-11.017 3.942 5.898 8.288 11.262 17.233 16.72l38.755-37.078-.251-23.84-26.386-26.386 10.983-5.724c-1.055-.851-2.585-1.659-3.67-2.511-.078-.061.217-.245.14-.305-.276-.212-.478-.384-.759-.58-.063-.043-.261.243-.323.199-3.727-2.614-7.456-5.186-10.39-8.313-.073-.079.036-.404-.038-.483-1.525-1.628-3.043-3.144-4.593-4.747-.72-.726-1.908-2.45-1.908-2.45l-.068-.569-1.666-2.096c-5.366 3.165-28.244 11.109-50.381 2.313l4.207-4.206a32.09 32.09 0 0 1-2.135-8.187c-1.158-9.904-.715-27.738-.715-27.738zm69.783 5.607a1.836 1.836 0 0 1 0 3.67 1.832 1.832 0 0 1-1.83-1.834c0-1.013.817-1.836 1.83-1.836zm5.74 2.183c.934 4.562 2.988 11.185 5.035 15.65l-2.438.27c-1.985-1.29-4.083-3.17-4.303-5.84-5.368.041-6.938-8.378-4.977-7.368-.25 2.876 1.813 4.01 3.838 3.728 1.743-.243 3.25-2.65 1.175-5.307.922-.359 1.373-.63 1.67-1.133zm-76.073 13.49c.355 5.834 1.5 10.088 2.57 14.495L95.941 90.215c.827-9.134 3.51-17.297 8.037-24.502zm50.868 19.214l1.348 1.932c-15.328 9-41.49 9.637-57.428 2.047l2.116-2.014c14.015 6.329 36.832 6.799 53.964-1.965zM55.298 87.93c-1.544-.02-3.327.57-5.216 2.009-7.032-3.203-11.637 4.285-7.289 9.244-.643 3.57-1.13 4.235 1.556 7.85-2.854.362-6.456-.384-9.52-.856.518 5.287 8.088 6.517 11.24 5.936 3.402-.737 6.611.946 6.751.985 2 .559 3.244 1.522 5.217 1.986 3.253.774 8.018-3.04 8.708-6.66.065-.487.216-.928-.053-1-2.224.568-4.668 1.37-6.835 1.844-2.121.521-3.72 1.035-5.337 2.3l-.135-4.367c11.016.524 6.222-9.949 5.598-10.399 2.047-4.132-.415-8.82-4.685-8.872zm100.124.328l2.396 5.762-6.366 2.16-1.628-5.642zm-100.583.174c3.744.036 7.093 3.98 3.497 8.394 6.97 6.148-1.963 12.736-6.216 8.163-5.663 5.186-11.679-.23-8.515-5.878-6.04-5.404 1.408-12.652 6.496-7.984 1.25-1.92 3.036-2.711 4.738-2.695zm43.47 2.11a1.623 1.623 0 1 1 0 3.246 1.623 1.623 0 0 1 0-3.245zm-41.475.122c-.093 0-.203.043-.324.15-.181.016-.575.693-1.565 1.84-1.719 1.992-1.904 2.01-1.904 2.01-1.832-.598-3.056-.275-4.263.489 0 0-1.376-.261-3.275-1.848-.866-.724-1.332-.88-1.483-.492-.16.414.232.82 1.894 1.951 2.298 1.564 2.156 1.445 2.156 1.445-.142 1.374.08 2.491.6 3.532 0 0-.405.976-2.037 3.113-.461.604-.84 1.261-.84 1.459-.003.831.722.272 2.39-1.836.654-.826 1.552-2.009 1.552-2.009 1.96.679 2.646.266 3.874-.17 0 0 .422.313 1.49 1.165 1.956 1.558 2.379 1.724 2.619 1.526.323-.266.28-.353-.459-.888-2.205-1.597-2.964-2.52-2.964-2.52.448-1.746-.042-3.191-.523-4.102 0 0 .035-.223 1.28-1.613.914-1.021 2.165-2.633 2.086-2.864.021-.145-.1-.34-.304-.338zm45.135.352l5.734 1.782-1.266 5.96-6.11-1.97zm41.49 1.464l1.598 5.815-5.965 1.584-.976-6.173zm4.187.096a1.623 1.623 0 1 1 0 3.246 1.623 1.623 0 0 1 0-3.246zm13.557.208l5.014 4.463-5.564 2.81-2.68-5.815zm-47.275 1.29l5.825.685-.237 6.26-6.684-.894zm-20.208.067l6.482 2.845-2.338 6.53-6.636-2.85zm16.707.507c2.388.374 1.746 3.193 0 3.246a1.623 1.623 0 1 1 0-3.246zm20.957.005l.796 6.264-6.047.367-.13-6.365zm4.158.715a1.623 1.623 0 1 1 0 3.246 1.623 1.623 0 0 1 0-3.246zm-84.184.587a1.673 1.673 0 1 1 .005 3.347 1.673 1.673 0 0 1-.005-3.347zm71.607-.06a1.623 1.623 0 1 1 0 3.245 1.623 1.623 0 0 1 0-3.246zm28.482.4l2.357 6.438-6.607 2.13-1.87-6.612zm4.637.174a1.623 1.623 0 1 1 0 3.246 1.623 1.623 0 0 1 0-3.246zm11.422 1.826l4.27 3.018-2.115 1.179c-.555-1.327-1.534-2.9-2.155-4.197zm-61.03.584l6.303 1.367-.961 6.603-6.878-1.372zm-18.745.362l3.347 1.575-2.207 5.501-5.415-2.883zm14.963.358a1.623 1.623 0 1 1 0 3.245 1.623 1.623 0 0 1 0-3.245zm36.403.362l1.125 6.603-7.11 1-.439-6.734zm26.617.126a1.623 1.623 0 1 1 0 3.245 1.623 1.623 0 0 1 0-3.245zm-5.042.048l2.352 5.82-6.955 2.908-2.057-5.825zm-17.735.42a1.623 1.623 0 1 1 0 3.246 1.623 1.623 0 0 1 0-3.246zm-23.488.662l6.655.12-.077 6.676-7.288-.203zm53.23.464l2.618 1.816c-26.941 17.324-64.788 19.472-94.323 2.42 0 0 1.207-1.203 1.893-1.908 26.625 15.934 65.496 13.698 89.812-2.328zm-56.838.753a1.623 1.623 0 1 1 0 3.245 1.623 1.623 0 0 1 0-3.245zm13.664.367a1.623 1.623 0 1 1 0 3.246 1.623 1.623 0 0 1 0-3.246zm-31.699.894l6.95 2.009-1.183 5.487-7.622-2.193zm-4.598.038a1.623 1.623 0 1 1 0 3.246 1.623 1.623 0 0 1 0-3.246zm53.984 1.17l1.661 6.157-7.684 1.642-.927-6.056zm4.414.893a1.623 1.623 0 1 1 0 3.245 1.623 1.623 0 0 1 0-3.245zm-100.39.956l-.014 4.318a156.078 156.078 0 0 0-4.187-3.299c1.503.08 2.9-.335 4.202-1.02zm-15.827.106c.35-.003 1.172.283 2.15.28 3.129-.01 8.974.967 10.703 2.386.576.472 1.438.89 1.907 1.652-.001.363-.515.373-1.27-.096-1.449-.9-3.86-1.703-7.085-2.15-.583-.08-.656-.057-.657.218-.002.339.537.537 2.236.816 2.199.36 2.667.576 3.154.71 1.306.357.471.835-.873.963-5.486.514-9.593-1.846-10.42-4.542-.066-.177-.004-.235.155-.237zm76.424.097l6.902.893-.314 5.777-7.554-.865zm-58.693.502c1.206.947.376 3.816-.28 4.66-.425.475-1.42.224-1.416-.443.15-.6-.062-3.454.068-4.338.48-.273 1.189-.196 1.628.121zm79.983.256l.357 5.955-7.53.343.059-5.849zm-25.405.401a1.623 1.623 0 1 1 0 3.246 1.623 1.623 0 0 1 0-3.246zm-41.958.082c.278 4.37-6.434 7.336-8.945 5.994-1.112-.594-.649-.96 1.556-1.406 2.852-.755 4.73-1.49 4.733-2.023.001-.327-.431-.288-1.594.145-1.79.601-3.652.86-5.361 1.627-1.278.58-1.775.784-2.063.435-.602-.731 2.238-2.576 5.183-3.067 2.21-.368 4.437-1.546 6.491-1.705zm71.517.546a1.623 1.623 0 1 1 0 3.245 1.623 1.623 0 0 1 0-3.245zm-15.094 1.188a1.623 1.623 0 1 1 0 3.246 1.623 1.623 0 0 1 0-3.246zm36.162 2.758c10.861 10.342 22.766 22.248 32.587 32.041l-.043 15.374-37.5 35.64c-6.79-4.146-12.539-9.328-17.832-18.532.597-.516 1.122-.843 1.575-1.406l-1.956 1.169c-6.918-11.064-9.852-33.106 1.898-50.777l-11.872.435 1.937-4.043 12.925-.705 5.225-5.607s1.657-.307 3.029-.624c1.361-.314 4.14-1.109 6.177-1.767 2.038-.659 3.772-1.198 3.85-1.198zm-87.668 2.864s11.161 6.066 17.359 18.214c-20.033 17.232-27.585 37.3-29.289 58.185-10.903-10.198-16.413-15.84-26.265-25.743l.358-14.78zm42.136 1.927c-2.888 6.174-5.372 12.937-7.597 20.184l-3.106-.917s2.009-.84 2.903-1.372l-1.613-2.599 3.057-1.255-1.806-2.203 3.1-1.796-1.55-1.947 2.84-1.42-1.763-2.028 2.98-1.662-1.555-1.942zm.952.015s.4.076.87.169c.112-.044-.56 1.617-.489 1.676 1.085.223 1.148.163 1.473.26l.826-1.71 1.358.257c-2.738 6.178-5.666 12.939-7.347 20.256l-1.598-.333s.467-1.543.468-1.748c-.188-.04-1.088-.42-1.367-.532-.096.242-.666 2.029-.666 2.029l-1.266-.034c2.071-7.99 5.682-16.85 7.738-20.29zm5.202.236l2.835 2.348-3.217 1.25 1.666 2.217-3.41 1.232 1.956 2.304-3.376 1.246 2.014 2.787-3.51 1.183 2.216 2.449-3.168 1.483 1.898 1.879s-1.977.651-2.092.68c-.317.082-1.647-.246-1.647-.246 2.003-7.13 4.478-14.358 7.835-20.812zM49.97 118.92c-.783.508-.337 1.615-1.319 2.56-.157.17-.17.559-.232.899-.046.257-.822 3.343-.822 3.343s.196-.236.506-1.22c.265-.84.496-2.434.64-2.7.723-.22.833-2.582 1.567-2.259.424.187.343.573.104 1.478-.523 1.81-.728 2.573.17 1.338 1.339-1.612 1.47-3.068-.04-3.376a5.536 5.536 0 0 0-.574-.063zm20.256.672l-35.04 32.901-.107 12.278 12.196 12.36 8.655 8.389c3.142-18.79 10.35-36.714 28.095-52.226-2.719-4.372-7.377-9.88-13.799-13.702zm94.454.338c-20.59 9.676-25.324 29.522-18.948 47.488 9.812-12.62 17.513-24.475 18.948-47.488zm-73.28 1.005l9.351 3.009-3.52 12.007-8.42-2.555-.859-2.125zm72.246.313c-.894 16.057-6.95 31.74-17.484 44.044-5.327-13.14-2.123-34.15 17.484-44.044zm-50.361.087l-.59 1.493 1.295.367.55-1.517zm-1.295 3.526l-.53 1.517 1.327.449.498-1.54zm55.158.276c-2.882 22.272-14.915 42.54-27.627 52.868 4.05 6.57 8.814 10.797 13.654 14.325l35.809-34.302-.14-11.442zm-94.628 5.911c-.22.815-.297 1.229-.297 1.229s.412-.381 1.5-.977c7.036-3.51 4.766 1.827 1.451 3.801-.74.395-1.502.863-1.502.863s.704.16 1.467.301c4.27.887 3.36 3.385-1.093 2.996-.658-.057-1.432-.182-1.432-.145 0 .037.267.975.575 1.751 1.501 3.782-1.3 4.076-3.141 1.672-.257-.335-.838-1.259-.838-1.259s-.182.699-.293 1.375c-1.591 5.926-5.517 5.776-4.052-.237.184-.622.407-1.734.407-1.734s-.883.534-1.844.963c-5.085 2.27-5.91-.066-1.291-3.483 1.314-.972 1.76-1.354 1.76-1.354a13.46 13.46 0 0 1-2.239-.355c-3.685-.925-4.667-3.128 1.237-3.024.872.017 1.76.075 1.76.075s-.29-1.266-.598-2.22c-1.424-4.418 1.446-4.944 3.868-.986.515.841.663.847.663.847-.075.002.152-1.507.739-2.904 2.931-5.43 4.08-.474 3.193 2.805zm63.33-4.395c-2.46 4.346-4.604 8.666-5.627 13.171l-9.568-.164c.662-3.994 2.352-8.15 4.371-12.543 3.895-.107 7.408-.278 10.824-.464zm-25.26 1.927l-.55 1.599 1.385.425.503-1.555zm-71.55 3c-1.025 2.663-1.368 5.63-1.937 8.008-.24 1.378.004 1.952.83 2.26 1.176.439 2.872-.159 3.821-1.517.535-.765.923-2.346 1.005-5.139l.091-2.487c-1.454-.27-2.447-.66-3.81-1.125zm70.255.347l-.458 1.469 1.337.497.512-1.483zm61.968.551c1.628.04 1.93.186 3.405 1.058l2.845 2.927a3.907 3.907 0 0 0-1.212 2.83 3.923 3.923 0 0 0 3.921 3.922c1.073 0 2.754-1.13 2.754-1.13l4.508 4.67c-2.628 1.15-5.202-1.498-6.17-2.546-.227-.246-.285-.415-.285-.415s.04.129-.054.647c-.378 2.08-2.429 8.215-4.39 7.888-2.208-.368.04-9.14.064-8.937-1.518 1.605-8.916 3.313-8.397 1.521 1.03-3.56 6.563-4.932 7.29-5.55-2.942-1.77-6.672-6.678-4.279-6.885zm-131.866.115c.937.066 1.58.18 2.217.445.297.08.31.327.343.56.005 1.052.27 4.137-.705 4.169-1.083-.023-2.099.21-2.811.753-.573.438-.764.122-.609-1 .15-1.086.69-3.369.923-4.293.037-.382.34-.65.642-.634zm29.235.04a3.923 3.923 0 0 0 0 7.843 3.923 3.923 0 0 0 0-7.843zm0 1.371a2.547 2.547 0 1 1 0 5.096 2.547 2.547 0 1 1 0-5.096zm20.236.048c8.99 15.517 7.948 36.815-2.65 52.308l11.394-.797-1.497 2.918-12.148 1.183c-1.856 1.699-3.545 3.64-5.37 5.458l-.02.642c-4.164.967-8.332 2.08-12.577 3.61-2.24-2.2-6.455-6.598-6.427-6.709l.27-1.424c28.89-14.739 20.439-44.297 18.405-46.728 3.099-3.72 6.798-7.222 10.62-10.461zm80.178 2.821c1.17 0 2.116.95 2.116 2.12a2.117 2.117 0 1 1-4.236 0c0-1.17.95-2.12 2.12-2.12zm9.418.57l3.55 3.656a2.547 2.547 0 1 1-3.55-3.656zm-121.93.454c1.17 0 2.115.946 2.115 2.116a2.117 2.117 0 1 1-2.116-2.116zm-15.765.889c.992.332.76 1.259-.521 2.074-.83.528-1.59.644-2.32.254-1.382-.74 1.487-2.811 2.84-2.328zm16.378 5.187l-12.766 12.35c.804-2.052.833-4.098.894-6.148 3.841.396 5.45-1.553 4.888-5.564 2.481.148 5.052-.114 6.984-.638zm20.455 1.41c5.919 16.878.778 34.739-17.736 45.083.762-16.173 7.55-31.635 17.736-45.083zm16.86 1.478c10.16 2.66 21.726 3.9 33.733 3.908.09 4.569.31 9.4 1.246 14.065-10.229-2.676-21.653-3.92-34.133-3.7.518-4.83-.311-10.307-.845-14.273zm75.338 2.498l-10.82 12.649.455-6.907c3.643.464 4.941-1.458 4.404-5.255 1.988.246 3.973-.102 5.96-.487zm-105.128.7l-.855 5.052c-2.16.058-4.279.825-4.25 5.646l-6.453-.077zm119.067.932c1.17 0 2.115.95 2.115 2.12a2.117 2.117 0 1 1-4.236 0c0-1.17.95-2.12 2.12-2.12zm-128.881.642a2.117 2.117 0 1 1 0 4.236 2.117 2.117 0 1 1 0-4.236zm124.152 2.174l-1.13 7.65c-2.948-.259-5.408.196-4.651 5.38-2.494-.243-5.958.346-8.279.547zm-10.563 1.386a2.117 2.117 0 1 1 0 4.236 2.117 2.117 0 1 1 0-4.236zm-129.122 1.642a2.117 2.117 0 1 1 0 4.236 2.113 2.113 0 0 1-2.116-2.115c0-1.17.945-2.12 2.116-2.12zm7.027 2.507c2.706.607 1.454 6.915.845 8.631-.046.046 7.55-3.98 8.003-2.202.297 3.563-6.288 6.047-6.288 6.047s4.438 3.855 4.564 6.278c.011 1.568-1.856 1.278-4.28-.71-1.035-1.017-1.837-1.78-2.55-2.487a3.923 3.923 0 0 0-2.565-6.892 3.911 3.911 0 0 0-2.984 1.381c-.562-.541-1.198-1.172-2.053-1.98-1.4-1.31-2.382-2.35-2.24-2.82 1.846-1.301 5.52 2.193 5.848 2.51-.275-.68 1.757-7.394 3.7-7.756zm-3.7 7.757c.015.036.035.058.063.058l-.063-.058zm115.367-2.83c1.288-.018 1.208 2.911.75 4.433-.315 1.16-.624 2.11-.624 2.11s1.085-.846 1.565-1.071c3.503-1.64 4.809.217 3.043 2.371-.849 1.108-2.007 1.354-2.947 2.285 1.34.06 2.877.357 4.033 1.038.9.538 1.606 1.19 1.604 1.594-.004.906-2.228 1.394-4.308 1.16-.885.018-2.55-.455-2.55-.455s.69 1.161.941 1.855c.777 2.155.505 4.68-.618 4.675-1.879-.502-2.796-2.59-3.53-4.09-.604 1.671-1.188 3.46-2.531 4.704-1.332 1.232-2.015.209-1.947-1.88.027-.83.638-3.308.638-3.308-7.891 2.664-7.305-.94-1.147-4.096-3.793-1.809-6.098-3.437.355-3.805-.171-.155-1.298-3.61-.092-4.42 1.12-.752 3.508 1.83 3.622 1.956-.048-.255.629-2.278 1.763-3.675.87-.984 1.515-1.375 1.98-1.382zm-7.273 7.52c.008.007.015.008.019 0h-.02zm34.544-2.283c-1.375.125-2.23 1.345-2.865 2.408-.129.215-.367.292-.455.577-.57 1.833-1.067 4.03-1.371 6.763.87.358 2.834.962 3.703.637.244-.102.168-.734.251-.942 1.37-3.45 2.047-6.028 2.048-7.613 0-1.278-.44-1.91-1.311-1.83zm-141.198-.157a2.552 2.552 0 0 1 2.55 2.55c0 .81-.378 1.53-.966 1.995-1.643-1.637-2.483-2.495-3.584-3.574a2.542 2.542 0 0 1 2-.97zm141.684 1.215c.344.836-.763 1.745-2.196 1.739-.853-.004-1.13.117-.75-.622.451-.899 2.286-2.718 2.946-1.117zm-19.227-.591a2.117 2.117 0 1 1 0 4.236 2.117 2.117 0 1 1 0-4.236zm-111.769.15a2.117 2.117 0 1 1-2.115 2.115c0-1.17.945-2.116 2.115-2.116zm100.24.859a3.923 3.923 0 0 0 0 7.844 3.923 3.923 0 0 0 0-7.844zm-52.414.526c-1.031 4.52-2.618 8.84-4.622 13.114-3.781.228-7.868.404-10.563.787 4.489-7.863 4.597-9.711 6.26-13.876zm6.496.638c1.062.125 2.226.286 3.275.488-1.93 6.792-4.482 13.766-7.776 20.479l-1.995-.31-.947-1.168 3.169-1.266-2.468-2.521 4.09-1.236-2.516-2.483 4.043-1.01-2.164-2.627 3.627-1.415-2.304-2.975 3.864-1.063zm45.918.208a2.547 2.547 0 1 1 0 5.096 2.547 2.547 0 1 1 0-5.096zm-41.919.386l1.348.217-.416 1.445 1.536.328.498-1.56s1.235.114 1.367.212c-1.61 6.558-7.298 20.282-7.37 20.209l-1.464-.218.386-1.386-1.362-.193v-.014l-.657 1.506-1.453-.12c3.522-8.038 5.92-14.209 7.587-20.426zm71.59.522c1.08-.005 1.014.552.231 2.589-.736 1.913-1.011 2.68-1.368 2.928-.852.604-2.685.097-2.537-.784.483-2.859.654-4.078 1.392-4.466.77-.152 1.518-.264 2.281-.267zm-66.17.236l3.516.681-2.942 1.749 1.87 2.183-3.613 1.54 2.192 2.27-3.487 1.426 2.12 2.497-3.617 1.526 2.463 2.135-4.067 1.284 1.541 2.367-1.53.855-1.89-.295c3.135-7.313 5.15-13.328 7.443-20.218zm8.64 1.749l6.888 1.874 1.376 2.458-3.231 10.911-9.177-2.695zm-13.688 1.053l-.657 1.792 1.517.314.584-1.845zm-1.333 4.115l-.657 1.792 1.425.28.671-1.811zm-1.343 3.617l-.67 1.783 1.385.285.662-1.787zm64.71 3.28c.001 0-.703.51-.889.735.154.41.598 1.038.532 1.45-.06.31-.407.56-.926 1.114-1.297 1.509-1.753 1.345-1-.266.248-.506.357-.976.357-.976-.3.42-.526.918-.729 1.312-.427.824-.826 1.602-.826 1.602.826.285 1.375.899 1.908 1.297 0 0 .271-.73.459-1.429.261-.974.777-1.374 1.41-1.71.4-.211.78-.596.78-.596-.696-.71-.776-1.726-1.076-2.533zm-66.144.44l-.71 1.898 1.381.338.768-1.937zm-77.926 4.771c-.126 7.559.125 12.535-.14 20.687l20.465 26.52-3.193 1.073s-.035.368-.208.415c-4.373 1.203-11.466 2.4-11.466 2.4 5.276 12.047 8.697 27.11 6.337 42.156l52.965-.14zm112.015 12.81l-1.825 1.83c-26.936-14.578-64.035-14.52-91.107 3.13l-2.207-1.618c29.547-18.93 65.899-18.812 95.14-3.343zM32.428 195.173l62.34 89.551-7.322.106-54.964-71.902zm133.784 1.618s-1.8.467-3.313.951c-4.332 1.388-6.358 3.893-5.96 7.37.117 1.028.383 1.014 2.149-.1 4.13-2.608 4.389-2.723 9.534-4.232.398-.116.976-.028.976-.028l-.227 4.061c-8.577-.032-8.108 6.78-5.642 10.322-.863 1.638-2.753 7.355 3.468 9.53 3.103.617 6.39-1.904 6.289-2.034 5.724 2.707 12.366-1.832 7.187-9.694 1.947-3.428.574-5.974-1.285-8.162 0 0 .314.027 3.023.526 4.11.758 5.68.623 5.68.623.006-3.699-3.058-5.35-9.447-5.854-4.525.639-12.432-3.31-12.432-3.279zm-69.01.43c.31-.002.616-.002.923.005l-.3 6.317-6.96.319-.454-6.293c2.397-.166 4.625-.34 6.791-.348zm8.342.154l7.467.908-1.13 5.907-6.878-.739zm60.407.068c.767-.017.6.78-.3.956-1.342.263-4.784 2.267-4.786 2.787-.001.336.17.287 1.43-.386.63-.337 1.944-.91 2.917-1.28a63.2 63.2 0 0 0 2.473-.99c1.157-.522 1.73-.161 1.314.826-.276.652-.385.704-3.067 1.555-2.427.77-2.873.97-4.415 1.956a34.6 34.6 0 0 1-2.265 1.304c-1.585.821-1.907.824-1.903-.28-.087-3.272 3.533-5.728 8.438-6.433.06-.01.113-.013.164-.015zm-64.47.768a1.69 1.69 0 1 1 0 3.381 1.69 1.69 0 0 1 0-3.381zm-18.474.45l.556 5.732-6.844 1.758-1.565-5.921c2.618-.642 5.235-1.092 7.853-1.57zm88.165.434c1.876.285 1.727 4.582.768 5.327-1.476 1.064-2.383-1.16-1.724-4.11.185-.887.528-1.197.956-1.217zm-84.282.232a1.69 1.69 0 1 1 0 3.38 1.69 1.69 0 0 1 0-3.38zm33.433.492l7.738 2.111-1.894 5.99-7.26-2.044zm-4.212.116a1.69 1.69 0 1 1 0 3.381 1.69 1.69 0 0 1 0-3.38zm63.296.503c3.334.034 7.73 1.706 7.738 4.284-.068.732-6.983-.24-10.177-1.527-1.133-.456-2.514-1.844-2.511-2.424.001-.345.676-.32.951.014.45.547 2.042 1.117 5.7 2.039 2.809.707 3.089.735 3.09.309.002-.388-1.659-.924-3.458-1.222-.904-.148-1.749-.421-3.14-.541-.647-.003-.805-.41-.265-.686.59-.175 1.303-.254 2.072-.246zm-5.887 1.333c.84.394 1.144 1.18 1.608 1.593-.577.274-.834.55-1.768.619.017-.617-.151-1.353.16-2.212zm-101.327.463a1.69 1.69 0 1 1 0 3.382 1.69 1.69 0 0 1 0-3.382zm-4.55.478l1.826 5.854-6.54 2.845-2.318-5.8c2.26-1.19 4.734-2.053 7.032-2.899zm30.24.957s5.21.007 7.008.029l-.42 6.607-6.5.048zm-6.96.362l.363 6.598-6.26.84-1.236-6.636zm39.577.058a1.69 1.69 0 1 1 0 3.381 1.69 1.69 0 0 1 0-3.381zm45.29.155c3.811.016 7.446 4.4 3.68 8.993 6.177 4.752-.539 12.74-5.999 8.085-7.807 7.669-12.17-2.744-8.94-5.506-4.771-7.84 1.09-12.795 7.139-9.336 1.113-1.58 2.628-2.243 4.12-2.236zm-63.799.188l6.869 1.526-1.382 6.525-6.709-1.362zm22.73.16l6.279 3.12-4.869 4.684-3.617-1.801zm-40.257.738a1.69 1.69 0 1 1 0 3.381 1.69 1.69 0 0 1 0-3.38zm13.567.213a1.69 1.69 0 0 1 0 3.38c-2.488-.389-1.819-3.325 0-3.38zm-31.274.951l1.531 6.525-6.36 2.15-2.275-6.356zm4.371.464a1.69 1.69 0 1 1 0 3.381 1.69 1.69 0 0 1 0-3.381zm94.16 3.009c-.48.595-1.108 1.295-1.108 1.295-1.582-.652-3.116-.392-4.143.312 0 0-1.09-.87-2.086-1.675-1.726-1.394-2.302-1.713-2.304-1.13 0 .121.586.718 1.3 1.328 1.945 1.666 2.343 2.266 2.343 2.266-.467 1.511-.462 2.695.431 3.966 0 0 .038.165-.646.887-1.24 1.308-2.52 3.327-2.225 3.624.366.37 1.403-.515 2.703-2.272.927-1.252 1.205-1.28 1.205-1.28 1.581.427 2.457.813 4.038-.491 0 0 .596.18 1.787 1.163 1.856 1.532 2.522 1.862 2.724 1.343.164-.423-.08-.707-1.652-1.903-1.023-.779-2.162-1.69-2.162-1.69.335-.55.572-2.5-.573-3.836 0 0 .045.088 1.738-2.105 1.126-1.459 1.32-1.643.948-1.956-.498-.651-2.151 1.946-2.319 2.154zm-49.058-1.87l6.197 2.604-2.217 6.477-5.984-2.444zm-68.184.435a1.69 1.69 0 1 1 0 3.382 1.69 1.69 0 0 1 0-3.382zm63.393.174a1.69 1.69 0 1 1 0 3.382 1.69 1.69 0 0 1 0-3.382zm-67.72.464l2.028 5.023-4.612-3.439zm50.854 1.294l6.172.73-.975 5.883-5.323-.483zm-6.738.015l-.063 6.047-5.863.251-.498-6.037zm-30.168 1.101a1.69 1.69 0 1 1 0 3.382 1.69 1.69 0 0 1 0-3.382zm-4.675.12l2.386 6.077-3.7 1.787-4.96-4.695zm22.068.078l.956 5.782-6.114 1.511-1.483-5.882zm87.397.058a2.41 2.41 0 1 1 0 4.821 2.41 2.41 0 0 1 0-4.82zm-71.545.184a1.69 1.69 0 1 1 0 3.38 1.69 1.69 0 0 1 0-3.38zm16.653.623l6.52 2.11-2.192 5.222-5.632-1.527zm-28.897.217a1.69 1.69 0 1 1 0 3.381 1.69 1.69 0 0 1 0-3.38zm24.792.623a1.69 1.69 0 1 1 0 3.381 1.69 1.69 0 0 1 0-3.38zm-41.402 1.98l2.246 5.168-6.134 2.652-2.671-5.27zm4.347.31a1.69 1.69 0 1 1 0 3.381 1.69 1.69 0 0 1 0-3.381zm22.599 1.56c10.07-.021 19.16 2.084 26.458 5.105l-2.173 2.038c-23.67-8.134-39.149-4.47-55.023 2.492l-1.603-1.98c11.22-5.488 22.27-7.634 32.34-7.655zm26.777.062a1.69 1.69 0 1 1 0 3.381 1.69 1.69 0 0 1 0-3.38zm-61.683 3.71c1.358.08 1.488 2.614.855 1.883l-1.512-1.748c.246-.105.463-.147.657-.135zm63.277 1.048c-.05 1.922-1.87 14.802-8.013 23.657-.373-4.48-1.454-9.834-2.661-13.408 0 0 6.61-6.107 10.674-10.25zm-78.578 19.518l31.964 43.102-3.356-.025c-.702-3.165-1.717-6.403-3.71-8.824-1.618-1.965-3.067-3.446-5.97-4.767-1.746-.794-1.971-.625-2.081-1.966-.527-7.538-6.632-12.28-11.307-14.084-.451-4.556-2.508-9.04-7.665-12.813zm-3.112 1.032c2.92 2.007 6.12 3.748 7.846 11.66.13 1.656.23 1.48 1.53 1.966 5.095 1.493 9.526 7.616 9.921 12.969-.004 1.614.522 1.757 2.512 2.593 2.442 1.026 4.978 3.196 6.414 5.332 2.135 3.071 2.889 7.722 2.704 7.501l-1.758.01c-1.254-7.885-6.215-11.03-11.462-12.504.408-11.131-8.247-14.605-11.27-15.128.178-8.018-5.01-11.326-8.358-14.016.625-.246 1.92-.383 1.92-.383zm-5.17 1.105c2.614.855 4.595 4.498 4.394 6.175 3.449.434 7.072 3.768 6.276 7.24-.255.147-.657.177-1.056-.222.924-6.736-9.132-3.401-5.114 1.473l-1.797 1.173c-1.445-6.741-3.224-10.56-5.155-15.43.705-.186 2.451-.409 2.451-.409zm8.325 14.125c.894 0 1.614.725 1.614 1.618a1.614 1.614 0 1 1-3.232 0c0-.893.725-1.618 1.618-1.618zm8.634 7.271c3.84 1.086 5.083 4.973 4.956 6.388l-.839-.02c-1.35-6.158-8.37-2.808-5.44 2.104-3.752 1.387-3.456 4.85-2.35 6.22 1.524 1.89 5.412 1.83 6.597-1.079 3.649 4.72 8.682-.576 4.241-4.975 3.637 1.34 4.22 6.212 3.674 7.734 1.688.576 3.633 3.255 3.373 3.24l-27.25.005s1.319-10.996-.083-19.296c1.814.436 3.03.875 5.115-1.574 3.376 2.795 5.802.685 5.627-1.73-.26-1.688-1.132-2.527-2.579-3.419 2.955-.726 5.189 4.384 4.958 6.402zm3.04 7.747a1.666 1.666 0 1 1 0 3.333 1.666 1.666 0 0 1 0-3.333z"/></svg>