<svg xmlns="http://www.w3.org/2000/svg" width="224.225" height="312.808"><title>Vectorized Playing Cards 1.0</title><rect ry="10.63" rx="10.63" width="223.228" height="311.811" x="2466.968" y="483.937" fill="#fff" stroke="#000" stroke-width=".997" transform="translate(-2466.47 -483.438)"/><path d="M193.206 24.937l-163.196.081.982 262.016 163.779-.342c-1.268-87.36-1.388-174.553-1.565-261.755zm-19.253 2.205l17.211.087V128.05s-1.072-.03-.973-.736c.134-.946-.011-2.714-.674-3.458-.28-.314-.735-.807-.915-1.166-.452-.9-1.196-1.833-1.791-2.085-.296-.125-.64-.195-.684-.4-.042-.19-.139-.818-.265-1.396-.317-1.447-.598-1.402.323-2.841 3.19-4.99 4.418-9.578 4.015-14.129-.126-1.42-.483-3.262-.651-3.515-3.083 3.09-5.315 6.908-7.413 9.729-.468-4.03-.4-7.072-.469-10.303 1.647-.47 2.643-1.346 3.352-3.588 0 0 1.765 1.382 2.846 1.185l-.712-2.604c4.722-1.449 5.367-7.61-.209-8.912l.502-3.245s-1.682.564-2.422.925c-.368.155-.46.032-.718-.5-2.6-4.046-6.637-3.185-8.418.803l-2.176-.924c.236 1.103.517 2.223.318 3.327-4.569 2.035-3.44 7.602.207 8.332l-.318 2.6 2.745-.886c.4 1.222.195 1.928 2.388 3.304-.053 5.45-.142 8.858.03 13.7-2.86-2.927-5.62-4.96-10.456-6.453 0 0-.045 1.174.236 2.957.093.588.075.502-.202.501-.629-.014-3.462-4.57-3.462-4.57s-.33.004-.617.289c-.337.335.434.953 1.517 2.562 1.268 1.883 1.146 1.803.15 2.648-5.664 4.806-13.843 23.095-12.469 24.874-3.58.214-17.533 7.055-20.067 21.16-.15.635-.448 1.46-.448 1.46l-4.035-1.002c2.434-11.553 7.926-35.044 7.926-35.044s3.862-1.098 6.121-1.34l-.024-.91-5.316 1.238.255-2.013 5.018-.987-.015-.477-5.311.713.866-3.352s-11.924 1.752-16.195 1.623c.27 13.034-.758 23.861-.205 37.908l-5.83-3.533c-.518-9.78-.673-34.48-.673-34.48l-16.097-2.53.535 3.881c-13.344-5.289-26.731-10.155-36.588-20.494 6.068-4.657 16.195-9.276 16.195-9.276l-.332-.741C54.66 98.716 45.41 107.635 32.9 118.7l-.337-91.471 67.96-.034-.226 16.682s-.089.432-.217.583c-.831 4.04 1.554 11.214 1.074 14.707.222 1.078.144 3.082.144 3.082-4.057 5.557-6.207 10.833-8.013 17.293-.699.278-1.729.85-2.456 1.045l-.207.882c1.592-.875 6.106-2.302 6.106-2.302 20.111 9.804 34.889 7.404 50.705.12-2.522 8.852 2.96 20.108 11.982 22.475 1.031.27 2.798.501 3.81.236 1.01-.291-2.274-7.804-3.728-8.086-4.358-1.887-6.152-6.322-5.688-11.408l-.722-1.214c-1.486 6.18 2.089 12.453 6.997 13.985l1.32 2.88c-8.896-2.668-12.684-10.998-9.723-19.234.051-5.14-3.278-7.412-4.806-9.627-7.737-2.95-9.174-10.115-7.821-15.906 3.601 1.532-2.427-5.085-2.427-5.085-2.653 5.745-3.761 13.009 2.306 20.37-3.925 5.201-8.986 9.315-14.644 12.83-8.27 4.314-14.474 1.407-18.469-8.149-2.398-5.737-3.257-11.457-3.245-17.447.013-3.71.055-3.822 1.444-3.193 1.306.59 4.137.674 5.827-.198 2.304-1.188 2.195-.465-.313 2.114-.682.702-1.41 1.335-1.41 1.47-.004.76 1.07.12 2.6-1.397.558-.554.971-1.087 1.146-1.079.2.01.182.722-.048 1.493-.089.296-.37 1.546-.626 2.774-.257 1.228-.609 2.67-.78 3.207-.68 2.13-.496 3.117 1.547 4.101 1.077.519 2.919 2.285 2.903 2.285 0 0-.44-1.937-.277-2.56.196-.748 1.086-.219 1.992.214 2.005.958 3.171.985 4.247.087 1.484-1.24 1.059-4.022-.776-4.748-1.346-.533-1.581-.04-.238.897 2.016 1.405-.257 3.578-1.969 2.231-1.339-1.053-3.664-1.171-3.923-.294-.246.83-.5.679-1.426.137-1.44-.842-1.453-.99-.246-5.634 2.286-8.796 2.062-12.026-.968-14.698-2.242-1.978-5.947-2.897-9.79-.698v-2.996c5.642-2.254 9.746-5.984 13.056-12.227h.645c3.295 7.135 8.621 12.259 18.642 16.017 3.915 3.866-4.963-11.102-2.129-4.974-5.317-2.06-10.057-6.05-12.665-11.043h1.45c1.526 2.207 4.621 6.234 10.131 9.015.5.419.983-.014.983-.014s-4.623-7.243-5.38-8.967l46.188-.327c-1.466 11.249-3.53 23.473 4.592 45.381-3.81-2-19.084 2.261-16.395 3.103 1.35-1.557 11.083-3.857 18.285-2.157-.595-.514-10.983-24.617-4.94-46.087zm4.94 46.087c.014.011.026.017.03.005-.01-.003-.02-.003-.03-.005zm-35.684 43.409l.043 1.763.366-.087-.212-1.715zm-41.7-89.443h2.028c-.445.916-1.095 1.602-2.086 2.167zm3.487 0h2.181c-1.7 2.705-3.506 4.344-5.687 5.625l.039-2.119c1.26-1.105 2.463-2.247 3.467-3.506zm3.607 0h2.013c-2.732 4.197-5.536 7.015-9.126 8.799v-1.715c2.217-1.724 5.362-4.259 7.113-7.084zm3.072 0h1.628c-2.799 5.332-6.702 9.014-11.813 11.062v-1.281c5.598-2.983 8.048-6.313 10.185-9.78zm4.45 0h1.955c2.683 5.33 8.256 10.373 14.375 12.584l.935 2.162c-8.067-2.896-13.41-7.121-17.265-14.746zm5.659 0h1.396c1.468 2.046 3.247 3.709 5.326 5.09l1.267 2.452c-2.806-1.888-5.938-4.18-7.99-7.542zm2.547 0l1.56.082 2.066 3.443c-1.376-.773-2.418-2.346-3.626-3.525zm-1.791 13.84c-2.14-.01-4.086.58-5.495 1.73-1.489 1.213-.394 2.535 1.748 1.54 3.648-1.693 7.838-.93 12.362 1.546 3.809 2.085 2.474-.087-1.079-2.408-2.436-1.61-5.112-2.396-7.536-2.407zm-17.202 2.731c3.068.024 6.584 1.383 6.67 3.183-2.036-1.702-6.126-2.529-10.05-.78-.301-.064-.343-1.131-.165-1.522.845-.623 2.15-.892 3.545-.88zm18.584 1.16c-1.94 0-3.716.508-4.537 1.6-.419.517-.53.572-.992.496-.902-.15-.852.371.178 1.8.5.694.418 1.483-.25 2.423-.767 1.08-.617 1.12 1.666 2.215 1.746.85 3.148 2.056 4.734 3.049 1.133.639 1.36.077.313-.766-.359-.29-1.423-1.049-2.379-1.671-1.62-1.055-2.81-2.12-1.522-1.647.59.186.743.264 1.392.375 1.67.361 3.319.562 4.72.28 1.004-.201 2.314-.866 3.39-1.797.275-.126.546.008 1.213.034 2.552.1 1.989-.65-1.675-2.648-3.626-1.978-6.47-2.339-8.79-1.253-.981.46-1.543.575-1.4.285.148-.303.42-.655.861-.91 3.749-2.244 6.761-.384 10.065 1.3 1.418.845 1.802 1.064 1.97.794.216-.346-1.581-1.623-3.992-2.831-1.414-.733-3.253-1.127-4.965-1.127zm-11.984 2.598c.635.248.35.973-.23.745-3.46-1.554-4.155-2.312-8.281-.873-1.364.475-1.904.055-.23-.662 3.644-1.526 6.29-.497 8.741.79zm-2.372 1.828c-.938 4.762-5.678 3.294-5.143.024l.871.005c.068 2.876 2.95 2.857 3.444.03zm27.57.01l1.276 2.73c-2.792 6.876.999 16.135 9.242 18.353 0 0 1.33 2.044 1.069 2.302-15.475-3.424-14.285-18.177-11.587-23.385zm-14.659.178l.433.024c1.337 3.32 3.278 1.412 3.656.01l.987.024c-.302 3.438-5.517 4.021-5.076-.058zm-11.929.097c.627-.073.84.866.665 1.04-.048.048-1.194 1.16-1.334.505-.205-.958.41-1.499.67-1.545zm-7.218.096c.053 0 .106.003.163.01.389.295.536 1.18.333 1.637-.23.238-1.16-.087-1.34-.443-.275-.52.05-1.21.844-1.204zm25.1.318c.305.012 1.145.375 1.064.78-.021.103-1.191.964-1.455.823-.507-.27.195-1.507.294-1.584.017-.014.053-.021.096-.02zm-6.84.149c.009-.002.017-.002.02 0 .09.067.838.532.202 1.392-.043.06-.891-.243-.905-.342-.069-.5.567-1.015.684-1.05zm18.753 6.03c-.188 3.951.842 7.788 5.158 10.252l-.93-1.695c-1.106-.882-3.424-3.397-3.134-6.39zm-38.757 7.064l.487 2.6c-2.375 3.947-4.178 7.825-5.673 12.358l-2.244.818c1.781-5.716 3.429-10.246 7.43-15.776zm.944 4.05l.636 2.235c-1.166 2.148-2.412 4.576-3.164 7.401l-2.48.915c1.116-3.743 2.748-7.38 5.008-10.551zm7.864.925a.423.423 0 0 0-.11.014c-.027.44-.022 1.658.072 3.665.018.38.391.22 1.445-.318.918-.47.823-.544 1.714-.246 2.466.845 3.587.478 4.55.23 1.47-.378 2.07-.225 2.924.286.47.28 1.11.488 1.238.534.676.246.418-.051-.044-1.878-.52-2.054-.296-2.28-1.12-1.744-.18.117-.703.406-.989.44-.717.083-1.915-.796-2.63-.517-1.73.677-1.714.499-3.32.105-.804-.197-1.573.293-2.27.43-.4.05-.905-1.005-1.46-1.001zm29.434 1.064c2.923 2.681 5.929 3.599 9.189 4.613-.393 1.334-1.18 2.833-1.546 4.575-16.966 8.968-34.016 8.686-50.098.545l8.345-3.188c4.56 7.896 10.405 10.004 16.976 7.42 7.343-3.415 12.78-8.167 17.134-13.965zm-36.253 1.58l.723 1.935-1.074 2.919-2.047.828c.392-1.988 1.148-3.622 2.398-5.683zm15.334 2.244c-.508.024-1.275.366-3.025.375-.947.006-1.689-.079-2.056-.005-.762.155.129.495 1.835.983 1.706.485 3.79-.247 4.05-.987.063-.181-.162-.397-.804-.366zm-14.135.953l.448.983-.765.274zm45.11.554l1.266 2.885c-2.195 4.749-3.651 17.765 11 21.815l.64 1.864c-9.972.194-19.964-12.48-12.907-26.564zm-33.547.982c-1.432-.014-2.93.342-3.896 1.108-.873.69.194 1.125 1.33.573 1.47-.715 3.923-.656 5.364.246 1.102.75 1.676.618.939-.525-.578-.898-2.115-1.385-3.737-1.402zm63.968 3.241c3.829-.063 4.227 5.419 3.481 5.89.216-.073.87-.265 1.801-.24 2.807.073 4.27 1.624 4.43 3.88.164 2.274-1.564 3.541-4.083 3.415-.935-.047-1.579-.141-1.536.024.468 1.817-.097 4.556-2.504 5.24-.277.078-.67.464-.68.602-.18 2.882.641 12.78.641 12.78s4.513-7.584 5.529-8.735c1.986-2.712 2.345-2.47 2.35 2.037-.33 6.25-1.332 7.685-5.013 12.93-1.577 2.26-5.308 1.073-4.97 2.6.074.338.68.944 1.286 1.518.387.367.788.598 1.695.568 1.592-.053 2.212-.376 1.26 1.008-.752 1.095-3.397 1.322-3.695 1.891-.693 1.325-.218 1.032-1.404 2.196-.906.994-.59.487-.178 1.305.649 1.055.379 3.161-.265 4.58-.524 1.156-.465 1.98-.465 1.98.01.097 1.473-1.51 1.915-3.367.368-1.545.798-2.32.795-1.454-.005 1.09.186 2.574 1.17 3.14.778.447.89.894.76 1.444-.133.569.475 1.07 1.075 1.546.14.14.614.326.563.626-.16.95.225 2.066.918 2.248.308.153 2.273-.015 2.598-1.121-.032-.353-.003-1.804-.785-1.888-.553-.254-.495-.406.342-.905 1.252-.747 2.16-1.282 2.778-1.397.828-.112 1.623-1.011 1.623-1.011l.159 59.667c-7.426 7.6-15.565 15.165-26.299 22.6-6.237-5.198-13.053-10.46-20.289-14.399l-2.499-1.478.896-1.146-4.34-5.721 4.884-3.93 1.238 1.565-2.312 2.244 3.467 3.834 7.792-7.6-5.133-4.912 2.672-5.003 1.71.838-1.29 3.173 3.905 2.47 4.888-9.708-6.198-2.822 1.57-6.52 1.912.202-.636 4.695 4.83.958 1.965-11.07-7.089-1.267.602-6.314 1.98.024-.29 3.492 5.01.712.943-9.65-6.95-1.151.897-7.45 1.589.226-.308 4.594 5.1.872c.56-3.116 1.017-7.028 1.849-10.084l-6.569-2.447 2.326-6.255 1.479.515-1.291 3.39 4.85 2.061 4.088-8.066-5.712-4.04c1.28-2.123 2.558-4.141 4.388-5.861l1.122.977s-.412.372-1.045 1.248c-.77 1.064-1.01 1.601-.906 1.878.104.273 3.633 2.879 3.901 2.88.311 0 1.482-1.066 2.085-1.782.646-.767.984-.84 1.652-.361.133.095.325.284.462.447.16.193.225.355.241.477a.372.372 0 0 1-.048.25c.057-.053.18-.146.443-.293.48-.268-.929-1.506-2.08-2.148-3.445-1.933-7.496-5.575-8.433-10.132-.343-2.047 4.947.415 8.592 4.045.552.55 2.605 2.538 2.605 2.538-.3-5.267-.728-10.618-.496-15.95l-.804-.559c-1.126-.784-1.56-2.07-1.662-3.36-.07-.89.693-1.345-1.05-1.287-3.626.032-5.725-3.38-3.525-6.299.786-1.092 4.131-1.625 4.127-1.599-.854-3.49 1.712-5.361 3.603-5.538zm-1.32 40.583c-.069.065-.04.065 0 0zm4.801-34.693l-.1.034a.208.208 0 0 0 .1-.034zM63.046 96.176c10.127 8.526 16.589 14.262 37.202 20.684l.51 3.053c-11.853-2.737-24.783-8.276-40.154-22.047zm-3.048 1.97c6.412 5.986 12.985 10.545 19.638 14.37l2.336 1.406-1.204 1.233 3.915 5.644-5.037 4.108-1.2-1.195 2.63-2.576-3.742-3.68-7.623 7.716 5.225 4.632-3.03 4.657-1.097-.496 1.608-3.246-4.854-2.648-5.427 9.973 6.91 3.145-1.56 6.12-1.613-.081.544-4.797-5.196-.92-1.748 11.207 6.684 1.05-.159 6.453-1.782-.03.125-3.645-5.278-.246-.472 9.406 6.497.842-.646 7.633-1.598-.409.178-4.955-4.95-.487-1.706 10.537 6.68 1.907-2.36 6.569-1.45-.795.95-3.39c-1.219-.531-4.643-1.955-4.643-1.955l-4.363 8.182 5.658 3.852-3.481 6.116-1.344-.9 2.403-3.569-4.7-2.952-2.678 3.655c-1.136-.987-3.179-2.357-3.958-3.274-.833-.759-1.466-.874-2.538-.622-.846.2-1.66.353-1.474.053.092-.147 1.698-1.228 4.151-2.783.687-.435 1.227-.815 1.219-1.204-.006-.29.371-.75.867-1.05.548-.331.425-.64.337-.982-.474-1.84-.175-4.71.751-6.641.62-1.293.814-1.525.41-1.527-1.195.153-2.65 4.479-2.929 5.697-.093-.097-.223-1.237-.308-1.676-.153-.792-.264-1.284-.9-1.435-.761-.18-.52-.545-.598-1.117-.125-.928-.564-1.516-1.358-1.844-.764-.317-.847-.444-.813-1.204-.003-.598-.626-1.61-1.089-1.931l-2.648.934c-.209.7.068 1.606.505 1.936 1.331 1.252-.616 1.27-1.95 2.085-.36.233-.792.74-1.084.573-.847-.277-.78 2.253-1.613 1.936l.202-60.693c7.097-7.348 27.778-22.672 27.778-22.672zm107.265 10.734l1.021 1.132c-3.166 3.563-5.463 7.231-7.994 11.711-2.16 3.823-4.025 9.174-5.003 15.011-.755 3.573-.872 7.209-1.34 10.864-.475 3.934-.566 9.23-1.319 13.383-1.39 11.391-4.589 17.453-11.543 23.915-3.056 2.84-12.565 8.205-12.824 8.153l-2.254-.558c19.498-9.981 24.372-16.865 26.482-40.491.412-29.642 13.895-41.124 14.774-43.12zm1.917 1.984l1.045 1.006-5.692 8.038 5.61 3.954-2.225 5.196-1.7-.631 1.21-3.544-4.72-1.99-3.814 10.326 6.722 2.119-1.107 6.727-1.358-.366.005-4.584-4.99-1.017-1.449 11.534 7.349 1.021-.54 5.952-1.738-.12-.067-3.544-5.1-.27-1.166 9.997 7.238 1.228-1.31 7.104-1.54-.366.346-4.686-4.854-.64-2.808 9.592 6.097 3.073-3 6.15-1.286-.896 1.661-3.636-4.743-2.34-4.58 7.936 4.97 4.888-4.854 5.085-1.084-1.387 2.504-2.697-3.741-3.703-7.783 6.188 3.973 5.235-.467.66-4.103-1.647-1.965-2.596-2.35 1.03-1.854-.707c11.494-6.027 18.973-13.015 22.061-23.554 1.696-5.827 2.2-12.185 2.75-18.594.286-3.328.582-6.67 1.064-9.959.567-5.37 1.389-9.878 3.569-15.058 2.643-6.284 5.856-10.712 9.814-15.507zm-61.853 3.973l7.893 4.16-.116 2.765-7.296-3.655zm2.22.077l5.625.77.024 2.269zm-25.355.072l3.284 1.479 2.784 3.212 2.085-1.368 2.263.848c-7.151 3.675-13.497 8.073-18.44 15.66-5.506 8.456-6.118 19.526-6.823 30.21-1.175 14.738-3.702 25.09-13.499 37.038l-1.444-.91 5.287-8.4-5.962-3.852 2.717-4.965 1.372.472-1.064 2.962 4.931 2.6 3.78-10.585-6.954-2.167 1.166-6.622 1.748.155-.462 4.743 4.97.785 1.425-11.192-6.699-1.026.15-5.913 1.642.159-.01 3.597 5.283.284.41-10.21-6.57-.726.81-7.21 1.84.188-.424 4.325 5.056.722 2.398-9.333-6.568-2.966 3.544-6.304 1.594.732-1.628 3.491 4.556 2.22 4.777-7.3-5.076-4.874 4.985-5.215 1.223 1.199-2.706 3.11 3.751 3.468 7.426-6.231-3.626-5.452zm47.237.347l-.23 2.615-7.913 4.493-.005-2.562zm42.466.091l1.748 1.084-1.267 1.502-1.526-.963zm-45.793.371l-4.739 2.736v-2.721zm55.882 2.553c.247.005.474.058.65.173.477.311.408 1.077-.13 1.454-.701.491-2.622.458-2.813-.048-.274-.729 1.22-1.604 2.293-1.58zm-75.632 1.078l6.8 3.67-.024 2.586-6.544-3.597zm22.153.082l-.4 3.371-7.002 3.713-.058-2.923zm-33.893.063l2.788.708c-10.322 4.605-20.524 11.284-24.493 22.937-1.239 3.488-2.075 7.369-2.619 12.338-.256 5.24-.932 10.399-1.18 14.769-.504 8.899-3.433 20.95-13.552 33.755l-.968-.761c6.208-7.65 9.435-14.585 11.428-21.912 3.158-11.66 1.592-24.526 4.96-36.263 2.054-7.14 6.32-13.524 12.709-19.046 4.446-3.454 10.927-6.525 10.927-6.525zm4.685.977c.03-.001.045 0 .049.01 2.506 8.437 5.6 23.814 5.6 23.814-6.629-3.206-17.664-2.62-17.664-2.62s-6.209-8.009-7.411-8.668c4.965-6.698 18.48-12.489 19.426-12.536zm85.355 1.33c1.526-.05 1.417 2.27-.516 3.847-.987.806-1.443.693-2.172.048-.214-.287-.835-.492-1.29-.438-1.083-.004 1.057-2.244 2.962-3.169.393-.19.733-.28 1.016-.288zm-77.5 1.887l6.063 3.111.058 2.562-5.61-3.043zm20.553.347l-.327 2.817-6.313 3.285.033-2.596zm59.08 1.05c.21-.02.373.061.525.231.86.959-.775 3.863-2.63 4.734-.711.334-1.15.28-1.743-.231-.288-.248-.714-.574-.958-.55-1.062.11-.476-1.08.38-1.15.237-.02 1.722-1.131 2.846-2.066.754-.627 1.23-.936 1.58-.968zm-6.415 1.132c1.34-.033 1.828 1.083.241 1.57-1.13.346-1.76.1-1.757-.66.237-.78.92-.872 1.516-.91zm-72.385 1.507l5.38 2.697.023 2.764-4.94-2.576zm19.249.38l-.376 2.615-5.793 2.976.014-2.162zm60.721 1.098c.367.023.475.431.472 1.156-.004 1.2-.8 2.309-1.994 2.851-.874.397-1.49.366-1.926-.101-.198-.213-.474-.385-.616-.39-1.872-.074-1.57-.557.221-1.305.631-.264 1.87-1.122 2.456-1.541.66-.472 1.102-.687 1.387-.67zm-6.867.853c.918.003 1.726.65 1.218 1.069-.394.325-1.875.482-2.167.188-.554-.559-.06-1.261.949-1.257zm-72.212 1.859l4.584 2.47-.024 2.63-4.377-2.476zm17.587.202l-.106 2.692-5.264 2.596-.033-2.567zm56.633 1.116c.89.065.778.927.058 1.345-.537.373-1.233.176-1.517-.26-.64-1.216.814-1.07 1.459-1.085zm1.786 2.763c.148.298.066.83-.226.998-.39.165-1.403-.007-1.56-.302-.128-.243-.1-.37.15-.617.414-.33 1.345-.574 1.636-.079zm-75.342.05l3.916 2.139-.024 2.58-3.598-2.09zm16.283.068l-.193 2.485-4.556 2.258.063-2.422zm-47.696 1.565c.977.011 1.73.662 1.156 1.772-.359.693-.63.95-2.191 2.052-.637.45-1.19.861-1.233.915-.042.053-.45.334-.717.52-1.4.969-.914-1.054.833-4.036a2.483 2.483 0 0 1 2.152-1.223zm47.349 2.215l-.361 2.736-4.075 2.08v-2.634zm-15.32.256l3.295 1.632.048 2.663-2.99-1.57zm39.572.207a.292.292 0 0 1 .265.125c.27.378.313 2.01.048 2.933-.461 1.086-1.358-1.655-1.257-2.35.192-.316.626-.695.944-.708zm-69.246.496c1.332-.025 2.296.885 1.845 2.234-.52 1.302-3.527 2.122-4.883 3.02-.888.44-1.103-.038-.829-.805.127-.354.224-.632-.452-.732-1.643-.242-.642-1.04 2.369-3.058.66-.442 1.345-.648 1.95-.66zm66.063.852c.472-.005 1.055.272 1.656.925 1.035 1.123 1.783 3.488 1.219 4.103-.433-.048-.647.59-.67.847-.065.745-1.425-.615-2.711-2.76-1.036-1.727-.534-3.104.506-3.115zm-55.483.4c4.061-.028 11.815.811 22.548 7.527 1.369.857 2.738 1.803 4.286 2.567 4.072 2.195 7.432 3.683 12.68 4.661l-.15 2.716c-.047.857 1.366 5.82.718 8.61-.963-.018.93.824.93.824l1.232 2.524s-6.442-.055-9.371-.631c-4.718-.767-13.329-4.767-17.491-7.912-4.323-3.172-10.853-5.808-16.45-6.83l-.078-2.335s-.556-7.997-1.001-9.092l-1.03-2.528c.252.101 1.332-.089 3.177-.101zm33.88 1.753l-.314 2.682-3.573 1.676v-2.297zm17.808.12c1 .002 2.514 1.173 4.243 3.51.389.527.69.984.746 1.301.052.292-.128.46-.414.424-.682-.123-.932-.37-1.122.477-.047.209.074.588-.16.52-1.212-.356-4.681-3.856-4.468-4.975.16-.84.575-1.258 1.175-1.257zm-31.823.178l2.606 1.387.115 2.644-2.316-.997zm-27.998.804c.8-.026 1.296.29 1.55.91.613 1.496-.472 2.397-3.693 3.073-2.799.665-2.742.707-2.35-.332.26-.69-.606-.766-1.089-.949-.816-.309-.148-.404 2.201-1.575 1.476-.735 2.58-1.1 3.38-1.127zm-9.314.708c.08-.006.175.069.313.241 4.07 4.93 3.023 12.114-2.129 15.661-.584.387-.605.028-.539-.742l.101-1.464c.027-.29 5.917-3.907 1.56-11.952l.367-1.137c.116-.362.194-.595.327-.607zm66.481 1.532c1.607.006 6.116 4.096 4.195 4.242-.226.018-.149.31-.15.496 0 .187-.01.54-.062.675-.139.357-.664.286-1.474-.193-2.051-1.215-2.517-1.602-3.226-2.273-1.396-1.32-1-2.954.717-2.947zm-15.877.703l-.029 2.205-3.212 1.556.02-1.994zm-40.708 1.584c2.162-.074 3.378 2.08 1.219 3.212-.864.453-3.706.136-5.028.02-1.492-.131-.61-.575-.53-.708.205-.337.364-.39-.414-.853-.618-.65-.972-.81.573-1.011.75-.098 2.572-.275 3.203-.482a3.54 3.54 0 0 1 .977-.178zm65.808.525c.159-.007.142.257.077.944l-.106 1.474c-.985.157-5.876 6.238-1.903 13.31l-.332 1.257c-.153.622-.202.712-.717.328-2.979-2.058-3.945-12.536 2.224-16.87.402-.266.633-.437.757-.443zm-11.616 1.228c.575.01 1.278.172 2.085.54 1.88.855 3.128 1.546 3.42 2.003.18.282-.103.517-.482.626-.459.132-.515.324-.39.862-.002.312.078.658-.313.679-.725.039-2.344-.472-3.983-1.353-2.766-1.488-2.39-3.394-.337-3.357zm-14.052.034v2.682l-2.64-1.218zm-44.238 2.307c.28.007.65.057 1.137.134.594.095 1.517.187 1.993.179 3.008-.053 4.254 2.041 1.773 3.106-.679.29-.961.26-2.818-.28-.889-.258-1.977-.528-2.422-.654-.894-.254-1.203-.536-.612-.737.552-.188.6-.569.256-1.074-.084-.506.078-.69.693-.674zm69.891 0c-.426 4.154-.774 7.39-1.401 11.456-.458-.18-3.704-7.841 1.401-11.456zm-12.656 1.989c.979.017 2.631.394 4.238 1.025 1.405.517 1.582.655.612 1.07-.586.25-.515.473-.342.857.267.287.773.862-.024.746-.945.071-3.427-.07-4.185-.202-2.267-.398-2.884-2.441-1.026-3.39.15-.077.401-.112.727-.106zm-58.237 1.05c.21-.001.594.112 1.291.332 4.07 1.284 5.72 2.84 3.727 4.348-.578.438-1.475.252-3.168-.693-1.732-.967-2.6-1.497-2.923-1.84-.32-.34-.146-.73.346-.698.676.045.574-.294.52-.862-.037-.398-.062-.587.207-.588zm10.98.375l3.121.708-7.792 34.076c-2.66.768-4.194 1.098-6.063 2.105l5.389-.93-.467 2.437-4.893.92-.11.727 5.605-1.011s-.2 2.325-.395 3.226c5.35-.43 10.633-1.918 16.012-1.96 0 0 .13-26.893.111-29.824-.021-3.167.005-6.954.005-6.954l5.393 3.044.891 33.893 16.894 2.745c-.118-.572-.578-3.192-.578-3.192 12.525 3.693 25.224 9.153 36.465 20.435-5.23 2.83-10.174 5.637-15.256 8.358l-.737 1.059c12.886-6.02 32.475-18.534 46.621-32.367l.313 89.621-67.705.27-.004-8.384.038-7.493c-.275-4.806.562-10.098-.91-14.13l-.289-4.223c4.173-4.853 6.428-10.973 8.418-17.226 0 0 2.008-.778 2.986-1.122l.337-1.228c-1.941.99-6.395 2.653-6.395 2.653.479-.375-9.472-4.564-15.618-5.547-10.141-1.624-23.783.048-34.659 5.441-.532.376-.76.367-.626-.12 2.525-9.184-2.794-18.402-12.13-21.074-1.981-.566-3.603-.563-3.603-.563l.169.804c15.257 1.719 18.836 17.841 12.962 25.33-1.54 2.472-1.774 3.193 1.458 3.11 13.064-.106 17.605 14.49 11.652 22.568.015-.063.482.94.482.94 3.713-4.901 4.701-14.212-1.878-20.756 4.864-5.424 14.201-14.103 22.277-13.595 2.94.185 5.84 3.743 7.773 6.583 4.09 6.014 5.142 14.411 5.432 19.2.071 1.255.239 2.167.24 2.827.007 1.917-.36 1.688-1.598 1.368-1.555-.402-3.688-.418-5.264.062-2.532.772-2.123.332.13-2.46 1.33-1.648 1.509-2.156.959-2.264-.168-.033-.732.532-1.47 1.666-2.222 3.42-2.05 2.016-.442-3.318 1.045-3.468.939-3.71-1.907-5.865-.942-.713-2.099-1.406-2.201-1.623-.536-1.138-.76.29-.28 1.228.47.917-.524 1.335-2.272.39-4.115-2.28-6.793 2.335-3.121 4.334.866.471 1.349.085.68-.534-2.26-2.09-.688-3.85 2.368-1.999 1.767 1.07 2.439.727 3.03-.612.327-.545 3.07 1.42 3.067 2.182-.002.5-.32 2.101-.63 3.174-.88 3.026-1.118 3.966-1.498 5.928-.69 3.558-.672 5.38.067 6.944 1.656 3.504 5.823 5.157 9.439 3.747.525-.205 1.531-.376 1.531-.376l.044 2.572c-7.129 2.7-12.279 11.125-12.045 11.413l-2.542.005c-3.375-6.7-9.314-11.746-16.86-14.534 0 0-.908-1.511-.097 1.247.05 1.107 1.216 2.667 2.158 3.212 3.585 1.822 8.328 5.054 10.946 10.07l-1.801.029c-2.196-3.348-5.04-5.608-7.739-7.58-.634-.134.463 6.07 3.053 7.984l-46.472.81c3.172-12.408 3.78-26.176-3.65-44.224 6.16.379 11.626-.944 16.634-3.13l-.453-1.286c-5.706 2.724-11.966 3.26-18.232 2.62 4.753 8.8 8.913 27.243 4.863 44.98l-17.057.09-.236-96.69s.667.609.877.819c.535.537.897 1.34 1.05 1.921.194.744.4.789 1.463 1.585.51.381.805.718.805.915-.03.22-.037.897.308 1.314.936 1.133.77 1.86.067 2.591-3.27 3.402-5.318 10.551-3.665 18.093 3.879-2.61 7.873-9.437 8-9.448l.375 9.323c-.345-.077-2.712 1.326-2.74 3.159-1.072.319-2.38-.214-3.467-.535l.783 2.747c-3.98 1.587-4.195 7.032.418 8.587 0 0-.42 2.129-.783 3.273l2.996-.457c1.74 5.196 8.42 3.533 8.388-.092 0 0 2.032.763 2.804 1.102l-.752-3.542c7.597-3.79 1.914-8.751.18-8.68.023-.99.478-1.302.894-2.456l-3.067.193c-.563-1.83-2.625-3.326-2.702-3.126l-.424-13.344c2.32 2.022 4.602 4.097 7.677 5.706 2.838 1.486 3.126 1.154 2.706-1.41-.19-1.158-.173-1.917-.173-1.917 1.064.25 3.75 3.74 3.621 5.46.981 1.28 1.87-2.163-.66-5.094 6.736-7.054 11.87-18.745 12.964-26.713l8.958-3.564.1-1.165c6.103-4.083 9.286-9.763 10.961-16.186zm7.455 2.085l2.061.92-2.34 1.16zm-19.86.564c.397.183.999.578 1.825 1.184 1.752 1.285 2.774 2.169 2.808 2.948.017.384-.266.882-.708 1.117-1.058.56-2.07.102-4.358-2.24-.74-.756-1.234-1.16-1.46-1.497-.262-.392-.069-.762.366-.602 1.857.838.25-1.49 1.527-.91zm63.12.481c.382.002.683.01.872.048.496.1.64.381.332.655-.476.425-.34.855.14 1.084.33.157.196.49-.203.717-.232.134-.588.277-1.074.429-2.812.88-4.884.617-5.427-.693-.623-1.506.57-2.238 4.007-2.235.51 0 .971-.006 1.353-.005zm-40.948.896l-.024 2.018-2.919 1.401.318-2.047zm-24.806.63c.256.016.676.41 1.286 1.157 2.815 3.448 3.195 4.112 2.273 5.027-1.093 1.084-2.626.036-4.277-2.986-.222-.406-.493-.927-.655-1.117-.605-.709-.338-.93.429-.871.42.032.62-.116.63-.55.012-.457.115-.671.314-.66zm67.459 1.744c.512 0 .474.175.245.77-.176.528-.464.699.28 1.031.123.06.397.398.149.544-.587.397-3.211 1.592-4.16 1.907-1.846.613-2.982-.89-1.898-2.383.454-.626 3.574-1.759 5.129-1.86.096-.005.182-.009.255-.009zm-68.933 1.999c1.87 2.79 2.105 4.093.872 4.907-.78.594-2.442-.26-2.822-2.061-.291-1.38-.424-2.822.025-3.968.68-1.735 1.732.833 1.925 1.122zm26.265-1.156l.015 2.181-3.55 1.782.328-2.403zm7.234.087l3.337 2.162.192 1.859-3.448-1.898zm37.23 2.147c.088.002.135.041.135.145-.002.256-.066 1.17.433 1.252.982.163.758.469-.1 1.209-.932.824-1.782 1.802-2.905 2.403-2.893 1.07-3.803-1.989-1.064-3.578.946-.55 1.802-.928 2.442-1.108.48-.135.866-.326 1.06-.323zm-37.139 1.122l3.867 2.278.135 2.293-3.843-1.956zm-7.46.212l.015 1.994-3.776 2.162.313-2.23zm15.628 1.628c1.068.499 14.791 4.311 19.335 3.01 0 0 3.889 5.606 6.766 7.614-4.454 6.536-19.538 12.944-19.538 12.944zm30.888.14c.25-.009.31.24.308.708-.061 1.356-2.29 6.348-4.065 3.79-.487-.953.009-1.94 1.566-3.116 1.234-.933 1.87-1.371 2.19-1.382zm-74.715.787c.338.369.185 1.506-.545 1.43-.21-.021-.239-1.175-.1-1.8.21-.103.527.248.645.37zm28.248.633l-.024 2.533-4.48 2.437.482-2.817zm7.406.357l4.436 2.364.52 2.798-4.917-2.547zm-7.416 3.443v2.552l-5.032 2.582.341-2.519zm7.503.222l4.96 2.822.65 2.658-5.538-2.86zm-70.31.081c.813-.01 1.105.855.491 1.407-.405.377-1.555.3-1.656 0-.52-.502.193-1.394 1.165-1.407zm1.517 2.702c.12-.008.234-.001.332.024.586.15.951.996.593 1.479-.662.89-2.408.273-2.153-.853.067-.298.708-.614 1.228-.65zm61.203.852v2.283l-5.475 2.89.346-2.553zm7.744.318l5.649 3.034.433 2.557-6.072-3.159zm-71.63.068c.273-.015.49.06.607.265.105.182.23.648.622.876.731.425.807.513-.583 1.122-.586.256-1.736 1.04-2.138 1.31-1.23.828-1.73.55-1.82-.429-.114-1.233 2.131-3.079 3.313-3.144zm4.238 1.868c.285-.016.562.037.761.169.47.31.495.933.044 1.247-1.035.661-2.653-.245-1.792-1.035.242-.222.621-.36.987-.38zm59.639 1.238l.029 2.962-6.107 3.221.405-3.005zm-62.658.347c.4-.023.783.07 1.117.317.362.462.798.597 1.05.607 1.048.04.714.423-.385.925-1.515.691-2.58 1.569-3.67 2.581-1.134 1.053-1.216 1.28-1.589.848-1.386-1.605 1.316-5.156 3.477-5.278zm70.502.033l6.4 3.501.55 2.957-6.95-3.867zm-66.298 2.086c.259-.007.503.056.694.211.454.372.192 1.089-.439 1.411-.536.275-1.418.158-1.67-.096-.605-.61.49-1.505 1.415-1.526zm-3.092 1.488c.39-.038.744.46 1.06.996.11.135.548.075.862.077 1.198.01 1.365.517.202 1.161-.34.188-1.455 1.042-2.2 1.676-2.01 1.919-3.1 1.469-2.842-.496.246-1.879 1.877-3.314 2.918-3.414zm69.39.183l7.06 3.871.689 3.184-7.749-4.176zm-7.791.057l-.03 2.933-6.645 3.516.515-2.976zm7.897 3.733l7.908 4.786.289 3.116-8.197-4.72zm-7.902.52l.014 2.875-7.349 3.727.371-2.716zm-59.658 1.902c.188-.005.365.024.51.091.861.397.636 1.082-.659 1.787-1.32.72-1.773.595-2.056-.212-.239-.68 1.191-1.642 2.205-1.666zm82.566.39c13.75 3.147 27.21 9.953 40.28 21.835l-2.731 1.93s-11.453-13.06-36.903-20.717zm-14.924 1.368l3.814 2.249.01.573-3.824-.313zm-64.979.024c.29.015.544.183 1.907.833 5.474 3.952 7.666 6.334 9.025 10.667.815 2.596.799 2.49-1.878 1.078-2.518-1.336-5.969-3.555-8.196-6.424-.37 6.75.419 15.14.419 15.14 3.419 1.686 2.312 6.072 2.303 6.046 8.798-2.401 6.87 9.21.314 6.706 1.563 8.71-8.411 8.002-7.39.536-7.939-.307-6.535-8.96.055-7.764-.685-2.67.26-4.478 2.69-5.624l-.37-11.404s-6.471 9.286-7.552 9.14c-.634-.085-1.59-1.151.02-9.294.837-4.24 5.332-9.402 7.85-9.569.444-.03.63-.077.803-.067zm6.328.086l1.16.795-1.092 1.95-1.209-.876zm50.628.559l-.038 1.71-3.564.211zm-39.075 19.302c-.534.014.903.35 1.811 1.165 8.386 1.299 13.516 11.556 9.636 18.984-.47.333.255 1.95.728 1.343 4.09-5.798 1.045-20.048-10.889-21.406-.708-.06-1.108-.091-1.286-.086zm3.17 3.895c-.675 1.848-.852 2.29.876 1.537 3.052 1.13 6.346 6.099 5.292 11.09-.339.583.253-.38.655 1.262 1.507-3.654.004-11.534-6.824-13.889zm38.761 9.3c8.584-.026 17.08 1.85 23.838 5.735-2.297 1.277-9.627 3.058-9.627 3.058-4.119-4.622-6.219-9.244-13.667-6.881-7.8 2.013-14.825 8.765-18.778 13.244-3.964-2.36-6.11-2.936-9.625-3.131-.203-.006-.505.888-.255-.554 1.005-1.55 1.698-3.304 2.369-5.076 7.367-4.189 16.607-6.368 25.745-6.395zm26.684 5.933c-1.71 5.53-3.917 10.978-7.662 15.776l-.462-2.398c3.521-5.407 5.19-10.323 5.943-12.478zm-3.323 1.435c.22.351-3.413 9.01-5.206 10.585l-.703-2.235c1.462-2.209 3.627-7.534 3.564-7.585zm-22.162.01c-.113.01-.153.11-.154.327-.003.795.826 1.42 2.336 1.762 2.04.463 4.898-.242 4.902-1.208.002-.558-.396-.599-1.565-.058-1.465.678-2.759.545-4.671-.467-.439-.232-.702-.37-.848-.357zm18.17 1.381c-.567 2.098-1.41 3.642-2.485 5.245l-.347-1.103c.744-1.202 1.235-2.575 1.864-3.91zm-2.133.68c-.276.729-.58 1.574-1.21 2.224l-.818-1.733zm-12.915 1.607c-1.382.026-2.75.47-2.87 1.205-.057.352.474.216 3.045-.097 1.357-.165 2.004.638 3.248.554.633-.075.04-.66-.156-.83-.691-.587-2.048-.856-3.267-.832zm-5.9 1.6c-.14.028.016.38.534 1.28.28.488.35 1.48.405 2.096-.068 1.53-.063 1.482.693.597.476-.472 1.4-.368 2.865.029.945.255 1.172.347 1.827-.064.76-.477.938-.236 1.593-.105.631.127 1.204-.126 1.897-.318.845-.233 1.007-.18 1.743 0 1.125.533.961.485 1.055-1.42.094-1.877-.008-2.01-1.093-1.378-1.052.613-1.777.89-3.39.328-1.76-.613-2.008-.458-3.256-.082-1.508.454-2.194.609-3.395-.125-.79-.483-1.321-.87-1.479-.838zm-24.575 2.831l.674 1.098c6.08 2.175 10.199 7.145 7.768 15.522l.578.924c3.043-8.44-.43-15.418-9.02-17.544zm1.883 3.574l.828 1.7c4.575 2.21 4.302 8.296 4.045 8.056l.718 1.585c1.144-3.938-.941-9.754-5.591-11.341zm19.109 9.077c-.18.002-.299.063-.347.188-.118.303.236.485 2.326 1.931 1.795 1.242 3.183 2.164 3.077 2.34-.07.12-1.187-.152-1.984-.39-2.089-.62-5.169.128-6.896 1.344-.438.295-1.168-.027-1.801-.192-.254-.072-.813-.14-1.089-.068-1.306.342-.042 1.59 3.155 3.208 3.922 1.985 6.045 2.167 8.427.963 1.582-.819 2.15-.211.42.722-3.023 1.63-5.917 1.126-10.692-2.157-2.211-1.521-3.095-1.267-1.194.183 3.336 2.608 9.758 5.79 13.7 1.902.155-.056.513-.03.685-.03.82.004.854-.254 0-1.608-.515-.815-1.557-1.673-.29-2.672.962-.757.893-1.117-.269-1.464-.307-.085-.276.116-.737-.256-2.79-2.25-5.52-3.948-6.491-3.944zm1.208 4.445c1.172.033 2.352.935 2.721 2.557.033.145.062.293.082.448l-.998.038c-.828-3.306-3.32-2.21-3.568-.274l-.9-.12c.331-1.844 1.492-2.681 2.663-2.649zm20.674 2.822l-.665.098c-.435-1.217-2.403-2.853-3.341.114l-.838-.033c.583-4.02 4.232-3.396 4.844-.179zm-5.095-1.67c.272.386-.206 1.036-.483 1.333-.265.285-.854.045-1.101-.236-.216-.277-.056-.828.303-1.011.373-.19 1.007-.362 1.28-.086zm-11.683.12c.279.623-.501 1.09-.6.878-.167-.058-.374-1.087-.277-1.155.258-.008.771.076.877.277zm17.563-.102c.421.034.88.234.963.708.005.315-.359.656-.775.675-.183.008-.884-.507-.752-1.24.148-.261.32-.163.564-.143zm-24.416.198c.148.226-.129.901-.192.992-.033.047-.93.009-.91-.058.019-.066-.084-.574.134-.944.25-.158.789-.242.968.01zm16.287 2.177c.116.003.264.05.438.159 2.508 1.632 5.734 2.36 8.057 1.194.52-.26.858-.247.857.005-.001.275-.575.839-1.647 1.16-2.393.719-6.344-.23-7.71-1.695-.401-.43-.343-.832.005-.823zM91.2 265.32c-.24-.007-.317.134-.27.423.159.973 6.866 4.822 9.67 5.34 2.303.427 4.091.236 5.5-.582 3.42-1.986 2.542-4.673-.805-2.649-2.248 1.36-7.947.734-11.336-1.223-1.507-.87-2.36-1.299-2.76-1.31zm30.217 1.407c.848-.356 1.212-.48 1.398-.324.862.721-.55 1.845-3.126 2.284-2.06.339-3.3.405-5.652-1.335-1.82-1.347-.963-2 .083-1.388 2.782 1.626 4.849 1.677 7.297.763zm-29.62 4.207c5.933 2.125 12.683 7.25 15.68 13.475l-1.83-.015c-2.037-3.553-6.068-8.067-12.714-11.24-.588-.484-.895-1.348-1.136-2.22zm31.163 2.914v1.946c-3.667 1.847-6.74 4.692-9.059 8.615l-2.075-.029c2.377-4.21 5.94-8.15 11.134-10.532zm0 2.967v2.388c-2.319 1.36-4.254 3.151-5.61 5.206h-2.457c1.969-3.327 4.669-5.98 8.067-7.594zm-27.166 1.834c1.767 1.016 4.692 3.724 5.755 5.808l-.944.043c-.962-1.224-2.5-2.632-3.752-3.741-.8-.94-1.059-2.11-1.059-2.11zm27.166 1.532c.03 0 .03.018 0 .057v1.898c0 .05-1.761 1.2-2.51 2.273h-1.993c1.369-2.477 4.217-4.233 4.503-4.228zm.004 3.154l-.004 1.074-1.252.005c.083-.122.78-.888 1.256-1.079zm-24.435.27c.376.197.664.901.664.901l-.336.036z" fill="#131f67"/><path d="M47.805 241.583c4.127.112 12.837-1.429 12.697-1.272 0 0 27.022 44.896 25.923 44.451-.352.557-34.616.537-34.616.537-.742.009 7.27-16.636-4.004-43.716zm12.253-31.629c13.167-10.91 26.96-10.99 41.77-12.491l.34-37.077 5.36 3.208.113 33.971c19.55 1.465 36.417 8.625 50.908 21.158.181.272-20.965 11.578-30.226 14.57-7.19-5.278-26.16-8.605-38.739-4.547-3.455 1.114-7.698 2.898-11.825 4.215 2.99-17.898-10.987-20.54-15.903-21.367-.617-.103-1.352-1.428-1.798-1.64zm-16.9 5.787c.23-3.814-.02-7.63-.304-11.53-.076-.89-7.7 11.601-8.126 8.571-1.067-7.585 2.7-17.23 8.618-18.412.59-.799 12.314 6.458 11.778 12.728-.175 2.043-10.458-6.9-10.5-6.365-.242 1.045.302 15.039.62 15.011 2.962 1.666 2.317 3.806 2.64 5.58 7.936-1.17 7.502 7.631.013 7.356.463 10.399-9.195 5.7-7.292.162-9.726-.458-4.936-9.543-.094-7.546-.292-2.293.276-4.684 2.646-5.555zm11.157-44.118c-.56-.221-20.748-1.255-20.748-1.255l1.056-49.156c10.307-23.662 49.095-12.597 42.924-7.562-18.535 12.141-21.357 34.282-23.232 57.973zM91.55 151.43l-.616-5.458c-1.584-3.391 41.274 16.398 41.757 16.821l1.247 5.824c.248 2.559-27.26-10.367-42.388-17.187zm77.96-9.64c-.63 22.058-4.032 36.995-16.85 55.02-.356.592-3.978 2.092-4.26 2.602 1.832 2.896 12.29 7.145 17.12 9.428l25.13-14.962c.29.02-.86-52.418-.86-52.418zm9.51-23.954c-3.375-.515-11.231-8.66-9.602-11.123.05-1.849 9.773 5.227 10.785 7.134-.499-.567-.569-17.284-.726-16.62-.37.197-2.97-1.665-2.293-5.149-7.455 1.648-7.046-8.036-.53-7.64-.842-8.81 9.922-5.575 7.058.326 9.212-1.697 7.622 8.642.66 6.96.591 3.92-1.026 5.004-3.289 5.787.145 1.644.762 12.607.762 12.607s6.81-10.434 7.3-9.535c1.362 3.165-1.122 19.899-10.124 17.253zm-31.561-38.477c-3.074 10.59 5.347 22.69 13.303 22.656 1.6-.252 4.664.612 3.607 1.468-12.551 10.165-41.84 12.276-41.847 11.835.307 12.479-.252 25.083-.551 37.558l-5.367-3.231c-.172-11.38-.453-23.02-.714-34.398-18.765-2.448-35.631-8.5-48.959-21.37 8.85-6.557 19.422-10.652 29.578-14.79 12.787 6.64 30.59 10.476 50.95.272zm-9.262-50.317c-.588-.259 2.023-2.198 2.023-2.198s21.803.286 32.618.14c-3.94 16.17-1.153 30.657 3.936 44.569-1.35-.316-10.305.41-12.492 1.388-.351.353-25.808-43.504-26.085-43.899z" fill="#e2cf00"/><path d="M201.535 297.151c-.35-.99-.355-1.113-.434-10.172-.08-9.155-.042-10.158.454-12.057.949-2.368-1.822-2.38-3.577-2.663v-3.746c2.058-.284 4.537.313 5.446 1.518 2.138-1.479 3.522-1.727 5.001-1.668 4.97.02 7.154 3.09 7.02 9.015-.023.966.152 2.202.152 2.202h2.67v3.789h-2.81s.458 9.392-.178 12.713c-1.932 7.394-11.114 7.876-13.744 1.07zm10.124-1.333c.476-1.126.404-.656.423-9.275l-.013-3.94c-3.94-.909-7.423-5.63-7.4-5.63 0 0-.05-.453-.084 8.491-.04 10.137.32 10.726 2.467 12.367 2.084 1.178 3.8-.16 4.607-2.013zm-5.503-22.796c1.2 1.684 2.69 3.408 4.46 4.798.662.52 1.59.726 1.59.726s-.048-1.14-.052-1.721c-.025-3.54-2.573-6.324-5.998-3.803zM87.134 284.7l-26.36-44.496 3.955-1.718 27.176 46.279zm68.874-6.169c-9.897-1.56-12.682-14-5.408-25.702 3.442-5.676 17.85-26.8 17.003-26.096-.45-.394 11.073 16.352 16.834 24.94 5.455 9.058 8.357 23.858-5.048 26.576-5.133 1.04-10.471-2.047-10.708-8.042-.033-.84-.38-1.524-.87-1.526-.411-.002-.698.586-.7 1.167-.14 5.726-5.277 9.633-11.103 8.683zm46.4-14.641c-4.404-1.469-5.192-6.752-1.908-12.795 2.69-4.8 4.098-6.036 6.576-10.807 1.017-1.97 1.131-2.01 1.894-.665 1.844 3.047 3.861 6.363 5.507 8.941 4.317 6.726 5.076 11.418 2.306 14.251-2.513 2.57-7.833 1.076-7.86-2.205a1.548 1.548 0 0 0-.166-.589c-.203-.382-.605-.13-.609.383-.02 2.386-3.215 4.327-5.74 3.486zm-162.18-38.68l3.808-3.917 3.818 3.868-3.992 3.708zm84.575-24.954l-.536-3.18c15.189 3.718 27.62 11.522 36.558 20.022l-2.128 1.557c.664-.18-21.577-16.856-33.894-18.399zm-44.11-3.133l4.814-.698-.137 2.674-4.576 1.04zm88.9-2.114l-2.625-2.114 1.889-2.238 2.55 2.008zm-89.204-21.56c6.52-3.085 11.61-15.534 10.971-16.364l3.553.842-8.207 34.106-6.18 1.118c-.028-6.525-.14-13.179-.137-19.702zm42.907 19.298c-2.21-7.18-6.562-23.42-6.562-23.42.16.53 14.142 4.505 19.13 3.057 2.13 2.915 4.471 5.476 6.94 7.823-5.177 5.064-11.606 9.293-19.508 12.54zm58.612-26.137l-2.463-2.134 2.21-2.705 2.705 2.06zm-32.18-1.427c-2.007-3.605-2.147-7.68 1.577-11.7zm-76.514-6.987c-.159-.372.844-8.916 1.08-9.294.415-.665 1.226 1.732 1.609 3.563.48 2.296-2.106 7.094-2.689 5.73zm56.271-2.654s5.415-25.087 7.76-34.917l6.607-1.667-.892 20.599c-5.429 4.853-9.944 16.417-9.944 16.417zm-87.027-4.171l-2.615-2.442 2.212-2.42 2.306 2.36zm46.833-9.78l-7.182-8.401c4.45-6.187 11.835-9.77 19.661-12.58l5.3 23.574c-5.99-1.805-12.449-3.76-17.779-2.593zm-36.707-21.011l1.842-2.29 2.412 1.898-1.833 2.533zm86.468-7.083l4.622-.66-.348 3.172-4.893.778zM63.769 95.672l2.845-1.77c9.99 8.967 21.023 15.153 33.056 18.67l.809 3.874c-13.568-4.182-26.388-10.52-36.71-20.774zM180.5 92.095l-3.7-3.648 3.331-3.703 3.957 3.418c-1.306 1.97-3.588 3.933-3.588 3.933zM56.33 85.348c-4.586-7.08-9.867-14.598-14.021-20.792-6.89-10.304-8.754-17.29-6.584-23.61 3.556-10.357 18.73-9.812 19.835.713.225 2.15 1.241 1.968 1.519-.249 1.465-11.703 19.264-10.177 20.333 2.294 1.125 10.59-6.196 18.81-10.238 24.416-3.589 5.71-7.765 11.15-10.844 17.228zM12.474 68.574C9.47 63.554 1.26 52.212 9.13 48.717c2.795-1.24 6.366.973 6.357 3.337-.004 1.069.587 1.129.725.02.578-4.639 7.082-4.973 9.163-.486 1.78 5.339-1.432 10.207-5.935 17.064-1.033 1.574-3.419 5.856-3.419 5.856zM160 74.344L132.308 27.11l4-.033 27.252 45.498zM8.84 33.108H6.01v-3.793h2.83s.023-2.037.104-5.64c.172-7.678.372-8.873 2.632-10.984 4.47-4.177 11.96-.774 11.869 5.507-.129 8.86-.033 17.312-.298 18.51-.466 2.108-.513 2.228-.322 2.611.388.776 3.773 1.11 3.773.892v3.732c-2.585.2-3.657-.038-5.724-1.49-1.29 1.226-5.22 2.45-8.341 1.008-2.376-1.096-4.18-3.934-3.693-10.353zm9.572 6.617c-1.404-1.995-3.764-4.711-5.991-5.672-.135 2.285.062 4.206.883 5.239 1.306 1.643 3.412 2.02 5.108.433zm1.164-21.892c-1.04-2.9-3.717-3.879-5.67-2.072-1.225 1.133-1.42 2.316-1.445 8.762-.016 3.975-.02 5.646-.02 5.646 3.809 1.21 7.367 5.566 7.333 5.51l.094-12.023a33.434 33.434 0 0 0-.292-5.823z" fill="#d40000"/><path d="M132.056 26.314l-6.617.024 37.558 75.53s-1.018.171-3.01-.351c-9.021-2.367-14.58-11.895-12.54-21.243.207-.726.26-1.348.26-1.348-23.254 10.524-37.65 6.648-51.076-.053l-5.726 2.196c.38-3.458 4.658-16.443 11.057-22.557l-.01-6.55-.154-3.091-.505-5.61c-9.52 8.962-20.628 23.07-22.018 43.105 0 0-8.668 4.452-16.065 9.376.41-.054 11.523 13.59 38.222 21.252l-1.175-4.353c3.97 1.114 9.614 1.995 15.228 2.706l.75 34.197 6.377 3.776.217-37.862c.195.156 10.169-.351 15.54-1.632l-.756 3.65 5.307-1.045v2.663l-5.817 1.373-8.284 35.39 4.826 1.074c1.412-7.128 4.979-12.894 10.147-16.431l-.053-1.358c3.314-2.378 10.203-4.268 10.248-4.223 2.35-11.478 7.819-19.432 13.633-26.998l-2.77-3.76 10.62-3.897-14.741-25.075c5.671-3.914 16.917-2.456 16.917-2.456-4.82-13.012-9.056-26.434-4.295-46.13l-41.002.034zm13.45.816c-.009 3.29-4.308 2.951-4.832-.017zm26.342-.103c-2.609 15.081-1.744 29.772 4.305 43.731 0 0-.881.051-.992.03-.083-.017.103-.754.058-.95-.12-.524-.99-.278-1.72.212-.317.214-.683.458-.914.574-.75.374-4.55.345-4.55.345 1.24-.84 2.984-3.202 1.972-4.58-.23-.294-.368-.164-.59.233-1.08 1.918-1.616 2.218-3.059 2.2-2.263-.028-3.882-1.43-3.698-3.544.177-2.055 3.2-3.14 2.754-1.146-.122 1.776 1.64 2.12 1.965.351.122-.662.025-.355.169-1.131 3.523-1.87 1.578-5.675-1.71-4.879-.773.205-.87.277-1.416-.004-1.014-.523-1.856-.358-2.24.375-.337.646.177 1.163.93 1.166.781.003.932.379.93.847-.005 1.09-1.885 1.613-3.13.978-3.29-1.678-2.07-6.04 1.748-6.025 1.16.005 1.645.077 1.695-.173.139-.704-1.634-1.923-2.634-1.743-.849.165-1.364.387-.915-.742.275-1.164.267-1.692.033-2.567-.61-1.25-.595-.609-.973.405-1.257 2.086-3.153 2.547-4.786 1.406-1.515-1.059-1.47-3.07-.03-4.503 1.002-.996 2.075-.318 1.474.795-.249.46-.052 1.032.395 1.146.904.23 1.465-.301 1.47-1.397-.02-.603-.187-.737.9-1.358 2.813-1.606.709-5.995-2.466-4.584-.697.31-.86.612-1.175.467-1.327-1.254-3.23.331-2.105 1.17.487.237 1.082.327 1.238.342.274.156.183.546-.217 1.035-1.314 1.55-4.299.785-5.003-1.401-.816-2.532 1.772-5.193 3.756-3.718.587.437 1.095.482 1.098-.163.003-1.007-1.263-2.16-2.88-2.047-1.64.115-1.462.327-.568-1.156.66-1.32.57-2.61-.005-3.385-.443-.599-.898-.725-.852-.092.359 1.963-1.934 3.828-3.819 3.005-1.812-.81-2.71-2.838-1.82-4.599.82-1.624 2.811-1.792 2.48-.058-.156 1.106.685 1.688 1.497 1.036.296-.238.365-.447.386-1.16.022-.796-.3-1.028.212-1.494 1.343-.178 1.426-3.031 1.223-3.15l21.58-.1zm-24.055.096c.853 0 1.56.29 1.56 1.141a1.544 1.544 0 0 1-3.087 0c0-.852.675-1.141 1.527-1.141zm-15.122.11h3.43l27.09 45.148-3.208 1.56zm5.633 1.578c1.642.939 3.157 1.709 5.216 1.91-.603 1.224-1.152 2.56-1.252 4.846zm5.518 9.092c1.671.599 3.122 1.506 5.876.59-1.468 1.299-2.3 2.853-2.921 4.49zm14.094 5.454a1.427 1.427 0 1 1 0 2.856c-.79 0-1.43-.636-1.43-1.426 0-.79.64-1.43 1.43-1.43zm-8.776 3.564c1.208.445 2.474.74 3.879.675-.695.956-.931 2.41-.976 4.072zm4.147 7.116c1.119.545 2.442 1.34 4.79 1.085-1.555 2.638-1.222 3.366-1.381 4.52zm13.577 5.24a1.498 1.498 0 1 1 0 2.996 1.498 1.498 0 0 1 0-2.995zm-8.415 3.364c1.024.579 3.047.909 3.069.752-.13-.097-.582 1.95-.661 3.237zm4.715 7.69c1.455.859 3.066.777 4.013.878a17.329 17.329 0 0 0-3.053.883zm17.167 8.443c-3.507.226-4.32 2.915-3.905 5.64-2.673-.428-5.666 2.106-4.83 5.206.794 2.939 3.527 3.042 5.413 2.845-.144.714-.542 3.115 2.36 5.146l.386 15.259s-1.279-1.174-2.114-2.006c-3.644-3.63-9.127-6.26-8.784-4.214.051.3.168 1.064.256 1.695.58 3.455 5.22 7.189 8.384 9.068 1.13.63 1.83 1.305 1.83 1.305-5.918 6.327-9.1 13.078-9.892 19.779a1100.106 1100.106 0 0 0-1.916 17.548c-2.415 28.674-14.72 35.885-15.305 37.289l-.23 3.823-3.435-.255-3.958 3.424c12.966 6.7 20.53 14.785 20.424 14.938 10.352-6.779 19.289-14.31 27.724-22.104l-.164-63.842s-.7.256-.881.255c-.64-.002-.722.286-.944 1.507-.119.654-.509 1.256-.814 1.686-.58.816-.373.403.356.698 1.661.672-.495 3.717-2.855 4.089-1.7.267-2.65.58-2.938.973-3.578 3.13-7.143 3.625-9.839 2.475-1.326-.566-2.767-1.394-3.255-2.774-1.107-3.134 1.2-7.65 2.552-10.258 2.481-4.782 6.603-8.374 6.603-8.374l-.674-.732s.81.012.963-.043c3.556-1.294 3.776-1.312 4.43-2.254.654-.943 2.304-3.632 2.644-4.517 1.828-4.755 2.074-5.063 2.07-8.182-.002-2.527-.17-4.215-.659-4.349-2.802 2.148-5.631 7.166-7.286 10.123-.572-4.381-.742-12.03-.742-12.03.593-.655 3.958-.288 3.212-5.774 2.962 1.336 6.083-.708 5.953-3.56-.204-4.441-3.625-4.31-6.41-3.75 1.326-2.683-1.196-5.917-3.73-5.753zm-.054.373c3.66.114 4.385 4.158 2.143 6.447 0 0-1.454-1.118-2.224-1.755-.733.575-.944 1.073-1.75 1.665-.952-.704-1.527-1.95-1.536-3.151.045-1.876 1.937-3.25 3.367-3.206zm-83.612.126c14.81 8.276 33.379 8.868 50.377.433l-.207 1.401-1.864 1.05 1.055 1.931.583-.279.014 1.276c-14.012 7.569-37.483 9.135-55.858-3.433l1.6-.742s.36.252.707.467c.67.415 1.775 1.08 2.504 1.406l1.113-1.603s-1.699-1.035-1.532-1.103l1.508-.804zm1.305 2.538l-.848 1.926 2.124 1.132.809-1.941zm-8.057.216c22.806 14.315 44.034 10.054 56.782 4.2l.164 1.526c-16.454 7-38.09 8.879-58.685-4.965zm53.681.92l-2.027.81.804 1.858 2.085-.891zm-56.407.347c18.533 11.95 38.41 14.289 59.831 5.533l.819 2.288c-20.863 8.377-42.88 7.412-62.995-6.83zm14.24.067l-.828 2.004 2.297.871.67-1.965zm38.974.828l-2.008.65.626 1.917 2.08-.708zm-35.463.55l-.496 2.012 2.345.66.41-2.022zm84.874 3.313c.316 3.424-4.76 5.076-6.66 1.88l1.675-2.032-1.498-1.396c2.032-3.213 6.187-1.666 6.483 1.548zM84.332 84.85l5.528 3.8-4.016 6.241-5.953-3.997zm95.818.174l3.511 3.043-3.222 3.77-3.294-3.322zm-2.182 1.032l-1.974 2.295 2.136 2.271c-2.533 2.693-6.314 1.031-6.277-2.265.03-2.517 3.88-4.966 6.115-2.301zm-40.928-.883l-2.11.63.482 1.85 2.182-.568zm-28.452.583l-.39 1.989 2.423.52.409-1.98zm24.97.337l-2.244.486.385 1.98 2.25-.473zm46.828.467l-1.849 1.815 1.85 1.917 1.863-1.917zm-67.911.058l-.284 2.003 2.537.342.198-2.028zm17.09.274l-2.282.26.231 1.965 2.37-.299zm-13.474.231l-.029 2.057 2.225.178.005-2.037zm9.815.193l-2.235.082.015 1.989 2.283-.145-.063-1.926zm-40.77.02a2.378 2.378 0 1 0 2.379 2.379 2.378 2.378 0 0 0-2.38-2.38zm37.023.067l-2.196.019.01 2.013 2.263.01-.077-2.042zm58.227.01l.964.962-.964.95-.987-.95zm-95.255.76a1.563 1.563 0 0 1 0 3.125 1.567 1.567 0 0 1-1.565-1.565c0-.862.702-1.56 1.565-1.56zm-8.461.116l3.164 2.576c-1.007 1.927-4.195 5.996-4.195 5.996l-5.846-4.686 3.058-1.729a2.337 2.337 0 0 0 2.08 3.405 2.337 2.337 0 0 0 2.34-2.336 2.34 2.34 0 0 0-2.186-2.33zm-1.768 1.656a1.567 1.567 0 1 1 0 3.135 1.567 1.567 0 1 1 0-3.135zm107.537.741s.862.327 1.073.651c1.697 2.605-.07 5.702-2.915 5.641-3.323-.07-4.198-4.236-1.912-5.935l1.857 1.754zm-86.381 1.06l6.55 2.514-2.486 7.118-7.16-2.938zm-26.92.742c26.72 24.074 64.68 25.805 92.27 9.824l1.68-.034.891.915c-31.432 18.588-70.505 14.544-96.883-9.38zm73.575 1.435l2.11 7.036-7.244 1.907-1.618-7.127zm-76.315.255c8.11 7.815 19.575 14.662 33.04 18.546l.333 2.884c-14.295-4.292-25.091-10.025-35.608-19.975zm31.394.111a2.337 2.337 0 1 0 0 4.676 2.337 2.337 0 1 0 0-4.676zm-11.65.525l6.757 3.573-3.367 6.738-7.175-3.848zm11.62.246a1.567 1.567 0 1 1 0 3.135 1.567 1.567 0 1 1 0-3.135zm11.188.958l6.491.944-.298 7.195-7.576-.91c.291-2.533 1.383-7.229 1.383-7.229zm31.355.178a2.337 2.337 0 1 0 0 4.676 2.337 2.337 0 1 0 0-4.676zm-.029.77a1.567 1.567 0 1 1 0 3.135 1.567 1.567 0 1 1 0-3.134zm-52.78.102a2.337 2.337 0 1 0 0 4.676 2.338 2.338 0 1 0 0-4.676zm41.502.01l.929 7.228-7.089.351-.419-7.209zm50.806.645h1.006c.093 6.22.585 13.422 1.305 18.747.109.794.158 1.028.077 1.17-.696 1.233-1.505-.318-1.82-3.857-.087-.975-.198-2.395-.318-3.327-.364-2.821-.25-12.733-.25-12.733zm-119.811.11c-10.66 6.65-28.389 22.534-28.283 22.904l.072 61.035 1.387.067 1.146-2.244c-1.773-.444-1.277-3.776 2.12-4.445.579-.114 2.349-.71 2.783-1.04 2.577-1.965 6.765-3.125 9.703-2.35 4.285 1.096 5.164 4.246 3.102 9.723-1.626 4.318-4.846 9.839-7.87 11.413-.246.129-.78.39-.78.39s.703.64.959.805c8.33-4.814 12.534-22.078 12.309-32.82.336-11.002 2.233-22.044 6.675-30.074 7.34-13.272 17.048-18.607 17-18.656 0 0-13.089-7.946-20.323-14.707zm27.474.005a1.566 1.566 0 1 1 0 3.135 1.567 1.567 0 1 1 0-3.135zm64.747.25l2.529 6.719-7.027 2.875-2.533-7.06zm-40.413.034a2.337 2.337 0 1 0 0 4.676 2.337 2.337 0 1 0 0-4.676zm14.283.583a2.337 2.337 0 1 0 0 4.676 2.338 2.338 0 1 0 0-4.676zm-14.312.188a1.567 1.567 0 1 1 0 3.135 1.566 1.566 0 1 1 0-3.135zm14.283.583a1.566 1.566 0 1 1 0 3.135 1.567 1.567 0 1 1 0-3.135zm23.896.8a2.337 2.337 0 1 0 0 4.676 2.337 2.337 0 1 0 0-4.677zm-.029.77a1.567 1.567 0 1 1 0 3.135 1.566 1.566 0 1 1 0-3.135zm-49.626.12l7.021 1.796-1.632 7.364-7.922-2.105zm88.822-.19c1.149 3.597-.959 8.21-1.065 8.512-1.276 3.618-2.812 6.575-3.371 6.746-.475.18-.686.065-.684-.38.003-.683 1.57-5.317 2.803-8.298.302-.73 1.001-2.936 1.003-3.307.001-.558-.54.351-1.123 1.742-1.13 2.783-2.778 5.763-3.135 8.462-.257 2.205-.676 1.893-.983-.732-.426-3.645.371-5.52 4.47-10.595.98-1.214 1.986-2.461 2.085-2.15zm-51.582 1.87l2.032 7.21-8.288 1.416-1.29-7.31zm-34.702.728a2.337 2.337 0 1 0 0 4.676 2.337 2.337 0 1 0 0-4.676zm12.39.467l7.508.429.068 7.493-8.149-.352zm-12.42.303a1.567 1.567 0 1 1 0 3.135 1.567 1.567 0 1 1 0-3.135zm31.51.665a2.337 2.337 0 1 0 0 4.676 2.337 2.337 0 1 0 0-4.676zm-15.564.602a2.337 2.337 0 1 0 0 4.676 2.337 2.337 0 1 0 0-4.676zm15.535.168a1.567 1.567 0 1 1 0 3.135 1.567 1.567 0 1 1 0-3.135zm-15.564.602a1.567 1.567 0 1 1 0 3.135 1.567 1.567 0 1 1 0-3.135zm51.196.448c.123-.003.286.02.395.02 1.676-.02 7.33 4.042 8.779 6.5 1.201 2.172.58 3.034-.804 1.094-1.91-2.126-5.436-5.281-5.885-5.283-.482-.002.182.686 2.427 2.875 2.227 2.171 4.577 5 4.575 5.505 0 .332-.443.29-1.079-.102-1.389-.856-2.595-1.721-3.212-2.302a73.772 73.772 0 0 0-1.584-1.435c-2.077-1.82-4.444-6.018-3.776-6.824.03-.035.09-.046.164-.048zm-104.752.597c1.446-.042 3.078.878 3.145 2.562.046 1.19.127 1.281 1.203 1.3 1.027.02 3.993.372 3.993.372l.019 3.332s-1.432-.009-3.082-.087c-2.81-.133-2.797-.137-3.154 1.098-.145.5-.346.745-.906 1.113-2.523 1.657-4.956-1.35-3.39-4.19.538-.975.569-1.308.197-1.893-.755-1.695.25-3.522 1.975-3.607zm.616 1.705c-.311 0-.651.134-.963.443-.416.413-.42 1.59-.005 2.273.396.655.386.83-.077 1.262-.815.76-.838 2.267-.043 2.834.725.517 1.494-.166 1.498-1.211.004-1.145.806-1.125.806-1.125l5.279.092.017-.86-3.83-.192c-.533-.002-1.09-.053-1.501-.331-.436-.301-.933-.824-.458-1.46.664-.892.072-1.73-.723-1.725zM54.34 111.1l2.504 4.257 2.919.106.255 2.59 3.547 2.285-3.634 2.126-.18 2.607-2.753.346-2.557 3.203-2.451-3.198-2.702.014-.038-2.672-3.718-2.394 4.07-2.287-.044-3.053 2.885-.193 1.897-3.737zm88.456 1.936l.12 2.571-4.098.728.534-2.62zm-26.265 2.59l5.523.17-.318 36.093s-1.088-.007-1.295-.01l-.024-1.406-1.767.058-1.797-1.088zm-62.191.916l-3.241 4.103 3.925 3.429 3.458-4.012zm63.847.549v1.661h2.317v-1.661zm-63.775 1.42l2.283 1.671-1.739 2.297-2.2-1.907zm88.5.944l-.073 19.754c-7.59 5.957-9.954 16.442-9.954 16.441l-3.087-.183 7.845-34.798zm-41.142.438c-6.83 3.25-13.712 5.71-20.486 13.46 2.623 2.361 5.395 4.767 7.86 8.79 5.639-.84 11.913.168 18.757 2.86zm16.417.443v1.72h2.317v-1.72zm-76.768 2.48c.169.526.222 1.089.222 1.089 5.008-.42 3.73 5.392.54 5.591-.375.048.309 1.03 1.054 1.344 1.897.797 3.26.285 4.503-1.373.953-1.271 1.01-1.454 1.01-1.454l3.093 1.637s.088-.045-.458 1.373c-.993 2.58.456 5.744 1.575 3.438.596-1.23 2.35-1.929 3.564-1.42 1.419.594 1.91 3.127.915 4.724-.302.482-.31.583-.126 1.03.279.673.45 2.403.16 2.962-.379.724-.815.89-1.667.299-1.166-.81-1.819-1.146-3.848-1.71-3.563-.67-4.26-1.924-5.678-4.854-4.22 1.263-10.535-1.383-9.694-7.648.383-1.382.488-4.037-.216-4.58-1.382-1.064.134-2.6 2.21-2.846 1.706-.169 2.527 1.447 2.841 2.399zm59.706-1.815l5.49 22.99c-6.026-2.206-11.94-3.929-17.173-2.648-2.397-3.825-4.44-5.707-7.098-8.192 5.18-6.244 11.765-9.738 18.781-12.15zm-62.113 1.127c-.355-.004-.757.15-1.176.52 0 0 .371.31.574.732.322.674.326.673-.039 2.167-1.674 5.989 2.297 9.951 7.946 8.22 1.387-.429 1.334-.381 1.734 1.248.658 2.681 2.554 4.066 6.323 4.575.231.031.618.107.924.294 1.658 1.057.978-.35.525-.896-.323-.428-.915-.853-.915-.853s.506-.327.742-.452c1.064-.564 1.46-2.772.583-3.246-.8-.432-2.164.22-2.167 1.04-.007 1.498-1.897 1.657-3.55.412-2.124-1.598-.243-5.625-.23-5.62l-1.197-.526c.159.14-2.521 3.948-5.818 2.62-2.303-.927-3.926-3.594-2.858-4.355.778-.208 1.71.219 2.302-.236 1.177-.924.227-2.544-1.455-2.485-.353.013-1.155.169-1.155.169.088-.755.281-1.286.187-2.013-.098-.729-.603-1.308-1.28-1.315zm79.2 1.748v1.416l2.292.014v-1.415zm-.025 2.918v1.46h2.317v-1.46zm0 3.145v1.493h2.317v-1.493zm0 2.933v1.58h2.317v-1.58zm0 2.942v1.474h2.317v-1.474zm0 3v1.489h2.317v-1.488zm-75.308 1.455l1.95 3.294 2.316.101.092 2.263 3.94 3.01-3.444 2.461-.25 2.442-2.731.086-2.21 3.728-2.721-3.27-2.187-.352-.25-2.976-3.366-2.518 3.164-2.529.255-2.644 2.576.227zm128.18 1.575c.211.004.44.062.689.187.818.413 1.076.461 3.202.569 2.467.124 3.338.344 4.56 1.16.738.492.781.49 1.57-.033 3.464-2.295 7.418-.209 7.706 4.064.076 1.124.188 1.576.63 2.519.303.653.616 1.168.434 1.584-.555 1.273-3.222 1.354-4.676-.534-.26-.285-.524-.408-.886-.41-.722.268-2.568-1.185-2.547-1.247-.172 1.011-.258 1.815-.439 3.284l-3.231-.048s-.072-.592-.222-2.658c-.172-2.375-.762-3.07-1.521-1.787-1.307 2.21-4.779 1.238-4.98-1.392-.068-.891-.119-1.007-.607-1.382-1.634-1.257-1.158-3.906.318-3.876zm-52.872.13v1.32h2.317v-1.32zm53.243 1.41c-.642.047-.276 1.185.785 1.787.602.342.604.34.525 1.387-.143 1.898 1.686 2.829 2.5 1.272.14-.27.2-.613.144-.843-.341-1.38 2.643-1.003 3.361.424.165.328.35 1.2.438 2.08.085.834.106 1.801.106 1.801h.954s-.011-.576.043-1.127c.237-2.358 1.28-3.848 2.687-3.843.601.003.623.11.203.886-.711 1.315-.026 2.267 1.632 2.278 1.052.007 1.048.009 1.44.756.43.821.755 1.081 1.156.93.283-.108.288.05-.082-2.75-.551-4.174-2.98-5.298-6.333-2.933-.948.67-1.156.65-1.998-.164-1.262-1.218-2.06-1.497-4.527-1.589-1.175-.044-2.333-.159-2.572-.255a1.071 1.071 0 0 0-.462-.096zm-79.58 1.195c-.549.01-1.185.125-1.737.172.613 3.225.898 6.45 1.179 9.676 2.824-.49 6.481-.033 11.307 2.215 2.96 1.38 6.577 3.739 10.368 6.4 4.104 2.882 8.914 4.583 13.01 5.472 4.99 1.083 8.997.99 8.888.755-.221.037-1.799-7.912-1.592-9.611-6.902-.634-13.565-3.19-18.66-6.651-6.742-4.583-14.536-8.568-22.763-8.428zm26.337.27v1.338h2.317v-1.338zm-76.012.265l-3.664 3.818 3.987 3.776 3.386-3.848zm-.1 1.733l2.075 1.99-1.676 2.123-2.336-2.013zm51.672.313c.489.004.966.347 2.582 1.252 1.354.935 2.436 1.518 2.041.053.31-.422 1.81.951 3.579 1.816 2.132 1.708 2.14 1.296 2.417.448.286-.62.68-.201 2.384 1.377 2.238 2.073 2.037 2.076 2.485 1.56.51-.968.68-.958 2.504 1.137 1.896 2.115 2.297 2.566 2.702 1.661.624-.468.946-.013 3.52 2.403 1.266 1.263 1.563 1.067 1.8.217.246-.875.315-.678 2.452 1.016 2.474 1.98 2.72 2.126 2.822 1.44.164-1.09.93-.703 3.477 1.127 1.544 1.103 2.127 1.41 2.456 1.136.337-.594-.837-1.736 1.652-.66l.684 3.612-.862-.245c-.53-.15-1.69-.543-1.252.583.252.65-.374.573-2.307-.578-2.769-1.65-3.28-2.028-3.487-1.69-.365 1.234-.319 1.313-2.186-.15-2.173-1.648-2.61-2.103-2.914-1.541-.04 1.244-.646.992-2.672-.756-1.713-1.498-2.078-2.281-2.846-1.135-.21.398-.422.298-.706.091-.996-.737-3-2.851-3.566-3.459-.445-.485-.699-.328-1.064.072-.342.375-.368.259-1.474-.756-2.641-2.422-3.132-3.028-3.5-2.696-.302.568-.014 1.34-2.043-.26-2.544-1.833-3.649-2.646-3.477-1.445-.436.537-.13.643-2.677-.766-2.42-1.339-2.728-1.74-3.078-1.28-.237.726-1.05.465-1.05.423l-.49-3.675.871.01s.838-.341 1.223-.342zm-19.422.308c-.194.569-1.529 3.846-1.545 12.19.16.196 3.309-3.014 3.462-6.006.145-2.835-1.91-6.191-1.917-6.184zm43.857.232v1.521h2.317V147.7zm-43.691 1.206c2.944 4.668-.301 9.07-1.109 9.38 0-3.508.516-6.806 1.109-9.38zm77.272 3.921c-4.84 3.05-4.055 11.304-1.68 13.42.175 0 1.7-8.917 1.68-13.42zm-.663 1.016l-1.303 10.623c-1.692-1.874-1.992-7.461 1.303-10.623zm30.525 1.793l2.557 3.217 2.273.168.506 2.322 3.318 2.701-3.323 2.254-.294 2.572-2.47.25-2.447 3.848-2.393-3.77-2.292-.247-.073-2.475-3.602-2.658 3.439-2.066.067-2.798 2.692.01zm-90.56 1.006c-1.625 7.726-5.505 13.012-10.98 16.567l.029.78-9.222 3.698c-2.02 9.424-5.653 18.618-13.268 27.243l2.124 4.315-10.3 3.54 14.745 25.287c1.015 0-7.144 3.862-16.995 2.856 6.234 15.262 7.52 31.064 4.07 44.902l48.268-.203-36.889-72.385-.602-1.18c-.512-.946 19.61 2.83 15.338 21.493-.06.432.09.486.333.308 3.912-3.36 29.891-12.678 50.637-.376l6.164-2.552c-2.933 10.27-6.268 17.334-11.89 23.525l.954 14.616c9.947-8.146 20.742-23.102 22.19-42.976 4.48-2.183 8.377-4.662 12.55-6.997l.554.178 2.702-1.623c-8.665-9.479-26.356-18.539-37.693-20.92l.67 3.212c-6.256-1.68-10.934-2.044-15.8-2.566l-.747-34.01-6.3-3.712-.197 37.515c-4.71.058-15.54 1.916-15.54 1.916l.486-3.207-4.96 1.02-.087-3.125 5.606-1.608 8.129-34.461zm.679.766l2.59.525-8.046 33.787s-4.514 1.247-4.792 1.074c-.36-6.336-.496-19.248-.496-19.248 7.942-6.62 9.186-11.308 10.744-16.138zm-55.232 2.48c1.213-.015 2.518.867 2.6 1.662.208.49.382.7.709.746 2.03.28 2.094.818 2.152 1.989-.286 2.244 1.217.36 1.642-1.869.045-.232.02-1.935.02-1.935l2.485-.025s.084 1.779.12 2.062c.22 1.723.954 3.12 1.464 2.205 1.748-3.14 5.752-1.538 5.12 1.488-.157.716-.147.762.341 1.305.795.888 1.091 1.826.828 2.644-.256.799-.815.92-2.018.438-.565-.226-1.25-.307-3.082-.36-2.59-.077-2.752-.126-3.76-1.104l-.636-.616-1.098.645c-1.828 1.075-3.49 1.116-5.423.126-1.258-.645-1.99-2.19-2.186-4.6-.038-1.28-.397-2.207-1.19-2.513-.428-.403.049-1.205.78-1.936.336-.24.728-.347 1.132-.352zm144.901.366l-3.414 4.257 4.06 3.631 3.78-4.445zm-79.089.612l4.73 2.706.606 33.527-5.345-.149.01-36.084zm-65.682.467c-.36.035-.133.612.13 1.493.237.788.296 1.278.222 1.825-.502 3.674 3.71 5.542 6.751 2.995.809-.926.941-.866 1.618.126.835 1.045 2.049 1.385 4.595 1.232 1.162-.07 1.932.551 2.436.14.365-.264.011-.965-.693-1.372-.431-.25-.447-.289-.361-1.151.216-2.175-1.578-2.75-2.851-.915-1.052 1.516-2.638.514-3.15-1.99-.303-1.925-.546-1.895-.775-.216-.248 2.042-2.938 4.256-4.011 3.25-.294-.296-.291-.222.01-1.247.387-1.315.077-1.806-1.359-2.147-.235-.056-.505-.253-.597-.434-.76-1.176-.727-1.59-1.965-1.59zm145.113.78l2.167 1.869-1.888 2.23-2.306-1.773zm-77.948 1.194v1.585h2.023v-1.585zm0 3.193v1.666h2.023V166.5zm12.184 1.917c2.267 8.418 4.552 16.829 6.829 25.244 2.157-.862 14.612-6.39 20.486-13.465-.223.018-5.34-4.985-7.132-8.23-5.875.968-12.623-.263-20.183-3.55zm-12.184 1.002v1.555h2.023v-1.555zm13.46.423c5.354 1.597 12.212 3.8 18.527 2.678 1.628 2.926 3.985 5.334 6.645 7.556-4.779 5.198-11.69 9.164-18.839 12.217zm50.816.607c.27.002.542.104.804.337.847.753 1.5 1.014 3.232 1.296 2.788.454 4.915 2.195 5.519 4.517.253.975.393 1.028 1.781.679 5.262-1.324 9.319 3.038 8.067 8.86-.437 2.034-.572 2.277.038 3.083 1.338 1.442 1.628 1.46.164 2.73-1.333 1.198-3.98.62-4.541-1.324-.537-1.065-.529-1.145-1.411-1.286-3.434-.547-3.292-5.296-.058-5.846.27-.046.47.009.607-.053.918-.415-1-2.587-2.586-2.254-1.945.409-2.914 1.656-3.68 3.612l-3.062-1.748c.768-1.589 1.332-3.636.664-4.902-.54-1.068-1.221-1.11-1.43-.087-.49 2.405-3.48 3.123-5.442 1.165-1.096-1.094-1.224-2.268-.419-3.852.522-1.026.535-1.1.313-1.532-.77-1.505.273-3.402 1.44-3.395zm-64.276 1.955v1.623l2.028-.01-.005-1.613h-2.023zm64.652.135c-.623.005-.619.612-.044 1.349.512.518.611.756-.096 1.204-.886.821-1.08 2.057-.467 3 .92 1.414 3.041.626 2.798-1.04-.17-1.17.748-1.693 2.21-1.253 2.126.64 3.138 3.015 2.302 5.409a50.724 50.724 0 0 0-.47 1.503l.627.38s.745-1.19 1.036-1.55c2.414-2.967 8.121-1.464 7.485 2.248-.098 1.166-.093 1.323-1.363.958-.843-.434-1.658.467-1.632 1.594.041 1.015.923 1.83 2.143 1.666.968-.181 1.21-.148 1.141 1.156.1.907.437 1.508 1.03 1.816 1.442.595 2.183-.225 1.031-1.43-.698-.73-.655-1.86-.216-2.919.524-1.266.25-4.05-.554-5.62-1.16-2.262-4.403-3.21-7.118-2.08-1.241.663-1.377.816-1.498-.347-.68-2.885-2.851-5.066-5.557-5.259-1.04-.074-2.124-.642-2.788-.785zm-64.652 2.947v1.498h2.028v-1.498zm0 2.928v1.652h2.023v-1.652zm0 3.222v1.652s1.107-.03 2.023 0v-1.652zm66.053 2.649l2.215 3.274 2.452.164.289 2.644 3.717 2.316-3.221 2.018-.024 2.557-3.073.26-2.716 3.603-2.312-3.179-2.311.01-.544-2.837-4.094-2.075 4.2-2.394-.116-2.98 2.856-.02 2.682-3.361zm-66.053.39v1.695h2.023v-1.695zm0 3.106v1.676h2.023v-1.676zm64.81 1.247l-3.173 4.224 4.277 3.534 3.4-4.271zm-64.81 1.69v1.835h2.023v-1.834zm65.138.222l2.206 1.705-1.575 1.998-2.191-1.67zm-65.138 3.169v1.536h2.023v-1.536zm-60.196.197c-3.9.018-7.588 6.333-8.471 9.324-1.045 3.83-1.2 10.76-.207 10.955 3.495-2.514 5.151-6.777 7.777-9.968.408 3.69.343 10.808.343 10.808s-1.554.818-2.392 2.109c-.604 1.074-.797 2.357-.282 3.553-1.943-.631-5.463.082-5.663 3.67.126 5.051 5.643 4.34 5.663 4.27-.117-.03-1.086 5.375 3.81 5.948 1.756.206 4.847-1.075 3.93-5.99 3.09.51 5.754-1.192 5.788-4.166.039-2.037-1.509-3.79-4.176-3.8-.555-.002-1.729.25-1.729.25.038-.293 1.068-3.455-2.518-5.75l-.564-14.625s1.238 1.35 1.792 1.86c2.383 2.193 3.94 3.298 6.689 4.748 2.677 1.41 2.346 1.063 1.883-1.619-1.265-4.026-3.909-7.07-9.502-10.874-.72-.49-1.45-.706-2.171-.703zm.385.313l.785 20.686-1.16-.002-.998-20.664zm114.75.684c.103-.004.208 0 .317.01 2.523.212 3.171 3.033 2.037 4.286-.448.495-.603.602-.37.905 1.082 1.372.478 3.54-.593 3.872-3.404 1.059-3.92-.804-3.91-2.995l-5.259-.198.034-3.063 5.798.116c-.437-1.391.4-2.874 1.945-2.933zm-117.187.034a.369.369 0 0 1 .063 0c.545.046-.016 1.503-1.537 3.722-1.027 1.501-2.457 4.148-2.884 5.216-.936 2.337-1.567 6.53-.94 5.76.567-1.753.622-2.483 1.108-3.742.641-1.643 3.632-7.044 4.224-7.575.506-.455.638-.176.626 1.343-.027 3.422-1.648 7.021-5.514 11.235-.645.703-1.504 1.47-1.565 1.47-.373-.002-.363-.777-.357-2.404.025-6.463 2.425-12.234 6.116-14.717.289-.194.507-.295.66-.308zm3.915.299c1.696.496 4.741 3.219 5.996 4.618 1.453 1.568 3.4 5.91 3.058 6.578-.114.293-.36.247-1.209-.231-5.398-3.038-9.262-6.783-8.25-7.994.284-.339 1.443.36 2.996 1.8 1.056.937 2.136 1.887 3.101 2.837 1.517 1.494 1.859 1.713.944.053-.82-1.49-3.147-3.992-5.962-6.116-1.144-.863-1.404-1.56-.674-1.545zm113.604.871a.525.525 0 0 0-.188.034c-1.062.447-.63 1.824-.732 2.88l-5.837-.203-.033.81 5.475.298c.096.826-.334 2.608.37 2.909 1.533.637 2.37-1.338 1.07-2.524-.463-.411-.965-.593.323-1.175.848-.725.98-2.14.255-2.769a1.124 1.124 0 0 0-.703-.26zm-73.845.24l-.294 2.163-3.385.853-.087-2.312zm39.927.767c12.499 3.366 26.393 11.01 35.415 19.643l-1.806 1.185c-9.374-8.66-21.74-15.233-33.103-18.498zm-21.536.332c20.582-.057 39.345 7.944 54.486 20.867l-2.476 1.56c-13.81-11.416-29.111-19.03-49.698-19.937-13.456-.594-28.811 2.857-43.944 11.182l-1.127-2.047c14.698-8.014 29.127-11.587 42.76-11.625zm-1.618 3.101l8.096.236-.501 7.518-7.359-.241zm-8.707.535l1.142 7.252-7.046 1.315-1.998-7.272zm25.625.958l8.042 2.143-2.653 7.392-7.06-2.013zm-12.882.106a2.311 2.311 0 1 0 0 4.623 2.311 2.311 0 0 0 0-4.623zm0 .8c.851 0 1.541.675 1.54 1.512a1.53 1.53 0 0 1-1.54 1.517 1.53 1.53 0 0 1-1.541-1.517c0-.837.69-1.513 1.54-1.512zm-15.97.014a2.312 2.312 0 1 0 0 4.623 2.312 2.312 0 0 0 0-4.623zm0 .8c.852 0 1.542.675 1.542 1.512a1.53 1.53 0 0 1-1.541 1.517 1.53 1.53 0 0 1-1.541-1.517c0-.837.69-1.513 1.54-1.513zm31.838.929a2.312 2.312 0 1 0 0 4.624 2.312 2.312 0 0 0 0-4.624zm-44.816.27l2.384 7.074-6.824 2.764-2.557-6.988zm44.816.53c.851 0 1.541.675 1.54 1.511a1.53 1.53 0 0 1-1.54 1.517 1.53 1.53 0 0 1-1.541-1.517c0-.836.69-1.512 1.54-1.512zm13.368 1.694l7.238 3.824-3.741 6.761-6.747-3.515zm-60.601.612a2.311 2.311 0 1 0 0 4.623 2.311 2.311 0 0 0 0-4.623zm27.344.222l.337 7.141-6.41.453-1.165-7.098zm7.69.375l7.306 1.011-1.72 6.877-6.611-1.064 1.025-6.824zm-35.034.202c.851 0 1.541.676 1.541 1.513a1.53 1.53 0 0 1-1.541 1.516 1.53 1.53 0 0 1-1.541-1.516c0-.837.69-1.513 1.54-1.513zm23.934.925a2.311 2.311 0 1 0 0 4.623 2.311 2.311 0 0 0 0-4.623zm-11.673.289l1.892 6.95-7.045 2.017-2.162-6.684zm25.576.11a2.311 2.311 0 1 0 0 4.624 2.311 2.311 0 0 0 0-4.623zm-13.903.4c.851 0 1.541.676 1.541 1.513a1.53 1.53 0 0 1-1.54 1.517 1.53 1.53 0 0 1-1.542-1.517c0-.837.69-1.513 1.541-1.513zm13.903.4c.851 0 1.541.675 1.541 1.512a1.53 1.53 0 0 1-1.54 1.517 1.53 1.53 0 0 1-1.542-1.517c0-.837.69-1.512 1.541-1.512zm24.724.015a2.311 2.311 0 1 0 0 4.622 2.311 2.311 0 0 0 0-4.622zm-12.506.674l7.06 2.413-2.818 6.597-6.756-2.572zm12.506.125c.851 0 1.541.675 1.541 1.512a1.53 1.53 0 0 1-1.54 1.517 1.53 1.53 0 0 1-1.542-1.517c0-.837.69-1.512 1.541-1.512zm-53.108.246a2.312 2.312 0 1 0 0 4.623 2.312 2.312 0 0 0 0-4.623zm0 .8c.852 0 1.542.674 1.541 1.511a1.53 1.53 0 0 1-1.54 1.517 1.53 1.53 0 0 1-1.542-1.517c0-.837.69-1.512 1.541-1.512zm42.774 1.347a2.311 2.311 0 1 0 0 4.623 2.311 2.311 0 0 0 0-4.623zm0 .8c.85 0 1.54.675 1.54 1.512a1.53 1.53 0 0 1-1.54 1.517 1.53 1.53 0 0 1-1.541-1.517c0-.837.69-1.512 1.54-1.512zm-82.696.804c1.847.078 3.233 1.737 3.317 3.464.064 1.312-1.61 3.03-1.61 3.03l-1.949-1.804-1.87 1.723c-.316.105-1.77-2.365-1.325-3.643.578-1.665 1.768-2.84 3.437-2.77zm104.964 0l5.59 4.575s-2.453 1.492-2.908 1.758c.056-.2.082-.41.082-.626a2.312 2.312 0 1 0-2.837 2.254c-.574.33-1.338.756-1.338.756l-2.952-2.476zm-8.852 12.227l-2.474 1.015c-15.224-10-36.052-15.473-59.86-5.403l-.82-1.973c17.676-7.36 39.975-9.652 63.154 6.361zm-1.353-9.992l5.99 3.674-3.804 5.842-5.85-3.742zm-1.81 11.326l-2.514.944c-18.584-11.94-38.391-11.304-56.09-4.146l-.273-1.677c20.84-9.023 41.755-6.152 58.876 4.88zm12.467-9.366c.852 0 1.541.675 1.541 1.512a1.53 1.53 0 0 1-1.54 1.517 1.53 1.53 0 0 1-1.542-1.517c0-.837.69-1.512 1.541-1.512zm-108.129 2.738l-2.066 2.085 1.886 2.12s-.598.506-1.032.743c-2.473 1.346-5.179-.78-5.05-3.076.189-3.345 4.22-4.94 6.262-1.872zm98.334-1.597a2.312 2.312 0 1 0 0 4.623 2.312 2.312 0 0 0 0-4.623zm-89.969.094c1.84.014 3.268 1.426 3.445 3.05.14 1.296-.533 2.54-1.986 3.421-1.97 1.195-4.26-.74-4.22-.859l1.662-1.642-1.998-2.044c-.058-.038 1.318-1.94 3.097-1.926zm-5.753.397l3.404 3.395-3.602 3.357-3.337-3.352zm89.79 9.034l-1.913.877-2.605-1.57-.77 1.478 1.449.92-1.507.565c-17.364-9.754-36.983-6.929-50.025-.455 0 0 .113-1.004.12-1.004l1.42-.724-.53-1.796-.76.221-.059-1.988c18.622-8.385 39.75-6.465 55.18 3.476zm5.932-8.726c.851 0 1.541.676 1.541 1.513a1.53 1.53 0 0 1-1.54 1.516 1.53 1.53 0 0 1-1.542-1.516c0-.837.69-1.513 1.541-1.513zm-95.795 1.214l-1.815 1.806 1.806 1.926 1.762-1.864zm56.836.4l-2.38.106.126 1.94 2.321-.057zm1.623.01l.043 1.94 2.157-.01-.01-1.916-2.19-.015zm3.828.033l-.106 1.931 2.143.096.154-1.921zm-9.246.246l-2.437.265.27 1.95 2.307-.27zm13.238.029l-.173 1.993 2.2.25.3-1.906zm-66.269.01l1.06 1.126-1.055 1.05-1.122-1.098zm48.923.591l-2.35.371.25 2.008 2.293-.452zm21.32 0l-.39 1.86 2.186.524.356-1.897zm-25.172.814l-1.975.525.429 1.955 2.085-.51zm28.923.077l-.414 1.888 2.23.607.447-1.81zm-32.184.94l-2.066.731.535 1.811 2.1-.708zm36.022.207l-.689 1.815 1.932.775.852-1.647zm-39.431 1.064l-1.96.804.809 1.796 1.859-.847zm-40.4.056l1.985 1.98 2.357-2.126c2.057 1.819 2.024 6.073-1.617 6.783-3.18.62-6.09-4.14-2.725-6.637zm83.37.382l-.755 1.666 2.133.94.737-1.604zm-60.851 10.691l26.92 45.754-4.257-.081-26.053-44.214zm-4.42 1.743l1.49 2.312c-2.916-2.32-7.2-.368-7.02 2.557.143 1.306 1.248 2.1 1.253.843-.133-1.315 1.73-2.46 3.082-2.398 2.495.032 4.018 3.238 2.297 4.835-1.133 1.042-2.665.996-2.148-.434.081-.493.041-.673-.193-.886-.715-.653-2.036.198-1.714 1.132.211.614.273.765-.462 1.271-2.855 2.005-.866 5.956 2.59 4.156.707-.255.994-.292 1.315-.168 1.439.553 2.419-.696 1.055-1.344-.792-.377-.813-1.02-.048-1.532 1.632-1.09 4.174.614 4.165 2.794-.006 1.542-2.041 2.682-3.992 2.234-1.16-.266-1.298.52-.236 1.334 2.06 1.58 5.142.27 6.063-2.572.29-.893.248-1.08.248-1.08l2.747 4.535s-.852-.403-1.367-.56c-2.586-.79-5.486.887-5.495 3.178-.005 1.08.634 1.497.992.65.833-1.97 2.644-2.738 4.503-1.907 1.72.769 2.507 2.51 1.835 4.065-.704 1.627-3.064 2.106-2.798.568.127-.733-.32-1.18-1.108-1.108-.298.028-.68.894-.578 1.31.096.39.028.484-.982 1.272-2.4 1.87-.554 4.925 2.441 4.04.504-.149.691-.135 1.142.082 1.083.522 2.22.197 2.225-.636.001-.572-.257-.792-.935-.794-1.027-.004-.805-1.166.333-1.734 2.85-1.424 5.761 2.172 4.026 4.975-.746 1.204-1.217 1.328-3.882 1.035-.43-.047-.624.247-.368.597.788 1.117 3.133 1.471 4.5.853 1.474-.668 2.372-2.352 2.476-4.149l3.012 5.26c-2.343-2.45-6.385-1.513-7.034 1.995-.003.889.807 1.352 1.088.62 1.219-3.165 5.85-2.194 5.837 1.224-.001.55-.11.862-.462 1.344-.85 1.64-3.023 2.044-2.63.573.176-.455-.172-.95-.77-1.093-.588-.141-.963.351-.949 1.247.011.67.016.875.016.875-1.084.457-1.775 1.351-2.016 2.675l-21.086.047c2.507-14.615 1.918-27.813-2.875-40.293-.414-1.083-1.01-2.656-1.01-2.656l3.722.099c.898.778 4.29.476 5.616-.727zm3.58 5.739l2.179 3.912c-.902-.516-1.82-.859-3.222-.978.732-1.086.79-2.06 1.044-2.934zM58 250.468a1.434 1.434 0 1 1 0 2.87c-.793 0-1.44-.642-1.44-1.435 0-.794.647-1.435 1.44-1.435zm15.016 11.686l2.097 3.733c-1.02-.434-1.882-.859-3.477-.9.58-.678 1.082-1.816 1.38-2.833zm-6.05 3.999a1.36 1.36 0 1 1 0 2.72 1.355 1.355 0 0 1-1.357-1.358 1.36 1.36 0 0 1 1.358-1.362zm15.198 11.636l3.096 5.493c-1.217-.698-2.529-1.581-4.174-1.412.783-1.672 1.21-2.585 1.078-4.081zm-4.12 6.853l-3.322.011c.664-2.904 3.35-2.148 3.322-.011zm3.143-1.4c1.13.058 2.104.444 2.714 1.429l-4.18.01s.03-1.444 1.466-1.439z"/></svg>