<svg xmlns="http://www.w3.org/2000/svg" width="224.225" height="312.808"><title>Vectorized Playing Cards 1.0</title><rect y="589.952" x="2090.887" height="311.811" width="223.228" rx="10.63" ry="10.63" fill="#fff" stroke="#000" stroke-width=".997" transform="translate(-2090.388 -589.453)"/><path d="M102.631 285.109l23.212-42.372c-.003.01 5.619 2.153 12.192 3.86-6.308 16.437-.045 38.12-.045 38.12s-35.376.356-35.359.392zM38.84 212.696c-1.32-18.008-1.363-35.406 1.603-49.818.055-.231-8.292-5.052-7.428-5.606 1.321-.847 17.765-9.419 17.765-9.419s1.111.632 2.07.535c.748-.077 1.45-.756 1.159-1.483-.687-1.718-1.913-5.992-1.178-10.295.423-2.472 1.763-5.193 3.154-6.859 3.099-3.713 10.172-1.75 12.23-1.813 1.306-.039 5.252-13.842-1.033-16.403-1.732-.706-5.707 8.717-2.945 10.831.416.318-5.555-3.143-10.128-5.208-.424-.192-2.291-1.63-2.712-3.527-.524-2.367 7.009-6.923 5.53-9.591-2.155-3.888-7.72-9.701-10.103-8.106-2.251 2.034-7.622 6.19-7.587 9.033 1.678 5.098 5.943 5.453 8.184 10.276.559 1.043 4.68 5.424 4.68 5.424-1.547 2.365.957 6.499 1.074 5.867l-19.526-8.506s4.475 33.671-.251 38.655c-.5.527 4.182-1.321 4.261-1.034 1.423 1.8 17.192 11.825 21.706 15.428 8.016-11.177 10.944-16.095 21.275-26.011 2.268-1.874 7.323-5.297 10.214-9.409 2.322-3.304 3.285-7.025 2.868-9.913-.54-3.735-.872-6.291-3.177-9.268-5.327-6.877-13.8-13.436-13.651-13.556l2.895-2.354s10.45 8.639 14.876 14.993c2.981 4.28 1.644 9.19 4.214 10.068.619.211 4.84-.141 6.227.125.168.032 30.742 21.605 25.198 22.85-7.673 1.722-19.91.598-19.91.598-8.737-8.525-12.954-11.33-18.16-8.658 0 0-13.195 11.539-20.81 20.573-4.34 5.15-7.962 11.592-10.866 15.737-1.118 1.597-15.129-11.862-14.987-10.248 2.082 14.65 3.268 32.3 1.657 44.265-1.105 10.164-2.62 21.08-3.295 30.454 0 0 2.352-.683 4.144-.046.97.344 1.674 1.242 1.758 2.24.523 4.463-5.225 3.427-5.358 3.04.006-.003 3.208 6.885 3.208 6.885s-4.979 8.585-4.84 8.211c.085-.23-4.525-7.62-4.525-7.62s3.497-6.177 3.937-7.463c.264-.771-5.047 2.555-5.457-2.263-.413-4.858 5.797-3.556 5.519-2.958-.749-9.961-2.42-20.26-3.479-28.653zm74.855 22.41c.138-.104-13.212-5.356-25.475-4.86-4.32-1.682-11.367-3.442-16.07-.308-5.29-3.58-9.856-7.52-14.495-11.425 1.3-.017 6.166-31.31 9.35-42.213-1.42-13.541 11.63-13.532 12.764-2.685 14.06 14.532 31.275 29.563 49.02 44.351-2.823 5.853-13.013 10.315-15.094 17.14zm30.74-95.796c-16.03-16.336-49.576-45.54-49.576-45.54l15.704-15.32c8.243 2.456 16.714 4.508 26.29 4.605.037.037 10.494 4.755 16.066-.013l14.496 11.481s-6.012 31.61-9.543 42.641c.075 4.37-1.579 9.693-5.897 10.483-3.687.675-6.523-4.55-7.54-8.337zm32.398-37.841c1.673-10.276 2.017-17.756 3.178-29.744-7.23 2.117-7.133-7.624-.03-5.062l-3.293-7.251 4.875-8.168 4.475 7.757-3.853 6.876c8.01.394 6.077 7.825-.82 6.031 1.3 11.484 4.164 23.086 4.025 34.44 2.478 18.208-3.05 43.545-2.135 44.146l7.811 5.37-1.335 39.616-12.334-5.403-3.67 2.475c1.177 2.331 2.676 4.566 3.183 7.1 0 0 8.494 6.983 7.315 9.16.548.32-6.045 9.04-7.98 8.823-3.693-.415-8.013-5.178-9.195-8.571-1.042-3.413 7.627-6.757 6.533-9.254-1.308-2.986-4.61-4.422-7.537-5.3-4.035-1.21-5.881-4.403-6.067-4.403 0 0-1.568 12.662-3.078 11.65-6.074-4.073-1.92-16.993-.793-16.633 0 0 2.653.609 5.787.903 11.04 1.156 10.293-12.411 8.153-18.979-.536-1.558.303-1.57.244-1.59-.513-.176 1.785-.048 3.735-.622 5.362-1.58 13.576-7.031 13.576-7.031-8.63-4.784-16.247-10.242-23.081-15.418 0 0-6.344 10.82-13.864 18.325-5.474 5.464-6.364 7.324-15.526 14.359-.178.137-6.942 8.22-3.721 17.658 2.756 8.077 16.005 16.821 15.908 17.405l-2.609 2.49c.106.145-18.754-11.693-18.315-24.425-.02-.481-8.571-.647-8.571-.647l-24.852-23.02 21.052-.09 10.81 8.823 6.753.35c.441.389.686-1.783 6.635-6.217 11.364-8.472 25.446-30.228 25.446-30.228s14.89 10.466 14.905 10.468c-.745-15.718-3.28-32.622-1.74-46.17zm-54.212-74.283S107.148 56.23 98.664 69.914l-12.019-3.445c5.037-13.358.215-38.817-1.053-39.459z" fill="#e2cf00"/><path d="M30.315 25.496l.913 261.56 162.41-.105-.467-261.455zM143.193 215.04c7.704-7.156 15.325-13.063 22.45-17.357 2.764-1.665 3.603-1.908 4.688-.92 1.77 1.61 2.873 3.01 2.295 4.138-.13.254-.547.676-.547.676l-4.257-1.618 1.38 4.827c-3.83 1.56-3.761 5.701-.066 7.896l-2.543 5.851 5.913-2.601c.226 1.275 4.442 4.359 7.065.001l5.34 2.605-1.84-6.536c1.752-1.67 2.774-4.338.017-6.797l1.27-5.12-4.822 1.569c-1.208-1.651-1.91-1.538-2.188-1.988-.082-.615-.097-2.049-.899-3.37-.663-1.092-1.421-2.252-2.13-3.065-.376-.635-.076-.689 1.85-1.73.904-.49 1.652-.984 1.652-.984s9.49 4.759 13.36 6.571l.22 87.639-52.051-.152c-5.854-17.469-1.648-32.567-.097-38.922-2.73-.227-16.806-4.786-17.228-6.354 5.577-8.857 13.145-16.905 21.168-24.259zM41.909 240.54c-6.789-2.191-6.858 5.982-3.39 6.615.9.165 1.84.3 3.246-.154.349.072-4.067 6.852-4.067 6.852s3.536 6.42 5.23 9.148l5.345-9.482-3.495-6.563c5.473 2.789 8.306-5.515 2.56-6.601-1.389-.19-2.923.505-2.923.505l3.022-28.404c2.436 1.655 6.88 4.974 6.88 4.974 1.011 15.648.27 28.69 9.02 51.458l.09 15.84H33.384l-.117-82.706 5.258 3.761c.112.467-.838.155-.326 5.91.463 5.2 2.046 14.216 3.71 28.847zM149.782 27.924c.24.34.222.86.43 1.548 1.215 4.051 5.442 8.916 8.811 10.194 1.18.447 1.638 1.127.957 1.809-.861.86-4.412-1.493-7.033-4.545-2.381-2.772-3.969-5.065-4.32-6.806-.209-1.033-.313-1.696-.16-2.234.436-.603.977-.435 1.315.034zm4.201-.438c.446-.002 1.045.523 1.404 1.477.865 2.293 2.221 4.008 4.342 5.49.563.394.787.984.5 1.328a.75.75 0 0 1-.4.234c-1.653.462-6.008-4.576-6.355-7.703-.075-.68.163-.824.51-.826zm5.42.063c.88-.004 1.3 1.83.791 2.792-.332.303-1.061-.164-1.709-1.37-.556-1.035-.334-1.417.917-1.422zm-2.948.029c.197-.007.604-.11.81.175.34 1.897 1.77 3.27 2.911 4.368.192.36.281 1.113-.138 1.308-1 .443-4.01-2.978-4.03-4.957-.007-.596.175-.886.447-.894zm-3.82 1.202c1.055 3.462 3.611 6.286 5.899 7.751 1.635 1.041 2.267 1.633 1.508 2.164-.188.132-.378.233-.423.226-3.83-1.462-8.538-7.008-8.697-10.933.834-1.068 1.57.128 1.713.792zM139.38 43.807c-2.014.002-4.48.461-6.484 1.37-2.788 1.265-3.487 2.105-3.08 2.41.292.215 2.087-.555 2.987-.672 4.854-1.201 8.194-1.496 11.357-.117 2.446 1.066 2.46.576.819-1.199-1.19-1.287-3.316-1.795-5.599-1.792zm17.11 2.66c1.607-.016 3.247.36 3.83 1.108.453 2.424-.757 1.316-1.732.833-1.41-.65-3.023-1.212-4.53-.98-.968.148-.995.1-.446-.211.827-.503 2-.737 2.879-.75zm-19.026.944c-4.592.356-6.182 2.678-9.146 5.072-1.217.926-.94 1.643.544 1.4 1.832-.3 2.57-.229 5.068.624 2.728.932 4.683 1.318 6.182.742 2.834-1.09 2.591-.908-1.462 3.016-2.169 1.741-1.293 1.65.904.142 1.623-1.296 2.739-2.123 3.078-2.833.164-.346.179-1.583.485-1.583 1.03 0 .5-1.286-.438-1.832-.616-.438-.478-.897.32-1.74 1.25-1.316.825-1.911-.534-1.091-.239.13-.357-.273-1.186-.773-1.312-.791-2.417-1.16-3.815-1.144zm3.309 1.723c1.11.934.635 1.192-1.787 1.17-2.046-.02-3.788.195-6.22 1-2.76.916-2.929.94-1.307-.442 2.23-1.901 6.761-3.808 9.314-1.728zm14.341-.806c1.114-.024 2.054.134 2.902.601 2.313 1.275 2.827 2.38.253 1.48-1.615-.566-3.797-.487-5.304-.069-1.557.432-1.825.583-1.615-.257.259-1.029 1.908-1.715 3.764-1.755zm-18.187 3.76c.548 2.748 2.632 1.85 2.838.192l.76.003c-.323 2.206-3.326 4.052-4.494-.194.247-.006 1.337.07.896 0zm16.62.047l.566-.018c.372 2.106 2.33 2.795 3.18.16l.684.015c-.523 4.394-5.173 2.253-4.43-.157zm-18.215.206c.376.132.547 1.162.484 1.434-.131.563-1.97-.036-2.36-.587.384-.408 1.292-1.053 1.876-.847zm25.024.467l-.005.77c-.85.203-1.202.68-1.996.524.045-.492-.038-1.167.423-1.74.579-.306 1.267.068 1.578.446zm-18.533.89c-.385.303-.914.337-.914.337-.083-.737-.207-1.565.71-1.572.604.176.562.922.204 1.235zm10.598-1.221c.323.022.702.826.746 1.293-.095.769-1.986.462-1.986-.302 0-.323.79-.99 1.24-.991zm-17.31 29.092c-1.46-.73-12.535-7.46-15.371-19.358l-.564 1.217c1.203 2.849 2.976 7.476 2.976 7.476-.074-.399.453 3.1 1.581 9.04-.598.006-1.26-.164-1.91-.338-1.461-5.438-1.807-9.7-3.033-15.021l-.534 1.486s1.542 9.548 2.587 13.281c-.597-.057-1.697-.303-1.697-.303-.87-4.027-1.543-6.728-2.363-10.767l-.753.977c1.082 3.314 1.503 6.278 2.048 9.453-.743-.112-1.49-.183-2.198-.577 0 0-1.117-5.792-1.265-5.876a2.745 2.745 0 0 0-.601.98c-.045-.051.969 3.211.896 4.555-.711-.117-1.944-.473-2.814-.765-.455.303-.692.807-1.042 1.26.429 1.843 25.835 5.833 24.311 4.309-.009.16 11.203 4.907 17.46.873 0 0 10.882 8.069 15.133 11.293 0 .366 1.473 2.076 3.005 3.164l4.309 3.318c1.252.972 1.752.268 1.943-1.563.211-2.04 1.693-15.785 2.04-18.715 1.293-9.874 1.291-9.769-.208-9.315-2.293.695-4.357-.207-4.357-2.553 0-1.435.664-2.623 2.193-3.178.434-.149 1-.162 1.65-.15.295.054.845.09.903.101.73-.04-2.827-6.482-2.827-6.482s3.399-6.057 5.034-8.314l4.4 7.973-3.603 7.033c7.018-.527 6.33 8.293-.539 5.34 0 0-.04 2.62-.027 2.428.066-.75.056-1.39.293-1.531 6.655 2.521 8.012-7.183.84-6.736 1.18-2.057 2.495-4.184 3.721-6.451l-5.185-9.452-5.858 9.744 2.948 6.083c-.662-.172-1.195-.068-1.904.005-4.341.889-3.408 7.875 1.553 6.915.567-.11 1.42-.539 1.42-.539l-3.204 28.536s-.316.256-1.601-.67c-1.485-1.07-4.594-3.393-4.792-3.632 1.111-18.243-3.452-37.438-8.663-49.455-.33-.922-.134-19.021-.134-19.021l29.545.077.11 84.057c-1.546-.978-3.216-2.265-4.804-3.385-.476-.385-.772-.842-.568-1.577-.522 1.117-.207 1.597-.207 1.597l6.524 5.212-.258 82.724s-10.533-5.427-17.018-8.046c-2.925-1.194-3.056-.85-3.056-.85.01-.006 2.068 4.639 1.48 5.477 1.394 1.34 3.737 4.144 3.85 6.89 1.249 1.08 1.6 1.214 2.536 2.77l3.913-1.415-.889 4.077c4.162 2.914.155 6.833-.616 6.472 0 0 1.836 3.94 2.255 5.733-.657-.045-3.953-1.832-4.87-2.255-2.389 4.7-6.422.755-6.454.062l-4.473 1.992 1.583-5.091c-2.88-1.752-4.826-4.401-.168-7.253l-1.076-3.972 3.83 1.504s.715-1.147 1.259-1.985c-1.433-6.239-10.854-5.059-13.88-10.67 0 0-.744 7.005-1.506 9.54-.297 6.7-4.99-.078-4.99-7.165 0-1.6 2.01-6.985 2.692-7.247.708-.098 7.433 3.153 11.95-.077 2.055-2.138 5.602-8.154 2.195-17.572-1.128-2.177 2.143-2.452 3.205-1.718 0 0 9.828-5.14 14.265-7.616-7.443-4.09-22.92-14.97-22.91-15.487-2.063 3.278-4.429 6.026-7.753 10.661-5.39 6.345-9.602 12.376-16.44 17.446-9.619 7.002-11.877 14.05-9.195 22.326 1.086 3.576 3.271 7.204 6.851 8.459 1.821 1.84 9.137 8.767 9.137 8.767-12.213 11.12-20.598 20.265-26.479 30.37 4.964 2.611 16.935 6.391 16.935 6.391-4.446 14.778-2.422 26.515.507 38.297 0 0-34.749.045-52.78-.522-.155.152-2.106.048-2.132-.076-.07-1.317 3.248-4.94 4.241-4.433.5-.492 1.556-.743 1.366-1.347-2.488-.296-6.263 4.002-6.412 5.78h-1.484c-.304-.265 2.693-7.26 8.699-7.819-.063.252.806-.543.154-.884-7.001.83-10.262 8.597-10.055 8.703h-1.082c2.38-7.64 8.579-10.05 12.166-10.382.035-.015 1.164-.408.86-1.077-7.927 1.377-11.88 4.808-13.785 11.46h-1.429c1.032-6.747 7.972-12.657 15.816-12.465.246-.155.546-.339.418-1.106-8.705.981-13.047 3.886-16.623 11.363-3.2-8.304-12.09-12.243-12.196-12.278 0 0-.215-2.324.282-2.228 7.585 2.745 10.48-3.84 10.163-7.667-.176-2.129-.057-3.302-.769-6.37-.635-2.738-1.105-4.582-1.054-5.77.05-1.176.418-1.414 1.286-1.807 1.626-.738 2.645-3.406 2.283-3.732-.836 1.94-3.044 2.275-4.061 3.58-.812 1.074-.455 2.785.992 8.724.881 3.619-.164 1.955-2.22.822l-1.374-.777c.92.947 1.895 1.84 2.834 2.768.84.767.37 1.243-.835.798-1.736-.866-5.08-.504-6.361.587-.5.356-.677.319-.803-.01-.56-9.224.409-14.897 3.464-21.829 1.975-4.712 4.916-8.24 8.839-8.492 3.952-.327 9.635 1.058 14.796 4.563 6.062 4.117 11.97 10.377 12.597 18.058.024.089.466-.657.667-1.05.277-.914-.735-3.656-2.314-6.835-.291-2.391-1.114-6.584-1.76-9.42.491-.224 1.538-.098 1.832.26 1.11 4.688 1.9 8.34 2.852 14.623.013.612.8-.91.803-1.313-.137-.937-2.755-13.23-2.702-12.95.015-.418 2.483.132 2.144.52 0 0 1.877 10.311 2.01 9.992l.635-.875s-1.791-7.531-1.568-8.983c.154-.222 1.542.228 1.981.467.553.74.907 3.427 1.14 5.26.639.488.765-.921.717-1.293-.46-.73-.947-3.452-.582-3.592.287-.11 1.878.521 2.183.793.359.32 1.746-1.6 1.394-1.932-7.506-2.875-16.975-4.553-24.1-4.666-1.656.007-2.313-.227-4.852-1.144-6.467-2.335-11.814-.009-12.598.73-7.896-5.487-16.711-13.15-23.728-18.04-.33-.218-1.117-.348-1.203-.348-1.114 8.512-1.892 18.36-2.841 26.216-.386 3.11-.432 3.353-.29 3.441.124.077.368-.048.464-.097 2.31-.851 4.396-.297 5.502 1.788.556 2.983-2.053 4.946-4.804 3.53-1.022-.526-1.168-.423-.702.572.804 1.791 3.125 6.506 3.125 6.506.005.002-3.136 6.4-4.722 8.141-1.546-2.498-3.52-5.023-4.376-7.751 1.216-2.378 3.512-5.441 4.237-7.785-.104-.076-.729-.01-1.164.216-4.014 1.899-4.658-1.676-4.605-2.961.109-2.613 2.384-3.168 5.69-1.95-3.573-23.733-4.335-37.255-3.423-35.792 0 0-4.314-3.084-6.459-5.177L32.51 27.57l51.626.078c5.262 14.108 3.813 31.075.668 39.91 5.587 1.021 11.23 2.34 17.607 6-10.772 15.793-27.682 32.86-45.998 43.788-1.039.468-4.45-1.659-4.85-3.76-.093-.488.178-1.45.727-1.433 1.346.437 2.65 1.037 3.963 1.572 0 0-1.83-4.592-.946-5.29.574-.377 1.045-.692 1.413-1.08 1.315-1.699 1.21-3.626-.182-5.106-.561-.587-1.215-.993-1.542-1.142 0 0 1.29-3.583 1.938-5.272l-5.082 1.68c-1.646-2.28-4.672-4.055-6.908-.659-.426.906-.338.767-3.484-.625-1.784-.79-2.883-1.193-2.883-1.193.669 1.991 1.544 3.861 2.308 6.166-3.501 2.232-2.704 5.997.244 7.12l-1.553 5.085s3.31-1.234 5.106-1.713c0 0 1.573 1.581 2.04 3.084.8 2.577 2.618 4.445 3.768 5.509-1.915 1.403-2.861 1.876-5.018 2.912l7.444 3.008c-.462-1.574-1.448-2.742-1.548-4.733-.088-1.705-.185-1.736-1.287-2.89-1.804-1.555-2.075-3.636-3.088-5.335-.706-.427-1.27-1.282-1.796-2.248-1.133.107-3.692 1.38-4.177.924-.594-.634 1.03-3.882.85-4.206-1.306-.112-4.967-2.964-.607-6.142l-1.39-5.169s3.318 1.45 4.909 2.263c1.105-5.165 6.143-2.688 6.958-.462 0 0 3.994-1.313 3.747-.247-.112.956-.76 3.343-.76 3.343 3.591 3.18 2.848 4.74-.07 6.826-.044 1.685.663 4.305.663 4.305s-2.031-.902-3.37-1.28c-.535.535-1.143 1.503-1.042 2 .908 4.02 5.864 5.139 13.207 9.246.252-2.596 2.044-6.145 2.247-9.26.126-2.273.204-2.309 1.803-1.583 4.207 3.039 2.923 11.39 1.39 14.815-.909 1.94-1.058 1.89-2.823 1.328-2.445-.78-6.768-.465-9.146.341-3.289 1.347-4.84 8.682-4.876 10.91-.058 2.118.106 4.218 1.217 6.834.46 1.673-.386 2.963-1.895 2.515-.339-.1-1.144-.409-1.144-.409l-14.196 7.343 2.675 1.573s-1.972-1.177-.75-1.814l12.17-6.352c2.269.885 1.964 1.066 3.435-.466.88-.906 1.311-.924 2.49-.811 7.175.688 10.354-.356 11.594-3.363.186-.451.115-.436.848-.806 1.358-.527 1.996-1.482 2.065-2.68.045-.786.386-.894.984-1.443 1.117-1.025 1.343-2.31.64-3.63-.331-.622-.584-.817-.447-1.462.23-1.08-.169-2.205-1.207-3.395-1.194-1.37-1.186-1.138 1.063-3.234 4.419-4.2 8.313-7.415 12.611-11.216 2.94-2.6 2.622-2.414 3.767-1.224 4.212 4.38 5.864 11.208 3.967 17.213-.089.281-.129.25.092 0 1.191-1.351 1.225-8.148.207-11.161-1.241-3.704-2.444-5.632-6.55-9.258-2.562-2.315-9.536-8.994-9.536-8.994 10.146-8.8 21.075-19.736 27.203-29.791-3.145-3.372-17.723-6.482-17.723-6.482 1.814-3.765 5.404-20.677-.742-39.429l52.376.605 1.863.126s.28-.107.43-.146c.502-.131.752.222.63.784-.385 1.43-2.485 4.782-3.967 4.505-.66-.257-.474 1.013-.77 1.542 2.336-.303 5.075-3.263 5.761-6.196.376-.617.62-.72.996-.601.431.137.323.548-.144 1.966-1.463 3.549-4.43 6.847-7.877 6.517l-.447 1.21c4.652-.074 8.249-4.436 9.311-7.698.743-1.94.772-2.202 1.518-2.015.616.571.235 1.39.025 2.066-2.339 7.471-8.762 9.468-11.96 9.143-.386-.048-.453.313-.337.928 6.872.454 12.344-5.466 13.118-10.545.377-1.41 1.03-1.892 1.406-1.248.213.569.142 1.15.038 1.69-1.878 8.02-10.425 12.572-15.649 11.272-.241-.226-.635.882-.066 1.278 10.544-.398 13.799-5.839 16.204-10.645 2.869 4.326 5.214 8.788 12.088 11.41 0 0 .686 1.51.145 1.849-.285.178-.72.095-1.351-.007-8.379-1.353-11.15 6.478-7.583 18.177.976 3.203.539 2.712-1.549 4.717-.994.955-1.468 2.649-1.207 2.688.358-.201.476-.75 1.347-1.472.379-.314 1.157-.614 1.731-1.01 1.55-.898 1.536-1.513.98-3.638-.414-1.58-1.468-6.385-1.47-6.873-.002-.92.216-.824 1.368.001 1.608 1.193 2.52 1.107.574-.42-.753-.592-1.243-1.053-1.47-1.385-.31-.451-.118-.743.51-.546 2.886.905 5.365.84 8.168-.866.32 7.717-.742 19.426-7.208 27.798-4.96 5.57-14.457 1.355-17.97-.404zm7.597-17.734c-.193.008-.885.152-1.313.397-1.904 1.09-1.45 4.959.629 5.474.836.207 1.595.32 3-.35.836-.399 2.008-.711 2.337-.574.69.288.908-.322 1.055-1.01.33-1.537-2.192-1.574-4.2.016-2.532 2.006-4.473-.954-2.087-3.183.795-.514.772-.78.579-.77zm-19.673 8.277l2.127 2.459 1.336 5.858c-.81.138-1.793-.312-1.793-.312-.664-2.65-1.312-5.303-1.67-8.005zm28.968 1.474a.257.257 0 0 0-.072.02c-.09.04-.486.218-1.034.279-.316.035-.794-.19-1.135-.169-.93.058-1.801.332-2.034.428-.286.119-.568.168-.812.024-.695-.409-2.718-.293-3.333.068-.728.31-1.547.313-2.144.004-.258-.133-.522-.469-.568-.423-.095.095-.484 1.754-.601 2.395.003.226-.156.601-.062.64.118.048.5-.299.97-.54.967-.492 2.047-.454 3.944.01 2.341.574 3.253.408 4.635-.298 1.1-.56 1.77-.696 2.5-.495.181.05.661.299.727.236.13-.125-.225-.819-.529-1.505-.22-.497-.3-.692-.452-.674zM126.74 76.23c2.057 1.948 1.902 1.782 3.2 2.745l-.062 1.877s-1.59.036-2.371-.207c-.246-.73-1.316-4.396-.767-4.415zm16.917 1.262c.139.095.342.196.62.291 3.275 1.228-.15.918-.476 2.088 0 .105.149.121.31.058 1.123-.442 3.868-.727 5.116-.486 1.62.547 1.722.17.164-.644-1.14-.449.242-.754.708-1.147.966-.622.301-.878-.93-.288-1.23.59-3.424.581-4.423.021-.443-.224-.873-.433-1.077-.446-.42-.017-.197.42-.012.553zm-12.888 2.103l1.916 1.498-1.96-.189zm-43.4 37.64a.703.703 0 0 0 0 1.404.703.703 0 0 0 0-1.404zm2.558.708l-8.789 4.173 2.323.777-.019 2.405 2.14-.683.906 2.246zm.39 1.965a.703.703 0 0 0 0 1.404.703.703 0 0 0 0-1.404zm-11.143 4.27a.699.699 0 1 0 0 1.4.699.699 0 1 0 0-1.4zm2.701 1.306l-9.866 4.532 2.925.888-.773 3.011 2.382-1 1.33 2.021zm.29 2.157a.703.703 0 0 0 0 1.404.699.699 0 0 0 .698-.702.699.699 0 0 0-.697-.702zm-19.574.451c3.71-.005 7.87 1.407 9.29 4.583.378 1.587-1.183 2.533-4.515 1.619-5.51-1.51-6.537-1.68-5.622-.744.121.123.364.426 1.188.707 2.075.707 6.091 1.525 7.175 1.413 1.48-.196 2.504.493 2.135 1.727-.42 1.401-2.342 1.974-5.232 1.567-2.993-.421-4.641-.766-5.636-1.067-1.277-.386-1.321-.353-.716.543.315.467.346.84.812.928 1.977-.111 4.081.267 5.896.438 3.257.291 3.767 1.215 1.375 2.625-1.134.67-4.526.486-6.453-.208-1.378-.496-4.536-1.205-3.318-.244.292.231.192.798.702.977 1.67.23 6.392.56 7.13 1.229.476.43-.595 1.523-2.8 2.093-3.318.629-8.28.366-9.59-.529-2.427-4.941-1.121-13.029 2.678-16.19 1.212-.949 3.275-1.464 5.5-1.467zm21.753 2.577a.699.699 0 0 0-.697.702.699.699 0 1 0 .697-.702zm2.93.75l-10.186 5.072 2.577.766-.611 2.964 2.387-.984 1.446 1.994zm.08 2.482a.703.703 0 0 0 0 1.404.703.703 0 0 0 0-1.404zm5.924 5.982c-4.518 4.396-9.608 7.878-14.259 12.148l1.008-.041 2.534-2.285 71.36-.224-1.667 2.433.701.301s2.14-3.164 1.995-3.309c-15.679.045-27.78.009-44.98.128-3.134-3.105-6.446-6.014-9.723-8.964zm-21.691 2.819a.703.703 0 0 0 0 1.404.699.699 0 0 0 .697-.702.699.699 0 0 0-.697-.702zm93.162.536c6.164 4.575 13.467 10.186 19.528 13.516 2.428 1.055 2.193 1.414-.274 2.58-2.424 1.507-6.459 3.448-9.824 5.145-1.458.55-2.095-.167-3.13.024-.746.19-.96.33-1.404.918-.73.965-.53.931-4.429.755-3.933-.177-5.555-.09-6.4.342-.813.414-2.208 1.831-2.208 2.418 0 .566-.444 1.291-1.254 1.534-.944.23-2.033.976-1.986 2.135-.253.873-.786 1.26-1.26 1.738-1.121 1.13-1.01 2.02-.685 3.07.15.471.378.361.262 1.753-.267 3.187-.486 2.918 2.924 5.277l-17.422 15.18c-.403.318-.522.286-.89.034-2.124-1.578-3.602-4.185-4.454-6.793-2.943-8.108.65-14.768 5.426-18.844 1.655-1.412 3.879-3.096 4.497-3.52 8.995-7.67 16.817-18.533 22.983-27.262zm-90.562.594l-9.96 4.702 3.208.54-.613 2.772 2.323-.88 1.23 2.335zm.61 2.198a.699.699 0 1 0 0 1.4c.386-.001.697-.311.697-.698a.699.699 0 0 0-.698-.702zm91.258 3.083l-1.131-2.674s-3.146 7.749-3.812 10.375c2.666-1.374 10.473-5.348 10.473-5.348l-3.34-.62.377-3.035zm-113.764.478a.703.703 0 0 0 0 1.405.703.703 0 0 0 0-1.405zm3.05.64s-7.411 3.478-10.756 4.978l3.123.654-.548 3.037 2.818-1.1 1.137 3.002zm.396 2.294a.699.699 0 1 0 0 1.4.699.699 0 1 0 0-1.4zm104.872.505a.699.699 0 1 0 .698.697.695.695 0 0 0-.698-.697zm12.117.634l-3.527 9.802 9.54-4.802-2.59-.707.013-2.425-2.13.62zm-112.738 2.357a.703.703 0 0 0 0 1.404.703.703 0 0 0 0-1.404zm104.337.178a.699.699 0 0 0-.697.702c0 .387.31.697.697.697a.699.699 0 1 0 0-1.4zm-101.411.718l-10.109 4.931 3.137.735-.344 3.156 2.55-1.448 1.386 2.878zm.631 2.085c-.387 0-.663.315-.663.702 0 .387.315.698.702.698.387 0 .697-.31.697-.698 0-.387-.349-.702-.736-.702zm105.114.62a.699.699 0 1 0 0 1.4.699.699 0 1 0 0-1.4zm-13.929 3.224l-.94-2.639-3.739 9.677 10.057-4.606-3.191-.75.056-2.526zm-10.218-2.083c-.115-.006-.216.026-.216.101 0 .224-2.57 2.735-2.57 2.735l-29.684.274c.061.004 2.471.671 2.471.671 3.894 3.111 9.996 8.63 9.996 8.63l7.369-.294c4.08-4.007 10.212-7.053 12.947-12.002a.516.516 0 0 0-.313-.115zm27.824 1.995a.699.699 0 1 0 0 1.4c.387 0 .698-.311.698-.698a.699.699 0 0 0-.698-.702zm-22.913 3.378a.695.695 0 0 0-.698.698.699.699 0 1 0 .698-.698zm15.068 1.014c2.128-.011 4.177.062 4.708.467 3.289 2.769 1.73 15.712-2.415 17.347-4.55 1.023-7.695 1.213-11.643-1.391-1.12-.546-3.342-2.196-2.908-3.558.591-1.674 2.217-1.552 6.881-.1 1.702.53 2.638.422 3.073.09.405-.309-.126-.655-.996-.658-.35-.001-1.858-.373-3.116-.76-1.775-.546-2.285-.706-3.433-.774-1.93-.114-2.49-.19-2.49-1.37 0-2.205 3.065-2.496 8.707-1.202.675.154 1.898.326 2.198.317.218.083-.43-.73-.539-1.217-.203-.173-.568-.256-1.529-.288-3.628-.356-6.64-.602-6.706-1.077-.32-2.334 4.373-2.969 9.24-1.097 1.25.481 1.275.282 1.265-.081-.018-.673-2.11-1.847-5.195-1.815-3.002.032-2.583-1.494-.116-2.64.844-.391 2.887-.183 5.014-.193zm-11.606 2.5a.699.699 0 0 0-.697.703.699.699 0 1 0 1.399 0 .703.703 0 0 0-.702-.702zm-10.815 4.844l-.635-2.615-4.083 10.175 10.314-5.252-3.401-.639.298-2.141zm-5.256 4.086a.703.703 0 0 0 0 1.404.699.699 0 0 0 .698-.702.699.699 0 0 0-.698-.702zm10.276 2.886l-.868-2.472-3.468 8.857 8.8-3.93-2.599-.71.37-2.684zm-7.006.026a.703.703 0 0 0 0 1.405.699.699 0 0 0 .697-.703.699.699 0 0 0-.697-.702zm2.253 3.384a.699.699 0 1 0 .698.697.695.695 0 0 0-.698-.697zm-4.423 2.074l-2.97 8.39 8.27-4.004-2.417-.797s.133-1.886-.095-1.799c-.144.056-1.7.49-1.7.49zm7.361 1.003a.699.699 0 1 0 0 1.4.699.699 0 1 0 0-1.4zm-10.964 4.036a.703.703 0 0 0 0 1.404.703.703 0 0 0 0-1.404zm3.161 3.246a.699.699 0 1 0 0 1.4.699.699 0 1 0 0-1.4zm-43.62 38.637c-.379.057-1.363-.843-1.555-1.266.562-.142 1.14-.037 1.455.226.26.246.443.878.1 1.04zm2.994-.606c-.133 1.025.502 2.878.381 3.318-.325.16-1.97-1.605-2.375-2.034-.085-.586.006-1.33.039-1.665.565-.1 1.568-.063 1.955.38zm2.963.51c.351 2.271 1.35 5.923 1.195 7.154-.148-.118-1.417-1.368-2.353-2.695-.33-.794-.843-3.559-.799-4.882.632-.087 1.48.014 1.957.423zm-19.847-.256c-1.011.516-2.162.888-3.606.882-1.158-.005-3.152-.606-2.95-.458.527.943 1.904.449 1.93 1.064-.342.609-1.257.551-1.712 1.134-.096.155.135.286.78.218 1.955-.887 4.51-.871 6.849-.103.492.103.169-.368.002-.493-.304-.223-.806-.457-1.228-.507-2.043-.363-1.146-.569.221-1.18 1.003-.366 1.255-1.268-.286-.557zm4.426 2.886c-.271.021-.952.367-1.697.668-1.259.51-2.423.39-4.116-.081-1.471-.41-2.007-.296-3.47.441-.972.623-2.036.797-2.806.362-.997-.567-.99-.373-.496 1.029.123.35-.12 1.41.314 1.654.33.186.71-.433.966-.52.255-.085 1.86.634 2.755-.158 1.598-.58 2.077.36 3.184.27 1.796-.634 2.92-1.294 4.462-.071.091-.458.45-2.958 1.024-3.55-.014-.035-.057-.049-.12-.044zm-3.271 7.199c-1.293.015-1.992.809-3.659.657-1.33-.093-1.786 1.087-1.223 1.947.397.606.93.718 2.743-.114.747-.342 1.784-1.094 2.39-1.033 1.775.177 2.204 1.892.726 3.342-.719.423-.725.881-.506.89.584.022 1.767-.676 2.036-1.49.735-2.227-.587-4.24-2.507-4.2zm5.798 10.265c-1.682.354-4.105 2.284-4.93 3.534-.77 1.217-1.508 2.594-.97 3.274.442.557 1.06 1.1 1.113 1.401.046.264-.314.526-.652.904-1.477 1.651-1.125 1.742.945.67 1.05-.544 1.537-.762 2.222-.583 1.996.52 4.48.15 6.17-.471.763-.28 1.51-.66 1.567-.467-3.083 3.393-6.927 2.539-8.3 2.332-.239-.062-.423-.047-.423.034 0 .165.398.523 1.246.9 1.416.628 4.82-.04 6.948-1.592 4.208-2.754 6.528-5.384 3.212-4.285-1.52.504-2.091.416-3.938-.418-2.769-1.25-4.89-1.618-7.184-.818-2.905 1.014-.677-1.381 2.592-3.457.708-.45.796-.965.382-.958zm-15.672 7.156l-.97.015c-.692-2.334-2.367-2.33-3.092.014l-.81-.057c.794-2.909 3.789-3.508 4.872.028zm17.234.193l-.727.033c-.442-1.413-1.998-2.657-3.094-.34l-.505-.104c.896-3.7 4.469-1.642 4.326.411zm-4.853-2.126c.453 0 .568.515.052 1.351-.362.59-.793.536-1.226.092-.39-.39-.367-.46.058-.847.452-.412.844-.596 1.116-.596zm5.361.015c.197-.006.572.156.992.298 1.105.373 1.356.682.903 1.135-.445.444-1.289.578-1.678.326-.018-.556-.569-.984-.588-1.542.002-.15.174-.211.371-.217zm-17.306.019c.766-.035 1.793.418 1.718.86-.082.484-.837.8-1.46.852-.417.055-.4-.114-.51-.41-.097-.265-.223-.602-.294-.866-.172-.508.154-.421.546-.436zm-5.238.168s-.429 1.277-.62 1.712c-1.604-.086-1.452-.793-.695-1.303.407-.31.819-.316 1.315-.41zm-1.244 3.034c.29.006.65.256 1.154.419 1.42.457 3.777.405 5.616-.02.881-.203 1.298-.476 1.491-.336.345.25-.012 1.12-1.284 1.678-1.656.611-4.183.943-6.097-.034-1.637-.834-1.82-1.723-.88-1.707zm-.438 1.828c1.501.991 3.004 1.304 4.861 1.132 2.781-.102 3.276-.445.934.796-2.165 1.147-5.503.935-6.146-.308-.368-.712-.13-1.56.351-1.62zm13.474 1.663a.055.055 0 0 0-.024.005c.224 1.5 2.744 2.874 3.953 3.198 2.565 1.138 6.643.011 9.713-1.313 2.242-.967 3.05-2.426.38-1.596-4.296 1.334-9.69 1.435-12.391.399-.878-.416-1.48-.7-1.63-.693zm-14.139 5.619c5.377 1.213 11.876 9.505 11.852 13.13h-1.737c-2.643-9.222-9.509-11.218-10.18-11.769-.308-1.132.078-1.389.065-1.361zm-.085 2.336c6.39 2.798 8.663 7.792 9.62 10.794H71.76c-1.392-4.13-3.894-7.076-7.766-8.91-.263-.575.014-1.884.014-1.884zM64 276.6c3.275.966 6.162 5.276 6.983 7.968l-1.635-.01c-1.159-3.003-2.8-4.93-5.41-6.04-.108-.565-.086-1.205.063-1.918zm-.052 2.929c1.537.31 4.14 2.699 4.515 5.04h-1.5c-.53-1.578-2.165-3.02-3.003-3.608l-.012-1.432zm.158 2.498c.165-.103 2.46 1.964 2.073 2.541H64.11c-.023-.642-.038-2.547-.005-2.54z" fill="#131f67"/><path d="M122.66 27.587c-3.897 7.548-23.892 41.542-24.095 42.725l5.12 2.265 24.86-44.817s-5.151-.167-5.885-.173zm58.699 28.39l-2.323 3.265 1.976 3.583 2.006-3.544zM90.02 90.085s-7.17 7.123-9.972 10.446c6.023 6.01 17.536 13.555 17.62 25.167l7.938.03 25.692 22.98s23.266.169 23.7.068c.468-.109 8.734-11.942 8.734-11.942l14.743 10.749s-.707-11.576-1.264-18.67c-.183-4.744-.34-7.662 3.128-9.762-4.765-2.272-4.463-6.447-.96-9.514-1.155-1.598-2.883-1.893-3.143-7.56-.729-.782-1.42-1.24-2.332-1.904l-.952.851c-3.059 2.747-5.143 5.548-5.486 7.372-.654 3.471 2.871 5.85 4.91 3.313.574-.715 1.086-.514 1.086.418 0 1.893-2.381 2.962-4.395 1.977-.47-.23-.886-.383-.928-.342-.073.073 1.998 5.147 2.558 6.266.93 1.862 1.419 3.732 1.49 5.689.077 2.09.035 2.357-.942 5.967-.92 3.402-.487 5.424 1.159 5.424.927 0 .898.89-.038 1.217-1.99.693-3.224-.773-3.294-3.905-.043-1.903-.076-1.95-1.053-1.49-3.403 1.599-7.098-1.26-5.497-4.251.337-.629.734-.43.943.466.391 1.683 1.273 2.425 2.866 2.419 3.671-.014 5.21-5.202 3.092-10.425-.425-1.049-.64-.989-1.198.336-.875 2.08-2.343 2.692-3.553 1.481-.406-.405-.602-1.063-.327-1.096.063-.007.467-.025.894-.038 2.14-.069 2.878-2.144 1.876-5.266-.882-2.743-1.017-3.24-1.28-4.727-.405-2.297-.122-4.041 1.015-6.27.2-.394 1.455-1.796 3.015-3.37 1.592-1.61 2.962-2.843 2.962-2.843s-.805-.694-1.897-1.515a412.357 412.357 0 0 0-2.708-2.025s-10.933 30.02-10.158 41.716c-1.387 15.41-12.717 11.147-13.55.474zm-.488 4.5c3.737-.061 6.2 4.88 7.608 15.133.466 3.398 2.537 8.156 4.039 9.281 3.79 2.838 9.723.65 9.728-3.587.005-5.276-7.402-6.058-7.516-.794-.027 1.241-.664 1.306-1.275.125-.544-1.053-.054-3.02 1.005-4.015.68-.637.626-.757-.668-1.471-4.506-2.488-6.424-6.198-4.015-7.776 1.053-.69 2.493.183 1.832 1.111-1.032 1.45-1.045 1.68-.183 2.885.98 1.37 2.143 2.053 4.9 2.866 2.315.683 2.696.811 3.765 1.298 3.13 1.427 4.56 4.568 3.467 7.617-.257.72-.508 1.43-.557 1.577-.113.335.071.337 2.274.044 3.506-.467 7.4.785 9.32 2.996 1.03 1.188 1.858 3.858 1.884 6.087.005.43.137 1.399.298 2.155.161.755.375 2.033.471 2.837.918 7.627 7.268 11.528 10.012 6.15 1.727-3.385-2.266-6.77-4.299-3.645-.714 1.098-1.45.593-1.039-.712.8-2.535 3.966-2.966 6.122-.832 1.166 1.155 1.725 3.773 1.159 5.434-.297.872-.266.927.38.702 1.448-.505 3.953-.019 4.851.943 2.118 2.265 1.693 4.985-.913 5.866-1.185.397-2.528-.016-2.967-1.404-.193-.99.488-1.275 1.015-.423.985 1.595 3.132.31 2.625-1.573-.576-2.14-2.406-2.595-5.785-1.433-5.37 1.848-7.104 1.694-9.675-.86-1.835-1.824-2.525-3.4-3.02-6.877-.545-3.84-.597-3.939-1.548-3.13-4.545 3.867-10.548-1.977-6.698-5.818 1.19-1.19 2.067-.154.995 1.178-1.564 1.943.475 4.65 3.03 4.02 4.651-1.148 3.702-7.955-1.332-9.545-1.535-.485-5.75-.284-8.993.428-9.053 1.987-13.053-1.877-14.916-14.397-.218-1.463-.472-2.544-1.332-5.694-1.02-3.736-4.488-5.765-6.38-3.731-1.51 1.62-.716 3.803 1.384 3.808 2.094.005 1.452 1.441-.73 1.635-3.79.337-4.448-5.969-.814-7.776.888-.44 1.716-.67 2.491-.682zm-49.439 2.328l1.175 4.487 4.68 1.323-1.484-4.27zm12.01 1.34l-1.258 4.06 3.549-.87 1.157-4.235zM90.61 104.9a1.346 1.346 0 1 1 0 2.693 1.346 1.346 0 0 1 0-2.693zm-45.126 2.423l-3.691 1.291-.71 3.22 3.862-.996zm8.806 1.017l-3.015-.52.848 3.324 3.194 1.305zm130.91-.254l-1.94 1.509c5.654 4.913-.448 9.648-.638 9.327 4.087 2.705 3.359 6.971 2.829 10.877-.968 6.969-1.344 13.56-2.4 20.701 0 0 4.924 3.398 8.199 4.713.062.007.02-41.902.02-41.902zm-69.758 6.311a1.346 1.346 0 1 1 0 2.693 1.346 1.346 0 0 1 0-2.693zm-82.652 3.446l.169 39.108 8.095-14.476-5.57-6.424 4.815-5.14zm78.824 5.96a1.346 1.346 0 1 1 0 2.693 1.346 1.346 0 0 1 0-2.693zm18.379 4a1.346 1.346 0 1 1 0 2.694 1.346 1.346 0 0 1 0-2.693zm52.644 43.566l5.947 6.103-4.645 5.784 7.313 12.41-.117-38.397zM32.715 158.526l.283 42.062 6.358 4.638 1.613-1.522c-4.104-4.382-1.653-7.642 1.44-9.528-5.456-1.27-3.8-8.507-3.474-11.861-.133-6.227 2.149-13.331 1.446-19.318zm36.62 5.846l-9.112 12.697s-10.014-7.585-15.063-11.006c.54 5.479 1.033 12.468 1.703 18.362 1.638 8.605-2.625 8.754-2.665 9.578 6.776 5.142 1.09 9.95.07 9.709 3.608 1.964 3.31 7.933 3.31 7.933l1.712.968s.557-.34.793-.466c1.83-.985 4.814-4.494 5.497-6.81 1.158-3.925-2.251-7.186-4.395-4.202-1.054 1.466-1.897.486-1.034-1.202.788-1.54 2.845-2.314 4.212-1.582.795.425.617-.679-.61-3.77-.413-1.037-.748-2.169-1.328-4.463-.561-2.219-.343-4.894.63-7.616 1.403-3.926.905-6.388-1.341-6.603-1.2-.114-1.329-.49-.351-1.043 2.182-1.236 4.298.523 4.212 3.505-.047 1.613-.029 1.64.822 1.299 4.306-1.728 7.708 2.74 4.698 6.17-.92 1.047-1.5.382-.894-1.025.935-2.175.044-3.725-2.145-3.741-3.176-.024-4.934 4.364-3.683 9.189.39 1.506.45 1.525 1.505.52.936-.893 1.636-1.18 2.36-.962 1.504.45 1.899 2.05.458 1.851-2.476-.34-3.127 2.253-1.727 6.867 1.859 6.12-.022 11.108-5.52 14.656-.278.18-.721.524-.721.524 2.12 1.89 3.477 2.963 6.279 4.67l10.004-40.425s-.169-2.295-.415-3.377c-.008-10.85 10.116-11.89 13.284-2.038.305.946 1.915 3.362 1.915 3.362l52.705 46.77s9.84-9.509 9.705-9.76c-7.475-7.534-17.57-12.861-17.938-24.815-1.791-.052-7.78.059-7.78.059L92.859 164.65c-8.043.051-15.176-.524-23.523-.278zm14.36.881c1.408-.044 2.828.687 2.828 1.861 0 1.013-.678 1.245-1.24.423-.786-1.148-1.698-1.24-2.626-.264-2.572 2.703 1.425 5.175 6.02 3.722 2.815-.89 4.178-1.13 5.208-.924 4.342.871 6.439 3.8 6.81 9.507.187 2.901.182 2.89 1.437 1.74 3.054-2.798 7.468-1.24 8.155 2.881.295 1.769-1.609 3.996-3.419 3.996-.71 0-.597-.741.169-1.106 1.84-.878 1.913-3.78.125-4.914-2.374-1.506-5.502.842-5.463 4.101.047 3.918 2.973 5.723 8.752 5.39.846-.048 2.97-.148 4.717-.22 2.76-.118 5.727-.638 8.54 1.485 2.946 2.343 4.9 7 5.737 13.729 1.317 8.282 2.335 10.501 5.116 10.7 1.65.118 3.049-1.287 3.049-2.92 0-1.15-1.523-2.165-2.679-1.784-1.395.46-1.677-1.05-.302-1.625 1.903-.795 4.228.737 4.746 3.13.301 1.395-1.273 4.07-2.924 4.738-4.306 1.741-7.368-1.816-8.377-9.777-.618-3.65-.958-6.112-2.096-9.233-2.09-5.743-5.523-8.113-9.262-6.395-4.234 1.945-3.393 8.284 1.092 8.237 2.464.195 2.98-1.615 3.031-3.554.058-1.43 1.679-.088 1.817.897.133 1.194-.937 2.671-1.882 3.37-1.527 1.022-.984.958.578 1.37 4.198.773 7.319 6.329 4.809 8.215-1.305.796-2.69-.375-1.786-1.525 1.438-1.828-.996-4.715-5.425-5.686-5.8-1.27-8.11-5.588-6.018-10.026.692-1.468.752-1.434-2.077-1.274-6.226.351-8.437-.509-10.526-4.116-.63-1.089-.91-2.545-1.044-5.439-.24-5.18-.712-8.387-1.365-9.29-3.233-4.471-9.959-3.133-9.118 1.813.442 2.597 3.126 3.43 4.958 1.539 1.384-1.429 2.03-.101.678 1.394-3.25 3.598-8.908-.602-7.227-5.366.385-1.09.436-1.056-1.65-1.116-4.64-.133-6.847-4.103-3.856-6.929.524-.495 1.253-.732 1.99-.755zm11.195 17.042a1.346 1.346 0 1 1 0 2.693 1.346 1.346 0 0 1 0-2.693zm18.653 4.78a1.346 1.346 0 1 1 0 2.692 1.346 1.346 0 0 1 0-2.692zm-4.006 8.785a1.346 1.346 0 1 1 0 2.693 1.346 1.346 0 0 1 0-2.693zm59.276 5.236l.854 3.983 3.09.813-.483-3.412zm10.81 1.379l-.067 2.361 2.75.324.972-4.071zm-46.149 3.565a1.346 1.346 0 1 1 0 2.693 1.346 1.346 0 0 1 0-2.693zm39.477 5.485l-3.231.896-1.553 4.488 4.137-1.498zm6.32.404l.396 3.325 3.981 1.799-1.346-4.74zm-58.676 28.342L95.88 284.95l6.753-.094 23.326-42.13zm-77.73 10.816l-2.182 2.938 2.072 3.41 2.38-3.425z" fill="#d40000"/><path d="M15.998 11.804c-3.044.014-6.099 2.063-6.958 6.05-.192.89-.267 2.429-.332 6.736-.096 6.383-.159 5.867-.159 5.867l-2.736-.068.145 3.554 2.918.024c-.014.017-.063.209.03 2.217.23 5.004 1.01 6.782 3.846 8.126 1.918.91 5.463.905 7.069-.355.971-.617 1.069-.611 2.221.1 2.453 1.515 4.472.693 4.472.693l-.067-3.635c-3.864-.06-4.378-.975-3.366-3.487.07-.175.08-.503.11-.932.285-4.048.17-17.691-.278-19.317-1.012-3.663-4.056-5.586-6.915-5.573zm-.332 3.578c1.39.007 2.809.947 3.453 2.697.68 1.852.672 1.692.87 13.094.098 5.613-.138 5.59-.138 5.59-2.155-2.855-4.88-4.96-7.865-5.95 0 0 .056.265 0-5.267-.058-5.713.011-6.942.862-8.433.675-1.181 1.737-1.737 2.818-1.731zm69.196 11.087c4.55 13.796 4.973 27.393 1.024 40.456 2.25.115 12.066 2.632 17.47 5.966-1 2.572-16.319 21.41-26.717 29.902 2.956 2.926 6.209 5.853 9.627 9.078 5.17 4.906 6.997 8.284 7.338 14.652-.046 3.075-1.148 6.87-3.106 9.555-1.48 2.03-3.052 3.591-6.203 5.679-2.908 1.926-7.158 6.07-12.503 12.18-2.037 2.33-5.476 6.572-8.323 10.618-1.078 1.47-4.25 6.06-4.25 6.06-10.584-8.636-21.917-15.298-22.207-15.247 0 0 11.434-6.094 13.839-7.336 1.848 1.186 4.357.172 3.152-2.437-2.315-5.938-.7-12.05 2.142-16.316.68-1.029 2.32-1.628 4.972-1.813 1.152-.075 2.368-.038 3.587-.053.44 0 1.625.17 2.275.524 2.162 1.18 2.595-.338 3.943-5.448 1.341-5.085-.817-11.515-3.895-11.536-.723-.005-1.13.262-.98 2.07.112 1.367-.217 2.074-.568 2.936-.768 1.879-1.176 3.718-1.42 6.17.45.09-2.857-3.291-8.068-4.632-3.386-.4-5.105-4.616-4.962-4.625 0 0 .507-1.142.952-1.587 1.157.553 2.293 1.203 3.664 1.606 0 0-.316-1.694-.438-2.15-.629-2.355-.595-2.713.313-3.202 2.25-1.212 2.488-3.38.73-5.352-.443-.505-.817-.828-1.413-1.082l1.11-4.424s-1.017.219-1.831.466c-2.355.716-2.18.74-3.183-.403-2.185-2.49-5.522-2.016-6.02.855a9.899 9.899 0 0 1-.203.823l-5.023-2.438c.147 1.178 1.451 5.169 1.451 5.169-4.395 3.414-.68 6.438.519 6.757 0 0-1.027 3.267-1.38 4.625l4.957-1.417c.416.945.93 1.662 1.96 2.323.27 2.789 2.418 5.037 3.899 6.39 0 0 .213 1.02.085 1.672-.32 1.621 1.328 4.189 1.607 4.342-6.803-2.782-13.894-6.121-20.74-9.4l.427 84.145s1.594 1.428 4.756 3.693c1.519 1.088 1.518 1.093 1.202 2.347-.417 1.654-.314 2.916 1.097 13.8.747 5.757 1.56 11.727 2.288 17.08.29 1.951.33 3.202.33 3.202-1.512-.7-3.712-.77-4.85.506-1.962 2.235-.392 5.833 2.515 5.756.66-.04 1.11-.232 1.678-.62.394-.211.8-.027.8-.027l-4.337 7.622 4.993 8.408 4.982-8.992-3.623-7.112s.354-.04.845.207c.487.244 1.141.43 1.596.457 2.528.019 3.047-1.134 3.313-3.208 0-2.67-2.125-3.877-5.049-2.87a4.644 4.644 0 0 1-.966.201l3.068-29.347 1.644 1.207.539-.293-1.438-1.226c.312-4.702-1.24-6.368-2.914-7.506 5.603-3.187 3.174-8.225-.552-9.776 0 0 2.421-1.414 2.906-2.899.413-1.326.26-3.43-.21-7.16-.35-5.753-1.586-17.639-1.586-17.639 4.895 3.69 9.92 7.64 14.647 11.372l9.473-13.166 22.831.16s17.353 15.754 26.087 23.787l7.54.068s.083.806.158 1.341c.715 7.78 5.934 13.122 10.685 16.869 1.937 1.74 6.723 6.309 6.723 6.309l-8.872 8.944-54.328-48.524s-.26-.708-.365-1.14c-1.255-5.139-4.66-7.291-7.757-6.929-3.249.38-6.02 3.58-5.88 9.026.02.842.326 2.327.326 2.327l-9.925 41.34s-3.969-3.03-6.111-4.486l-.472.274 5.81 4.366.432-.188 1.65 1.29.124.88c5.082 3.457 13.7 9.91 13.7 9.91 4.068-3.023 8.344-2.013 12.627-.876 0 0 3.114 1.041 4.77 1.034 8.417.19 15.87 1.824 23.693 4.65L84.55 285.587l54.318.111c-2.678-10.58-5.522-21.327-.438-39.373-5.357-1.081-17.268-5.847-17.268-5.847s-.056-.271.448-.89c2.201-3.149 7.77-11.683 12.988-16.618.635-.455 9.73-9.28 9.819-9.56.05-.157.268-.752.625-.986.838-.56 3.067-2.666 3.067-2.666l-11.383-9.87s-.5-.048-.662-.139c-1.589-.888-4.458-5.846-5.164-9.165-1.625-7.635 1.376-13.672 9.843-19.87 8.267-5.66 23.943-27.633 23.995-28.12 8.453 6.997 15.052 10.62 22.49 15.21-4.493 2.578-8.157 4.301-11.3 6.005-2.04 1.164-2.32 1.407-4.044.919-1.953.016-2.621.768-2.126 2.452 2.956 4.67 1.687 15.545-2.31 17.641-3.469 1.82-6.842 1.327-9.63.295-2.151-.689-2.123-.696-3.082 1.255-2.11 4.494-2.246 8.28-.298 12.59 1.598 3.46 3.973 5.037 4.266.372.172-2.74 1.379-5.941 1.34-8.884 2.424 2.675 4.03 3.897 8.007 4.987 2.667.415 5.5 3.76 5.413 5.124-.733.74-.956 1.685-1.074 1.617-1.3-.424-4.113-1.62-4.113-1.62l1.197 4.231s-.197.192-.774.486c-2.647 1.35-2.476 5.002.303 6.463.566.297.607.437.366 1.216-.346 1.736-1.105 2.901-1.515 4.621 0 0 .378.014 3.549-1.452l1.245-.577.75.803c1.643 1.756 3.616 1.746 5.338-.029l.788-.812 2.203 1.115c2.075 1.052 2.62 1.27 2.62 1.27s-1.196-4.643-1.418-5.174c-.12-.287-.365-.579-.543-.645-.296-.11-.25-.179.538-.803 1.996-1.582 2.197-3.765.495-5.424-.648-.632-.73-.764-.73-.764l1.033-4.304-4.287 1.42c-.676-1.44-1.751-2.094-2.43-2.387-.073-1.942-.317-3.938-3.654-6.974 1.124-1.027-.213-3.502-1.314-4.987 1.877.63 6.572 2.617 6.572 2.617l.71-.03 2.241 1.075.263.399s7.052 3.328 10.29 4.885c-.008-.174-.033-3.657-.043-42.003-.006-22.862.032-41.666-.014-41.787-.046-.12-.821-.715-1.626-1.322-1.484-1.12-1.788-1.34-3.673-2.597-1.513-1.009-1.411-1-1.097-2.164.361-1.335.353-3.172-.125-6.612-.353-2.539-1.633-11.469-2.524-18.676-.626-5.056-.774-6.178-.928-6.992-.248-2.048.018-2.94-.027-2.97 7.082 3.068 7.641-7.104.541-5.73 1.359-2.74 2.503-4.012 3.667-6.938-1.48-3.188-4.758-8.578-4.758-8.578l-5.189 9.035 3.054 6.251c-3.513-.632-5.377 1.925-4.727 4.218.706 2.028 2.65 2.596 4.366 1.779 1.321-.521 1.32-.653.149 9.256-.346 2.93-1.885 16.633-2.097 18.672-.142 1.37-.23 1.75-.788 1.448-.756-.325-1.189-.8-1.948-1.299l-.423.395a51.494 51.494 0 0 1 2.288 2.003c-.186 3.63-.113 5.731 2.908 7.502-5.475 3.433-2.274 8.713.942 9.476-1.917.495-3.807 2.96-3.349 7.86l1.553 20.192-14.844-11.022-8.713 12.47-22.956.028-25.895-23.365s-5.677-.078-8.006-.135c.264-.123-.489-7.222-4.236-11.858-4.074-4.843-13.346-12.836-13.34-12.839l9.738-9.886 54.669 49.206s.265 1.394.404 1.986c1.828 7.769 10.666 8.24 12.546.327.303-1.278.67-4.253.533-4.606-.043-.114.231-1.412.611-2.886 2.939-11.526 5.442-21.469 8.333-32.535.4-1.523.821-3.22.938-3.77.476-2.245.405-2.23 2.755-.461 1.44 1.083 2.034 1.471 2.034 1.471l.457-.476c-1.613-1.25-4.376-3.24-4.376-3.24l.03-.847c-8.877-6.356-10.705-8.044-15.96-12.21-4.073 3.587-9.897 2.134-13.546.866-.94-.37-3.251-.971-3.251-.971-9.09.012-17.077-1.743-24.62-4.208l29.082-51.789-11.232.001-.393.44h-5.844l-.02-.44zm107.251 170.327c.002.032.005 0 .005 0zm-74.1-169.157l3.976.077-23.533 41.989-2.5-.976s.229-.12.226-1.89c-.004-1.9-.414-2.711-1.27-3.833-.716-.97-1.022-1.024 1.077-.735 4.291.59 7.34-4.076 5.636-7.718-.658-1.405-.565-1.49 1.173-1.664 4.786-.477 6.648-6.549 3.26-9.574-.7-.634-.387-1.037.919-.755 4.14.893 7.348-3.698 5.703-7.295-.536-1.003-.054-1.17.702-1.27 3.545-.83 4.75-3.614 4.63-6.356zm-31.718.005l18.422.005c-2.479 3.79 1.898 6.036 2.452 5.77-3.971 2.169-2.881 5.226-.821 6.277 1.999 1.019 4.996.102 4.197-4.31l.986-.428c.958 1.083 1.91 7.801-5.4 6.866-1.302-.166-2.008 1.049-.919 1.722 5.776 6.64-3.266 9.575-3.66 8.473l-.03-1.124c2.445.45 5.575-2.701 2.831-5.502-1.56-1.592-6.084-.816-5.31 4.016-2.672-3.992-5.589-2.788-6.375-.679-.61 1.635.166 3.873 2.831 4.254-2.977 2.493-1.531 5.276.515 5.89 2.259.678 4.565-.242 3.942-4.345.036-.389.824-.262.89-.284 2.335 5.827-3.247 7.968-6.26 6.766-1.117-.435-1.702 1.287-.515 2.164 1.8 1.33 1.244 5.16 1.033 5.198-3.347-1.27-8.143-2.208-7.964-2.137 3.198-12.646 2.991-25.506-.845-38.592zm29.371.005l1.664.004c.022 2.382-1.013 5.314-5.078 5.766a6.998 6.998 0 0 0-.192-1.919c1.524-.345 3.547.078 3.606-3.851zm7.266.13l5.313.023-25 44.374-3.996-2.053zm-13.108 3.365a1.7 1.7 0 1 1 .005 3.4 1.7 1.7 0 0 1-.005-3.4zm-52.116.78C53.703 42.298 46 48.586 40.397 59.023c-5.852 10.612-3.173 19.752 5.092 21.447 4.358.894 9.451-3.35 10.103-7.963.156-1.1.348-1.414.866-1.414.757 0 .67 1.922.192 4.525-1.152 6.905-3.523 11.105-5.328 13.68l14.354-.12c-2.917-3.505-5.155-8.231-5.636-14.07-.353-3.174-.093-4.568.923-4.024.335.179.42.494.568 2.135.52 5.69 6.48 8.793 11.295 6.29 6.646-3.518 6.467-10.092 4.939-14.883C73.17 52.09 63.027 43.843 57.708 31.923zM13.843 35.85c1.725 1.462 3.435 3.113 4.612 4.576-1.653 1.183-3.392 1.255-4.46.666-1.2-.663-1.72-2.202-1.833-4.788-.063-1.435.442-1.501 1.681-.454zm2.073 13.72c.05-.012-2.597 5.405-4.54 8.319-1.384 2.56-4.8 7.023-3.884 10.593 1.058 3.714 5.025 4.66 7.136 1.804.989-1.34 1.2-1.18 1.173.317-.024 2.862-1.543 4.49-2.655 5.895l7.252.053c-1.537-1.846-2.919-3.38-3.078-5.886.005-.943.285-1.628.948-.61.747.728 1.382 2.067 3.423 1.692 2.117-.377 3.964-3.125 3.54-5.79-.569-3.095-2.504-6.137-4.448-8.746-1.624-2.178-4.927-7.532-4.867-7.641zm83.252.923a1.576 1.576 0 0 1 0 3.15 1.576 1.576 0 0 1 0-3.15zm82.3 1.255l4.23 7.367-4.827 8.55-4.03-8.194zm-.078 2.51l-2.976 4.915 2.702 5.034 3.073-4.784zm.058 2.107l1.539 2.971-1.87 3.015-1.554-3.188zm-4.102 9.982c.32.001.662.07 1.015.217 2.85 1.19 1.942 5.524-1.101 5.255-.402-.042-.93-.246-1.313-.504-2.111-1.732-.84-4.974 1.4-4.968zm6.968.082c2.493.045 3.995 3.513 1.37 5.136-1.266.705-3.16.277-3.904-.977-.64-1.075-.363-2.868 1.067-3.798a3.088 3.088 0 0 1 1.467-.361zm-3.462 4.948c.248.021.52 1.231.77 3.332.09.762.332 2.666.538 4.232.392 3.348.797 6.467 1.144 9.694.069.635.24 1.985.38 3 1.442 10.484 1.769 13.833 1.428 14.725-.91 3.126-5.175 3.365-6.958 1.548-1.347-1.373-1.545-2.88-1.015-6.809.307-2.268.433-3.41 1.332-12.08.211-2.03.516-4.73.678-6 .357-3.392.779-6.571 1.241-9.916.133-1.196.291-1.74.462-1.726zm-69.865 7.79s13.664 4.503 24.058 4.299c1.526-.001 1.774-.015 3.674.606 1.126.368 2.899.866 3.938 1.106 3.205.62 6.021.445 8.516-.572.392-.16.968-.642 1.548-.467.355.107.87.813.87.813-9.1 2.416-30.393 1.97-43.647-3.616zm70.196 1.433c-.056.01-.116.087-.182.192-.223.352-.039 2.66.788 9.997 1.58 14.018 1.574 14.318-.341 15.792-.941.724-1.087 1.015-.635 1.279.337.196.31.195.996.005 1.61-.448 2.278-1.726 2.264-4.338-.01-1.99-.033-2.23-.654-7.121a833.929 833.929 0 0 1-.654-5.309c-1.037-8.732-1.276-10.548-1.582-10.497zm-71.57 1.467c13.601 4.87 27.814 6.25 44.945 3.62 0 0 1.647 1.068 2.477 1.592l-.577.135.26 2.366 2.908-.467s1.574 1.252 2.746 2.02c-15.275 4.664-39.945 3.86-55.164-2.905-.58-.333-.919-.6-.919-.6.329-.807.726-1.287 1.13-1.737l2.78.794.803-2.534-2.126-.774zm3.562 3.034l-.89 2.496 3.886 1.154.664-2.549zm5.944 1.543l-.515 2.842 3.9.722.486-2.765zm6.453 1.332l-.308 2.741 4.136.438.254-2.775zm28.424.044l-3.52.384.22 2.414 3.56-.418zm-6.208.697l-3.491.23.12 2.53 3.51-.221zm-15.73.053l-.004 2.688 3.578.134.043-2.745zm9.84.336l-3.3.015-.014 2.558 3.332.014zm-38.249.452c.356-.01 1.17.782 1.505 1.669.662 1.744.358 3.678-.678 4.318-1.41.871-3.066-.493-2.096-1.726.171-.218.447-.437.615-.49.725-.23.894-1.372.5-3.347-.058-.292.015-.42.154-.424zm5.275.669c14.724 4.82 31.432 6.44 48.644 2.914 0 0-8.156 33.312-8.333 33.328zm-7.217.1c.775 0 .915 1.316.216 2.016-.893.892-2.596.176-2.24-.943.102-.325 1.512-1.072 2.024-1.072zm4.231.775c.16-.012.465.307.948.957 1.654 2.226 1.783 4.714.303 5.847-1.736 1.329-3.005-.733-1.558-2.534.374-.466.43-1.328.206-3.236-.08-.68-.06-1.022.101-1.034zm57.093.803c.19-.006.527.14 1.202.471 1.055.517 1.422 1.273.914 1.885-.738.89-2.762-.872-2.38-2.072.057-.183.116-.28.264-.284zm-1.587 1.159c.265.026.688.51 1.178 1.495.315.633.498.814 1.03 1.005 1.258.455 1.492 1.759.384 2.145-1.203.42-2.1-.445-2.65-2.558-.363-1.394-.282-2.12.058-2.087zm-52.669.933c.183-.011.533.398 1.087 1.216 1.646 2.43 1.079 7.092-.995 8.18-.914.48-1.551.377-2.284-.356-1.072-1.072-.808-1.92.783-2.505 1.356-.499 1.794-2.04 1.376-4.847-.167-1.122-.174-1.676.033-1.688zm7.838.77c10.056 8.29 19.133 17.18 30.833 27.557 2.779-8.548 6.83-26.297 6.843-26.356-.442.365-19.654 3.09-37.676-1.202zm37.676 1.201c.01-.007.012-.013.005-.019l-.005.02zm6.237-1.178c.167 0 .652 1.247.928 2.385.25 1.031 1.246 2.758 1.63 2.823 1.981.335 2.825 1.44 1.846 2.419-.718.718-2.274.311-3.024-.789-1.41-2.067-2.372-6.838-1.38-6.838zM48.33 95.936c1.196.01 2.345.763 2.635 2.317.338 1.81-.684 3.124-1.55 2.914-.94-.352-1.26-1.841-1.26-1.841s-.223 1.214-.609 1.827c-.843 1.287-2.616-.624-2.298-2.476.31-1.81 1.727-2.752 3.082-2.741zm71.567.476c10.95 1.645 20.37 2.071 33.434.654l-6.155 23.898zm-8.271.038c.162.01.495.302 1.014.851 1.702 1.8 2.193 4.296 1.087 5.535-.673.754-1.126.84-1.841.351-.914-.626-.983-1.567-.145-2 .771-.399.84-1.274.231-2.934-.455-1.237-.583-1.818-.346-1.803zm-71.437.616l4 1.659 1.434 3.38-3.991-1.029zm15.128.447l-1.188 3.366-3.077 1.15 1.197-3.64zm104.361.707c.148-.003.368.423.635 1.303.66 2.177.94 2.727 1.544 3.015.982.468 1.053 1.659.125 2.082-.59.268-.783.213-1.202-.337-.654-.856-1.18-2.496-1.275-3.967-.09-1.379-.017-2.093.173-2.096zm-44.537 1.52c.116-.009.286.161.539.46 1.554 1.848 1.723 4.682.331 5.53-1.348.823-3.233-.873-2.058-1.85.106-.089.35-.285.544-.433.327-.25.355-.396.384-2 .022-1.193.067-1.694.26-1.708zm11.809.196l19.153 17.406 4.397-17.218c-7.565.679-15.469.477-23.55-.188zm-47.051.876c6.05 6.389 13.968 11.554 15.849 17.907 3.37 8.746.899 18.892-6.992 24.697-4.355 3.296-8.624 6.765-12.175 10.954-5.827 6.203-9.716 12.98-13.609 17.898-.66.826-2.4 3.428-2.4 3.428s-.85.974-3.697-1.414c-7.551-6.714-15.476-11.584-23.543-16.224l3.414-1.909c6.735 3.84 15.108 9.306 22.64 15.676 0 0 5.988-8.746 7.9-11.252 2.771-3.596 4.718-5.913 7.3-8.694 6.59-8.138 13.397-10.83 16.228-14.95 4.148-6.037 4.326-13.193.914-19.302-3.365-5.829-9.908-9.825-14.253-14.652zm57.434.47h7.487s-1.1.918-1.943 1.482c-.529.354-1.147.305-2.313-.183-1.132-.474-3.231-1.298-3.231-1.298zm8.573 0l1.746.054c-1.305 1.64-2.643 2.697-4.395 4.154-.227.098-.353.138-.88-.033-3.579-1.184-6.863-2.689-10.348-4.112l3.106-.014s1.495.477 3.741 1.409c2.576 1.068 3.243 1.397 4.237.745.958-.637 1.75-1.596 2.793-2.202zm3.535 0l-.625 2.295c-1.045 1.304-3.156 2.807-4.92 4.289-.413.216-.4.255-2.207-.447-6.655-2.585-9.872-4.266-9.872-4.266l-1.351-1.207s1.735.497 2.88.948c.781.307 2.111.812 2.958 1.125.846.313 2.718 1.108 3.967 1.601 2.88 1.137 2.721 1.172 5.482-1.264 2.989-2.639 3.688-3.073 3.688-3.073zm-100.822.212l2.904 3.328-3.87 3.255-2.925-3.443zm110.2.004c.669 1.25 1.117 2.728 2.201 3.78.816.78 1.02 1.38.535 1.818-1.263.782-1.481-.48-1.872-1.304-.689-1.451-1.53-3.414-.863-4.294zm-105.026.333a4.79 4.79 0 0 1 .226 0c3.097.047 3.828 4.623.913 5.722-1.044.394-2.247.215-2.894-.433-.629-.628-.717-1.16-.286-1.489.672-.477 2.271-.51 2.271-.51s-1.452-.492-2.099-.855c-1.273-.725-.17-2.354 1.869-2.435zm63.767.005c.175.01.476.366.904 1.072 1.562 2.58 1.48 7.49-.15 8.733-.846.646-1.902.553-2.61-.231-.935-1.034-.647-2.08.74-2.693 1.34-.592 1.613-1.916 1.068-5.189-.19-1.14-.177-1.705.048-1.692zm-75.154.082c.925-.033 1.816.328 2.26 1.057.328.54.169.935-.45 1.204-.753.298-2.18.567-2.18.567s1.384.228 2.22.568c1.049.462.967 1.311-.567 2.04-2.954 1.404-5.745-2.432-3.308-4.633a3.201 3.201 0 0 1 2.025-.803zm77.678 1.85a.257.257 0 0 1 .072 0c.272.034.772.427 1.275 1.092 1.76 2.333 2.066 5.838.567 6.52-1.584.723-2.723-.766-1.582-2.067.808-.921.707-2.27-.365-4.938-.157-.388-.12-.581.033-.606zm38.032.111c.138-.01.391.55.798 1.684.895 2.493 1.66 3.539 2.582 3.539 1.158 0 1.765 1.586.851 2.226-1.805 1.264-4.169-1.833-4.342-5.693-.052-1.16-.028-1.745.11-1.756zm-9.54 1.246l-.535 2.034s-1.23 1.196-2.11 1.957c-1.399 1.208-1.743 1.448-2.847 1.072a140.458 140.458 0 0 0-5.15-1.654l-4.092-3.385 9.338 3.645s.81.238 1.092-.043c1.223-1.222 2.566-2.17 4.303-3.626zm8.809 1.904c.117-.027.235.123.317.495.423 1.916 1.037 3.304 1.553 3.52.655.274.906.841.63 1.419-.795 1.666-2.885-1.277-2.885-4.063 0-.791.19-1.326.385-1.37zm-33.704.135c.114-.007.298.163.587.452 1.29 1.29 1.681 4.858.644 5.895-1.499 1.499-3.099-.729-1.644-2.289.384-.412.385-.441.293-2.27-.064-1.272-.07-1.777.12-1.788zm-78.226.356l-1.01 3.346-3.227.832.755-2.755zm3.866.341c.256-.01.546.087.85.308 1.315.952 1.423 2.579.809 3.78-.588 1.172-1.79 1.508-2.953 1.389-1.508-.168-2.647-1.219-2.568-2.827.027-.807.378-1.7.924-2.083.384-.268.699-.158 1.031.394.31.54.84 1.76.84 1.76s.017-1.253.195-1.898c.144-.513.463-.806.872-.823zm2.462.293l2.337.799.923 3.173-2.616-1.014zm133.246.592s.67.284 3.862 2.818c.798.633 2.144 1.846 2.144 1.846l-.077 41.417s-6.292-3.401-7.107-4.208c-.434-.464-.225-1.764-.072-4.126.74-6.202 1.04-10.955 1.837-16.695.557-6.398 1.786-8.235-2.497-10.948 4.61-2.894 3.309-7.398.416-9.273zm-37.584.158l-.423 1.895c-1.517 2.597-2.876 2.464-5.198 1.26l-2.789-2.37c1.805.375 2.775.954 4.54 1.51.875.241 1.196.086 1.812-.467a84.17 84.17 0 0 1 2.058-1.828zm-20.677.996c.946 1.031 1.192 2.048 1.111 4.558-.182 1.786-.102 3.116-1.568 4.117-.715.469-1.952.47-2.505.004-1.326-.888-.595-2.664 1.143-2.75 1.096-.02 1.547-3.604.925-5.843-.097-.347-.072-.575.1-.591.173-.017.494.177.794.505zm29.636-.135c.213-.002.589.544.812 1.433.324 1.289.779 2.012 1.491 2.376.914.466 1.209 1.361.625 1.89-1.162 1.051-2.35-.21-2.731-2.9-.018-.306-.552-2.77-.197-2.799zm24.947.443c2.591.04 4.058 1.854 4.054 4.052-.028 1.585-.894 3.197-2.488 3.865-3.807 1.12-5.884-1.427-5.848-3.906.029-2 1.69-4.052 4.282-4.011zm-52.318 1.437c2.18 2.18 2.278 6.843.144 6.843-2.56-.847-.563-2.358-.514-2.75.2-1.607-.168-2.636-.544-4.136-.165-.887.674-.216.914.043zm52.457-.211c-.457-.014-.424.446.414 1.168 1.52 1.31.775 3.726-1.15 3.737-.888.004-1.105.602-.331.913 2.99 1.201 5.03-3.344 2.351-5.236-.56-.396-1.01-.574-1.284-.582zm-114.328.61c2.405.82 3.235 5.404 3.326 7.021.108 2.814-1.202 7.414-2.37 8.333-3.026 2.38-4.445-6.034-1.857-11.449.227-.444.51-1.044.404-2.15-.105-1.097.08-1.747.497-1.755zm79.5.443s-.304 1.374-.626 2.125c-.372.87-.647.897-1.514.154-.484-.413-1.284-1.27-1.284-1.27.755.119 1.43.51 2.072.193.685-.339 1.237-.974 1.351-1.202zm9.131.072c.17.006.389.485.678 1.433.792 2.596 1.485 3.573 2.534 3.573 1.72 0 2.094 2.07.471 2.601-.601.197-.804.196-1.572-.01-1.158-.308-2.742-4.214-2.515-6.202.107-.935.233-1.4.404-1.395zm-105.886 1.51c.631-.015.88.296 1.25 1.063.423.873 1.53 1.983 2.467 2.466 2.26 1.11 4.639 1.978 6.872 3.092 2.895 1.455 5.488 5.907 3.712 6.372-.644.148-1.385.156-2.044.096-.215-.113-.635-.6-.932-1.087-1.32-2.16-3.79-4.276-7.598-5.265-2.685-.698-5.09-4.005-5.607-5.559-.134-.402-.14-.718.221-.822.764-.22 1.28-.347 1.66-.356zm81.631.27c.12-.02.296.133.563.418 1.598 1.708 1.796 4.844.36 5.731-1.556.962-2.919-.628-1.697-1.98.539-.597.539-.596.539-2.386 0-1.233.036-1.751.235-1.784zm23.264 1.99c.192.008.48.538.827 1.582.494 1.482.561 1.598 1.126 1.89.954.493 1.11 1.232.408 1.933-1.306 1.306-2.62-.796-2.625-4.193-.002-.817.095-1.219.264-1.212zm-20.89.235c.119.011.45.272.709.578 1.957 2.321 1.564 7.758-.62 8.573-.73.273-.952.288-1.405.092-1.628-.705-1.43-2.424.577-3.515 1.5-.817.431-5.707.74-5.728zm-100.1 1.712l8.084 4.01s2.216 4.666 3.236 6.416c.7 1.213 2.102 2.383.654 3.192-2.432 1.649-3.81 2.588-3.789 3.612.018.828 1.048 1.672 2.433 3.303 1.99 2.343 1.971 1.803.164 5.376-1.385 2.506-2.563 8.18-2.563 8.18l-8.165 4.207c2.43-5.803 5.29-10.741 8.497-14.272-2.382-1.768-4.384-3.61-6.473-6.054 1.541-2.063 3.575-3.73 5.453-5.525-3.813-4.31-6.202-8.445-7.53-12.445zm102.232.073c.013-.002.029-.001.043 0 .34.022 1.113.864 1.794 2.216.879 1.747.964 3.946.183 4.727-1.347 1.347-3.1-.384-1.842-1.817.888-.646.646-2.25-.053-3.92-.323-.8-.318-1.175-.125-1.206zm-103.126.783c2.104 4.47 4.456 8.104 6.867 11.546l-5.26 5.52c1.619 1.88 3.582 3.898 6.337 6.242-3.383 3.762-5.602 9.029-7.823 14.002zm120.985.097c.182.013.441.555.707 1.644.335 1.374.565 1.725 1.366 2.068 1.272.545 1.302 1.775.053 2.217-.458.162-1.315-.298-1.669-.9-.467-.859-.707-2.014-.702-3.072-.074-1.31.039-1.973.245-1.957zm29.168.827c1.988.557 2.707 2.55 2.319 6.241-.52 4.937-1.13 10.43-1.625 14.965-.572 5.232-.902 7.95-1.03 8.155-.403.653-.47-1.805-.177-4.54.444-3.906.69-7.328 1.067-11.232.845-8.686.639-11.432-.933-12.233-1.215-.62-1.738-.255-.841.591 1.71 1.319 1.656 1.87-.173 23.26-.188 2.212-.265 3.779-.265 3.779l-2.322-1.443s-.173-1.833-.39-4.601c-.524-5.215-.83-10.774-1.178-15.773-.373-5.332.626-7.198 3.934-7.328.528-.02 1.115.022 1.614.16zm-42.675 3.1c.254.705 1.407 5.965-1.544 4.455-.787-.444-.83-1.139-.25-1.814.65-.755.801-1.84.476-3.39-.198-.943-.437-1.725-.437-1.725.569.208 1.689 2.289 1.755 2.473zm-87.753-1.65c2.497.474 5.24 1.93 7.007 3.751 1.096 1.166 1.04 2.104-.674 2.214-1.65.242-1.686.51-2.474-.172-.354-.277-1.043-.957-1.83-1.079-2.49-.385-3.761-5.043-2.029-4.714zm100.77 1.377c.263.424.29 1.255.51 1.851.372 1.667 1.516 2.9 2.543 2.746.69-.083 1.644.126 1.746.952.2.7-.166 1.361-.924 1.664-.854.342-1.819.132-2.548-.553-1.537-1.444-2.475-6.156-1.327-6.66zm-12.008.065c.895.344 2.038 3.21 2.16 5.484-.004 1.629-.255 3.677-1.66 4.453-.891.461-1.813.231-2.216-.548-.495-.956-.127-1.944.894-2.404 1.25-.564 1.657-3.099.895-5.574-.043-.412-.668-1.581-.073-1.41zm-95.364 1.19l6.588 3.337c-.959 1.31-1.712 2.523-2.231 3.905-2.094-2.375-3.192-4.796-4.357-7.242zm97.84 1.143c.113-.003.492.359.823.68 1.645 1.592 2.354 4.483 1.361 5.54-.793.844-2.182.785-2.414-.102-.084-.435.378-1.249.582-1.64.304-.581.358-2.243-.1-3.457-.207-.544-.398-1.018-.253-1.021zm-45.767.656l7.443.254 24.938 22.461-2.342-.052-22.913-20.88-7.131.02zm-42.887 4.046c-2.842 4.516-3.617 10.21-1.872 15.27 1.325 3.588-1.568 3.803-2.755 1.438-.912-1.768-1.437-4.845-1.16-8.122.39-5.3 2.835-10.619 4.794-11.257 1.988-.65 1.552 1.95.993 2.67zm102.182 10.87c-.757 3.533-2.158 5.291-4.145 6.025-8.142 3.007-11.689-13.413-4.136-17.34 7.199-2.393 9.28 6.65 8.28 11.315zm-59.747-10.728l7.02.144c6.4 5.821 13.28 11.253 20.13 18.33h-3.314l-1.197-1.139c-6.191-5.53-10.777-10.043-16.744-15.18l-6.266-.174zm53.563 1.083c-3.796.153-4.105 5.296-3.992 7.244.277 2.807 1.396 6.955 4.958 6.628 2.615-.261 3.825-3.357 3.586-7.075-.225-3.499-1.652-6.8-4.552-6.797zm-54.203 1.706l6.16.14c5.426 4.732 11.166 9.873 16.869 15.546h-2.688s-.703-.67-.914-.885c-4.617-4.174-9.31-8.824-13.786-12.575l-6.391-.25zm54.304.202c1.078.4 1.258 3.024.317 4.112-.644.745-2.127-.666-2.26-2.444-.081-1.083.973-2.027 1.943-1.668zm-101.808.327c-.496 1.697-.822 3.605-1.024 5.67l-2.578-3.275zm103.765 3.16a1.14 1.14 0 1 1 0 2.278 1.14 1.14 0 0 1 0-2.279zm-51.755.571l12.276 11.541-3.496.038-10.069-9.126-6.39-.24 1.25-2.179zm47.745.197a1.14 1.14 0 1 1 0 2.279 1.14 1.14 0 0 1 0-2.279zm14.613.025c6.92 5.378 16.69 12.514 26.837 18.301 0-.02-1.672 1.314-3.212 1.736-7.898-4.354-17.295-10.495-23.115-15.474-5.495 8.088-16.05 22.804-25.433 29.597-5.921 4.236-8.904 9.457-8.886 15.56.017 6.314 2.247 10.424 8.458 15.595 4.006 3.336 8.386 7.593 8.386 7.593l-2.303 1.986c-.383-.047-6.72-5.507-13.133-11.945-3.523-3.538-5.09-11.302-4.49-15.493.815-5.698 2.714-9.782 8.116-14.18 2.074-1.606 4.17-2.853 5.996-4.68 16.784-17.952 22.779-28.596 22.779-28.596zm-11.233 2.933c.635 1.304.983 3.015-1.005 3.13-1.178.068-1.853-1.893-.832-3.64.773-1.375 1.46-.205 1.837.51zm-59.146-.346l6.626.197s6.535 5.696 9.834 8.852h22.196c12.208 0 22.24.05 22.298.106.152.152-1.577 2.472-1.577 2.472l-73.207.043c.016-.011 4.522-4.024 6.136-5.15 2.858-1.993 5.478-3.849 7.694-6.52zm-44.86 2.755c.48 1.767.88 3.57 1.708 5.198l-5.083 2.698c.934-2.69 2.003-5.279 3.375-7.896zm141.143 14.695c-1.01 2.75-3.651 8.364-6.843 12.618-.633.815-1.067 1.452-1.067 1.452l6.227 5.963-5.405 5.746c3.036 3.159 5.603 7.997 6.953 11.848-2.451-.968-3.828-1.553-6.852-3.236-.855-2.145-1.727-4.417-2.688-6.376-2.206-4.47-2.176-4.032-.375-5.347 2.636-1.925 3.421-2.372 2.736-3.342-.482-.682-3.592-4.375-3.78-4.491-.286-.177-.158-.723.37-1.597 1.803-3.236 3.28-6.803 4.199-9.973zm1.178.226l.163 37.575c-2.23-4.49-4.55-9.075-7.136-11.94-.097-.195 5.641-5.8 5.641-5.8-2.103-1.948-3.333-3.112-6.27-5.818 2.86-4.123 5.125-9.513 7.602-14.017zm-157.92 1.303l7.14 4.145c-.378 5.3-.854 12.258-1.586 19.316-.613 5.508-.866 8.046.11 9.574.827 1.118 3.057 2.328 3.057 2.328-3.755 1.52-5.203 6.003-.993 9.357 0 0-1.023.804-1.476 1.289l-5.857-4.38zm111.748 1.9c-1.78 1.994-4.572 4.952-6.713 6.366-2.857 1.887-6.867 5.509-6.675 5.564 0 0-4.203-.021-7.049-.135l-9.82-8.761s.352-.13-13.011-.02c-17.27.143-31.266-.048-31.266-.048l1.962-2.755zm35.002 1.721c-.968 3.106-2.467 5.978-4.367 8.67-.44-1.91-.681-3.937-1.6-5.559zm-138.705.995l.856.611s-.51 6.484-.678 8.382c-.301 3.505-.449 6.665-.755 10.237-.615 7.092-.512 8.137.88 9.233 1.07.8 1.8.437.851-.577-.625-.805-.623-.789-.812-1.972-.132-.822-.112-2.05.076-5.376 1.06-18.738 1.28-19.368 1.304-19.374l2.134 1.38c-.119.288 1.955 18.886 1.745 23.51-.247 5.405-7.523 4.212-7.868.2-.143-.923 1.238-16.103 1.238-16.103zm59.353 1.092l2.856.082 17.619 16.195 6.006.13-.524 2.044-5.804-.015zm10.925 0h2.765l10.084 9.141 6.208.096-1.183 1.76-6.175-.178zm-3.443.01l14.907 13.44 5.082.264-.783 1.837-6.026-.168-16.748-15.34zm-14.373.048h3.097l23.302 20.98 6.107.11-.091 1.89-7.352-.034zm78.419.596c1.23.308 1.835 1.5 2.702 5.92 1.011 5.153-1.18 13.52-3.923 15.089-1.42 1.117-2.965-.068-1.962-1.525 3.274-4.755 3.706-12.536 1.77-16.887-.615-1.399.018-2.849 1.413-2.597zm-98.865.774c7.446.09 9.37 15.381 2.046 17.525-4.758.703-7.209-3.604-7.9-7.49-.813-4.829 1.315-10.09 5.854-10.035zm-4.093 9.174c.445 3.064 2.346 6.574 5.109 6.274 3.634-.394 4.09-5.246 3.73-7.688-.435-2.946-2.06-5.617-4.655-5.764-3.87-.22-4.527 4.813-4.184 7.178zm3.992-5.952c1.038-.017 1.803 1.37 1.52 3.092-.184 1.114-.608 2.486-1.862 1.554-.583-.532-1.106-2.094-.966-3.261.093-.767.471-1.364 1.308-1.385zm102.673 3.534l3.496 4.044-3.972 2.784c.558-2.128.743-4.39.476-6.828zm-100.139.366a1.143 1.143 0 0 1 0 2.284 1.143 1.143 0 0 1 0-2.284zm-4.078.702a1.14 1.14 0 1 1 0 2.279c-.63 0-1.144-.51-1.144-1.14 0-.63.514-1.14 1.144-1.14zm2.308 1.471c.573.174.939.7 1.246 1.157.763 1.135.862 2.559.32 3.154-1.095 1.302-2.805-.09-2.6-2.099.152-1.473.543-2.361 1.034-2.212zm9.762 4.463c1.635 0 2.096 1.928.688 2.87-.916.613-1.12 2.607-.553 5.367.459 1.993.218 2.301-.972.505-2.032-3.258-1.507-8.742.837-8.742zm-3.823 1.048c1.434-.055 1.895 1.04 1.058 1.88-.49.544-.441 1.98.106 3.16.774 1.708.592 2.224-.856.581-2.001-2.14-1.97-5.558-.308-5.621zm94.797.832c1.627 2.163 3.07 4.985 4.386 8.184l-7.055-3.241zm-103.086 8.697c-.499-.578-.74-2.45-1.15-3.25-.318-.959-.595-1.518-1.113-1.486-2.98.253-2.854-2.597-1.143-3.136 3.54-1.114 4.832 7.436 3.406 7.872zm14.789-2.877c-.506 1.494-.138 2.387-.033 3.983.089.725.126.916-.47.36-1.413-1.234-2.165-5.443-.891-6.223 1.712-1.05 2.23.722 1.394 1.88zm70.674-1.997c.691-.032 1.476.506 1.865 1.495.56 1.423.509 4.913.226 6.77-.432 2.844-1.118 5.455-1.399 7.41-.998 1.187-3.457-3.01-3.688-6.323-.387-2.627.518-8.085 2.539-9.237.144-.07.297-.108.457-.115zm9.523.447c.619-.028.478.18.935.659.695.726.977.903 1.957 1.211 2.024.637 4.248 3.457 3.391 4.314-.677.537-2.52-.477-3.15-.693a442.46 442.46 0 0 0-1.88-.644c-1.696-.572-4.135-3.698-3.376-4.328.406-.337 1.643-.497 2.123-.519zm-4.931.52c1.253.012 1.596.324 2.313 1.673 1.063 1.998 3.037 3.409 5.905 4.221 3.66 1.118 6.819 3.24 6.665 7.17-.873.01-1.747.067-2.62.333-1.014-2.851-3.535-4.486-5.704-4.978-5.005-1.135-9.65-6.213-8.329-8.228.578-.294 1.197-.199 1.77-.192zm-86.33.25l43.235 37.65c-18.245-6.768-34.984-6.623-51.168-4.12zm18.439 2.492c-.081 1.172-1.69 1.423-2.022 1.712-.809.703-.701 2.733-.356 5.1.265 1.421-.089 1.358-.836.245-1.323-1.971-1.297-5.39-.42-7.404 1.131-2.594 3.748-1.295 3.634.347zm-24.863-1.844c1.658.173 2.115 2.428 2.184 3.924 0 2.061-.585 1.984-.914 0-.157-.879-.43-1.22-1.14-1.433-1.613-.483-1.718-2.49-.13-2.49zm20.09 2.304c-.424.467-.434 2.652-.047 4.12.213.813-.182.876-.731.231-1.789-2.097-1.953-5.655-.294-6.342 1.352-.351 1.703 1.298 1.073 1.99zm-18.705 4.207c.04 2.094-.437 2.287-1.067.28-.162-.467-.448-.937-.654-1.078-1.177-.805-1.384-1.434-.702-2.116 1.675-1.367 2.401 2.291 2.423 2.914zm6.319-1.846l-5.862 25c14.427-1.21 20.982-1.464 36.397 1.548zm17.48.413c.881.221 1.186 1.373.158 2.462-.338.432-.652 1.098-.24 2.865.563 2.418-.386 1.645-1.54-.638-.739-1.463-.4-5.195 1.621-4.689zm-27.597.077c1.567 0 3.02 2.544 3.043 5.328.017 2.25-.304 2.087-1.14-.062-.588-1.422-1.062-1.937-2.13-2.309-1.978-.688-1.805-2.957.227-2.957zm10.593.721l27.15 23.726c-11.118-1.777-22.032-1.913-32.632-.582zm22.596.895c2.13 0 2.967 2.63.356 3.551-1.557.549-.893 3.696-.607 5.566.109.705-.114.754-.562.125-1.64-2.421-2.558-8.526.813-9.242zm-2.876 2.957c-.386.61-.43 1.263-.164 2.443.69 2.538.87 3.007-.572 1.717-1.517-1.605-2.18-4.782-.909-5.723 1.428-1.057 2.715.116 1.645 1.563zm-53.65-1.958c2.52-.018 4.352 1.613 4.255 3.888-.106 2.505-1.676 4.086-3.98 4.217-2.574.13-4.163-1.922-4.22-4.049-.05-1.878 1.145-4.036 3.945-4.056zm-.043 1.006c-2.884-.01-3.965 3.793-1.577 5.55 1.023.752 1.832.54.99-.26-1.585-1.508-.948-4 1.14-4.458 1.032-.227.632-.828-.553-.832zm35.117.644l-3.471 16.84c7.102-1.103 15.694-.767 22.326-.144zm-11.694.64c1.727-.088 2.232 2.51 2.245 3.544.002 1.337-.156 2.033-.403 1.318-.58-1.686-1.154-2.612-1.779-2.612-.338-.086-.627-.223-.9-.529-.614-.811-.02-1.687.837-1.721zm12.017.673l2.288 1.943c-1.472-.646-2.726 1.024-2.726 1.024zm23.557 3.179c-.664.835-.66 2.598-.144 4.65.144.574-.393.148-.933-.534-1.025-1.291-1.505-2.804-1.32-4.045.206-3.136 4.185-2.525 2.397-.071zm-36.209-1.5c1.481.167 2.04 3.26 2.005 4.197-.048.98-.271 1.642-.466 1.046-.381-1.293-1.17-3.15-1.851-3.575-1.17-.73-.84-1.565.312-1.669zm113.418 3.465c.053 1.09-.401 2.208-1.073 2.567-.687.368-1.106-.13-1.516-1.388a67.288 67.288 0 0 1-.408-1.28s-.254 1.157-.335 1.4c-.536 1.604-2.28 1.62-3.01-.174-.777-2.09 1.394-4.234 3.063-4.157 1.85.085 3.181 1.28 3.28 3.032zm-98.94-2.336c.521 0 2.54.904 2.54.904l2.01 1.78s-1.849-.804-2.5-1.034c-1.557-.551-1.524-.556-2.78.471-1.294 1.057-2.356 1.832-2.356 1.832l.399-2.284s1.893-1.668 2.688-1.669zm-13.19 5.612c.297 2.414-.377 2.618-1.033.313-.561-1.974-1.114-2.693-2.068-2.693-1.756.262-2.347-2.343-.77-2.866 2.979-.836 3.745 4.294 3.872 5.246zm102.04-5.294l2.745 1.274.582 2.842-2.53-.625zm-61.54.262c2.643-.733 2.97 2.556.944 3.042-1.237.297-1.23 2.212-.878 4.995.08.635.251 1.405.212 1.51-.188.504-.817-.265-1.664-2.048-1.264-3.252-.87-6.874 1.386-7.5zm75.537-.041l-.764 3.289-2.323-.159-.086-2.014zm-78.249 2.139c-1.272 1.842-.129 3.542.153 4.984.05.838-1.031.018-1.654-1.204-1.3-2.546-1.375-4.602-.207-5.52 1.636-.958 2.388.756 1.708 1.74zm-23.828-.451c.45.004 1.059.248 2.337.74.969.373 3.212 1.284 3.212 1.284l2.967 2.62s-2.605-.96-4.419-1.725c-4.085-1.726-3.498-1.782-6.727.678-.932.71-1.904 1.52-1.904 1.52l.394-2.107s1.22-1.212 2.74-2.308c.656-.473.95-.707 1.4-.702zm-37.998.995c2.09-.058 3.465 1.605 3.968 3.462.29 1.076.04 2.07-.02 3.102-1.443 11.056-2.077 21.316-3.404 31.554-.163.489-.34.307-.553-.572-1.536-9.282-2.536-19.47-3.828-28.67-.295-3.434-1.182-7.925 3.164-8.804.232-.044.457-.066.673-.072zm-.125 1.226c-.922.037-2.012.67-2.399 1.486-.79 1.666-.584 5.058.918 15.224.125.847.299 2.26.385 3.14.264 2.7.622 4.843.88 5.242.492.758.555-.057.202-2.698-.18-1.348-.425-3.408-.543-4.578-.676-4.821-.822-8.252-1.241-12.651-.21-2.163.66-3.757 2.294-4.188.884-.234.931-.632.106-.9a1.729 1.729 0 0 0-.602-.077zm138.248.136c3.053.007 4.176 4.281 1.188 5.789-1.109.559-2.969.295-3.43-.598-.224-.695.026-1.1.58-1.395.674-.358 1.663-.666 1.663-.666s-1.617-.314-2.073-1.079c-.982-1.65.82-2.02 2.072-2.051zm-114.878 4.61c-.034.806-.445.474-.548 0-.329-1.072-1.016-2.234-1.592-2.697-.695-.56-.861-1.317-.389-1.789 1.773-1.566 2.52 3.984 2.53 4.486zm103.59-4.622c.782-.023 1.845.243 2.517.915.868.868.821 1.194-.633 1.724-.706.262-1.193.466-1.193.466s.656.258 1.143.394c1.395.465 1.321 1.274.04 2.23-1.743 1.302-4.544-.426-4.512-2.717.026-1.817 1.146-2.969 2.638-3.012zm6.446-.013l2.789 3.073-3.26 3.375-3.068-3.366zm-94.778.288h.12c.865.016 2.244.6 5.626 1.962 1.859.749 4.006 1.602 4.006 1.602l3.044 2.692s-4.17-1.309-5.621-2.043a19.406 19.406 0 0 0-1.54-.654c-.53-.2-1.848-.715-2.928-1.15-2.321-.934-2.347-.94-3.125-.283-.333.28-1.15.921-1.813 1.423-.664.502-1.633 1.24-2.154 1.635-.615.467-1.39 1.173-1.39 1.173l.49-2.596s.439-.43 1.222-1.03l2.404-1.84c.699-.536 1.063-.862 1.66-.89zm29.934 2.28c.086.54.035.644-.587 1.279-.785.801-.892 2.115-.317 3.818.158.47.352 1.026.308 1.069-.83.83-3.013-4.408-2.491-5.97.623-1.866 2.673-1.893 3.087-.196zm-47.87.226c.571-.027 1.235.406 1.568 1.308.902 2.52.35 5.612-.573 2.731-.24-.61-.652-1.264-.966-1.596-.324-.345-1.051-.743-1.034-1.304.07-.734.5-1.116 1.005-1.14zm18.662.072c.366.012.854.194 1.731.553.793.324 3.025 1.068 4.294 1.558 1.972.76 4.03 1.765 4.03 1.765l-4.462-.25s-1.517-.505-2.42-.876c-3.267-1.342-3.085-1.335-4.712-.1-.58.44-1.312 1.153-1.312 1.153l-2.27.126s1.067-1.139 2.606-2.28a42.854 42.854 0 0 0 1.525-1.183c.383-.319.624-.478.99-.466zm34.912.88c1.242-.235 1.922.948 1.844 1.687-.086.81-.839 1.617-1.996 1.842-.243.905-.937 2.972-.532 6.054.326 1.445-.285 1.477-.909.092-1.01-2.245-2.483-8.903 1.593-9.675zm-3.545 2.471c-.527 1.126-.71 2.033-.419 3.453.324 1.578.392 1.967-.505.981-1.736-2.315-1.99-6.001-.389-6.424 1.545-.409 1.884 1.268 1.313 1.99zm-52.058-1.725c2.71.428 3.509 5.045 3.13 7.02-.718 2.39-.682.775-.933-.221-.667-2.406-1.439-3.715-2.265-3.852-2.223-.37-1.911-3.26.068-2.947zm20.773.908a.542.542 0 0 1 .13.01c.892.149 3.28.886 2.25 1.134l-3.525.02c-.684.025.446-1.115 1.145-1.164zm94.912.755c.342-.031.808.37 1.356.928 1.254 1.278.704 3.292-.99 4.285-2.66 1.558-5.688-1.38-4.227-4.078.802-1.481 1.765-1.217 2.586.873.15.254-.001-.261.28-.897.28-.634.653-1.08.995-1.111zm-4.462.149l-.798 3.212-3.241 1.558 1.183-3.957zm6.742.548l2.582.207 1.433 4.174-3.722-1.587zm-61.017 2.36c1.878.077 2.069 1.85.99 2.627-.604.579-.812 1.416-.687 2.755.056.595.174 1.324.168 1.409-.017.285-.254.24-.577-.11-1.983-2.162-1.719-6.757.106-6.682zm-56.814.694c1.19 0 2.54 3.41 1.876 4.714-.418.766-.822.577-.975-.312-.114-.647-.484-1.532-1.444-1.69-1.395-.446-.94-2.712.543-2.712zm60.247 2.063c.91.47.995 1.516.174 2.101-.638.454-.806.838-.904 2.068.208 2.8-1.365 1.022-1.513-1.525-.08-1.386.67-3.443 2.243-2.644zm-61.247.86c.854 0 1.87 1.534 1.644 2.43-.12.71-.492.584-1.014.056-.202-.157-.655-.32-.867-.384-1.278-.387-1.063-2.102.237-2.102zm24.279 1.178c11.547-.053 23.557 1.78 33.54 5.766l-.822 1.476-2.621-.899-.9 2.375 2.16.823-1.015 2.192c-11.782-3.875-24.489-6.76-45.605-3.635-1.048-.73-2.943-2.169-2.943-2.169l1.688-.37-.221-2.346-4.265.76-1.246-1.304c6.668-1.71 14.35-2.632 22.25-2.669zm38.728.515c1.106.002 1.792 1.243.981 1.774-.568.372-1.828.474-2.082.169-.523-.631.22-1.944 1.101-1.943zm-40.358 1.452l-.048 2.433 3.481-.11.072-2.308zm6.083.053l.014 2.39 3.38.11.16-2.341zm-8.843.164l-3.42.226.106 2.23 3.39-.148zm15.286.37l-.086 2.303 3.438.38.25-2.342zm-21.648.11l-3.438.438.293 2.294 3.342-.37zm28.294.746l-.337 2.404 3.207.476.414-2.284zm56.275.697c1.548 2.166 3.029 4.013 4.058 6.434 1.322 3.11 2.21 7.176 2.207 10.526-.001 2.002-1.397 1.599-1.683-.486-1.201-8.778-11.763-10.099-15.916-1.99-1.08 2.323-1.284 5.19-.717 8.39 2.008 11.321 16.276 22.254 20.75 34.132 8.4-17.213 15.772-19.888 19.595-33.9 3.08-10.773-7.405-18.784-15.008-11.806-1.388 1.28-2.669 3.658-2.818 5.227-.315 2.524-1.436 2.148-1.543.068-.04-2.19.9-6.396 2.226-10.142.706-1.976 1.757-4.408 3.179-6.453zm-49.918.65l-.318 2.428 3.26.692.438-2.255zm-23.077 2.798c10.826-.013 20.691 1.852 29 5.01 0 0-1.076 2.322-1.456 2.573-5.963-2.38-16.124-4.592-22.99-4.712-2.516-.094-3.074-.16-4-.481-5.234-1.721-9.854-2.465-14.114.077l-1.74-1.231a98.166 98.166 0 0 1 15.3-1.236zm118.379 9.054s.612.825.99 1.28c1.676 2.018 2.7 5.63 1.597 5.63-.274 0-.407-.253-.813-.644-1.5-2.219-4.503-1.443-5.665.197-1.194 1.687-1.323 4.415-.399 6.415 3.005 6.198 8.769 13.274 8.665 14.084 3.081-6.876 5.608-8.815 7.891-13.848.82-2.494.829-3.952.193-5.867-.869-2.615-5.082-3.808-6.574-1.082-.492.831-.881 1.07-1.216.736-.682-.682.5-4.416 1.885-5.948.244-.271.702-.953.702-.953zm-164.1 4.823c2.477.03 3.655 3.825 1.04 5.42-.702.397-1.625.344-2.366.01-2.12-1.01-2.278-4.162.192-5.194.4-.167.781-.24 1.135-.236zm80.91.125c.887.542 4.16 1.991 4.16 1.991l-22.99 41.561-5.564.043zm-74.152.099c1.378-.154 2.356 1.029 2.711 2.017.485 1.349-.385 3.745-2.813 3.607-2.786-.158-4.034-5.163.102-5.624zm79.062 2.162c.617.338 2.85.709 3.044 1.14.084.214-.085.639-.135 1.187-.12 1.321.21 2.784 1.01 3.957 1.31 1.82-.109.985-1.418.972-2.956-.755-6.72 3.271-5.29 7.415.33.916.266.989-1.317 1.471-3.595 1.094-5.163 4.909-3.436 8.316.9 1.774.927 1.684-.657 1.816-4.398.365-6.953 4.267-5.106 8.256.285.618.104.787-.856.967-3.003.55-4.348 3.062-4.727 5.818l-3.972.039zm3.809 1.466l7.63 2.082c-3.168 10.775-3.606 23.293.208 37.772l-17.547.014c2.437-2.187 1.474-5.21-1.374-5.874 2.764-1.587 2.766-5.81-.547-6.318-2.912-.446-4.416 2.323-3.123 5.098l-1.244.338s-.557-.699-.685-1.072c-1.098-3.203 1.202-6.382 5.122-6.371 2.417.006 2.918-.678 1.582-2.164-2.39-2.657-1.637-6.39 1.481-7.86 1.436-.676 2.283-.228 2.283-.228l.074 1.76s-.582.057-1.035.129c-3.445.55-2.806 6.041.695 5.994 1.927-.026 3.306-1.488 3.306-3.587 0-.59.003-1.46.003-1.46 1.77 3.028 4.81 3.245 6.104.782 1.524-2.9-1.241-4.722-4.013-4.423 0 0 .581-.378.95-.567 2.95-1.517 1.934-5.854-1.33-5.854-2.24 0-3.547 2.08-2.825 4.288.116.354.39.921.39.921l-1.332.338s-.303-.23-.438-.442c-2.286-3.573 1.385-7.51 6.01-6.617 1.694.531 1.64-.64.688-1.697-1.022-1.525-1.785-3.252-1.033-4.982zm-86.243 1.558l4.006 7.06-4.487 8.13-4.448-7.616zm-.394 3.674l-2.78 3.828 2.722 4.395 2.582-4.448zm-.12 1.438l1.808 2.423-1.823 2.977-1.784-2.794zm82.775 7.626c.842 0 1.53.682 1.53 1.524a1.528 1.528 0 0 1-3.054 0c0-.842.682-1.524 1.524-1.524zm83.242 8.396c-1.172.03-2.442.371-3.76 1.053-1.42.735-1.421.733-1.977.366-1.352-.896-1.769-1.106-3.294-1.106-.947 0-1.6.052-1.6.052l.129 3.655c3.285-.089 4.185 1.027 3.496 3.005-.716.897-.554 13.794-.327 18.768-.054 2.444 1.032 4.768 2.534 6.18 2.346 2.078 6.498 1.923 8.91.187 1.61-1.159 2.377-3.099 2.72-5.07.162-4.045.07-8.1.07-12.15l2.6.03-.028-3.665-2.54-.149s.027.105-.08-2.611c.178-5.682-2.74-8.39-6.622-8.545a5.018 5.018 0 0 0-.231 0zm-.207 3.684c2.143.163 3.013 1.013 3.508 2.842.353 1.304.485 2.843.19 3.327-.481.788-2.334-.584-4.76-3.544-.818-.997-1.182-1.51-1.182-1.51.47-.838 1.465-1.174 2.244-1.115zm-3.896 4.92c2.228 1.915 2.543 3.859 7.798 5.706 0 0 .15-.204.06 6.204-.098 7.069-.52 8.516-2.654 9.102-1.848.508-3.589-.35-4.357-2.144-.785-1.836-.975-6.157-.947-14.378.01-2.984.1-4.49.1-4.49zm-89.923 2.138a1.58 1.58 0 1 1 .006 3.16 1.58 1.58 0 0 1-.006-3.16zm-2.39 1.076c-.145.061.003 1.433.348 2-2.278.14-2.881 1.883-3.103 3.354l-2.04-.005c.34-4.976 4.65-5.087 4.794-5.35z"/></svg>