<svg xmlns="http://www.w3.org/2000/svg" width="224.225" height="312.808"><g transform="translate(-6703.887 2435.498)"><rect ry="10.63" rx="10.63" width="223.228" height="311.811" x="6704.386" y="-2435" fill="#fff" stroke="#000" stroke-width=".997"/><g fill="#d40000"><path d="M6737.235-2377.695c9.921-9.681 16.437-20.237 22.668-30.388 5.464 11.17 13.305 20.942 21.786 30.388-9.073 9.369-16.105 19.387-21.76 29.918-6.267-10.795-12.865-20.571-22.694-29.918zM6737.235-2312.364c9.921-9.681 16.437-20.237 22.668-30.389 5.464 11.17 13.305 20.942 21.786 30.389-9.073 9.369-16.105 19.386-21.76 29.918-6.267-10.796-12.865-20.572-22.694-29.918zM6737.235-2245.467c9.921-9.682 16.437-20.237 22.668-30.389 5.464 11.17 13.305 20.942 21.786 30.389-9.073 9.368-16.105 19.386-21.76 29.918-6.267-10.796-12.865-20.572-22.694-29.918zM6737.235-2180.362c9.921-9.681 16.437-20.237 22.668-30.389 5.464 11.17 13.305 20.943 21.786 30.39-9.073 9.368-16.105 19.386-21.76 29.917-6.267-10.796-12.865-20.571-22.694-29.918zM6793.419-2343.33c9.92-9.682 16.436-20.238 22.667-30.39 5.464 11.17 13.306 20.942 21.786 30.39-9.073 9.368-16.105 19.385-21.76 29.917-6.267-10.796-12.865-20.572-22.693-29.918zM6792.951-2214.99c9.92-9.68 16.436-20.236 22.667-30.388 5.465 11.17 13.306 20.942 21.786 30.389-9.073 9.368-16.105 19.386-21.759 29.918-6.267-10.796-12.866-20.572-22.694-29.918zM6848.768-2377.695c9.92-9.681 16.436-20.237 22.667-30.388 5.465 11.17 13.306 20.942 21.787 30.388-9.074 9.369-16.106 19.387-21.76 29.918-6.267-10.795-12.866-20.571-22.694-29.918zM6848.768-2312.364c9.92-9.681 16.436-20.237 22.667-30.389 5.465 11.17 13.306 20.942 21.787 30.389-9.074 9.369-16.106 19.386-21.76 29.918-6.267-10.796-12.866-20.572-22.694-29.918zM6848.768-2245.467c9.92-9.682 16.436-20.237 22.667-30.389 5.465 11.17 13.306 20.942 21.787 30.389-9.074 9.368-16.106 19.386-21.76 29.918-6.267-10.796-12.866-20.572-22.694-29.918zM6848.768-2180.362c9.92-9.681 16.436-20.237 22.667-30.389 5.465 11.17 13.306 20.943 21.787 30.39-9.074 9.368-16.106 19.386-21.76 29.917-6.267-10.796-12.866-20.571-22.694-29.918zM6901.293-2186.406c4.064-3.966 6.732-8.29 9.285-12.449 2.238 4.576 5.45 8.579 8.925 12.449-3.717 3.837-6.598 7.941-8.914 12.255-2.567-4.422-5.27-8.427-9.296-12.255zM6712.477-2372.264c4.064-3.966 6.733-8.29 9.286-12.449 2.238 4.576 5.45 8.58 8.924 12.449-3.716 3.838-6.597 7.941-8.913 12.256-2.568-4.423-5.27-8.427-9.297-12.256zM6712.014-2389.656v-31.506h3.11v31.506zM6724.344-2421.162c-2.995 0-5.402 2.686-5.402 6.022v19.462c0 3.336 2.407 6.022 5.402 6.022h1.745c2.994 0 5.406-2.686 5.406-6.022v-19.462c0-3.336-2.412-6.022-5.406-6.022h-1.745zm.9 2.978c1.77 0 3.192 1.337 3.192 3.001v19.723c0 1.665-1.423 3.006-3.191 3.006-1.769 0-3.192-1.341-3.192-3.006v-19.723c0-1.664 1.423-3.001 3.192-3.001zM6919.986-2168.533v31.506h-3.111v-31.506zM6907.656-2137.027c2.994 0 5.402-2.686 5.402-6.022v-19.462c0-3.336-2.408-6.022-5.402-6.022h-1.745c-2.994 0-5.406 2.686-5.406 6.022v19.462c0 3.336 2.412 6.022 5.406 6.022h1.745zm-.9-2.978c-1.77 0-3.192-1.337-3.192-3.001v-19.723c0-1.665 1.423-3.007 3.191-3.007 1.769 0 3.192 1.342 3.192 3.007v19.723c0 1.664-1.423 3.001-3.192 3.001z"/></g></g></svg>